<?xml version="1.0" encoding="UTF-8"?>
<svg xmlns="http://www.w3.org/2000/svg" version="1.1" viewBox="0 0 600 600">
  <defs>
    <style>
      .cls-1 {
        fill: #231815;
      }

      .cls-2, .cls-3 {
        fill: none;
        stroke: #231815;
        stroke-miterlimit: 10;
      }

      .cls-4 {
        fill: #e60012;
      }

      .cls-5 {
        fill: #094;
      }

      .cls-3 {
        stroke-width: 2px;
      }
    </style>
  </defs>
  <!-- Generator: Adobe Illustrator 28.7.1, SVG Export Plug-In . SVG Version: 1.2.0 Build 142)  -->
  <g>
    <g id="_레이어_1" data-name="레이어_1">
      <path d="M388.8,296.3c0,.63-.11,1.33-.32,2.1s-.49,1.55-.83,2.32-.71,1.52-1.13,2.24c-.42.72-.83,1.33-1.23,1.82-1.64,1.98-3.33,3.48-5.09,4.53s-3.41,1.57-4.99,1.57c-.32,0-.53-.17-.64-.52s.02-.83.4-1.43c.27-.43.52-.9.74-1.41s.42-1.04.59-1.57c.17-.53.31-1.04.42-1.55s.19-.97.24-1.4c.04-.43.07-.87.07-1.33s-.02-.9-.07-1.31c-.05-.42-.12-.8-.22-1.16-.1-.36-.22-.65-.35-.88-.18-.31-.35-.63-.5-.94-.16-.31-.26-.62-.32-.91-.06-.29-.03-.56.08-.79.11-.24.36-.43.74-.59,1.71-.79,2.62.71,2.73,4.48.04,1.05-.07,2.08-.34,3.06-.27.99-.59,1.91-.98,2.76-.18.4-.34.79-.49,1.15-.15.36-.28.68-.39.98-.13.34-.27.64-.4.91,1.42-.54,2.61-1.09,3.59-1.67s1.8-1.14,2.48-1.7c.67-.56,1.23-1.1,1.67-1.62.44-.52.83-1,1.16-1.45.38-.49.71-1.03.98-1.6.27-.57.49-1.14.66-1.7.17-.56.3-1.1.39-1.63.09-.53.15-.99.17-1.4.02-.38.09-.62.22-.71.12-.09.26-.08.4.02.15.1.27.27.39.52s.17.52.17.81Z"/>
      <path d="M100.74,443.63c-.14.32-.34.64-.63.95-.28.31-.61.58-.99.82-.38.24-.8.4-1.25.5-.46.1-.94.08-1.46-.06-.35-.11-.61-.22-.79-.31-.18-.1-.32-.21-.44-.33-.12-.12-.23-.25-.32-.39-.09-.13-.22-.28-.38-.45-.32.19-.63.39-.91.59-.28.21-.61.41-.99.6-.38.19-.82.37-1.34.52-.51.15-1.15.24-1.9.27-1.05.05-1.93-.11-2.63-.5-.7-.39-1.25-.8-1.66-1.24-.11.49-.26,1.03-.44,1.6-.19.58-.42,1.36-.69,2.36-.11.46-.19.92-.24,1.38-.05.46-.12.9-.18,1.33-.07.43-.18.83-.32,1.21-.15.38-.37.7-.67.97-.3.24-.63.37-1.01.38-.38.01-.72-.06-1.01-.22-.3-.16-.52-.39-.67-.69-.15-.3-.16-.63-.02-1.01.35-.86.72-1.71,1.11-2.53.39-.82.76-1.61,1.11-2.37.43-.88.82-1.69,1.17-2.46.35-.76.61-1.37.77-1.83,0-1.13.11-2.47.34-4,.23-1.54.69-3.05,1.4-4.53.22-.46.5-1.07.85-1.84.35-.77.78-1.44,1.29-2,.16-.16.38-.35.65-.57.27-.21.55-.37.83-.46s.53-.09.75.02c.22.11.32.39.32.85.03.62-.14,1.32-.51,2.1s-.87,1.81-1.52,3.07c-.84,1.62-1.5,3.01-2,4.17-.5,1.16-.71,2.2-.63,3.11.03.22.1.46.22.73.12.27.32.51.61.73s.65.4,1.09.57c.45.16,1,.26,1.68.28.67.03,1.3-.04,1.88-.2.58-.16,1.07-.37,1.48-.63.4-.26.73-.53.97-.83s.39-.57.45-.81c-.03-.57.03-1.22.16-1.96.13-.74.32-1.51.55-2.31.23-.79.49-1.56.77-2.29.28-.73.55-1.36.79-1.9.11-.27.26-.61.47-1.01.2-.4.43-.82.67-1.25.24-.43.51-.85.79-1.25.28-.4.56-.73.83-.97.11-.11.26-.22.45-.34.19-.12.37-.15.55-.08.17.07.32.26.42.57.11.31.13.84.08,1.6-.05.89-.28,1.86-.67,2.91-.39,1.05-.79,2.02-1.19,2.91-.24.57-.53,1.15-.87,1.76s-.65,1.18-.93,1.72-.52,1-.71,1.4c-.19.39-.27.64-.24.75.05.35.22.59.49.71.27.12.59.16.97.1.38-.05.78-.18,1.21-.38.43-.2.84-.45,1.21-.75.3-.22.53-.33.71-.34.18-.01.29.05.34.18.05.14.06.33.02.59-.04.26-.11.52-.22.79Z"/>
    </g>
    <g id="_원통" data-name="원통">
      <path class="cls-2" d="M94.74,174.57c6.11,9.43,12.73,22.91,15.26,39.91,3.42,22.99-2.23,41.83-4.7,48.91-5.21,14.96-9.96,17.03-16.43,37.57-3.72,11.79-5.26,20.95-5.87,25.04-1.06,7.06-2.68,17.86-1.57,30.13.78,8.62,3.51,24.53,14.87,42.65h153.39"/>
      <path class="cls-2" d="M248.91,173.39c-2.39,5.68-5.12,13.07-7.43,21.91-1.35,5.14-3.32,12.8-4.3,23.09-1.36,14.25,0,25.2.78,31.3.85,6.57,1.76,13.35,4.7,21.91,1.59,4.65,3.3,8.25,6.65,15.26,7.56,15.81,8.59,15.38,10.96,21.52,3.84,9.98,3.87,18.31,3.91,30.52.05,14.15-2.09,24.78-2.74,27.78-2.78,12.93-7.28,23.7-11.74,32.09"/>
      <circle class="cls-5" cx="131.11" cy="209.47" r="7.01"/>
      <circle class="cls-5" cx="159.17" cy="209.47" r="7.01"/>
      <circle class="cls-5" cx="173.2" cy="209.47" r="7.01"/>
      <circle class="cls-5" cx="201.39" cy="209.39" r="7.01"/>
      <circle class="cls-5" cx="229.44" cy="209.39" r="7.01"/>
      <circle class="cls-5" cx="123.68" cy="223.5" r="7.01"/>
      <circle class="cls-5" cx="151.74" cy="223.5" r="7.01"/>
      <circle class="cls-5" cx="165.77" cy="223.5" r="7.01"/>
      <circle class="cls-5" cx="193.82" cy="223.5" r="7.01"/>
      <circle class="cls-5" cx="222.01" cy="223.42" r="7.01"/>
      <circle class="cls-5" cx="116.6" cy="237.7" r="7.01"/>
      <circle class="cls-5" cx="144.66" cy="237.7" r="7.01"/>
      <circle class="cls-5" cx="158.68" cy="237.7" r="7.01"/>
      <circle class="cls-5" cx="172.71" cy="237.7" r="7.01"/>
      <circle class="cls-5" cx="228.96" cy="237.61" r="7.01"/>
      <circle class="cls-5" cx="138.06" cy="251.72" r="7.01"/>
      <circle class="cls-5" cx="166.11" cy="251.72" r="7.01"/>
      <circle class="cls-5" cx="194.17" cy="251.72" r="7.01"/>
      <circle class="cls-5" cx="208.33" cy="251.64" r="7.01"/>
      <circle class="cls-5" cx="116.53" cy="265.44" r="7.01"/>
      <circle class="cls-5" cx="144.59" cy="265.44" r="7.01"/>
      <circle class="cls-5" cx="158.61" cy="265.44" r="7.01"/>
      <circle class="cls-5" cx="186.67" cy="265.44" r="7.01"/>
      <circle class="cls-5" cx="228.89" cy="265.35" r="7.01"/>
      <circle class="cls-5" cx="109.6" cy="279.64" r="7.01"/>
      <circle class="cls-5" cx="123.63" cy="279.64" r="7.01"/>
      <circle class="cls-5" cx="137.66" cy="279.64" r="7.01"/>
      <circle class="cls-5" cx="151.68" cy="279.64" r="7.01"/>
      <circle class="cls-5" cx="165.71" cy="279.64" r="7.01"/>
      <circle class="cls-5" cx="179.74" cy="279.64" r="7.01"/>
      <circle class="cls-5" cx="207.93" cy="279.56" r="7.01"/>
      <circle class="cls-5" cx="221.96" cy="279.56" r="7.01"/>
      <circle class="cls-5" cx="116.46" cy="293.93" r="7.01"/>
      <circle class="cls-5" cx="144.52" cy="293.93" r="7.01"/>
      <circle class="cls-5" cx="172.57" cy="293.93" r="7.01"/>
      <circle class="cls-5" cx="186.74" cy="293.84" r="7.01"/>
      <circle class="cls-5" cx="200.76" cy="293.84" r="7.01"/>
      <circle class="cls-5" cx="95.35" cy="307.64" r="7.01"/>
      <circle class="cls-5" cx="123.41" cy="307.64" r="7.01"/>
      <circle class="cls-5" cx="151.46" cy="307.64" r="7.01"/>
      <circle class="cls-5" cx="165.49" cy="307.64" r="7.01"/>
      <circle class="cls-5" cx="179.65" cy="307.56" r="7.01"/>
      <circle class="cls-5" cx="207.71" cy="307.56" r="7.01"/>
      <circle class="cls-5" cx="104.7" cy="321.44" r="7.01"/>
      <circle class="cls-5" cx="118.72" cy="321.44" r="7.01"/>
      <circle class="cls-5" cx="132.75" cy="321.44" r="7.01"/>
      <circle class="cls-5" cx="146.78" cy="321.44" r="7.01"/>
      <circle class="cls-5" cx="174.97" cy="321.35" r="7.01"/>
      <circle class="cls-5" cx="189" cy="321.35" r="7.01"/>
      <circle class="cls-5" cx="123.56" cy="336.1" r="7.01"/>
      <circle class="cls-5" cx="137.59" cy="336.1" r="7.01"/>
      <circle class="cls-5" cx="151.62" cy="336.1" r="7.01"/>
      <circle class="cls-5" cx="165.64" cy="336.1" r="7.01"/>
      <circle class="cls-5" cx="193.83" cy="336.01" r="7.01"/>
      <circle class="cls-5" cx="207.86" cy="336.01" r="7.01"/>
      <circle class="cls-5" cx="103.44" cy="349.77" r="7.01"/>
      <circle class="cls-5" cx="117.47" cy="349.77" r="7.01"/>
      <circle class="cls-5" cx="131.5" cy="349.77" r="7.01"/>
      <circle class="cls-5" cx="159.55" cy="349.77" r="7.01"/>
      <circle class="cls-5" cx="173.72" cy="349.69" r="7.01"/>
      <circle class="cls-5" cx="201.77" cy="349.69" r="7.01"/>
      <circle class="cls-5" cx="96.36" cy="363.54" r="7.01"/>
      <circle class="cls-5" cx="124.42" cy="363.54" r="7.01"/>
      <circle class="cls-5" cx="152.47" cy="363.54" r="7.01"/>
      <circle class="cls-5" cx="166.5" cy="363.54" r="7.01"/>
      <circle class="cls-5" cx="208.72" cy="363.45" r="7.01"/>
      <circle class="cls-5" cx="102.45" cy="377.56" r="7.01"/>
      <circle class="cls-5" cx="130.51" cy="377.56" r="7.01"/>
      <circle class="cls-5" cx="172.59" cy="377.56" r="7.01"/>
      <circle class="cls-5" cx="186.75" cy="377.48" r="7.01"/>
      <circle class="cls-5" cx="214.81" cy="377.48" r="7.01"/>
      <circle class="cls-5" cx="109.46" cy="391.06" r="7.01"/>
      <circle class="cls-5" cx="137.52" cy="391.06" r="7.01"/>
      <circle class="cls-5" cx="151.55" cy="391.06" r="7.01"/>
      <circle class="cls-5" cx="165.57" cy="391.06" r="7.01"/>
      <circle class="cls-5" cx="193.77" cy="390.97" r="7.01"/>
      <circle class="cls-5" cx="221.82" cy="390.97" r="7.01"/>
      <circle class="cls-5" cx="221.74" cy="307.68" r="7.01"/>
      <circle class="cls-5" cx="235.9" cy="307.6" r="7.01"/>
      <circle class="cls-5" cx="217.05" cy="321.79" r="7.01"/>
      <circle class="cls-5" cx="245.24" cy="321.71" r="7.01"/>
      <circle class="cls-5" cx="221.81" cy="336.06" r="7.01"/>
      <circle class="cls-5" cx="235.97" cy="335.97" r="7.01"/>
      <circle class="cls-5" cx="250" cy="335.97" r="7.01"/>
      <circle class="cls-5" cx="229.65" cy="349.65" r="7.01"/>
      <circle class="cls-5" cx="221.81" cy="363.49" r="7.01"/>
      <circle class="cls-5" cx="250" cy="363.41" r="7.01"/>
      <circle class="cls-5" cx="243.44" cy="377.52" r="7.01"/>
      <circle class="cls-5" cx="229.27" cy="293.57" r="7.01"/>
    </g>
    <g id="_빨강" data-name="빨강">
      <circle class="cls-4" cx="117.09" cy="209.47" r="7.01"/>
      <circle class="cls-4" cx="145.14" cy="209.47" r="7.01"/>
      <circle class="cls-4" cx="187.22" cy="209.47" r="7.01"/>
      <circle class="cls-4" cx="215.42" cy="209.39" r="7.01"/>
      <circle class="cls-4" cx="137.71" cy="223.5" r="7.01"/>
      <circle class="cls-4" cx="179.79" cy="223.5" r="7.01"/>
      <circle class="cls-4" cx="207.98" cy="223.42" r="7.01"/>
      <circle class="cls-4" cx="130.63" cy="237.7" r="7.01"/>
      <circle class="cls-4" cx="186.74" cy="237.7" r="7.01"/>
      <circle class="cls-4" cx="200.9" cy="237.61" r="7.01"/>
      <circle class="cls-4" cx="214.93" cy="237.61" r="7.01"/>
      <circle class="cls-4" cx="124.03" cy="251.72" r="7.01"/>
      <circle class="cls-4" cx="152.09" cy="251.72" r="7.01"/>
      <circle class="cls-4" cx="180.14" cy="251.72" r="7.01"/>
      <circle class="cls-4" cx="222.36" cy="251.64" r="7.01"/>
      <circle class="cls-4" cx="130.56" cy="265.44" r="7.01"/>
      <circle class="cls-4" cx="172.64" cy="265.44" r="7.01"/>
      <circle class="cls-4" cx="200.83" cy="265.35" r="7.01"/>
      <circle class="cls-4" cx="214.86" cy="265.35" r="7.01"/>
      <circle class="cls-4" cx="193.9" cy="279.56" r="7.01"/>
      <circle class="cls-4" cx="102.44" cy="293.93" r="7.01"/>
      <circle class="cls-4" cx="130.49" cy="293.93" r="7.01"/>
      <circle class="cls-4" cx="158.55" cy="293.93" r="7.01"/>
      <circle class="cls-4" cx="214.79" cy="293.84" r="7.01"/>
      <circle class="cls-4" cx="109.38" cy="307.64" r="7.01"/>
      <circle class="cls-4" cx="137.44" cy="307.64" r="7.01"/>
      <circle class="cls-4" cx="193.68" cy="307.56" r="7.01"/>
      <circle class="cls-4" cx="90.67" cy="321.44" r="7.01"/>
      <circle class="cls-4" cx="160.8" cy="321.44" r="7.01"/>
      <circle class="cls-4" cx="203.02" cy="321.35" r="7.01"/>
      <circle class="cls-4" cx="95.51" cy="336.1" r="7.01"/>
      <circle class="cls-4" cx="109.53" cy="336.1" r="7.01"/>
      <circle class="cls-4" cx="179.81" cy="336.01" r="7.01"/>
      <circle class="cls-4" cx="89.42" cy="349.77" r="7.01"/>
      <circle class="cls-4" cx="145.53" cy="349.77" r="7.01"/>
      <circle class="cls-4" cx="187.74" cy="349.69" r="7.01"/>
      <circle class="cls-4" cx="110.39" cy="363.54" r="7.01"/>
      <circle class="cls-4" cx="138.44" cy="363.54" r="7.01"/>
      <circle class="cls-4" cx="180.66" cy="363.45" r="7.01"/>
      <circle class="cls-4" cx="194.69" cy="363.45" r="7.01"/>
      <circle class="cls-4" cx="116.48" cy="377.56" r="7.01"/>
      <circle class="cls-4" cx="144.53" cy="377.56" r="7.01"/>
      <circle class="cls-4" cx="158.56" cy="377.56" r="7.01"/>
      <circle class="cls-4" cx="200.78" cy="377.48" r="7.01"/>
      <circle class="cls-4" cx="123.49" cy="391.06" r="7.01"/>
      <circle class="cls-4" cx="179.6" cy="391.06" r="7.01"/>
      <circle class="cls-4" cx="207.79" cy="390.97" r="7.01"/>
      <circle class="cls-4" cx="249.93" cy="307.6" r="7.01"/>
      <circle class="cls-4" cx="231.22" cy="321.71" r="7.01"/>
      <circle class="cls-4" cx="215.48" cy="349.73" r="7.01"/>
      <circle class="cls-4" cx="243.68" cy="349.65" r="7.01"/>
      <circle class="cls-4" cx="235.97" cy="363.41" r="7.01"/>
      <circle class="cls-4" cx="229.27" cy="377.6" r="7.01"/>
      <circle class="cls-4" cx="235.83" cy="391.72" r="7.01"/>
      <circle class="cls-4" cx="243.44" cy="293.49" r="7.01"/>
      <circle class="cls-4" cx="235.9" cy="279.51" r="7.01"/>
      <circle class="cls-4" cx="376.15" cy="265.4" r="7.01"/>
      <circle class="cls-4" cx="463.15" cy="265.31" r="7.01"/>
      <circle class="cls-4" cx="480.43" cy="265.52" r="7.01"/>
    </g>
    <g id="_샘플원통" data-name="샘플원통">
      <circle class="cls-5" cx="357.96" cy="265.48" r="7.01"/>
      <circle class="cls-5" cx="393.01" cy="265.4" r="7.01"/>
      <circle class="cls-5" cx="411.31" cy="265.35" r="7.01"/>
      <circle class="cls-5" cx="428.28" cy="265.52" r="7.01"/>
      <circle class="cls-5" cx="445.47" cy="265.4" r="7.01"/>
      <circle class="cls-5" cx="497.9" cy="265.31" r="7.01"/>
      <circle class="cls-5" cx="515.81" cy="265.31" r="7.01"/>
    </g>
    <g id="_글씨" data-name="글씨">
      <g>
        <path d="M152.81,132.61v-.77h3.85v1.08h-.3l-3.55-.3ZM152.81,150.14v-.78l3.55-.32h.3v1.1h-3.85ZM155.28,150.14c.03-1.42.05-2.84.06-4.28,0-1.43.01-2.88.01-4.35v-1.23c0-1.42,0-2.83-.01-4.24,0-1.41-.03-2.81-.06-4.21h2.73c-.05,1.38-.08,2.78-.09,4.2,0,1.42-.01,2.87-.01,4.35v.5c0,1.75,0,3.37.01,4.86,0,1.49.04,2.95.09,4.39h-2.73ZM156.66,150.14v-.85h3.35c1.53,0,2.73-.35,3.59-1.06.86-.71,1.29-1.73,1.29-3.06s-.43-2.4-1.28-3.1-2.18-1.05-4-1.05h-2.95v-.8h2.7c1.55,0,2.72-.35,3.5-1.05.78-.7,1.18-1.68,1.18-2.95,0-1.1-.33-1.96-.99-2.58-.66-.62-1.76-.93-3.31-.93h-3.08v-.88h3.8c1.42,0,2.57.18,3.46.55.89.37,1.55.88,1.98,1.53.42.65.64,1.4.64,2.25,0,.72-.19,1.39-.56,2.01-.38.62-.99,1.15-1.84,1.59s-1.98.73-3.38.88l.1-.25c1.58.08,2.86.33,3.84.75.98.42,1.69.97,2.14,1.66s.68,1.47.68,2.34c0,.65-.13,1.27-.39,1.86-.26.59-.67,1.13-1.24,1.6-.57.48-1.32.85-2.25,1.12s-2.08.41-3.45.41h-3.53Z"/>
        <path d="M169.29,132.61v-.77h7.73v.77l-3.6.3h-.58l-3.55-.3ZM169.29,150.14v-.78l3.55-.32h.58l3.6.32v.78h-7.73ZM171.76,150.14c.05-1.4.07-2.81.07-4.23v-9.84c0-1.41-.02-2.82-.07-4.24h2.75c-.03,1.4-.05,2.81-.06,4.23,0,1.42-.01,2.84-.01,4.28v1.3c0,1.43,0,2.85.01,4.26,0,1.41.03,2.82.06,4.24h-2.75Z"/>
        <path d="M193.64,150.29l-11.23-16.45-.05-.05-.67-1-2.35-.18v-.77h4.75l10.38,15.33-.45.15-.05-7.45v-8.03h.95v18.45h-1.28ZM179.36,150.14v-.78l2.63-.32h.6l3.28.32v.78h-6.5ZM181.76,150.14v-17.68h.9l.15,10.13v7.55h-1.05ZM190.86,132.61v-.77h6.5v.77l-2.63.3h-.55l-3.33-.3Z"/>
      </g>
      <g>
        <path d="M392.7,234.34c-1.03,0-2.03-.14-2.99-.43-.96-.28-1.75-.62-2.39-1.03l.15-3.85h1.1l.92,4.3-1.25-.6-.18-.83c.8.58,1.52.98,2.16,1.19s1.4.31,2.26.31c1.33,0,2.4-.3,3.19-.91s1.19-1.49,1.19-2.64c0-.6-.1-1.12-.31-1.55-.21-.43-.56-.83-1.06-1.2s-1.18-.73-2.05-1.08l-1.1-.45c-1.52-.65-2.67-1.4-3.45-2.26-.78-.86-1.17-1.95-1.17-3.26,0-1.08.26-1.98.79-2.7.52-.72,1.24-1.26,2.15-1.62.91-.37,1.93-.55,3.06-.55.97,0,1.82.12,2.56.36.74.24,1.43.58,2.06,1.01l-.12,3.65h-1.15l-.9-4.1,1.3.6.12.85c-.67-.53-1.27-.91-1.8-1.12-.53-.22-1.16-.33-1.88-.33-1.15,0-2.1.28-2.84.84-.74.56-1.11,1.36-1.11,2.41,0,.93.27,1.68.81,2.24.54.56,1.3,1.05,2.26,1.46l1.17.48c1.25.53,2.24,1.07,2.98,1.6.73.53,1.25,1.12,1.56,1.76.31.64.46,1.4.46,2.26,0,1.05-.27,1.96-.8,2.74-.53.77-1.29,1.38-2.26,1.8-.98.42-2.13.64-3.46.64Z"/>
        <path d="M400.2,233.91v-.78l2.48-.3h.45l2.7.3v.78h-5.63ZM402,233.91l6.13-18.43h1.62l6.25,18.43h-2.65l-5.45-16.73h.53l-.1.35-5.23,16.38h-1.1ZM404.73,227.74l.1-.8h7.7l.13.8h-7.93ZM410.3,233.91v-.78l3.35-.3h.9l3.3.3v.78h-7.55Z"/>
        <path d="M418.93,233.91v-.78l2.85-.32h.5l2.9.32v.78h-6.25ZM419.05,216.38v-.77h3.53v1.08h-.25l-3.28-.3ZM421.48,233.91l.05-18.3h.83l.17,8.83v9.48h-1.05ZM428.96,233.91l-7.03-17.4h-.15v-.9h2.42l6.25,15.63h-.58l.17-.35,6-15.28h1.08v.9h-.42l-.28.68-6.55,16.73h-.93ZM433.66,233.91v-.78l3.53-.32h.55l3.6.32v.78h-7.68ZM436.11,233.91c.03-1.42.05-2.82.05-4.2s0-2.7.02-3.95l.1-10.15h2.53c-.03,1.4-.05,2.81-.06,4.23,0,1.42-.01,2.84-.01,4.28v1.33c0,1.42,0,2.83.01,4.25,0,1.42.03,2.83.06,4.23h-2.7ZM437.46,216.68v-1.08h3.83v.77l-3.53.3h-.3Z"/>
        <path d="M443.86,216.38v-.77h3.85v1.08h-.3l-3.55-.3ZM443.86,233.91v-.78l3.55-.32h.77l3.68.32v.78h-8ZM446.33,233.91c.03-1.4.05-2.81.06-4.23,0-1.42.01-2.83.01-4.25v-1.33c0-1.43,0-2.85-.01-4.26,0-1.41-.03-2.82-.06-4.24h2.73c-.02,1.4-.03,2.81-.04,4.23,0,1.42-.01,2.84-.01,4.28v1.75c0,1.23,0,2.53.01,3.89,0,1.36.02,2.75.04,4.16h-2.73ZM447.71,226.46v-.85h2.62c1.22,0,2.2-.2,2.95-.59s1.3-.94,1.66-1.65c.36-.71.54-1.51.54-2.41,0-1.47-.38-2.58-1.12-3.34-.75-.76-1.91-1.14-3.48-1.14h-3.18v-.88h3.33c2.38,0,4.14.48,5.26,1.43,1.13.95,1.69,2.26,1.69,3.93,0,1.02-.26,1.94-.78,2.78-.52.83-1.33,1.5-2.45,1.99-1.12.49-2.57.74-4.35.74h-2.7Z"/>
        <path d="M459.86,216.38v-.77h7.8v.77l-3.6.3h-.65l-3.55-.3ZM459.86,233.91v-.78l3.55-.32h.33l-.03,1.1h-3.85ZM462.34,233.91c.03-1.4.05-2.8.06-4.19,0-1.39.01-2.73.01-4.01v-1.6c0-1.43,0-2.86-.01-4.28,0-1.42-.03-2.83-.06-4.23h2.73c-.02,1.4-.03,2.82-.04,4.25,0,1.43-.01,2.92-.01,4.45v1.48c0,1.23,0,2.54.01,3.93,0,1.38.02,2.78.04,4.2h-2.73ZM463.71,233.91l.03-.88h8.83l-1.25.67,1-4.8h1.12l-.12,5h-9.6Z"/>
        <path d="M475.37,216.38v-.77h3.85v1.08h-.3l-3.55-.3ZM475.37,233.91v-.78l3.55-.32h.3v1.1h-3.85ZM477.84,233.91c.03-1.4.05-2.81.06-4.23,0-1.42.01-2.83.01-4.25v-1.33c0-1.43,0-2.85-.01-4.26,0-1.41-.03-2.82-.06-4.24h2.73c-.02,1.4-.03,2.82-.04,4.26,0,1.44-.01,2.94-.01,4.49v.6c0,1.65,0,3.2.01,4.65s.02,2.88.04,4.3h-2.73ZM487.82,220.21l-.92-4.45,1.3.75h-8.98v-.9h9.6l.15,4.6h-1.15ZM479.22,225.03v-.85h6.05v.85h-6.05ZM479.22,233.91v-.88h9.43l-1.3.7.95-4.5h1.12l-.12,4.68h-10.08ZM485.07,227.59l-.35-2.78v-.52l.35-2.7h.95v6h-.95Z"/>
      </g>
      <g>
        <path class="cls-3" d="M167.52,190.61c6.41-5.26,16.12-12.11,29.15-17.61,5.59-2.36,20.31-8.06,40.3-9.2,6.59-.37,25.01-.89,47.15,6.46,8.21,2.72,22.09,8.24,36.78,19.17,3.75,2.79,16.09,12.29,27.98,28.37,3.5,4.74,6.25,9.07,8.31,12.6"/>
        <polygon class="cls-1" points="346.74 228.96 347.29 227.03 356.77 229.77 358.8 220.12 360.76 220.53 358.28 232.28 346.74 228.96"/>
      </g>
      <g>
        <path d="M410.9,299.6h-12.8v-1.1h12.8v1.1ZM410.9,305.21h-12.8v-1.12h12.8v1.12Z"/>
        <path d="M427.57,310.88c.03-.95.06-1.91.08-2.88s.03-1.93.03-2.88v-6.35h-2.3v-.78l3.18-.27-.9.45.03-.18c.08-1.6.31-2.88.69-3.83s.89-1.73,1.54-2.35c.57-.52,1.16-.89,1.78-1.11.62-.22,1.24-.34,1.88-.34s1.2.12,1.7.35c.5.23.82.58.95,1.05-.02.33-.14.61-.38.84-.23.22-.56.34-.97.34-.35,0-.68-.1-.99-.3-.31-.2-.64-.52-.99-.95l-.65-.77v-.23h1.08v.2c-.47.05-.9.2-1.29.46-.39.26-.71.58-.96.96-.27.43-.48.92-.64,1.45-.16.53-.26,1.18-.3,1.93-.04.75-.05,1.66-.01,2.73v6.7c0,.95,0,1.91.02,2.88s.04,1.92.08,2.88h-2.63ZM425.47,310.88v-.7l2.88-.27h1.3l3.03.27v.7h-7.2ZM428.9,298.78v-.95h4.93v.95h-4.93Z"/>
        <path d="M437.35,310.88c.02-.42.03-.97.04-1.65,0-.68.02-1.4.03-2.15,0-.75.01-1.4.01-1.95v-1.62c0-.87,0-1.62-.01-2.25,0-.63-.03-1.25-.06-1.85l-2.13-.15v-.62l4.15-1.1.33.2.15,3.53v3.88c0,.55,0,1.2.01,1.95s.02,1.47.03,2.15c0,.68.02,1.23.04,1.65h-2.58ZM435.38,310.88v-.7l2.73-.3h1.38l2.8.3v.7h-6.9ZM439.85,302.91l-.62-1.38h.5c.27-.83.62-1.55,1.06-2.16.44-.61.94-1.08,1.5-1.41s1.13-.5,1.71-.5c.5,0,.94.1,1.31.31s.62.54.74.99c0,.45-.11.82-.34,1.1-.23.28-.58.43-1.06.43-.33,0-.63-.09-.9-.28-.27-.18-.55-.44-.85-.77l-.58-.58,1.08.05c-.82.28-1.51.75-2.09,1.41s-1.06,1.59-1.46,2.79Z"/>
        <path d="M450.53,311.26c-1,0-1.83-.28-2.5-.85-.67-.57-1-1.38-1-2.43,0-.67.15-1.26.44-1.78.29-.52.78-.98,1.46-1.39s1.6-.78,2.75-1.11c.68-.2,1.42-.4,2.2-.6s1.51-.38,2.18-.55v.62c-.67.17-1.34.35-2.01.54-.68.19-1.28.39-1.81.59-1.02.38-1.75.85-2.19,1.39-.44.54-.66,1.19-.66,1.94s.2,1.34.61,1.72c.41.38.95.58,1.61.58.35,0,.7-.07,1.05-.2.35-.13.75-.38,1.2-.74s.98-.85,1.6-1.49l.25,1.22h-.67c-.5.55-.97,1.01-1.42,1.39s-.92.66-1.4.85c-.48.19-1.04.29-1.68.29ZM457.28,311.23c-.77,0-1.35-.25-1.74-.75-.39-.5-.62-1.18-.69-2.05v-6.68c0-.93-.1-1.65-.3-2.15-.2-.5-.5-.85-.91-1.05s-.94-.3-1.59-.3c-.47,0-.94.06-1.41.19-.47.12-1,.34-1.56.64l1.23-.68-.38,1.98c-.05.52-.2.88-.44,1.1-.24.22-.53.32-.86.32-.67,0-1.08-.32-1.23-.97.22-1.05.79-1.88,1.71-2.48.93-.6,2.15-.9,3.66-.9s2.63.36,3.35,1.08,1.08,1.88,1.08,3.48v6.28c0,.72.09,1.21.26,1.48.17.27.42.4.74.4.2,0,.38-.05.55-.15.17-.1.36-.28.58-.53l.4.35c-.27.48-.6.84-1.01,1.06-.41.23-.89.34-1.44.34Z"/>
        <path d="M467.43,311.26c-1.23,0-2.33-.27-3.28-.8s-1.7-1.3-2.25-2.3-.83-2.21-.83-3.63c0-1.52.31-2.8.94-3.85s1.45-1.85,2.48-2.4c1.03-.55,2.13-.83,3.31-.83.78,0,1.5.15,2.16.44.66.29,1.21.69,1.66,1.2.45.51.76,1.1.92,1.79-.18.63-.58.95-1.17.95-.38,0-.7-.11-.94-.33-.24-.22-.4-.59-.46-1.12l-.58-2.25,1.38,1.03c-.5-.32-.97-.54-1.41-.68-.44-.13-.89-.2-1.34-.2-.83,0-1.58.24-2.25.71-.67.48-1.19,1.15-1.58,2.04-.38.88-.58,1.95-.58,3.2,0,1.8.44,3.2,1.31,4.19.88.99,2.01,1.49,3.41,1.49.73,0,1.42-.15,2.06-.45.64-.3,1.22-.75,1.74-1.35l.43.33c-.57.92-1.26,1.62-2.08,2.1-.82.48-1.84.72-3.08.72Z"/>
        <path d="M479.46,311.26c-1.08,0-1.89-.28-2.43-.84-.53-.56-.8-1.42-.8-2.59,0-.42,0-.79.01-1.12,0-.33.01-.73.01-1.2v-6.73h-2.4v-.78l2.93-.22-.47.35.88-4.23h1.6l-.07,4.33v9.68c0,.75.15,1.3.44,1.64.29.34.7.51,1.24.51.37,0,.69-.06.96-.17.28-.12.58-.28.91-.5l.38.45c-.35.47-.78.82-1.3,1.06s-1.14.36-1.88.36ZM477.48,298.78v-.95h4.7v.95h-4.7Z"/>
        <path d="M485.91,310.88c.02-.42.03-.97.05-1.65.02-.68.03-1.4.04-2.15,0-.75.01-1.4.01-1.95v-1.6c0-.85,0-1.6-.02-2.26-.02-.66-.04-1.3-.08-1.91l-2.15-.12v-.63l4.43-1.08.33.2-.08,3.6v3.8c0,.55,0,1.2.01,1.95,0,.75.02,1.47.03,2.15,0,.68.02,1.23.04,1.65h-2.6ZM483.94,310.88v-.7l2.73-.27h1l2.68.27v.7h-6.4ZM487.04,294.5c-.43,0-.8-.14-1.11-.43-.31-.28-.46-.65-.46-1.1s.15-.82.46-1.1c.31-.28.68-.43,1.11-.43s.81.14,1.12.43c.32.28.48.65.48,1.1s-.16.82-.48,1.1c-.32.28-.69.43-1.12.43Z"/>
        <path d="M498.84,311.26c-1.17,0-2.23-.26-3.2-.79-.97-.53-1.74-1.3-2.31-2.34-.58-1.03-.86-2.29-.86-3.78s.3-2.76.9-3.79c.6-1.03,1.39-1.8,2.36-2.33s2.01-.79,3.11-.79,2.19.26,3.16.79,1.76,1.3,2.36,2.33c.6,1.02.9,2.29.9,3.79s-.3,2.74-.89,3.78c-.59,1.03-1.37,1.81-2.34,2.34-.97.52-2.03.79-3.2.79ZM498.84,310.46c1.18,0,2.11-.52,2.78-1.55.67-1.03,1-2.54,1-4.53s-.33-3.5-1-4.54c-.67-1.04-1.59-1.56-2.78-1.56s-2.08.52-2.75,1.56c-.67,1.04-1,2.56-1,4.54s.33,3.49,1,4.53c.67,1.03,1.58,1.55,2.75,1.55Z"/>
        <path d="M509.39,310.88c.02-.42.03-.97.04-1.65,0-.68.02-1.4.02-2.15,0-.75.01-1.4.01-1.95v-1.62c0-.85,0-1.6-.01-2.24,0-.64-.03-1.26-.06-1.86l-2.12-.15v-.62l4.15-1.1.33.2.15,2.9v4.5c0,.55,0,1.2.01,1.95,0,.75.02,1.47.02,2.15,0,.68.02,1.23.04,1.65h-2.58ZM507.42,310.88v-.7l2.7-.27h1.03l2.62.27v.7h-6.35ZM517.92,310.88c.02-.42.03-.96.04-1.64s.02-1.39.03-2.14c0-.75.01-1.41.01-1.98v-3.05c0-1.17-.19-1.99-.58-2.46-.38-.48-.93-.71-1.63-.71-.55,0-1.21.19-1.98.56s-1.58,1.05-2.45,2.01l-.17-.9h.28c.92-1.13,1.82-1.94,2.7-2.41s1.77-.71,2.65-.71c1.12,0,1.99.37,2.63,1.11.63.74.95,1.95.95,3.61v2.95c0,.57,0,1.23.01,1.98,0,.75.02,1.46.04,2.14s.03,1.22.05,1.64h-2.58ZM515.97,310.88v-.7l2.65-.27h1.05l2.63.27v.7h-6.33Z"/>
      </g>
      <g>
        <path d="M354.83,340.05c-1.17,0-2.23-.26-3.2-.79-.97-.53-1.74-1.3-2.31-2.34-.57-1.03-.86-2.29-.86-3.78s.3-2.76.9-3.79c.6-1.03,1.39-1.8,2.36-2.33.97-.53,2.01-.79,3.11-.79s2.19.26,3.16.79c.97.52,1.76,1.3,2.36,2.33.6,1.03.9,2.29.9,3.79s-.3,2.74-.89,3.78c-.59,1.03-1.37,1.81-2.34,2.34-.97.52-2.03.79-3.2.79ZM354.83,339.25c1.18,0,2.11-.52,2.78-1.55.67-1.03,1-2.54,1-4.53s-.33-3.5-1-4.54c-.67-1.04-1.59-1.56-2.78-1.56s-2.08.52-2.75,1.56c-.67,1.04-1,2.56-1,4.54s.33,3.49,1,4.53c.67,1.03,1.58,1.55,2.75,1.55Z"/>
        <path d="M365.4,339.68c.03-.95.06-1.91.08-2.88s.03-1.93.03-2.88v-6.35h-2.3v-.78l3.18-.27-.9.45.03-.18c.08-1.6.31-2.88.69-3.83s.89-1.73,1.54-2.35c.57-.52,1.16-.89,1.78-1.11.62-.22,1.24-.34,1.88-.34s1.2.12,1.7.35c.5.23.82.58.95,1.05-.02.33-.14.61-.38.84-.23.22-.56.34-.97.34-.35,0-.68-.1-.99-.3s-.64-.52-.99-.95l-.65-.78v-.22h1.08v.2c-.47.05-.9.2-1.29.46-.39.26-.71.58-.96.96-.27.43-.48.92-.64,1.45-.16.53-.26,1.18-.3,1.93-.04.75-.05,1.66-.01,2.73v6.7c0,.95,0,1.91.02,2.88s.04,1.92.08,2.88h-2.63ZM363.3,339.68v-.7l2.88-.27h1.3l3.03.27v.7h-7.2ZM366.73,327.58v-.95h4.93v.95h-4.93Z"/>
        <path d="M381.56,339.68c.02-.42.03-.97.04-1.65,0-.68.02-1.4.02-2.15,0-.75.01-1.4.01-1.95v-1.62c0-.87,0-1.62-.01-2.25,0-.63-.03-1.25-.06-1.85l-2.12-.15v-.62l4.15-1.1.33.2.15,3.53v3.88c0,.55,0,1.2.01,1.95,0,.75.02,1.47.02,2.15,0,.68.02,1.23.04,1.65h-2.58ZM379.58,339.68v-.7l2.73-.3h1.38l2.8.3v.7h-6.9ZM384.06,331.7l-.62-1.38h.5c.27-.83.62-1.55,1.06-2.16s.94-1.08,1.5-1.41c.56-.33,1.13-.5,1.71-.5.5,0,.94.1,1.31.31.38.21.62.54.74.99,0,.45-.11.82-.34,1.1-.22.28-.58.43-1.06.43-.33,0-.63-.09-.9-.28s-.55-.44-.85-.78l-.58-.58,1.08.05c-.82.28-1.51.75-2.09,1.41-.58.66-1.06,1.59-1.46,2.79Z"/>
        <path d="M397.61,340.05c-1.27,0-2.39-.26-3.38-.77-.98-.52-1.75-1.29-2.31-2.31s-.84-2.29-.84-3.79.29-2.67.88-3.7c.58-1.03,1.36-1.83,2.33-2.39s2.01-.84,3.13-.84,2.1.23,2.89.7,1.39,1.1,1.8,1.89c.41.79.61,1.7.61,2.71,0,.6-.05,1.1-.15,1.5h-10.38v-.8h7c.47,0,.78-.12.95-.38.17-.25.25-.65.25-1.2,0-1.08-.27-1.95-.8-2.61-.53-.66-1.28-.99-2.25-.99-.68,0-1.3.22-1.86.66s-1,1.09-1.34,1.95c-.33.86-.5,1.91-.5,3.16,0,1.35.2,2.46.61,3.34.41.88.96,1.51,1.66,1.91s1.51.6,2.43.6,1.65-.16,2.29-.48c.64-.32,1.2-.77,1.69-1.35l.43.33c-.53.9-1.23,1.6-2.09,2.1-.86.5-1.87.75-3.04.75Z"/>
        <path d="M410.49,340.05c-1.07,0-2.02-.28-2.86-.84-.84-.56-1.5-1.35-1.98-2.36-.47-1.02-.71-2.2-.71-3.55,0-1.45.26-2.7.79-3.75s1.23-1.86,2.13-2.44c.89-.58,1.89-.86,2.99-.86.75,0,1.47.18,2.15.55.68.37,1.33.98,1.92,1.83h.25l-.35.58c-.57-.6-1.1-1.03-1.61-1.29s-1.05-.39-1.64-.39c-.73,0-1.4.19-2.01.56-.61.38-1.1.98-1.46,1.83-.37.84-.55,1.95-.55,3.31,0,1.28.17,2.33.51,3.15.34.82.8,1.42,1.39,1.8.58.38,1.24.58,1.97.58.63,0,1.22-.14,1.75-.41.53-.27,1.07-.73,1.6-1.36l.35.65h-.22c-.57.8-1.22,1.4-1.96,1.81-.74.41-1.55.61-2.44.61ZM414.59,339.93l-.15-2.42v-8.78l.07-.25v-7.43l-2.22-.12v-.67l4.28-.8.38.23-.08,3.83v15.33l2.2.15v.7l-4.48.25Z"/>
        <path d="M429.07,339.68c.02-.42.03-.97.04-1.65,0-.68.02-1.4.02-2.15,0-.75.01-1.4.01-1.95v-1.65c0-.85,0-1.59-.01-2.23,0-.63-.03-1.26-.06-1.88l-2.12-.12v-.62l4.15-1.1.33.2.15,2.83v4.58c0,.55,0,1.2.01,1.95,0,.75.02,1.47.02,2.15,0,.68.02,1.23.04,1.65h-2.58ZM427.09,339.68v-.7l2.7-.27h1.03l2.62.27v.7h-6.35ZM437.34,339.68c.02-.42.03-.96.04-1.64,0-.67.02-1.39.03-2.14,0-.75.01-1.41.01-1.98v-2.95c0-1.2-.19-2.05-.56-2.54-.38-.49-.89-.74-1.54-.74s-1.28.21-2,.62c-.72.42-1.48,1.09-2.28,2.03l-.2-.97h.33c.78-1.02,1.6-1.79,2.44-2.33.84-.53,1.73-.8,2.66-.8,1.12,0,1.98.37,2.6,1.11.62.74.92,1.95.92,3.61v2.95c0,.57,0,1.23.01,1.98,0,.75.02,1.46.02,2.14,0,.67.02,1.22.04,1.64h-2.53ZM435.39,339.68v-.7l2.63-.27h1.08l2.58.27v.7h-6.28ZM445.54,339.68c.02-.42.03-.96.04-1.64,0-.67.02-1.39.02-2.14s.01-1.41.01-1.98v-2.95c0-1.23-.19-2.09-.56-2.56-.38-.47-.91-.71-1.61-.71-.62,0-1.27.19-1.96.56-.69.38-1.44,1.03-2.24,1.96l-.25-1.02h.35c.78-1.02,1.59-1.76,2.43-2.24.83-.48,1.7-.71,2.6-.71,1.2,0,2.11.37,2.73,1.11.62.74.92,1.95.92,3.64v2.93c0,.57,0,1.23.01,1.98,0,.75.02,1.46.03,2.14,0,.67.02,1.22.04,1.64h-2.55ZM443.62,339.68v-.7l2.6-.27h1.08l2.6.27v.7h-6.28Z"/>
        <path d="M455.35,340.05c-1,0-1.83-.28-2.5-.85s-1-1.38-1-2.43c0-.67.15-1.26.44-1.78.29-.52.78-.98,1.46-1.39s1.6-.78,2.75-1.11c.68-.2,1.42-.4,2.2-.6.78-.2,1.51-.38,2.17-.55v.62c-.67.17-1.34.35-2.01.54-.67.19-1.28.39-1.81.59-1.02.38-1.75.85-2.19,1.39-.44.54-.66,1.19-.66,1.94s.2,1.34.61,1.72c.41.38.95.58,1.61.58.35,0,.7-.07,1.05-.2.35-.13.75-.38,1.2-.74s.98-.85,1.6-1.49l.25,1.22h-.67c-.5.55-.98,1.01-1.43,1.39s-.92.66-1.4.85-1.04.29-1.67.29ZM462.1,340.03c-.77,0-1.35-.25-1.74-.75-.39-.5-.62-1.18-.69-2.05v-6.68c0-.93-.1-1.65-.3-2.15s-.5-.85-.91-1.05c-.41-.2-.94-.3-1.59-.3-.47,0-.94.06-1.41.19-.48.12-1,.34-1.56.64l1.22-.68-.38,1.98c-.05.52-.2.88-.44,1.1-.24.22-.53.32-.86.32-.67,0-1.08-.32-1.23-.97.22-1.05.79-1.88,1.71-2.48.92-.6,2.15-.9,3.66-.9s2.63.36,3.35,1.08,1.08,1.88,1.08,3.48v6.28c0,.72.09,1.21.26,1.48s.42.4.74.4c.2,0,.38-.05.55-.15.17-.1.36-.28.58-.53l.4.35c-.27.48-.6.84-1.01,1.06-.41.23-.89.34-1.44.34Z"/>
        <path d="M467.72,339.68c.02-.42.03-.97.04-1.65,0-.68.02-1.4.02-2.15,0-.75.01-1.4.01-1.95v-1.62c0-.87,0-1.62-.01-2.25,0-.63-.03-1.25-.06-1.85l-2.12-.15v-.62l4.15-1.1.33.2.15,3.53v3.88c0,.55,0,1.2.01,1.95,0,.75.02,1.47.02,2.15,0,.68.02,1.23.04,1.65h-2.58ZM465.75,339.68v-.7l2.73-.3h1.38l2.8.3v.7h-6.9ZM470.23,331.7l-.62-1.38h.5c.27-.83.62-1.55,1.06-2.16s.94-1.08,1.5-1.41c.56-.33,1.13-.5,1.71-.5.5,0,.94.1,1.31.31.38.21.62.54.74.99,0,.45-.11.82-.34,1.1-.22.28-.58.43-1.06.43-.33,0-.63-.09-.9-.28s-.55-.44-.85-.78l-.58-.58,1.08.05c-.82.28-1.51.75-2.09,1.41-.58.66-1.06,1.59-1.46,2.79Z"/>
        <path d="M477.2,339.68v-.7l2-.17c.02-.48.03-1.02.03-1.6s0-1.16.01-1.74c0-.58.01-1.09.01-1.54v-12.88l-2.12-.12v-.67l4.23-.8.38.23-.08,3.9v4.98l.05.25v8.9l-.38,2.25-4.12-.28ZM485.68,340.05c-.8,0-1.59-.2-2.36-.6-.78-.4-1.47-1.05-2.09-1.95h-.28l.35-.58c.6.67,1.18,1.14,1.75,1.41.57.28,1.16.41,1.78.41.68,0,1.31-.18,1.89-.54.58-.36,1.04-.95,1.39-1.79.35-.83.52-1.97.52-3.4,0-1.88-.35-3.27-1.05-4.16s-1.6-1.34-2.7-1.34c-.38,0-.77.05-1.17.16-.4.11-.82.32-1.25.63-.43.31-.92.75-1.45,1.34l-.3-.72h.38c.68-.93,1.45-1.61,2.29-2.04s1.7-.64,2.56-.64c1.03,0,1.95.28,2.74.83.79.55,1.42,1.33,1.88,2.34.46,1.01.69,2.22.69,3.64s-.23,2.55-.7,3.61-1.12,1.89-1.95,2.49c-.83.6-1.8.9-2.9.9Z"/>
        <path d="M493.18,339.68v-.7l2.9-.27h1l2.95.27v.7h-6.85ZM495.33,339.68c.02-.55.03-1.15.04-1.81,0-.66.02-1.33.02-2.01,0-.68.01-1.33.01-1.93v-12.88l-2.12-.12v-.67l4.28-.8.38.23-.08,3.9v10.35c0,.6,0,1.24.01,1.93,0,.68.02,1.35.02,2.01,0,.66.02,1.26.04,1.81h-2.6Z"/>
        <path d="M508.51,340.05c-1.27,0-2.39-.26-3.38-.77-.98-.52-1.75-1.29-2.31-2.31-.56-1.03-.84-2.29-.84-3.79s.29-2.67.88-3.7c.58-1.03,1.36-1.83,2.33-2.39s2.01-.84,3.13-.84,2.1.23,2.89.7,1.39,1.1,1.8,1.89c.41.79.61,1.7.61,2.71,0,.6-.05,1.1-.15,1.5h-10.38v-.8h7c.47,0,.78-.12.95-.38.17-.25.25-.65.25-1.2,0-1.08-.27-1.95-.8-2.61-.53-.66-1.28-.99-2.25-.99-.68,0-1.3.22-1.86.66-.56.44-1,1.09-1.34,1.95-.33.86-.5,1.91-.5,3.16,0,1.35.2,2.46.61,3.34.41.88.96,1.51,1.66,1.91s1.51.6,2.42.6,1.65-.16,2.29-.48c.64-.32,1.2-.77,1.69-1.35l.42.33c-.53.9-1.23,1.6-2.09,2.1s-1.87.75-3.04.75Z"/>
        <path d="M520.31,340.05c-.85,0-1.61-.09-2.29-.26-.67-.17-1.35-.44-2.04-.79l.03-3.05h1.18l.65,3.25-1-.08v-.9c.5.32,1,.56,1.51.74.51.18,1.12.26,1.84.26,1.08,0,1.9-.21,2.45-.64.55-.42.82-1,.82-1.71,0-.6-.18-1.09-.55-1.47-.37-.38-1.07-.73-2.1-1.05l-1.33-.47c-1.02-.35-1.83-.82-2.44-1.41-.61-.59-.91-1.37-.91-2.34,0-1.1.42-2.02,1.26-2.76.84-.74,2.05-1.11,3.61-1.11.78,0,1.48.09,2.08.28.6.18,1.23.47,1.88.85l-.1,2.75h-1.08l-.7-3.03.85.2v.8c-.5-.37-.98-.62-1.43-.78-.45-.15-.94-.22-1.47-.22-.92,0-1.62.2-2.1.61-.48.41-.73.94-.73,1.59,0,.57.2,1.04.59,1.41s1.05.72,1.96,1.04l1.3.45c1.28.43,2.2.96,2.74,1.58.54.62.81,1.38.81,2.28,0,.77-.21,1.46-.61,2.06s-1,1.08-1.79,1.42c-.78.34-1.75.51-2.9.51Z"/>
      </g>
      <g>
        <path d="M91.18,480.76c-1.17,0-2.23-.26-3.2-.79-.97-.52-1.74-1.3-2.31-2.34-.57-1.03-.86-2.29-.86-3.78s.3-2.76.9-3.79c.6-1.03,1.39-1.8,2.36-2.33.98-.52,2.01-.79,3.11-.79s2.19.26,3.16.79c.98.53,1.76,1.3,2.36,2.33.6,1.02.9,2.29.9,3.79s-.3,2.74-.89,3.78c-.59,1.03-1.37,1.81-2.34,2.34-.97.53-2.03.79-3.2.79ZM91.18,479.96c1.18,0,2.11-.52,2.78-1.55.67-1.03,1-2.54,1-4.53s-.33-3.5-1-4.54c-.67-1.04-1.59-1.56-2.78-1.56s-2.08.52-2.75,1.56c-.67,1.04-1,2.55-1,4.54s.33,3.49,1,4.53c.67,1.03,1.58,1.55,2.75,1.55Z"/>
        <path d="M101.76,480.39c.03-.95.06-1.91.08-2.88s.02-1.92.02-2.88v-6.35h-2.3v-.78l3.18-.28-.9.45.02-.17c.08-1.6.31-2.88.69-3.83.38-.95.89-1.73,1.54-2.35.57-.52,1.16-.89,1.78-1.11.62-.22,1.24-.34,1.88-.34s1.2.12,1.7.35.82.58.95,1.05c-.02.33-.14.61-.38.84-.23.22-.56.34-.98.34-.35,0-.68-.1-.99-.3-.31-.2-.64-.52-.99-.95l-.65-.77v-.23h1.08v.2c-.47.05-.9.2-1.29.46s-.71.58-.96.96c-.27.43-.48.92-.64,1.45-.16.53-.26,1.17-.3,1.92s-.05,1.66-.01,2.73v6.7c0,.95,0,1.91.02,2.88.02.97.04,1.93.07,2.88h-2.63ZM99.66,480.39v-.7l2.88-.28h1.3l3.03.28v.7h-7.2ZM103.08,468.28v-.95h4.93v.95h-4.93Z"/>
        <path d="M117.91,480.39c.02-.42.03-.97.04-1.65,0-.68.02-1.4.02-2.15s.01-1.4.01-1.95v-1.63c0-.87,0-1.62-.01-2.25s-.03-1.25-.06-1.85l-2.13-.15v-.62l4.15-1.1.33.2.15,3.53v3.88c0,.55,0,1.2.01,1.95,0,.75.02,1.47.02,2.15,0,.68.02,1.23.04,1.65h-2.58ZM115.94,480.39v-.7l2.73-.3h1.38l2.8.3v.7h-6.9ZM120.41,472.41l-.62-1.38h.5c.27-.83.62-1.55,1.06-2.16.44-.61.94-1.08,1.5-1.41.56-.33,1.13-.5,1.71-.5.5,0,.94.1,1.31.31.38.21.62.54.74.99,0,.45-.11.82-.34,1.1s-.58.42-1.06.42c-.33,0-.63-.09-.9-.28-.27-.18-.55-.44-.85-.77l-.58-.58,1.08.05c-.82.28-1.51.75-2.09,1.41-.58.66-1.06,1.59-1.46,2.79Z"/>
        <path d="M133.96,480.76c-1.27,0-2.39-.26-3.38-.78-.98-.52-1.75-1.29-2.31-2.31-.56-1.03-.84-2.29-.84-3.79s.29-2.67.88-3.7,1.36-1.83,2.33-2.39c.97-.56,2.01-.84,3.13-.84s2.1.23,2.89.7c.79.47,1.39,1.1,1.8,1.89.41.79.61,1.7.61,2.71,0,.6-.05,1.1-.15,1.5h-10.38v-.8h7c.47,0,.78-.12.95-.38.17-.25.25-.65.25-1.2,0-1.08-.27-1.95-.8-2.61-.53-.66-1.28-.99-2.25-.99-.68,0-1.3.22-1.86.66-.56.44-1,1.09-1.34,1.95-.33.86-.5,1.91-.5,3.16,0,1.35.2,2.46.61,3.34.41.88.96,1.51,1.66,1.91.7.4,1.51.6,2.43.6s1.65-.16,2.29-.47c.64-.32,1.2-.77,1.69-1.35l.43.33c-.53.9-1.23,1.6-2.09,2.1-.86.5-1.87.75-3.04.75Z"/>
        <path d="M146.84,480.76c-1.07,0-2.02-.28-2.86-.84-.84-.56-1.5-1.35-1.98-2.36-.48-1.02-.71-2.2-.71-3.55,0-1.45.26-2.7.79-3.75.52-1.05,1.23-1.86,2.13-2.44.89-.58,1.89-.86,2.99-.86.75,0,1.47.18,2.15.55.68.37,1.33.98,1.93,1.83h.25l-.35.58c-.57-.6-1.1-1.03-1.61-1.29-.51-.26-1.05-.39-1.64-.39-.73,0-1.4.19-2.01.56-.61.38-1.1.98-1.46,1.83s-.55,1.95-.55,3.31c0,1.28.17,2.33.51,3.15s.8,1.42,1.39,1.8c.58.38,1.24.58,1.98.58.63,0,1.22-.14,1.75-.41.53-.28,1.07-.73,1.6-1.36l.35.65h-.22c-.57.8-1.22,1.4-1.96,1.81-.74.41-1.55.61-2.44.61ZM150.94,480.64l-.15-2.43v-8.78l.07-.25v-7.43l-2.23-.12v-.68l4.28-.8.38.22-.08,3.83v15.33l2.2.15v.7l-4.48.25Z"/>
        <path d="M165.42,480.39c.02-.42.03-.97.04-1.65,0-.68.02-1.4.02-2.15s.01-1.4.01-1.95v-1.65c0-.85,0-1.59-.01-2.23s-.03-1.26-.06-1.88l-2.13-.12v-.62l4.15-1.1.33.2.15,2.83v4.58c0,.55,0,1.2.01,1.95,0,.75.02,1.47.02,2.15,0,.68.02,1.23.04,1.65h-2.58ZM163.44,480.39v-.7l2.7-.28h1.03l2.63.28v.7h-6.35ZM173.7,480.39c.02-.42.03-.96.04-1.64,0-.68.02-1.39.02-2.14,0-.75.01-1.41.01-1.97v-2.95c0-1.2-.19-2.05-.56-2.54-.38-.49-.89-.74-1.54-.74s-1.28.21-2,.62c-.72.42-1.48,1.09-2.28,2.03l-.2-.98h.33c.78-1.02,1.6-1.79,2.44-2.33.84-.53,1.73-.8,2.66-.8,1.12,0,1.98.37,2.6,1.11.62.74.93,1.95.93,3.61v2.95c0,.57,0,1.22.01,1.97s.02,1.46.02,2.14c0,.67.02,1.22.04,1.64h-2.53ZM171.75,480.39v-.7l2.63-.28h1.08l2.58.28v.7h-6.28ZM181.9,480.39c.02-.42.03-.96.04-1.64,0-.68.02-1.39.02-2.14,0-.75.01-1.41.01-1.97v-2.95c0-1.23-.19-2.09-.56-2.56-.38-.48-.91-.71-1.61-.71-.62,0-1.27.19-1.96.56s-1.44,1.03-2.24,1.96l-.25-1.03h.35c.78-1.02,1.59-1.76,2.43-2.24.83-.47,1.7-.71,2.6-.71,1.2,0,2.11.37,2.73,1.11.62.74.93,1.96.93,3.64v2.93c0,.57,0,1.22.01,1.97s.02,1.46.03,2.14c0,.67.02,1.22.04,1.64h-2.55ZM179.97,480.39v-.7l2.6-.28h1.08l2.6.28v.7h-6.28Z"/>
        <path d="M191.7,480.76c-1,0-1.83-.28-2.5-.85-.67-.57-1-1.38-1-2.42,0-.67.15-1.26.44-1.78.29-.52.78-.98,1.46-1.39.68-.41,1.6-.78,2.75-1.11.68-.2,1.42-.4,2.2-.6.78-.2,1.51-.38,2.18-.55v.62c-.67.17-1.34.35-2.01.54s-1.28.39-1.81.59c-1.02.38-1.75.85-2.19,1.39-.44.54-.66,1.19-.66,1.94s.2,1.34.61,1.73c.41.38.95.58,1.61.58.35,0,.7-.07,1.05-.2s.75-.38,1.2-.74.98-.85,1.6-1.49l.25,1.23h-.67c-.5.55-.98,1.01-1.43,1.39s-.92.66-1.4.85c-.48.19-1.04.29-1.68.29ZM198.45,480.74c-.77,0-1.35-.25-1.74-.75-.39-.5-.62-1.18-.69-2.05v-6.68c0-.93-.1-1.65-.3-2.15-.2-.5-.5-.85-.91-1.05-.41-.2-.94-.3-1.59-.3-.47,0-.94.06-1.41.19s-1,.34-1.56.64l1.23-.67-.38,1.97c-.05.52-.2.88-.44,1.1-.24.22-.53.33-.86.33-.67,0-1.08-.33-1.23-.98.22-1.05.79-1.88,1.71-2.48.93-.6,2.15-.9,3.66-.9s2.63.36,3.35,1.08,1.08,1.88,1.08,3.48v6.28c0,.72.09,1.21.26,1.48.17.27.42.4.74.4.2,0,.38-.05.55-.15.17-.1.36-.28.58-.53l.4.35c-.27.48-.6.84-1.01,1.06-.41.22-.89.34-1.44.34Z"/>
        <path d="M204.08,480.39c.02-.42.03-.97.04-1.65,0-.68.02-1.4.02-2.15s.01-1.4.01-1.95v-1.63c0-.87,0-1.62-.01-2.25s-.03-1.25-.06-1.85l-2.13-.15v-.62l4.15-1.1.33.2.15,3.53v3.88c0,.55,0,1.2.01,1.95,0,.75.02,1.47.02,2.15,0,.68.02,1.23.04,1.65h-2.58ZM202.1,480.39v-.7l2.73-.3h1.38l2.8.3v.7h-6.9ZM206.58,472.41l-.62-1.38h.5c.27-.83.62-1.55,1.06-2.16.44-.61.94-1.08,1.5-1.41.56-.33,1.13-.5,1.71-.5.5,0,.94.1,1.31.31.38.21.62.54.74.99,0,.45-.11.82-.34,1.1s-.58.42-1.06.42c-.33,0-.63-.09-.9-.28-.27-.18-.55-.44-.85-.77l-.58-.58,1.08.05c-.82.28-1.51.75-2.09,1.41-.58.66-1.06,1.59-1.46,2.79Z"/>
        <path d="M213.56,480.39v-.7l2-.17c.02-.48.02-1.02.02-1.6s0-1.16.01-1.74.01-1.09.01-1.54v-12.88l-2.13-.12v-.68l4.23-.8.38.22-.08,3.9v4.98l.05.25v8.9l-.38,2.25-4.13-.27ZM222.03,480.76c-.8,0-1.59-.2-2.36-.6-.78-.4-1.47-1.05-2.09-1.95h-.28l.35-.58c.6.67,1.18,1.14,1.75,1.41.57.28,1.16.41,1.78.41.68,0,1.31-.18,1.89-.54.58-.36,1.04-.95,1.39-1.79.35-.83.52-1.97.52-3.4,0-1.88-.35-3.27-1.05-4.16-.7-.89-1.6-1.34-2.7-1.34-.38,0-.77.05-1.18.16-.4.11-.82.32-1.25.62-.43.31-.92.75-1.45,1.34l-.3-.73h.38c.68-.93,1.45-1.61,2.29-2.04.84-.43,1.7-.64,2.56-.64,1.03,0,1.95.27,2.74.83.79.55,1.42,1.33,1.88,2.34.46,1.01.69,2.22.69,3.64s-.23,2.55-.7,3.61c-.47,1.06-1.12,1.89-1.95,2.49-.83.6-1.8.9-2.9.9Z"/>
        <path d="M229.53,480.39v-.7l2.9-.28h1l2.95.28v.7h-6.85ZM231.68,480.39c.02-.55.03-1.15.04-1.81,0-.66.02-1.33.02-2.01s.01-1.33.01-1.92v-12.88l-2.13-.12v-.68l4.28-.8.38.22-.08,3.9v10.35c0,.6,0,1.24.01,1.92,0,.68.02,1.35.02,2.01,0,.66.02,1.26.04,1.81h-2.6Z"/>
        <path d="M244.86,480.76c-1.27,0-2.39-.26-3.38-.78s-1.75-1.29-2.31-2.31c-.56-1.03-.84-2.29-.84-3.79s.29-2.67.88-3.7c.58-1.03,1.36-1.83,2.33-2.39.97-.56,2.01-.84,3.13-.84s2.1.23,2.89.7,1.39,1.1,1.8,1.89.61,1.7.61,2.71c0,.6-.05,1.1-.15,1.5h-10.38v-.8h7c.47,0,.78-.12.95-.38.17-.25.25-.65.25-1.2,0-1.08-.27-1.95-.8-2.61-.53-.66-1.28-.99-2.25-.99-.68,0-1.3.22-1.86.66-.56.44-1,1.09-1.34,1.95-.33.86-.5,1.91-.5,3.16,0,1.35.2,2.46.61,3.34.41.88.96,1.51,1.66,1.91.7.4,1.51.6,2.42.6s1.65-.16,2.29-.47,1.2-.77,1.69-1.35l.42.33c-.53.9-1.23,1.6-2.09,2.1s-1.87.75-3.04.75Z"/>
        <path d="M256.66,480.76c-.85,0-1.61-.09-2.29-.26-.67-.17-1.35-.44-2.04-.79l.03-3.05h1.18l.65,3.25-1-.08v-.9c.5.32,1,.56,1.51.74s1.12.26,1.84.26c1.08,0,1.9-.21,2.45-.64.55-.42.82-1,.82-1.71,0-.6-.18-1.09-.55-1.48-.37-.38-1.07-.73-2.1-1.05l-1.33-.48c-1.02-.35-1.83-.82-2.44-1.41-.61-.59-.91-1.37-.91-2.34,0-1.1.42-2.02,1.26-2.76.84-.74,2.05-1.11,3.61-1.11.78,0,1.48.09,2.08.27.6.18,1.23.47,1.88.85l-.1,2.75h-1.08l-.7-3.03.85.2v.8c-.5-.37-.98-.62-1.43-.77-.45-.15-.94-.23-1.47-.23-.92,0-1.62.2-2.1.61-.48.41-.73.94-.73,1.59,0,.57.2,1.04.59,1.41s1.05.72,1.96,1.04l1.3.45c1.28.43,2.2.96,2.74,1.58.54.62.81,1.38.81,2.28,0,.77-.21,1.45-.61,2.06-.41.61-1,1.08-1.79,1.43-.78.34-1.75.51-2.9.51Z"/>
      </g>
      <g>
        <path d="M129.3,438.57h-12.8v-1.1h12.8v1.1ZM129.3,444.17h-12.8v-1.12h12.8v1.12Z"/>
        <path d="M146,456.34c.02-.62.03-1.27.04-1.95s.02-1.37.03-2.06c0-.69.01-1.33.01-1.91v-7.9c0-.85,0-1.6-.01-2.26,0-.66-.03-1.29-.06-1.89l-2.15-.15v-.62l4.13-1.1.33.2.17,2.08.03.15v8.98l-.03.27v2.25c0,.57,0,1.2.01,1.89,0,.69.02,1.38.02,2.08s.02,1.35.04,1.96h-2.55ZM143.95,456.34v-.7l2.78-.25h1.25l2.88.25v.7h-6.9ZM152.35,450.22c-.77,0-1.52-.17-2.26-.51s-1.42-.95-2.04-1.84h-.33l.38-.6c.58.63,1.15,1.07,1.69,1.3.54.23,1.15.35,1.81.35.7,0,1.34-.18,1.91-.55.58-.37,1.03-.97,1.38-1.8.34-.83.51-1.93.51-3.3,0-1.93-.34-3.35-1.01-4.24-.68-.89-1.57-1.34-2.69-1.34-.58,0-1.17.14-1.76.41s-1.24.81-1.94,1.61l-.3-.6h.25c.65-.95,1.39-1.64,2.23-2.06.83-.43,1.68-.64,2.55-.64,1.03,0,1.94.27,2.73.83.78.55,1.41,1.33,1.88,2.34.47,1.01.7,2.22.7,3.64s-.25,2.68-.75,3.73c-.5,1.05-1.18,1.86-2.03,2.42-.85.57-1.82.85-2.9.85Z"/>
        <path d="M162.13,449.84c.02-.42.03-.97.04-1.65,0-.68.02-1.4.02-2.15s.01-1.4.01-1.95v-1.63c0-.87,0-1.62-.01-2.25s-.03-1.25-.06-1.85l-2.13-.15v-.62l4.15-1.1.33.2.15,3.53v3.88c0,.55,0,1.2.01,1.95,0,.75.02,1.47.02,2.15,0,.68.02,1.23.04,1.65h-2.58ZM160.15,449.84v-.7l2.73-.3h1.38l2.8.3v.7h-6.9ZM164.63,441.87l-.62-1.38h.5c.27-.83.62-1.55,1.06-2.16.44-.61.94-1.08,1.5-1.41.56-.33,1.13-.5,1.71-.5.5,0,.94.1,1.31.31.38.21.62.54.74.99,0,.45-.11.82-.34,1.1s-.58.42-1.06.42c-.33,0-.63-.09-.9-.28-.27-.18-.55-.44-.85-.77l-.58-.58,1.08.05c-.82.28-1.51.75-2.09,1.41-.58.66-1.06,1.59-1.46,2.79Z"/>
        <path d="M178.03,450.22c-1.17,0-2.23-.26-3.2-.79-.97-.52-1.74-1.3-2.31-2.34-.57-1.03-.86-2.29-.86-3.78s.3-2.76.9-3.79c.6-1.03,1.39-1.8,2.36-2.33.98-.52,2.01-.79,3.11-.79s2.19.26,3.16.79c.98.53,1.76,1.3,2.36,2.33.6,1.02.9,2.29.9,3.79s-.3,2.74-.89,3.78c-.59,1.03-1.37,1.81-2.34,2.34-.97.53-2.03.79-3.2.79ZM178.03,449.42c1.18,0,2.11-.52,2.78-1.55.67-1.03,1-2.54,1-4.53s-.33-3.5-1-4.54c-.67-1.04-1.59-1.56-2.78-1.56s-2.08.52-2.75,1.56c-.67,1.04-1,2.55-1,4.54s.33,3.49,1,4.53c.67,1.03,1.58,1.55,2.75,1.55Z"/>
        <path d="M186.58,449.84v-.7l2-.17c.02-.48.02-1.02.02-1.6s0-1.16.01-1.74.01-1.09.01-1.54v-12.88l-2.13-.12v-.68l4.23-.8.38.22-.08,3.9v4.98l.05.25v8.9l-.38,2.25-4.13-.27ZM195.06,450.22c-.8,0-1.59-.2-2.36-.6-.78-.4-1.47-1.05-2.09-1.95h-.28l.35-.58c.6.67,1.18,1.14,1.75,1.41.57.28,1.16.41,1.78.41.68,0,1.31-.18,1.89-.54.58-.36,1.04-.95,1.39-1.79.35-.83.52-1.97.52-3.4,0-1.88-.35-3.27-1.05-4.16-.7-.89-1.6-1.34-2.7-1.34-.38,0-.77.05-1.18.16-.4.11-.82.32-1.25.62-.43.31-.92.75-1.45,1.34l-.3-.73h.38c.68-.93,1.45-1.61,2.29-2.04.84-.43,1.7-.64,2.56-.64,1.03,0,1.95.27,2.74.83.79.55,1.42,1.33,1.88,2.34.46,1.01.69,2.22.69,3.64s-.23,2.55-.7,3.61c-.47,1.06-1.12,1.89-1.95,2.49-.83.6-1.8.9-2.9.9Z"/>
        <path d="M206.41,450.22c-1,0-1.83-.28-2.5-.85-.67-.57-1-1.38-1-2.42,0-.67.15-1.26.44-1.78.29-.52.78-.98,1.46-1.39.68-.41,1.6-.78,2.75-1.11.68-.2,1.42-.4,2.2-.6.78-.2,1.51-.38,2.18-.55v.62c-.67.17-1.34.35-2.01.54s-1.28.39-1.81.59c-1.02.38-1.75.85-2.19,1.39-.44.54-.66,1.19-.66,1.94s.2,1.34.61,1.73c.41.38.95.58,1.61.58.35,0,.7-.07,1.05-.2s.75-.38,1.2-.74.98-.85,1.6-1.49l.25,1.23h-.67c-.5.55-.98,1.01-1.43,1.39s-.92.66-1.4.85c-.48.19-1.04.29-1.68.29ZM213.16,450.19c-.77,0-1.35-.25-1.74-.75-.39-.5-.62-1.18-.69-2.05v-6.68c0-.93-.1-1.65-.3-2.15-.2-.5-.5-.85-.91-1.05-.41-.2-.94-.3-1.59-.3-.47,0-.94.06-1.41.19s-1,.34-1.56.64l1.23-.67-.38,1.97c-.05.52-.2.88-.44,1.1-.24.22-.53.33-.86.33-.67,0-1.08-.33-1.23-.98.22-1.05.79-1.88,1.71-2.48.93-.6,2.15-.9,3.66-.9s2.63.36,3.35,1.08,1.08,1.88,1.08,3.48v6.28c0,.72.09,1.21.26,1.48.17.27.42.4.74.4.2,0,.38-.05.55-.15.17-.1.36-.28.58-.53l.4.35c-.27.48-.6.84-1.01,1.06-.41.22-.89.34-1.44.34Z"/>
        <path d="M216.84,449.84v-.7l2-.17c.02-.48.02-1.02.02-1.6s0-1.16.01-1.74.01-1.09.01-1.54v-12.88l-2.13-.12v-.68l4.23-.8.38.22-.08,3.9v4.98l.05.25v8.9l-.38,2.25-4.13-.27ZM225.32,450.22c-.8,0-1.59-.2-2.36-.6-.78-.4-1.47-1.05-2.09-1.95h-.28l.35-.58c.6.67,1.18,1.14,1.75,1.41.57.28,1.16.41,1.78.41.68,0,1.31-.18,1.89-.54.58-.36,1.04-.95,1.39-1.79.35-.83.52-1.97.52-3.4,0-1.88-.35-3.27-1.05-4.16-.7-.89-1.6-1.34-2.7-1.34-.38,0-.77.05-1.18.16-.4.11-.82.32-1.25.62-.43.31-.92.75-1.45,1.34l-.3-.73h.38c.68-.93,1.45-1.61,2.29-2.04.84-.43,1.7-.64,2.56-.64,1.03,0,1.95.27,2.74.83.79.55,1.42,1.33,1.88,2.34.46,1.01.69,2.22.69,3.64s-.23,2.55-.7,3.61c-.47,1.06-1.12,1.89-1.95,2.49-.83.6-1.8.9-2.9.9Z"/>
        <path d="M235.04,449.84c.02-.42.03-.97.05-1.65s.03-1.4.04-2.15c0-.75.01-1.4.01-1.95v-1.6c0-.85,0-1.6-.02-2.26-.02-.66-.04-1.3-.07-1.91l-2.15-.12v-.63l4.43-1.08.32.2-.07,3.6v3.8c0,.55,0,1.2.01,1.95s.02,1.47.03,2.15c0,.68.02,1.23.04,1.65h-2.6ZM233.07,449.84v-.7l2.73-.28h1l2.68.28v.7h-6.4ZM236.17,433.46c-.43,0-.8-.14-1.11-.42-.31-.28-.46-.65-.46-1.1s.15-.82.46-1.1c.31-.28.68-.43,1.11-.43s.81.14,1.12.43c.32.28.48.65.48,1.1s-.16.82-.48,1.1c-.32.28-.69.42-1.12.42Z"/>
        <path d="M241.29,449.84v-.7l2.9-.28h1l2.95.28v.7h-6.85ZM243.44,449.84c.02-.55.03-1.15.04-1.81,0-.66.02-1.33.02-2.01s.01-1.33.01-1.92v-12.88l-2.13-.12v-.68l4.28-.8.38.22-.07,3.9v10.35c0,.6,0,1.24.01,1.92s.02,1.35.02,2.01c0,.66.02,1.26.04,1.81h-2.6Z"/>
        <path d="M251.97,449.84c.02-.42.03-.97.05-1.65s.03-1.4.04-2.15c0-.75.01-1.4.01-1.95v-1.6c0-.85,0-1.6-.02-2.26-.02-.66-.04-1.3-.07-1.91l-2.15-.12v-.63l4.43-1.08.32.2-.07,3.6v3.8c0,.55,0,1.2.01,1.95s.02,1.47.03,2.15c0,.68.02,1.23.04,1.65h-2.6ZM250,449.84v-.7l2.73-.28h1l2.68.28v.7h-6.4ZM253.1,433.46c-.43,0-.8-.14-1.11-.42-.31-.28-.46-.65-.46-1.1s.15-.82.46-1.1c.31-.28.68-.43,1.11-.43s.81.14,1.12.43c.32.28.48.65.48,1.1s-.16.82-.48,1.1c-.32.28-.69.42-1.12.42Z"/>
        <path d="M263.32,450.22c-1.08,0-1.89-.28-2.43-.84-.53-.56-.8-1.42-.8-2.59,0-.42,0-.79.01-1.12,0-.33.01-.73.01-1.2v-6.73h-2.4v-.78l2.93-.22-.48.35.88-4.23h1.6l-.07,4.33v9.68c0,.75.15,1.3.44,1.64.29.34.7.51,1.24.51.37,0,.69-.06.96-.17.27-.12.58-.28.91-.5l.38.45c-.35.47-.79.82-1.3,1.06-.52.24-1.14.36-1.88.36ZM261.35,437.74v-.95h4.7v.95h-4.7Z"/>
        <path d="M268.92,456.62c-.58,0-1.11-.13-1.59-.39-.47-.26-.74-.62-.79-1.09.07-.38.25-.67.56-.85.31-.18.65-.28,1.04-.28s.7.09,1.01.28c.31.18.6.43.89.75l.73.75-.83.45-.48-.43c.82-.27,1.53-.79,2.15-1.58.62-.78,1.17-1.8,1.65-3.05l.73-1.8.15-.4,2.2-6.13,2.08-6.08h1l-5.3,14.18c-.5,1.35-1.03,2.44-1.58,3.28-.55.83-1.12,1.44-1.71,1.81s-1.23.56-1.91.56ZM266.57,437.49v-.7h6.48v.7l-2.63.27h-1.35l-2.5-.27ZM273.67,451.27l-5.88-14.48h2.68l4.15,11.3.15.3-1.1,2.88ZM275.7,437.49v-.7h5.08v.7l-2.05.25h-.38l-2.65-.25Z"/>
      </g>
    </g>
  </g>
</svg>