<?xml version="1.0" encoding="UTF-8"?>
<svg xmlns="http://www.w3.org/2000/svg" version="1.1" viewBox="0 0 600 600">
  <defs>
    <style>
      .cls-1 {
        fill: #c9caca;
      }

      .cls-2 {
        fill: #231815;
      }

      .cls-3, .cls-4 {
        fill: none;
        stroke: #231815;
        stroke-miterlimit: 10;
      }

      .cls-5 {
        fill: #e60012;
      }

      .cls-6 {
        fill: #094;
      }

      .cls-4 {
        stroke-width: 2px;
      }
    </style>
  </defs>
  <!-- Generator: Adobe Illustrator 28.7.1, SVG Export Plug-In . SVG Version: 1.2.0 Build 142)  -->
  <g>
    <g id="_레이어_1" data-name="레이어_1">
      <path d="M421.47,177.22c-.16.24-.36.51-.59.83-.24.31-.49.61-.77.9-.28.28-.57.52-.87.72-.3.2-.6.3-.89.3-.32,0-.55-.09-.69-.26-.15-.17-.24-.37-.28-.59-.04-.22-.05-.44-.02-.66s.06-.37.1-.46l1.9-4.98c.14-.37.21-.65.21-.85,0-.2-.04-.34-.11-.43-.07-.09-.15-.14-.26-.16s-.18-.02-.24-.02c-.2,0-.44.13-.72.38-.28.25-.59.58-.92,1-.33.42-.68.9-1.04,1.45-.36.55-.71,1.14-1.06,1.75-.34.61-.67,1.23-.99,1.87-.32.63-.59,1.23-.83,1.8h-1.38l3.42-11.85c.09-.32,0-.55-.27-.7-.27-.15-.66-.21-1.18-.17l.06-.4c.4-.08.8-.16,1.21-.26.34-.08.71-.17,1.11-.29.4-.11.75-.23,1.07-.35l-3.52,11.55c.28-.42.56-.87.86-1.36.3-.49.6-.97.91-1.45.31-.48.62-.94.94-1.38.32-.44.64-.83.96-1.16.32-.33.64-.6.96-.81.32-.2.63-.31.93-.31.17,0,.35.04.54.13.19.09.35.22.48.39.13.18.21.4.25.66.03.26-.02.57-.15.93l-1.86,4.89c-.17.45-.22.78-.16.99.07.21.22.29.45.24.24-.05.55-.25.93-.6s.8-.86,1.25-1.53l.26.26Z"/>
      <path d="M425.59,172.51c0-.88.09-1.72.27-2.52.18-.8.4-1.54.67-2.23.27-.69.57-1.32.9-1.9.33-.57.66-1.07.98-1.5.32-.43.63-.78.91-1.07s.5-.48.66-.58c.09-.07.17-.06.24.01.07.07.05.15-.04.25-.45.5-.88,1.07-1.29,1.71s-.77,1.35-1.08,2.12c-.31.78-.56,1.64-.75,2.58-.19.94-.29,1.97-.31,3.09-.01,1.03.06,1.97.21,2.83s.35,1.64.58,2.33.5,1.3.78,1.84c.28.53.55.98.8,1.35s.47.65.65.86c.18.2.3.33.34.37.11.1.13.2.07.29-.06.09-.14.1-.23.03-.32-.2-.72-.57-1.22-1.12-.49-.55-.98-1.24-1.45-2.09-.47-.85-.88-1.83-1.21-2.95-.34-1.12-.5-2.35-.48-3.69Z"/>
      <path class="cls-6" d="M442.15,172.72c-.05.28-.16.46-.32.56-.16.1-.33.15-.51.15s-.33-.05-.44-.15c-.11-.1-.18-.23-.21-.39-.03-.13-.01-.26.04-.4.05-.13.15-.22.3-.28.07-.12.07-.24.02-.38-.05-.13-.22-.2-.51-.2-.15,0-.32.07-.53.21s-.43.35-.67.64-.47.65-.71,1.09c-.24.44-.46.95-.65,1.54-.2.59-.35,1.14-.46,1.63-.11.5-.16.92-.15,1.28.01.36.09.63.25.83.15.2.38.3.7.3.29,0,.57-.07.83-.21.26-.14.51-.31.73-.51.22-.2.42-.42.58-.63.16-.22.3-.41.4-.56l.44.36c-.11.2-.26.43-.46.7s-.44.53-.71.79c-.27.25-.55.47-.85.64-.3.17-.59.26-.88.26-.59,0-1.06-.17-1.39-.51s-.5-.8-.5-1.38c-.11.21-.26.43-.46.65-.2.22-.44.43-.7.61-.26.18-.55.33-.86.44s-.62.17-.94.17c-.25,0-.47-.04-.66-.13-.19-.09-.36-.19-.49-.33-.14-.13-.24-.28-.32-.45-.07-.17-.11-.34-.11-.51,0-.75.27-1.13.81-1.13.26,0,.47.07.61.22.15.15.22.3.22.47,0,.18-.04.35-.12.5-.08.15-.2.24-.36.27-.04.2.04.32.23.38.19.05.42.04.69-.04.27-.08.55-.22.83-.42s.51-.46.68-.78.35-.72.52-1.22c.18-.5.34-1,.48-1.51.14-.51.27-.97.38-1.38.1-.42.17-.7.2-.86.01-.16,0-.32-.07-.48-.06-.16-.14-.32-.25-.45s-.23-.25-.38-.35c-.15-.09-.29-.14-.43-.14-.21,0-.42.06-.62.18s-.4.26-.57.42-.34.33-.48.5c-.15.17-.26.3-.36.4l-.34-.41c.15-.13.3-.3.47-.5.17-.2.36-.4.56-.59.2-.19.42-.35.66-.47.24-.13.5-.19.79-.19s.53.07.75.21c.22.14.42.31.57.52.16.21.28.44.36.68s.11.47.1.68c.13-.14.29-.34.48-.57.19-.24.41-.47.65-.69.24-.22.51-.42.8-.58.29-.16.6-.25.93-.25s.57.06.77.19c.2.13.35.28.46.46.11.18.17.37.2.58s.03.38,0,.52Z"/>
      <path d="M446.23,162.71c.16.11.38.3.66.58s.59.64.91,1.07c.32.43.65.93.98,1.5.33.57.63,1.2.9,1.9.27.69.49,1.44.67,2.23.18.8.27,1.64.27,2.52.01,1.34-.15,2.57-.48,3.69-.34,1.12-.74,2.1-1.22,2.95-.47.85-.96,1.55-1.45,2.09-.49.55-.9.92-1.22,1.12-.09.07-.17.06-.23-.03-.06-.09-.04-.18.07-.29.04-.04.15-.16.34-.37.18-.2.4-.49.65-.86s.52-.82.8-1.35c.28-.53.54-1.15.78-1.84s.43-1.47.58-2.33.22-1.81.21-2.83c-.01-1.12-.12-2.15-.31-3.09-.19-.94-.44-1.8-.76-2.58-.32-.78-.68-1.48-1.09-2.12s-.84-1.21-1.28-1.71c-.08-.09-.09-.17-.03-.25.06-.07.14-.08.25-.01Z"/>
      <path d="M471.12,170.79h-13.06v-.77h13.06v.77ZM471.12,175.07h-13.06v-.77h13.06v.77Z"/>
      <path d="M489.14,166.57c0,.22-.09.4-.26.53-.17.13-.33.2-.47.2-.13,0-.24-.02-.34-.07s-.18-.1-.28-.16-.19-.12-.29-.17c-.1-.05-.22-.08-.37-.08-.32,0-.59.11-.82.32-.23.22-.44.5-.62.86-.18.36-.35.78-.5,1.27-.15.48-.3,1-.44,1.55h2.23l-.12.59h-2.21c-.32,1.28-.65,2.49-.99,3.63-.15.5-.3,1.01-.46,1.52-.16.51-.33,1.01-.5,1.48-.17.47-.35.92-.53,1.33-.18.42-.36.77-.53,1.06-.54.88-1.08,1.57-1.63,2.05-.55.49-1.11.73-1.69.73-.26,0-.45-.09-.56-.26-.11-.17-.17-.39-.17-.65,0-.22.1-.38.31-.45.2-.08.44-.13.7-.15.26-.02.52-.03.77-.02.25,0,.43-.02.53-.09.29-.17.52-.36.7-.55.18-.2.33-.48.46-.85s.26-.86.4-1.47c.13-.61.3-1.43.51-2.44.08-.38.2-.85.36-1.4.16-.55.32-1.09.47-1.6.18-.61.38-1.23.59-1.88h-1.9l.12-.59h2.02c.18-.55.42-1.13.72-1.74.3-.61.64-1.17,1.03-1.68s.81-.94,1.26-1.28c.46-.34.94-.51,1.45-.51.41,0,.68.11.83.33.14.22.22.42.22.62Z"/>
      <path d="M493.37,172.51c0-.88.09-1.72.27-2.52.18-.8.4-1.54.67-2.23.27-.69.57-1.32.9-1.9.33-.57.66-1.07.98-1.5.32-.43.63-.78.91-1.07s.5-.48.66-.58c.09-.07.17-.06.24.01.07.07.05.15-.04.25-.45.5-.88,1.07-1.29,1.71s-.77,1.35-1.08,2.12c-.31.78-.56,1.64-.75,2.58-.19.94-.29,1.97-.31,3.09-.01,1.03.06,1.97.21,2.83s.35,1.64.58,2.33.5,1.3.78,1.84c.28.53.55.98.8,1.35s.47.65.65.86c.18.2.3.33.34.37.11.1.13.2.07.29-.06.09-.14.1-.23.03-.32-.2-.72-.57-1.22-1.12-.49-.55-.98-1.24-1.45-2.09-.47-.85-.88-1.83-1.21-2.95-.34-1.12-.5-2.35-.48-3.69Z"/>
      <path class="cls-6" d="M509.68,172.72c-.05.28-.16.46-.32.56-.16.1-.33.15-.51.15s-.33-.05-.44-.15c-.11-.1-.18-.23-.21-.39-.03-.13-.01-.26.04-.4.05-.13.15-.22.3-.28.07-.12.07-.24.02-.38-.05-.13-.22-.2-.51-.2-.15,0-.32.07-.53.21s-.43.35-.67.64-.47.65-.71,1.09c-.24.44-.46.95-.65,1.54-.2.59-.35,1.14-.46,1.63-.11.5-.16.92-.15,1.28.01.36.09.63.25.83.15.2.38.3.7.3.29,0,.57-.07.83-.21.26-.14.51-.31.73-.51.22-.2.42-.42.58-.63.16-.22.3-.41.4-.56l.44.36c-.11.2-.26.43-.46.7s-.44.53-.71.79c-.27.25-.55.47-.85.64-.3.17-.59.26-.88.26-.59,0-1.06-.17-1.39-.51s-.5-.8-.5-1.38c-.11.21-.26.43-.46.65-.2.22-.44.43-.7.61-.26.18-.55.33-.86.44s-.62.17-.94.17c-.25,0-.47-.04-.66-.13-.19-.09-.36-.19-.49-.33-.14-.13-.24-.28-.32-.45-.07-.17-.11-.34-.11-.51,0-.75.27-1.13.81-1.13.26,0,.47.07.61.22.15.15.22.3.22.47,0,.18-.04.35-.12.5-.08.15-.2.24-.36.27-.04.2.04.32.23.38.19.05.42.04.69-.04.27-.08.55-.22.83-.42s.51-.46.68-.78.35-.72.52-1.22c.18-.5.34-1,.48-1.51.14-.51.27-.97.38-1.38.1-.42.17-.7.2-.86.01-.16,0-.32-.07-.48-.06-.16-.14-.32-.25-.45s-.23-.25-.38-.35c-.15-.09-.29-.14-.43-.14-.21,0-.42.06-.62.18s-.4.26-.57.42-.34.33-.48.5c-.15.17-.26.3-.36.4l-.34-.41c.15-.13.3-.3.47-.5.17-.2.36-.4.56-.59.2-.19.42-.35.66-.47.24-.13.5-.19.79-.19s.53.07.75.21c.22.14.42.31.57.52.16.21.28.44.36.68s.11.47.1.68c.13-.14.29-.34.48-.57.19-.24.41-.47.65-.69.24-.22.51-.42.8-.58.29-.16.6-.25.93-.25s.57.06.77.19c.2.13.35.28.46.46.11.18.17.37.2.58s.03.38,0,.52Z"/>
      <path d="M514,162.71c.16.11.38.3.66.58s.59.64.91,1.07c.32.43.65.93.98,1.5.33.57.63,1.2.9,1.9.27.69.49,1.44.67,2.23.18.8.27,1.64.27,2.52.01,1.34-.15,2.57-.48,3.69-.34,1.12-.74,2.1-1.22,2.95-.47.85-.96,1.55-1.45,2.09-.49.55-.9.92-1.22,1.12-.09.07-.17.06-.23-.03-.06-.09-.04-.18.07-.29.04-.04.15-.16.34-.37.18-.2.4-.49.65-.86s.52-.82.8-1.35c.28-.53.54-1.15.78-1.84s.43-1.47.58-2.33.22-1.81.21-2.83c-.01-1.12-.12-2.15-.31-3.09-.19-.94-.44-1.8-.76-2.58-.32-.78-.68-1.48-1.09-2.12s-.84-1.21-1.28-1.71c-.08-.09-.09-.17-.03-.25.06-.07.14-.08.25-.01Z"/>
      <path d="M401.11,109.8c-.16.24-.36.52-.6.83-.24.32-.5.62-.78.9-.28.28-.57.53-.88.72-.3.2-.6.3-.9.3-.32,0-.55-.09-.7-.26-.15-.17-.24-.37-.28-.6s-.05-.45-.02-.67c.03-.22.06-.38.1-.47l1.91-5.01c.15-.37.22-.66.21-.86,0-.2-.04-.34-.11-.44s-.15-.15-.26-.16c-.11-.01-.19-.02-.24-.02-.2,0-.44.13-.73.38-.29.25-.59.59-.93,1-.33.42-.68.91-1.05,1.46s-.72,1.14-1.06,1.76c-.35.62-.68,1.24-1,1.88s-.6,1.24-.84,1.81h-1.39l3.44-11.94c.09-.32,0-.55-.27-.71-.27-.15-.67-.21-1.18-.17l.06-.4c.4-.08.8-.17,1.21-.26.35-.08.72-.18,1.12-.29s.76-.23,1.08-.35l-3.54,11.64c.28-.42.57-.88.87-1.37s.6-.98.92-1.46c.31-.48.63-.95.95-1.39.32-.44.64-.83.97-1.17.33-.34.65-.61.97-.81.32-.2.63-.31.94-.31.17,0,.36.04.55.13s.35.22.49.4.22.4.25.67c.03.26-.02.58-.15.93l-1.87,4.92c-.17.45-.23.78-.16.99s.22.29.46.24c.24-.05.55-.26.94-.61.38-.35.8-.86,1.25-1.54l.26.26Z"/>
      <path d="M405.26,105.04c0-.89.09-1.73.27-2.54.18-.8.4-1.55.68-2.25.27-.7.57-1.33.91-1.91.33-.58.66-1.08.99-1.51s.63-.79.92-1.07c.29-.29.51-.48.67-.59.09-.07.17-.06.24,0,.07.07.05.16-.04.25-.45.5-.88,1.08-1.29,1.72-.41.64-.77,1.36-1.08,2.14s-.56,1.65-.76,2.6c-.19.95-.3,1.99-.31,3.11-.01,1.04.06,1.99.21,2.86.15.87.35,1.65.59,2.35.24.7.5,1.31.79,1.85.29.54.55.99.81,1.36.25.37.47.66.66.87.19.21.3.33.34.37.11.11.13.2.07.29s-.14.1-.23.03c-.32-.2-.73-.57-1.22-1.12-.5-.55-.99-1.25-1.46-2.11-.48-.86-.89-1.85-1.22-2.98-.34-1.13-.5-2.37-.49-3.72Z"/>
      <path class="cls-5" d="M421.95,105.25c-.05.28-.16.47-.32.57-.16.1-.33.15-.52.15s-.33-.05-.45-.15c-.11-.1-.18-.23-.21-.39-.03-.13-.01-.27.04-.4.05-.13.15-.23.3-.28.07-.12.07-.25.02-.38-.05-.13-.23-.2-.52-.2-.15,0-.33.07-.54.21-.21.14-.44.36-.68.65-.24.29-.48.66-.72,1.1-.24.44-.46.96-.66,1.56-.2.6-.36,1.15-.47,1.65-.11.5-.16.93-.15,1.29.01.36.1.64.25.84.15.2.39.3.71.3.29,0,.57-.07.84-.21s.51-.31.74-.52.42-.42.59-.64c.17-.22.3-.41.41-.57l.44.36c-.11.2-.26.43-.47.71-.21.27-.45.54-.72.79-.27.26-.56.47-.86.65-.3.17-.59.26-.89.26-.6,0-1.07-.17-1.4-.52-.34-.34-.51-.81-.51-1.39-.11.21-.26.43-.47.66-.21.23-.44.43-.71.62-.27.19-.55.33-.87.45-.31.11-.63.17-.95.17-.25,0-.48-.04-.67-.13-.19-.09-.36-.2-.5-.33s-.25-.29-.32-.46c-.07-.17-.11-.34-.11-.52,0-.76.27-1.13.82-1.13.27,0,.47.07.62.22.15.15.22.31.22.48,0,.19-.04.35-.12.51-.08.15-.2.24-.36.27-.04.2.04.33.23.38.19.05.42.04.7-.04.27-.08.55-.22.84-.43.29-.21.51-.47.69-.79s.35-.73.53-1.23c.18-.5.34-1.01.49-1.52.15-.51.27-.98.38-1.39s.17-.71.2-.87c.01-.16,0-.32-.07-.49s-.14-.32-.25-.46c-.11-.14-.23-.26-.38-.35-.15-.09-.29-.14-.44-.14-.21,0-.42.06-.63.18-.21.12-.4.26-.58.43-.18.17-.34.33-.49.51-.15.17-.27.31-.36.4l-.34-.42c.15-.13.31-.3.48-.51.17-.21.36-.4.57-.59.21-.19.43-.35.67-.48.24-.13.5-.19.8-.19s.53.07.76.21c.23.14.42.32.58.53.16.21.28.44.36.69.08.25.11.47.1.69.13-.15.3-.34.49-.58.19-.24.41-.47.66-.7.25-.23.51-.42.81-.59s.6-.25.94-.25.58.06.78.19c.2.13.35.29.46.47.11.18.17.38.2.58.03.21.03.38,0,.53Z"/>
      <path d="M426.06,95.17c.16.11.38.3.67.59.29.29.59.64.92,1.07s.65.94.99,1.51c.33.58.63,1.21.91,1.91.27.7.5,1.45.68,2.25.18.8.27,1.65.27,2.54.01,1.35-.15,2.59-.49,3.72-.34,1.13-.75,2.12-1.22,2.98-.48.86-.97,1.56-1.46,2.11-.5.55-.91.93-1.22,1.12-.09.07-.17.06-.23-.03s-.04-.18.07-.29c.04-.04.15-.16.34-.37s.41-.49.66-.87c.25-.37.52-.83.81-1.36.29-.54.55-1.15.79-1.85.24-.7.43-1.48.59-2.35.15-.87.22-1.82.21-2.86-.01-1.13-.12-2.17-.31-3.11-.19-.95-.45-1.81-.77-2.6-.32-.78-.68-1.5-1.1-2.14s-.84-1.22-1.29-1.72c-.08-.09-.09-.18-.03-.25.06-.07.14-.08.25,0Z"/>
      <path d="M452.41,108.7h-8.86c-.37.44-.73.86-1.06,1.25-.34.4-.65.76-.93,1.08-.28.33-.52.61-.73.85-.21.24-.35.42-.45.54l-.54-.44,2.77-3.28h-4.18v-.74h4.82l2.53-3h-7.35v-.74h7.98l3.35-3.98.56.42c-.21.27-.58.72-1.11,1.36-.53.64-1.15,1.37-1.85,2.2h5.06v.74h-5.69c-.41.49-.83,1-1.25,1.5s-.85,1.01-1.27,1.5h8.22v.74Z"/>
      <path d="M471.01,99.07c0,.23-.09.4-.26.54-.17.13-.33.2-.48.2-.13,0-.25-.02-.34-.07-.09-.05-.19-.1-.28-.16s-.19-.12-.29-.17c-.1-.05-.22-.08-.37-.08-.32,0-.59.11-.83.33-.23.22-.44.51-.63.87-.19.36-.36.79-.51,1.28-.15.49-.3,1.01-.45,1.56h2.25l-.12.6h-2.23c-.32,1.29-.65,2.51-1,3.66-.15.5-.3,1.02-.47,1.53-.17.52-.33,1.02-.51,1.49s-.35.93-.54,1.34c-.19.42-.37.77-.54,1.06-.54.89-1.09,1.58-1.64,2.07-.55.49-1.12.74-1.7.74-.27,0-.46-.09-.57-.26-.11-.17-.17-.39-.17-.66,0-.23.1-.38.31-.46.21-.08.44-.13.71-.15s.52-.03.78-.02c.25,0,.43-.02.54-.09.29-.17.53-.36.71-.56.18-.2.33-.48.47-.86.13-.37.27-.87.4-1.48.13-.62.3-1.44.52-2.46.08-.38.2-.86.36-1.41s.32-1.09.48-1.61c.19-.61.38-1.24.6-1.89h-1.91l.12-.6h2.03c.19-.56.43-1.14.73-1.75.3-.61.64-1.18,1.04-1.7.39-.52.82-.94,1.27-1.29.46-.34.95-.52,1.46-.52.41,0,.69.11.84.33.15.22.22.43.22.63Z"/>
      <path d="M475.27,105.04c0-.89.09-1.73.27-2.54.18-.8.4-1.55.68-2.25.27-.7.57-1.33.91-1.91.33-.58.66-1.08.99-1.51s.63-.79.92-1.07c.29-.29.51-.48.67-.59.09-.07.17-.06.24,0,.07.07.05.16-.04.25-.45.5-.88,1.08-1.29,1.72-.41.64-.77,1.36-1.08,2.14s-.56,1.65-.76,2.6c-.19.95-.3,1.99-.31,3.11-.01,1.04.06,1.99.21,2.86.15.87.35,1.65.59,2.35.24.7.5,1.31.79,1.85.29.54.55.99.81,1.36.25.37.47.66.66.87.19.21.3.33.34.37.11.11.13.2.07.29s-.14.1-.23.03c-.32-.2-.73-.57-1.22-1.12-.5-.55-.99-1.25-1.46-2.11-.48-.86-.89-1.85-1.22-2.98-.34-1.13-.5-2.37-.49-3.72Z"/>
      <path class="cls-5" d="M491.95,105.25c-.05.28-.16.47-.32.57-.16.1-.33.15-.52.15s-.33-.05-.45-.15c-.11-.1-.18-.23-.21-.39-.03-.13-.01-.27.04-.4.05-.13.15-.23.3-.28.07-.12.07-.25.02-.38-.05-.13-.23-.2-.52-.2-.15,0-.33.07-.54.21-.21.14-.44.36-.68.65-.24.29-.48.66-.72,1.1-.24.44-.46.96-.66,1.56-.2.6-.36,1.15-.47,1.65-.11.5-.16.93-.15,1.29.01.36.1.64.25.84.15.2.39.3.71.3.29,0,.57-.07.84-.21s.51-.31.74-.52.42-.42.59-.64c.17-.22.3-.41.41-.57l.44.36c-.11.2-.26.43-.47.71-.21.27-.45.54-.72.79-.27.26-.56.47-.86.65-.3.17-.59.26-.89.26-.6,0-1.07-.17-1.4-.52-.34-.34-.51-.81-.51-1.39-.11.21-.26.43-.47.66-.21.23-.44.43-.71.62-.27.19-.55.33-.87.45-.31.11-.63.17-.95.17-.25,0-.48-.04-.67-.13-.19-.09-.36-.2-.5-.33s-.25-.29-.32-.46c-.07-.17-.11-.34-.11-.52,0-.76.27-1.13.82-1.13.27,0,.47.07.62.22.15.15.22.31.22.48,0,.19-.04.35-.12.51-.08.15-.2.24-.36.27-.04.2.04.33.23.38.19.05.42.04.7-.04.27-.08.55-.22.84-.43.29-.21.51-.47.69-.79s.35-.73.53-1.23c.18-.5.34-1.01.49-1.52.15-.51.27-.98.38-1.39s.17-.71.2-.87c.01-.16,0-.32-.07-.49s-.14-.32-.25-.46c-.11-.14-.23-.26-.38-.35-.15-.09-.29-.14-.44-.14-.21,0-.42.06-.63.18-.21.12-.4.26-.58.43-.18.17-.34.33-.49.51-.15.17-.27.31-.36.4l-.34-.42c.15-.13.31-.3.48-.51.17-.21.36-.4.57-.59.21-.19.43-.35.67-.48.24-.13.5-.19.8-.19s.53.07.76.21c.23.14.42.32.58.53.16.21.28.44.36.69.08.25.11.47.1.69.13-.15.3-.34.49-.58.19-.24.41-.47.66-.7.25-.23.51-.42.81-.59s.6-.25.94-.25.58.06.78.19c.2.13.35.29.46.47.11.18.17.38.2.58.03.21.03.38,0,.53Z"/>
      <path d="M496.06,95.17c.16.11.38.3.67.59.29.29.59.64.92,1.07s.65.94.99,1.51c.33.58.63,1.21.91,1.91.27.7.5,1.45.68,2.25.18.8.27,1.65.27,2.54.01,1.35-.15,2.59-.49,3.72-.34,1.13-.75,2.12-1.22,2.98-.48.86-.97,1.56-1.46,2.11-.5.55-.91.93-1.22,1.12-.09.07-.17.06-.23-.03s-.04-.18.07-.29c.04-.04.15-.16.34-.37s.41-.49.66-.87c.25-.37.52-.83.81-1.36.29-.54.55-1.15.79-1.85.24-.7.43-1.48.59-2.35.15-.87.22-1.82.21-2.86-.01-1.13-.12-2.17-.31-3.11-.19-.95-.45-1.81-.77-2.6-.32-.78-.68-1.5-1.1-2.14s-.84-1.22-1.29-1.72c-.08-.09-.09-.18-.03-.25.06-.07.14-.08.25,0Z"/>
    </g>
    <g id="_원통" data-name="원통">
      <path class="cls-3" d="M85.14,195.2c5.58,8.61,11.63,20.92,13.94,36.45,3.12,21-2.04,38.2-4.29,44.67-4.75,13.66-9.09,15.55-15.01,34.3-3.39,10.76-4.8,19.13-5.36,22.87-.97,6.44-2.44,16.31-1.43,27.51.71,7.87,3.2,22.4,13.58,38.95h140.08"/>
      <path class="cls-3" d="M225.93,194.13c-2.18,5.19-4.67,11.94-6.79,20.01-1.23,4.69-3.04,11.69-3.93,21.08-1.24,13.01,0,23.01.71,28.59.78,6,1.61,12.19,4.29,20.01,1.45,4.24,3.01,7.53,6.07,13.94,6.9,14.44,7.85,14.05,10.01,19.65,3.51,9.12,3.53,16.72,3.57,27.87.05,12.92-1.91,22.62-2.5,25.37-2.54,11.81-6.65,21.64-10.72,29.3"/>
      <circle class="cls-1" cx="118.36" cy="227.08" r="6.4"/>
      <circle class="cls-1" cx="143.98" cy="227.08" r="6.4"/>
      <circle class="cls-1" cx="156.79" cy="227.08" r="6.4"/>
      <circle class="cls-1" cx="182.54" cy="227" r="6.4"/>
      <circle class="cls-1" cx="208.15" cy="227" r="6.4"/>
      <circle class="cls-1" cx="111.58" cy="239.89" r="6.4"/>
      <circle class="cls-1" cx="137.2" cy="239.89" r="6.4"/>
      <circle class="cls-1" cx="150" cy="239.89" r="6.4"/>
      <circle class="cls-1" cx="175.62" cy="239.89" r="6.4"/>
      <circle class="cls-1" cx="201.37" cy="239.81" r="6.4"/>
      <circle class="cls-1" cx="105.11" cy="252.85" r="6.4"/>
      <circle class="cls-1" cx="130.73" cy="252.85" r="6.4"/>
      <circle class="cls-1" cx="143.54" cy="252.85" r="6.4"/>
      <circle class="cls-1" cx="156.35" cy="252.85" r="6.4"/>
      <circle class="cls-1" cx="207.71" cy="252.78" r="6.4"/>
      <circle class="cls-1" cx="124.7" cy="265.66" r="6.4"/>
      <circle class="cls-1" cx="150.32" cy="265.66" r="6.4"/>
      <circle class="cls-1" cx="175.94" cy="265.66" r="6.4"/>
      <circle class="cls-1" cx="188.88" cy="265.59" r="6.4"/>
      <circle class="cls-1" cx="105.05" cy="278.19" r="6.4"/>
      <circle class="cls-1" cx="130.66" cy="278.19" r="6.4"/>
      <circle class="cls-1" cx="143.47" cy="278.19" r="6.4"/>
      <circle class="cls-1" cx="169.09" cy="278.19" r="6.4"/>
      <circle class="cls-1" cx="207.65" cy="278.11" r="6.4"/>
      <circle class="cls-1" cx="98.72" cy="291.16" r="6.4"/>
      <circle class="cls-1" cx="111.53" cy="291.16" r="6.4"/>
      <circle class="cls-1" cx="124.34" cy="291.16" r="6.4"/>
      <circle class="cls-1" cx="137.15" cy="291.16" r="6.4"/>
      <circle class="cls-1" cx="149.96" cy="291.16" r="6.4"/>
      <circle class="cls-1" cx="162.77" cy="291.16" r="6.4"/>
      <circle class="cls-1" cx="188.51" cy="291.08" r="6.4"/>
      <circle class="cls-1" cx="201.32" cy="291.08" r="6.4"/>
      <circle class="cls-1" cx="104.98" cy="304.2" r="6.4"/>
      <circle class="cls-1" cx="130.6" cy="304.2" r="6.4"/>
      <circle class="cls-1" cx="156.22" cy="304.2" r="6.4"/>
      <circle class="cls-1" cx="169.16" cy="304.12" r="6.4"/>
      <circle class="cls-1" cx="181.97" cy="304.12" r="6.4"/>
      <circle class="cls-1" cx="85.71" cy="316.73" r="6.4"/>
      <circle class="cls-1" cx="111.32" cy="316.73" r="6.4"/>
      <circle class="cls-1" cx="136.94" cy="316.73" r="6.4"/>
      <circle class="cls-1" cx="149.75" cy="316.73" r="6.4"/>
      <circle class="cls-1" cx="162.69" cy="316.65" r="6.4"/>
      <circle class="cls-1" cx="188.31" cy="316.65" r="6.4"/>
      <circle class="cls-1" cx="94.24" cy="329.33" r="6.4"/>
      <circle class="cls-1" cx="107.05" cy="329.33" r="6.4"/>
      <circle class="cls-1" cx="119.86" cy="329.33" r="6.4"/>
      <circle class="cls-1" cx="132.67" cy="329.33" r="6.4"/>
      <circle class="cls-1" cx="158.41" cy="329.25" r="6.4"/>
      <circle class="cls-1" cx="171.22" cy="329.25" r="6.4"/>
      <circle class="cls-1" cx="111.46" cy="342.71" r="6.4"/>
      <circle class="cls-1" cx="124.27" cy="342.71" r="6.4"/>
      <circle class="cls-1" cx="137.08" cy="342.71" r="6.4"/>
      <circle class="cls-1" cx="149.89" cy="342.71" r="6.4"/>
      <circle class="cls-1" cx="175.64" cy="342.64" r="6.4"/>
      <circle class="cls-1" cx="188.45" cy="342.64" r="6.4"/>
      <circle class="cls-1" cx="93.09" cy="355.2" r="6.4"/>
      <circle class="cls-1" cx="105.9" cy="355.2" r="6.4"/>
      <circle class="cls-1" cx="118.71" cy="355.2" r="6.4"/>
      <circle class="cls-1" cx="144.33" cy="355.2" r="6.4"/>
      <circle class="cls-1" cx="157.27" cy="355.12" r="6.4"/>
      <circle class="cls-1" cx="182.89" cy="355.12" r="6.4"/>
      <circle class="cls-1" cx="86.63" cy="367.77" r="6.4"/>
      <circle class="cls-1" cx="112.24" cy="367.77" r="6.4"/>
      <circle class="cls-1" cx="137.86" cy="367.77" r="6.4"/>
      <circle class="cls-1" cx="150.67" cy="367.77" r="6.4"/>
      <circle class="cls-1" cx="189.23" cy="367.69" r="6.4"/>
      <circle class="cls-1" cx="92.19" cy="380.58" r="6.4"/>
      <circle class="cls-1" cx="117.81" cy="380.58" r="6.4"/>
      <circle class="cls-1" cx="156.23" cy="380.58" r="6.4"/>
      <circle class="cls-1" cx="169.17" cy="380.5" r="6.4"/>
      <circle class="cls-1" cx="194.79" cy="380.5" r="6.4"/>
      <circle class="cls-1" cx="98.59" cy="392.9" r="6.4"/>
      <circle class="cls-1" cx="124.21" cy="392.9" r="6.4"/>
      <circle class="cls-1" cx="137.02" cy="392.9" r="6.4"/>
      <circle class="cls-1" cx="149.83" cy="392.9" r="6.4"/>
      <circle class="cls-1" cx="175.57" cy="392.82" r="6.4"/>
      <circle class="cls-1" cx="201.19" cy="392.82" r="6.4"/>
      <circle class="cls-1" cx="201.12" cy="316.76" r="6.4"/>
      <circle class="cls-1" cx="214.05" cy="316.69" r="6.4"/>
      <circle class="cls-1" cx="196.84" cy="329.65" r="6.4"/>
      <circle class="cls-1" cx="222.58" cy="329.57" r="6.4"/>
      <circle class="cls-1" cx="201.18" cy="342.67" r="6.4"/>
      <circle class="cls-1" cx="214.12" cy="342.6" r="6.4"/>
      <circle class="cls-1" cx="226.92" cy="342.6" r="6.4"/>
      <circle class="cls-1" cx="208.34" cy="355.09" r="6.4"/>
      <circle class="cls-1" cx="201.18" cy="367.73" r="6.4"/>
      <circle class="cls-1" cx="226.92" cy="367.65" r="6.4"/>
      <circle class="cls-1" cx="220.94" cy="380.54" r="6.4"/>
      <circle class="cls-1" cx="208" cy="303.88" r="6.4"/>
      <path class="cls-3" d="M367.15,195.2c5.58,8.61,11.63,20.92,13.94,36.45,3.12,21-2.04,38.2-4.29,44.67-4.75,13.66-9.09,15.55-15.01,34.3-3.39,10.76-4.8,19.13-5.36,22.87-.97,6.44-2.44,16.31-1.43,27.51.71,7.87,3.2,22.4,13.58,38.95h140.08"/>
      <path class="cls-3" d="M507.94,194.13c-2.18,5.19-4.67,11.94-6.79,20.01-1.23,4.69-3.04,11.69-3.93,21.08-1.24,13.01,0,23.01.71,28.59.78,6,1.61,12.19,4.29,20.01,1.45,4.24,3.01,7.53,6.07,13.94,6.9,14.44,7.85,14.05,10.01,19.65,3.51,9.12,3.53,16.72,3.57,27.87.05,12.92-1.91,22.62-2.5,25.37-2.54,11.81-6.65,21.64-10.72,29.3"/>
      <circle class="cls-6" cx="400.36" cy="227.08" r="6.4"/>
      <circle class="cls-6" cx="425.98" cy="227.08" r="6.4"/>
      <circle class="cls-6" cx="438.79" cy="227.08" r="6.4"/>
      <circle class="cls-6" cx="464.54" cy="227" r="6.4"/>
      <circle class="cls-6" cx="490.16" cy="227" r="6.4"/>
      <circle class="cls-6" cx="393.58" cy="239.89" r="6.4"/>
      <circle class="cls-6" cx="419.2" cy="239.89" r="6.4"/>
      <circle class="cls-6" cx="432.01" cy="239.89" r="6.4"/>
      <circle class="cls-6" cx="457.63" cy="239.89" r="6.4"/>
      <circle class="cls-6" cx="483.37" cy="239.81" r="6.4"/>
      <circle class="cls-6" cx="387.11" cy="252.85" r="6.4"/>
      <circle class="cls-6" cx="412.73" cy="252.85" r="6.4"/>
      <circle class="cls-6" cx="425.54" cy="252.85" r="6.4"/>
      <circle class="cls-6" cx="438.35" cy="252.85" r="6.4"/>
      <circle class="cls-6" cx="489.71" cy="252.78" r="6.4"/>
      <circle class="cls-6" cx="406.71" cy="265.66" r="6.4"/>
      <circle class="cls-6" cx="432.33" cy="265.66" r="6.4"/>
      <circle class="cls-6" cx="457.94" cy="265.66" r="6.4"/>
      <circle class="cls-6" cx="470.88" cy="265.59" r="6.4"/>
      <circle class="cls-6" cx="387.05" cy="278.19" r="6.4"/>
      <circle class="cls-6" cx="412.67" cy="278.19" r="6.4"/>
      <circle class="cls-6" cx="425.48" cy="278.19" r="6.4"/>
      <circle class="cls-6" cx="451.1" cy="278.19" r="6.4"/>
      <circle class="cls-6" cx="489.65" cy="278.11" r="6.4"/>
      <circle class="cls-6" cx="380.72" cy="291.16" r="6.4"/>
      <circle class="cls-6" cx="393.53" cy="291.16" r="6.4"/>
      <circle class="cls-6" cx="406.34" cy="291.16" r="6.4"/>
      <circle class="cls-6" cx="419.15" cy="291.16" r="6.4"/>
      <circle class="cls-6" cx="431.96" cy="291.16" r="6.4"/>
      <circle class="cls-6" cx="444.77" cy="291.16" r="6.4"/>
      <circle class="cls-6" cx="470.51" cy="291.08" r="6.4"/>
      <circle class="cls-6" cx="483.32" cy="291.08" r="6.4"/>
      <circle class="cls-6" cx="386.99" cy="304.2" r="6.4"/>
      <circle class="cls-6" cx="412.6" cy="304.2" r="6.4"/>
      <circle class="cls-6" cx="438.22" cy="304.2" r="6.4"/>
      <circle class="cls-6" cx="451.16" cy="304.12" r="6.4"/>
      <circle class="cls-6" cx="463.97" cy="304.12" r="6.4"/>
      <circle class="cls-6" cx="367.71" cy="316.73" r="6.4"/>
      <circle class="cls-6" cx="393.33" cy="316.73" r="6.4"/>
      <circle class="cls-6" cx="418.95" cy="316.73" r="6.4"/>
      <circle class="cls-6" cx="431.76" cy="316.73" r="6.4"/>
      <circle class="cls-6" cx="444.69" cy="316.65" r="6.4"/>
      <circle class="cls-6" cx="470.31" cy="316.65" r="6.4"/>
      <circle class="cls-6" cx="376.24" cy="329.33" r="6.4"/>
      <circle class="cls-6" cx="389.05" cy="329.33" r="6.4"/>
      <circle class="cls-6" cx="401.86" cy="329.33" r="6.4"/>
      <circle class="cls-6" cx="414.67" cy="329.33" r="6.4"/>
      <circle class="cls-6" cx="440.41" cy="329.25" r="6.4"/>
      <circle class="cls-6" cx="453.22" cy="329.25" r="6.4"/>
      <circle class="cls-6" cx="393.47" cy="342.71" r="6.4"/>
      <circle class="cls-6" cx="406.28" cy="342.71" r="6.4"/>
      <circle class="cls-6" cx="419.09" cy="342.71" r="6.4"/>
      <circle class="cls-6" cx="431.9" cy="342.71" r="6.4"/>
      <circle class="cls-6" cx="457.64" cy="342.64" r="6.4"/>
      <circle class="cls-6" cx="470.45" cy="342.64" r="6.4"/>
      <circle class="cls-6" cx="375.1" cy="355.2" r="6.4"/>
      <circle class="cls-6" cx="387.91" cy="355.2" r="6.4"/>
      <circle class="cls-6" cx="400.72" cy="355.2" r="6.4"/>
      <circle class="cls-6" cx="426.33" cy="355.2" r="6.4"/>
      <circle class="cls-6" cx="439.27" cy="355.12" r="6.4"/>
      <circle class="cls-6" cx="464.89" cy="355.12" r="6.4"/>
      <circle class="cls-6" cx="368.63" cy="367.77" r="6.4"/>
      <circle class="cls-6" cx="394.25" cy="367.77" r="6.4"/>
      <circle class="cls-6" cx="419.87" cy="367.77" r="6.4"/>
      <circle class="cls-6" cx="432.68" cy="367.77" r="6.4"/>
      <circle class="cls-6" cx="471.23" cy="367.69" r="6.4"/>
      <circle class="cls-6" cx="374.19" cy="380.58" r="6.4"/>
      <circle class="cls-6" cx="399.81" cy="380.58" r="6.4"/>
      <circle class="cls-6" cx="438.24" cy="380.58" r="6.4"/>
      <circle class="cls-6" cx="451.17" cy="380.5" r="6.4"/>
      <circle class="cls-6" cx="476.79" cy="380.5" r="6.4"/>
      <circle class="cls-6" cx="380.59" cy="392.9" r="6.4"/>
      <circle class="cls-6" cx="406.21" cy="392.9" r="6.4"/>
      <circle class="cls-6" cx="419.02" cy="392.9" r="6.4"/>
      <circle class="cls-6" cx="431.83" cy="392.9" r="6.4"/>
      <circle class="cls-6" cx="457.58" cy="392.82" r="6.4"/>
      <circle class="cls-6" cx="483.2" cy="392.82" r="6.4"/>
      <circle class="cls-6" cx="483.12" cy="316.76" r="6.4"/>
      <circle class="cls-6" cx="496.06" cy="316.69" r="6.4"/>
      <circle class="cls-6" cx="478.84" cy="329.65" r="6.4"/>
      <circle class="cls-6" cx="504.59" cy="329.57" r="6.4"/>
      <circle class="cls-6" cx="483.18" cy="342.67" r="6.4"/>
      <circle class="cls-6" cx="496.12" cy="342.6" r="6.4"/>
      <circle class="cls-6" cx="508.93" cy="342.6" r="6.4"/>
      <circle class="cls-6" cx="490.35" cy="355.09" r="6.4"/>
      <circle class="cls-6" cx="483.18" cy="367.73" r="6.4"/>
      <circle class="cls-6" cx="508.93" cy="367.65" r="6.4"/>
      <circle class="cls-6" cx="502.94" cy="380.54" r="6.4"/>
      <circle class="cls-6" cx="490" cy="303.88" r="6.4"/>
      <circle class="cls-6" cx="400.36" cy="173.42" r="6.4"/>
    </g>
    <g id="_빨강" data-name="빨강">
      <circle class="cls-1" cx="105.55" cy="227.08" r="6.4"/>
      <circle class="cls-1" cx="131.17" cy="227.08" r="6.4"/>
      <circle class="cls-1" cx="169.6" cy="227.08" r="6.4"/>
      <circle class="cls-1" cx="195.34" cy="227" r="6.4"/>
      <circle class="cls-1" cx="124.39" cy="239.89" r="6.4"/>
      <circle class="cls-1" cx="162.81" cy="239.89" r="6.4"/>
      <circle class="cls-1" cx="188.56" cy="239.81" r="6.4"/>
      <circle class="cls-1" cx="117.92" cy="252.85" r="6.4"/>
      <circle class="cls-1" cx="169.16" cy="252.85" r="6.4"/>
      <circle class="cls-1" cx="182.09" cy="252.78" r="6.4"/>
      <circle class="cls-1" cx="194.9" cy="252.78" r="6.4"/>
      <circle class="cls-1" cx="111.89" cy="265.66" r="6.4"/>
      <circle class="cls-1" cx="137.51" cy="265.66" r="6.4"/>
      <circle class="cls-1" cx="163.13" cy="265.66" r="6.4"/>
      <circle class="cls-1" cx="201.69" cy="265.59" r="6.4"/>
      <circle class="cls-1" cx="117.86" cy="278.19" r="6.4"/>
      <circle class="cls-1" cx="156.28" cy="278.19" r="6.4"/>
      <circle class="cls-1" cx="182.03" cy="278.11" r="6.4"/>
      <circle class="cls-1" cx="194.84" cy="278.11" r="6.4"/>
      <circle class="cls-1" cx="175.7" cy="291.08" r="6.4"/>
      <circle class="cls-1" cx="92.17" cy="304.2" r="6.4"/>
      <circle class="cls-1" cx="117.79" cy="304.2" r="6.4"/>
      <circle class="cls-1" cx="143.41" cy="304.2" r="6.4"/>
      <circle class="cls-1" cx="194.78" cy="304.12" r="6.4"/>
      <circle class="cls-1" cx="98.52" cy="316.73" r="6.4"/>
      <circle class="cls-1" cx="124.13" cy="316.73" r="6.4"/>
      <circle class="cls-1" cx="175.5" cy="316.65" r="6.4"/>
      <circle class="cls-1" cx="81.43" cy="329.33" r="6.4"/>
      <circle class="cls-1" cx="145.48" cy="329.33" r="6.4"/>
      <circle class="cls-1" cx="184.03" cy="329.25" r="6.4"/>
      <circle class="cls-1" cx="85.85" cy="342.71" r="6.4"/>
      <circle class="cls-1" cx="98.65" cy="342.71" r="6.4"/>
      <circle class="cls-1" cx="162.83" cy="342.64" r="6.4"/>
      <circle class="cls-1" cx="80.28" cy="355.2" r="6.4"/>
      <circle class="cls-1" cx="131.52" cy="355.2" r="6.4"/>
      <circle class="cls-1" cx="170.08" cy="355.12" r="6.4"/>
      <circle class="cls-1" cx="99.44" cy="367.77" r="6.4"/>
      <circle class="cls-1" cx="125.05" cy="367.77" r="6.4"/>
      <circle class="cls-1" cx="163.61" cy="367.69" r="6.4"/>
      <circle class="cls-1" cx="176.42" cy="367.69" r="6.4"/>
      <circle class="cls-1" cx="105" cy="380.58" r="6.4"/>
      <circle class="cls-1" cx="130.62" cy="380.58" r="6.4"/>
      <circle class="cls-1" cx="143.43" cy="380.58" r="6.4"/>
      <circle class="cls-1" cx="181.98" cy="380.5" r="6.4"/>
      <circle class="cls-1" cx="111.4" cy="392.9" r="6.4"/>
      <circle class="cls-1" cx="162.64" cy="392.9" r="6.4"/>
      <circle class="cls-1" cx="188.38" cy="392.82" r="6.4"/>
      <circle class="cls-1" cx="226.86" cy="316.69" r="6.4"/>
      <circle class="cls-1" cx="209.77" cy="329.57" r="6.4"/>
      <circle class="cls-1" cx="195.41" cy="355.16" r="6.4"/>
      <circle class="cls-1" cx="221.15" cy="355.09" r="6.4"/>
      <circle class="cls-1" cx="214.12" cy="367.65" r="6.4"/>
      <circle class="cls-1" cx="208" cy="380.62" r="6.4"/>
      <circle class="cls-1" cx="213.99" cy="393.5" r="6.4"/>
      <circle class="cls-1" cx="220.94" cy="303.8" r="6.4"/>
      <circle class="cls-1" cx="214.05" cy="291.03" r="6.4"/>
      <circle class="cls-5" cx="387.56" cy="227.08" r="6.4"/>
      <circle class="cls-5" cx="413.17" cy="227.08" r="6.4"/>
      <circle class="cls-5" cx="451.6" cy="227.08" r="6.4"/>
      <circle class="cls-5" cx="477.35" cy="227" r="6.4"/>
      <circle class="cls-5" cx="406.39" cy="239.89" r="6.4"/>
      <circle class="cls-5" cx="444.82" cy="239.89" r="6.4"/>
      <circle class="cls-5" cx="470.56" cy="239.81" r="6.4"/>
      <circle class="cls-5" cx="399.92" cy="252.85" r="6.4"/>
      <circle class="cls-5" cx="451.16" cy="252.85" r="6.4"/>
      <circle class="cls-5" cx="464.09" cy="252.78" r="6.4"/>
      <circle class="cls-5" cx="476.9" cy="252.78" r="6.4"/>
      <circle class="cls-5" cx="393.9" cy="265.66" r="6.4"/>
      <circle class="cls-5" cx="419.52" cy="265.66" r="6.4"/>
      <circle class="cls-5" cx="445.14" cy="265.66" r="6.4"/>
      <circle class="cls-5" cx="483.69" cy="265.59" r="6.4"/>
      <circle class="cls-5" cx="399.86" cy="278.19" r="6.4"/>
      <circle class="cls-5" cx="438.29" cy="278.19" r="6.4"/>
      <circle class="cls-5" cx="464.03" cy="278.11" r="6.4"/>
      <circle class="cls-5" cx="476.84" cy="278.11" r="6.4"/>
      <circle class="cls-5" cx="457.7" cy="291.08" r="6.4"/>
      <circle class="cls-5" cx="374.18" cy="304.2" r="6.4"/>
      <circle class="cls-5" cx="399.8" cy="304.2" r="6.4"/>
      <circle class="cls-5" cx="425.41" cy="304.2" r="6.4"/>
      <circle class="cls-5" cx="476.78" cy="304.12" r="6.4"/>
      <circle class="cls-5" cx="380.52" cy="316.73" r="6.4"/>
      <circle class="cls-5" cx="406.14" cy="316.73" r="6.4"/>
      <circle class="cls-5" cx="457.5" cy="316.65" r="6.4"/>
      <circle class="cls-5" cx="363.43" cy="329.33" r="6.4"/>
      <circle class="cls-5" cx="427.48" cy="329.33" r="6.4"/>
      <circle class="cls-5" cx="466.03" cy="329.25" r="6.4"/>
      <circle class="cls-5" cx="367.85" cy="342.71" r="6.4"/>
      <circle class="cls-5" cx="380.66" cy="342.71" r="6.4"/>
      <circle class="cls-5" cx="444.83" cy="342.64" r="6.4"/>
      <circle class="cls-5" cx="362.29" cy="355.2" r="6.4"/>
      <circle class="cls-5" cx="413.52" cy="355.2" r="6.4"/>
      <circle class="cls-5" cx="452.08" cy="355.12" r="6.4"/>
      <circle class="cls-5" cx="381.44" cy="367.77" r="6.4"/>
      <circle class="cls-5" cx="407.06" cy="367.77" r="6.4"/>
      <circle class="cls-5" cx="445.61" cy="367.69" r="6.4"/>
      <circle class="cls-5" cx="458.42" cy="367.69" r="6.4"/>
      <circle class="cls-5" cx="387" cy="380.58" r="6.4"/>
      <circle class="cls-5" cx="412.62" cy="380.58" r="6.4"/>
      <circle class="cls-5" cx="425.43" cy="380.58" r="6.4"/>
      <circle class="cls-5" cx="463.98" cy="380.5" r="6.4"/>
      <circle class="cls-5" cx="393.4" cy="392.9" r="6.4"/>
      <circle class="cls-5" cx="444.64" cy="392.9" r="6.4"/>
      <circle class="cls-5" cx="470.39" cy="392.82" r="6.4"/>
      <circle class="cls-5" cx="508.86" cy="316.69" r="6.4"/>
      <circle class="cls-5" cx="491.78" cy="329.57" r="6.4"/>
      <circle class="cls-5" cx="477.41" cy="355.16" r="6.4"/>
      <circle class="cls-5" cx="503.16" cy="355.09" r="6.4"/>
      <circle class="cls-5" cx="496.12" cy="367.65" r="6.4"/>
      <circle class="cls-5" cx="490" cy="380.62" r="6.4"/>
      <circle class="cls-5" cx="495.99" cy="393.5" r="6.4"/>
      <circle class="cls-5" cx="502.94" cy="303.8" r="6.4"/>
      <circle class="cls-5" cx="496.06" cy="291.03" r="6.4"/>
      <g>
        <line class="cls-4" x1="241.57" y1="297.33" x2="347.84" y2="297.33"/>
        <polygon class="cls-2" points="341.21 305.51 339.84 304.04 347.07 297.33 339.84 290.61 341.21 289.15 350.01 297.33 341.21 305.51"/>
      </g>
      <g>
        <line class="cls-3" x1="387.56" y1="227.08" x2="376.35" y2="118.12"/>
        <polygon class="cls-2" points="380.76 121 380.1 121.75 376.39 118.5 373.42 122.44 372.62 121.84 376.24 117.04 380.76 121"/>
      </g>
      <g>
        <line class="cls-3" x1="400.36" y1="227.08" x2="400.36" y2="186.21"/>
        <polygon class="cls-2" points="404.45 189.53 403.72 190.21 400.37 186.6 397.01 190.21 396.28 189.53 400.37 185.13 404.45 189.53"/>
      </g>
      <circle class="cls-5" cx="376.24" cy="105.4" r="6.4"/>
    </g>
  </g>
</svg>