<?xml version="1.0" encoding="UTF-8"?>
<svg xmlns="http://www.w3.org/2000/svg" version="1.1" viewBox="0 0 600 600">
  <defs>
    <style>
      .cls-1 {
        fill: #231815;
      }

      .cls-2 {
        stroke-width: .8px;
      }

      .cls-2, .cls-3 {
        stroke: #231815;
      }

      .cls-2, .cls-3, .cls-4 {
        fill: none;
        stroke-miterlimit: 10;
      }

      .cls-5 {
        fill: #e60012;
      }

      .cls-4 {
        stroke: #e60012;
      }
    </style>
  </defs>
  <!-- Generator: Adobe Illustrator 28.7.1, SVG Export Plug-In . SVG Version: 1.2.0 Build 142)  -->
  <g>
    <g id="_레이어_1" data-name="레이어_1">
      <g>
        <g id="_레이어_1-2" data-name="_레이어_1">
          <path d="M185.65,141.17c0,.13-.05.23-.15.31-.1.08-.19.11-.27.11s-.14-.01-.19-.04-.11-.06-.16-.09-.11-.07-.17-.1-.13-.05-.21-.05c-.18,0-.34.06-.47.19-.13.12-.25.29-.36.5s-.2.45-.29.73c-.09.28-.17.58-.26.89h1.29l-.07.34h-1.27c-.18.74-.37,1.43-.57,2.09-.08.29-.17.58-.27.88s-.19.58-.29.85c-.1.27-.2.53-.31.77s-.21.44-.31.61c-.31.51-.62.9-.94,1.18-.31.28-.64.42-.97.42-.15,0-.26-.05-.32-.15s-.1-.22-.1-.38c0-.13.06-.22.18-.26.12-.05.25-.07.4-.09.15,0,.3,0,.44,0s.25,0,.31-.05c.17-.1.3-.2.4-.32.1-.11.19-.28.27-.49s.15-.5.23-.85.17-.82.3-1.4c.05-.22.11-.49.21-.81.09-.32.18-.62.27-.92.11-.35.22-.71.34-1.08h-1.09l.07-.34h1.16c.11-.32.24-.65.42-1,.17-.35.37-.67.59-.97.22-.29.47-.54.73-.74s.54-.29.84-.29c.24,0,.39.06.48.19s.12.24.12.36h0Z"/>
          <path d="M190.83,143.7c0,.2-.07.37-.22.51s-.32.21-.52.21-.37-.07-.51-.22c-.14-.14-.22-.31-.22-.51,0-.21.07-.39.21-.53s.31-.22.52-.22.39.07.53.22c.14.14.21.33.21.55h0ZM190.83,147.57c0,.2-.07.37-.22.51s-.32.22-.52.22-.37-.07-.51-.22-.22-.32-.22-.52c0-.21.07-.39.21-.53s.31-.21.52-.21.39.07.53.21.21.32.21.54h0Z"/>
          <path d="M204.18,148.78h-3.47l.11-.34c.07,0,.17,0,.3-.02.13,0,.26-.03.39-.06s.23-.08.32-.15c.08-.07.11-.16.07-.27l-.87-2.76-2.38,2.35c-.14.14-.22.26-.24.38-.03.11,0,.21.05.29.06.08.16.14.29.18.13.04.29.06.47.06l-.11.34h-2.97l.11-.34c.35,0,.68-.08,1-.23s.61-.35.87-.6l2.79-2.75-1.02-3.37c-.02-.07-.05-.12-.08-.17-.03-.05-.08-.08-.16-.11-.07-.03-.18-.05-.32-.06-.14-.01-.33-.01-.57,0l.11-.34h3.25l-.11.34c-.44,0-.73.04-.86.11-.13.08-.17.21-.11.41l.74,2.42,2.13-2.14c.09-.09.17-.19.23-.29s.08-.18.06-.26-.08-.14-.2-.19-.3-.07-.56-.07l.11-.34h2.74l-.11.34c-.21,0-.38.01-.53.03s-.29.06-.4.1c-.12.04-.22.1-.31.17-.09.06-.18.14-.26.22l-2.77,2.76,1.04,3.26c.05.15.12.28.2.38.09.1.19.18.3.23.11.06.24.09.38.11s.28.03.43.03l-.11.34h.03Z"/>
          <path d="M217.81,145.4l-2.95,1.95-.14-.16,1.37-1.63h-9.91v-.34h9.9l-1.4-1.66.17-.14,2.96,1.97h0Z"/>
          <path d="M229.38,141.15c-.21-.01-.41,0-.59.06s-.35.12-.49.22c-.15.09-.28.19-.4.3s-.22.22-.31.31l-3.16,3.43-.79,2.37c-.09.27-.02.43.2.5s.56.1,1,.1l-.11.34h-3.71l.11-.34c.45,0,.8-.04,1.05-.12s.42-.24.5-.5l.73-2.19-1.02-3.83c-.02-.07-.05-.14-.08-.22s-.08-.15-.14-.22c-.07-.07-.17-.12-.3-.17-.13-.04-.32-.06-.56-.06l.11-.34h3.37l-.11.34c-.46,0-.79.05-.98.14s-.27.23-.23.4l.87,3.43,2.88-3.17c.16-.18.23-.32.21-.43-.02-.1-.08-.18-.19-.23s-.23-.09-.37-.11c-.14-.02-.26-.03-.35-.04l.11-.34h2.88l-.11.34-.02.03Z"/>
          <path d="M142.42,254.44c0-.62.06-1.21.19-1.76s.28-1.08.47-1.56.4-.93.63-1.33.46-.75.69-1.05.44-.55.64-.75.35-.33.46-.41c.06-.05.12-.04.17,0,.05.05.04.11-.03.17-.31.35-.61.75-.9,1.2s-.54.94-.75,1.49c-.22.54-.39,1.15-.53,1.8-.13.66-.21,1.38-.21,2.16,0,.72.04,1.38.15,1.98.11.6.24,1.15.41,1.63s.35.91.55,1.29c.2.37.39.69.56.95s.33.46.46.6.21.23.23.26c.07.07.09.14.05.2s-.09.07-.16.02c-.22-.14-.51-.4-.85-.78-.35-.38-.68-.87-1.02-1.47-.33-.59-.62-1.28-.85-2.07-.24-.78-.35-1.65-.34-2.59l-.02.02Z"/>
          <path class="cls-5" d="M153.83,254.59c-.04.19-.11.32-.22.39-.11.07-.23.1-.36.1s-.23-.03-.31-.1-.13-.16-.15-.27c-.02-.09,0-.18.03-.28.04-.09.11-.16.21-.19.05-.08.05-.17,0-.26-.04-.09-.16-.14-.36-.14-.1,0-.23.05-.37.15s-.3.25-.47.45-.33.46-.5.76c-.17.31-.32.67-.46,1.08-.14.42-.25.8-.32,1.14-.08.35-.11.64-.1.89s.07.44.17.58.27.21.49.21c.2,0,.4-.05.58-.15.18-.1.35-.22.51-.36.16-.14.29-.29.41-.44.12-.15.21-.28.28-.39l.3.25c-.07.14-.18.3-.33.49s-.31.37-.5.55c-.19.18-.39.33-.59.45-.21.12-.41.18-.62.18-.41,0-.74-.12-.98-.36-.23-.24-.35-.56-.35-.97-.07.15-.18.3-.33.46s-.31.3-.49.43-.39.23-.6.31c-.22.08-.44.12-.66.12-.18,0-.33-.03-.46-.09s-.25-.14-.35-.23-.17-.2-.22-.32c-.05-.12-.08-.24-.08-.36,0-.53.19-.79.57-.79.18,0,.33.05.43.15s.15.21.15.33c0,.13-.03.25-.08.35-.06.11-.14.17-.25.19-.03.14.03.23.16.26.13.04.29.03.48-.03s.38-.15.58-.3c.2-.14.36-.33.48-.55s.24-.51.37-.86c.12-.35.24-.7.34-1.06.1-.35.19-.68.26-.97s.12-.49.14-.6c0-.11,0-.22-.05-.34s-.1-.22-.17-.32c-.07-.1-.16-.18-.26-.24-.1-.06-.2-.1-.3-.1-.15,0-.29.04-.44.12-.14.08-.28.18-.4.3s-.24.23-.34.35c-.1.12-.18.21-.25.28l-.24-.29c.1-.09.21-.21.33-.35s.25-.28.39-.41.3-.24.46-.33.35-.13.55-.13.37.05.53.15.29.22.4.37.19.31.25.48.08.33.07.48c.09-.1.21-.23.34-.4s.29-.33.46-.48c.17-.16.36-.29.56-.41.2-.12.42-.17.65-.17s.4.04.54.13c.14.09.24.2.32.33.07.13.12.26.14.4s.02.26,0,.37h.02Z"/>
          <path class="cls-5" d="M159.03,262.79h-3.43v-.25c.35,0,.62-.02.8-.06.18-.04.31-.09.39-.16.08-.06.12-.13.13-.2v-4.63c0-.08,0-.15-.04-.2s-.09-.1-.18-.13-.23-.05-.4-.06c-.18,0-.42,0-.72,0v-.2c.26-.03.51-.08.75-.15s.46-.13.66-.2c.23-.08.44-.17.64-.28v5.7c0,.05,0,.11.02.18s.06.14.15.2.22.12.41.16.46.07.81.07v.24-.02Z"/>
          <path d="M162.95,258.87c-.06.24-.16.46-.29.66-.13.2-.27.38-.42.53s-.29.28-.44.37-.26.16-.35.19c-.03,0-.06-.02-.08-.06-.03-.04-.03-.06,0-.08.08-.05.18-.12.3-.23.12-.11.22-.24.33-.39.1-.15.18-.32.24-.5.06-.18.08-.37.05-.57,0-.04-.04-.05-.12-.03s-.17.03-.28.02c-.11,0-.22-.04-.34-.11s-.23-.21-.32-.42c-.06-.12-.06-.25-.03-.4.04-.15.1-.28.2-.39.1-.12.22-.2.38-.26s.33-.06.51,0c.32.1.54.32.64.66s.11.68.02,1.03v-.02Z"/>
          <path d="M172.38,253.35c-.35.9-.67,1.73-.95,2.47-.12.32-.24.64-.36.95s-.23.6-.34.86-.19.49-.26.68c-.07.19-.12.33-.15.4-.05.14-.14.36-.28.66s-.32.6-.56.91c-.23.31-.53.58-.87.81-.35.23-.75.35-1.21.35-.38,0-.67-.03-.89-.1-.21-.07-.37-.15-.47-.25s-.16-.2-.19-.32c-.02-.12-.03-.21-.03-.3,0-.18.06-.32.18-.4s.23-.12.33-.12c.08,0,.18.05.3.15.12.1.18.21.18.32,0,.15-.02.25-.06.3s-.09.1-.13.15c0,.07.04.13.11.17s.16.07.27.09.22.03.34.03.23,0,.32-.02c.17-.03.35-.11.52-.24s.33-.29.48-.48.28-.4.41-.62.23-.44.33-.65c.09-.21.17-.4.24-.57.06-.17.11-.3.14-.39-.2.22-.43.4-.69.54s-.56.21-.91.21c-.18,0-.36-.02-.55-.07s-.36-.13-.49-.26c-.13-.12-.21-.3-.24-.52s.04-.51.19-.86c.32-.7.57-1.28.75-1.73s.3-.77.37-.94c.03-.08.04-.18.04-.28s-.02-.2-.05-.27-.09-.11-.16-.12c-.07,0-.17.05-.28.17-.12.13-.24.26-.37.39s-.24.25-.34.36c-.12.13-.24.25-.35.37l-.21-.29c.06-.08.16-.21.3-.38.13-.17.29-.34.46-.52.17-.17.35-.33.53-.46s.36-.19.54-.19c.13,0,.24.03.35.1s.18.16.24.26.1.22.11.35,0,.26-.06.39l-1.16,3.15c-.09.24-.08.44.03.62.11.17.27.27.48.31.21.04.45,0,.71-.13.26-.12.49-.36.71-.71.21-.34.42-.76.62-1.25s.38-.97.54-1.43c.18-.53.36-1.09.54-1.66h.97-.02Z"/>
          <path d="M177.12,262.79h-3.43v-.25c.35,0,.62-.02.8-.06.18-.04.31-.09.39-.16.08-.06.12-.13.13-.2v-4.63c0-.08,0-.15-.04-.2s-.09-.1-.18-.13-.23-.05-.4-.06c-.18,0-.42,0-.72,0v-.2c.26-.03.51-.08.75-.15s.46-.13.66-.2c.23-.08.44-.17.64-.28v5.7c0,.05,0,.11.02.18s.06.14.15.2.22.12.41.16.46.07.81.07v.24-.02Z"/>
          <path d="M181.78,247.58c.11.07.27.21.46.41.2.2.41.45.64.75s.45.65.69,1.05c.23.4.44.84.63,1.33.19.48.35,1,.47,1.56s.19,1.15.19,1.76c0,.94-.1,1.8-.34,2.59-.23.78-.52,1.47-.85,2.07-.33.59-.67,1.08-1.02,1.47-.35.38-.63.64-.85.78-.06.05-.12.04-.16-.02s-.03-.13.05-.2c.03-.03.11-.11.23-.26.13-.14.28-.34.46-.6s.36-.57.56-.95c.2-.37.38-.8.55-1.29s.3-1.03.41-1.63.15-1.26.15-1.98c0-.78-.08-1.5-.21-2.16s-.31-1.26-.53-1.8c-.22-.54-.48-1.04-.76-1.49-.29-.45-.59-.85-.9-1.2-.06-.06-.06-.12-.02-.17s.1-.05.17,0l-.02-.02Z"/>
          <path d="M189.07,258.87c-.06.24-.16.46-.29.66-.13.2-.27.38-.42.53s-.29.28-.44.37-.26.16-.35.19c-.03,0-.06-.02-.08-.06-.03-.04-.03-.06,0-.08.08-.05.18-.12.3-.23.12-.11.22-.24.33-.39.1-.15.18-.32.24-.5.06-.18.08-.37.05-.57,0-.04-.04-.05-.12-.03s-.17.03-.28.02c-.11,0-.22-.04-.34-.11s-.23-.21-.32-.42c-.06-.12-.06-.25-.03-.4.04-.15.1-.28.2-.39.1-.12.22-.2.38-.26s.33-.06.51,0c.32.1.54.32.64.66s.11.68.02,1.03v-.02Z"/>
          <path d="M196.11,257.98c0,.24-.09.44-.27.61s-.39.25-.64.25-.45-.09-.62-.26-.26-.38-.26-.62.08-.46.26-.64c.17-.18.38-.26.63-.26s.47.09.65.26.26.39.26.65h0Z"/>
          <path d="M200.37,257.98c0,.24-.09.44-.27.61s-.39.25-.64.25-.45-.09-.62-.26-.26-.38-.26-.62.08-.46.26-.64c.17-.18.38-.26.63-.26s.47.09.65.26.26.39.26.65h0Z"/>
          <path d="M204.64,257.98c0,.24-.09.44-.27.61s-.39.25-.64.25-.45-.09-.62-.26-.26-.38-.26-.62.08-.46.26-.64c.17-.18.38-.26.63-.26s.47.09.65.26.26.39.26.65h0Z"/>
          <path d="M210.57,258.87c-.06.24-.16.46-.29.66-.13.2-.27.38-.42.53s-.29.28-.44.37-.26.16-.35.19c-.03,0-.06-.02-.08-.06-.03-.04-.03-.06,0-.08.08-.05.18-.12.3-.23.12-.11.22-.24.33-.39.1-.15.18-.32.24-.5.06-.18.08-.37.05-.57,0-.04-.04-.05-.12-.03s-.17.03-.28.02c-.11,0-.22-.04-.34-.11s-.23-.21-.32-.42c-.06-.12-.06-.25-.03-.4.04-.15.1-.28.2-.39.1-.12.22-.2.38-.26s.33-.06.51,0c.32.1.54.32.64.66s.11.68.02,1.03v-.02Z"/>
          <path d="M217.17,254.44c0-.62.06-1.21.19-1.76s.28-1.08.47-1.56.4-.93.63-1.33.46-.75.69-1.05.44-.55.64-.75.35-.33.46-.41c.06-.05.12-.04.17,0,.05.05.04.11-.03.17-.31.35-.61.75-.9,1.2s-.54.94-.75,1.49c-.22.54-.39,1.15-.53,1.8-.13.66-.21,1.38-.21,2.16,0,.72.04,1.38.15,1.98.11.6.24,1.15.41,1.63s.35.91.55,1.29c.2.37.39.69.56.95s.33.46.46.6.21.23.23.26c.07.07.09.14.05.2s-.09.07-.16.02c-.22-.14-.51-.4-.85-.78-.35-.38-.68-.87-1.02-1.47-.33-.59-.62-1.28-.85-2.07-.24-.78-.35-1.65-.34-2.59l-.02.02Z"/>
          <path class="cls-5" d="M228.75,254.59c-.04.19-.11.32-.22.39-.11.07-.23.1-.36.1s-.23-.03-.31-.1-.13-.16-.15-.27c-.02-.09,0-.18.03-.28.04-.09.11-.16.21-.19.05-.08.05-.17,0-.26-.04-.09-.16-.14-.36-.14-.1,0-.23.05-.37.15s-.3.25-.47.45-.33.46-.5.76c-.17.31-.32.67-.46,1.08-.14.42-.25.8-.32,1.14-.08.35-.11.64-.1.89s.07.44.17.58.27.21.49.21c.2,0,.4-.05.58-.15.18-.1.35-.22.51-.36.16-.14.29-.29.41-.44.12-.15.21-.28.28-.39l.3.25c-.07.14-.18.3-.33.49s-.31.37-.5.55c-.19.18-.39.33-.59.45-.21.12-.41.18-.62.18-.41,0-.74-.12-.98-.36-.23-.24-.35-.56-.35-.97-.07.15-.18.3-.33.46s-.31.3-.49.43-.39.23-.6.31c-.22.08-.44.12-.66.12-.18,0-.33-.03-.46-.09s-.25-.14-.35-.23-.17-.2-.22-.32c-.05-.12-.08-.24-.08-.36,0-.53.19-.79.57-.79.18,0,.33.05.43.15s.15.21.15.33c0,.13-.03.25-.08.35-.06.11-.14.17-.25.19-.03.14.03.23.16.26.13.04.29.03.48-.03s.38-.15.58-.3c.2-.14.36-.33.48-.55s.24-.51.37-.86c.12-.35.24-.7.34-1.06.1-.35.19-.68.26-.97s.12-.49.14-.6c0-.11,0-.22-.05-.34s-.1-.22-.17-.32c-.07-.1-.16-.18-.26-.24-.1-.06-.2-.1-.3-.1-.15,0-.29.04-.44.12-.14.08-.28.18-.4.3s-.24.23-.34.35c-.1.12-.18.21-.25.28l-.24-.29c.1-.09.21-.21.33-.35s.25-.28.39-.41.3-.24.46-.33.35-.13.55-.13.37.05.53.15.29.22.4.37.19.31.25.48.08.33.07.48c.09-.1.21-.23.34-.4s.29-.33.46-.48c.17-.16.36-.29.56-.41.2-.12.42-.17.65-.17s.4.04.54.13c.14.09.24.2.32.33.07.13.12.26.14.4s.02.26,0,.37h.02Z"/>
          <path class="cls-5" d="M238.81,256.43c-.2,0-.38.04-.53.11-.15.08-.28.17-.38.28s-.18.22-.24.34c-.06.12-.1.21-.13.29l-1.83,5.48h-.19l-2.23-5.76-1.42,4.25c-.07.22-.11.4-.11.54s.03.25.09.33.15.14.27.17c.12.03.27.04.45.04l-.09.29h-2.42l.09-.29c.21,0,.4-.02.55-.08.15-.05.28-.12.39-.22s.2-.21.28-.34c.07-.13.13-.28.19-.45l1.45-4.36c.06-.18.02-.33-.12-.45s-.38-.19-.73-.19l.1-.3h1.59l2.05,5.33,1.33-4c.1-.3.11-.54.03-.74-.08-.19-.29-.29-.64-.29l.1-.3h2.19l-.1.3v.02Z"/>
          <path d="M242.31,258.87c-.06.24-.16.46-.29.66-.13.2-.27.38-.42.53s-.29.28-.44.37-.26.16-.35.19c-.03,0-.06-.02-.08-.06-.03-.04-.03-.06,0-.08.08-.05.18-.12.3-.23.12-.11.22-.24.33-.39.1-.15.18-.32.24-.5.06-.18.08-.37.05-.57,0-.04-.04-.05-.12-.03s-.17.03-.28.02c-.11,0-.22-.04-.34-.11s-.23-.21-.32-.42c-.06-.12-.06-.25-.03-.4.04-.15.1-.28.2-.39.1-.12.22-.2.38-.26s.33-.06.51,0c.32.1.54.32.64.66s.11.68.02,1.03v-.02Z"/>
          <path d="M253.44,253.35c-.35.9-.67,1.73-.95,2.47-.12.32-.24.64-.36.95s-.23.6-.34.86-.19.49-.26.68c-.07.19-.12.33-.15.4-.05.14-.14.36-.28.66s-.32.6-.56.91c-.23.31-.53.58-.87.81-.35.23-.75.35-1.21.35-.38,0-.67-.03-.89-.1-.21-.07-.37-.15-.47-.25s-.16-.2-.19-.32c-.02-.12-.03-.21-.03-.3,0-.18.06-.32.18-.4s.23-.12.33-.12c.08,0,.18.05.3.15.12.1.18.21.18.32,0,.15-.02.25-.06.3s-.09.1-.13.15c0,.07.04.13.11.17s.16.07.27.09.22.03.34.03.23,0,.32-.02c.17-.03.35-.11.52-.24s.33-.29.48-.48.28-.4.41-.62.23-.44.33-.65c.09-.21.17-.4.24-.57.06-.17.11-.3.14-.39-.2.22-.43.4-.69.54s-.56.21-.91.21c-.18,0-.36-.02-.55-.07s-.36-.13-.49-.26c-.13-.12-.21-.3-.24-.52s.04-.51.19-.86c.32-.7.57-1.28.75-1.73s.3-.77.37-.94c.03-.08.04-.18.04-.28s-.02-.2-.05-.27-.09-.11-.16-.12c-.07,0-.17.05-.28.17-.12.13-.24.26-.37.39s-.24.25-.34.36c-.12.13-.24.25-.35.37l-.21-.29c.06-.08.16-.21.3-.38.13-.17.29-.34.46-.52.17-.17.35-.33.53-.46s.36-.19.54-.19c.13,0,.24.03.35.1s.18.16.24.26.1.22.11.35,0,.26-.06.39l-1.16,3.15c-.09.24-.08.44.03.62.11.17.27.27.48.31.21.04.45,0,.71-.13.26-.12.49-.36.71-.71.21-.34.42-.76.62-1.25s.38-.97.54-1.43c.18-.53.36-1.09.54-1.66h.97-.02Z"/>
          <path d="M263.04,256.43c-.2,0-.38.04-.53.11-.15.08-.28.17-.38.28s-.18.22-.24.34-.1.21-.13.29l-1.83,5.48h-.19l-2.23-5.76-1.42,4.25c-.07.22-.11.4-.11.54s.03.25.09.33.15.14.27.17.27.04.45.04l-.09.29h-2.42l.09-.29c.21,0,.4-.02.55-.08.15-.05.28-.12.39-.22.11-.1.2-.21.28-.34.07-.13.13-.28.19-.45l1.45-4.36c.06-.18.02-.33-.12-.45-.14-.12-.38-.19-.73-.19l.1-.3h1.59l2.05,5.33,1.33-4c.1-.3.11-.54.03-.74-.08-.19-.29-.29-.64-.29l.1-.3h2.19l-.1.3v.02Z"/>
          <path d="M264.89,247.58c.11.07.27.21.46.41.2.2.41.45.64.75s.45.65.69,1.05c.23.4.44.84.63,1.33.19.48.35,1,.47,1.56s.19,1.15.19,1.76c0,.94-.1,1.8-.34,2.59-.23.78-.52,1.47-.85,2.07-.33.59-.67,1.08-1.02,1.47-.35.38-.63.64-.85.78-.06.05-.12.04-.16-.02s-.03-.13.05-.2c.03-.03.11-.11.23-.26.13-.14.28-.34.46-.6s.36-.57.56-.95c.2-.37.38-.8.55-1.29s.3-1.03.41-1.63c.11-.6.15-1.26.15-1.98,0-.78-.08-1.5-.21-2.16s-.31-1.26-.53-1.8c-.22-.54-.48-1.04-.76-1.49-.29-.45-.59-.85-.9-1.2-.06-.06-.06-.12-.02-.17s.1-.05.17,0l-.02-.02Z"/>
          <path d="M430.53,361.85c-.26,1.01-.51,1.96-.77,2.85-.1.38-.22.76-.34,1.15s-.24.76-.36,1.11c-.12.35-.24.67-.36.96-.12.29-.23.52-.33.69-.14.23-.3.42-.48.55-.18.13-.37.23-.55.29-.19.06-.37.09-.56.1-.19,0-.36,0-.51-.03-.16-.03-.29-.06-.4-.09-.11-.04-.19-.06-.23-.08-.19-.08-.35-.19-.47-.33s-.19-.3-.19-.47c0-.15.04-.27.13-.36.09-.1.21-.15.36-.17.14-.02.26.01.36.08.1.07.15.19.15.34,0,.08-.01.16-.03.26-.02.09-.04.18-.06.25,0,.09.07.17.2.23s.29.08.47.08.37-.04.55-.11c.19-.07.33-.19.43-.34.12-.19.23-.4.33-.64s.18-.45.25-.65c.09-.23.16-.47.23-.7-.07.05-.15.11-.25.16-.1.06-.21.1-.34.14s-.27.06-.43.07c-.16,0-.32-.01-.49-.07-.2-.05-.38-.17-.56-.37s-.31-.44-.4-.73-.13-.63-.12-1.01c.02-.38.12-.79.31-1.22.18-.42.38-.76.58-1.01.21-.25.4-.45.57-.6.21-.16.41-.27.61-.35.28-.11.52-.16.73-.14.21.02.38.08.52.16.14.09.26.19.34.31s.14.23.16.32l.13-.66h.8l.02.03ZM429.36,363.46c.04-.2.06-.38.04-.54-.02-.15-.06-.29-.13-.43s-.19-.25-.36-.32c-.1-.04-.19-.07-.29-.08-.09,0-.18,0-.29.02-.11.02-.22.08-.34.17-.22.17-.43.38-.62.66-.16.23-.33.54-.49.91s-.27.82-.34,1.35c-.05.39-.03.7.07.93.09.23.23.4.41.49s.38.11.6.07.43-.15.64-.32c.1-.09.21-.22.3-.39.1-.17.19-.36.27-.57.08-.21.16-.42.22-.65.07-.22.12-.43.17-.62.05-.19.08-.34.11-.47.03-.12.04-.2.04-.21h-.01Z"/>
          <path d="M443.71,361.26c-.16.16-.31.32-.47.47s-.32.28-.5.39c-.18.11-.37.2-.58.27s-.45.1-.72.1c-.35,0-.71-.05-1.05-.16-.35-.1-.7-.22-1.05-.34-.35-.12-.71-.23-1.07-.34-.36-.1-.73-.16-1.11-.16-.23,0-.44.03-.62.08-.18.06-.35.13-.5.23-.15.09-.29.2-.42.32s-.25.25-.36.39l-.48-.25c.16-.18.32-.35.48-.5.17-.15.34-.28.54-.4.19-.11.41-.2.63-.27.23-.06.49-.1.79-.1.36,0,.72.05,1.06.15.35.1.69.21,1.03.33s.69.23,1.03.33c.35.1.71.15,1.08.15.42,0,.78-.09,1.06-.29.29-.19.53-.41.73-.66l.51.22v.04ZM443.71,364.83c-.16.17-.31.32-.47.47s-.32.28-.5.39c-.18.11-.37.2-.58.27-.21.07-.45.1-.72.1-.35,0-.71-.05-1.05-.16s-.7-.22-1.05-.34-.71-.23-1.07-.34c-.36-.1-.73-.16-1.11-.16-.23,0-.44.03-.62.08-.18.06-.35.13-.5.23s-.29.2-.42.32-.25.25-.36.39l-.48-.25c.16-.18.32-.35.48-.5.17-.15.34-.28.54-.4.19-.11.41-.2.63-.27.23-.06.49-.1.79-.1.36,0,.72.05,1.06.15.35.1.69.21,1.03.33s.69.23,1.03.33c.35.1.71.15,1.08.15.43,0,.79-.09,1.07-.29s.52-.41.72-.66l.51.22v.04Z"/>
          <path d="M455.96,358.79c0,.15-.06.26-.17.35-.11.09-.22.13-.31.13s-.16-.02-.22-.05-.12-.06-.18-.1-.12-.08-.19-.11c-.06-.03-.14-.05-.24-.05-.21,0-.39.07-.54.21-.15.14-.29.33-.41.57-.12.24-.23.51-.33.83-.1.32-.2.66-.29,1.02h1.46l-.08.39h-1.45c-.21.84-.42,1.63-.65,2.39-.09.33-.2.66-.3,1s-.22.66-.33.97-.23.6-.35.88c-.12.27-.24.5-.35.69-.35.58-.71,1.03-1.07,1.35-.36.32-.73.48-1.11.48-.17,0-.3-.06-.37-.17s-.11-.25-.11-.43c0-.15.07-.25.2-.3s.29-.08.46-.1c.17-.01.34-.02.51-.01.16,0,.28-.01.35-.06.19-.11.34-.23.46-.36.12-.13.22-.32.3-.56.09-.24.17-.56.26-.97.09-.4.2-.94.34-1.6.05-.25.13-.56.23-.92.1-.36.21-.71.31-1.05.12-.4.25-.81.39-1.23h-1.25l.08-.39h1.32c.12-.36.28-.74.47-1.14.2-.4.42-.77.67-1.1s.53-.62.83-.84.62-.34.95-.34c.27,0,.45.07.54.21s.14.28.14.41h.03Z"/>
          <path d="M291.27,382.01h-2.84l.1-.29c.08,0,.18-.02.31-.03.12-.02.25-.04.36-.08s.22-.09.31-.17c.09-.07.13-.17.13-.28l-.02-1.55h-2.83l-.87,1.32c-.1.14-.14.25-.12.36.02.1.07.18.15.25s.17.11.28.15c.11.03.21.05.31.05l-.1.29h-2.44l.1-.29c.19,0,.36-.02.51-.06.15-.04.28-.1.39-.17.11-.07.21-.15.29-.24s.16-.18.23-.28l3.98-5.86.86-.27.17,6.24c0,.19.08.34.22.45.15.11.35.17.62.17l-.1.31v-.02ZM289.63,379.27l-.1-3.66-2.5,3.66h2.61,0Z"/>
          <path d="M207.55,461.21h-2.76l.1-.29c.2,0,.37-.02.5-.05s.24-.07.33-.13c.08-.05.15-.11.2-.18s.08-.14.1-.21l.84-2.53h-3.27l-.83,2.51c-.03.08-.04.15-.06.22,0,.07,0,.13.05.19.04.06.12.1.23.13s.28.05.5.05l-.1.29h-2.72l.1-.29c.2,0,.37-.02.5-.05.13-.04.24-.08.32-.14.08-.06.15-.12.19-.19.05-.07.08-.14.11-.21l1.69-5.08c.02-.07.04-.14.04-.21s-.02-.13-.07-.18-.13-.09-.24-.12-.27-.04-.47-.04l.1-.29h2.72l-.1.29c-.22,0-.4.02-.53.04-.13.03-.24.07-.32.12s-.14.11-.17.18c-.03.06-.06.14-.09.21l-.76,2.28h3.27l.76-2.28c.02-.07.04-.14.04-.21s-.03-.13-.08-.18-.13-.09-.25-.12c-.11-.03-.27-.04-.47-.04l.1-.29h2.76l-.1.29c-.22,0-.4.02-.53.04-.13.03-.24.07-.32.12s-.14.11-.17.18c-.04.06-.07.14-.09.21l-1.7,5.11c-.03.08-.04.15-.05.22,0,.07,0,.13.05.18s.12.09.24.12c.11.03.28.04.5.04l-.1.29h.01Z"/>
          <g>
            <path d="M126.89,167.52c-1.09,1.4-1.92,3.14-1.92,5.38,0,2.04.67,3.87,1.92,5.51h-.68c-.86-1.12-1.83-3.03-1.83-5.52s.98-4.32,1.83-5.37h.68Z"/>
            <path d="M128.36,167.53h.6v1.16h-.6v-1.16ZM128.36,170.37h.6v6h-.6v-6Z"/>
            <path d="M135.56,167.53v7.11c0,.58,0,1.13,0,1.73h-.58c-.02-.14-.04-.71-.04-1.01-.3.73-.97,1.15-2.01,1.15-1.56,0-2.49-1.27-2.49-3.07s1.02-3.21,2.65-3.21c1.2,0,1.68.52,1.86.9v-3.6h.6ZM131.09,173.42c0,1.64.85,2.53,1.88,2.53,1.58,0,2.01-1.09,2.01-2.72s-.37-2.44-1.91-2.44c-1.19,0-1.99.95-1.99,2.63h.01Z"/>
            <path d="M137.66,173.44c0,1.55.79,2.51,1.94,2.51s1.51-.64,1.73-1.13h.61c-.25.79-.89,1.69-2.36,1.69-1.82,0-2.53-1.57-2.53-3.09,0-1.72.85-3.19,2.6-3.19,1.85,0,2.43,1.6,2.43,2.72,0,.17,0,.34,0,.49h-4.41ZM141.47,172.91c0-1.19-.66-2.12-1.83-2.12-1.24,0-1.8.86-1.93,2.12h3.77-.01Z"/>
            <path d="M147.67,175.23c0,.53.05.95.08,1.14h-.58c-.05-.14-.08-.41-.11-.92-.2.44-.73,1.07-1.97,1.07-1.39,0-1.99-.9-1.99-1.8,0-1.32,1.02-1.92,2.82-1.92h1.14v-.61c0-.6-.18-1.4-1.55-1.4-1.21,0-1.39.64-1.52,1.13h-.6c.07-.66.48-1.68,2.13-1.68,1.37,0,2.13.58,2.13,1.9v3.11l.02-.02ZM147.08,173.31h-1.18c-1.33,0-2.16.35-2.16,1.38,0,.76.54,1.27,1.38,1.27,1.71,0,1.96-1.14,1.96-2.43v-.22h0Z"/>
            <path d="M149.65,176.37v-8.84h.6v8.84h-.6Z"/>
            <path d="M159.75,174.6c-.29,1.06-.98,1.91-2.33,1.91-1.5,0-2.57-1.12-2.57-3.12,0-1.64.88-3.17,2.64-3.17,1.52,0,2.15,1.08,2.25,1.92h-.61c-.18-.7-.64-1.36-1.65-1.36-1.27,0-1.99,1.08-1.99,2.58s.67,2.58,1.93,2.58c.88,0,1.4-.44,1.71-1.34h.62Z"/>
            <path d="M161.15,172c0-1.01,0-1.44,0-1.63h.59c0,.19.02.58.02,1.34.35-.9,1.12-1.44,2.09-1.49v.65c-1.25.08-2.09.95-2.09,2.38v3.12h-.6v-4.37h0Z"/>
            <path d="M165.07,173.44c0,1.55.79,2.51,1.94,2.51s1.51-.64,1.73-1.13h.61c-.25.79-.89,1.69-2.36,1.69-1.82,0-2.53-1.57-2.53-3.09,0-1.72.85-3.19,2.6-3.19,1.85,0,2.43,1.6,2.43,2.72,0,.17,0,.34,0,.49h-4.41ZM168.87,172.91c0-1.19-.66-2.12-1.83-2.12-1.24,0-1.8.86-1.93,2.12h3.77-.01Z"/>
            <path d="M175.65,167.53v7.11c0,.58,0,1.13,0,1.73h-.58c-.02-.14-.04-.71-.04-1.01-.3.73-.97,1.15-2.01,1.15-1.56,0-2.49-1.27-2.49-3.07s1.02-3.21,2.65-3.21c1.2,0,1.68.52,1.86.9v-3.6h.6ZM171.18,173.42c0,1.64.85,2.53,1.88,2.53,1.58,0,2.01-1.09,2.01-2.72s-.37-2.44-1.91-2.44c-1.19,0-1.99.95-1.99,2.63h.01Z"/>
            <path d="M177.62,167.53h.6v1.16h-.6v-1.16ZM177.62,170.37h.6v6h-.6v-6Z"/>
            <path d="M179.38,170.37h1.12v-1.87h.6v1.87h1.43v.56h-1.43v3.9c0,.67.14,1.06.72,1.06.18,0,.43,0,.62-.07v.53c-.2.08-.49.11-.74.11-.77,0-1.2-.38-1.2-1.34v-4.17h-1.12v-.58Z"/>
            <path d="M190.98,175.23c0,.53.05.95.08,1.14h-.58c-.05-.14-.08-.41-.11-.92-.2.44-.73,1.07-1.97,1.07-1.39,0-1.99-.9-1.99-1.8,0-1.32,1.02-1.92,2.82-1.92h1.14v-.61c0-.6-.18-1.4-1.55-1.4-1.21,0-1.39.64-1.52,1.13h-.6c.07-.66.48-1.68,2.13-1.68,1.37,0,2.13.58,2.13,1.9v3.11l.02-.02ZM190.39,173.31h-1.18c-1.33,0-2.16.35-2.16,1.38,0,.76.54,1.27,1.38,1.27,1.71,0,1.96-1.14,1.96-2.43v-.22h0Z"/>
            <path d="M193.56,175.48v3.29h-.6v-6.92c0-.49,0-1.02,0-1.48h.59c.02.23.02.59.02,1.08.37-.72,1.03-1.22,2.11-1.22,1.42,0,2.4,1.19,2.4,2.99,0,2.16-1.15,3.3-2.6,3.3-1.06,0-1.61-.47-1.91-1.03h0ZM197.43,173.24c0-1.39-.67-2.43-1.86-2.43-1.45,0-2.05.91-2.05,2.54s.47,2.6,1.97,2.6c1.25,0,1.94-1.06,1.94-2.71Z"/>
            <path d="M200.17,175.48v3.29h-.6v-6.92c0-.49,0-1.02,0-1.48h.59c.02.23.02.59.02,1.08.37-.72,1.03-1.22,2.11-1.22,1.42,0,2.4,1.19,2.4,2.99,0,2.16-1.15,3.3-2.6,3.3-1.06,0-1.61-.47-1.91-1.03h0ZM204.04,173.24c0-1.39-.67-2.43-1.86-2.43-1.45,0-2.05.91-2.05,2.54s.47,2.6,1.97,2.6c1.25,0,1.94-1.06,1.94-2.71Z"/>
            <path d="M206.18,172c0-1.01,0-1.44,0-1.63h.59c0,.19.02.58.02,1.34.35-.9,1.12-1.44,2.09-1.49v.65c-1.25.08-2.09.95-2.09,2.38v3.12h-.6v-4.37h0Z"/>
            <path d="M214.83,173.36c0,1.67-.92,3.15-2.71,3.15-1.62,0-2.63-1.33-2.63-3.14,0-1.71.95-3.14,2.69-3.14,1.59,0,2.65,1.25,2.65,3.13h0ZM210.13,173.37c0,1.43.77,2.58,2.04,2.58s2.03-1.07,2.03-2.58c0-1.42-.72-2.58-2.05-2.58s-2.02,1.14-2.02,2.58h0Z"/>
            <path d="M216.24,170.37c.97,2.75,1.64,4.62,1.87,5.38h0c.13-.44.8-2.23,1.97-5.38h.64l-2.27,6h-.72l-2.13-6h.64,0Z"/>
            <path d="M225.91,175.23c0,.53.05.95.08,1.14h-.58c-.05-.14-.08-.41-.11-.92-.2.44-.73,1.07-1.97,1.07-1.39,0-1.99-.9-1.99-1.8,0-1.32,1.02-1.92,2.82-1.92h1.14v-.61c0-.6-.18-1.4-1.55-1.4-1.21,0-1.39.64-1.52,1.13h-.6c.07-.66.48-1.68,2.13-1.68,1.37,0,2.13.58,2.13,1.9v3.11l.02-.02ZM225.32,173.31h-1.18c-1.33,0-2.16.35-2.16,1.38,0,.76.54,1.27,1.38,1.27,1.71,0,1.96-1.14,1.96-2.43v-.22h0Z"/>
            <path d="M227.89,176.37v-8.84h.6v8.84h-.6Z"/>
            <path d="M233.73,176.37v-5.43h-1.03v-.56h1.03v-.85c0-1.01.29-2.11,1.63-2.11.18,0,.44.04.59.08v.58c-.18-.05-.47-.07-.65-.07-.71,0-.97.5-.97,1.55v.83h1.31v.56h-1.31v5.43h-.6Z"/>
            <path d="M241.12,174.62c0,.59,0,1.52,0,1.75h-.58c-.02-.16-.04-.55-.04-1.04-.25.71-.86,1.19-1.93,1.19-.86,0-1.97-.34-1.97-2.17v-3.97h.59v3.83c0,.88.28,1.73,1.46,1.73,1.34,0,1.85-.76,1.85-2.47v-3.08h.6v4.25-.02Z"/>
            <path d="M243.09,171.88c0-.53,0-1.03,0-1.51h.59c.02.19.04.97.02,1.14.26-.61.76-1.28,1.99-1.28,1.07,0,2.01.6,2.01,2.25v3.89h-.6v-3.79c0-1.07-.44-1.76-1.49-1.76-1.43,0-1.92,1.19-1.92,2.49v3.06h-.6v-4.49h.01Z"/>
            <path d="M254.08,174.6c-.29,1.06-.98,1.91-2.33,1.91-1.5,0-2.57-1.12-2.57-3.12,0-1.64.88-3.17,2.64-3.17,1.52,0,2.15,1.08,2.25,1.92h-.61c-.18-.7-.64-1.36-1.65-1.36-1.27,0-1.99,1.08-1.99,2.58s.67,2.58,1.93,2.58c.88,0,1.4-.44,1.71-1.34h.62Z"/>
            <path d="M254.72,170.37h1.12v-1.87h.6v1.87h1.43v.56h-1.43v3.9c0,.67.14,1.06.72,1.06.18,0,.43,0,.62-.07v.53c-.2.08-.49.11-.74.11-.77,0-1.2-.38-1.2-1.34v-4.17h-1.12v-.58Z"/>
            <path d="M259.09,167.53h.6v1.16h-.6v-1.16ZM259.09,170.37h.6v6h-.6v-6Z"/>
            <path d="M266.51,173.36c0,1.67-.92,3.15-2.71,3.15-1.62,0-2.63-1.33-2.63-3.14,0-1.71.95-3.14,2.69-3.14,1.59,0,2.65,1.25,2.65,3.13ZM261.81,173.37c0,1.43.77,2.58,2.04,2.58s2.03-1.07,2.03-2.58c0-1.42-.72-2.58-2.05-2.58s-2.02,1.14-2.02,2.58h0Z"/>
            <path d="M268.01,171.88c0-.53,0-1.03-.01-1.51h.59c.02.19.04.97.02,1.14.26-.61.76-1.28,1.99-1.28,1.07,0,2.01.6,2.01,2.25v3.89h-.6v-3.79c0-1.07-.44-1.76-1.49-1.76-1.43,0-1.92,1.19-1.92,2.49v3.06h-.6v-4.49h.01Z"/>
            <path d="M273.85,178.41c1.09-1.4,1.92-3.14,1.92-5.39,0-2.04-.67-3.87-1.92-5.5h.68c.86,1.12,1.83,3.03,1.83,5.52s-.98,4.32-1.83,5.37h-.68Z"/>
          </g>
          <g>
            <path d="M111.87,278.25c-1.09,1.4-1.92,3.14-1.92,5.38,0,2.04.67,3.87,1.92,5.51h-.68c-.86-1.12-1.83-3.03-1.83-5.52s.98-4.32,1.83-5.37h.68Z"/>
            <path d="M113.95,278.27v3.85c.34-.62.92-1.15,1.98-1.15.85,0,2.03.43,2.03,2.33v3.81h-.6v-3.69c0-1.19-.54-1.86-1.54-1.86-1.19,0-1.87.73-1.87,2.21v3.35h-.6v-8.84h.6Z"/>
            <path d="M119.92,278.27h.6v1.16h-.6v-1.16ZM119.92,281.11h.6v6h-.6v-6Z"/>
            <path d="M122.43,285.45c.2.78.76,1.25,1.7,1.25,1.07,0,1.5-.49,1.5-1.16s-.29-1.02-1.63-1.34c-1.55-.37-1.93-.84-1.93-1.63s.62-1.6,1.98-1.6,2,.83,2.1,1.68h-.6c-.11-.5-.5-1.13-1.52-1.13s-1.34.52-1.34,1c0,.55.29.83,1.48,1.12,1.69.41,2.11.96,2.11,1.86,0,1.09-.89,1.76-2.15,1.76-1.37,0-2.13-.72-2.3-1.8h.61-.01Z"/>
            <path d="M126.82,281.11h1.12v-1.87h.6v1.87h1.43v.56h-1.43v3.9c0,.67.14,1.06.72,1.06.18,0,.43-.01.62-.07v.53c-.2.08-.49.11-.74.11-.77,0-1.2-.38-1.2-1.34v-4.17h-1.12v-.58Z"/>
            <path d="M135.98,284.09c0,1.67-.92,3.15-2.71,3.15-1.62,0-2.63-1.33-2.63-3.14,0-1.71.95-3.14,2.69-3.14,1.59,0,2.65,1.25,2.65,3.13h0ZM131.27,284.11c0,1.43.77,2.58,2.04,2.58s2.03-1.07,2.03-2.58c0-1.42-.72-2.58-2.05-2.58s-2.02,1.14-2.02,2.58h0Z"/>
            <path d="M137.47,282.74c0-1.01,0-1.44,0-1.63h.59c0,.19.02.58.02,1.34.35-.9,1.12-1.44,2.09-1.49v.65c-1.25.08-2.09.95-2.09,2.38v3.12h-.6v-4.37Z"/>
            <path d="M141.26,278.27h.6v1.16h-.6v-1.16ZM141.26,281.11h.6v6h-.6v-6Z"/>
            <path d="M148.24,285.34c-.29,1.06-.98,1.91-2.33,1.91-1.5,0-2.57-1.12-2.57-3.12,0-1.64.88-3.17,2.64-3.17,1.52,0,2.15,1.08,2.25,1.92h-.61c-.18-.7-.64-1.36-1.65-1.36-1.27,0-1.99,1.08-1.99,2.58s.67,2.58,1.93,2.58c.88,0,1.4-.44,1.71-1.34h.62Z"/>
            <path d="M153.8,285.97c0,.53.05.95.08,1.14h-.58c-.05-.14-.08-.41-.11-.92-.2.44-.73,1.07-1.97,1.07-1.39,0-1.99-.9-1.99-1.8,0-1.32,1.02-1.92,2.82-1.92h1.14v-.61c0-.6-.18-1.4-1.55-1.4-1.21,0-1.39.64-1.52,1.13h-.6c.07-.66.48-1.68,2.13-1.68,1.37,0,2.13.58,2.13,1.9v3.11l.02-.02ZM153.21,284.05h-1.18c-1.33,0-2.16.35-2.16,1.38,0,.76.54,1.27,1.38,1.27,1.71,0,1.95-1.14,1.95-2.43v-.22h0Z"/>
            <path d="M155.78,287.1v-8.84h.6v8.84h-.6Z"/>
            <path d="M161.47,282.74c0-1.01,0-1.44,0-1.63h.59c0,.19.02.58.02,1.34.35-.9,1.12-1.44,2.09-1.49v.65c-1.25.08-2.09.95-2.09,2.38v3.12h-.6v-4.37Z"/>
            <path d="M165.39,284.18c0,1.55.79,2.51,1.94,2.51s1.51-.64,1.73-1.13h.61c-.25.79-.89,1.69-2.36,1.69-1.82,0-2.53-1.57-2.53-3.09,0-1.72.85-3.19,2.6-3.19,1.85,0,2.43,1.6,2.43,2.72,0,.17,0,.34,0,.49h-4.41ZM169.19,283.65c0-1.19-.66-2.12-1.83-2.12-1.24,0-1.8.86-1.93,2.12h3.77-.01Z"/>
            <path d="M175.76,285.34c-.29,1.06-.98,1.91-2.33,1.91-1.5,0-2.57-1.12-2.57-3.12,0-1.64.88-3.17,2.64-3.17,1.52,0,2.15,1.08,2.25,1.92h-.61c-.18-.7-.64-1.36-1.65-1.36-1.27,0-1.99,1.08-1.99,2.58s.67,2.58,1.93,2.58c.88,0,1.4-.44,1.71-1.34h.62Z"/>
            <path d="M182.07,284.09c0,1.67-.92,3.15-2.71,3.15-1.62,0-2.63-1.33-2.63-3.14,0-1.71.95-3.14,2.69-3.14,1.59,0,2.65,1.25,2.65,3.13h0ZM177.37,284.11c0,1.43.77,2.58,2.04,2.58s2.03-1.07,2.03-2.58c0-1.42-.72-2.58-2.05-2.58s-2.02,1.14-2.02,2.58h0Z"/>
            <path d="M183.56,282.74c0-1.01,0-1.44,0-1.63h.59c0,.19.02.58.02,1.34.35-.9,1.12-1.44,2.09-1.49v.65c-1.25.08-2.09.95-2.09,2.38v3.12h-.6v-4.37Z"/>
            <path d="M191.98,278.27v7.11c0,.58,0,1.13,0,1.73h-.58c-.02-.14-.04-.71-.04-1.01-.3.73-.97,1.15-2.01,1.15-1.56,0-2.49-1.27-2.49-3.07s1.02-3.21,2.65-3.21c1.2,0,1.68.52,1.86.9v-3.6h.6ZM187.51,284.15c0,1.64.85,2.53,1.88,2.53,1.58,0,2.01-1.09,2.01-2.72s-.37-2.44-1.91-2.44c-1.19,0-1.99.95-1.99,2.63h.01Z"/>
            <path d="M193.89,285.45c.2.78.76,1.25,1.7,1.25,1.07,0,1.5-.49,1.5-1.16s-.29-1.02-1.63-1.34c-1.55-.37-1.93-.84-1.93-1.63s.62-1.6,1.98-1.6,2,.83,2.1,1.68h-.6c-.11-.5-.5-1.13-1.52-1.13s-1.34.52-1.34,1c0,.55.29.83,1.48,1.12,1.69.41,2.11.96,2.11,1.86,0,1.09-.89,1.76-2.15,1.76-1.37,0-2.13-.72-2.3-1.8h.61,0Z"/>
            <path d="M207.19,284.09c0,1.67-.92,3.15-2.71,3.15-1.62,0-2.63-1.33-2.63-3.14,0-1.71.95-3.14,2.69-3.14,1.59,0,2.65,1.25,2.65,3.13h0ZM202.49,284.11c0,1.43.77,2.58,2.04,2.58s2.03-1.07,2.03-2.58c0-1.42-.72-2.58-2.05-2.58s-2.02,1.14-2.02,2.58h0Z"/>
            <path d="M208.94,287.1v-5.43h-1.03v-.56h1.03v-.85c0-1.01.29-2.11,1.63-2.11.18,0,.44.04.59.08v.58c-.18-.05-.47-.07-.65-.07-.71,0-.97.5-.97,1.55v.83h1.31v.56h-1.31v5.43h-.6Z"/>
            <path d="M219.33,285.34c-.29,1.06-.98,1.91-2.33,1.91-1.5,0-2.57-1.12-2.57-3.12,0-1.64.88-3.17,2.64-3.17,1.52,0,2.15,1.08,2.25,1.92h-.61c-.18-.7-.64-1.36-1.65-1.36-1.27,0-1.99,1.08-1.99,2.58s.67,2.58,1.93,2.58c.88,0,1.4-.44,1.71-1.34h.62Z"/>
            <path d="M220.72,282.74c0-1.01,0-1.44,0-1.63h.59c0,.19.02.58.02,1.34.35-.9,1.12-1.44,2.09-1.49v.65c-1.25.08-2.09.95-2.09,2.38v3.12h-.6v-4.37Z"/>
            <path d="M224.64,284.18c0,1.55.79,2.51,1.94,2.51s1.51-.64,1.73-1.13h.61c-.25.79-.89,1.69-2.36,1.69-1.82,0-2.53-1.57-2.53-3.09,0-1.72.85-3.19,2.6-3.19,1.85,0,2.43,1.6,2.43,2.72,0,.17,0,.34,0,.49h-4.41ZM228.45,283.65c0-1.19-.66-2.12-1.83-2.12-1.24,0-1.8.86-1.93,2.12h3.77-.01Z"/>
            <path d="M235.23,278.27v7.11c0,.58,0,1.13,0,1.73h-.58c-.02-.14-.04-.71-.04-1.01-.3.73-.97,1.15-2.01,1.15-1.56,0-2.49-1.27-2.49-3.07s1.02-3.21,2.65-3.21c1.2,0,1.68.52,1.86.9v-3.6h.6ZM230.75,284.15c0,1.64.85,2.53,1.88,2.53,1.58,0,2.01-1.09,2.01-2.72s-.37-2.44-1.91-2.44c-1.19,0-1.99.95-1.99,2.63h.01Z"/>
            <path d="M237.2,278.27h.6v1.16h-.6v-1.16ZM237.2,281.11h.6v6h-.6v-6Z"/>
            <path d="M238.95,281.11h1.12v-1.87h.6v1.87h1.43v.56h-1.43v3.9c0,.67.14,1.06.72,1.06.18,0,.43-.01.62-.07v.53c-.2.08-.49.11-.74.11-.77,0-1.2-.38-1.2-1.34v-4.17h-1.12v-.58Z"/>
            <path d="M250.85,285.34c-.29,1.06-.98,1.91-2.33,1.91-1.5,0-2.57-1.12-2.57-3.12,0-1.64.88-3.17,2.64-3.17,1.52,0,2.15,1.08,2.25,1.92h-.61c-.18-.7-.64-1.36-1.65-1.36-1.27,0-1.99,1.08-1.99,2.58s.67,2.58,1.93,2.58c.88,0,1.4-.44,1.71-1.34h.62Z"/>
            <path d="M256.67,285.35c0,.59.01,1.52.01,1.75h-.58c-.02-.16-.04-.55-.04-1.04-.25.71-.86,1.19-1.93,1.19-.86,0-1.97-.34-1.97-2.17v-3.97h.59v3.83c0,.88.28,1.73,1.46,1.73,1.34,0,1.85-.76,1.85-2.47v-3.08h.6v4.25-.02Z"/>
            <path d="M258.57,285.45c.2.78.76,1.25,1.7,1.25,1.07,0,1.5-.49,1.5-1.16s-.29-1.02-1.63-1.34c-1.55-.37-1.93-.84-1.93-1.63s.62-1.6,1.98-1.6,2,.83,2.1,1.68h-.6c-.11-.5-.5-1.13-1.52-1.13s-1.34.52-1.34,1c0,.55.29.83,1.48,1.12,1.69.41,2.11.96,2.11,1.86,0,1.09-.89,1.76-2.15,1.76-1.37,0-2.13-.72-2.3-1.8h.61-.01Z"/>
            <path d="M262.96,281.11h1.12v-1.87h.6v1.87h1.43v.56h-1.43v3.9c0,.67.14,1.06.72,1.06.18,0,.43-.01.62-.07v.53c-.2.08-.49.11-.74.11-.77,0-1.2-.38-1.2-1.34v-4.17h-1.12v-.58Z"/>
            <path d="M272.11,284.09c0,1.67-.92,3.15-2.71,3.15-1.62,0-2.63-1.33-2.63-3.14,0-1.71.95-3.14,2.69-3.14,1.59,0,2.65,1.25,2.65,3.13h0ZM267.41,284.11c0,1.43.77,2.58,2.04,2.58s2.03-1.07,2.03-2.58c0-1.42-.72-2.58-2.05-2.58s-2.02,1.14-2.02,2.58h0Z"/>
            <path d="M273.6,282.65c0-.52,0-1.08-.01-1.55h.59c.01.2.04.72.02,1.07.25-.6.8-1.21,1.8-1.21.84,0,1.5.42,1.74,1.19.3-.62.9-1.19,1.96-1.19.92,0,1.88.53,1.88,2.19v3.95h-.6v-3.87c0-.8-.29-1.68-1.4-1.68s-1.69.94-1.69,2.1v3.45h-.59v-3.86c0-.88-.26-1.69-1.37-1.69s-1.73,1.03-1.73,2.25v3.3h-.6v-4.45h0Z"/>
            <path d="M283.68,284.18c.01,1.55.79,2.51,1.94,2.51s1.51-.64,1.73-1.13h.61c-.25.79-.89,1.69-2.36,1.69-1.82,0-2.53-1.57-2.53-3.09,0-1.72.85-3.19,2.6-3.19,1.85,0,2.43,1.6,2.43,2.72,0,.17,0,.34-.01.49h-4.41ZM287.49,283.65c-.01-1.19-.66-2.12-1.83-2.12-1.24,0-1.8.86-1.93,2.12h3.77-.01Z"/>
            <path d="M289.58,282.74c0-1.01-.01-1.44-.01-1.63h.59c.01.19.02.58.02,1.34.35-.9,1.12-1.44,2.09-1.49v.65c-1.25.08-2.09.95-2.09,2.38v3.12h-.6v-4.37h0Z"/>
            <path d="M293.51,285.45c.2.78.76,1.25,1.7,1.25,1.07,0,1.5-.49,1.5-1.16s-.29-1.02-1.63-1.34c-1.55-.37-1.93-.84-1.93-1.63s.62-1.6,1.98-1.6,2,.83,2.1,1.68h-.6c-.11-.5-.5-1.13-1.52-1.13s-1.34.52-1.34,1c0,.55.29.83,1.48,1.12,1.69.41,2.11.96,2.11,1.86,0,1.09-.89,1.76-2.15,1.76-1.37,0-2.13-.72-2.3-1.8h.61-.01Z"/>
            <path d="M298.35,289.14c1.09-1.4,1.92-3.14,1.92-5.39,0-2.04-.67-3.87-1.92-5.5h.68c.86,1.12,1.83,3.03,1.83,5.52s-.98,4.32-1.83,5.37h-.68Z"/>
          </g>
          <g>
            <path d="M138.61,482.45c-1.09,1.4-1.92,3.14-1.92,5.38,0,2.04.67,3.87,1.92,5.5h-.68c-.86-1.12-1.83-3.03-1.83-5.52s.98-4.32,1.83-5.37h.68Z"/>
            <path d="M140.09,489.65c.2.78.76,1.25,1.7,1.25,1.07,0,1.5-.49,1.5-1.16s-.29-1.02-1.63-1.34c-1.55-.37-1.93-.84-1.93-1.63s.62-1.6,1.98-1.6,2,.83,2.1,1.68h-.6c-.11-.5-.5-1.13-1.52-1.13s-1.34.52-1.34,1c0,.55.29.83,1.48,1.12,1.69.41,2.11.96,2.11,1.86,0,1.09-.89,1.76-2.15,1.76-1.37,0-2.13-.72-2.3-1.8h.61,0Z"/>
            <path d="M145.54,488.38c0,1.55.79,2.51,1.94,2.51s1.51-.64,1.73-1.13h.61c-.25.79-.89,1.69-2.36,1.69-1.82,0-2.53-1.57-2.53-3.09,0-1.71.85-3.19,2.6-3.19,1.85,0,2.43,1.6,2.43,2.72,0,.17,0,.34,0,.49h-4.41ZM149.35,487.85c0-1.19-.66-2.12-1.83-2.12-1.24,0-1.8.86-1.93,2.12h3.77-.01Z"/>
            <path d="M150.63,485.31h1.12v-1.87h.6v1.87h1.43v.56h-1.43v3.9c0,.67.14,1.06.72,1.06.18,0,.43-.01.62-.07v.53c-.2.08-.49.11-.74.11-.77,0-1.2-.38-1.2-1.34v-4.17h-1.12v-.58Z"/>
            <path d="M162.98,488.29c0,1.67-.92,3.15-2.71,3.15-1.62,0-2.63-1.33-2.63-3.14,0-1.71.95-3.14,2.69-3.14,1.59,0,2.65,1.25,2.65,3.13h0ZM158.28,488.31c0,1.43.77,2.58,2.04,2.58s2.03-1.07,2.03-2.58c0-1.42-.72-2.58-2.05-2.58s-2.02,1.14-2.02,2.58h0Z"/>
            <path d="M164.72,491.3v-5.43h-1.03v-.56h1.03v-.85c0-1.01.29-2.11,1.63-2.11.18,0,.44.04.59.08v.58c-.18-.05-.47-.07-.65-.07-.71,0-.97.5-.97,1.55v.83h1.31v.56h-1.31v5.43h-.6Z"/>
            <path d="M175.11,489.54c-.29,1.06-.98,1.91-2.33,1.91-1.5,0-2.57-1.12-2.57-3.12,0-1.64.88-3.17,2.64-3.17,1.52,0,2.15,1.08,2.25,1.92h-.61c-.18-.7-.64-1.36-1.65-1.36-1.27,0-1.99,1.08-1.99,2.58s.67,2.58,1.93,2.58c.88,0,1.4-.44,1.71-1.34h.62Z"/>
            <path d="M180.67,490.16c0,.53.05.95.08,1.14h-.58c-.05-.14-.08-.41-.11-.92-.2.44-.73,1.07-1.97,1.07-1.39,0-1.99-.9-1.99-1.8,0-1.32,1.02-1.92,2.82-1.92h1.14v-.61c0-.6-.18-1.4-1.55-1.4-1.21,0-1.39.64-1.52,1.13h-.6c.07-.66.48-1.68,2.13-1.68,1.37,0,2.13.58,2.13,1.9v3.11l.02-.02ZM180.08,488.25h-1.18c-1.33,0-2.16.35-2.16,1.38,0,.76.54,1.27,1.38,1.27,1.71,0,1.96-1.14,1.96-2.43v-.22h0Z"/>
            <path d="M182.65,486.82c0-.53,0-1.03,0-1.51h.59c.02.19.04.97.02,1.14.26-.61.76-1.28,1.99-1.28,1.07,0,2.01.6,2.01,2.25v3.89h-.6v-3.79c0-1.07-.44-1.76-1.49-1.76-1.43,0-1.92,1.19-1.92,2.5v3.06h-.6v-4.49h.01Z"/>
            <path d="M193.85,482.46v7.11c0,.58,0,1.13,0,1.73h-.58c-.02-.14-.04-.71-.04-1.01-.3.73-.97,1.15-2.01,1.15-1.56,0-2.49-1.27-2.49-3.07s1.02-3.21,2.65-3.21c1.2,0,1.68.52,1.86.9v-3.6h.6ZM189.38,488.35c0,1.64.85,2.53,1.88,2.53,1.58,0,2.01-1.09,2.01-2.72s-.37-2.44-1.91-2.44c-1.19,0-1.99.95-1.99,2.63h.01Z"/>
            <path d="M195.82,482.46h.6v1.16h-.6v-1.16ZM195.82,485.31h.6v6h-.6v-6Z"/>
            <path d="M203.02,482.46v7.11c0,.58,0,1.13,0,1.73h-.58c-.02-.14-.04-.71-.04-1.01-.3.73-.97,1.15-2.01,1.15-1.56,0-2.49-1.27-2.49-3.07s1.02-3.21,2.65-3.21c1.2,0,1.68.52,1.86.9v-3.6h.6ZM198.55,488.35c0,1.64.85,2.53,1.88,2.53,1.58,0,2.01-1.09,2.01-2.72s-.37-2.44-1.91-2.44c-1.19,0-1.99.95-1.99,2.63h.01Z"/>
            <path d="M209.02,490.16c0,.53.05.95.08,1.14h-.58c-.05-.14-.08-.41-.11-.92-.2.44-.73,1.07-1.97,1.07-1.39,0-1.99-.9-1.99-1.8,0-1.32,1.02-1.92,2.82-1.92h1.14v-.61c0-.6-.18-1.4-1.55-1.4-1.21,0-1.39.64-1.52,1.13h-.6c.07-.66.48-1.68,2.13-1.68,1.37,0,2.13.58,2.13,1.9v3.11l.02-.02ZM208.43,488.25h-1.18c-1.33,0-2.16.35-2.16,1.38,0,.76.54,1.27,1.38,1.27,1.71,0,1.96-1.14,1.96-2.43v-.22h0Z"/>
            <path d="M210.04,485.31h1.12v-1.87h.6v1.87h1.43v.56h-1.43v3.9c0,.67.14,1.06.72,1.06.18,0,.43-.01.62-.07v.53c-.2.08-.49.11-.74.11-.77,0-1.2-.38-1.2-1.34v-4.17h-1.12v-.58Z"/>
            <path d="M214.47,488.38c0,1.55.79,2.51,1.94,2.51s1.51-.64,1.73-1.13h.61c-.25.79-.89,1.69-2.36,1.69-1.82,0-2.53-1.57-2.53-3.09,0-1.71.85-3.19,2.6-3.19,1.85,0,2.43,1.6,2.43,2.72,0,.17,0,.34,0,.49h-4.41ZM218.27,487.85c0-1.19-.66-2.12-1.83-2.12-1.24,0-1.8.86-1.93,2.12h3.77-.01Z"/>
            <path d="M223.64,491.3v-5.43h-1.03v-.56h1.03v-.85c0-1.01.29-2.11,1.63-2.11.18,0,.44.04.59.08v.58c-.18-.05-.47-.07-.65-.07-.71,0-.97.5-.97,1.55v.83h1.31v.56h-1.31v5.43h-.6Z"/>
            <path d="M231.35,488.29c0,1.67-.92,3.15-2.71,3.15-1.62,0-2.63-1.33-2.63-3.14,0-1.71.95-3.14,2.69-3.14,1.59,0,2.65,1.25,2.65,3.13h0ZM226.65,488.31c0,1.43.77,2.58,2.04,2.58s2.03-1.07,2.03-2.58c0-1.42-.72-2.58-2.05-2.58s-2.02,1.14-2.02,2.58h0Z"/>
            <path d="M232.84,486.94c0-1.01,0-1.44,0-1.63h.59c0,.19.02.58.02,1.34.35-.9,1.12-1.44,2.09-1.49v.65c-1.25.08-2.09.95-2.09,2.38v3.12h-.6v-4.37Z"/>
            <path d="M236.6,486.85c0-.52,0-1.08,0-1.55h.59c0,.2.04.72.02,1.07.25-.6.8-1.21,1.8-1.21.84,0,1.5.42,1.74,1.19.3-.62.9-1.19,1.96-1.19.92,0,1.88.53,1.88,2.2v3.95h-.6v-3.87c0-.8-.29-1.68-1.4-1.68s-1.69.94-1.69,2.1v3.45h-.59v-3.86c0-.88-.26-1.69-1.37-1.69s-1.73,1.03-1.73,2.25v3.3h-.6v-4.45h0Z"/>
            <path d="M250.95,489.55c0,.59,0,1.52,0,1.75h-.58c-.02-.16-.04-.55-.04-1.04-.25.71-.86,1.19-1.93,1.19-.86,0-1.97-.34-1.97-2.17v-3.97h.59v3.83c0,.88.28,1.73,1.46,1.73,1.34,0,1.85-.76,1.85-2.47v-3.08h.6v4.25-.02Z"/>
            <path d="M252.92,491.3v-8.84h.6v8.84h-.6Z"/>
            <path d="M259.52,490.16c0,.53.05.95.08,1.14h-.58c-.05-.14-.08-.41-.11-.92-.2.44-.73,1.07-1.97,1.07-1.39,0-1.99-.9-1.99-1.8,0-1.32,1.02-1.92,2.82-1.92h1.14v-.61c0-.6-.18-1.4-1.55-1.4-1.21,0-1.39.64-1.52,1.13h-.6c.07-.66.48-1.68,2.13-1.68,1.37,0,2.13.58,2.13,1.9v3.11l.02-.02ZM258.93,488.25h-1.18c-1.33,0-2.16.35-2.16,1.38,0,.76.54,1.27,1.38,1.27,1.71,0,1.95-1.14,1.95-2.43v-.22h0Z"/>
            <path d="M261.44,489.65c.2.78.76,1.25,1.7,1.25,1.07,0,1.5-.49,1.5-1.16s-.29-1.02-1.63-1.34c-1.55-.37-1.93-.84-1.93-1.63s.62-1.6,1.98-1.6,2,.83,2.1,1.68h-.6c-.11-.5-.5-1.13-1.52-1.13s-1.34.52-1.34,1c0,.55.29.83,1.48,1.12,1.69.41,2.11.96,2.11,1.86,0,1.09-.89,1.76-2.15,1.76-1.37,0-2.13-.72-2.3-1.8h.61-.01Z"/>
            <path d="M266.28,493.34c1.09-1.4,1.92-3.14,1.92-5.38,0-2.04-.67-3.87-1.92-5.5h.68c.86,1.12,1.83,3.03,1.83,5.52s-.98,4.32-1.83,5.37h-.68Z"/>
          </g>
          <g>
            <path d="M370.68,388.5c-1.09,1.4-1.92,3.14-1.92,5.38,0,2.04.67,3.87,1.92,5.5h-.68c-.86-1.12-1.83-3.03-1.83-5.52s.98-4.32,1.83-5.37h.68Z"/>
            <path d="M372.67,397.35v-5.43h-1.03v-.56h1.03v-.85c0-1.01.29-2.11,1.63-2.11.18,0,.44.04.59.08v.58c-.18-.05-.47-.07-.65-.07-.71,0-.97.5-.97,1.55v.83h1.31v.56h-1.31v5.43h-.6Z"/>
            <path d="M375.68,388.51h.6v1.16h-.6v-1.16ZM375.68,391.35h.6v6h-.6v-6Z"/>
            <path d="M378.25,392.86c0-.53,0-1.03-.01-1.51h.59c.02.19.04.97.02,1.14.26-.61.76-1.28,1.99-1.28,1.07,0,2.01.6,2.01,2.25v3.89h-.6v-3.79c0-1.07-.44-1.76-1.49-1.76-1.43,0-1.92,1.19-1.92,2.5v3.06h-.6v-4.49h.01Z"/>
            <path d="M388.87,396.21c0,.53.05.95.08,1.14h-.58c-.05-.14-.08-.41-.11-.92-.2.44-.73,1.07-1.97,1.07-1.39,0-1.99-.9-1.99-1.8,0-1.32,1.02-1.92,2.82-1.92h1.14v-.61c0-.6-.18-1.4-1.55-1.4-1.21,0-1.39.64-1.52,1.13h-.6c.07-.66.48-1.68,2.13-1.68,1.37,0,2.13.58,2.13,1.9v3.11l.02-.02ZM388.28,394.29h-1.17c-1.33,0-2.16.35-2.16,1.38,0,.76.54,1.27,1.38,1.27,1.71,0,1.95-1.14,1.95-2.43v-.22Z"/>
            <path d="M390.85,397.35v-8.84h.6v8.84h-.6Z"/>
            <path d="M400.95,395.58c-.29,1.06-.98,1.91-2.33,1.91-1.5,0-2.57-1.12-2.57-3.12,0-1.64.88-3.17,2.64-3.17,1.52,0,2.15,1.08,2.25,1.92h-.61c-.18-.7-.63-1.36-1.65-1.36-1.27,0-1.99,1.08-1.99,2.58s.67,2.58,1.93,2.58c.88,0,1.4-.44,1.71-1.34h.62Z"/>
            <path d="M402.35,392.98c0-1.01-.01-1.44-.01-1.63h.59c.01.19.02.58.02,1.34.35-.9,1.12-1.44,2.09-1.49v.65c-1.25.08-2.09.95-2.09,2.38v3.12h-.6v-4.37h0Z"/>
            <path d="M406.27,394.42c.01,1.55.79,2.51,1.94,2.51s1.51-.64,1.73-1.13h.61c-.25.79-.89,1.69-2.36,1.69-1.82,0-2.53-1.57-2.53-3.09,0-1.71.85-3.19,2.6-3.19,1.85,0,2.43,1.6,2.43,2.72,0,.17,0,.34-.01.49h-4.41ZM410.07,393.89c-.01-1.19-.66-2.12-1.83-2.12-1.24,0-1.8.86-1.93,2.12h3.77-.01Z"/>
            <path d="M416.85,388.51v7.11c0,.58,0,1.13.01,1.73h-.58c-.02-.14-.04-.71-.04-1.01-.3.73-.97,1.15-2.01,1.15-1.56,0-2.5-1.27-2.5-3.07s1.02-3.21,2.65-3.21c1.2,0,1.68.52,1.86.9v-3.6h.61ZM412.38,394.4c0,1.64.85,2.53,1.88,2.53,1.58,0,2.01-1.09,2.01-2.72s-.37-2.44-1.91-2.44c-1.19,0-1.99.95-1.99,2.63h0Z"/>
            <path d="M418.82,388.51h.6v1.16h-.6v-1.16ZM418.82,391.35h.6v6h-.6v-6Z"/>
            <path d="M420.57,391.35h1.12v-1.87h.6v1.87h1.43v.56h-1.43v3.9c0,.67.14,1.06.72,1.06.18,0,.43-.01.62-.07v.53c-.2.08-.49.11-.74.11-.77,0-1.2-.38-1.2-1.34v-4.17h-1.12v-.58Z"/>
            <path d="M432.18,396.21c0,.53.05.95.08,1.14h-.58c-.05-.14-.08-.41-.11-.92-.2.44-.73,1.07-1.97,1.07-1.39,0-1.99-.9-1.99-1.8,0-1.32,1.02-1.92,2.82-1.92h1.14v-.61c0-.6-.18-1.4-1.55-1.4-1.21,0-1.39.64-1.52,1.13h-.6c.07-.66.48-1.68,2.13-1.68,1.37,0,2.13.58,2.13,1.9v3.11l.02-.02ZM431.59,394.29h-1.17c-1.33,0-2.16.35-2.16,1.38,0,.76.54,1.27,1.38,1.27,1.71,0,1.95-1.14,1.95-2.43v-.22Z"/>
            <path d="M434.76,396.46v3.29h-.6v-6.92c0-.49,0-1.02-.01-1.47h.59c.02.23.02.59.02,1.08.37-.72,1.03-1.22,2.11-1.22,1.42,0,2.4,1.19,2.4,2.99,0,2.16-1.15,3.3-2.6,3.3-1.06,0-1.61-.47-1.91-1.03v-.02ZM438.63,394.22c0-1.39-.67-2.43-1.86-2.43-1.45,0-2.05.91-2.05,2.54s.47,2.6,1.97,2.6c1.25,0,1.94-1.05,1.94-2.71h0Z"/>
            <path d="M441.37,396.46v3.29h-.6v-6.92c0-.49,0-1.02-.01-1.47h.59c.02.23.02.59.02,1.08.37-.72,1.03-1.22,2.11-1.22,1.42,0,2.4,1.19,2.4,2.99,0,2.16-1.15,3.3-2.6,3.3-1.06,0-1.61-.47-1.91-1.03v-.02ZM445.24,394.22c0-1.39-.67-2.43-1.86-2.43-1.45,0-2.05.91-2.05,2.54s.47,2.6,1.97,2.6c1.25,0,1.94-1.05,1.94-2.71h0Z"/>
            <path d="M447.38,392.98c0-1.01-.01-1.44-.01-1.63h.59c.01.19.02.58.02,1.34.35-.9,1.12-1.44,2.09-1.49v.65c-1.25.08-2.09.95-2.09,2.38v3.12h-.6v-4.37h0Z"/>
            <path d="M456.03,394.34c0,1.67-.92,3.15-2.71,3.15-1.62,0-2.63-1.33-2.63-3.14,0-1.71.95-3.14,2.69-3.14,1.59,0,2.65,1.25,2.65,3.13h0ZM451.33,394.35c0,1.43.77,2.58,2.04,2.58s2.03-1.07,2.03-2.58c0-1.42-.72-2.58-2.05-2.58s-2.01,1.14-2.01,2.58h-.01Z"/>
            <path d="M457.44,391.35c.97,2.75,1.64,4.62,1.87,5.38h.01c.13-.44.8-2.23,1.97-5.38h.64l-2.27,6h-.72l-2.13-6h.64-.01Z"/>
            <path d="M467.11,396.21c0,.53.05.95.08,1.14h-.58c-.05-.14-.08-.41-.11-.92-.2.44-.73,1.07-1.97,1.07-1.39,0-1.99-.9-1.99-1.8,0-1.32,1.02-1.92,2.82-1.92h1.14v-.61c0-.6-.18-1.4-1.55-1.4-1.21,0-1.39.64-1.52,1.13h-.6c.07-.66.48-1.68,2.13-1.68,1.37,0,2.13.58,2.13,1.9v3.11l.02-.02ZM466.52,394.29h-1.17c-1.33,0-2.16.35-2.16,1.38,0,.76.54,1.27,1.38,1.27,1.71,0,1.95-1.14,1.95-2.43v-.22Z"/>
            <path d="M469.09,397.35v-8.84h.6v8.84h-.6Z"/>
            <path d="M474.93,397.35v-5.43h-1.03v-.56h1.03v-.85c0-1.01.29-2.11,1.63-2.11.18,0,.44.04.59.08v.58c-.18-.05-.47-.07-.65-.07-.71,0-.97.5-.97,1.55v.83h1.31v.56h-1.31v5.43h-.6Z"/>
            <path d="M482.65,394.34c0,1.67-.92,3.15-2.71,3.15-1.62,0-2.63-1.33-2.63-3.14,0-1.71.95-3.14,2.69-3.14,1.59,0,2.65,1.25,2.65,3.13h0ZM477.94,394.35c0,1.43.77,2.58,2.04,2.58s2.03-1.07,2.03-2.58c0-1.42-.72-2.58-2.05-2.58s-2.02,1.14-2.02,2.58h0Z"/>
            <path d="M484.14,392.98c0-1.01-.01-1.44-.01-1.63h.59c.01.19.02.58.02,1.34.35-.9,1.12-1.44,2.09-1.49v.65c-1.25.08-2.09.95-2.09,2.38v3.12h-.6v-4.37h0Z"/>
            <path d="M487.89,392.9c0-.52,0-1.08-.01-1.55h.59c.01.2.04.72.02,1.07.25-.6.8-1.21,1.8-1.21.84,0,1.5.42,1.74,1.19.3-.62.9-1.19,1.96-1.19.92,0,1.88.53,1.88,2.2v3.95h-.6v-3.87c0-.8-.29-1.68-1.4-1.68s-1.69.94-1.69,2.1v3.45h-.59v-3.86c0-.88-.26-1.69-1.37-1.69s-1.73,1.03-1.73,2.25v3.3h-.6v-4.45h0Z"/>
            <path d="M502.24,395.6c0,.59.01,1.52.01,1.75h-.58c-.02-.16-.04-.55-.04-1.04-.25.71-.86,1.19-1.93,1.19-.86,0-1.97-.34-1.97-2.17v-3.97h.59v3.83c0,.88.28,1.73,1.46,1.73,1.34,0,1.85-.76,1.85-2.47v-3.08h.6v4.25-.02Z"/>
            <path d="M504.21,397.35v-8.84h.6v8.84h-.6Z"/>
            <path d="M510.81,396.21c0,.53.05.95.08,1.14h-.58c-.05-.14-.08-.41-.11-.92-.2.44-.73,1.07-1.97,1.07-1.39,0-1.99-.9-1.99-1.8,0-1.32,1.02-1.92,2.82-1.92h1.14v-.61c0-.6-.18-1.4-1.55-1.4-1.21,0-1.39.64-1.52,1.13h-.6c.07-.66.48-1.68,2.13-1.68,1.37,0,2.13.58,2.13,1.9v3.11l.02-.02ZM510.22,394.29h-1.18c-1.33,0-2.16.35-2.16,1.38,0,.76.54,1.27,1.38,1.27,1.71,0,1.96-1.14,1.96-2.43v-.22Z"/>
            <path d="M512.21,399.39c1.09-1.4,1.92-3.14,1.92-5.38,0-2.04-.67-3.87-1.92-5.5h.68c.86,1.12,1.83,3.03,1.83,5.52s-.98,4.32-1.83,5.37h-.68Z"/>
          </g>
          <g>
            <line class="cls-2" x1="202.44" y1="182.04" x2="202.44" y2="206.74"/>
            <polygon class="cls-1" points="199.17 204.08 199.76 203.54 202.44 206.43 205.13 203.54 205.71 204.08 202.44 207.6 199.17 204.08"/>
          </g>
          <g>
            <line class="cls-2" x1="347.41" y1="347.9" x2="372.11" y2="347.9"/>
            <polygon class="cls-1" points="369.46 351.18 368.91 350.59 371.8 347.9 368.91 345.22 369.46 344.63 372.98 347.9 369.46 351.18"/>
          </g>
          <g>
            <path class="cls-2" d="M197.95,301.42s-5.04,29.74,21.22,36.93"/>
            <polygon class="cls-1" points="215.71 340.71 215.36 340 218.89 338.24 216.88 334.85 217.57 334.44 220.01 338.58 215.71 340.71"/>
          </g>
          <g>
            <path class="cls-2" d="M195.54,409.87s-1.33-30.43,29.35-39.45"/>
            <polygon class="cls-1" points="223.33 374.34 222.64 373.94 224.61 370.52 221.06 368.81 221.41 368.09 225.73 370.18 223.33 374.34"/>
          </g>
        </g>
        <g id="_테두리">
          <rect class="cls-3" x="79.11" y="101.15" width="252" height="60.67"/>
          <rect class="cls-3" x="112.44" y="212.49" width="187" height="57.33"/>
          <rect class="cls-3" x="379.78" y="309.82" width="123.33" height="70"/>
          <rect class="cls-4" x="118.44" y="415.15" width="168" height="60"/>
          <circle class="cls-4" cx="289.53" cy="347.9" r="51.08"/>
        </g>
        <g id="_텍스트">
          <g>
            <path d="M98.44,115.76v-.43h4.26v.43l-2.02.16h-.3l-1.94-.16ZM103.57,126.04c-.74,0-1.39-.14-1.95-.42s-1-.73-1.31-1.35c-.31-.62-.47-1.43-.47-2.44v-4.1c0-.81,0-1.61-.03-2.41h1.32c0,.8-.02,1.6-.02,2.4v3.89c0,.88.11,1.59.33,2.13s.54.92.95,1.16c.41.24.9.35,1.45.35.98,0,1.71-.3,2.18-.9.48-.6.71-1.59.7-2.96v-6.07h.56l-.03,6.36c0,1.47-.31,2.56-.94,3.27-.63.72-1.54,1.07-2.74,1.07v.02ZM104.96,115.76v-.43h3.71v.43l-1.57.16h-.3l-1.84-.16Z"/>
            <path d="M117.98,125.91l-6.46-9.51h-.03l-.35-.55-1.41-.09v-.43h2.53l6.07,9-.24.09-.03-4.29v-4.79h.53v10.58h-.62.01ZM109.74,125.81v-.43l1.53-.17h.32l1.86.17v.43h-3.71ZM111.12,125.81v-10.15h.52l.04,5.56v4.59s-.56,0-.56,0ZM116.32,115.76v-.43h3.67v.43l-1.51.16h-.29s-1.87-.16-1.87-.16Z"/>
            <path d="M121.26,115.76v-.43h4.28v.43l-1.99.16h-.3l-1.99-.16ZM121.26,125.81v-.43l1.99-.17h.3l1.94.17v.43h-4.23ZM122.73,125.81c.02-.81.03-1.61.03-2.42v-5.65c0-.81,0-1.61-.03-2.41h1.3c0,.8-.02,1.6-.02,2.41v5.8c0,.71.01,1.46.02,2.27h-1.3ZM123.36,122.99l-.06-.79h.16l.26-.33,5.35-6.54h.68l-6.39,7.66ZM128.74,125.81l-3.21-5.77.79-.95,3.79,6.72s-1.37,0-1.37,0ZM127.05,115.76v-.43h3.57v.43l-1.5.16-.3.03s-1.77-.19-1.77-.19ZM127.12,125.81v-.43l1.87-.17h.26l1.79.17v.43h-3.92,0Z"/>
            <path d="M139.9,125.91l-6.46-9.51h-.03l-.35-.55-1.41-.09v-.43h2.53l6.07,9-.24.09-.03-4.29v-4.79h.53v10.58h-.62.01ZM131.67,125.81v-.43l1.53-.17h.32l1.86.17v.43h-3.71ZM133.05,125.81v-10.15h.52l.04,5.56v4.59s-.56,0-.56,0ZM138.24,115.76v-.43h3.67v.43l-1.51.16h-.29l-1.87-.16h0Z"/>
            <path d="M147.82,126.04c-.63,0-1.24-.12-1.81-.37s-1.07-.6-1.5-1.07-.77-1.04-1.02-1.72-.37-1.45-.37-2.31.12-1.62.37-2.3.59-1.25,1.02-1.73c.43-.47.93-.84,1.5-1.09s1.17-.37,1.81-.37,1.25.12,1.81.37c.57.24,1.07.6,1.5,1.07.44.47.78,1.05,1.02,1.73s.37,1.45.37,2.32-.12,1.62-.37,2.3c-.24.68-.59,1.25-1.02,1.72s-.94.83-1.5,1.08c-.57.25-1.17.37-1.81.37ZM147.82,125.55c.55,0,1.03-.13,1.45-.4.42-.26.77-.62,1.04-1.08.28-.46.49-.98.63-1.58s.22-1.24.22-1.92-.07-1.31-.22-1.91c-.14-.6-.35-1.13-.63-1.59s-.63-.82-1.04-1.08c-.42-.26-.9-.39-1.45-.39s-1.03.13-1.45.39-.77.62-1.05,1.08-.49.99-.63,1.59-.21,1.24-.21,1.91.07,1.32.21,1.92.35,1.13.63,1.58c.28.46.63.82,1.05,1.08s.9.4,1.45.4Z"/>
            <path d="M153.17,115.76v-.43h4.06v.43l-1.87.16h-.35l-1.84-.16ZM157.27,125.91l-2.98-10.58h1.31l2.48,9.27h-.26l.07-.22,2.69-9.05h.63l2.76,9.31h-.24l.04-.23,2.38-9.08h.62l-2.89,10.58h-.68l-2.78-9.21h.26l-.07.22-2.66,9h-.68ZM158.96,115.76v-.43h4.02v.43l-1.81.16h-.45l-1.76-.16h0ZM164.54,115.76v-.43h3.51v.43l-1.61.16h-.29l-1.61-.16Z"/>
            <path d="M176.99,125.91l-6.46-9.51h-.03l-.35-.55-1.41-.09v-.43h2.53l6.07,9-.24.09-.03-4.29v-4.79h.53v10.58h-.62.01ZM168.76,125.81v-.43l1.53-.17h.32l1.86.17v.43h-3.71ZM170.14,125.81v-10.15h.52l.04,5.56v4.59s-.56,0-.56,0ZM175.34,115.76v-.43h3.67v.43l-1.51.16h-.29l-1.87-.16h0Z"/>
            <path d="M183.59,118.06l.11-2.74h8.62l.13,2.74h-.62l-.52-2.74.59.5h-7.79l.6-.5-.52,2.74h-.62.02ZM185.72,125.81v-.43l2.12-.17h.36l2.13.17v.43h-4.61ZM187.34,125.81c.02-.81.03-1.61.04-2.42v-5.65c0-.81-.02-1.61-.04-2.41h1.34c0,.8-.02,1.6-.02,2.41v5.65c0,.8,0,1.61.02,2.42h-1.34Z"/>
            <path d="M191.98,125.81v-.43l1.41-.16h.24l1.57.16v.43h-3.22ZM193.02,125.81l3.51-10.57h.81l3.57,10.57h-1.3l-3.17-9.72h.29l-.06.2-3.05,9.51h-.6,0ZM194.57,122.22l.06-.46h4.38l.06.46h-4.5ZM197.82,125.81v-.43l1.93-.16h.42l1.87.16v.43h-4.22,0Z"/>
            <path d="M202.79,115.76v-.43h2.15v.59h-.16l-1.99-.16h0ZM202.79,125.81v-.43l1.99-.17h.32l2,.17v.43h-4.31ZM204.26,125.81c.02-.81.03-1.61.03-2.42v-5.65c0-.81,0-1.61-.03-2.41h1.34c-.02.8-.03,1.61-.04,2.45s0,1.76,0,2.76v2.83c0,.82.02,1.63.04,2.44h-1.34ZM210.86,125.94c-.48,0-.83-.07-1.06-.22s-.38-.39-.45-.73l-.72-2.46c-.11-.4-.23-.72-.37-.96-.14-.23-.34-.41-.59-.51-.25-.11-.59-.16-1.02-.16h-1.7v-.46h2.09c.54,0,1-.11,1.37-.32.38-.21.67-.5.87-.86s.3-.77.3-1.21c0-.7-.21-1.25-.63-1.65s-1.07-.6-1.94-.6h-2.07v-.48h2.26c1.15,0,2.04.23,2.67.7.63.47.94,1.14.94,2.01,0,.47-.12.9-.37,1.3-.24.4-.61.73-1.09.99-.48.26-1.09.41-1.82.46v-.14c.52.04.93.13,1.23.28s.54.36.71.63c.17.27.31.62.44,1.04l.89,2.95-.59-.3,1.9.13v.43c-.16.04-.34.07-.54.09s-.43.04-.7.04h0Z"/>
            <path d="M218.12,126.04c-1.05,0-1.96-.23-2.76-.69-.79-.46-1.41-1.1-1.85-1.92s-.66-1.78-.66-2.87.23-2.05.68-2.86c.45-.82,1.08-1.45,1.88-1.91.8-.46,1.72-.69,2.77-.69.64,0,1.21.07,1.7.22.49.14.96.35,1.4.62l.04,2.3h-.66l-.49-2.49.75.29v.53c-.42-.34-.83-.58-1.22-.73s-.85-.22-1.37-.22c-.8,0-1.5.19-2.12.58-.61.39-1.1.96-1.45,1.7s-.53,1.64-.53,2.68.17,1.91.51,2.65.81,1.31,1.42,1.71c.6.4,1.31.6,2.12.6.45,0,.87-.05,1.27-.16.39-.11.8-.27,1.21-.49l-.49.4v-.94c0-.6,0-1.2,0-1.78s-.02-1.18-.04-1.79h1.31c0,.55-.02,1.11-.03,1.69,0,.58,0,1.21,0,1.89v.75c-.56.33-1.09.56-1.61.71-.52.14-1.09.22-1.73.22h-.03ZM218.51,121.22v-.43h4.03v.43l-1.57.17h-.45l-2.02-.17h.01Z"/>
            <path d="M223.4,115.76v-.43h2.15v.59h-.16l-1.99-.16h0ZM223.4,125.81v-.43l1.99-.17h.16v.6h-2.15ZM224.87,125.81c.02-.81.03-1.61.03-2.42v-5.65c0-.81,0-1.61-.03-2.41h1.34c0,.8-.02,1.6-.02,2.43v5.6c0,.83,0,1.65.02,2.45,0,0-1.34,0-1.34,0ZM230.53,117.92l-.48-2.49.63.4h-5.14v-.5h5.5l.1,2.59h-.62,0ZM225.55,120.73v-.47h3.47v.47h-3.47ZM225.55,125.81v-.49h5.4l-.65.36.49-2.5h.6l-.09,2.63h-5.76,0ZM228.92,122.21l-.2-1.6v-.3l.2-1.57h.5v3.47h-.5Z"/>
            <path d="M232.34,118.06l.11-2.74h8.62l.13,2.74h-.62l-.52-2.74.59.5h-7.79l.6-.5-.52,2.74h-.62.02ZM234.47,125.81v-.43l2.12-.17h.36l2.13.17v.43h-4.61ZM236.1,125.81c.02-.81.03-1.61.04-2.42v-5.65c0-.81-.02-1.61-.04-2.41h1.34c0,.8-.02,1.6-.02,2.41v5.65c0,.8,0,1.61.02,2.42h-1.34Z"/>
            <path d="M245.96,115.76v-.43h2.15v.59h-.16l-1.99-.16h0ZM245.96,125.81v-.43l1.99-.17h.39l2.06.17v.43h-4.44ZM247.43,125.81c.02-.81.03-1.61.03-2.42v-5.65c0-.81,0-1.61-.03-2.41h1.34c0,.8-.02,1.6-.02,2.43v5.6c0,.83,0,1.65.02,2.45,0,0-1.34,0-1.34,0ZM253.13,117.92l-.49-2.5.66.42h-5.2v-.5h5.54l.09,2.59h-.6,0ZM248.1,120.73v-.47h3.51v.47h-3.51ZM251.5,122.27l-.2-1.6v-.37l.2-1.55h.5v3.53h-.5Z"/>
            <path d="M254.88,115.76v-.43h4.26v.43l-2.02.16h-.3l-1.94-.16h0ZM260.01,126.04c-.74,0-1.39-.14-1.95-.42s-1-.73-1.31-1.35c-.31-.62-.47-1.43-.47-2.44v-4.1c0-.81,0-1.61-.03-2.41h1.32c0,.8-.02,1.6-.02,2.4v3.89c0,.88.11,1.59.33,2.13s.54.92.95,1.16c.41.24.9.35,1.45.35.98,0,1.71-.3,2.18-.9.48-.6.71-1.59.7-2.96v-6.07h.56l-.03,6.36c0,1.47-.31,2.56-.94,3.27-.63.72-1.54,1.07-2.74,1.07v.02ZM261.4,115.76v-.43h3.71v.43l-1.57.16h-.3l-1.84-.16Z"/>
            <path d="M274.42,125.91l-6.46-9.51h-.03l-.35-.55-1.41-.09v-.43h2.53l6.07,9-.24.09-.03-4.29v-4.79h.53v10.58h-.62,0ZM266.18,125.81v-.43l1.53-.17h.32l1.86.17v.43h-3.71ZM267.57,125.81v-10.15h.52l.04,5.56v4.59s-.56,0-.56,0ZM272.76,115.76v-.43h3.67v.43l-1.51.16h-.29l-1.87-.16Z"/>
            <path d="M277.32,118.06l.11-2.74h8.62l.13,2.74h-.62l-.52-2.74.59.5h-7.79l.6-.5-.52,2.74h-.62.02ZM279.46,125.81v-.43l2.12-.17h.36l2.13.17v.43h-4.61ZM281.08,125.81c.02-.81.03-1.61.04-2.42v-5.65c0-.81-.02-1.61-.04-2.41h1.34c0,.8-.02,1.6-.02,2.41v5.65c0,.8.01,1.61.02,2.42h-1.34Z"/>
            <path d="M287.26,115.76v-.43h4.3v.43l-2.02.16h-.3l-1.99-.16h0ZM287.26,125.81v-.43l1.99-.17h.3l2.02.17v.43h-4.31ZM288.72,125.81c.02-.81.03-1.61.04-2.42s0-1.62,0-2.43v-3.22c0-.81-.02-1.61-.04-2.41h1.35c-.02.8-.03,1.6-.04,2.41v5.65c0,.8.02,1.61.04,2.42h-1.35Z"/>
            <path d="M297.58,126.04c-.63,0-1.24-.12-1.81-.37s-1.07-.6-1.5-1.07-.77-1.04-1.02-1.72-.37-1.45-.37-2.31.12-1.62.37-2.3.59-1.25,1.02-1.73c.43-.47.93-.84,1.5-1.09s1.17-.37,1.81-.37,1.25.12,1.81.37c.57.24,1.07.6,1.5,1.07.44.47.78,1.05,1.02,1.73s.37,1.45.37,2.32-.12,1.62-.37,2.3-.59,1.25-1.02,1.72-.94.83-1.5,1.08c-.57.25-1.17.37-1.81.37ZM297.58,125.55c.55,0,1.03-.13,1.45-.4.42-.26.77-.62,1.04-1.08.28-.46.49-.98.63-1.58s.22-1.24.22-1.92-.07-1.31-.22-1.91c-.14-.6-.35-1.13-.63-1.59s-.63-.82-1.04-1.08c-.42-.26-.9-.39-1.45-.39s-1.03.13-1.45.39-.77.62-1.05,1.08-.49.99-.63,1.59-.21,1.24-.21,1.91.07,1.32.21,1.92.35,1.13.63,1.58c.28.46.63.82,1.05,1.08.42.26.9.4,1.45.4Z"/>
            <path d="M311.83,125.91l-6.46-9.51h-.03l-.35-.55-1.41-.09v-.43h2.53l6.07,9-.24.09-.03-4.29v-4.79h.53v10.58h-.62,0ZM303.59,125.81v-.43l1.53-.17h.32l1.86.17v.43h-3.71ZM304.98,125.81v-10.15h.52l.04,5.56v4.59s-.56,0-.56,0ZM310.17,115.76v-.43h3.67v.43l-1.51.16h-.29l-1.87-.16Z"/>
          </g>
          <g>
            <path d="M124.38,229.52l.12-2.77h8.73l.13,2.77h-.63l-.52-2.77.6.51h-7.89l.61-.51-.52,2.77h-.63ZM126.54,237.37v-.44l2.14-.17h.36l2.16.17v.44h-4.67,0ZM128.19,237.37c.02-.82.03-1.63.04-2.45s0-1.64,0-2.46v-3.26c0-.82-.02-1.64-.04-2.44h1.36c0,.81-.02,1.62-.02,2.44v5.72c0,.82,0,1.63.02,2.45h-1.36Z"/>
            <path d="M134.44,227.19v-.44h2.17v.6h-.16l-2.01-.16ZM134.44,237.37v-.44l2.01-.17h.32l2.03.17v.44h-4.36ZM135.93,237.37c.02-.82.03-1.63.03-2.45v-5.72c0-.82,0-1.64-.03-2.44h1.36c-.02.81-.03,1.63-.04,2.48v5.66c0,.83.02,1.65.04,2.47h-1.36ZM142.62,237.5c-.49,0-.84-.08-1.07-.23s-.38-.4-.46-.74l-.73-2.49c-.11-.41-.23-.73-.38-.97-.15-.24-.34-.41-.6-.52s-.6-.16-1.04-.16h-1.72v-.47h2.11c.54,0,1.01-.11,1.39-.32s.68-.51.88-.87.31-.78.31-1.22c0-.71-.21-1.27-.64-1.67s-1.08-.6-1.97-.6h-2.1v-.48h2.29c1.17,0,2.07.24,2.7.71.64.47.95,1.15.95,2.03,0,.48-.12.92-.37,1.32-.25.4-.62.74-1.11,1s-1.11.42-1.84.47v-.15c.52.04.94.13,1.25.28s.54.36.71.64c.17.28.32.63.44,1.06l.9,2.99-.6-.31,1.92.13v.44c-.17.04-.35.07-.55.09-.2.02-.44.04-.71.04h.04Z"/>
            <path d="M144.41,237.37v-.44l1.43-.16h.25l1.59.16v.44h-3.27,0ZM145.46,237.37l3.56-10.7h.82l3.62,10.7h-1.31l-3.21-9.84h.29l-.06.2-3.09,9.64h-.62ZM147.04,233.74l.06-.47h4.43l.06.47h-4.55,0ZM150.33,237.37v-.44l1.95-.16h.42l1.9.16v.44h-4.27,0Z"/>
            <path d="M163.66,237.47l-6.55-9.64h-.03l-.35-.55-1.43-.09v-.44h2.57l6.15,9.11-.25.09-.03-4.34v-4.85h.54v10.72h-.63.01ZM155.32,237.37v-.44l1.55-.17h.32l1.88.17v.44h-3.75ZM156.72,237.37v-10.28h.52l.04,5.63v4.65h-.57.01ZM161.98,227.19v-.44h3.72v.44l-1.53.16h-.29l-1.9-.16h0Z"/>
            <path d="M166.98,227.19v-.44h4.36v.44l-2.04.16h-.31l-2.01-.16h0ZM166.98,237.37v-.44l2.01-.17h.31l2.04.17v.44h-4.36,0ZM168.47,237.37c.02-.82.03-1.63.04-2.45v-5.72c0-.82-.02-1.64-.04-2.44h1.37c-.02.81-.03,1.62-.04,2.44s0,1.65,0,2.47v3.25c0,.81.02,1.63.04,2.45h-1.37Z"/>
            <path d="M181.09,237.47l-6.55-9.64h-.03l-.35-.55-1.43-.09v-.44h2.57l6.15,9.11-.25.09-.03-4.34v-4.85h.54v10.72h-.63.01ZM172.75,237.37v-.44l1.55-.17h.32l1.88.17v.44h-3.75ZM174.15,237.37v-10.28h.52l.04,5.63v4.65h-.57.01ZM179.42,227.19v-.44h3.72v.44l-1.53.16h-.29l-1.9-.16h0Z"/>
            <path d="M189.68,237.6c-1.06,0-1.99-.23-2.79-.7-.8-.47-1.43-1.12-1.87-1.95-.45-.83-.67-1.8-.67-2.91s.23-2.08.69-2.9c.46-.83,1.09-1.47,1.9-1.94s1.75-.7,2.81-.7c.65,0,1.22.07,1.72.22s.97.35,1.41.63l.04,2.33h-.67l-.5-2.52.76.29v.54c-.43-.34-.84-.59-1.24-.74s-.86-.23-1.38-.23c-.81,0-1.52.2-2.14.59s-1.11.97-1.47,1.72-.54,1.66-.54,2.72.17,1.93.52,2.68.82,1.33,1.44,1.73,1.33.61,2.14.61c.46,0,.88-.05,1.28-.16s.81-.27,1.22-.5l-.5.41v-.95c0-.61,0-1.21,0-1.81s-.02-1.2-.04-1.81h1.33c0,.55-.02,1.12-.03,1.71,0,.59,0,1.23,0,1.92v.76c-.56.33-1.11.57-1.63.71-.52.15-1.11.22-1.75.22l-.02.03ZM190.07,232.72v-.44h4.08v.44l-1.59.18h-.45l-2.04-.18h0Z"/>
            <path d="M198.84,227.19v-.44h2.17v.6h-.16l-2.01-.16ZM198.84,237.37v-.44l2.01-.17h.16v.61h-2.17ZM200.32,237.37c.02-.82.03-1.63.03-2.45v-5.72c0-.82,0-1.64-.03-2.44h1.36c0,.81-.02,1.63-.02,2.46v5.67c0,.84,0,1.67.02,2.49h-1.36ZM206.05,229.38l-.48-2.52.64.41h-5.2v-.51h5.57l.1,2.62h-.63ZM201.01,232.22v-.48h3.51v.48h-3.51ZM201.01,237.37v-.5h5.47l-.66.36.5-2.54h.61l-.09,2.67h-5.83ZM204.42,233.72l-.2-1.62v-.31l.2-1.59h.51v3.51h-.51Z"/>
            <path d="M207.79,237.37v-.44l1.56-.17h.29l1.69.17v.44h-3.54ZM207.95,227.19v-.44h4.2v.44l-1.97.16h-.41l-1.82-.16h0ZM208.76,237.37l3.59-5.57.38.32h-.07l-.15.26-3.08,4.99h-.67ZM215.16,237.37l-6.3-10.61h1.4l6.3,10.61h-1.4ZM212.98,231.89l-.36-.31h.07l.13-.22,2.77-4.61h.66l-3.27,5.13h0ZM213.3,237.37v-.44l2.01-.17h.38l1.84.17v.44h-4.23ZM213.73,227.19v-.44h3.54v.44l-1.6.16h-.28l-1.66-.16h0Z"/>
            <path d="M217.93,237.37v-.44l1.43-.16h.25l1.59.16v.44h-3.27,0ZM218.98,237.37l3.56-10.7h.82l3.62,10.7h-1.31l-3.21-9.84h.29l-.06.2-3.09,9.64h-.62ZM220.56,233.74l.06-.47h4.43l.06.47h-4.55,0ZM223.85,237.37v-.44l1.95-.16h.42l1.9.16v.44h-4.27,0Z"/>
            <path d="M228.79,237.37v-.44l1.62-.17h.28l1.68.17v.44h-3.58ZM228.81,227.19v-.44h2.01v.6h-.13l-1.88-.16h0ZM230.25,237.37l.03-10.61h.45l.09,4.97v5.64h-.57,0ZM234.63,237.37l-4.14-10.13h-.07v-.48h1.18l3.78,9.29h-.32l.09-.17,3.65-9.11h.57v.48h-.19l-.16.36-3.89,9.77h-.5ZM237.34,237.37v-.44l2-.17h.29l2.04.17v.44h-4.33,0ZM238.81,237.37c.02-.82.03-1.63.03-2.43v-2.31l.06-5.88h1.25c0,.81-.02,1.62-.02,2.44v5.72c0,.82,0,1.63.02,2.45h-1.34ZM239.48,227.35v-.6h2.16v.44l-2.01.16h-.15Z"/>
            <path d="M243.18,227.19v-.44h2.17v.6h-.16l-2.01-.16ZM243.18,237.37v-.44l2.01-.17h.39l2.08.17v.44h-4.49.01ZM244.67,237.37c.02-.82.03-1.63.03-2.45v-5.72c0-.82,0-1.64-.03-2.44h1.36c0,.81-.02,1.62-.02,2.44v5.76c0,.79,0,1.6.02,2.41h-1.36ZM245.36,233.02v-.48h1.49c.74,0,1.34-.11,1.8-.34s.8-.55,1.01-.95.31-.88.31-1.41c0-.85-.22-1.49-.67-1.93-.45-.44-1.14-.66-2.08-.66h-1.85v-.48h1.95c1.33,0,2.32.28,2.95.83.64.55.96,1.31.96,2.26,0,.59-.15,1.13-.44,1.61-.3.48-.77.86-1.41,1.14s-1.47.42-2.49.42h-1.53Z"/>
            <path d="M252.38,227.19v-.44h4.39v.44l-2.04.16h-.34l-2.01-.16h0ZM252.38,237.37v-.44l2.01-.17h.16v.61h-2.17ZM253.87,237.37c.02-.82.03-1.63.03-2.43v-5.74c0-.82,0-1.64-.03-2.44h1.36c0,.81-.02,1.63-.02,2.46v5.74c0,.8.01,1.6.02,2.42h-1.36ZM254.56,237.37v-.5h5.1l-.61.35.51-2.7h.64l-.1,2.84h-5.54Z"/>
            <path d="M261.33,227.19v-.44h2.17v.6h-.16l-2.01-.16ZM261.33,237.37v-.44l2.01-.17h.16v.61h-2.17ZM262.82,237.37c.02-.82.03-1.63.03-2.45v-5.72c0-.82,0-1.64-.03-2.44h1.36c0,.81-.02,1.63-.02,2.46v5.67c0,.84.01,1.67.02,2.49h-1.36ZM268.55,229.38l-.48-2.52.64.41h-5.2v-.51h5.57l.1,2.62h-.63ZM263.51,232.22v-.48h3.51v.48h-3.51ZM263.51,237.37v-.5h5.47l-.66.36.5-2.54h.61l-.09,2.67h-5.83ZM266.92,233.72l-.2-1.62v-.31l.2-1.59h.51v3.51h-.51Z"/>
            <path d="M273.92,237.6c-.6,0-1.18-.08-1.72-.25s-1-.36-1.36-.6l.09-2.17h.6l.45,2.39-.66-.31-.09-.48c.48.35.9.59,1.27.71s.81.18,1.33.18c.79,0,1.42-.18,1.91-.53s.73-.88.73-1.58c0-.36-.07-.67-.2-.93s-.35-.5-.65-.71c-.3-.22-.72-.43-1.25-.65l-.63-.25c-.87-.37-1.52-.8-1.97-1.29-.45-.49-.67-1.11-.67-1.84,0-.61.15-1.12.46-1.54s.71-.72,1.22-.93,1.08-.31,1.71-.31c.55,0,1.04.07,1.46.21.42.14.81.34,1.17.59l-.06,2.07h-.63l-.45-2.3.69.32.04.47c-.38-.3-.73-.51-1.04-.63s-.68-.18-1.1-.18c-.68,0-1.24.16-1.68.49s-.66.8-.66,1.44c0,.55.16,1,.49,1.33s.77.62,1.35.86l.66.26c.74.31,1.32.62,1.74.93.42.31.72.64.9,1.01.17.36.26.79.26,1.29,0,.6-.15,1.13-.46,1.57-.31.45-.74.79-1.29,1.03-.55.24-1.21.36-1.95.36v-.03Z"/>
          </g>
          <g>
            <path d="M144.99,433.68v-.42h4.14v.42l-1.95.15h-.28l-1.91-.15ZM144.99,443.41v-.42l1.91-.17h.28l1.95.17v.42h-4.14ZM146.42,443.41c.02-.78.03-1.56.03-2.34v-5.47c0-.79,0-1.56-.03-2.34h1.3c0,.77-.02,1.55-.02,2.34v5.41c0,.82,0,1.62.02,2.4h-1.3ZM147.07,438.38v-.46h6.29v.46h-6.29ZM151.28,433.68v-.42h4.14v.42l-1.91.15h-.29l-1.94-.15ZM151.28,443.41v-.42l1.94-.17h.29l1.91.17v.42h-4.14ZM152.69,443.41c.02-.78.03-1.58.04-2.39v-5.42c0-.79-.02-1.56-.04-2.34h1.31c-.02.77-.03,1.55-.04,2.34s0,1.57,0,2.36v3.11c0,.78.02,1.56.04,2.34h-1.31Z"/>
            <path d="M156.46,433.68v-.42h3.93v.42l-1.87.15h-.35l-1.72-.15h.01ZM160.5,439.83l-3.28-6.57h1.37l2.83,5.88h-.36l.08-.2,2.72-5.69h.6l-3.25,6.57h-.71ZM158.64,443.41v-.42l2.05-.17h.36l2.08.17v.42h-4.49ZM160.23,443.41c0-.35.02-.68.02-.97s0-.6,0-.92v-2.61h1.21v2.6c0,.32,0,.62,0,.92,0,.3,0,.62.02.98h-1.3.03ZM162.1,433.68v-.42h3.33v.42l-1.39.15h-.28l-1.66-.15Z"/>
            <path d="M166.33,433.68v-.42h2.08v.57h-.15l-1.92-.15h-.01ZM166.33,443.41v-.42l1.92-.17h.38l1.99.17v.42h-4.29ZM167.75,443.41c.02-.78.03-1.56.03-2.34v-5.47c0-.79,0-1.56-.03-2.34h1.3c0,.77-.02,1.55-.02,2.34v5.51c0,.76,0,1.53.02,2.31h-1.3ZM168.41,439.26v-.46h1.42c.71,0,1.28-.11,1.72-.33s.76-.52.96-.91c.2-.39.3-.84.3-1.35,0-.81-.21-1.42-.64-1.85s-1.09-.63-1.99-.63h-1.77v-.46h1.87c1.27,0,2.21.26,2.82.79s.91,1.25.91,2.16c0,.57-.14,1.08-.43,1.54-.28.46-.73.83-1.35,1.09-.61.27-1.41.4-2.38.4h-1.45,0Z"/>
            <path d="M179.88,443.64c-.61,0-1.2-.12-1.75-.36s-1.04-.58-1.46-1.04c-.42-.46-.75-1.01-.99-1.67s-.36-1.4-.36-2.24.12-1.57.36-2.22c.24-.66.57-1.21.99-1.67.42-.46.9-.81,1.46-1.05.55-.24,1.14-.36,1.75-.36s1.21.12,1.76.36c.55.24,1.03.58,1.46,1.04.42.46.75,1.01.99,1.67s.36,1.41.36,2.25-.12,1.57-.36,2.22c-.24.66-.57,1.21-.99,1.67-.42.46-.91.8-1.46,1.05-.55.24-1.13.36-1.76.36h0ZM179.88,443.16c.53,0,1-.13,1.4-.38s.74-.6,1.01-1.05c.27-.44.47-.95.61-1.53s.21-1.2.21-1.86-.07-1.27-.21-1.85c-.14-.58-.34-1.09-.61-1.54s-.61-.79-1.01-1.05c-.4-.25-.87-.38-1.4-.38s-1,.13-1.4.38-.74.6-1.02,1.05c-.27.45-.48.96-.61,1.54s-.2,1.2-.2,1.85.07,1.28.2,1.86.34,1.09.61,1.53.61.79,1.02,1.05c.4.26.87.38,1.4.38Z"/>
            <path d="M185.44,435.91l.11-2.65h8.35l.13,2.65h-.6l-.5-2.65.57.49h-7.54l.59-.49-.5,2.65h-.61ZM187.51,443.41v-.42l2.05-.17h.35l2.06.17v.42h-4.46ZM189.08,443.41c.02-.78.03-1.56.03-2.34v-5.47c0-.79-.02-1.56-.03-2.34h1.3c0,.77-.02,1.55-.02,2.34v5.47c0,.78,0,1.56.02,2.34h-1.3Z"/>
            <path d="M195.07,433.68v-.42h4.14v.42l-1.95.15h-.28l-1.91-.15ZM195.07,443.41v-.42l1.91-.17h.28l1.95.17v.42h-4.14ZM196.49,443.41c.02-.78.03-1.56.03-2.34v-5.47c0-.79,0-1.56-.03-2.34h1.3c0,.77-.02,1.55-.02,2.34v5.41c0,.82,0,1.62.02,2.4h-1.3ZM197.14,438.38v-.46h6.29v.46h-6.29ZM201.36,433.68v-.42h4.14v.42l-1.91.15h-.29l-1.94-.15ZM201.36,443.41v-.42l1.94-.17h.29l1.91.17v.42h-4.14ZM202.76,443.41c.02-.78.03-1.58.04-2.39v-5.42c0-.79-.02-1.56-.04-2.34h1.31c-.02.77-.03,1.55-.04,2.34s0,1.57,0,2.36v3.11c0,.78.02,1.56.04,2.34h-1.31Z"/>
            <path d="M206.96,433.68v-.42h2.08v.57h-.15l-1.92-.15h-.01ZM206.96,443.41v-.42l1.92-.17h.15v.59h-2.08.01ZM208.38,443.41c.02-.78.03-1.56.03-2.34v-5.47c0-.79,0-1.56-.03-2.34h1.3c0,.77-.02,1.55-.02,2.35v5.42c0,.8,0,1.6.02,2.38h-1.3ZM213.86,435.77l-.46-2.41.61.39h-4.98v-.49h5.33l.1,2.51h-.6ZM209.04,438.49v-.46h3.36v.46h-3.36ZM209.04,443.41v-.47h5.23l-.63.35.47-2.43h.59l-.08,2.55h-5.58,0ZM212.3,439.93l-.2-1.55v-.29l.2-1.52h.49v3.36h-.49Z"/>
            <path d="M218.99,443.64c-.58,0-1.12-.08-1.65-.24-.52-.16-.95-.35-1.3-.57l.08-2.08h.57l.43,2.29-.63-.29-.08-.46c.46.33.86.56,1.21.68s.78.17,1.27.17c.75,0,1.36-.17,1.83-.51.46-.34.7-.84.7-1.51,0-.34-.06-.64-.19-.89s-.33-.47-.62-.68-.69-.42-1.2-.62l-.6-.24c-.83-.35-1.45-.76-1.88-1.23s-.64-1.06-.64-1.76c0-.59.15-1.08.44-1.47.29-.39.68-.69,1.17-.89s1.03-.3,1.64-.3c.53,0,.99.07,1.39.2.4.14.77.32,1.12.57l-.06,1.98h-.6l-.43-2.2.66.31.04.45c-.36-.29-.69-.49-1-.61s-.65-.17-1.05-.17c-.65,0-1.19.16-1.61.47s-.63.77-.63,1.37c0,.53.16.95.47,1.27s.74.59,1.29.82l.63.25c.71.3,1.26.59,1.67.89.4.29.69.61.86.96s.25.76.25,1.23c0,.58-.15,1.08-.44,1.51s-.7.75-1.23.98-1.15.34-1.87.34v-.02Z"/>
            <path d="M223.93,433.68v-.42h4.17v.42l-1.95.15h-.29l-1.92-.15h-.01ZM223.93,443.41v-.42l1.92-.17h.29l1.95.17v.42h-4.17.01ZM225.35,443.41c.02-.78.03-1.56.04-2.34v-5.47c0-.79-.02-1.56-.04-2.34h1.31c-.02.77-.03,1.55-.04,2.34v5.47c0,.78.02,1.56.04,2.34h-1.31Z"/>
            <path d="M232.52,443.64c-.58,0-1.12-.08-1.65-.24-.52-.16-.95-.35-1.3-.57l.08-2.08h.57l.43,2.29-.63-.29-.08-.46c.46.33.86.56,1.21.68s.78.17,1.27.17c.75,0,1.36-.17,1.83-.51.46-.34.7-.84.7-1.51,0-.34-.06-.64-.19-.89s-.33-.47-.62-.68-.69-.42-1.2-.62l-.6-.24c-.83-.35-1.45-.76-1.88-1.23s-.64-1.06-.64-1.76c0-.59.15-1.08.44-1.47.29-.39.68-.69,1.17-.89s1.03-.3,1.64-.3c.53,0,.99.07,1.39.2.4.14.77.32,1.12.57l-.06,1.98h-.6l-.43-2.2.66.31.04.45c-.36-.29-.69-.49-1-.61s-.65-.17-1.05-.17c-.65,0-1.19.16-1.61.47s-.63.77-.63,1.37c0,.53.16.95.47,1.27s.74.59,1.29.82l.63.25c.71.3,1.26.59,1.67.89.4.29.69.61.86.96s.25.76.25,1.23c0,.58-.15,1.08-.44,1.51s-.7.75-1.23.98-1.15.34-1.87.34v-.02Z"/>
            <path d="M244,443.64c-.58,0-1.12-.08-1.65-.24-.52-.16-.95-.35-1.3-.57l.08-2.08h.57l.43,2.29-.63-.29-.08-.46c.46.33.86.56,1.21.68s.78.17,1.27.17c.75,0,1.36-.17,1.83-.51.46-.34.7-.84.7-1.51,0-.34-.06-.64-.19-.89s-.33-.47-.62-.68-.69-.42-1.2-.62l-.6-.24c-.83-.35-1.45-.76-1.88-1.23s-.64-1.06-.64-1.76c0-.59.15-1.08.44-1.47.29-.39.68-.69,1.17-.89s1.03-.3,1.64-.3c.53,0,.99.07,1.39.2.4.14.77.32,1.12.57l-.06,1.98h-.6l-.43-2.2.66.31.04.45c-.36-.29-.69-.49-1-.61s-.65-.17-1.05-.17c-.65,0-1.19.16-1.61.47s-.63.77-.63,1.37c0,.53.16.95.47,1.27s.74.59,1.29.82l.63.25c.71.3,1.26.59,1.67.89.4.29.69.61.86.96s.25.76.25,1.23c0,.58-.15,1.08-.44,1.51s-.7.75-1.23.98-1.15.34-1.87.34v-.02Z"/>
            <path d="M248.93,433.68v-.42h2.08v.57h-.15l-1.92-.15h-.01ZM248.93,443.41v-.42l1.92-.17h.15v.59h-2.08.01ZM250.35,443.41c.02-.78.03-1.56.03-2.34v-5.47c0-.79,0-1.56-.03-2.34h1.3c0,.77-.02,1.55-.02,2.35v5.42c0,.8,0,1.6.02,2.38h-1.3ZM255.83,435.77l-.46-2.41.61.39h-4.98v-.49h5.33l.1,2.51h-.6ZM251.01,438.49v-.46h3.36v.46h-3.36ZM251.01,443.41v-.47h5.23l-.63.35.47-2.43h.59l-.08,2.55h-5.58ZM254.27,439.93l-.2-1.55v-.29l.2-1.52h.49v3.36h-.49Z"/>
            <path d="M257.59,435.91l.11-2.65h8.35l.13,2.65h-.6l-.5-2.65.57.49h-7.54l.59-.49-.5,2.65h-.61ZM259.65,443.41v-.42l2.05-.17h.35l2.06.17v.42h-4.46ZM261.23,443.41c.02-.78.03-1.56.03-2.34v-5.47c0-.79-.02-1.56-.03-2.34h1.3c0,.77-.02,1.55-.02,2.34v5.47c0,.78.01,1.56.02,2.34h-1.3Z"/>
          </g>
          <g>
            <path d="M419.9,321.71v-.43h2.16v.59h-.16l-2-.16ZM419.9,331.82v-.43l2-.17h.39l2.07.17v.43h-4.46ZM421.38,331.82c.02-.81.03-1.62.03-2.43v-5.68c0-.82,0-1.62-.03-2.43h1.35c0,.8-.02,1.62-.02,2.44v5.64c0,.84.01,1.66.02,2.47h-1.35ZM427.11,323.88l-.49-2.52.67.42h-5.23v-.51h5.58l.09,2.61h-.62ZM422.06,326.7v-.48h3.53v.48h-3.53ZM425.48,328.25l-.2-1.61v-.38l.2-1.56h.51v3.55h-.51Z"/>
            <path d="M428.88,321.71v-.43h4.33v.43l-2.03.16h-.3l-2-.16ZM428.88,331.82v-.43l2-.17h.3l2.03.17v.43h-4.33ZM430.36,331.82c.02-.81.03-1.62.04-2.43v-5.69c0-.82-.02-1.62-.04-2.43h1.36c-.02.8-.03,1.61-.04,2.43v5.69c0,.81.02,1.62.04,2.43h-1.36Z"/>
            <path d="M442.9,331.92l-6.5-9.57h-.03l-.35-.55-1.42-.09v-.43h2.55l6.11,9.05-.25.09-.03-4.32v-4.82h.54v10.65h-.62,0ZM434.62,331.82v-.43l1.54-.17h.32l1.87.17v.43h-3.73ZM436.01,331.82v-10.21h.52l.04,5.59v4.62h-.57.01ZM441.23,321.71v-.43h3.69v.43l-1.52.16h-.29l-1.88-.16Z"/>
            <path d="M445.16,331.82v-.43l1.42-.16h.25l1.58.16v.43h-3.25ZM446.2,331.82l3.53-10.63h.81l3.59,10.63h-1.3l-3.19-9.78h.29l-.06.2-3.07,9.57h-.61,0ZM447.77,328.21l.06-.46h4.4l.06.46h-4.52ZM451.04,331.82v-.43l1.94-.16h.42l1.88.16v.43h-4.24Z"/>
            <path d="M456.04,321.71v-.43h4.36v.43l-2.03.16h-.33l-2-.16ZM456.04,331.82v-.43l2-.17h.16v.61h-2.16ZM457.52,331.82c.02-.81.03-1.62.03-2.41v-5.71c0-.82,0-1.62-.03-2.43h1.35c0,.8-.02,1.62-.02,2.45v5.69c0,.79.01,1.59.02,2.4h-1.35ZM458.2,331.82v-.49h5.07l-.61.35.51-2.68h.64l-.1,2.82h-5.51Z"/>
            <path d="M394.46,339.09v-.43h4.3v.43l-2.03.16h-.29l-1.98-.16h0ZM394.46,349.2v-.43l1.98-.17h.29l2.03.17v.43h-4.3ZM395.93,349.2c.02-.81.03-1.62.03-2.43v-5.68c0-.82,0-1.62-.03-2.43h1.35c0,.8-.02,1.61-.02,2.43v5.63c0,.85.01,1.68.02,2.49h-1.35ZM396.61,343.97v-.48h6.53v.48h-6.53ZM400.99,339.09v-.43h4.3v.43l-1.98.16h-.3l-2.01-.16h0ZM400.99,349.2v-.43l2.01-.17h.3l1.98.17v.43h-4.3,0ZM402.45,349.2c.02-.81.03-1.64.04-2.48v-5.64c0-.82-.02-1.62-.04-2.43h1.36c-.02.8-.03,1.61-.04,2.43v5.69c0,.81.02,1.62.04,2.43h-1.36Z"/>
            <path d="M406.36,339.09v-.43h4.08v.43l-1.94.16h-.36l-1.78-.16ZM410.56,345.48l-3.4-6.82h1.42l2.94,6.11h-.38l.09-.2,2.82-5.91h.62l-3.38,6.82h-.74,0ZM408.64,349.2v-.43l2.13-.17h.38l2.16.17v.43h-4.67ZM410.29,349.2c0-.37.02-.7.02-1.01s0-.62.01-.96,0-.71,0-1.14v-1.57h1.26v2.71c0,.33,0,.65.01.96,0,.31.01.65.02,1.01h-1.35.03ZM412.23,339.09v-.43h3.46v.43l-1.45.16h-.29l-1.72-.16h0Z"/>
            <path d="M416.62,339.09v-.43h2.16v.59h-.16l-2-.16ZM416.62,349.2v-.43l2-.17h.39l2.07.17v.43h-4.46ZM418.1,349.2c.02-.81.03-1.62.03-2.43v-5.68c0-.82,0-1.62-.03-2.43h1.35c0,.8-.02,1.61-.02,2.43v5.72c0,.79.01,1.59.02,2.4h-1.35ZM418.78,344.88v-.48h1.48c.73,0,1.33-.11,1.79-.34.46-.23.79-.54,1-.95s.31-.87.31-1.41c0-.84-.22-1.48-.67-1.92-.44-.44-1.13-.66-2.07-.66h-1.84v-.48h1.94c1.32,0,2.3.28,2.93.83s.95,1.3.95,2.25c0,.59-.15,1.12-.44,1.6s-.76.86-1.4,1.14-1.46.42-2.48.42h-1.51.01Z"/>
            <path d="M430.7,349.43c-.64,0-1.24-.12-1.82-.37s-1.08-.61-1.51-1.08c-.43-.47-.78-1.05-1.03-1.73s-.38-1.46-.38-2.33.12-1.63.38-2.31.59-1.26,1.03-1.74c.43-.48.94-.84,1.51-1.09s1.18-.38,1.82-.38,1.25.12,1.83.37c.57.25,1.07.61,1.51,1.08s.78,1.05,1.03,1.74.37,1.46.37,2.33-.12,1.63-.37,2.31-.59,1.26-1.03,1.73-.94.84-1.51,1.09-1.18.38-1.83.38ZM430.7,348.94c.55,0,1.04-.13,1.46-.4s.77-.63,1.05-1.09.49-.99.64-1.59c.15-.6.22-1.25.22-1.93s-.07-1.32-.22-1.92c-.14-.6-.36-1.14-.64-1.6-.28-.46-.63-.83-1.05-1.09-.42-.26-.91-.39-1.46-.39s-1.04.13-1.46.39c-.42.26-.77.62-1.06,1.09-.28.46-.5,1-.64,1.6s-.21,1.24-.21,1.92.07,1.33.21,1.93c.14.6.35,1.13.64,1.59s.64.82,1.06,1.09.91.4,1.46.4Z"/>
            <path d="M436.48,341.41l.12-2.75h8.68l.13,2.75h-.62l-.52-2.75.59.51h-7.84l.61-.51-.52,2.75h-.63ZM438.62,349.2v-.43l2.13-.17h.36l2.14.17v.43h-4.64.01ZM440.26,349.2c.02-.81.03-1.62.04-2.43v-5.69c0-.82-.02-1.62-.04-2.43h1.35c0,.8-.02,1.61-.02,2.43v5.69c0,.81.01,1.62.02,2.43h-1.35Z"/>
            <path d="M446.47,339.09v-.43h4.3v.43l-2.03.16h-.29l-1.98-.16h0ZM446.47,349.2v-.43l1.98-.17h.29l2.03.17v.43h-4.3ZM447.95,349.2c.02-.81.03-1.62.03-2.43v-5.68c0-.82,0-1.62-.03-2.43h1.35c0,.8-.02,1.61-.02,2.43v5.63c0,.85.01,1.68.02,2.49h-1.35ZM448.63,343.97v-.48h6.53v.48h-6.53ZM453,339.09v-.43h4.3v.43l-1.98.16h-.3l-2.01-.16h0ZM453,349.2v-.43l2.01-.17h.3l1.98.17v.43h-4.3,0ZM454.47,349.2c.02-.81.03-1.64.04-2.48v-5.64c0-.82-.02-1.62-.04-2.43h1.36c-.02.8-.03,1.61-.04,2.43v5.69c0,.81.02,1.62.04,2.43h-1.36Z"/>
            <path d="M458.83,339.09v-.43h2.16v.59h-.16l-2-.16ZM458.83,349.2v-.43l2-.17h.16v.61h-2.16ZM460.3,349.2c.02-.81.03-1.62.03-2.43v-5.68c0-.82,0-1.62-.03-2.43h1.35c0,.8-.02,1.62-.02,2.44v5.64c0,.84.01,1.66.02,2.47h-1.35ZM466,341.26l-.48-2.51.64.41h-5.17v-.51h5.53l.1,2.61h-.62ZM460.98,344.09v-.48h3.49v.48h-3.49ZM460.98,349.2v-.49h5.43l-.65.36.49-2.52h.61l-.09,2.65h-5.79,0ZM464.37,345.58l-.2-1.61v-.3l.2-1.58h.51v3.49h-.51Z"/>
            <path d="M471.33,349.43c-.6,0-1.17-.08-1.71-.25-.54-.16-.99-.36-1.35-.59l.09-2.16h.59l.45,2.38-.65-.3-.09-.48c.47.35.89.58,1.26.7s.81.18,1.32.18c.78,0,1.41-.18,1.9-.53.48-.35.72-.88.72-1.57,0-.36-.06-.66-.2-.92-.13-.26-.35-.49-.64-.71-.3-.22-.71-.43-1.25-.64l-.62-.25c-.86-.37-1.51-.79-1.96-1.28-.44-.49-.67-1.1-.67-1.83,0-.61.15-1.12.46-1.53.3-.41.71-.72,1.22-.93s1.07-.31,1.7-.31c.55,0,1.03.07,1.45.21.42.14.8.34,1.16.59l-.06,2.06h-.62l-.45-2.29.68.32.04.46c-.38-.3-.72-.51-1.04-.63-.31-.12-.68-.18-1.09-.18-.68,0-1.23.16-1.67.49s-.66.8-.66,1.43c0,.55.16.99.49,1.32.32.33.77.61,1.34.86l.65.26c.73.31,1.31.62,1.73.92.42.3.72.64.89,1s.26.79.26,1.28c0,.6-.15,1.12-.46,1.56-.3.44-.73.79-1.28,1.02-.55.24-1.2.35-1.94.35h0Z"/>
            <path d="M476.45,339.09v-.43h4.33v.43l-2.03.16h-.3l-2-.16ZM476.45,349.2v-.43l2-.17h.3l2.03.17v.43h-4.33ZM477.93,349.2c.02-.81.03-1.62.04-2.43v-5.69c0-.82-.02-1.62-.04-2.43h1.36c-.02.8-.03,1.61-.04,2.43v5.69c0,.81.02,1.62.04,2.43h-1.36Z"/>
            <path d="M485.38,349.43c-.6,0-1.17-.08-1.71-.25-.54-.16-.99-.36-1.35-.59l.09-2.16h.59l.45,2.38-.65-.3-.09-.48c.47.35.89.58,1.26.7s.81.18,1.32.18c.78,0,1.41-.18,1.9-.53.48-.35.72-.88.72-1.57,0-.36-.06-.66-.2-.92-.13-.26-.35-.49-.64-.71-.3-.22-.71-.43-1.25-.64l-.62-.25c-.86-.37-1.51-.79-1.96-1.28-.44-.49-.67-1.1-.67-1.83,0-.61.15-1.12.46-1.53.3-.41.71-.72,1.22-.93s1.07-.31,1.7-.31c.55,0,1.03.07,1.45.21.42.14.8.34,1.16.59l-.06,2.06h-.62l-.45-2.29.68.32.04.46c-.38-.3-.72-.51-1.04-.63-.31-.12-.68-.18-1.09-.18-.68,0-1.23.16-1.67.49s-.66.8-.66,1.43c0,.55.16.99.49,1.32.32.33.77.61,1.34.86l.65.26c.73.31,1.31.62,1.73.92.42.3.72.64.89,1s.26.79.26,1.28c0,.6-.15,1.12-.46,1.56-.3.44-.73.79-1.28,1.02-.55.24-1.2.35-1.94.35h0Z"/>
          </g>
          <g>
            <path d="M262.4,329.51c-.08.43-.5,1.87-.64,2.3h-6.44v-.39c1.26-.12,1.37-.19,1.37-1.37v-5.49c0-1.18-.14-1.25-1.25-1.36v-.39h3.71v.39c-1.11.11-1.26.17-1.26,1.36v5.63c0,.84.11,1.04.9,1.05.01,0,1.01.01,1.09.01.71,0,.91-.08,1.23-.43.35-.36.64-.91.84-1.43l.43.11h.02Z"/>
            <path d="M270.5,329.61c-.08.36-.46,1.79-.6,2.2h-6.73v-.39c1.29-.1,1.38-.22,1.38-1.36v-5.47c0-1.23-.15-1.3-1.19-1.4v-.39h4.23c1.3,0,1.84-.01,2.01-.03.01.35.07,1.38.12,2.12l-.42.07c-.12-.47-.26-.76-.42-1.05-.22-.46-.54-.55-1.37-.55h-1.31c-.43,0-.46.04-.46.44v3.06h1.54c1.04,0,1.11-.21,1.27-1.15h.43v2.85h-.43c-.18-1-.29-1.13-1.29-1.13h-1.52v2.75c0,.97.3,1.05,1,1.07h1.29c.84,0,.98-.12,1.29-.48.26-.29.55-.86.75-1.27l.42.11h0Z"/>
            <path d="M276.13,331.81v-.39c.9-.11,1.01-.25.82-.77-.18-.54-.46-1.23-.75-2.1h-2.99c-.22.62-.43,1.16-.62,1.73-.3.9-.11,1.01,1.02,1.15v.39h-3.2v-.39c.87-.11,1.09-.21,1.58-1.45l2.86-7.27.44-.08c.87,2.37,1.83,4.98,2.7,7.38.44,1.2.57,1.32,1.55,1.43v.39h-3.42v-.02ZM274.74,324.43c-.44,1.19-.91,2.45-1.33,3.54h2.59l-1.26-3.54Z"/>
            <path d="M288.3,331.92c-.18,0-.33-.01-.51-.03-1.01-.07-1.55-.33-2.16-1.19-.51-.71-1.01-1.58-1.45-2.28-.28-.44-.46-.53-1.16-.53h-.48v2.17c0,1.18.15,1.25,1.26,1.36v.39h-3.7v-.39c1.15-.12,1.25-.18,1.25-1.36v-5.52c0-1.18-.15-1.22-1.25-1.34v-.39h3.53c1.01,0,1.69.12,2.21.47.57.36.94.98.94,1.83,0,1.19-.76,1.94-1.79,2.38.25.43.84,1.36,1.26,1.98.51.73.78,1.08,1.09,1.43.37.4.69.55,1.01.64l-.06.39h.01ZM283.2,327.42c.72,0,1.18-.11,1.52-.4.54-.4.76-.96.76-1.7,0-1.48-.98-2.02-2.05-2.02-.4,0-.64.06-.73.14-.12.1-.17.24-.17.59v3.39h.67Z"/>
            <path d="M298.41,323.2c-.89.1-1.18.24-1.22.87-.01.44-.04,1.02-.04,2.31v5.55h-.53l-5.92-7.24v3.46c0,1.25.04,1.87.07,2.27.03.71.37.91,1.37,1v.39h-3.36v-.39c.86-.07,1.19-.28,1.25-.96.04-.44.07-1.07.07-2.33v-3.53c0-.39-.03-.61-.28-.91-.26-.35-.55-.43-1.23-.5v-.39h2.08l5.87,6.96v-3.39c0-1.29-.03-1.88-.07-2.3-.04-.62-.36-.82-1.47-.89v-.39h3.42v.41Z"/>
            <path d="M299.51,331.81v-.39c1.13-.12,1.25-.18,1.25-1.36v-5.49c0-1.19-.11-1.25-1.25-1.37v-.39h3.71v.39c-1.15.12-1.26.18-1.26,1.37v5.49c0,1.19.11,1.23,1.26,1.36v.39h-3.71Z"/>
            <path d="M314.18,323.2c-.89.1-1.18.24-1.22.87-.01.44-.04,1.02-.04,2.31v5.55h-.53l-5.92-7.24v3.46c0,1.25.04,1.87.07,2.27.03.71.37.91,1.37,1v.39h-3.36v-.39c.86-.07,1.19-.28,1.25-.96.04-.44.07-1.07.07-2.33v-3.53c0-.39-.03-.61-.28-.91-.26-.35-.55-.43-1.23-.5v-.39h2.08l5.87,6.96v-3.39c0-1.29-.03-1.88-.07-2.3-.04-.62-.36-.82-1.47-.89v-.39h3.42v.41Z"/>
            <path d="M324.28,328.03c-.86.11-.91.19-.91,1.01v1.16c0,.48.01.94.08,1.31-.86.19-1.98.5-3.14.5-3.14,0-5.05-1.95-5.05-4.73,0-2.92,2.38-4.66,5.15-4.66,1.41,0,2.45.28,2.88.35.03.51.1,1.36.21,2.23l-.42.08c-.33-1.18-.73-1.67-1.61-1.97-.32-.11-.89-.18-1.29-.18-2.12,0-3.49,1.45-3.49,3.99,0,2.2,1.13,4.39,3.82,4.39.47,0,.9-.1,1.18-.24.29-.17.47-.32.47-.89v-1.13c0-1.01-.11-1.12-1.44-1.22v-.4h3.56v.4h0Z"/>
            <path d="M253.26,348.41v-.39c.9-.11,1.01-.25.82-.77-.18-.54-.46-1.23-.75-2.1h-2.99c-.22.62-.43,1.16-.62,1.73-.3.9-.11,1.01,1.02,1.15v.39h-3.2v-.39c.87-.11,1.09-.21,1.58-1.45l2.86-7.27.44-.08c.87,2.37,1.83,4.98,2.7,7.38.44,1.2.57,1.32,1.55,1.43v.39h-3.42v-.02ZM251.88,341.03c-.44,1.19-.91,2.45-1.33,3.54h2.59l-1.26-3.54Z"/>
            <path d="M264.18,346.11c-.08.43-.5,1.87-.64,2.3h-6.44v-.39c1.26-.12,1.37-.19,1.37-1.37v-5.49c0-1.18-.14-1.25-1.25-1.36v-.39h3.71v.39c-1.11.11-1.26.17-1.26,1.36v5.63c0,.84.11,1.04.9,1.05.01,0,1.01.01,1.09.01.71,0,.91-.08,1.23-.43.35-.36.64-.91.84-1.43l.43.11h.02Z"/>
            <path d="M274.26,344.63c-.86.11-.91.19-.91,1.01v1.16c0,.48.01.94.08,1.31-.86.19-1.98.5-3.14.5-3.14,0-5.05-1.95-5.05-4.73,0-2.92,2.38-4.66,5.15-4.66,1.41,0,2.45.28,2.88.35.03.51.1,1.36.21,2.23l-.42.08c-.33-1.18-.73-1.67-1.61-1.97-.32-.11-.89-.18-1.29-.18-2.12,0-3.49,1.45-3.49,3.99,0,2.2,1.13,4.39,3.82,4.39.47,0,.9-.1,1.18-.24.29-.17.47-.32.47-.89v-1.13c0-1.01-.11-1.12-1.44-1.22v-.4h3.56v.4h0Z"/>
            <path d="M280.39,339.22c2.37,0,4.48,1.81,4.48,4.57,0,2.98-2.02,4.83-4.57,4.83s-4.59-2.02-4.59-4.62,1.76-4.77,4.68-4.77h0ZM280.11,339.73c-1.55,0-2.96,1.3-2.96,3.89s1.41,4.47,3.38,4.47c1.67,0,2.93-1.25,2.93-3.92,0-2.91-1.54-4.44-3.35-4.44Z"/>
            <path d="M294.42,348.52c-.18,0-.33-.01-.51-.03-1.01-.07-1.55-.33-2.16-1.19-.51-.71-1.01-1.58-1.45-2.28-.28-.44-.46-.53-1.16-.53h-.48v2.17c0,1.18.15,1.25,1.26,1.36v.39h-3.7v-.39c1.15-.12,1.25-.18,1.25-1.36v-5.52c0-1.18-.15-1.22-1.25-1.34v-.39h3.53c1.01,0,1.69.12,2.21.47.57.36.94.98.94,1.83,0,1.19-.76,1.94-1.79,2.38.25.43.84,1.36,1.26,1.98.51.73.78,1.08,1.09,1.43.37.4.69.55,1.01.64l-.06.39h.01ZM289.31,344.02c.72,0,1.18-.11,1.52-.4.54-.4.76-.96.76-1.7,0-1.48-.98-2.02-2.05-2.02-.4,0-.64.06-.73.14-.12.1-.17.24-.17.59v3.39h.67Z"/>
            <path d="M294.96,348.41v-.39c1.14-.12,1.25-.18,1.25-1.36v-5.49c0-1.19-.11-1.25-1.25-1.37v-.39h3.71v.39c-1.15.12-1.26.18-1.26,1.37v5.49c0,1.19.11,1.23,1.26,1.36v.39h-3.71Z"/>
            <path d="M307.29,341.59c-.12-.44-.29-.9-.44-1.15-.22-.37-.36-.47-1.12-.47h-1.38v6.74c0,1.08.11,1.23,1.42,1.31v.39h-4.03v-.39c1.29-.08,1.4-.22,1.4-1.31v-6.74h-1.26c-.76,0-.98.08-1.22.5-.17.28-.28.61-.46,1.12h-.42c.08-.84.17-1.72.21-2.49h.32c.21.33.36.32.75.32h5.48c.39,0,.5-.05.71-.32h.33c0,.65.06,1.65.12,2.45l-.42.04h.01Z"/>
            <path d="M318.47,339.8c-1.15.11-1.26.18-1.26,1.34v5.55c0,1.16.12,1.2,1.26,1.33v.39h-3.71v-.39c1.15-.14,1.26-.17,1.26-1.33v-2.77h-4.73v2.77c0,1.15.11,1.19,1.25,1.33v.39h-3.7v-.39c1.12-.12,1.25-.17,1.25-1.33v-5.55c0-1.16-.12-1.23-1.25-1.34v-.39h3.7v.39c-1.11.1-1.25.19-1.25,1.34v2.2h4.73v-2.2c0-1.15-.15-1.25-1.26-1.34v-.39h3.71v.39Z"/>
            <path d="M327.47,348.41v-.39c1.14-.11,1.18-.19,1.16-1.67v-5.65c-1.12,2.53-2.95,6.49-3.43,7.71h-.36c-.47-1.26-2.03-5.07-3.09-7.57-.23,4.84-.25,5.94-.25,6.2.01.78.36.89,1.3.98v.39h-3.28v-.39c.8-.08,1.13-.25,1.25-1,.08-.61.1-1.11.46-6.16.06-.72-.08-.96-1.3-1.07v-.39h2.41l3.06,7.02,3.28-7.02h2.42v.39c-1.19.14-1.34.26-1.31,1.23l.06,5.31c.06,1.48.1,1.55,1.31,1.67v.39h-3.68v.02Z"/>
          </g>
        </g>
      </g>
      <rect class="cls-4" x="379.78" y="101.15" width="123.33" height="106.45"/>
      <g>
        <path class="cls-5" d="M393.53,110.83v-.47h2.16v.65h-.17l-1.99-.18ZM393.53,121.39v-.47l1.99-.2h.43l2.06.2v.47h-4.48ZM394.91,121.39c.02-.84.03-1.69.03-2.55,0-.85,0-1.71,0-2.56v-.8c0-.86,0-1.72,0-2.57,0-.85-.02-1.7-.03-2.55h1.53c0,.84-.02,1.69-.02,2.55,0,.85,0,1.71,0,2.58v1.06c0,.74,0,1.52,0,2.34s.01,1.66.02,2.51h-1.53ZM395.68,116.9v-.51h1.47c.68,0,1.23-.12,1.65-.35.42-.24.73-.57.93-.99.2-.43.3-.91.3-1.45,0-.88-.21-1.55-.63-2.01-.42-.46-1.07-.69-1.95-.69h-1.78v-.53h1.86c1.33,0,2.32.29,2.95.86.63.57.95,1.36.95,2.37,0,.61-.14,1.17-.43,1.67-.29.5-.75.9-1.37,1.2-.62.3-1.44.44-2.43.44h-1.51Z"/>
        <path class="cls-5" d="M402.49,110.83v-.47h2.16v.65h-.17l-1.99-.18ZM402.49,121.39v-.47l1.99-.2h.34l2,.2v.47h-4.32ZM403.87,121.39c.02-.84.03-1.69.03-2.55,0-.85,0-1.71,0-2.56v-.8c0-.86,0-1.72,0-2.57,0-.85-.02-1.7-.03-2.55h1.53c-.03.84-.04,1.71-.05,2.58,0,.88,0,1.84,0,2.87v.33c0,.91,0,1.8,0,2.67,0,.86.02,1.72.05,2.58h-1.53ZM410.45,121.56c-.5,0-.88-.09-1.12-.26-.24-.18-.4-.46-.48-.87l-.64-2.47c-.09-.42-.21-.76-.35-1.01-.14-.25-.33-.43-.56-.55-.23-.12-.56-.17-.97-.17h-1.68v-.5h2.02c.52,0,.96-.11,1.32-.33.36-.22.63-.52.82-.9s.28-.81.28-1.28c0-.72-.2-1.29-.6-1.7-.4-.41-1.02-.62-1.85-.62h-2v-.53h2.27c1.14,0,2.02.25,2.64.74.62.49.93,1.19.93,2.1,0,.49-.12.95-.36,1.36-.24.42-.6.76-1.09,1.03-.49.27-1.12.43-1.88.48v-.15c.58.04,1.03.14,1.36.3s.58.39.75.7c.17.31.31.7.43,1.17l.81,3.06-.69-.36,1.93.14v.47c-.18.04-.37.08-.57.11s-.44.05-.72.05Z"/>
        <path class="cls-5" d="M417.07,121.65c-.63,0-1.22-.13-1.78-.38-.56-.26-1.06-.63-1.49-1.12-.43-.49-.77-1.1-1.01-1.81-.24-.71-.36-1.53-.36-2.46s.12-1.72.36-2.43c.24-.72.58-1.32,1.01-1.82.43-.49.93-.87,1.49-1.13.56-.26,1.15-.39,1.78-.39s1.23.13,1.78.38c.55.26,1.05.63,1.48,1.12s.77,1.1,1.01,1.81c.24.71.36,1.53.36,2.46s-.12,1.73-.36,2.44c-.24.71-.58,1.32-1.01,1.82-.43.5-.93.87-1.48,1.13-.56.26-1.15.38-1.78.38ZM417.07,121.12c.51,0,.96-.14,1.35-.41.39-.27.71-.65.96-1.13.26-.48.45-1.04.58-1.67.13-.63.2-1.31.2-2.03s-.07-1.4-.2-2.03c-.13-.63-.32-1.18-.58-1.67-.26-.48-.58-.86-.96-1.13-.39-.27-.84-.41-1.35-.41s-.96.14-1.35.41c-.39.27-.71.65-.97,1.13-.26.48-.46,1.04-.59,1.67-.13.63-.2,1.3-.2,2.03s.07,1.4.2,2.03c.13.63.33,1.19.59,1.67.26.48.58.86.97,1.13.39.27.84.41,1.35.41Z"/>
        <path class="cls-5" d="M422.95,110.83v-.47h2.16v.65h-.17l-1.99-.18ZM422.95,121.39v-.47l1.99-.2h.17v.66h-2.16ZM424.33,121.39c.02-.85.03-1.71.03-2.58,0-.86,0-1.74,0-2.62v-.74c0-.85,0-1.71,0-2.55,0-.85-.02-1.7-.03-2.54h1.53c-.03.83-.04,1.68-.05,2.53,0,.85,0,1.73,0,2.62v.3c0,1.06,0,2.03,0,2.93,0,.9.02,1.78.05,2.65h-1.53ZM425.1,121.39v-.51h1.88c.86,0,1.53-.21,2.01-.64.48-.43.72-1.04.72-1.85s-.24-1.45-.71-1.87-1.22-.63-2.24-.63h-1.65v-.48h1.51c.87,0,1.52-.21,1.96-.63.44-.42.66-1.01.66-1.78,0-.66-.18-1.18-.55-1.55-.37-.37-.99-.56-1.85-.56h-1.72v-.53h2.13c.79,0,1.44.11,1.94.33.5.22.87.53,1.11.92.24.39.36.84.36,1.36,0,.43-.1.84-.31,1.21-.21.38-.55.7-1.03.96-.48.26-1.11.44-1.89.53l.06-.15c.89.05,1.6.2,2.15.45.55.25.94.59,1.2,1s.38.89.38,1.41c0,.39-.07.77-.22,1.12-.14.36-.38.68-.69.96-.32.29-.74.51-1.26.68-.52.17-1.17.25-1.93.25h-1.97Z"/>
        <path class="cls-5" d="M431.43,121.39v-.47l1.39-.18h.25l1.51.18v.47h-3.15ZM432.43,121.39l3.43-11.11h.91l3.5,11.11h-1.48l-3.05-10.08h.29l-.06.21-2.92,9.87h-.62ZM433.96,117.67l.06-.48h4.31l.07.48h-4.44ZM437.08,121.39v-.47l1.88-.18h.5l1.85.18v.47h-4.23Z"/>
        <path class="cls-5" d="M442.03,110.83v-.47h2.16v.65h-.17l-1.99-.18ZM442.03,121.39v-.47l1.99-.2h.17v.66h-2.16ZM443.42,121.39c.02-.85.03-1.71.03-2.58,0-.86,0-1.74,0-2.62v-.74c0-.85,0-1.71,0-2.55,0-.85-.02-1.7-.03-2.54h1.53c-.03.83-.04,1.68-.05,2.53,0,.85,0,1.73,0,2.62v.3c0,1.06,0,2.03,0,2.93,0,.9.02,1.78.05,2.65h-1.53ZM444.19,121.39v-.51h1.88c.86,0,1.53-.21,2.01-.64.48-.43.72-1.04.72-1.85s-.24-1.45-.71-1.87-1.22-.63-2.24-.63h-1.65v-.48h1.51c.87,0,1.52-.21,1.96-.63.44-.42.66-1.01.66-1.78,0-.66-.18-1.18-.55-1.55-.37-.37-.99-.56-1.85-.56h-1.72v-.53h2.13c.79,0,1.44.11,1.94.33.5.22.87.53,1.11.92.24.39.36.84.36,1.36,0,.43-.1.84-.31,1.21-.21.38-.55.7-1.03.96-.48.26-1.11.44-1.89.53l.06-.15c.89.05,1.6.2,2.15.45.55.25.94.59,1.2,1s.38.89.38,1.41c0,.39-.07.77-.22,1.12-.14.36-.38.68-.69.96-.32.29-.74.51-1.26.68-.52.17-1.17.25-1.93.25h-1.97Z"/>
        <path class="cls-5" d="M451.26,110.83v-.47h4.32v.47l-2.02.18h-.32l-1.99-.18ZM451.26,121.39v-.47l1.99-.2h.32l2.02.2v.47h-4.32ZM452.64,121.39c.03-.84.04-1.69.04-2.55v-5.93c0-.85-.01-1.7-.04-2.55h1.54c-.02.84-.03,1.69-.04,2.55,0,.85,0,1.71,0,2.58v.78c0,.86,0,1.72,0,2.57,0,.85.02,1.7.04,2.55h-1.54Z"/>
        <path class="cls-5" d="M457.01,110.83v-.47h4.37v.47l-2.02.18h-.36l-1.99-.18ZM457.01,121.39v-.47l1.99-.2h.18v.66h-2.17ZM458.39,121.39c.02-.84.03-1.69.03-2.52,0-.84,0-1.65,0-2.42v-.96c0-.86,0-1.72,0-2.58,0-.85-.02-1.7-.03-2.55h1.53c0,.84-.02,1.7-.02,2.56,0,.86,0,1.76,0,2.68v.89c0,.74,0,1.53,0,2.37,0,.83.01,1.68.02,2.53h-1.53ZM459.16,121.39v-.53h4.95l-.7.41.56-2.89h.63l-.07,3.01h-5.37Z"/>
        <path class="cls-5" d="M465.69,110.83v-.47h4.32v.47l-2.02.18h-.32l-1.99-.18ZM465.69,121.39v-.47l1.99-.2h.32l2.02.2v.47h-4.32ZM467.07,121.39c.03-.84.04-1.69.04-2.55v-5.93c0-.85-.01-1.7-.04-2.55h1.54c-.02.84-.03,1.69-.04,2.55,0,.85,0,1.71,0,2.58v.78c0,.86,0,1.72,0,2.57,0,.85.02,1.7.04,2.55h-1.54Z"/>
        <path class="cls-5" d="M471.03,113.3l.11-2.94h8.54l.11,2.94h-.64l-.57-2.94.69.54h-7.71l.7-.54-.57,2.94h-.64ZM473.1,121.39v-.47l2.1-.2h.41l2.13.2v.47h-4.63ZM474.66,121.39c.02-.84.03-1.69.04-2.55,0-.85,0-1.71,0-2.56v-.8c0-.86,0-1.72,0-2.57,0-.85-.02-1.7-.04-2.55h1.51c0,.84-.02,1.69-.02,2.55,0,.85,0,1.71,0,2.58v.78c0,.86,0,1.72,0,2.57,0,.85.01,1.7.02,2.55h-1.51Z"/>
        <path class="cls-5" d="M480.45,110.83v-.47h4.12v.47l-1.89.18h-.42l-1.81-.18ZM484.47,117.53l-3.3-7.17h1.62l2.81,6.35h-.38l.08-.21,2.7-6.13h.63l-3.29,7.17h-.88ZM482.63,121.39v-.47l2.1-.2h.42l2.13.2v.47h-4.65ZM484.2,121.39c0-.38.02-.73.02-1.06,0-.32,0-.66.01-1.01,0-.35,0-.76,0-1.21v-1.65h1.43v1.65c0,.46,0,.86,0,1.21s0,.68.01,1.01.01.68.02,1.06h-1.51ZM486.26,110.83v-.47h3.33v.47l-1.4.18h-.29l-1.64-.18Z"/>
        <path class="cls-5" d="M390.58,128.91v-.47h2.16v.65h-.17l-1.99-.18ZM390.58,139.48v-.47l1.99-.2h.17v.66h-2.16ZM391.97,139.48c.02-.84.03-1.7.03-2.58,0-.87,0-1.81,0-2.82v-.44c0-.89,0-1.77,0-2.63,0-.86-.02-1.72-.03-2.57h1.53c0,.84-.02,1.7-.02,2.56,0,.86,0,1.74,0,2.64v.44c0,.99,0,1.93,0,2.8s.01,1.74.02,2.59h-1.53ZM392.74,139.48v-.51h1.79c1.28,0,2.25-.44,2.91-1.33.66-.89.99-2.11.99-3.67s-.33-2.87-.98-3.72c-.65-.85-1.59-1.27-2.8-1.27h-1.92v-.53h2.1c1.07,0,1.99.22,2.76.66.76.44,1.35,1.06,1.76,1.88s.61,1.81.61,2.98-.21,2.12-.64,2.94c-.42.82-1.04,1.46-1.83,1.91-.8.45-1.75.67-2.86.67h-1.89Z"/>
        <path class="cls-5" d="M401.13,128.91v-.47h4.32v.47l-2.02.18h-.32l-1.99-.18ZM401.13,139.48v-.47l1.99-.2h.32l2.02.2v.47h-4.32ZM402.52,139.48c.03-.84.04-1.69.04-2.55v-5.93c0-.85-.01-1.7-.04-2.55h1.54c-.02.84-.03,1.69-.04,2.55,0,.85,0,1.71,0,2.58v.78c0,.86,0,1.72,0,2.57,0,.85.02,1.7.04,2.55h-1.54Z"/>
        <path class="cls-5" d="M409.92,139.73c-.58,0-1.14-.09-1.67-.26s-.98-.38-1.34-.62l.08-2.32h.62l.52,2.59-.7-.36-.1-.5c.45.35.85.59,1.21.72s.78.19,1.27.19c.75,0,1.34-.18,1.78-.55s.67-.9.67-1.59c0-.36-.06-.67-.17-.93-.12-.26-.32-.5-.59-.72-.28-.22-.66-.44-1.15-.65l-.62-.27c-.85-.39-1.49-.85-1.93-1.36-.44-.52-.66-1.17-.66-1.97,0-.65.15-1.2.44-1.63.29-.43.7-.76,1.2-.98.51-.22,1.08-.33,1.71-.33.54,0,1.02.07,1.43.22s.8.35,1.15.61l-.07,2.2h-.64l-.5-2.47.73.36.07.51c-.37-.32-.71-.55-1.01-.68-.3-.13-.65-.2-1.05-.2-.64,0-1.17.17-1.59.5-.42.34-.62.82-.62,1.45,0,.56.15,1.01.45,1.35.3.34.73.63,1.27.88l.66.29c.7.32,1.25.64,1.67.96.41.32.7.68.88,1.06s.26.84.26,1.36c0,.63-.15,1.18-.45,1.65-.3.47-.72.83-1.27,1.09-.54.26-1.19.38-1.94.38Z"/>
        <path class="cls-5" d="M414.35,131.38l.11-2.94h8.54l.11,2.94h-.64l-.57-2.94.69.54h-7.71l.7-.54-.57,2.94h-.64ZM416.42,139.48v-.47l2.1-.2h.41l2.13.2v.47h-4.63ZM417.97,139.48c.02-.84.03-1.69.04-2.55,0-.85,0-1.71,0-2.56v-.8c0-.86,0-1.72,0-2.57,0-.85-.02-1.7-.04-2.55h1.51c0,.84-.02,1.69-.02,2.55,0,.85,0,1.71,0,2.58v.78c0,.86,0,1.72,0,2.57,0,.85.01,1.7.02,2.55h-1.51Z"/>
        <path class="cls-5" d="M424.13,128.91v-.47h2.16v.65h-.17l-1.99-.18ZM424.13,139.48v-.47l1.99-.2h.34l2,.2v.47h-4.32ZM425.51,139.48c.02-.84.03-1.69.03-2.55,0-.85,0-1.71,0-2.56v-.8c0-.86,0-1.72,0-2.57,0-.85-.02-1.7-.03-2.55h1.53c-.03.84-.04,1.71-.05,2.58,0,.88,0,1.84,0,2.87v.33c0,.91,0,1.8,0,2.67,0,.86.02,1.72.05,2.58h-1.53ZM432.09,139.64c-.5,0-.88-.09-1.12-.26-.24-.18-.4-.46-.48-.87l-.64-2.47c-.09-.42-.21-.76-.35-1.01-.14-.25-.33-.43-.56-.55-.23-.12-.56-.17-.97-.17h-1.68v-.5h2.02c.52,0,.96-.11,1.32-.33.36-.22.63-.52.82-.9s.28-.81.28-1.28c0-.72-.2-1.29-.6-1.7-.4-.41-1.02-.62-1.85-.62h-2v-.53h2.27c1.14,0,2.02.25,2.64.74.62.49.93,1.19.93,2.1,0,.49-.12.95-.36,1.36-.24.42-.6.76-1.09,1.03-.49.27-1.12.43-1.88.48v-.15c.58.04,1.03.14,1.36.3s.58.39.75.7c.17.31.31.7.43,1.17l.81,3.06-.69-.36,1.93.14v.47c-.18.04-.37.08-.57.11s-.44.05-.72.05Z"/>
        <path class="cls-5" d="M434.29,128.91v-.47h4.32v.47l-2.02.18h-.32l-1.99-.18ZM434.29,139.48v-.47l1.99-.2h.32l2.02.2v.47h-4.32ZM435.67,139.48c.03-.84.04-1.69.04-2.55v-5.93c0-.85-.01-1.7-.04-2.55h1.54c-.02.84-.03,1.69-.04,2.55,0,.85,0,1.71,0,2.58v.78c0,.86,0,1.72,0,2.57,0,.85.02,1.7.04,2.55h-1.54Z"/>
        <path class="cls-5" d="M440.04,128.91v-.47h2.16v.65h-.17l-1.99-.18ZM440.04,139.48v-.47l1.99-.2h.17v.66h-2.16ZM441.43,139.48c.02-.85.03-1.71.03-2.58,0-.86,0-1.74,0-2.62v-.74c0-.85,0-1.71,0-2.55,0-.85-.02-1.7-.03-2.54h1.53c-.03.83-.04,1.68-.05,2.53,0,.85,0,1.73,0,2.62v.3c0,1.06,0,2.03,0,2.93,0,.9.02,1.78.05,2.65h-1.53ZM442.2,139.48v-.51h1.88c.86,0,1.53-.21,2.01-.64.48-.43.72-1.04.72-1.85s-.24-1.45-.71-1.87-1.22-.63-2.24-.63h-1.65v-.48h1.51c.87,0,1.52-.21,1.96-.63.44-.42.66-1.01.66-1.78,0-.66-.18-1.18-.55-1.55-.37-.37-.99-.56-1.85-.56h-1.72v-.53h2.13c.79,0,1.44.11,1.94.33.5.22.87.53,1.11.92.24.39.36.84.36,1.36,0,.43-.1.84-.31,1.21-.21.38-.55.7-1.03.96-.48.26-1.11.44-1.89.53l.06-.15c.89.05,1.6.2,2.15.45.55.25.94.59,1.2,1s.38.89.38,1.41c0,.39-.07.77-.22,1.12-.14.36-.38.68-.69.96-.32.29-.74.51-1.26.68-.52.17-1.17.25-1.93.25h-1.97Z"/>
        <path class="cls-5" d="M449.07,128.91v-.47h4.28v.47l-2.02.18h-.32l-1.95-.18ZM454.11,139.73c-.74,0-1.39-.15-1.95-.44-.56-.3-.99-.77-1.3-1.43s-.46-1.52-.46-2.6v-4.27c0-.85-.01-1.7-.04-2.55h1.53c0,.83-.02,1.68-.02,2.52,0,.85,0,1.71,0,2.57v1.49c0,.92.1,1.67.31,2.22.21.56.5.96.9,1.21s.86.37,1.41.37c.92,0,1.61-.31,2.07-.93.46-.62.68-1.64.67-3.07v-6.39s.56,0,.56,0l-.03,6.65c0,1.58-.31,2.75-.93,3.5-.62.76-1.52,1.14-2.71,1.14ZM455.52,128.91v-.47h3.64v.47l-1.54.18h-.32l-1.78-.18Z"/>
        <path class="cls-5" d="M459.86,131.38l.11-2.94h8.54l.11,2.94h-.64l-.57-2.94.69.54h-7.71l.7-.54-.57,2.94h-.64ZM461.93,139.48v-.47l2.1-.2h.41l2.13.2v.47h-4.63ZM463.48,139.48c.02-.84.03-1.69.04-2.55,0-.85,0-1.71,0-2.56v-.8c0-.86,0-1.72,0-2.57,0-.85-.02-1.7-.04-2.55h1.51c0,.84-.02,1.69-.02,2.55,0,.85,0,1.71,0,2.58v.78c0,.86,0,1.72,0,2.57,0,.85.01,1.7.02,2.55h-1.51Z"/>
        <path class="cls-5" d="M469.64,128.91v-.47h4.32v.47l-2.02.18h-.32l-1.99-.18ZM469.64,139.48v-.47l1.99-.2h.32l2.02.2v.47h-4.32ZM471.03,139.48c.03-.84.04-1.69.04-2.55v-5.93c0-.85-.01-1.7-.04-2.55h1.54c-.02.84-.03,1.69-.04,2.55,0,.85,0,1.71,0,2.58v.78c0,.86,0,1.72,0,2.57,0,.85.02,1.7.04,2.55h-1.54Z"/>
        <path class="cls-5" d="M479.84,139.73c-.63,0-1.22-.13-1.78-.38-.56-.26-1.06-.63-1.49-1.12-.43-.49-.77-1.1-1.01-1.81-.24-.71-.36-1.53-.36-2.46s.12-1.72.36-2.43c.24-.72.58-1.32,1.01-1.82.43-.49.93-.87,1.49-1.13.56-.26,1.15-.39,1.78-.39s1.23.13,1.78.38c.55.26,1.05.63,1.48,1.12s.77,1.1,1.01,1.81c.24.71.36,1.53.36,2.46s-.12,1.73-.36,2.44c-.24.71-.58,1.32-1.01,1.82-.43.5-.93.87-1.48,1.13-.56.26-1.15.38-1.78.38ZM479.84,139.2c.51,0,.96-.14,1.35-.41.39-.27.71-.65.96-1.13.26-.48.45-1.04.58-1.67.13-.63.2-1.31.2-2.03s-.07-1.4-.2-2.03c-.13-.63-.32-1.18-.58-1.67-.26-.48-.58-.86-.96-1.13-.39-.27-.84-.41-1.35-.41s-.96.14-1.35.41c-.39.27-.71.65-.97,1.13-.26.48-.46,1.04-.59,1.67-.13.63-.2,1.3-.2,2.03s.07,1.4.2,2.03c.13.63.33,1.19.59,1.67.26.48.58.86.97,1.13.39.27.84.41,1.35.41Z"/>
        <path class="cls-5" d="M493.67,139.57l-6.28-9.92-.03-.03-.38-.6-1.32-.11v-.47h2.66l5.81,9.24-.25.09-.03-4.49v-4.84h.53v11.12h-.71ZM485.68,139.48v-.47l1.47-.2h.34l1.83.2v.47h-3.64ZM487.02,139.48v-10.66h.5l.08,6.1v4.55h-.59ZM492.12,128.91v-.47h3.64v.47l-1.47.18h-.31l-1.86-.18Z"/>
      </g>
      <path class="cls-5" d="M425.09,176.86c-.22.67-.59,1.26-1.11,1.78-.52.51-1.11.95-1.79,1.3s-1.41.61-2.21.78-1.58.26-2.35.26h-2.66l-1.79,5.38c-.13.39,0,.67.41.85.4.18,1.03.27,1.88.27l-.22.67h-6.89l.22-.67c.86,0,1.5-.11,1.9-.34.4-.22.65-.48.75-.78l3.85-11.55c.21-.63.18-1.06-.09-1.3-.27-.24-.85-.36-1.72-.36l.23-.69h7.94c.39,0,.85.06,1.39.19.54.13,1.03.35,1.46.68.43.33.75.78.95,1.35.2.57.15,1.3-.14,2.18ZM422.91,176.75c.38-1.15.35-2.05-.08-2.7-.44-.66-1.31-.98-2.62-.98-.39,0-.74.02-1.07.06s-.62.11-.89.21c-.27.1-.49.25-.69.45-.19.19-.34.44-.44.74l-1.94,5.83h2.77c.67,0,1.28-.1,1.82-.29.54-.19,1.02-.46,1.43-.79.41-.34.76-.72,1.04-1.15.29-.43.51-.89.67-1.36Z"/>
      <path class="cls-5" d="M438.13,181.22c0,1-.18,1.93-.55,2.8-.37.87-.83,1.63-1.39,2.28-.56.65-1.17,1.16-1.84,1.53s-1.32.56-1.94.56c-.45,0-.85-.09-1.21-.27-.36-.18-.66-.41-.92-.7-.25-.29-.45-.63-.58-1.02-.13-.39-.2-.8-.2-1.23s.07-.94.21-1.47.34-1.07.58-1.61c.25-.54.54-1.06.89-1.56.35-.51.73-.95,1.15-1.34.42-.39.86-.7,1.33-.93.47-.23.96-.35,1.46-.35.34,0,.69.07,1.05.22s.68.36.97.65c.29.28.53.63.7,1.04.18.41.27.88.27,1.4ZM436.79,180.5c0-.19-.03-.41-.08-.65-.05-.24-.14-.46-.27-.67-.13-.21-.3-.39-.53-.54s-.5-.22-.83-.22c-.45,0-.86.14-1.24.41-.38.28-.73.63-1.04,1.06-.31.43-.59.92-.84,1.46-.25.54-.45,1.08-.61,1.61-.16.53-.29,1.02-.38,1.49-.09.46-.13.83-.13,1.12,0,.21.01.44.04.7.03.26.1.51.22.75s.29.44.53.6c.23.16.55.25.95.25.48,0,.91-.14,1.3-.42.39-.28.74-.65,1.05-1.11.31-.45.58-.96.82-1.52.23-.56.42-1.11.58-1.65s.27-1.05.35-1.53c.07-.48.11-.86.11-1.14Z"/>
      <path class="cls-5" d="M451.28,185.17c-.57.97-1.15,1.75-1.74,2.33-.6.59-1.19.88-1.79.88-.43,0-.73-.12-.88-.35-.16-.23-.23-.5-.23-.8s.04-.6.13-.89c.09-.29.16-.5.2-.61l2.15-5.52c.01-.06.03-.16.06-.31.02-.15.02-.3,0-.46-.02-.16-.08-.29-.16-.4-.08-.11-.22-.17-.41-.17-.22,0-.45.07-.68.22-.23.15-.55.48-.96.99-.41.51-.95,1.28-1.63,2.29-.68,1.01-1.58,2.38-2.72,4.09l-.85,1.68h-1.59l2.62-6.86c.04-.12.11-.31.19-.57.08-.26.14-.52.18-.79s.04-.5,0-.7-.15-.3-.35-.3c-.09,0-.24.07-.44.2-.2.13-.42.32-.67.57-.25.25-.51.54-.78.87s-.55.7-.82,1.08l-.42-.25c.16-.25.39-.57.68-.96.29-.39.61-.76.95-1.13.34-.36.69-.68,1.05-.94.36-.26.68-.39.98-.39.34,0,.59.09.75.28.16.19.25.42.29.71.04.29.02.62-.06.98-.07.37-.17.73-.29,1.11-.13.45-.28.92-.45,1.41-.15.43-.32.93-.5,1.49-.19.56-.39,1.14-.62,1.73.76-1.16,1.42-2.16,1.98-2.99.56-.83,1.05-1.53,1.48-2.1s.79-1.02,1.09-1.36c.31-.34.58-.6.82-.78s.46-.3.67-.36c.21-.06.42-.09.65-.09.37,0,.66.09.87.28.21.19.35.41.42.67s.1.53.08.82c-.02.28-.06.52-.12.71l-2.24,5.76s-.04.1-.07.22c-.03.12-.04.24-.04.37s.03.24.08.35c.05.1.15.16.3.16.25,0,.51-.1.77-.31s.5-.45.73-.73c.22-.28.42-.55.6-.82.18-.27.31-.47.4-.6l.33.29Z"/>
      <path class="cls-5" d="M472.1,188.14h-6.82l.22-.67c.13,0,.33-.01.59-.03.26-.02.52-.06.77-.12.25-.06.46-.16.62-.29.16-.13.21-.31.13-.54l-1.7-5.43-4.67,4.62c-.27.27-.43.51-.48.74-.05.22-.02.41.1.57.12.16.31.28.57.36.26.08.57.12.93.12l-.22.67h-5.83l.22-.67c.69,0,1.34-.15,1.97-.45.63-.3,1.2-.69,1.7-1.19l5.48-5.39-2-6.62c-.04-.13-.1-.25-.16-.34-.06-.09-.16-.16-.31-.21-.15-.05-.36-.09-.63-.11-.28-.02-.65-.03-1.11-.01l.22-.67h6.39l-.22.67c-.86,0-1.43.07-1.68.22-.26.15-.33.42-.22.8l1.46,4.76,4.19-4.2c.18-.18.33-.37.44-.56.12-.19.16-.37.13-.51-.03-.15-.16-.27-.39-.37-.23-.1-.6-.15-1.1-.15l.22-.67h5.39l-.22.67c-.4,0-.75.02-1.05.07-.3.04-.56.11-.79.2-.23.09-.44.2-.61.32-.18.13-.34.27-.5.44l-5.45,5.42,2.05,6.4c.09.3.23.54.4.74.17.19.37.35.6.46.22.11.47.19.74.22.27.04.55.06.85.06l-.22.67Z"/>
      <g>
        <path class="cls-4" d="M450.71,210.12c-11.58,10.28-29.17,23.42-52.87,33.06-34.62,14.08-65.36,13.82-83.1,12.13"/>
        <polygon class="cls-5" points="318.37 251.48 318.99 252.26 315.12 255.32 318.45 258.96 317.71 259.63 313.66 255.2 318.37 251.48"/>
      </g>
    </g>
  </g>
</svg>