<?xml version="1.0" encoding="UTF-8"?>
<svg xmlns="http://www.w3.org/2000/svg" version="1.1" viewBox="0 0 600 418.7">
  <defs>
    <style>
      .cls-1 {
        stroke-dasharray: 5.14 5.14 5.14 5.14 5.14 5.14;
      }

      .cls-1, .cls-2, .cls-3, .cls-4 {
        fill: none;
        stroke: #231815;
        stroke-miterlimit: 10;
      }

      .cls-1, .cls-3, .cls-4 {
        stroke-linecap: round;
        stroke-width: 2px;
      }

      .cls-5 {
        fill: #231815;
      }

      .cls-6 {
        fill: #e60012;
      }

      .cls-7 {
        fill: #094;
      }

      .cls-4 {
        stroke-dasharray: 5.14 5.14 5.14 5.14;
      }
    </style>
  </defs>
  <!-- Generator: Adobe Illustrator 28.7.1, SVG Export Plug-In . SVG Version: 1.2.0 Build 142)  -->
  <g>
    <g id="_레이어_1" data-name="레이어_1">
      <path d="M87.89,90.97c-.17.25-.37.54-.62.87-.25.33-.52.64-.81.94-.29.3-.59.55-.91.75-.32.21-.63.31-.93.31-.33,0-.57-.09-.72-.27s-.25-.39-.29-.62c-.04-.23-.05-.46-.02-.69.03-.23.06-.39.1-.49l1.98-5.2c.15-.39.22-.68.22-.89s-.04-.36-.11-.45c-.07-.1-.16-.15-.27-.17s-.19-.02-.25-.02c-.21,0-.46.13-.75.39-.3.26-.62.61-.96,1.04-.34.43-.71.94-1.08,1.52-.38.58-.75,1.19-1.11,1.83s-.7,1.29-1.03,1.95c-.33.66-.62,1.29-.87,1.88h-1.45l3.58-12.39c.1-.33,0-.57-.28-.73-.28-.16-.69-.22-1.23-.18l.06-.41c.41-.08.83-.17,1.26-.27.36-.08.74-.18,1.16-.3.41-.12.79-.24,1.12-.36l-3.68,12.08c.29-.44.59-.91.9-1.42.31-.51.63-1.01.95-1.51.32-.5.65-.98.98-1.44.33-.46.66-.86,1-1.21.34-.35.67-.63,1-.84.33-.21.65-.32.97-.32.18,0,.37.04.57.13.2.09.37.23.51.41s.22.42.26.69-.02.6-.16.97l-1.94,5.11c-.18.47-.23.81-.17,1.03.07.22.23.3.48.25.25-.06.57-.26.97-.63.4-.36.83-.9,1.3-1.6l.27.27Z"/>
      <path d="M94.83,98.5h-5.12v-.37c.53,0,.93-.03,1.2-.09s.46-.14.58-.23c.12-.09.18-.2.19-.31,0-.11.01-.21.01-.29v-6.64c0-.12-.02-.22-.06-.31-.04-.08-.13-.14-.27-.19-.14-.05-.34-.08-.6-.09s-.62-.02-1.07-.02v-.3c.38-.05.76-.12,1.12-.22s.69-.2.99-.3c.34-.12.66-.26.96-.41v8.51c0,.08,0,.17.03.27.02.1.09.2.22.3.13.09.33.17.61.24.28.07.68.1,1.21.1v.35Z"/>
      <path d="M243.04,91.12c-.17.25-.37.54-.62.87-.25.33-.52.64-.81.94-.29.3-.59.55-.91.75-.32.21-.63.31-.93.31-.33,0-.57-.09-.72-.27s-.25-.39-.29-.62c-.04-.23-.05-.46-.02-.69.03-.23.06-.39.1-.49l1.98-5.2c.15-.39.22-.68.22-.89s-.04-.36-.11-.45c-.07-.1-.16-.15-.27-.17s-.19-.02-.25-.02c-.21,0-.46.13-.75.39-.3.26-.62.61-.96,1.04-.34.43-.71.94-1.08,1.52-.38.58-.75,1.19-1.11,1.83s-.7,1.29-1.03,1.95c-.33.66-.62,1.29-.87,1.88h-1.45l3.58-12.39c.1-.33,0-.57-.28-.73-.28-.16-.69-.22-1.23-.18l.06-.41c.41-.08.83-.17,1.26-.27.36-.08.74-.18,1.16-.3.41-.12.79-.24,1.12-.36l-3.68,12.08c.29-.44.59-.91.9-1.42.31-.51.63-1.01.95-1.51.32-.5.65-.98.98-1.44.33-.46.66-.86,1-1.21.34-.35.67-.63,1-.84.33-.21.65-.32.97-.32.18,0,.37.04.57.13.2.09.37.23.51.41s.22.42.26.69-.02.6-.16.97l-1.94,5.11c-.18.47-.23.81-.17,1.03.07.22.23.3.48.25.25-.06.57-.26.97-.63.4-.36.83-.9,1.3-1.6l.27.27Z"/>
      <path d="M250.16,96.36l-.63,2.54h-5.19c.06-.29.19-.6.37-.94s.4-.67.65-1.01c.25-.35.53-.69.82-1.04.3-.35.6-.7.9-1.04.24-.27.46-.54.67-.79s.39-.5.54-.76c.15-.26.27-.52.36-.78s.13-.55.13-.87c0-.61-.15-1.1-.45-1.45-.3-.35-.74-.52-1.3-.52-.14,0-.29.02-.47.06-.18.04-.35.11-.51.2-.16.09-.3.2-.41.33-.11.13-.16.28-.16.45,0,.11.02.2.05.26s.08.13.13.19c.05.07.09.14.13.22.04.08.05.2.05.35,0,.25-.08.43-.24.54-.16.11-.31.17-.45.17-.26,0-.45-.09-.57-.27s-.18-.4-.18-.65c0-.28.08-.56.24-.84s.37-.52.63-.73c.26-.21.56-.39.89-.52.33-.13.67-.2,1.02-.2.43,0,.82.06,1.17.19.35.13.65.3.9.52.25.22.45.47.58.77s.21.6.21.94c0,.35-.06.67-.18.96s-.28.56-.48.81-.41.49-.65.71c-.24.22-.47.44-.68.65-.85.78-1.51,1.43-1.98,1.96s-.75.95-.84,1.26h2.7c.18,0,.35,0,.51-.03.16-.02.32-.08.47-.19s.31-.28.47-.52.32-.58.49-1.03l.3.1Z"/>
      <path d="M512.43,93.36c-.17.25-.37.54-.62.87-.25.33-.52.64-.81.94-.29.3-.59.55-.91.75-.32.21-.63.31-.93.31-.33,0-.57-.09-.72-.27s-.25-.38-.29-.62-.05-.46-.02-.69c.03-.23.06-.39.1-.49l1.98-5.2c.15-.39.22-.68.22-.89,0-.21-.04-.36-.11-.45-.07-.1-.16-.15-.27-.17s-.19-.02-.25-.02c-.21,0-.46.13-.75.39-.3.26-.62.61-.96,1.04-.34.43-.71.94-1.08,1.52s-.75,1.19-1.11,1.83c-.36.64-.7,1.29-1.03,1.95-.33.66-.62,1.29-.87,1.88h-1.45l3.58-12.39c.1-.33,0-.57-.28-.73-.28-.16-.69-.22-1.23-.17l.06-.41c.41-.08.83-.17,1.26-.27.36-.08.74-.18,1.16-.3.41-.12.79-.24,1.12-.36l-3.68,12.08c.29-.44.59-.91.9-1.42.31-.51.63-1.01.95-1.51.32-.5.65-.98.98-1.44.33-.46.66-.87,1-1.21s.67-.63,1-.84c.33-.21.65-.32.97-.32.18,0,.37.04.57.13.2.09.37.23.51.41s.22.42.26.69c.03.27-.02.6-.16.97l-1.94,5.11c-.18.47-.23.81-.17,1.03.07.22.23.3.48.25.25-.05.57-.26.97-.63.4-.36.83-.9,1.3-1.6l.27.27Z"/>
      <path d="M528.89,91.42c-.34,0-.6,0-.8.02-.2.01-.35.05-.47.11-.12.06-.21.14-.27.26-.07.12-.13.28-.2.49l-2.38,7.14c-.04.11-.06.23-.07.34,0,.11.03.22.1.31.07.09.19.17.36.23s.41.09.72.09l-.16.48h-4.04l.16-.48c.27,0,.51-.02.71-.07.2-.05.36-.11.5-.19.13-.08.24-.17.31-.27.07-.1.13-.2.16-.3l2.75-8.26-6.9,9.63h-.29l-.49-9.5-2.57,7.7c-.05.14-.07.29-.07.44,0,.15.04.29.11.41.07.12.19.22.34.3.16.08.37.12.64.12l-.16.47h-3.29l.16-.47c.25,0,.47-.04.67-.12.2-.08.37-.18.52-.3.15-.12.27-.26.36-.41.1-.15.17-.3.21-.44l2.21-6.64c.13-.4.12-.68-.03-.86-.15-.18-.49-.27-1.01-.27l.15-.44h3.04l.31,8.16,5.82-8.14h3.03l-.16.47Z"/>
      <path d="M88.28,373.39c0,.39-.07.82-.2,1.29-.13.48-.3.95-.51,1.42-.21.47-.44.93-.69,1.37-.25.44-.51.81-.75,1.12-1.01,1.21-2.05,2.14-3.12,2.78-1.08.64-2.09.96-3.06.96-.19,0-.32-.11-.39-.32-.07-.21.01-.51.25-.88.17-.26.32-.55.45-.87.14-.32.26-.64.36-.96.1-.32.19-.64.26-.95.07-.31.12-.59.14-.86s.04-.53.04-.82-.01-.55-.04-.81c-.03-.25-.07-.49-.13-.71-.06-.22-.13-.4-.22-.54-.11-.19-.21-.39-.31-.58-.1-.19-.16-.38-.2-.56-.04-.18-.02-.34.05-.49.07-.15.22-.27.45-.36,1.05-.48,1.61.43,1.67,2.75.03.65-.04,1.27-.21,1.88-.17.61-.37,1.17-.6,1.69-.11.25-.21.48-.3.7-.09.22-.17.42-.24.6-.08.21-.17.39-.25.56.87-.33,1.6-.67,2.2-1.02.6-.35,1.11-.7,1.52-1.04.41-.34.75-.67,1.02-.99.27-.32.51-.61.71-.89.23-.3.43-.63.6-.98.17-.35.3-.7.4-1.04.1-.34.18-.68.24-1,.05-.32.09-.61.1-.86.01-.23.06-.38.13-.43.08-.05.16-.05.25.01.09.06.17.17.24.32.07.15.1.32.1.5Z"/>
      <path d="M95.83,386.96h-5.12v-.37c.53,0,.93-.03,1.2-.09s.46-.14.58-.23c.12-.09.18-.2.19-.31,0-.11.01-.21.01-.29v-6.64c0-.12-.02-.22-.06-.3s-.13-.14-.27-.19c-.14-.05-.34-.08-.6-.09-.26-.01-.62-.02-1.07-.02v-.3c.38-.05.76-.12,1.12-.22.37-.1.69-.2.99-.3.34-.12.66-.26.96-.41v8.51c0,.08,0,.17.03.27.02.1.09.2.22.3.13.09.33.17.61.24.28.07.68.1,1.21.1v.35Z"/>
      <path d="M246.22,370.94c0,.39-.07.82-.2,1.29-.13.47-.3.95-.51,1.42-.21.47-.44.93-.69,1.37-.25.44-.51.81-.75,1.12-1.01,1.21-2.05,2.14-3.12,2.78-1.08.64-2.09.96-3.06.96-.19,0-.32-.11-.39-.32-.07-.21.01-.51.25-.88.17-.26.32-.55.45-.87.14-.32.26-.64.36-.96.1-.32.19-.64.26-.95.07-.31.12-.59.14-.86s.04-.53.04-.82-.01-.55-.04-.81c-.03-.25-.07-.49-.13-.71-.06-.22-.13-.4-.22-.54-.11-.19-.21-.39-.31-.58-.1-.19-.16-.38-.2-.56-.04-.18-.02-.34.05-.49.07-.15.22-.27.45-.36,1.05-.48,1.61.43,1.67,2.75.03.65-.04,1.27-.21,1.88-.17.61-.37,1.17-.6,1.69-.11.25-.21.48-.3.7-.09.22-.17.42-.24.6-.08.21-.17.39-.25.56.87-.33,1.6-.67,2.2-1.02.6-.35,1.11-.7,1.52-1.04.41-.34.75-.67,1.02-.99.27-.32.51-.61.71-.89.23-.3.43-.63.6-.98.17-.35.3-.7.4-1.04.1-.34.18-.68.24-1s.09-.61.1-.86c.01-.23.06-.38.13-.43.08-.05.16-.05.25,0,.09.06.17.17.24.32.07.15.1.32.1.5Z"/>
      <path d="M253.93,382.23l-.63,2.54h-5.19c.06-.29.19-.6.37-.94s.4-.67.65-1.01c.25-.34.53-.69.82-1.04.3-.35.6-.7.9-1.04.24-.27.46-.54.67-.79.21-.25.39-.5.54-.76.15-.25.27-.52.36-.78s.13-.55.13-.87c0-.61-.15-1.1-.45-1.45-.3-.35-.74-.53-1.3-.53-.14,0-.29.02-.47.06-.18.04-.35.11-.51.2-.16.09-.3.2-.41.33-.11.13-.16.28-.16.45,0,.11.02.2.05.26s.08.12.13.19c.05.07.09.14.13.22.04.08.05.2.05.35,0,.25-.08.43-.24.54-.16.11-.31.17-.45.17-.26,0-.45-.09-.57-.27s-.18-.4-.18-.65c0-.28.08-.56.24-.84s.37-.52.63-.73c.26-.21.56-.38.89-.52.33-.13.67-.2,1.02-.2.43,0,.82.06,1.17.19.35.13.65.3.9.52.25.22.45.47.58.77s.21.61.21.94c0,.35-.06.67-.18.96-.12.29-.28.56-.48.81-.2.25-.41.49-.65.71-.24.22-.47.44-.68.65-.85.78-1.51,1.43-1.98,1.96s-.75.95-.84,1.25h2.7c.18,0,.35,0,.51-.03.16-.02.32-.08.47-.19.16-.11.31-.28.47-.52s.32-.58.49-1.03l.3.1Z"/>
      <path d="M513.34,369.23c0,.39-.07.82-.2,1.29-.13.48-.3.95-.51,1.42-.21.48-.44.93-.69,1.37s-.51.81-.75,1.12c-1.01,1.21-2.05,2.14-3.12,2.78-1.08.64-2.09.96-3.06.96-.19,0-.32-.11-.39-.32-.07-.21.01-.51.25-.88.17-.26.32-.55.45-.87.14-.32.26-.64.36-.96.1-.32.19-.64.26-.95.07-.31.12-.6.14-.86s.04-.53.04-.82-.01-.55-.04-.81-.07-.49-.13-.71c-.06-.22-.13-.4-.22-.54-.11-.19-.21-.38-.31-.58-.1-.19-.16-.38-.2-.56-.04-.18-.02-.34.05-.49.07-.14.22-.26.45-.36,1.05-.48,1.61.43,1.67,2.75.03.65-.04,1.27-.21,1.88-.17.61-.37,1.17-.6,1.69-.11.25-.21.48-.3.7-.09.22-.17.42-.24.6-.08.21-.17.39-.25.56.87-.33,1.6-.67,2.2-1.02.6-.35,1.11-.7,1.52-1.04.41-.34.75-.67,1.02-.99.27-.32.51-.61.71-.89.23-.3.43-.63.6-.98.17-.35.3-.7.4-1.04.1-.34.18-.68.24-1,.05-.32.09-.61.1-.86.01-.23.06-.38.13-.43.08-.05.16-.05.25.01.09.06.17.17.24.32.07.15.1.32.1.5Z"/>
      <path d="M530.4,373.33c-.34,0-.61,0-.8.02-.2.01-.35.05-.47.11-.11.06-.21.14-.27.26-.07.12-.13.28-.2.49l-2.38,7.14c-.04.11-.06.23-.07.34s.03.22.1.31c.07.09.19.17.36.23.17.06.41.09.72.09l-.16.48h-4.04l.16-.48c.27,0,.51-.02.71-.07.2-.05.36-.11.5-.19.13-.08.24-.17.31-.27.07-.1.13-.2.16-.3l2.75-8.26-6.9,9.63h-.29l-.49-9.5-2.57,7.7c-.05.14-.07.29-.07.44s.04.29.11.41.19.22.34.3.37.12.65.12l-.16.47h-3.29l.16-.47c.25,0,.47-.04.67-.12.2-.08.37-.18.52-.3.15-.12.27-.26.36-.41.1-.15.17-.3.21-.44l2.21-6.64c.13-.4.12-.68-.03-.86-.15-.18-.49-.27-1.01-.27l.15-.44h3.04l.31,8.16,5.82-8.14h3.03l-.16.47Z"/>
      <path d="M92.96,149.41c-.07.17-.17.33-.32.49-.14.16-.31.3-.51.42-.19.12-.41.21-.64.26s-.48.04-.74-.03c-.18-.06-.31-.11-.4-.16-.09-.05-.17-.11-.23-.17-.06-.06-.12-.13-.17-.2-.05-.07-.11-.14-.2-.23-.17.1-.32.2-.46.3s-.31.21-.51.31c-.19.1-.42.19-.68.27s-.58.12-.97.14c-.54.03-.99-.06-1.34-.26s-.64-.41-.85-.63c-.06.25-.13.52-.23.82-.1.29-.21.7-.35,1.21-.05.23-.1.47-.12.7-.03.23-.06.46-.09.68-.03.22-.09.43-.17.62-.08.19-.19.36-.34.5-.15.12-.32.19-.52.2-.19,0-.37-.03-.52-.11-.15-.08-.27-.2-.34-.35-.08-.15-.08-.32,0-.52.18-.44.37-.87.57-1.29.2-.42.39-.82.57-1.21.22-.45.42-.87.6-1.25.18-.39.31-.7.39-.94,0-.58.06-1.26.18-2.04s.35-1.56.71-2.31c.11-.23.25-.55.43-.94.18-.39.4-.73.66-1.02.08-.08.19-.18.33-.29s.28-.19.42-.24.27-.04.38,0c.11.06.17.2.17.43.01.32-.07.67-.26,1.07-.19.4-.44.92-.78,1.57-.43.83-.77,1.54-1.02,2.13-.26.59-.36,1.12-.32,1.59.01.11.05.23.11.37.06.14.17.26.31.37s.33.21.56.29c.23.08.51.13.86.14.34.01.66-.02.96-.1.3-.08.55-.19.75-.32.21-.13.37-.27.5-.42s.2-.29.23-.41c-.01-.29.01-.62.08-1,.07-.38.16-.77.28-1.18s.25-.79.39-1.17.28-.7.4-.97c.05-.14.13-.31.24-.52.1-.21.22-.42.34-.64.12-.22.26-.43.4-.64.14-.21.29-.37.42-.5.05-.05.13-.11.23-.18.1-.06.19-.08.28-.04s.16.13.22.29c.05.16.07.43.04.82-.03.45-.14.95-.34,1.49-.2.54-.4,1.03-.61,1.49-.12.29-.27.59-.44.9-.17.31-.33.6-.48.88s-.27.51-.36.71c-.1.2-.14.33-.12.38.03.18.11.3.25.36.14.06.3.08.5.05.19-.03.4-.09.62-.2s.43-.23.62-.38c.15-.11.27-.17.36-.18s.15.02.18.09c.03.07.03.17.01.3s-.06.27-.11.4Z"/>
      <path d="M100.53,156.65h-5.12v-.37c.53,0,.93-.03,1.2-.09s.46-.14.58-.23c.12-.09.18-.2.19-.3s.01-.21.01-.29v-6.64c0-.12-.02-.22-.06-.31-.04-.08-.13-.14-.27-.19-.14-.05-.34-.08-.6-.09s-.62-.02-1.07-.02v-.3c.38-.05.76-.12,1.12-.22s.69-.2.99-.3c.34-.12.66-.26.96-.41v8.51c0,.08,0,.17.03.27.02.1.09.2.22.3.13.09.33.18.61.24.28.07.68.1,1.21.1v.35Z"/>
      <path d="M248.12,149.51c-.07.17-.17.33-.32.49-.14.16-.31.3-.51.42-.19.12-.41.21-.64.26s-.48.04-.74-.03c-.18-.06-.31-.11-.4-.16-.09-.05-.17-.11-.23-.17-.06-.06-.12-.13-.17-.2-.05-.07-.11-.14-.2-.23-.17.1-.32.2-.46.3s-.31.21-.51.31c-.19.1-.42.19-.68.27s-.58.12-.97.14c-.54.03-.99-.06-1.34-.26s-.64-.41-.85-.63c-.06.25-.13.52-.23.82-.1.29-.21.7-.35,1.21-.05.23-.1.47-.12.7-.03.23-.06.46-.09.68-.03.22-.09.43-.17.62-.08.19-.19.36-.34.5-.15.12-.32.19-.52.2-.19,0-.37-.03-.52-.11-.15-.08-.27-.2-.34-.35-.08-.15-.08-.32,0-.52.18-.44.37-.87.57-1.29.2-.42.39-.82.57-1.21.22-.45.42-.87.6-1.25.18-.39.31-.7.39-.94,0-.58.06-1.26.18-2.04s.35-1.56.71-2.31c.11-.23.25-.55.43-.94.18-.39.4-.73.66-1.02.08-.08.19-.18.33-.29s.28-.19.42-.24.27-.04.38,0c.11.06.17.2.17.43.01.32-.07.67-.26,1.07-.19.4-.44.92-.78,1.57-.43.83-.77,1.54-1.02,2.13-.26.59-.36,1.12-.32,1.59.01.11.05.23.11.37.06.14.17.26.31.37s.33.21.56.29c.23.08.51.13.86.14.34.01.66-.02.96-.1.3-.08.55-.19.75-.32.21-.13.37-.27.5-.42s.2-.29.23-.41c-.01-.29.01-.62.08-1,.07-.38.16-.77.28-1.18s.25-.79.39-1.17.28-.7.4-.97c.05-.14.13-.31.24-.52.1-.21.22-.42.34-.64.12-.22.26-.43.4-.64.14-.21.29-.37.42-.5.05-.05.13-.11.23-.18.1-.06.19-.08.28-.04s.16.13.22.29c.05.16.07.43.04.82-.03.45-.14.95-.34,1.49-.2.54-.4,1.03-.61,1.49-.12.29-.27.59-.44.9-.17.31-.33.6-.48.88s-.27.51-.36.71c-.1.2-.14.33-.12.38.03.18.11.3.25.36.14.06.3.08.5.05.19-.03.4-.09.62-.2s.43-.23.62-.38c.15-.11.27-.17.36-.18s.15.02.18.09c.03.07.03.17.01.3s-.06.27-.11.4Z"/>
      <path d="M255.86,153.95l-.63,2.54h-5.19c.06-.29.19-.61.37-.94.18-.33.4-.67.65-1.01.25-.35.53-.69.82-1.04.3-.35.6-.69.9-1.04.24-.27.46-.54.67-.79s.39-.5.54-.76c.15-.26.27-.52.36-.78s.13-.55.13-.87c0-.61-.15-1.1-.45-1.45-.3-.35-.74-.52-1.3-.52-.14,0-.29.02-.47.06-.18.04-.35.11-.51.2-.16.09-.3.2-.41.33-.11.13-.16.28-.16.45,0,.11.02.2.05.26s.08.12.13.19c.05.07.09.14.13.22.04.08.05.2.05.35,0,.25-.08.42-.24.54-.16.11-.31.17-.45.17-.26,0-.45-.09-.57-.27s-.18-.4-.18-.65c0-.28.08-.56.24-.84s.37-.52.63-.73c.26-.21.56-.39.89-.52.33-.13.67-.2,1.02-.2.43,0,.82.06,1.17.19.35.13.65.3.9.52.25.22.45.47.58.77s.21.61.21.94c0,.35-.06.67-.18.96s-.28.56-.48.81c-.2.25-.41.49-.65.71-.24.22-.47.44-.68.65-.85.78-1.51,1.43-1.98,1.96s-.75.95-.84,1.25h2.7c.18,0,.35,0,.51-.03.16-.02.32-.08.47-.19s.31-.28.47-.53c.16-.24.32-.58.49-1.03l.3.1Z"/>
      <path d="M509.81,146.83c-.07.17-.17.33-.32.49-.14.16-.31.3-.51.42-.19.12-.41.21-.64.26s-.48.04-.74-.03c-.18-.06-.31-.11-.4-.16-.09-.05-.17-.11-.23-.17-.06-.06-.12-.13-.17-.2-.05-.07-.11-.14-.2-.23-.17.1-.32.2-.46.3s-.31.21-.51.31c-.19.1-.42.19-.68.27s-.58.12-.97.14c-.54.03-.99-.06-1.34-.26s-.64-.41-.85-.63c-.06.25-.13.52-.23.82-.1.29-.21.7-.35,1.21-.05.23-.1.47-.12.7-.03.23-.06.46-.09.68-.03.22-.09.43-.17.62-.08.19-.19.36-.34.5-.15.12-.32.19-.52.2-.19,0-.37-.03-.52-.11-.15-.08-.27-.2-.34-.35-.08-.15-.08-.32,0-.52.18-.44.37-.87.57-1.29.2-.42.39-.82.57-1.21.22-.45.42-.87.6-1.25.18-.39.31-.7.39-.94,0-.58.06-1.26.18-2.04s.35-1.56.71-2.31c.11-.23.25-.55.43-.94.18-.39.4-.73.66-1.02.08-.08.19-.18.33-.29s.28-.19.42-.24.27-.04.38,0c.11.06.17.2.17.43.01.32-.07.67-.26,1.07-.19.4-.44.92-.78,1.57-.43.83-.77,1.54-1.02,2.13-.26.59-.36,1.12-.32,1.59.01.11.05.23.11.37.06.14.17.26.31.37s.33.21.56.29c.23.08.51.13.86.14.34.01.66-.02.96-.1.3-.08.55-.19.75-.32.21-.13.37-.27.5-.42s.2-.29.23-.41c-.01-.29.01-.62.08-1,.07-.38.16-.77.28-1.18s.25-.79.39-1.17.28-.7.4-.97c.05-.14.13-.31.24-.52.1-.21.22-.42.34-.64.12-.22.26-.43.4-.64.14-.21.29-.37.42-.5.05-.05.13-.11.23-.18.1-.06.19-.08.28-.04s.16.13.22.29c.05.16.07.43.04.82-.03.45-.14.95-.34,1.49-.2.54-.4,1.03-.61,1.49-.12.29-.27.59-.44.9-.17.31-.33.6-.48.88s-.27.51-.36.71c-.1.2-.14.33-.12.38.03.18.11.3.25.36.14.06.3.08.5.05.19-.03.4-.09.62-.2s.43-.23.62-.38c.15-.11.27-.17.36-.18s.15.02.18.09c.03.07.03.17.01.3s-.06.27-.11.4Z"/>
      <path d="M526.89,144.6c-.34,0-.6,0-.8.02-.2.01-.35.05-.47.11-.11.06-.21.14-.27.26-.07.12-.13.28-.2.49l-2.38,7.14c-.04.11-.06.23-.07.34,0,.11.03.22.1.31.07.09.19.17.36.23s.41.09.72.09l-.16.48h-4.04l.16-.48c.27,0,.51-.02.71-.07s.36-.11.5-.19c.13-.08.24-.17.31-.27.07-.1.13-.2.16-.3l2.75-8.26-6.9,9.63h-.29l-.49-9.5-2.57,7.7c-.05.14-.07.29-.07.44s.04.29.11.41c.07.12.19.22.34.3.16.08.37.12.65.12l-.16.47h-3.29l.16-.47c.25,0,.47-.04.67-.12.2-.08.37-.18.52-.3.15-.12.27-.26.36-.41.1-.15.17-.3.21-.44l2.21-6.64c.13-.4.12-.68-.03-.86-.15-.18-.49-.27-1.01-.27l.15-.44h3.04l.31,8.16,5.82-8.14h3.03l-.16.47Z"/>
      <g>
        <line class="cls-2" x1="85.04" y1="315.13" x2="85.04" y2="334.39"/>
        <polygon class="cls-5" points="80.95 331.08 81.68 330.4 85.04 334.01 88.39 330.4 89.13 331.08 85.04 335.48 80.95 331.08"/>
      </g>
      <g>
        <line class="cls-2" x1="240.17" y1="315.13" x2="240.17" y2="334.39"/>
        <polygon class="cls-5" points="236.08 331.08 236.81 330.4 240.17 334.01 243.52 330.4 244.26 331.08 240.17 335.48 236.08 331.08"/>
      </g>
      <g>
        <line class="cls-2" x1="511.61" y1="309.79" x2="511.61" y2="329.06"/>
        <polygon class="cls-5" points="507.52 325.74 508.25 325.06 511.61 328.67 514.96 325.06 515.7 325.74 511.61 330.14 507.52 325.74"/>
      </g>
      <g>
        <line class="cls-3" x1="326.39" y1="227.42" x2="328.89" y2="227.42"/>
        <line class="cls-4" x1="334.03" y1="227.42" x2="352.01" y2="227.42"/>
        <line class="cls-1" x1="354.58" y1="227.42" x2="413.67" y2="227.42"/>
        <line class="cls-3" x1="416.24" y1="227.42" x2="418.74" y2="227.42"/>
      </g>
    </g>
    <g id="_원통" data-name="원통">
      <path class="cls-2" d="M183.39,147.25c4.39,6.78,9.15,16.47,10.97,28.69,2.46,16.53-1.6,30.07-3.38,35.16-3.74,10.75-7.16,12.24-11.81,27-2.67,8.47-3.78,15.06-4.22,18-.76,5.07-1.92,12.84-1.13,21.66.56,6.2,2.52,17.63,10.69,30.66h110.27"/>
      <path class="cls-2" d="M294.22,146.4c-1.72,4.09-3.68,9.4-5.34,15.75-.97,3.69-2.39,9.2-3.09,16.6-.98,10.25,0,18.11.56,22.5.61,4.72,1.27,9.6,3.38,15.75,1.14,3.34,2.37,5.93,4.78,10.97,5.43,11.37,6.18,11.06,7.88,15.47,2.76,7.18,2.78,13.16,2.81,21.94.04,10.17-1.5,17.81-1.97,19.97-2,9.3-5.23,17.04-8.44,23.07"/>
      <circle class="cls-7" cx="209.54" cy="172.34" r="5.04"/>
      <circle class="cls-7" cx="229.71" cy="172.34" r="5.04"/>
      <circle class="cls-7" cx="239.79" cy="172.34" r="5.04"/>
      <circle class="cls-7" cx="260.06" cy="172.28" r="5.04"/>
      <circle class="cls-7" cx="280.23" cy="172.28" r="5.04"/>
      <circle class="cls-7" cx="204.2" cy="182.42" r="5.04"/>
      <circle class="cls-7" cx="224.37" cy="182.42" r="5.04"/>
      <circle class="cls-7" cx="234.45" cy="182.42" r="5.04"/>
      <circle class="cls-7" cx="254.62" cy="182.42" r="5.04"/>
      <circle class="cls-7" cx="274.88" cy="182.36" r="5.04"/>
      <circle class="cls-7" cx="199.11" cy="192.63" r="5.04"/>
      <circle class="cls-7" cx="219.28" cy="192.63" r="5.04"/>
      <circle class="cls-7" cx="229.36" cy="192.63" r="5.04"/>
      <circle class="cls-7" cx="239.44" cy="192.63" r="5.04"/>
      <circle class="cls-7" cx="279.88" cy="192.57" r="5.04"/>
      <circle class="cls-7" cx="214.53" cy="202.71" r="5.04"/>
      <circle class="cls-7" cx="234.7" cy="202.71" r="5.04"/>
      <circle class="cls-7" cx="254.87" cy="202.71" r="5.04"/>
      <circle class="cls-7" cx="265.05" cy="202.65" r="5.04"/>
      <circle class="cls-7" cx="199.06" cy="212.57" r="5.04"/>
      <circle class="cls-7" cx="219.23" cy="212.57" r="5.04"/>
      <circle class="cls-7" cx="229.31" cy="212.57" r="5.04"/>
      <circle class="cls-7" cx="249.48" cy="212.57" r="5.04"/>
      <circle class="cls-7" cx="279.83" cy="212.51" r="5.04"/>
      <circle class="cls-7" cx="194.08" cy="222.78" r="5.04"/>
      <circle class="cls-7" cx="204.16" cy="222.78" r="5.04"/>
      <circle class="cls-7" cx="214.24" cy="222.78" r="5.04"/>
      <circle class="cls-7" cx="224.33" cy="222.78" r="5.04"/>
      <circle class="cls-7" cx="234.41" cy="222.78" r="5.04"/>
      <circle class="cls-7" cx="244.5" cy="222.78" r="5.04"/>
      <circle class="cls-7" cx="264.76" cy="222.72" r="5.04"/>
      <circle class="cls-7" cx="274.85" cy="222.72" r="5.04"/>
      <circle class="cls-7" cx="199.01" cy="233.05" r="5.04"/>
      <circle class="cls-7" cx="219.18" cy="233.05" r="5.04"/>
      <circle class="cls-7" cx="239.34" cy="233.05" r="5.04"/>
      <circle class="cls-7" cx="249.53" cy="232.99" r="5.04"/>
      <circle class="cls-7" cx="259.61" cy="232.99" r="5.04"/>
      <circle class="cls-7" cx="183.83" cy="242.91" r="5.04"/>
      <circle class="cls-7" cx="204" cy="242.91" r="5.04"/>
      <circle class="cls-7" cx="224.17" cy="242.91" r="5.04"/>
      <circle class="cls-7" cx="234.25" cy="242.91" r="5.04"/>
      <circle class="cls-7" cx="244.44" cy="242.85" r="5.04"/>
      <circle class="cls-7" cx="264.6" cy="242.85" r="5.04"/>
      <circle class="cls-7" cx="190.55" cy="252.83" r="5.04"/>
      <circle class="cls-7" cx="200.63" cy="252.83" r="5.04"/>
      <circle class="cls-7" cx="210.72" cy="252.83" r="5.04"/>
      <circle class="cls-7" cx="220.8" cy="252.83" r="5.04"/>
      <circle class="cls-7" cx="241.07" cy="252.77" r="5.04"/>
      <circle class="cls-7" cx="251.15" cy="252.77" r="5.04"/>
      <circle class="cls-7" cx="204.11" cy="263.37" r="5.04"/>
      <circle class="cls-7" cx="214.19" cy="263.37" r="5.04"/>
      <circle class="cls-7" cx="224.28" cy="263.37" r="5.04"/>
      <circle class="cls-7" cx="234.36" cy="263.37" r="5.04"/>
      <circle class="cls-7" cx="254.63" cy="263.31" r="5.04"/>
      <circle class="cls-7" cx="264.71" cy="263.31" r="5.04"/>
      <circle class="cls-7" cx="189.65" cy="273.2" r="5.04"/>
      <circle class="cls-7" cx="199.73" cy="273.2" r="5.04"/>
      <circle class="cls-7" cx="209.82" cy="273.2" r="5.04"/>
      <circle class="cls-7" cx="229.98" cy="273.2" r="5.04"/>
      <circle class="cls-7" cx="240.17" cy="273.14" r="5.04"/>
      <circle class="cls-7" cx="260.33" cy="273.14" r="5.04"/>
      <circle class="cls-7" cx="184.56" cy="283.09" r="5.04"/>
      <circle class="cls-7" cx="204.73" cy="283.09" r="5.04"/>
      <circle class="cls-7" cx="224.89" cy="283.09" r="5.04"/>
      <circle class="cls-7" cx="234.98" cy="283.09" r="5.04"/>
      <circle class="cls-7" cx="265.33" cy="283.03" r="5.04"/>
      <circle class="cls-7" cx="188.94" cy="293.17" r="5.04"/>
      <circle class="cls-7" cx="209.1" cy="293.17" r="5.04"/>
      <circle class="cls-7" cx="239.35" cy="293.17" r="5.04"/>
      <circle class="cls-7" cx="249.54" cy="293.11" r="5.04"/>
      <circle class="cls-7" cx="269.7" cy="293.11" r="5.04"/>
      <circle class="cls-7" cx="193.98" cy="302.87" r="5.04"/>
      <circle class="cls-7" cx="214.15" cy="302.87" r="5.04"/>
      <circle class="cls-7" cx="224.23" cy="302.87" r="5.04"/>
      <circle class="cls-7" cx="234.31" cy="302.87" r="5.04"/>
      <circle class="cls-7" cx="254.58" cy="302.81" r="5.04"/>
      <circle class="cls-7" cx="274.75" cy="302.81" r="5.04"/>
      <circle class="cls-7" cx="274.69" cy="242.94" r="5.04"/>
      <circle class="cls-7" cx="284.87" cy="242.88" r="5.04"/>
      <circle class="cls-7" cx="271.32" cy="253.08" r="5.04"/>
      <circle class="cls-7" cx="291.58" cy="253.02" r="5.04"/>
      <circle class="cls-7" cx="274.74" cy="263.34" r="5.04"/>
      <circle class="cls-7" cx="284.92" cy="263.28" r="5.04"/>
      <circle class="cls-7" cx="295" cy="263.28" r="5.04"/>
      <circle class="cls-7" cx="280.37" cy="273.11" r="5.04"/>
      <circle class="cls-7" cx="274.74" cy="283.06" r="5.04"/>
      <circle class="cls-7" cx="295" cy="283" r="5.04"/>
      <circle class="cls-7" cx="290.29" cy="293.14" r="5.04"/>
      <circle class="cls-7" cx="280.1" cy="232.8" r="5.04"/>
      <path class="cls-2" d="M449.89,143.69c4.39,6.78,9.15,16.47,10.97,28.69,2.46,16.53-1.6,30.07-3.38,35.16-3.74,10.75-7.16,12.24-11.81,27-2.67,8.47-3.78,15.06-4.22,18-.76,5.07-1.92,12.84-1.13,21.66.56,6.2,2.52,17.63,10.69,30.66h110.27"/>
      <path class="cls-2" d="M560.72,142.85c-1.72,4.09-3.68,9.4-5.34,15.75-.97,3.69-2.39,9.2-3.09,16.6-.98,10.25,0,18.11.56,22.5.61,4.72,1.27,9.6,3.38,15.75,1.14,3.34,2.37,5.93,4.78,10.97,5.43,11.37,6.18,11.06,7.88,15.47,2.76,7.18,2.78,13.16,2.81,21.94.04,10.17-1.5,17.81-1.97,19.97-2,9.3-5.23,17.04-8.44,23.07"/>
      <circle class="cls-7" cx="476.04" cy="168.79" r="5.04"/>
      <circle class="cls-7" cx="496.21" cy="168.79" r="5.04"/>
      <circle class="cls-7" cx="506.29" cy="168.79" r="5.04"/>
      <circle class="cls-7" cx="526.56" cy="168.73" r="5.04"/>
      <circle class="cls-7" cx="546.72" cy="168.73" r="5.04"/>
      <circle class="cls-7" cx="470.7" cy="178.87" r="5.04"/>
      <circle class="cls-7" cx="490.86" cy="178.87" r="5.04"/>
      <circle class="cls-7" cx="500.95" cy="178.87" r="5.04"/>
      <circle class="cls-7" cx="521.12" cy="178.87" r="5.04"/>
      <circle class="cls-7" cx="541.38" cy="178.81" r="5.04"/>
      <circle class="cls-7" cx="465.61" cy="189.08" r="5.04"/>
      <circle class="cls-7" cx="485.77" cy="189.08" r="5.04"/>
      <circle class="cls-7" cx="495.86" cy="189.08" r="5.04"/>
      <circle class="cls-7" cx="505.94" cy="189.08" r="5.04"/>
      <circle class="cls-7" cx="546.37" cy="189.01" r="5.04"/>
      <circle class="cls-7" cx="481.03" cy="199.16" r="5.04"/>
      <circle class="cls-7" cx="501.2" cy="199.16" r="5.04"/>
      <circle class="cls-7" cx="521.37" cy="199.16" r="5.04"/>
      <circle class="cls-7" cx="531.55" cy="199.1" r="5.04"/>
      <circle class="cls-7" cx="465.56" cy="209.02" r="5.04"/>
      <circle class="cls-7" cx="485.72" cy="209.02" r="5.04"/>
      <circle class="cls-7" cx="495.81" cy="209.02" r="5.04"/>
      <circle class="cls-7" cx="515.98" cy="209.02" r="5.04"/>
      <circle class="cls-7" cx="546.33" cy="208.96" r="5.04"/>
      <circle class="cls-7" cx="460.58" cy="219.23" r="5.04"/>
      <circle class="cls-7" cx="470.66" cy="219.23" r="5.04"/>
      <circle class="cls-7" cx="480.74" cy="219.23" r="5.04"/>
      <circle class="cls-7" cx="490.83" cy="219.23" r="5.04"/>
      <circle class="cls-7" cx="500.91" cy="219.23" r="5.04"/>
      <circle class="cls-7" cx="510.99" cy="219.23" r="5.04"/>
      <circle class="cls-7" cx="531.26" cy="219.17" r="5.04"/>
      <circle class="cls-7" cx="541.34" cy="219.17" r="5.04"/>
      <circle class="cls-7" cx="465.51" cy="229.5" r="5.04"/>
      <circle class="cls-7" cx="485.67" cy="229.5" r="5.04"/>
      <circle class="cls-7" cx="505.84" cy="229.5" r="5.04"/>
      <circle class="cls-7" cx="516.02" cy="229.44" r="5.04"/>
      <circle class="cls-7" cx="526.11" cy="229.44" r="5.04"/>
      <circle class="cls-7" cx="450.33" cy="239.36" r="5.04"/>
      <circle class="cls-7" cx="470.5" cy="239.36" r="5.04"/>
      <circle class="cls-7" cx="490.67" cy="239.36" r="5.04"/>
      <circle class="cls-7" cx="500.75" cy="239.36" r="5.04"/>
      <circle class="cls-7" cx="510.93" cy="239.29" r="5.04"/>
      <circle class="cls-7" cx="531.1" cy="239.29" r="5.04"/>
      <circle class="cls-7" cx="457.05" cy="249.27" r="5.04"/>
      <circle class="cls-7" cx="467.13" cy="249.27" r="5.04"/>
      <circle class="cls-7" cx="477.22" cy="249.27" r="5.04"/>
      <circle class="cls-7" cx="487.3" cy="249.27" r="5.04"/>
      <circle class="cls-7" cx="507.57" cy="249.21" r="5.04"/>
      <circle class="cls-7" cx="517.65" cy="249.21" r="5.04"/>
      <circle class="cls-7" cx="470.61" cy="259.81" r="5.04"/>
      <circle class="cls-7" cx="480.69" cy="259.81" r="5.04"/>
      <circle class="cls-7" cx="490.78" cy="259.81" r="5.04"/>
      <circle class="cls-7" cx="500.86" cy="259.81" r="5.04"/>
      <circle class="cls-7" cx="521.13" cy="259.75" r="5.04"/>
      <circle class="cls-7" cx="531.21" cy="259.75" r="5.04"/>
      <circle class="cls-7" cx="456.15" cy="269.64" r="5.04"/>
      <circle class="cls-7" cx="466.23" cy="269.64" r="5.04"/>
      <circle class="cls-7" cx="476.32" cy="269.64" r="5.04"/>
      <circle class="cls-7" cx="496.48" cy="269.64" r="5.04"/>
      <circle class="cls-7" cx="506.67" cy="269.58" r="5.04"/>
      <circle class="cls-7" cx="526.83" cy="269.58" r="5.04"/>
      <circle class="cls-7" cx="451.06" cy="279.54" r="5.04"/>
      <circle class="cls-7" cx="471.22" cy="279.54" r="5.04"/>
      <circle class="cls-7" cx="491.39" cy="279.54" r="5.04"/>
      <circle class="cls-7" cx="501.47" cy="279.54" r="5.04"/>
      <circle class="cls-7" cx="531.82" cy="279.48" r="5.04"/>
      <circle class="cls-7" cx="455.43" cy="289.62" r="5.04"/>
      <circle class="cls-7" cx="475.6" cy="289.62" r="5.04"/>
      <circle class="cls-7" cx="505.85" cy="289.62" r="5.04"/>
      <circle class="cls-7" cx="516.04" cy="289.56" r="5.04"/>
      <circle class="cls-7" cx="536.2" cy="289.56" r="5.04"/>
      <circle class="cls-7" cx="460.48" cy="299.32" r="5.04"/>
      <circle class="cls-7" cx="480.64" cy="299.32" r="5.04"/>
      <circle class="cls-7" cx="490.73" cy="299.32" r="5.04"/>
      <circle class="cls-7" cx="500.81" cy="299.32" r="5.04"/>
      <circle class="cls-7" cx="521.08" cy="299.26" r="5.04"/>
      <circle class="cls-7" cx="541.24" cy="299.26" r="5.04"/>
      <circle class="cls-7" cx="541.18" cy="239.39" r="5.04"/>
      <circle class="cls-7" cx="551.37" cy="239.32" r="5.04"/>
      <circle class="cls-7" cx="537.82" cy="249.53" r="5.04"/>
      <circle class="cls-7" cx="558.08" cy="249.47" r="5.04"/>
      <circle class="cls-7" cx="541.23" cy="259.78" r="5.04"/>
      <circle class="cls-7" cx="551.42" cy="259.72" r="5.04"/>
      <circle class="cls-7" cx="561.5" cy="259.72" r="5.04"/>
      <circle class="cls-7" cx="546.87" cy="269.55" r="5.04"/>
      <circle class="cls-7" cx="541.23" cy="279.51" r="5.04"/>
      <circle class="cls-7" cx="561.5" cy="279.44" r="5.04"/>
      <circle class="cls-7" cx="556.79" cy="289.59" r="5.04"/>
      <circle class="cls-7" cx="546.6" cy="229.24" r="5.04"/>
      <path class="cls-2" d="M30.01,149.33c4.39,6.78,9.15,16.47,10.97,28.69,2.46,16.53-1.6,30.07-3.38,35.16-3.74,10.75-7.16,12.24-11.81,27-2.67,8.47-3.78,15.06-4.22,18-.76,5.07-1.92,12.84-1.13,21.66.56,6.2,2.52,17.63,10.69,30.66h110.27"/>
      <path class="cls-2" d="M140.84,148.48c-1.72,4.09-3.68,9.4-5.34,15.75-.97,3.69-2.39,9.2-3.09,16.6-.98,10.25,0,18.11.56,22.5.61,4.72,1.27,9.6,3.38,15.75,1.14,3.34,2.37,5.93,4.78,10.97,5.43,11.37,6.18,11.06,7.88,15.47,2.76,7.18,2.78,13.16,2.81,21.94.04,10.17-1.5,17.81-1.97,19.97-2,9.3-5.23,17.04-8.44,23.07"/>
      <circle class="cls-7" cx="56.16" cy="174.42" r="5.04"/>
      <circle class="cls-6" cx="76.33" cy="174.42" r="5.04"/>
      <circle class="cls-7" cx="86.41" cy="174.42" r="5.04"/>
      <circle class="cls-7" cx="106.68" cy="174.36" r="5.04"/>
      <circle class="cls-7" cx="126.84" cy="174.36" r="5.04"/>
      <circle class="cls-7" cx="50.82" cy="184.51" r="5.04"/>
      <circle class="cls-7" cx="70.98" cy="184.51" r="5.04"/>
      <circle class="cls-7" cx="81.07" cy="184.51" r="5.04"/>
      <circle class="cls-6" cx="101.23" cy="184.51" r="5.04"/>
      <circle class="cls-7" cx="121.5" cy="184.44" r="5.04"/>
      <circle class="cls-7" cx="45.72" cy="194.71" r="5.04"/>
      <circle class="cls-7" cx="65.89" cy="194.71" r="5.04"/>
      <circle class="cls-6" cx="75.98" cy="194.71" r="5.04"/>
      <circle class="cls-7" cx="86.06" cy="194.71" r="5.04"/>
      <circle class="cls-7" cx="126.49" cy="194.65" r="5.04"/>
      <circle class="cls-7" cx="61.15" cy="204.79" r="5.04"/>
      <circle class="cls-6" cx="81.32" cy="204.79" r="5.04"/>
      <circle class="cls-7" cx="101.48" cy="204.79" r="5.04"/>
      <circle class="cls-6" cx="111.67" cy="204.73" r="5.04"/>
      <circle class="cls-6" cx="45.68" cy="214.65" r="5.04"/>
      <circle class="cls-6" cx="65.84" cy="214.65" r="5.04"/>
      <circle class="cls-6" cx="75.93" cy="214.65" r="5.04"/>
      <circle class="cls-7" cx="96.09" cy="214.65" r="5.04"/>
      <circle class="cls-7" cx="126.44" cy="214.59" r="5.04"/>
      <circle class="cls-6" cx="40.69" cy="224.86" r="5.04"/>
      <circle class="cls-7" cx="50.78" cy="224.86" r="5.04"/>
      <circle class="cls-7" cx="60.86" cy="224.86" r="5.04"/>
      <circle class="cls-6" cx="70.94" cy="224.86" r="5.04"/>
      <circle class="cls-7" cx="81.03" cy="224.86" r="5.04"/>
      <circle class="cls-7" cx="91.11" cy="224.86" r="5.04"/>
      <circle class="cls-6" cx="111.38" cy="224.8" r="5.04"/>
      <circle class="cls-7" cx="121.46" cy="224.8" r="5.04"/>
      <circle class="cls-7" cx="45.63" cy="235.13" r="5.04"/>
      <circle class="cls-7" cx="65.79" cy="235.13" r="5.04"/>
      <circle class="cls-7" cx="85.96" cy="235.13" r="5.04"/>
      <circle class="cls-7" cx="96.14" cy="235.07" r="5.04"/>
      <circle class="cls-6" cx="106.23" cy="235.07" r="5.04"/>
      <circle class="cls-7" cx="30.45" cy="244.99" r="5.04"/>
      <circle class="cls-7" cx="50.62" cy="244.99" r="5.04"/>
      <circle class="cls-7" cx="70.79" cy="244.99" r="5.04"/>
      <circle class="cls-6" cx="80.87" cy="244.99" r="5.04"/>
      <circle class="cls-6" cx="91.05" cy="244.93" r="5.04"/>
      <circle class="cls-7" cx="111.22" cy="244.93" r="5.04"/>
      <circle class="cls-7" cx="37.17" cy="254.91" r="5.04"/>
      <circle class="cls-6" cx="47.25" cy="254.91" r="5.04"/>
      <circle class="cls-6" cx="57.33" cy="254.91" r="5.04"/>
      <circle class="cls-7" cx="67.42" cy="254.91" r="5.04"/>
      <circle class="cls-7" cx="87.68" cy="254.85" r="5.04"/>
      <circle class="cls-7" cx="97.77" cy="254.85" r="5.04"/>
      <circle class="cls-7" cx="50.73" cy="265.45" r="5.04"/>
      <circle class="cls-7" cx="60.81" cy="265.45" r="5.04"/>
      <circle class="cls-7" cx="70.9" cy="265.45" r="5.04"/>
      <circle class="cls-7" cx="80.98" cy="265.45" r="5.04"/>
      <circle class="cls-7" cx="101.25" cy="265.39" r="5.04"/>
      <circle class="cls-7" cx="111.33" cy="265.39" r="5.04"/>
      <circle class="cls-7" cx="36.27" cy="275.28" r="5.04"/>
      <circle class="cls-6" cx="46.35" cy="275.28" r="5.04"/>
      <circle class="cls-7" cx="56.43" cy="275.28" r="5.04"/>
      <circle class="cls-6" cx="76.6" cy="275.28" r="5.04"/>
      <circle class="cls-7" cx="86.78" cy="275.22" r="5.04"/>
      <circle class="cls-6" cx="106.95" cy="275.22" r="5.04"/>
      <circle class="cls-7" cx="31.17" cy="285.17" r="5.04"/>
      <circle class="cls-7" cx="51.34" cy="285.17" r="5.04"/>
      <circle class="cls-6" cx="71.51" cy="285.17" r="5.04"/>
      <circle class="cls-7" cx="81.59" cy="285.17" r="5.04"/>
      <circle class="cls-6" cx="111.94" cy="285.11" r="5.04"/>
      <circle class="cls-6" cx="35.55" cy="295.26" r="5.04"/>
      <circle class="cls-7" cx="55.72" cy="295.26" r="5.04"/>
      <circle class="cls-7" cx="85.97" cy="295.26" r="5.04"/>
      <circle class="cls-7" cx="96.15" cy="295.19" r="5.04"/>
      <circle class="cls-7" cx="116.32" cy="295.19" r="5.04"/>
      <circle class="cls-7" cx="40.59" cy="304.95" r="5.04"/>
      <circle class="cls-7" cx="60.76" cy="304.95" r="5.04"/>
      <circle class="cls-6" cx="70.85" cy="304.95" r="5.04"/>
      <circle class="cls-7" cx="80.93" cy="304.95" r="5.04"/>
      <circle class="cls-7" cx="101.2" cy="304.89" r="5.04"/>
      <circle class="cls-7" cx="121.36" cy="304.89" r="5.04"/>
      <circle class="cls-7" cx="121.3" cy="245.02" r="5.04"/>
      <circle class="cls-6" cx="131.49" cy="244.96" r="5.04"/>
      <circle class="cls-7" cx="117.94" cy="255.17" r="5.04"/>
      <circle class="cls-7" cx="138.2" cy="255.1" r="5.04"/>
      <circle class="cls-6" cx="121.35" cy="265.42" r="5.04"/>
      <circle class="cls-7" cx="131.54" cy="265.36" r="5.04"/>
      <circle class="cls-7" cx="141.62" cy="265.36" r="5.04"/>
      <circle class="cls-7" cx="126.99" cy="275.19" r="5.04"/>
      <circle class="cls-7" cx="121.35" cy="285.14" r="5.04"/>
      <circle class="cls-7" cx="141.62" cy="285.08" r="5.04"/>
      <circle class="cls-6" cx="136.9" cy="295.22" r="5.04"/>
      <circle class="cls-6" cx="126.72" cy="234.88" r="5.04"/>
    </g>
    <g id="_빨강" data-name="빨강">
      <circle class="cls-6" cx="199.46" cy="172.34" r="5.04"/>
      <circle class="cls-6" cx="219.62" cy="172.34" r="5.04"/>
      <circle class="cls-6" cx="249.88" cy="172.34" r="5.04"/>
      <circle class="cls-7" cx="270.14" cy="172.28" r="5.04"/>
      <circle class="cls-7" cx="214.28" cy="182.42" r="5.04"/>
      <circle class="cls-6" cx="244.53" cy="182.42" r="5.04"/>
      <circle class="cls-6" cx="264.8" cy="182.36" r="5.04"/>
      <circle class="cls-6" cx="209.19" cy="192.63" r="5.04"/>
      <circle class="cls-6" cx="249.53" cy="192.63" r="5.04"/>
      <circle class="cls-6" cx="259.71" cy="192.57" r="5.04"/>
      <circle class="cls-7" cx="269.79" cy="192.57" r="5.04"/>
      <circle class="cls-6" cx="204.45" cy="202.71" r="5.04"/>
      <circle class="cls-6" cx="224.62" cy="202.71" r="5.04"/>
      <circle class="cls-6" cx="244.78" cy="202.71" r="5.04"/>
      <circle class="cls-6" cx="275.13" cy="202.65" r="5.04"/>
      <circle class="cls-6" cx="209.14" cy="212.57" r="5.04"/>
      <circle class="cls-7" cx="239.39" cy="212.57" r="5.04"/>
      <circle class="cls-7" cx="259.66" cy="212.51" r="5.04"/>
      <circle class="cls-6" cx="269.74" cy="212.51" r="5.04"/>
      <circle class="cls-6" cx="254.68" cy="222.72" r="5.04"/>
      <circle class="cls-6" cx="188.93" cy="233.05" r="5.04"/>
      <circle class="cls-7" cx="209.09" cy="233.05" r="5.04"/>
      <circle class="cls-6" cx="229.26" cy="233.05" r="5.04"/>
      <circle class="cls-6" cx="269.69" cy="232.99" r="5.04"/>
      <circle class="cls-6" cx="193.92" cy="242.91" r="5.04"/>
      <circle class="cls-6" cx="214.09" cy="242.91" r="5.04"/>
      <circle class="cls-6" cx="254.52" cy="242.85" r="5.04"/>
      <circle class="cls-6" cx="180.47" cy="252.83" r="5.04"/>
      <circle class="cls-6" cx="230.88" cy="252.83" r="5.04"/>
      <circle class="cls-6" cx="261.23" cy="252.77" r="5.04"/>
      <circle class="cls-7" cx="183.94" cy="263.37" r="5.04"/>
      <circle class="cls-6" cx="194.03" cy="263.37" r="5.04"/>
      <circle class="cls-7" cx="244.54" cy="263.31" r="5.04"/>
      <circle class="cls-6" cx="179.57" cy="273.2" r="5.04"/>
      <circle class="cls-6" cx="219.9" cy="273.2" r="5.04"/>
      <circle class="cls-6" cx="250.25" cy="273.14" r="5.04"/>
      <circle class="cls-6" cx="194.64" cy="283.09" r="5.04"/>
      <circle class="cls-6" cx="214.81" cy="283.09" r="5.04"/>
      <circle class="cls-6" cx="245.16" cy="283.03" r="5.04"/>
      <circle class="cls-7" cx="255.24" cy="283.03" r="5.04"/>
      <circle class="cls-7" cx="199.02" cy="293.17" r="5.04"/>
      <circle class="cls-6" cx="219.19" cy="293.17" r="5.04"/>
      <circle class="cls-6" cx="229.27" cy="293.17" r="5.04"/>
      <circle class="cls-6" cx="259.62" cy="293.11" r="5.04"/>
      <circle class="cls-6" cx="204.06" cy="302.87" r="5.04"/>
      <circle class="cls-6" cx="244.4" cy="302.87" r="5.04"/>
      <circle class="cls-6" cx="264.66" cy="302.81" r="5.04"/>
      <circle class="cls-6" cx="294.95" cy="242.88" r="5.04"/>
      <circle class="cls-6" cx="281.5" cy="253.02" r="5.04"/>
      <circle class="cls-6" cx="270.19" cy="273.17" r="5.04"/>
      <circle class="cls-6" cx="290.46" cy="273.11" r="5.04"/>
      <circle class="cls-7" cx="284.92" cy="283" r="5.04"/>
      <circle class="cls-6" cx="280.1" cy="293.2" r="5.04"/>
      <circle class="cls-6" cx="284.82" cy="303.35" r="5.04"/>
      <circle class="cls-7" cx="290.29" cy="232.74" r="5.04"/>
      <circle class="cls-6" cx="284.87" cy="222.68" r="5.04"/>
      <circle class="cls-6" cx="465.96" cy="168.79" r="5.04"/>
      <circle class="cls-6" cx="486.12" cy="168.79" r="5.04"/>
      <circle class="cls-6" cx="516.37" cy="168.79" r="5.04"/>
      <circle class="cls-6" cx="536.64" cy="168.73" r="5.04"/>
      <circle class="cls-6" cx="480.78" cy="178.87" r="5.04"/>
      <circle class="cls-6" cx="511.03" cy="178.87" r="5.04"/>
      <circle class="cls-6" cx="531.3" cy="178.81" r="5.04"/>
      <circle class="cls-6" cx="475.69" cy="189.08" r="5.04"/>
      <circle class="cls-6" cx="516.02" cy="189.08" r="5.04"/>
      <circle class="cls-6" cx="526.21" cy="189.01" r="5.04"/>
      <circle class="cls-6" cx="536.29" cy="189.01" r="5.04"/>
      <circle class="cls-6" cx="470.95" cy="199.16" r="5.04"/>
      <circle class="cls-6" cx="491.12" cy="199.16" r="5.04"/>
      <circle class="cls-6" cx="511.28" cy="199.16" r="5.04"/>
      <circle class="cls-6" cx="541.63" cy="199.1" r="5.04"/>
      <circle class="cls-6" cx="475.64" cy="209.02" r="5.04"/>
      <circle class="cls-6" cx="505.89" cy="209.02" r="5.04"/>
      <circle class="cls-6" cx="526.16" cy="208.96" r="5.04"/>
      <circle class="cls-6" cx="536.24" cy="208.96" r="5.04"/>
      <circle class="cls-6" cx="521.18" cy="219.17" r="5.04"/>
      <circle class="cls-6" cx="455.42" cy="229.5" r="5.04"/>
      <circle class="cls-6" cx="475.59" cy="229.5" r="5.04"/>
      <circle class="cls-6" cx="495.76" cy="229.5" r="5.04"/>
      <circle class="cls-6" cx="536.19" cy="229.44" r="5.04"/>
      <circle class="cls-6" cx="460.42" cy="239.36" r="5.04"/>
      <circle class="cls-6" cx="480.58" cy="239.36" r="5.04"/>
      <circle class="cls-6" cx="521.02" cy="239.29" r="5.04"/>
      <circle class="cls-6" cx="446.96" cy="249.27" r="5.04"/>
      <circle class="cls-6" cx="497.38" cy="249.27" r="5.04"/>
      <circle class="cls-6" cx="527.73" cy="249.21" r="5.04"/>
      <circle class="cls-6" cx="450.44" cy="259.81" r="5.04"/>
      <circle class="cls-6" cx="460.53" cy="259.81" r="5.04"/>
      <circle class="cls-6" cx="511.04" cy="259.75" r="5.04"/>
      <circle class="cls-6" cx="446.06" cy="269.64" r="5.04"/>
      <circle class="cls-6" cx="486.4" cy="269.64" r="5.04"/>
      <circle class="cls-6" cx="516.75" cy="269.58" r="5.04"/>
      <circle class="cls-6" cx="461.14" cy="279.54" r="5.04"/>
      <circle class="cls-6" cx="481.31" cy="279.54" r="5.04"/>
      <circle class="cls-6" cx="511.66" cy="279.48" r="5.04"/>
      <circle class="cls-6" cx="521.74" cy="279.48" r="5.04"/>
      <circle class="cls-6" cx="465.52" cy="289.62" r="5.04"/>
      <circle class="cls-6" cx="485.69" cy="289.62" r="5.04"/>
      <circle class="cls-6" cx="495.77" cy="289.62" r="5.04"/>
      <circle class="cls-6" cx="526.12" cy="289.56" r="5.04"/>
      <circle class="cls-6" cx="470.56" cy="299.32" r="5.04"/>
      <circle class="cls-6" cx="510.89" cy="299.32" r="5.04"/>
      <circle class="cls-6" cx="531.16" cy="299.26" r="5.04"/>
      <circle class="cls-6" cx="561.45" cy="239.32" r="5.04"/>
      <circle class="cls-6" cx="548" cy="249.47" r="5.04"/>
      <circle class="cls-6" cx="536.69" cy="269.61" r="5.04"/>
      <circle class="cls-6" cx="556.96" cy="269.55" r="5.04"/>
      <circle class="cls-6" cx="551.42" cy="279.44" r="5.04"/>
      <circle class="cls-6" cx="546.6" cy="289.65" r="5.04"/>
      <circle class="cls-6" cx="551.32" cy="299.79" r="5.04"/>
      <circle class="cls-6" cx="556.79" cy="229.18" r="5.04"/>
      <circle class="cls-6" cx="551.37" cy="219.13" r="5.04"/>
      <circle class="cls-6" cx="46.07" cy="174.42" r="5.04"/>
      <circle class="cls-6" cx="66.24" cy="174.42" r="5.04"/>
      <circle class="cls-6" cx="96.49" cy="174.42" r="5.04"/>
      <circle class="cls-6" cx="116.76" cy="174.36" r="5.04"/>
      <circle class="cls-6" cx="60.9" cy="184.51" r="5.04"/>
      <circle class="cls-6" cx="91.15" cy="184.51" r="5.04"/>
      <circle class="cls-6" cx="111.42" cy="184.44" r="5.04"/>
      <circle class="cls-6" cx="55.81" cy="194.71" r="5.04"/>
      <circle class="cls-6" cx="96.14" cy="194.71" r="5.04"/>
      <circle class="cls-6" cx="106.33" cy="194.65" r="5.04"/>
      <circle class="cls-6" cx="116.41" cy="194.65" r="5.04"/>
      <circle class="cls-6" cx="51.07" cy="204.79" r="5.04"/>
      <circle class="cls-6" cx="71.23" cy="204.79" r="5.04"/>
      <circle class="cls-6" cx="91.4" cy="204.79" r="5.04"/>
      <circle class="cls-6" cx="121.75" cy="204.73" r="5.04"/>
      <circle class="cls-6" cx="55.76" cy="214.65" r="5.04"/>
      <circle class="cls-6" cx="86.01" cy="214.65" r="5.04"/>
      <circle class="cls-6" cx="106.28" cy="214.59" r="5.04"/>
      <circle class="cls-6" cx="116.36" cy="214.59" r="5.04"/>
      <circle class="cls-6" cx="101.29" cy="224.8" r="5.04"/>
      <circle class="cls-6" cx="35.54" cy="235.13" r="5.04"/>
      <circle class="cls-6" cx="55.71" cy="235.13" r="5.04"/>
      <circle class="cls-6" cx="75.88" cy="235.13" r="5.04"/>
      <circle class="cls-6" cx="116.31" cy="235.07" r="5.04"/>
      <circle class="cls-6" cx="40.53" cy="244.99" r="5.04"/>
      <circle class="cls-6" cx="60.7" cy="244.99" r="5.04"/>
      <circle class="cls-6" cx="101.14" cy="244.93" r="5.04"/>
      <circle class="cls-6" cx="27.08" cy="254.91" r="5.04"/>
      <circle class="cls-6" cx="77.5" cy="254.91" r="5.04"/>
      <circle class="cls-6" cx="107.85" cy="254.85" r="5.04"/>
      <circle class="cls-6" cx="30.56" cy="265.45" r="5.04"/>
      <circle class="cls-6" cx="40.64" cy="265.45" r="5.04"/>
      <circle class="cls-6" cx="91.16" cy="265.39" r="5.04"/>
      <circle class="cls-6" cx="26.18" cy="275.28" r="5.04"/>
      <circle class="cls-6" cx="66.52" cy="275.28" r="5.04"/>
      <circle class="cls-6" cx="96.87" cy="275.22" r="5.04"/>
      <circle class="cls-6" cx="41.26" cy="285.17" r="5.04"/>
      <circle class="cls-6" cx="61.43" cy="285.17" r="5.04"/>
      <circle class="cls-6" cx="91.78" cy="285.11" r="5.04"/>
      <circle class="cls-6" cx="101.86" cy="285.11" r="5.04"/>
      <circle class="cls-6" cx="45.64" cy="295.26" r="5.04"/>
      <circle class="cls-6" cx="65.8" cy="295.26" r="5.04"/>
      <circle class="cls-6" cx="75.89" cy="295.26" r="5.04"/>
      <circle class="cls-6" cx="106.24" cy="295.19" r="5.04"/>
      <circle class="cls-6" cx="50.68" cy="304.95" r="5.04"/>
      <circle class="cls-6" cx="91.01" cy="304.95" r="5.04"/>
      <circle class="cls-6" cx="111.28" cy="304.89" r="5.04"/>
      <circle class="cls-6" cx="141.57" cy="244.96" r="5.04"/>
      <circle class="cls-6" cx="128.12" cy="255.1" r="5.04"/>
      <circle class="cls-6" cx="116.81" cy="275.25" r="5.04"/>
      <circle class="cls-6" cx="137.07" cy="275.19" r="5.04"/>
      <circle class="cls-6" cx="131.54" cy="285.08" r="5.04"/>
      <circle class="cls-6" cx="126.72" cy="295.29" r="5.04"/>
      <circle class="cls-6" cx="131.44" cy="305.43" r="5.04"/>
      <circle class="cls-6" cx="136.9" cy="234.82" r="5.04"/>
      <circle class="cls-6" cx="131.49" cy="224.77" r="5.04"/>
      <circle class="cls-6" cx="40.52" cy="350.31" r="5.01"/>
      <circle class="cls-6" cx="102.68" cy="350.25" r="5.01"/>
      <circle class="cls-6" cx="115.02" cy="350.4" r="5.01"/>
      <circle class="cls-6" cx="195.02" cy="350.39" r="5.01"/>
      <circle class="cls-6" cx="257.18" cy="350.33" r="5.01"/>
      <circle class="cls-7" cx="269.52" cy="350.48" r="5.01"/>
      <circle class="cls-6" cx="466.54" cy="350.34" r="5.01"/>
      <circle class="cls-6" cx="528.7" cy="350.28" r="5.01"/>
      <circle class="cls-6" cx="541.04" cy="350.43" r="5.01"/>
    </g>
    <g id="_샘플원통" data-name="샘플원통">
      <circle class="cls-6" cx="27.52" cy="350.37" r="5.01"/>
      <circle class="cls-7" cx="52.56" cy="350.31" r="5.01"/>
      <circle class="cls-6" cx="65.64" cy="350.28" r="5.01"/>
      <circle class="cls-6" cx="77.76" cy="350.4" r="5.01"/>
      <circle class="cls-7" cx="90.05" cy="350.31" r="5.01"/>
      <circle class="cls-7" cx="127.51" cy="350.25" r="5.01"/>
      <circle class="cls-7" cx="140.3" cy="350.25" r="5.01"/>
      <circle class="cls-7" cx="182.02" cy="350.45" r="5.01"/>
      <circle class="cls-7" cx="207.06" cy="350.39" r="5.01"/>
      <circle class="cls-7" cx="220.14" cy="350.36" r="5.01"/>
      <circle class="cls-7" cx="232.26" cy="350.48" r="5.01"/>
      <circle class="cls-7" cx="244.55" cy="350.39" r="5.01"/>
      <circle class="cls-7" cx="282" cy="350.33" r="5.01"/>
      <circle class="cls-7" cx="294.8" cy="350.33" r="5.01"/>
      <circle class="cls-7" cx="453.54" cy="350.4" r="5.01"/>
      <circle class="cls-6" cx="478.59" cy="350.34" r="5.01"/>
      <circle class="cls-7" cx="491.66" cy="350.31" r="5.01"/>
      <circle class="cls-7" cx="503.78" cy="350.43" r="5.01"/>
      <circle class="cls-7" cx="516.07" cy="350.34" r="5.01"/>
      <circle class="cls-7" cx="553.53" cy="350.28" r="5.01"/>
      <circle class="cls-7" cx="566.32" cy="350.28" r="5.01"/>
    </g>
  </g>
</svg>