<?xml version="1.0" encoding="UTF-8"?>
<svg xmlns="http://www.w3.org/2000/svg" version="1.1" viewBox="0 0 600 404.61">
  <defs>
    <style>
      .cls-1 {
        stroke-dasharray: 5.14 5.14 5.14 5.14 5.14 5.14;
      }

      .cls-1, .cls-2, .cls-3, .cls-4 {
        fill: none;
        stroke: #231815;
        stroke-miterlimit: 10;
      }

      .cls-1, .cls-3, .cls-4 {
        stroke-linecap: round;
        stroke-width: 2px;
      }

      .cls-5 {
        fill: #231815;
      }

      .cls-6 {
        fill: #e60012;
      }

      .cls-7 {
        fill: #094;
      }

      .cls-4 {
        stroke-dasharray: 5.14 5.14 5.14 5.14;
      }
    </style>
  </defs>
  <!-- Generator: Adobe Illustrator 28.7.1, SVG Export Plug-In . SVG Version: 1.2.0 Build 142)  -->
  <g>
    <g id="_레이어_1" data-name="레이어_1">
      <path d="M91.97,61.23c-.17.25-.37.54-.62.87-.25.33-.52.64-.81.94-.29.3-.59.55-.91.75-.32.21-.63.31-.93.31-.33,0-.57-.09-.72-.27s-.25-.39-.29-.62c-.04-.23-.05-.46-.02-.69.03-.23.06-.39.1-.49l1.98-5.2c.15-.39.22-.68.22-.89s-.04-.36-.11-.45c-.07-.1-.16-.15-.27-.17s-.19-.02-.25-.02c-.21,0-.46.13-.75.39-.3.26-.62.61-.96,1.04-.34.43-.71.94-1.08,1.52-.38.58-.75,1.19-1.11,1.83s-.7,1.29-1.03,1.95c-.33.66-.62,1.29-.87,1.88h-1.45l3.58-12.39c.1-.33,0-.57-.28-.73-.28-.16-.69-.22-1.23-.18l.06-.41c.41-.08.83-.17,1.26-.27.36-.08.74-.18,1.16-.3.41-.12.79-.24,1.12-.36l-3.68,12.08c.29-.44.59-.91.9-1.42.31-.51.63-1.01.95-1.51.32-.5.65-.98.98-1.44.33-.46.66-.86,1-1.21.34-.35.67-.63,1-.84.33-.21.65-.32.97-.32.18,0,.37.04.57.13.2.09.37.23.51.41s.22.42.26.69-.02.6-.16.97l-1.94,5.11c-.18.47-.23.81-.17,1.03.07.22.23.3.48.25.25-.06.57-.26.97-.63.4-.36.83-.9,1.3-1.6l.27.27Z"/>
      <path d="M98.92,68.77h-5.12v-.37c.53,0,.93-.03,1.2-.09s.46-.14.58-.23c.12-.09.18-.2.19-.31,0-.11.01-.21.01-.29v-6.64c0-.12-.02-.22-.06-.31-.04-.08-.13-.14-.27-.19-.14-.05-.34-.08-.6-.09s-.62-.02-1.07-.02v-.3c.38-.05.76-.12,1.12-.22s.69-.2.99-.3c.34-.12.66-.26.96-.41v8.51c0,.08,0,.17.03.27.02.1.09.2.22.3.13.09.33.17.61.24.28.07.68.1,1.21.1v.35Z"/>
      <path d="M247.12,61.38c-.17.25-.37.54-.62.87-.25.33-.52.64-.81.94-.29.3-.59.55-.91.75-.32.21-.63.31-.93.31-.33,0-.57-.09-.72-.27s-.25-.39-.29-.62c-.04-.23-.05-.46-.02-.69.03-.23.06-.39.1-.49l1.98-5.2c.15-.39.22-.68.22-.89s-.04-.36-.11-.45c-.07-.1-.16-.15-.27-.17s-.19-.02-.25-.02c-.21,0-.46.13-.75.39-.3.26-.62.61-.96,1.04-.34.43-.71.94-1.08,1.52-.38.58-.75,1.19-1.11,1.83s-.7,1.29-1.03,1.95c-.33.66-.62,1.29-.87,1.88h-1.45l3.58-12.39c.1-.33,0-.57-.28-.73-.28-.16-.69-.22-1.23-.18l.06-.41c.41-.08.83-.17,1.26-.27.36-.08.74-.18,1.16-.3.41-.12.79-.24,1.12-.36l-3.68,12.08c.29-.44.59-.91.9-1.42.31-.51.63-1.01.95-1.51.32-.5.65-.98.98-1.44.33-.46.66-.86,1-1.21.34-.35.67-.63,1-.84.33-.21.65-.32.97-.32.18,0,.37.04.57.13.2.09.37.23.51.41s.22.42.26.69-.02.6-.16.97l-1.94,5.11c-.18.47-.23.81-.17,1.03.07.22.23.3.48.25.25-.06.57-.26.97-.63.4-.36.83-.9,1.3-1.6l.27.27Z"/>
      <path d="M254.24,66.63l-.63,2.54h-5.19c.06-.29.19-.6.37-.94s.4-.67.65-1.01c.25-.35.53-.69.82-1.04.3-.35.6-.7.9-1.04.24-.27.46-.54.67-.79s.39-.5.54-.76c.15-.26.27-.52.36-.78s.13-.55.13-.87c0-.61-.15-1.1-.45-1.45-.3-.35-.74-.52-1.3-.52-.14,0-.29.02-.47.06-.18.04-.35.11-.51.2-.16.09-.3.2-.41.33-.11.13-.16.28-.16.45,0,.11.02.2.05.26s.08.13.13.19c.05.07.09.14.13.22.04.08.05.2.05.35,0,.25-.08.43-.24.54-.16.11-.31.17-.45.17-.26,0-.45-.09-.57-.27s-.18-.4-.18-.65c0-.28.08-.56.24-.84s.37-.52.63-.73c.26-.21.56-.39.89-.52.33-.13.67-.2,1.02-.2.43,0,.82.06,1.17.19.35.13.65.3.9.52.25.22.45.47.58.77s.21.6.21.94c0,.35-.06.67-.18.96s-.28.56-.48.81-.41.49-.65.71c-.24.22-.47.44-.68.65-.85.78-1.51,1.43-1.98,1.96s-.75.95-.84,1.26h2.7c.18,0,.35,0,.51-.03.16-.02.32-.08.47-.19s.31-.28.47-.52.32-.58.49-1.03l.3.1Z"/>
      <path d="M516.51,63.63c-.17.25-.37.54-.62.87-.25.33-.52.64-.81.94-.29.3-.59.55-.91.75-.32.21-.63.31-.93.31-.33,0-.57-.09-.72-.27s-.25-.38-.29-.62-.05-.46-.02-.69c.03-.23.06-.39.1-.49l1.98-5.2c.15-.39.22-.68.22-.89,0-.21-.04-.36-.11-.45-.07-.1-.16-.15-.27-.17s-.19-.02-.25-.02c-.21,0-.46.13-.75.39-.3.26-.62.61-.96,1.04-.34.43-.71.94-1.08,1.52s-.75,1.19-1.11,1.83c-.36.64-.7,1.29-1.03,1.95-.33.66-.62,1.29-.87,1.88h-1.45l3.58-12.39c.1-.33,0-.57-.28-.73-.28-.16-.69-.22-1.23-.17l.06-.41c.41-.08.83-.17,1.26-.27.36-.08.74-.18,1.16-.3.41-.12.79-.24,1.12-.36l-3.68,12.08c.29-.44.59-.91.9-1.42.31-.51.63-1.01.95-1.51.32-.5.65-.98.98-1.44.33-.46.66-.87,1-1.21s.67-.63,1-.84c.33-.21.65-.32.97-.32.18,0,.37.04.57.13.2.09.37.23.51.41s.22.42.26.69c.03.27-.02.6-.16.97l-1.94,5.11c-.18.47-.23.81-.17,1.03.07.22.23.3.48.25.25-.05.57-.26.97-.63.4-.36.83-.9,1.3-1.6l.27.27Z"/>
      <path d="M532.97,61.68c-.34,0-.6,0-.8.02-.2.01-.35.05-.47.11-.12.06-.21.14-.27.26-.07.12-.13.28-.2.49l-2.38,7.14c-.04.11-.06.23-.07.34,0,.11.03.22.1.31.07.09.19.17.36.23s.41.09.72.09l-.16.48h-4.04l.16-.48c.27,0,.51-.02.71-.07.2-.05.36-.11.5-.19.13-.08.24-.17.31-.27.07-.1.13-.2.16-.3l2.75-8.26-6.9,9.63h-.29l-.49-9.5-2.57,7.7c-.05.14-.07.29-.07.44,0,.15.04.29.11.41.07.12.19.22.34.3.16.08.37.12.64.12l-.16.47h-3.29l.16-.47c.25,0,.47-.04.67-.12.2-.08.37-.18.52-.3.15-.12.27-.26.36-.41.1-.15.17-.3.21-.44l2.21-6.64c.13-.4.12-.68-.03-.86-.15-.18-.49-.27-1.01-.27l.15-.44h3.04l.31,8.16,5.82-8.14h3.03l-.16.47Z"/>
      <g>
        <line class="cls-2" x1="89.12" y1="285.39" x2="89.12" y2="304.66"/>
        <polygon class="cls-5" points="85.03 301.34 85.76 300.66 89.12 304.27 92.47 300.66 93.21 301.34 89.12 305.74 85.03 301.34"/>
      </g>
      <g>
        <line class="cls-2" x1="244.25" y1="285.39" x2="244.25" y2="304.66"/>
        <polygon class="cls-5" points="240.16 301.34 240.89 300.66 244.25 304.27 247.6 300.66 248.34 301.34 244.25 305.74 240.16 301.34"/>
      </g>
      <g>
        <line class="cls-2" x1="515.69" y1="280.06" x2="515.69" y2="299.32"/>
        <polygon class="cls-5" points="511.6 296.01 512.33 295.32 515.69 298.94 519.05 295.32 519.78 296.01 515.69 300.4 511.6 296.01"/>
      </g>
      <g>
        <line class="cls-3" x1="330.47" y1="197.68" x2="332.97" y2="197.68"/>
        <line class="cls-4" x1="338.11" y1="197.68" x2="356.09" y2="197.68"/>
        <line class="cls-1" x1="358.66" y1="197.68" x2="417.75" y2="197.68"/>
        <line class="cls-3" x1="420.32" y1="197.68" x2="422.82" y2="197.68"/>
      </g>
      <path d="M73.71,348.53l-2.58,3.34h-11.15l.2-.6c.76,0,1.33-.08,1.71-.23.37-.15.65-.49.82-1l3.55-10.66c.22-.67-.4-1.01-1.88-1.01l.21-.62h11.09l.2,3.38-.56.28c-.25-.66-.5-1.19-.75-1.59-.25-.4-.53-.71-.85-.92-.32-.21-.69-.34-1.1-.41-.41-.07-.91-.1-1.49-.1-.54,0-.99.02-1.35.05-.36.03-.66.1-.9.19-.24.09-.43.23-.58.41-.15.18-.27.41-.36.7l-1.54,4.62h1.69c.21,0,.48-.03.8-.09.32-.06.65-.18,1-.36.34-.18.67-.43.99-.75.32-.32.58-.74.79-1.25h.54l-1.8,5.41h-.56c.2-.6.24-1.07.12-1.39-.12-.32-.32-.55-.58-.69s-.55-.22-.85-.24c-.29-.02-.51-.03-.64-.03h-1.69l-1.66,4.98c-.12.38-.17.66-.12.85.04.19.16.32.35.38.19.07.45.1.78.1h1.14c1.23,0,2.38-.24,3.45-.72,1.07-.48,2.11-1.24,3.14-2.27l.42.24Z"/>
      <path d="M76.6,354.8c-.11.17-.25.36-.41.59s-.35.44-.55.63c-.2.2-.4.37-.61.51s-.4.21-.58.21c-.12,0-.24-.04-.33-.11-.1-.07-.18-.17-.23-.3-.06-.12-.09-.26-.1-.42,0-.16.02-.31.08-.47l1.43-3.77c.1-.25.15-.43.15-.55,0-.12-.02-.2-.06-.23-.04-.04-.11-.04-.19-.02-.08.02-.15.05-.21.09-.12.06-.25.16-.37.28s-.24.25-.36.39c-.12.14-.22.27-.3.39-.08.12-.14.21-.18.27l-.19-.19c.09-.17.22-.35.38-.56.16-.21.34-.4.53-.59.19-.18.38-.34.57-.47.2-.13.38-.19.55-.19.11,0,.21.02.31.07.1.05.18.12.25.22s.1.24.1.41c0,.17-.04.39-.14.65l-1.48,3.83s-.02.07-.03.14,0,.13,0,.2c0,.07.03.13.07.19.04.06.1.08.19.08.12,0,.25-.06.41-.19.16-.13.31-.28.46-.45.15-.17.29-.34.41-.5.12-.17.21-.29.26-.37l.2.24ZM77.25,347.46c0,.06-.02.12-.05.2-.03.08-.08.16-.15.24-.07.08-.15.14-.25.2-.1.05-.22.08-.37.08-.06,0-.13-.01-.21-.04s-.14-.07-.21-.12c-.06-.05-.12-.11-.16-.18-.04-.07-.07-.15-.07-.24,0-.2.07-.39.21-.56.14-.17.32-.26.53-.26s.37.07.51.21c.13.14.2.3.2.46Z"/>
      <path d="M85.2,354.76c-.34.6-.68,1.08-1.04,1.44-.36.36-.71.55-1.07.55-.26,0-.43-.07-.53-.21-.09-.14-.14-.31-.14-.5s.03-.37.08-.55.09-.31.12-.38l1.28-3.41s.02-.1.03-.19c.01-.09.01-.19,0-.28s-.04-.18-.09-.25c-.05-.07-.13-.1-.25-.1-.13,0-.27.05-.41.14-.14.09-.33.3-.57.61-.24.32-.57.79-.97,1.42-.41.63-.95,1.47-1.62,2.53l-.51,1.04h-.95l1.56-4.24c.03-.07.06-.19.11-.35.05-.16.08-.32.11-.49.02-.17.02-.31,0-.43-.02-.12-.09-.19-.21-.19-.05,0-.14.04-.26.12s-.25.2-.4.35c-.15.15-.3.33-.47.54-.17.21-.33.43-.49.67l-.25-.15c.1-.16.23-.35.41-.59.17-.24.36-.47.57-.7.2-.23.41-.42.63-.58.21-.16.41-.24.59-.24.21,0,.35.06.45.17.09.12.15.26.17.44.02.18.01.38-.03.61-.04.23-.1.45-.17.68-.08.28-.17.57-.27.87-.09.27-.19.57-.3.92-.11.35-.23.7-.37,1.07.45-.72.85-1.34,1.18-1.85.33-.52.63-.95.88-1.3.25-.35.47-.63.65-.84s.34-.37.49-.48.28-.18.4-.22c.12-.04.25-.06.39-.06.22,0,.4.06.52.17.12.12.21.25.25.41.04.16.06.33.05.5-.01.18-.04.32-.07.44l-1.33,3.56s-.02.06-.04.14c-.02.07-.03.15-.03.23s.01.15.05.21.09.1.18.1c.15,0,.3-.06.46-.19.16-.13.3-.28.43-.45.13-.17.25-.34.36-.5.11-.17.19-.29.24-.37l.2.18Z"/>
      <path d="M91.36,344.45c0-.9.09-1.75.27-2.56.18-.81.41-1.57.68-2.27.27-.7.58-1.35.92-1.93.33-.58.67-1.09,1-1.53.33-.44.64-.8.93-1.09s.51-.49.67-.59c.09-.07.17-.06.24,0,.07.07.05.16-.04.25-.46.51-.89,1.09-1.31,1.74-.42.65-.78,1.37-1.1,2.16-.32.79-.57,1.67-.77,2.62-.19.96-.3,2.01-.31,3.15-.01,1.05.06,2.01.21,2.89s.35,1.67.59,2.37c.24.7.51,1.33.79,1.87.29.54.56,1,.82,1.38.25.38.48.67.67.87.19.21.3.33.34.37.11.11.13.21.07.29s-.14.1-.23.03c-.32-.2-.73-.58-1.24-1.14s-1-1.27-1.48-2.13c-.48-.86-.9-1.87-1.24-3.01s-.51-2.39-.49-3.76Z"/>
      <path d="M107.02,349.26c-.16.24-.36.52-.6.84-.24.32-.5.62-.78.91-.28.29-.58.53-.89.73-.31.2-.61.3-.91.3-.32,0-.56-.09-.71-.26s-.24-.38-.28-.6c-.04-.23-.05-.45-.02-.67.03-.22.06-.38.1-.47l1.93-5.07c.15-.38.22-.66.21-.87s-.04-.35-.11-.44c-.07-.09-.16-.15-.26-.16-.11-.01-.19-.02-.24-.02-.2,0-.45.13-.73.38-.29.25-.6.59-.94,1.02-.34.42-.69.92-1.06,1.48-.37.56-.73,1.16-1.08,1.78-.35.62-.68,1.26-1.01,1.9s-.6,1.25-.84,1.83h-1.41l3.48-12.07c.09-.32,0-.56-.27-.71-.28-.15-.67-.21-1.2-.17l.06-.4c.4-.08.81-.17,1.23-.26.35-.08.72-.18,1.13-.29.4-.11.76-.23,1.09-.35l-3.58,11.77c.28-.43.57-.89.88-1.38s.61-.99.93-1.47c.31-.49.63-.96.96-1.4.32-.45.65-.84.98-1.18s.65-.62.98-.82c.32-.21.64-.31.95-.31.17,0,.36.04.55.13s.36.22.49.4c.13.18.22.41.25.67s-.02.58-.15.94l-1.89,4.98c-.17.46-.23.79-.16,1,.07.21.22.29.46.24s.56-.26.95-.61c.39-.35.81-.87,1.27-1.56l.26.26Z"/>
      <path d="M114.04,356.59h-4.99v-.36c.52,0,.91-.03,1.17-.09.26-.06.45-.14.57-.23.12-.09.18-.19.19-.3,0-.11.01-.2.01-.28v-6.46c0-.12-.02-.22-.06-.3s-.13-.14-.26-.19c-.13-.05-.33-.08-.59-.09s-.61-.02-1.04-.02v-.29c.37-.05.74-.12,1.09-.21.36-.1.68-.2.96-.3.33-.12.64-.25.93-.4v8.29c0,.07,0,.16.03.26.02.1.09.2.21.29.12.09.32.17.59.24s.67.1,1.18.1v.34Z"/>
      <path d="M119.08,334.47c.16.11.39.3.67.59.29.29.6.65.93,1.09.33.44.66.95,1,1.53.33.58.64,1.23.92,1.93.28.7.5,1.46.68,2.27.18.81.27,1.67.27,2.56.01,1.37-.15,2.62-.49,3.76-.34,1.14-.75,2.14-1.24,3.01-.48.87-.98,1.58-1.48,2.13-.5.56-.92.94-1.24,1.14-.09.07-.17.06-.23-.03s-.04-.18.07-.29c.04-.04.15-.16.34-.37.19-.21.41-.5.66-.87.25-.38.53-.83.82-1.38.29-.54.55-1.17.79-1.87s.44-1.5.59-2.37.22-1.84.21-2.89c-.01-1.14-.12-2.19-.31-3.15-.19-.96-.45-1.83-.77-2.62-.32-.79-.69-1.51-1.11-2.16s-.85-1.23-1.31-1.74c-.08-.09-.09-.18-.03-.25.06-.07.14-.08.25,0Z"/>
      <path d="M227.1,347.87l-2.58,3.34h-11.15l.2-.6c.76,0,1.33-.08,1.71-.23.37-.15.65-.49.82-1l3.55-10.66c.22-.67-.4-1.01-1.88-1.01l.21-.62h11.09l.2,3.38-.56.28c-.25-.66-.5-1.19-.75-1.59-.25-.4-.53-.71-.85-.92-.32-.21-.69-.34-1.1-.41-.41-.07-.91-.1-1.49-.1-.54,0-.99.02-1.34.05s-.66.1-.9.19c-.24.09-.43.23-.58.41-.15.18-.27.42-.36.7l-1.54,4.62h1.69c.21,0,.48-.03.8-.09.32-.06.65-.18,1-.36.34-.18.67-.43.99-.75.32-.32.58-.74.79-1.25h.54l-1.8,5.41h-.56c.2-.6.24-1.07.12-1.39-.12-.32-.32-.55-.58-.69s-.55-.22-.85-.24c-.29-.02-.51-.03-.64-.03h-1.69l-1.66,4.98c-.12.38-.17.66-.12.85.04.19.16.32.35.38.19.07.45.1.78.1h1.14c1.23,0,2.38-.24,3.45-.72,1.07-.48,2.11-1.24,3.14-2.27l.42.24Z"/>
      <path d="M229.98,354.14c-.11.17-.25.36-.41.59s-.35.44-.55.63c-.2.2-.4.37-.61.51s-.4.21-.58.21c-.12,0-.24-.04-.33-.11-.1-.07-.18-.17-.23-.3-.06-.12-.09-.26-.1-.42,0-.16.02-.31.08-.47l1.43-3.77c.1-.25.15-.43.15-.55,0-.12-.02-.2-.06-.23-.04-.04-.11-.04-.19-.02-.08.02-.15.05-.21.09-.12.06-.25.16-.37.28s-.24.25-.36.39c-.12.14-.22.27-.3.39-.08.12-.14.21-.18.27l-.19-.19c.09-.17.22-.35.38-.56.16-.21.34-.4.53-.59.19-.18.38-.34.57-.47.2-.13.38-.19.55-.19.11,0,.21.02.31.07.1.05.18.12.25.22s.1.24.1.41c0,.17-.04.39-.14.65l-1.48,3.83s-.02.07-.03.14,0,.13,0,.2c0,.07.03.13.07.19.04.06.1.08.19.08.12,0,.25-.06.41-.19.16-.13.31-.28.46-.45.15-.17.29-.34.41-.5.12-.17.21-.29.26-.37l.2.24ZM230.64,346.8c0,.06-.02.12-.05.2-.03.08-.08.16-.15.24-.07.08-.15.14-.25.2-.1.05-.22.08-.37.08-.06,0-.13-.01-.21-.04s-.14-.07-.21-.12c-.06-.05-.12-.11-.16-.18-.04-.07-.07-.15-.07-.24,0-.2.07-.39.21-.56.14-.17.32-.26.53-.26s.37.07.51.21c.13.14.2.3.2.46Z"/>
      <path d="M238.58,354.09c-.34.6-.68,1.08-1.04,1.44-.36.36-.71.55-1.07.55-.26,0-.43-.07-.53-.21-.09-.14-.14-.31-.14-.5s.03-.37.08-.55.09-.31.12-.38l1.28-3.41s.02-.1.03-.19c.01-.09.01-.19,0-.28s-.04-.18-.09-.25c-.05-.07-.13-.1-.25-.1-.13,0-.27.05-.41.14-.14.09-.33.3-.57.61-.24.32-.57.79-.97,1.42-.41.63-.95,1.47-1.62,2.53l-.51,1.04h-.95l1.56-4.24c.03-.07.06-.19.11-.35.05-.16.08-.32.11-.49.02-.17.02-.31,0-.43-.02-.12-.09-.19-.21-.19-.05,0-.14.04-.26.12s-.25.2-.4.35c-.15.15-.3.33-.47.54-.17.21-.33.43-.49.67l-.25-.15c.1-.16.23-.35.41-.59.17-.24.36-.47.57-.7.2-.23.41-.42.63-.58.21-.16.41-.24.59-.24.21,0,.35.06.45.17.09.12.15.26.17.44.02.18.01.38-.03.61-.04.23-.1.45-.17.68-.08.28-.17.57-.27.87-.09.27-.19.57-.3.92-.11.35-.23.7-.37,1.07.45-.72.85-1.34,1.18-1.85.33-.52.63-.95.88-1.3.25-.35.47-.63.65-.84s.34-.37.49-.48.28-.18.4-.22c.12-.04.25-.06.39-.06.22,0,.4.06.52.17.12.12.21.25.25.41.04.16.06.33.05.5-.01.18-.04.32-.07.44l-1.33,3.56s-.02.06-.04.14c-.02.07-.03.15-.03.23s.01.15.05.21.09.1.18.1c.15,0,.3-.06.46-.19.16-.13.3-.28.43-.45.13-.17.25-.34.36-.5.11-.17.19-.29.24-.37l.2.18Z"/>
      <path d="M244.74,343.79c0-.9.09-1.75.27-2.56.18-.81.41-1.57.68-2.27.27-.7.58-1.35.92-1.93.33-.58.67-1.09,1-1.53.33-.44.64-.8.93-1.09s.51-.49.67-.59c.09-.07.17-.06.24,0,.07.07.05.16-.04.25-.46.51-.89,1.09-1.31,1.74-.42.65-.78,1.37-1.1,2.16-.32.79-.57,1.67-.77,2.62-.19.96-.3,2.01-.31,3.15-.01,1.05.06,2.01.21,2.89s.35,1.67.59,2.37c.24.7.51,1.33.79,1.87.29.54.56,1,.82,1.38.25.38.48.67.67.87.19.21.3.33.34.37.11.11.13.21.07.29s-.14.1-.23.03c-.32-.2-.73-.58-1.24-1.14s-1-1.27-1.48-2.13c-.48-.86-.9-1.87-1.24-3.01s-.51-2.39-.49-3.76Z"/>
      <path d="M260.41,348.59c-.16.24-.36.52-.6.84-.24.32-.5.62-.78.91-.28.29-.58.53-.89.73-.31.2-.61.3-.91.3-.32,0-.56-.09-.71-.26s-.24-.38-.28-.6c-.04-.23-.05-.45-.02-.67.03-.22.06-.38.1-.47l1.93-5.07c.15-.38.22-.66.21-.87s-.04-.35-.11-.44c-.07-.09-.16-.15-.26-.16-.11-.01-.19-.02-.24-.02-.2,0-.45.13-.73.38-.29.25-.6.59-.94,1.02-.34.42-.69.92-1.06,1.48-.37.56-.73,1.16-1.08,1.78-.35.62-.68,1.26-1.01,1.9s-.6,1.25-.84,1.83h-1.41l3.48-12.07c.09-.32,0-.56-.27-.71-.28-.15-.67-.21-1.2-.17l.06-.4c.4-.08.81-.17,1.23-.26.35-.08.72-.18,1.13-.29.4-.11.76-.23,1.09-.35l-3.58,11.77c.28-.43.57-.89.88-1.38s.61-.99.93-1.47c.31-.49.63-.96.96-1.4.32-.45.65-.84.98-1.18s.65-.62.98-.82c.32-.21.64-.31.95-.31.17,0,.36.04.55.13s.36.22.49.4c.13.18.22.41.25.67s-.02.58-.15.94l-1.89,4.98c-.17.46-.23.79-.16,1,.07.21.22.29.46.24s.56-.26.95-.61c.39-.35.81-.87,1.27-1.56l.26.26Z"/>
      <path d="M267.58,353.46l-.61,2.47h-5.06c.06-.29.18-.59.36-.91.18-.32.39-.65.63-.99.24-.34.51-.67.8-1.02s.58-.68.87-1.01c.23-.27.45-.52.65-.77.21-.24.38-.49.53-.74.15-.25.26-.5.35-.76.08-.26.13-.54.13-.84,0-.6-.15-1.07-.44-1.41-.29-.34-.72-.51-1.27-.51-.13,0-.29.02-.46.06-.17.04-.34.11-.5.19-.16.09-.29.2-.4.32-.11.13-.16.28-.16.44,0,.11.02.2.05.25.04.06.08.12.13.19s.09.14.13.21c.04.08.05.19.05.34,0,.24-.08.41-.23.52-.16.11-.3.17-.43.17-.25,0-.43-.09-.55-.26-.12-.17-.18-.39-.18-.63,0-.28.08-.55.23-.82.16-.27.36-.5.61-.71.25-.21.54-.38.87-.5.33-.13.66-.19.99-.19.42,0,.8.06,1.14.19.34.12.64.29.88.5.25.21.43.46.57.75.13.29.2.59.2.91,0,.34-.06.65-.18.93s-.28.54-.47.79-.4.47-.63.69c-.23.22-.45.43-.67.63-.83.75-1.47,1.39-1.93,1.91-.46.52-.73.93-.82,1.22h2.63c.18,0,.34,0,.5-.03.16-.02.31-.08.46-.19.15-.11.3-.28.45-.51.15-.23.31-.57.48-1l.29.1Z"/>
      <path d="M272.46,333.81c.16.11.39.3.67.59.29.29.6.65.93,1.09.33.44.66.95,1,1.53.33.58.64,1.23.92,1.93.28.7.5,1.46.68,2.27.18.81.27,1.67.27,2.56.01,1.37-.15,2.62-.49,3.76-.34,1.14-.75,2.14-1.24,3.01-.48.87-.98,1.58-1.48,2.13-.5.56-.92.94-1.24,1.14-.09.07-.17.06-.23-.03s-.04-.18.07-.29c.04-.04.15-.16.34-.37.19-.21.41-.5.66-.87.25-.38.53-.83.82-1.38.29-.54.55-1.17.79-1.87s.44-1.5.59-2.37.22-1.84.21-2.89c-.01-1.14-.12-2.19-.31-3.15-.19-.96-.45-1.83-.77-2.62-.32-.79-.69-1.51-1.11-2.16s-.85-1.23-1.31-1.74c-.08-.09-.09-.18-.03-.25.06-.07.14-.08.25,0Z"/>
      <path d="M494.63,346.76l-2.58,3.34h-11.15l.2-.6c.76,0,1.33-.08,1.71-.23.37-.15.65-.49.82-1l3.55-10.66c.22-.67-.4-1.01-1.88-1.01l.21-.62h11.09l.2,3.38-.56.28c-.25-.66-.5-1.19-.75-1.59-.25-.4-.53-.71-.85-.92-.32-.21-.69-.34-1.1-.41-.41-.07-.91-.1-1.49-.1-.54,0-.99.02-1.35.05-.36.03-.66.1-.9.19-.24.09-.43.23-.58.41-.15.18-.27.41-.36.7l-1.54,4.62h1.69c.21,0,.48-.03.8-.09.32-.06.65-.18,1-.36.34-.18.67-.43.99-.75.32-.32.58-.74.79-1.25h.54l-1.8,5.41h-.56c.2-.6.24-1.07.12-1.39-.12-.32-.32-.55-.58-.69-.27-.14-.55-.22-.85-.24-.29-.02-.51-.03-.64-.03h-1.69l-1.66,4.98c-.12.38-.17.66-.12.85.04.19.16.32.35.38s.45.1.78.1h1.14c1.23,0,2.38-.24,3.45-.72,1.07-.48,2.11-1.24,3.14-2.27l.42.24Z"/>
      <path d="M497.52,353.03c-.11.17-.25.36-.41.59s-.35.44-.55.63c-.2.2-.4.37-.61.51s-.4.21-.58.21c-.12,0-.24-.04-.33-.11-.1-.07-.18-.17-.23-.3-.06-.12-.09-.26-.1-.42,0-.16.02-.31.08-.47l1.43-3.77c.1-.25.15-.43.15-.55,0-.12-.02-.2-.06-.23-.04-.04-.11-.04-.19-.02-.08.02-.15.05-.21.09-.12.06-.25.16-.37.28s-.24.25-.36.39c-.12.14-.22.27-.3.39-.08.12-.14.21-.18.27l-.19-.19c.09-.17.22-.35.38-.56.16-.21.34-.4.53-.59.19-.18.38-.34.57-.47.2-.13.38-.19.55-.19.11,0,.21.02.31.07.1.05.18.12.25.22s.1.24.1.41c0,.17-.04.39-.14.65l-1.48,3.83s-.02.07-.03.14,0,.13,0,.2c0,.07.03.13.07.19.04.06.1.08.19.08.12,0,.25-.06.41-.19.16-.13.31-.28.46-.45.15-.17.29-.34.41-.5.12-.17.21-.29.26-.37l.2.24ZM498.17,345.69c0,.06-.02.12-.05.2-.03.08-.08.16-.15.24-.07.08-.15.14-.25.2-.1.05-.22.08-.37.08-.06,0-.13-.01-.21-.04s-.14-.07-.21-.12c-.06-.05-.12-.11-.16-.18-.04-.07-.07-.15-.07-.24,0-.2.07-.39.21-.56.14-.17.32-.26.53-.26s.37.07.51.21c.13.14.2.3.2.46Z"/>
      <path d="M506.12,352.99c-.34.6-.68,1.08-1.04,1.44-.36.36-.71.55-1.07.55-.26,0-.43-.07-.53-.21-.09-.14-.14-.31-.14-.5s.03-.37.08-.55.09-.31.12-.38l1.28-3.41s.02-.1.03-.19c.01-.09.01-.19,0-.28s-.04-.18-.09-.25c-.05-.07-.13-.1-.25-.1-.13,0-.27.05-.41.14-.14.09-.33.3-.57.61-.24.32-.57.79-.97,1.42-.41.63-.95,1.47-1.62,2.53l-.51,1.04h-.95l1.56-4.24c.03-.07.06-.19.11-.35.05-.16.08-.32.11-.49.02-.17.02-.31,0-.43-.02-.12-.09-.19-.21-.19-.05,0-.14.04-.26.12s-.25.2-.4.35c-.15.15-.3.33-.47.54-.17.21-.33.43-.49.67l-.25-.15c.1-.16.23-.35.41-.59.17-.24.36-.47.57-.7.2-.23.41-.42.63-.58.21-.16.41-.24.59-.24.21,0,.35.06.45.17.09.12.15.26.17.44.02.18.01.38-.03.61-.04.23-.1.45-.17.68-.08.28-.17.57-.27.87-.09.27-.19.57-.3.92-.11.35-.23.7-.37,1.07.45-.72.85-1.34,1.18-1.85.33-.52.63-.95.88-1.3.25-.35.47-.63.65-.84s.34-.37.49-.48.28-.18.4-.22c.12-.04.25-.06.39-.06.22,0,.4.06.52.17.12.12.21.25.25.41.04.16.06.33.05.5-.01.18-.04.32-.07.44l-1.33,3.56s-.02.06-.04.14c-.02.07-.03.15-.03.23s.01.15.05.21.09.1.18.1c.15,0,.3-.06.46-.19.16-.13.3-.28.43-.45.13-.17.25-.34.36-.5.11-.17.19-.29.24-.37l.2.18Z"/>
      <path d="M512.28,342.68c0-.9.09-1.75.27-2.56.18-.81.41-1.57.68-2.27.27-.7.58-1.35.92-1.93.33-.58.67-1.09,1-1.53.33-.44.64-.8.93-1.09s.51-.49.67-.59c.09-.07.17-.06.24,0,.07.07.05.16-.04.25-.46.51-.89,1.09-1.31,1.74-.42.65-.78,1.37-1.1,2.16-.32.79-.57,1.67-.77,2.62-.19.96-.3,2.01-.31,3.15-.01,1.05.06,2.01.21,2.89s.35,1.67.59,2.37c.24.7.51,1.33.79,1.87.29.54.56,1,.82,1.38.25.38.48.67.67.87.19.21.3.33.34.37.11.11.13.21.07.29s-.14.1-.23.03c-.32-.2-.73-.58-1.24-1.14s-1-1.27-1.48-2.13c-.48-.86-.9-1.87-1.24-3.01s-.51-2.39-.49-3.76Z"/>
      <path d="M527.94,347.49c-.16.24-.36.52-.6.84-.24.32-.5.62-.78.91-.28.29-.58.53-.89.73-.31.2-.61.3-.91.3-.32,0-.56-.09-.71-.26s-.24-.38-.28-.6c-.04-.23-.05-.45-.02-.67.03-.22.06-.38.1-.47l1.93-5.07c.15-.38.22-.66.21-.87s-.04-.35-.11-.44c-.07-.09-.16-.15-.26-.16-.11-.01-.19-.02-.24-.02-.2,0-.45.13-.73.38-.29.25-.6.59-.94,1.02-.34.42-.69.92-1.06,1.48-.37.56-.73,1.16-1.08,1.78-.35.62-.68,1.26-1.01,1.9s-.6,1.25-.84,1.83h-1.41l3.48-12.07c.09-.32,0-.56-.27-.71-.28-.15-.67-.21-1.2-.17l.06-.4c.4-.08.81-.17,1.23-.26.35-.08.72-.18,1.13-.29.4-.11.76-.23,1.09-.35l-3.58,11.77c.28-.43.57-.89.88-1.38s.61-.99.93-1.47c.31-.49.63-.96.96-1.4.32-.45.65-.84.98-1.18s.65-.62.98-.82c.32-.21.64-.31.95-.31.17,0,.36.04.55.13s.36.22.49.4c.13.18.22.41.25.67s-.02.58-.15.94l-1.89,4.98c-.17.46-.23.79-.16,1,.07.21.22.29.46.24s.56-.26.95-.61c.39-.35.81-.87,1.27-1.56l.26.26Z"/>
      <path d="M544.22,345.6c-.33,0-.59,0-.78.02-.19.01-.34.05-.45.1-.11.06-.2.14-.27.25-.06.12-.13.27-.2.48l-2.32,6.95c-.04.11-.06.22-.06.33,0,.11.03.21.1.3.07.09.19.17.35.23.16.06.4.09.7.09l-.16.47h-3.94l.16-.47c.27,0,.5-.02.69-.07.19-.05.35-.11.48-.19.13-.08.23-.17.3-.26s.13-.2.16-.3l2.68-8.04-6.71,9.38h-.28l-.48-9.25-2.5,7.5c-.05.14-.07.28-.07.43,0,.15.04.28.11.4.07.12.18.22.33.3.15.08.36.12.63.12l-.15.46h-3.2l.15-.46c.24,0,.46-.04.65-.12.2-.08.36-.18.51-.3.14-.12.26-.25.35-.4.09-.15.16-.29.21-.43l2.16-6.47c.13-.39.12-.67-.03-.84s-.48-.26-.99-.26l.14-.43h2.96l.3,7.94,5.67-7.93h2.95l-.15.46Z"/>
      <path d="M546.21,332.7c.16.11.39.3.67.59.29.29.6.65.93,1.09.33.44.66.95,1,1.53.33.58.64,1.23.92,1.93.28.7.5,1.46.68,2.27.18.81.27,1.67.27,2.56.01,1.37-.15,2.62-.49,3.76-.34,1.14-.75,2.14-1.24,3.01-.48.87-.98,1.58-1.48,2.13-.5.56-.92.94-1.24,1.14-.09.07-.17.06-.23-.03s-.04-.18.07-.29c.04-.04.15-.16.34-.37.19-.21.41-.5.66-.87.25-.38.53-.83.82-1.38.29-.54.55-1.17.79-1.87s.44-1.5.59-2.37.22-1.84.21-2.89c-.01-1.14-.12-2.19-.31-3.15-.19-.96-.45-1.83-.77-2.62-.32-.79-.69-1.51-1.11-2.16s-.85-1.23-1.31-1.74c-.08-.09-.09-.18-.03-.25.06-.07.14-.08.25,0Z"/>
      <path d="M71.86,120.41l-2.54,3.29h-10.98l.2-.59c.75,0,1.31-.08,1.68-.23.37-.15.64-.48.8-.98l3.5-10.5c.22-.66-.4-.99-1.85-.99l.2-.61h10.92l.2,3.33-.55.28c-.25-.65-.49-1.17-.74-1.57-.24-.4-.52-.7-.84-.9-.32-.2-.68-.34-1.08-.41-.41-.07-.9-.1-1.46-.1-.53,0-.97.02-1.32.05s-.65.1-.88.19c-.24.09-.43.23-.57.41-.15.18-.27.41-.36.69l-1.52,4.55h1.67c.21,0,.48-.03.79-.09.32-.06.64-.18.98-.36.34-.18.66-.43.97-.74.31-.32.57-.73.78-1.23h.54l-1.78,5.33h-.56c.2-.59.24-1.05.12-1.37-.12-.32-.31-.54-.57-.68-.26-.14-.54-.22-.83-.24-.29-.02-.5-.03-.63-.03h-1.67l-1.64,4.91c-.12.37-.16.65-.12.83.04.19.16.31.35.38.19.07.45.1.77.1h1.12c1.22,0,2.35-.24,3.4-.71,1.05-.48,2.08-1.22,3.09-2.24l.42.24Z"/>
      <path d="M76.8,124.13c0,.61-.11,1.18-.32,1.71-.21.53-.49.99-.81,1.39s-.69.71-1.08.93c-.39.23-.78.34-1.14.34-.26,0-.5-.05-.71-.16-.21-.11-.39-.25-.54-.43-.15-.18-.26-.38-.34-.62-.08-.24-.12-.49-.12-.75s.04-.57.12-.9c.08-.33.2-.65.34-.98s.32-.64.53-.95c.21-.31.43-.58.68-.82.25-.24.51-.42.78-.56s.56-.21.86-.21c.2,0,.41.04.62.14.21.09.4.22.57.39.17.17.31.38.41.63s.16.53.16.85ZM76.01,123.7c0-.12-.02-.25-.05-.39-.03-.15-.08-.28-.16-.41-.07-.13-.18-.24-.31-.33s-.29-.14-.49-.14c-.26,0-.51.08-.73.25-.22.17-.43.38-.61.65-.18.26-.35.56-.49.89s-.27.66-.36.98c-.1.32-.17.62-.22.91s-.08.51-.08.68c0,.13,0,.27.03.43.02.16.06.31.13.46.07.14.17.27.31.37.14.1.32.15.56.15.28,0,.53-.09.76-.26.23-.17.43-.4.62-.67s.34-.58.48-.93c.14-.34.25-.67.34-1.01.09-.33.16-.64.2-.93.04-.29.07-.52.07-.69Z"/>
      <path d="M84.27,122.16c-.31.7-.58,1.37-.83,2.01-.1.27-.21.56-.32.85-.11.29-.21.58-.3.86s-.17.54-.24.78c-.07.24-.12.46-.15.64-.02.07-.02.16-.02.26,0,.1.02.18.06.25.03.06.09.1.16.12.07.01.17-.03.29-.12.12-.1.28-.26.46-.48.18-.23.41-.55.67-.97l.21.12c-.3.52-.57.92-.82,1.21-.25.29-.47.5-.67.62-.2.12-.37.18-.52.16-.15-.01-.27-.06-.37-.15-.1-.09-.17-.19-.21-.32-.04-.13-.06-.25-.05-.35.02-.22.08-.51.18-.86.1-.36.21-.73.34-1.11s.25-.75.37-1.1c.12-.35.22-.62.29-.82-.49.88-.94,1.62-1.35,2.22-.41.6-.78,1.09-1.11,1.47-.33.38-.61.65-.85.81-.24.16-.44.24-.6.24-.11,0-.22-.02-.35-.07-.13-.05-.23-.13-.32-.25s-.14-.29-.14-.5c0-.21.05-.48.18-.81l1.37-3.43c.09-.23.12-.41.09-.54s-.12-.18-.26-.15c-.14.03-.33.17-.56.4-.23.24-.5.6-.81,1.1l-.22-.16c.09-.14.21-.32.35-.54.15-.22.32-.44.51-.65s.39-.4.59-.55c.21-.15.41-.23.61-.23.11,0,.22.04.32.11.1.07.17.18.22.32s.07.31.06.5c0,.2-.06.42-.16.66l-1.24,3.05c-.1.24-.15.44-.15.62,0,.18.02.31.08.41s.14.14.25.14.23-.06.35-.18c.23-.23.46-.48.68-.75.23-.28.45-.57.66-.88.21-.31.42-.62.62-.93.2-.31.39-.61.57-.9.41-.69.8-1.4,1.17-2.12h.92Z"/>
      <path d="M89.18,122.28l-.1.44h-1.41l-1.41,4.76c-.03.11-.01.21.04.31.05.1.15.13.29.1.14-.03.32-.15.55-.37.23-.21.51-.58.84-1.09l.24.14c-.1.16-.23.36-.39.58-.17.23-.35.44-.55.64s-.4.37-.6.51c-.21.14-.4.21-.58.21-.32,0-.53-.12-.62-.37-.09-.25-.07-.58.05-.99l1.38-4.42h-1.16l.12-.44h1.14l.75-2.52h.83l-.79,2.52h1.38Z"/>
      <path d="M93.65,116.39c0-.88.09-1.73.27-2.53.18-.8.4-1.55.67-2.24.27-.69.57-1.33.9-1.9.33-.57.66-1.08.98-1.51.32-.43.63-.79.91-1.07s.51-.48.66-.58c.09-.07.17-.06.24,0,.07.07.05.16-.04.25-.45.5-.88,1.07-1.29,1.71s-.77,1.35-1.08,2.13-.56,1.64-.75,2.58c-.19.94-.29,1.98-.31,3.1-.01,1.03.06,1.98.21,2.84.15.87.35,1.64.58,2.34s.5,1.31.78,1.84c.28.54.55.99.8,1.36.25.37.47.66.65.86.19.21.3.33.34.37.11.11.13.2.07.29s-.14.1-.23.03c-.32-.2-.72-.57-1.22-1.12s-.98-1.25-1.46-2.1c-.48-.85-.88-1.84-1.22-2.96-.34-1.12-.5-2.36-.49-3.7Z"/>
      <path d="M109.32,121.12c-.16.24-.36.51-.59.83s-.5.62-.77.9-.57.52-.87.72c-.3.2-.6.3-.89.3-.32,0-.55-.09-.69-.26-.15-.17-.24-.37-.28-.59-.04-.22-.05-.45-.02-.66.03-.22.06-.37.1-.47l1.9-4.99c.15-.37.21-.65.21-.85,0-.2-.04-.34-.11-.44-.07-.09-.15-.15-.26-.16-.11-.01-.19-.02-.24-.02-.2,0-.44.12-.72.38s-.59.58-.92,1c-.33.42-.68.9-1.04,1.46-.36.55-.72,1.14-1.06,1.75-.34.61-.67,1.24-.99,1.87-.32.63-.59,1.24-.83,1.8h-1.39l3.43-11.89c.09-.32,0-.55-.27-.7-.27-.15-.66-.21-1.18-.17l.06-.4c.4-.08.8-.17,1.21-.26.34-.08.71-.17,1.11-.29.4-.11.75-.23,1.07-.35l-3.53,11.59c.28-.42.56-.88.86-1.36.3-.49.6-.97.91-1.45.31-.48.62-.94.94-1.38.32-.44.64-.83.96-1.17.32-.33.64-.6.96-.81.32-.2.63-.31.93-.31.17,0,.35.04.54.13.19.09.35.22.49.4.13.18.21.4.25.66.03.26-.02.57-.15.93l-1.86,4.9c-.17.45-.22.78-.16.99.07.21.22.29.46.24s.55-.25.93-.6c.38-.35.8-.86,1.25-1.53l.26.26Z"/>
      <path d="M115.99,128.35h-4.92v-.35c.51,0,.89-.03,1.15-.09.26-.06.44-.13.56-.22.11-.09.18-.19.18-.29,0-.1.01-.2.01-.28v-6.37c0-.12-.02-.22-.06-.29-.04-.08-.12-.14-.26-.18-.13-.04-.32-.07-.58-.09-.25-.01-.6-.02-1.02-.02v-.29c.37-.04.73-.12,1.08-.21.35-.09.67-.19.95-.29.32-.12.63-.25.92-.39v8.16c0,.07,0,.16.03.26s.09.2.21.29c.12.09.32.17.58.23s.65.1,1.16.1v.34Z"/>
      <path d="M121.19,106.57c.16.11.38.3.66.58s.59.64.91,1.07c.32.43.65.93.98,1.51.33.57.63,1.21.9,1.9.27.69.5,1.44.67,2.24.18.8.27,1.64.27,2.53.01,1.35-.15,2.58-.49,3.7-.34,1.12-.74,2.11-1.22,2.96s-.96,1.55-1.46,2.1-.9.92-1.22,1.12c-.09.07-.17.06-.23-.03s-.04-.18.07-.29c.04-.04.15-.16.34-.37.19-.2.4-.49.65-.86.25-.37.52-.82.8-1.36.28-.53.54-1.15.78-1.84s.43-1.47.58-2.34c.15-.86.22-1.81.21-2.84-.01-1.12-.12-2.16-.31-3.1-.19-.94-.45-1.81-.76-2.58-.32-.78-.68-1.49-1.09-2.13s-.84-1.21-1.29-1.71c-.08-.09-.09-.17-.03-.25s.14-.08.25,0Z"/>
      <path d="M225.57,120.41l-2.54,3.29h-10.98l.2-.59c.75,0,1.31-.08,1.68-.23.37-.15.64-.48.8-.98l3.5-10.5c.22-.66-.4-.99-1.85-.99l.2-.61h10.92l.2,3.33-.55.28c-.25-.65-.49-1.17-.74-1.57-.24-.4-.52-.7-.84-.9-.32-.2-.68-.34-1.08-.41-.41-.07-.9-.1-1.46-.1-.53,0-.97.02-1.32.05s-.65.1-.88.19c-.24.09-.43.23-.57.41-.15.18-.27.41-.36.69l-1.52,4.55h1.67c.21,0,.48-.03.79-.09.32-.06.64-.18.98-.36.34-.18.66-.43.97-.74.31-.32.57-.73.78-1.23h.54l-1.78,5.33h-.56c.2-.59.24-1.05.12-1.37-.12-.32-.31-.54-.57-.68-.26-.14-.54-.22-.83-.24-.29-.02-.5-.03-.63-.03h-1.67l-1.64,4.91c-.12.37-.16.65-.12.83.04.19.16.31.35.38.19.07.45.1.77.1h1.12c1.22,0,2.35-.24,3.4-.71,1.05-.48,2.08-1.22,3.09-2.24l.42.24Z"/>
      <path d="M230.5,124.13c0,.61-.11,1.18-.32,1.71-.21.53-.49.99-.82,1.39-.33.39-.69.71-1.08.93s-.78.34-1.14.34c-.26,0-.5-.05-.71-.16-.21-.11-.39-.25-.54-.43-.15-.18-.26-.38-.34-.62-.08-.24-.12-.49-.12-.75s.04-.57.12-.9c.08-.33.2-.65.34-.98.15-.33.32-.64.53-.95.21-.31.43-.58.68-.82.25-.24.51-.42.78-.56.28-.14.56-.21.86-.21.2,0,.41.04.62.14.21.09.4.22.57.39.17.17.31.38.41.63s.16.53.16.85ZM229.71,123.7c0-.12-.02-.25-.05-.39-.03-.15-.08-.28-.16-.41s-.18-.24-.31-.33c-.13-.09-.29-.14-.49-.14-.26,0-.51.08-.73.25s-.43.38-.61.65c-.18.26-.35.56-.49.89s-.27.66-.36.98c-.1.32-.17.62-.22.91s-.08.51-.08.68c0,.13,0,.27.03.43.02.16.06.31.13.46.07.14.17.27.31.37s.32.15.56.15c.28,0,.53-.09.76-.26.23-.17.43-.4.62-.67s.34-.58.48-.93c.14-.34.25-.67.34-1.01s.16-.64.2-.93c.04-.29.07-.52.07-.69Z"/>
      <path d="M237.97,122.16c-.31.7-.58,1.37-.83,2.01-.11.27-.21.56-.32.85s-.21.58-.3.86c-.09.28-.17.54-.24.78-.07.24-.12.46-.15.64-.02.07-.02.16-.02.26,0,.1.02.18.06.25s.09.1.16.12.17-.03.29-.12c.12-.1.28-.26.46-.48.18-.23.41-.55.67-.97l.21.12c-.3.52-.57.92-.82,1.21-.25.29-.47.5-.67.62-.2.12-.37.18-.52.16-.15-.01-.27-.06-.37-.15s-.17-.19-.21-.32-.06-.25-.05-.35c.02-.22.08-.51.18-.86s.21-.73.34-1.11.25-.75.37-1.1c.12-.35.22-.62.29-.82-.49.88-.94,1.62-1.35,2.22-.41.6-.78,1.09-1.11,1.47-.33.38-.61.65-.85.81-.24.16-.44.24-.6.24-.11,0-.22-.02-.35-.07-.13-.05-.23-.13-.32-.25-.09-.12-.14-.29-.14-.5,0-.21.05-.48.18-.81l1.37-3.43c.09-.23.12-.41.08-.54-.03-.13-.12-.18-.26-.15-.14.03-.33.17-.56.4-.23.24-.5.6-.81,1.1l-.22-.16c.09-.14.21-.32.36-.54.15-.22.32-.44.51-.65.19-.21.38-.4.59-.55s.41-.23.61-.23c.11,0,.22.04.32.11.1.07.17.18.22.32s.07.31.06.5c0,.2-.06.42-.16.66l-1.24,3.05c-.1.24-.15.44-.15.62,0,.18.02.31.08.41s.14.14.25.14.23-.06.35-.18c.23-.23.46-.48.68-.75s.45-.57.66-.88c.21-.31.42-.62.62-.93.2-.31.39-.61.57-.9.41-.69.8-1.4,1.17-2.12h.92Z"/>
      <path d="M242.88,122.28l-.11.44h-1.41l-1.41,4.76c-.03.11-.01.21.04.31.05.1.15.13.29.1.14-.03.32-.15.55-.37.23-.21.51-.58.84-1.09l.24.14c-.1.16-.23.36-.39.58-.17.23-.35.44-.54.64s-.4.37-.6.51c-.21.14-.4.21-.58.21-.32,0-.53-.12-.62-.37-.09-.25-.07-.58.05-.99l1.38-4.42h-1.16l.12-.44h1.14l.75-2.52h.83l-.79,2.52h1.38Z"/>
      <path d="M247.35,116.39c0-.88.09-1.73.27-2.53.18-.8.4-1.55.67-2.24s.57-1.33.9-1.9c.33-.57.66-1.08.98-1.51.32-.43.63-.79.91-1.07s.51-.48.66-.58c.09-.07.17-.06.24,0,.07.07.05.16-.04.25-.45.5-.88,1.07-1.29,1.71-.41.64-.77,1.35-1.08,2.13-.31.78-.56,1.64-.75,2.58s-.29,1.98-.31,3.1c-.01,1.03.06,1.98.21,2.84.15.87.35,1.64.58,2.34.24.69.5,1.31.78,1.84.28.54.55.99.8,1.36.25.37.47.66.65.86.18.21.3.33.34.37.11.11.13.2.07.29s-.14.1-.23.03c-.32-.2-.72-.57-1.22-1.12-.5-.55-.98-1.25-1.46-2.1s-.88-1.84-1.22-2.96c-.34-1.12-.5-2.36-.49-3.7Z"/>
      <path d="M262.78,121.12c-.16.24-.36.51-.59.83-.24.32-.5.62-.77.9s-.57.52-.87.72c-.3.2-.6.3-.89.3-.32,0-.55-.09-.69-.26-.15-.17-.24-.37-.28-.59-.04-.22-.05-.45-.02-.66s.06-.37.1-.47l1.9-4.99c.15-.37.21-.65.21-.85,0-.2-.04-.34-.11-.44-.07-.09-.15-.15-.26-.16-.11-.01-.18-.02-.24-.02-.2,0-.44.12-.72.38s-.59.58-.92,1-.68.9-1.04,1.46c-.36.55-.72,1.14-1.06,1.75-.34.61-.67,1.24-.99,1.87-.32.63-.59,1.24-.83,1.8h-1.39l3.43-11.89c.09-.32,0-.55-.27-.7-.27-.15-.66-.21-1.18-.17l.06-.4c.4-.08.8-.17,1.21-.26.34-.08.71-.17,1.11-.29.4-.11.75-.23,1.07-.35l-3.53,11.59c.28-.42.57-.88.86-1.36.3-.49.6-.97.91-1.45.31-.48.62-.94.94-1.38.32-.44.64-.83.96-1.17.32-.33.64-.6.96-.81.32-.2.63-.31.93-.31.17,0,.35.04.54.13.19.09.35.22.49.4s.21.4.25.66c.03.26-.02.57-.15.93l-1.86,4.9c-.17.45-.23.78-.16.99s.22.29.46.24c.24-.05.55-.25.93-.6.38-.35.8-.86,1.25-1.53l.26.26Z"/>
      <path d="M269.85,125.92l-.6,2.43h-4.98c.06-.28.18-.58.35-.9.17-.32.38-.64.62-.97s.5-.67.79-1c.28-.34.57-.67.86-.99.23-.26.44-.51.64-.75.2-.24.37-.48.52-.73.14-.24.26-.49.34-.75s.12-.53.12-.83c0-.59-.14-1.05-.43-1.39-.29-.33-.71-.5-1.25-.5-.13,0-.28.02-.45.06s-.33.1-.49.19c-.16.09-.29.19-.39.32-.11.13-.16.27-.16.44,0,.11.02.19.05.25.04.06.08.12.12.18.05.06.09.13.12.21.03.08.05.19.05.33,0,.24-.08.41-.23.52-.15.11-.3.16-.43.16-.25,0-.43-.09-.55-.26-.12-.17-.18-.38-.18-.63,0-.27.08-.54.23-.8.15-.26.35-.5.6-.7s.53-.37.85-.5c.32-.13.65-.19.98-.19.41,0,.79.06,1.12.18.34.12.63.29.87.5.24.21.43.45.56.73.13.28.2.58.2.9,0,.34-.06.64-.18.92-.12.28-.27.54-.46.78s-.4.47-.62.68c-.23.21-.45.42-.66.62-.81.74-1.45,1.37-1.9,1.88-.45.51-.72.91-.81,1.2h2.59c.17,0,.34,0,.49-.03.15-.02.3-.08.45-.18.15-.1.3-.27.45-.5.15-.23.31-.56.47-.99l.29.1Z"/>
      <path d="M274.9,106.57c.16.11.38.3.66.58.28.28.59.64.91,1.07.32.43.65.93.98,1.51.33.57.63,1.21.9,1.9s.5,1.44.67,2.24c.18.8.27,1.64.27,2.53.01,1.35-.15,2.58-.49,3.7-.34,1.12-.74,2.11-1.22,2.96s-.96,1.55-1.46,2.1c-.5.55-.9.92-1.22,1.12-.09.07-.17.06-.23-.03-.06-.09-.04-.18.07-.29.04-.04.15-.16.34-.37.18-.2.4-.49.65-.86.25-.37.52-.82.8-1.36.28-.53.55-1.15.78-1.84.24-.69.43-1.47.58-2.34.15-.86.22-1.81.21-2.84-.01-1.12-.12-2.16-.31-3.1s-.45-1.81-.76-2.58-.68-1.49-1.09-2.13c-.41-.64-.84-1.21-1.29-1.71-.08-.09-.09-.17-.03-.25s.14-.08.25,0Z"/>
      <path d="M491.81,116.86l-2.54,3.29h-10.98l.2-.59c.75,0,1.31-.08,1.68-.23.37-.15.64-.48.8-.98l3.5-10.5c.22-.66-.4-.99-1.85-.99l.2-.61h10.92l.2,3.33-.55.28c-.25-.65-.49-1.17-.74-1.57-.24-.4-.52-.7-.84-.9-.32-.2-.68-.34-1.08-.41-.41-.07-.9-.1-1.46-.1-.53,0-.97.02-1.32.05s-.65.1-.88.19c-.24.09-.43.23-.57.41-.15.18-.27.41-.36.69l-1.52,4.55h1.67c.21,0,.48-.03.79-.09.32-.06.64-.18.98-.36.34-.18.66-.43.97-.74.31-.32.57-.73.78-1.23h.54l-1.78,5.33h-.56c.2-.59.24-1.05.12-1.37-.12-.32-.31-.54-.58-.68s-.54-.22-.83-.24c-.29-.02-.5-.03-.63-.03h-1.67l-1.64,4.91c-.12.37-.16.65-.12.83.04.19.16.31.35.38.19.07.45.1.77.1h1.12c1.22,0,2.35-.24,3.4-.71,1.05-.48,2.08-1.22,3.09-2.24l.42.24Z"/>
      <path d="M496.99,120.58c0,.61-.11,1.18-.32,1.71-.21.53-.49.99-.82,1.39-.33.39-.69.71-1.08.93s-.78.34-1.14.34c-.26,0-.5-.05-.71-.16-.21-.11-.39-.25-.54-.43-.15-.18-.26-.38-.34-.62-.08-.24-.12-.49-.12-.75s.04-.57.12-.9c.08-.33.2-.65.34-.98.15-.33.32-.64.53-.95.21-.31.43-.58.68-.82.25-.24.51-.42.78-.56.28-.14.56-.21.86-.21.2,0,.41.04.62.14.21.09.4.22.57.39.17.17.31.38.41.63s.16.53.16.85ZM496.2,120.15c0-.12-.02-.25-.05-.39-.03-.15-.08-.28-.16-.41s-.18-.24-.31-.33c-.13-.09-.29-.14-.49-.14-.26,0-.51.08-.73.25s-.43.38-.61.65c-.18.26-.35.56-.49.89s-.27.66-.36.98c-.1.32-.17.62-.22.91s-.08.51-.08.68c0,.13,0,.27.03.43.02.16.06.31.13.46.07.14.17.27.31.37s.32.15.56.15c.28,0,.53-.09.76-.26.23-.17.43-.4.62-.67s.34-.58.48-.93c.14-.34.25-.67.34-1.01s.16-.64.2-.93c.04-.29.07-.52.07-.69Z"/>
      <path d="M504.46,118.61c-.31.7-.58,1.37-.83,2.01-.11.27-.21.56-.32.85s-.21.58-.3.86c-.09.28-.17.54-.24.78-.07.24-.12.46-.15.64-.02.07-.02.16-.02.26,0,.1.02.18.06.25s.09.1.16.12.17-.03.29-.12c.12-.1.28-.26.46-.48.18-.23.41-.55.67-.97l.21.12c-.3.52-.57.92-.82,1.21-.25.29-.47.5-.67.62-.2.12-.37.18-.52.16-.15-.01-.27-.06-.37-.15s-.17-.19-.21-.32-.06-.25-.05-.35c.02-.22.08-.51.18-.86s.21-.73.34-1.11.25-.75.37-1.1c.12-.35.22-.62.29-.82-.49.88-.94,1.62-1.35,2.22-.41.6-.78,1.09-1.11,1.47-.33.38-.61.65-.85.81-.24.16-.44.24-.6.24-.11,0-.22-.02-.35-.07-.13-.05-.23-.13-.32-.25-.09-.12-.14-.29-.14-.5,0-.21.05-.48.18-.81l1.37-3.43c.09-.23.12-.41.08-.54-.03-.13-.12-.18-.26-.15-.14.03-.33.17-.56.4-.23.24-.5.6-.81,1.1l-.22-.16c.09-.14.21-.32.36-.54.15-.22.32-.44.51-.65.19-.21.38-.4.59-.55s.41-.23.61-.23c.11,0,.22.04.32.11.1.07.17.18.22.32s.07.31.06.5c0,.2-.06.42-.16.66l-1.24,3.05c-.1.24-.15.44-.15.62,0,.18.02.31.08.41s.14.14.25.14.23-.06.35-.18c.23-.23.46-.48.68-.75s.45-.57.66-.88c.21-.31.42-.62.62-.93.2-.31.39-.61.57-.9.41-.69.8-1.4,1.17-2.12h.92Z"/>
      <path d="M509.37,118.73l-.11.44h-1.41l-1.41,4.76c-.03.11-.01.21.04.31.05.1.15.13.29.1.14-.03.32-.15.55-.37.23-.21.51-.58.84-1.09l.24.14c-.1.16-.23.36-.39.58-.17.23-.35.44-.54.64s-.4.37-.6.51c-.21.14-.4.21-.58.21-.32,0-.53-.12-.62-.37-.09-.25-.07-.58.05-.99l1.38-4.42h-1.16l.12-.44h1.14l.75-2.52h.83l-.79,2.52h1.38Z"/>
      <path d="M513.84,112.84c0-.88.09-1.73.27-2.53.18-.8.4-1.55.67-2.24s.57-1.33.9-1.9c.33-.57.66-1.08.98-1.51.32-.43.63-.79.91-1.07s.51-.48.66-.58c.09-.07.17-.06.24,0,.07.07.05.16-.04.25-.45.5-.88,1.07-1.29,1.71-.41.64-.77,1.35-1.08,2.13-.31.78-.56,1.64-.75,2.58s-.29,1.98-.31,3.1c-.01,1.03.06,1.98.21,2.84.15.87.35,1.64.58,2.34.24.69.5,1.31.78,1.84.28.54.55.99.8,1.36.25.37.47.66.65.86.18.21.3.33.34.37.11.11.13.2.07.29s-.14.1-.23.03c-.32-.2-.72-.57-1.22-1.12-.5-.55-.98-1.25-1.46-2.1s-.88-1.84-1.22-2.96c-.34-1.12-.5-2.36-.49-3.7Z"/>
      <path d="M529.27,117.57c-.16.24-.36.51-.59.83-.24.32-.5.62-.77.9s-.57.52-.87.72c-.3.2-.6.3-.89.3-.32,0-.55-.09-.69-.26-.15-.17-.24-.37-.28-.59-.04-.22-.05-.45-.02-.66s.06-.37.1-.47l1.9-4.99c.15-.37.21-.65.21-.85,0-.2-.04-.34-.11-.44-.07-.09-.15-.15-.26-.16-.11-.01-.18-.02-.24-.02-.2,0-.44.12-.72.38s-.59.58-.92,1-.68.9-1.04,1.46c-.36.55-.72,1.14-1.06,1.75-.34.61-.67,1.24-.99,1.87-.32.63-.59,1.24-.83,1.8h-1.39l3.43-11.89c.09-.32,0-.55-.27-.7-.27-.15-.66-.21-1.18-.17l.06-.4c.4-.08.8-.17,1.21-.26.34-.08.71-.17,1.11-.29.4-.11.75-.23,1.07-.35l-3.53,11.59c.28-.42.57-.88.86-1.36.3-.49.6-.97.91-1.45.31-.48.62-.94.94-1.38.32-.44.64-.83.96-1.17.32-.33.64-.6.96-.81.32-.2.63-.31.93-.31.17,0,.35.04.54.13.19.09.35.22.49.4s.21.4.25.66c.03.26-.02.57-.15.93l-1.86,4.9c-.17.45-.23.78-.16.99s.22.29.46.24c.24-.05.55-.25.93-.6.38-.35.8-.86,1.25-1.53l.26.26Z"/>
      <path d="M545.3,115.71c-.32,0-.58,0-.77.02s-.34.05-.45.1c-.11.05-.2.14-.26.25-.06.11-.13.27-.2.47l-2.28,6.85c-.04.11-.06.22-.06.33s.03.21.1.3.19.17.35.22c.16.06.39.09.69.09l-.15.46h-3.88l.15-.46c.26,0,.49-.02.68-.07.19-.04.35-.11.48-.18.13-.08.23-.16.3-.26.07-.1.12-.19.16-.29l2.64-7.92-6.61,9.24h-.28l-.47-9.11-2.46,7.39c-.05.13-.07.28-.07.42,0,.15.04.28.11.39.07.12.18.22.33.29.15.08.36.12.62.12l-.15.45h-3.15l.15-.45c.24,0,.45-.04.64-.12.19-.08.36-.17.5-.29.14-.12.25-.25.35-.39.09-.14.16-.29.21-.42l2.12-6.37c.13-.38.12-.66-.03-.83-.15-.17-.47-.26-.97-.26l.14-.42h2.92l.3,7.82,5.58-7.81h2.91l-.15.45Z"/>
      <path d="M547.5,103.01c.16.11.38.3.66.58.28.28.59.64.91,1.07.32.43.65.93.98,1.51.33.57.63,1.21.9,1.9s.5,1.44.67,2.24c.18.8.27,1.64.27,2.53.01,1.35-.15,2.58-.49,3.7-.34,1.12-.74,2.11-1.22,2.96s-.96,1.55-1.46,2.1c-.5.55-.9.92-1.22,1.12-.09.07-.17.06-.23-.03-.06-.09-.04-.18.07-.29.04-.04.15-.16.34-.37.18-.2.4-.49.65-.86.25-.37.52-.82.8-1.36.28-.53.55-1.15.78-1.84.24-.69.43-1.47.58-2.34.15-.86.22-1.81.21-2.84-.01-1.12-.12-2.16-.31-3.1s-.45-1.81-.76-2.58-.68-1.49-1.09-2.13c-.41-.64-.84-1.21-1.29-1.71-.08-.09-.09-.17-.03-.25s.14-.08.25,0Z"/>
    </g>
    <g id="_원통" data-name="원통">
      <path class="cls-2" d="M187.47,117.51c4.39,6.78,9.15,16.47,10.97,28.69,2.46,16.53-1.6,30.07-3.38,35.16-3.74,10.75-7.16,12.24-11.81,27-2.67,8.47-3.78,15.06-4.22,18-.76,5.07-1.92,12.84-1.13,21.66.56,6.2,2.52,17.63,10.69,30.66h110.27"/>
      <path class="cls-2" d="M298.3,116.67c-1.72,4.09-3.68,9.4-5.34,15.75-.97,3.69-2.39,9.2-3.09,16.6-.98,10.25,0,18.11.56,22.5.61,4.72,1.27,9.6,3.38,15.75,1.14,3.34,2.37,5.93,4.78,10.97,5.43,11.37,6.18,11.06,7.88,15.47,2.76,7.18,2.78,13.16,2.81,21.94.04,10.17-1.5,17.81-1.97,19.97-2,9.3-5.23,17.04-8.44,23.07"/>
      <circle class="cls-7" cx="213.62" cy="142.6" r="5.04"/>
      <circle class="cls-7" cx="233.79" cy="142.6" r="5.04"/>
      <circle class="cls-7" cx="243.87" cy="142.6" r="5.04"/>
      <circle class="cls-7" cx="264.14" cy="142.54" r="5.04"/>
      <circle class="cls-7" cx="284.31" cy="142.54" r="5.04"/>
      <circle class="cls-7" cx="208.28" cy="152.69" r="5.04"/>
      <circle class="cls-7" cx="228.45" cy="152.69" r="5.04"/>
      <circle class="cls-7" cx="238.53" cy="152.69" r="5.04"/>
      <circle class="cls-7" cx="258.7" cy="152.69" r="5.04"/>
      <circle class="cls-7" cx="278.97" cy="152.63" r="5.04"/>
      <circle class="cls-7" cx="203.19" cy="162.89" r="5.04"/>
      <circle class="cls-7" cx="223.36" cy="162.89" r="5.04"/>
      <circle class="cls-7" cx="233.44" cy="162.89" r="5.04"/>
      <circle class="cls-7" cx="243.52" cy="162.89" r="5.04"/>
      <circle class="cls-7" cx="283.96" cy="162.83" r="5.04"/>
      <circle class="cls-7" cx="218.61" cy="172.98" r="5.04"/>
      <circle class="cls-7" cx="238.78" cy="172.98" r="5.04"/>
      <circle class="cls-7" cx="258.95" cy="172.98" r="5.04"/>
      <circle class="cls-7" cx="269.13" cy="172.92" r="5.04"/>
      <circle class="cls-7" cx="203.14" cy="182.83" r="5.04"/>
      <circle class="cls-7" cx="223.31" cy="182.83" r="5.04"/>
      <circle class="cls-7" cx="233.39" cy="182.83" r="5.04"/>
      <circle class="cls-7" cx="253.56" cy="182.83" r="5.04"/>
      <circle class="cls-7" cx="283.91" cy="182.77" r="5.04"/>
      <circle class="cls-7" cx="198.16" cy="193.04" r="5.04"/>
      <circle class="cls-7" cx="208.24" cy="193.04" r="5.04"/>
      <circle class="cls-7" cx="218.33" cy="193.04" r="5.04"/>
      <circle class="cls-7" cx="228.41" cy="193.04" r="5.04"/>
      <circle class="cls-7" cx="238.49" cy="193.04" r="5.04"/>
      <circle class="cls-7" cx="248.58" cy="193.04" r="5.04"/>
      <circle class="cls-7" cx="268.84" cy="192.98" r="5.04"/>
      <circle class="cls-7" cx="278.93" cy="192.98" r="5.04"/>
      <circle class="cls-7" cx="203.09" cy="203.31" r="5.04"/>
      <circle class="cls-7" cx="223.26" cy="203.31" r="5.04"/>
      <circle class="cls-7" cx="243.43" cy="203.31" r="5.04"/>
      <circle class="cls-7" cx="253.61" cy="203.25" r="5.04"/>
      <circle class="cls-7" cx="263.69" cy="203.25" r="5.04"/>
      <circle class="cls-7" cx="187.92" cy="213.17" r="5.04"/>
      <circle class="cls-7" cx="208.08" cy="213.17" r="5.04"/>
      <circle class="cls-7" cx="228.25" cy="213.17" r="5.04"/>
      <circle class="cls-7" cx="238.33" cy="213.17" r="5.04"/>
      <circle class="cls-7" cx="248.52" cy="213.11" r="5.04"/>
      <circle class="cls-7" cx="268.68" cy="213.11" r="5.04"/>
      <circle class="cls-7" cx="194.63" cy="223.09" r="5.04"/>
      <circle class="cls-7" cx="204.71" cy="223.09" r="5.04"/>
      <circle class="cls-7" cx="214.8" cy="223.09" r="5.04"/>
      <circle class="cls-7" cx="224.88" cy="223.09" r="5.04"/>
      <circle class="cls-7" cx="245.15" cy="223.03" r="5.04"/>
      <circle class="cls-7" cx="255.23" cy="223.03" r="5.04"/>
      <circle class="cls-7" cx="208.19" cy="233.63" r="5.04"/>
      <circle class="cls-7" cx="218.28" cy="233.63" r="5.04"/>
      <circle class="cls-7" cx="228.36" cy="233.63" r="5.04"/>
      <circle class="cls-7" cx="238.44" cy="233.63" r="5.04"/>
      <circle class="cls-7" cx="258.71" cy="233.57" r="5.04"/>
      <circle class="cls-7" cx="268.79" cy="233.57" r="5.04"/>
      <circle class="cls-7" cx="193.73" cy="243.46" r="5.04"/>
      <circle class="cls-7" cx="203.81" cy="243.46" r="5.04"/>
      <circle class="cls-7" cx="213.9" cy="243.46" r="5.04"/>
      <circle class="cls-7" cx="234.07" cy="243.46" r="5.04"/>
      <circle class="cls-7" cx="244.25" cy="243.4" r="5.04"/>
      <circle class="cls-7" cx="264.42" cy="243.4" r="5.04"/>
      <circle class="cls-7" cx="188.64" cy="253.35" r="5.04"/>
      <circle class="cls-7" cx="208.81" cy="253.35" r="5.04"/>
      <circle class="cls-7" cx="228.97" cy="253.35" r="5.04"/>
      <circle class="cls-7" cx="239.06" cy="253.35" r="5.04"/>
      <circle class="cls-7" cx="269.41" cy="253.29" r="5.04"/>
      <circle class="cls-7" cx="193.02" cy="263.44" r="5.04"/>
      <circle class="cls-7" cx="213.19" cy="263.44" r="5.04"/>
      <circle class="cls-7" cx="243.44" cy="263.44" r="5.04"/>
      <circle class="cls-7" cx="253.62" cy="263.38" r="5.04"/>
      <circle class="cls-7" cx="273.79" cy="263.38" r="5.04"/>
      <circle class="cls-7" cx="198.06" cy="273.14" r="5.04"/>
      <circle class="cls-7" cx="218.23" cy="273.14" r="5.04"/>
      <circle class="cls-7" cx="228.31" cy="273.14" r="5.04"/>
      <circle class="cls-7" cx="238.39" cy="273.14" r="5.04"/>
      <circle class="cls-7" cx="258.66" cy="273.08" r="5.04"/>
      <circle class="cls-7" cx="278.83" cy="273.08" r="5.04"/>
      <circle class="cls-7" cx="278.77" cy="213.2" r="5.04"/>
      <circle class="cls-7" cx="288.95" cy="213.14" r="5.04"/>
      <circle class="cls-7" cx="275.4" cy="223.35" r="5.04"/>
      <circle class="cls-7" cx="295.67" cy="223.29" r="5.04"/>
      <circle class="cls-7" cx="278.82" cy="233.6" r="5.04"/>
      <circle class="cls-7" cx="289" cy="233.54" r="5.04"/>
      <circle class="cls-7" cx="299.08" cy="233.54" r="5.04"/>
      <circle class="cls-7" cx="284.46" cy="243.37" r="5.04"/>
      <circle class="cls-7" cx="278.82" cy="253.32" r="5.04"/>
      <circle class="cls-7" cx="299.08" cy="253.26" r="5.04"/>
      <circle class="cls-7" cx="294.37" cy="263.41" r="5.04"/>
      <circle class="cls-7" cx="284.19" cy="203.06" r="5.04"/>
      <path class="cls-2" d="M453.97,113.96c4.39,6.78,9.15,16.47,10.97,28.69,2.46,16.53-1.6,30.07-3.38,35.16-3.74,10.75-7.16,12.24-11.81,27-2.67,8.47-3.78,15.06-4.22,18-.76,5.07-1.92,12.84-1.13,21.66.56,6.2,2.52,17.63,10.69,30.66h110.27"/>
      <path class="cls-2" d="M564.8,113.11c-1.72,4.09-3.68,9.4-5.34,15.75-.97,3.69-2.39,9.2-3.09,16.6-.98,10.25,0,18.11.56,22.5.61,4.72,1.27,9.6,3.38,15.75,1.14,3.34,2.37,5.93,4.78,10.97,5.43,11.37,6.18,11.06,7.88,15.47,2.76,7.18,2.78,13.16,2.81,21.94.04,10.17-1.5,17.81-1.97,19.97-2,9.3-5.23,17.04-8.44,23.07"/>
      <circle class="cls-7" cx="480.12" cy="139.05" r="5.04"/>
      <circle class="cls-7" cx="500.29" cy="139.05" r="5.04"/>
      <circle class="cls-7" cx="510.37" cy="139.05" r="5.04"/>
      <circle class="cls-7" cx="530.64" cy="138.99" r="5.04"/>
      <circle class="cls-7" cx="550.81" cy="138.99" r="5.04"/>
      <circle class="cls-7" cx="474.78" cy="149.13" r="5.04"/>
      <circle class="cls-7" cx="494.95" cy="149.13" r="5.04"/>
      <circle class="cls-7" cx="505.03" cy="149.13" r="5.04"/>
      <circle class="cls-7" cx="525.2" cy="149.13" r="5.04"/>
      <circle class="cls-7" cx="545.46" cy="149.07" r="5.04"/>
      <circle class="cls-7" cx="469.69" cy="159.34" r="5.04"/>
      <circle class="cls-7" cx="489.85" cy="159.34" r="5.04"/>
      <circle class="cls-7" cx="499.94" cy="159.34" r="5.04"/>
      <circle class="cls-7" cx="510.02" cy="159.34" r="5.04"/>
      <circle class="cls-7" cx="550.46" cy="159.28" r="5.04"/>
      <circle class="cls-7" cx="485.11" cy="169.42" r="5.04"/>
      <circle class="cls-7" cx="505.28" cy="169.42" r="5.04"/>
      <circle class="cls-7" cx="525.45" cy="169.42" r="5.04"/>
      <circle class="cls-7" cx="535.63" cy="169.36" r="5.04"/>
      <circle class="cls-7" cx="469.64" cy="179.28" r="5.04"/>
      <circle class="cls-7" cx="489.81" cy="179.28" r="5.04"/>
      <circle class="cls-7" cx="499.89" cy="179.28" r="5.04"/>
      <circle class="cls-7" cx="520.06" cy="179.28" r="5.04"/>
      <circle class="cls-7" cx="550.41" cy="179.22" r="5.04"/>
      <circle class="cls-7" cx="464.66" cy="189.49" r="5.04"/>
      <circle class="cls-7" cx="474.74" cy="189.49" r="5.04"/>
      <circle class="cls-7" cx="484.82" cy="189.49" r="5.04"/>
      <circle class="cls-7" cx="494.91" cy="189.49" r="5.04"/>
      <circle class="cls-7" cx="504.99" cy="189.49" r="5.04"/>
      <circle class="cls-7" cx="515.08" cy="189.49" r="5.04"/>
      <circle class="cls-7" cx="535.34" cy="189.43" r="5.04"/>
      <circle class="cls-7" cx="545.43" cy="189.43" r="5.04"/>
      <circle class="cls-7" cx="469.59" cy="199.76" r="5.04"/>
      <circle class="cls-7" cx="489.76" cy="199.76" r="5.04"/>
      <circle class="cls-7" cx="509.92" cy="199.76" r="5.04"/>
      <circle class="cls-7" cx="520.11" cy="199.7" r="5.04"/>
      <circle class="cls-7" cx="530.19" cy="199.7" r="5.04"/>
      <circle class="cls-7" cx="454.41" cy="209.62" r="5.04"/>
      <circle class="cls-7" cx="474.58" cy="209.62" r="5.04"/>
      <circle class="cls-7" cx="494.75" cy="209.62" r="5.04"/>
      <circle class="cls-7" cx="504.83" cy="209.62" r="5.04"/>
      <circle class="cls-7" cx="515.01" cy="209.56" r="5.04"/>
      <circle class="cls-7" cx="535.18" cy="209.56" r="5.04"/>
      <circle class="cls-7" cx="461.13" cy="219.54" r="5.04"/>
      <circle class="cls-7" cx="471.21" cy="219.54" r="5.04"/>
      <circle class="cls-7" cx="481.3" cy="219.54" r="5.04"/>
      <circle class="cls-7" cx="491.38" cy="219.54" r="5.04"/>
      <circle class="cls-7" cx="511.65" cy="219.48" r="5.04"/>
      <circle class="cls-7" cx="521.73" cy="219.48" r="5.04"/>
      <circle class="cls-7" cx="474.69" cy="230.08" r="5.04"/>
      <circle class="cls-7" cx="484.77" cy="230.08" r="5.04"/>
      <circle class="cls-7" cx="494.86" cy="230.08" r="5.04"/>
      <circle class="cls-7" cx="504.94" cy="230.08" r="5.04"/>
      <circle class="cls-7" cx="525.21" cy="230.02" r="5.04"/>
      <circle class="cls-7" cx="535.29" cy="230.02" r="5.04"/>
      <circle class="cls-7" cx="460.23" cy="239.91" r="5.04"/>
      <circle class="cls-7" cx="470.31" cy="239.91" r="5.04"/>
      <circle class="cls-7" cx="480.4" cy="239.91" r="5.04"/>
      <circle class="cls-7" cx="500.56" cy="239.91" r="5.04"/>
      <circle class="cls-7" cx="510.75" cy="239.85" r="5.04"/>
      <circle class="cls-7" cx="530.91" cy="239.85" r="5.04"/>
      <circle class="cls-7" cx="455.14" cy="249.8" r="5.04"/>
      <circle class="cls-7" cx="475.31" cy="249.8" r="5.04"/>
      <circle class="cls-7" cx="495.47" cy="249.8" r="5.04"/>
      <circle class="cls-7" cx="505.56" cy="249.8" r="5.04"/>
      <circle class="cls-7" cx="535.91" cy="249.74" r="5.04"/>
      <circle class="cls-7" cx="459.52" cy="259.88" r="5.04"/>
      <circle class="cls-7" cx="479.68" cy="259.88" r="5.04"/>
      <circle class="cls-7" cx="509.93" cy="259.88" r="5.04"/>
      <circle class="cls-7" cx="520.12" cy="259.82" r="5.04"/>
      <circle class="cls-7" cx="540.28" cy="259.82" r="5.04"/>
      <circle class="cls-7" cx="464.56" cy="269.58" r="5.04"/>
      <circle class="cls-7" cx="484.73" cy="269.58" r="5.04"/>
      <circle class="cls-7" cx="494.81" cy="269.58" r="5.04"/>
      <circle class="cls-7" cx="504.89" cy="269.58" r="5.04"/>
      <circle class="cls-7" cx="525.16" cy="269.52" r="5.04"/>
      <circle class="cls-7" cx="545.33" cy="269.52" r="5.04"/>
      <circle class="cls-7" cx="545.27" cy="209.65" r="5.04"/>
      <circle class="cls-7" cx="555.45" cy="209.59" r="5.04"/>
      <circle class="cls-7" cx="541.9" cy="219.79" r="5.04"/>
      <circle class="cls-7" cx="562.16" cy="219.73" r="5.04"/>
      <circle class="cls-7" cx="545.32" cy="230.05" r="5.04"/>
      <circle class="cls-7" cx="555.5" cy="229.98" r="5.04"/>
      <circle class="cls-7" cx="565.58" cy="229.98" r="5.04"/>
      <circle class="cls-7" cx="550.95" cy="239.82" r="5.04"/>
      <circle class="cls-7" cx="545.32" cy="249.77" r="5.04"/>
      <circle class="cls-7" cx="565.58" cy="249.71" r="5.04"/>
      <circle class="cls-7" cx="560.87" cy="259.85" r="5.04"/>
      <circle class="cls-7" cx="550.68" cy="199.51" r="5.04"/>
      <path class="cls-2" d="M34.09,119.59c4.39,6.78,9.15,16.47,10.97,28.69,2.46,16.53-1.6,30.07-3.38,35.16-3.74,10.75-7.16,12.24-11.81,27-2.67,8.47-3.78,15.06-4.22,18-.76,5.07-1.92,12.84-1.13,21.66.56,6.2,2.52,17.63,10.69,30.66h110.27"/>
      <path class="cls-2" d="M144.92,118.75c-1.72,4.09-3.68,9.4-5.34,15.75-.97,3.69-2.39,9.2-3.09,16.6-.98,10.25,0,18.11.56,22.5.61,4.72,1.27,9.6,3.38,15.75,1.14,3.34,2.37,5.93,4.78,10.97,5.43,11.37,6.18,11.06,7.88,15.47,2.76,7.18,2.78,13.16,2.81,21.94.04,10.17-1.5,17.81-1.97,19.97-2,9.3-5.23,17.04-8.44,23.07"/>
      <circle class="cls-7" cx="60.24" cy="144.69" r="5.04"/>
      <circle class="cls-6" cx="80.41" cy="144.69" r="5.04"/>
      <circle class="cls-7" cx="90.49" cy="144.69" r="5.04"/>
      <circle class="cls-7" cx="110.76" cy="144.62" r="5.04"/>
      <circle class="cls-7" cx="130.92" cy="144.62" r="5.04"/>
      <circle class="cls-7" cx="54.9" cy="154.77" r="5.04"/>
      <circle class="cls-7" cx="75.06" cy="154.77" r="5.04"/>
      <circle class="cls-7" cx="85.15" cy="154.77" r="5.04"/>
      <circle class="cls-6" cx="105.32" cy="154.77" r="5.04"/>
      <circle class="cls-7" cx="125.58" cy="154.71" r="5.04"/>
      <circle class="cls-7" cx="49.81" cy="164.97" r="5.04"/>
      <circle class="cls-7" cx="69.97" cy="164.97" r="5.04"/>
      <circle class="cls-6" cx="80.06" cy="164.97" r="5.04"/>
      <circle class="cls-7" cx="90.14" cy="164.97" r="5.04"/>
      <circle class="cls-7" cx="130.57" cy="164.91" r="5.04"/>
      <circle class="cls-7" cx="65.23" cy="175.06" r="5.04"/>
      <circle class="cls-6" cx="85.4" cy="175.06" r="5.04"/>
      <circle class="cls-7" cx="105.57" cy="175.06" r="5.04"/>
      <circle class="cls-6" cx="115.75" cy="175" r="5.04"/>
      <circle class="cls-6" cx="49.76" cy="184.92" r="5.04"/>
      <circle class="cls-6" cx="69.92" cy="184.92" r="5.04"/>
      <circle class="cls-6" cx="80.01" cy="184.92" r="5.04"/>
      <circle class="cls-7" cx="100.18" cy="184.92" r="5.04"/>
      <circle class="cls-7" cx="130.53" cy="184.86" r="5.04"/>
      <circle class="cls-6" cx="44.78" cy="195.13" r="5.04"/>
      <circle class="cls-7" cx="54.86" cy="195.13" r="5.04"/>
      <circle class="cls-7" cx="64.94" cy="195.13" r="5.04"/>
      <circle class="cls-6" cx="75.03" cy="195.13" r="5.04"/>
      <circle class="cls-7" cx="85.11" cy="195.13" r="5.04"/>
      <circle class="cls-7" cx="95.19" cy="195.13" r="5.04"/>
      <circle class="cls-6" cx="115.46" cy="195.07" r="5.04"/>
      <circle class="cls-7" cx="125.54" cy="195.07" r="5.04"/>
      <circle class="cls-7" cx="49.71" cy="205.4" r="5.04"/>
      <circle class="cls-7" cx="69.87" cy="205.4" r="5.04"/>
      <circle class="cls-7" cx="90.04" cy="205.4" r="5.04"/>
      <circle class="cls-7" cx="100.22" cy="205.34" r="5.04"/>
      <circle class="cls-6" cx="110.31" cy="205.34" r="5.04"/>
      <circle class="cls-7" cx="34.53" cy="215.25" r="5.04"/>
      <circle class="cls-7" cx="54.7" cy="215.25" r="5.04"/>
      <circle class="cls-7" cx="74.87" cy="215.25" r="5.04"/>
      <circle class="cls-6" cx="84.95" cy="215.25" r="5.04"/>
      <circle class="cls-6" cx="95.13" cy="215.19" r="5.04"/>
      <circle class="cls-7" cx="115.3" cy="215.19" r="5.04"/>
      <circle class="cls-7" cx="41.25" cy="225.17" r="5.04"/>
      <circle class="cls-6" cx="51.33" cy="225.17" r="5.04"/>
      <circle class="cls-6" cx="61.42" cy="225.17" r="5.04"/>
      <circle class="cls-7" cx="71.5" cy="225.17" r="5.04"/>
      <circle class="cls-7" cx="91.77" cy="225.11" r="5.04"/>
      <circle class="cls-7" cx="101.85" cy="225.11" r="5.04"/>
      <circle class="cls-7" cx="54.81" cy="235.71" r="5.04"/>
      <circle class="cls-7" cx="64.89" cy="235.71" r="5.04"/>
      <circle class="cls-7" cx="74.98" cy="235.71" r="5.04"/>
      <circle class="cls-7" cx="85.06" cy="235.71" r="5.04"/>
      <circle class="cls-7" cx="105.33" cy="235.65" r="5.04"/>
      <circle class="cls-7" cx="115.41" cy="235.65" r="5.04"/>
      <circle class="cls-7" cx="40.35" cy="245.54" r="5.04"/>
      <circle class="cls-6" cx="50.43" cy="245.54" r="5.04"/>
      <circle class="cls-7" cx="60.52" cy="245.54" r="5.04"/>
      <circle class="cls-6" cx="80.68" cy="245.54" r="5.04"/>
      <circle class="cls-7" cx="90.87" cy="245.48" r="5.04"/>
      <circle class="cls-6" cx="111.03" cy="245.48" r="5.04"/>
      <circle class="cls-7" cx="35.26" cy="255.44" r="5.04"/>
      <circle class="cls-7" cx="55.42" cy="255.44" r="5.04"/>
      <circle class="cls-6" cx="75.59" cy="255.44" r="5.04"/>
      <circle class="cls-7" cx="85.67" cy="255.44" r="5.04"/>
      <circle class="cls-6" cx="116.02" cy="255.37" r="5.04"/>
      <circle class="cls-6" cx="39.63" cy="265.52" r="5.04"/>
      <circle class="cls-7" cx="59.8" cy="265.52" r="5.04"/>
      <circle class="cls-7" cx="90.05" cy="265.52" r="5.04"/>
      <circle class="cls-7" cx="100.24" cy="265.46" r="5.04"/>
      <circle class="cls-7" cx="120.4" cy="265.46" r="5.04"/>
      <circle class="cls-7" cx="44.68" cy="275.22" r="5.04"/>
      <circle class="cls-7" cx="64.84" cy="275.22" r="5.04"/>
      <circle class="cls-6" cx="74.93" cy="275.22" r="5.04"/>
      <circle class="cls-7" cx="85.01" cy="275.22" r="5.04"/>
      <circle class="cls-7" cx="105.28" cy="275.16" r="5.04"/>
      <circle class="cls-7" cx="125.44" cy="275.16" r="5.04"/>
      <circle class="cls-7" cx="125.38" cy="215.28" r="5.04"/>
      <circle class="cls-6" cx="135.57" cy="215.22" r="5.04"/>
      <circle class="cls-7" cx="122.02" cy="225.43" r="5.04"/>
      <circle class="cls-7" cx="142.28" cy="225.37" r="5.04"/>
      <circle class="cls-6" cx="125.43" cy="235.68" r="5.04"/>
      <circle class="cls-7" cx="135.62" cy="235.62" r="5.04"/>
      <circle class="cls-7" cx="145.7" cy="235.62" r="5.04"/>
      <circle class="cls-7" cx="131.07" cy="245.45" r="5.04"/>
      <circle class="cls-7" cx="125.43" cy="255.4" r="5.04"/>
      <circle class="cls-7" cx="145.7" cy="255.34" r="5.04"/>
      <circle class="cls-6" cx="140.99" cy="265.49" r="5.04"/>
      <circle class="cls-6" cx="130.8" cy="205.14" r="5.04"/>
    </g>
    <g id="_빨강" data-name="빨강">
      <circle class="cls-6" cx="203.54" cy="142.6" r="5.04"/>
      <circle class="cls-6" cx="223.71" cy="142.6" r="5.04"/>
      <circle class="cls-6" cx="253.96" cy="142.6" r="5.04"/>
      <circle class="cls-7" cx="274.22" cy="142.54" r="5.04"/>
      <circle class="cls-7" cx="218.36" cy="152.69" r="5.04"/>
      <circle class="cls-6" cx="248.62" cy="152.69" r="5.04"/>
      <circle class="cls-6" cx="268.88" cy="152.63" r="5.04"/>
      <circle class="cls-6" cx="213.27" cy="162.89" r="5.04"/>
      <circle class="cls-6" cx="253.61" cy="162.89" r="5.04"/>
      <circle class="cls-6" cx="263.79" cy="162.83" r="5.04"/>
      <circle class="cls-7" cx="273.87" cy="162.83" r="5.04"/>
      <circle class="cls-6" cx="208.53" cy="172.98" r="5.04"/>
      <circle class="cls-6" cx="228.7" cy="172.98" r="5.04"/>
      <circle class="cls-6" cx="248.87" cy="172.98" r="5.04"/>
      <circle class="cls-6" cx="279.22" cy="172.92" r="5.04"/>
      <circle class="cls-6" cx="213.22" cy="182.83" r="5.04"/>
      <circle class="cls-7" cx="243.47" cy="182.83" r="5.04"/>
      <circle class="cls-7" cx="263.74" cy="182.77" r="5.04"/>
      <circle class="cls-6" cx="273.82" cy="182.77" r="5.04"/>
      <circle class="cls-6" cx="258.76" cy="192.98" r="5.04"/>
      <circle class="cls-6" cx="193.01" cy="203.31" r="5.04"/>
      <circle class="cls-7" cx="213.17" cy="203.31" r="5.04"/>
      <circle class="cls-6" cx="233.34" cy="203.31" r="5.04"/>
      <circle class="cls-6" cx="273.78" cy="203.25" r="5.04"/>
      <circle class="cls-6" cx="198" cy="213.17" r="5.04"/>
      <circle class="cls-6" cx="218.17" cy="213.17" r="5.04"/>
      <circle class="cls-6" cx="258.6" cy="213.11" r="5.04"/>
      <circle class="cls-6" cx="184.55" cy="223.09" r="5.04"/>
      <circle class="cls-6" cx="234.97" cy="223.09" r="5.04"/>
      <circle class="cls-6" cx="265.32" cy="223.03" r="5.04"/>
      <circle class="cls-7" cx="188.03" cy="233.63" r="5.04"/>
      <circle class="cls-6" cx="198.11" cy="233.63" r="5.04"/>
      <circle class="cls-7" cx="248.63" cy="233.57" r="5.04"/>
      <circle class="cls-6" cx="183.65" cy="243.46" r="5.04"/>
      <circle class="cls-6" cx="223.98" cy="243.46" r="5.04"/>
      <circle class="cls-6" cx="254.33" cy="243.4" r="5.04"/>
      <circle class="cls-6" cx="198.72" cy="253.35" r="5.04"/>
      <circle class="cls-6" cx="218.89" cy="253.35" r="5.04"/>
      <circle class="cls-6" cx="249.24" cy="253.29" r="5.04"/>
      <circle class="cls-7" cx="259.32" cy="253.29" r="5.04"/>
      <circle class="cls-7" cx="203.1" cy="263.44" r="5.04"/>
      <circle class="cls-6" cx="223.27" cy="263.44" r="5.04"/>
      <circle class="cls-6" cx="233.35" cy="263.44" r="5.04"/>
      <circle class="cls-6" cx="263.7" cy="263.38" r="5.04"/>
      <circle class="cls-6" cx="208.14" cy="273.14" r="5.04"/>
      <circle class="cls-6" cx="248.48" cy="273.14" r="5.04"/>
      <circle class="cls-6" cx="268.74" cy="273.08" r="5.04"/>
      <circle class="cls-6" cx="299.03" cy="213.14" r="5.04"/>
      <circle class="cls-6" cx="285.58" cy="223.29" r="5.04"/>
      <circle class="cls-6" cx="274.27" cy="243.43" r="5.04"/>
      <circle class="cls-6" cx="294.54" cy="243.37" r="5.04"/>
      <circle class="cls-7" cx="289" cy="253.26" r="5.04"/>
      <circle class="cls-6" cx="284.19" cy="263.47" r="5.04"/>
      <circle class="cls-6" cx="288.9" cy="273.61" r="5.04"/>
      <circle class="cls-7" cx="294.37" cy="203" r="5.04"/>
      <circle class="cls-6" cx="288.95" cy="192.95" r="5.04"/>
      <circle class="cls-6" cx="470.04" cy="139.05" r="5.04"/>
      <circle class="cls-6" cx="490.2" cy="139.05" r="5.04"/>
      <circle class="cls-6" cx="520.46" cy="139.05" r="5.04"/>
      <circle class="cls-6" cx="540.72" cy="138.99" r="5.04"/>
      <circle class="cls-6" cx="484.86" cy="149.13" r="5.04"/>
      <circle class="cls-6" cx="515.11" cy="149.13" r="5.04"/>
      <circle class="cls-6" cx="535.38" cy="149.07" r="5.04"/>
      <circle class="cls-6" cx="479.77" cy="159.34" r="5.04"/>
      <circle class="cls-6" cx="520.11" cy="159.34" r="5.04"/>
      <circle class="cls-6" cx="530.29" cy="159.28" r="5.04"/>
      <circle class="cls-6" cx="540.37" cy="159.28" r="5.04"/>
      <circle class="cls-6" cx="475.03" cy="169.42" r="5.04"/>
      <circle class="cls-6" cx="495.2" cy="169.42" r="5.04"/>
      <circle class="cls-6" cx="515.36" cy="169.42" r="5.04"/>
      <circle class="cls-6" cx="545.71" cy="169.36" r="5.04"/>
      <circle class="cls-6" cx="479.72" cy="179.28" r="5.04"/>
      <circle class="cls-6" cx="509.97" cy="179.28" r="5.04"/>
      <circle class="cls-6" cx="530.24" cy="179.22" r="5.04"/>
      <circle class="cls-6" cx="540.32" cy="179.22" r="5.04"/>
      <circle class="cls-6" cx="525.26" cy="189.43" r="5.04"/>
      <circle class="cls-6" cx="459.5" cy="199.76" r="5.04"/>
      <circle class="cls-6" cx="479.67" cy="199.76" r="5.04"/>
      <circle class="cls-6" cx="499.84" cy="199.76" r="5.04"/>
      <circle class="cls-6" cx="540.27" cy="199.7" r="5.04"/>
      <circle class="cls-6" cx="464.5" cy="209.62" r="5.04"/>
      <circle class="cls-6" cx="484.66" cy="209.62" r="5.04"/>
      <circle class="cls-6" cx="525.1" cy="209.56" r="5.04"/>
      <circle class="cls-6" cx="451.05" cy="219.54" r="5.04"/>
      <circle class="cls-6" cx="501.46" cy="219.54" r="5.04"/>
      <circle class="cls-6" cx="531.81" cy="219.48" r="5.04"/>
      <circle class="cls-6" cx="454.52" cy="230.08" r="5.04"/>
      <circle class="cls-6" cx="464.61" cy="230.08" r="5.04"/>
      <circle class="cls-6" cx="515.12" cy="230.02" r="5.04"/>
      <circle class="cls-6" cx="450.15" cy="239.91" r="5.04"/>
      <circle class="cls-6" cx="490.48" cy="239.91" r="5.04"/>
      <circle class="cls-6" cx="520.83" cy="239.85" r="5.04"/>
      <circle class="cls-6" cx="465.22" cy="249.8" r="5.04"/>
      <circle class="cls-6" cx="485.39" cy="249.8" r="5.04"/>
      <circle class="cls-6" cx="515.74" cy="249.74" r="5.04"/>
      <circle class="cls-6" cx="525.82" cy="249.74" r="5.04"/>
      <circle class="cls-6" cx="469.6" cy="259.88" r="5.04"/>
      <circle class="cls-6" cx="489.77" cy="259.88" r="5.04"/>
      <circle class="cls-6" cx="499.85" cy="259.88" r="5.04"/>
      <circle class="cls-6" cx="530.2" cy="259.82" r="5.04"/>
      <circle class="cls-6" cx="474.64" cy="269.58" r="5.04"/>
      <circle class="cls-6" cx="514.98" cy="269.58" r="5.04"/>
      <circle class="cls-6" cx="535.24" cy="269.52" r="5.04"/>
      <circle class="cls-6" cx="565.53" cy="209.59" r="5.04"/>
      <circle class="cls-6" cx="552.08" cy="219.73" r="5.04"/>
      <circle class="cls-6" cx="540.77" cy="239.88" r="5.04"/>
      <circle class="cls-6" cx="561.04" cy="239.82" r="5.04"/>
      <circle class="cls-6" cx="555.5" cy="249.71" r="5.04"/>
      <circle class="cls-6" cx="550.68" cy="259.91" r="5.04"/>
      <circle class="cls-6" cx="555.4" cy="270.06" r="5.04"/>
      <circle class="cls-6" cx="560.87" cy="199.45" r="5.04"/>
      <circle class="cls-6" cx="555.45" cy="189.39" r="5.04"/>
      <circle class="cls-6" cx="50.16" cy="144.69" r="5.04"/>
      <circle class="cls-6" cx="70.32" cy="144.69" r="5.04"/>
      <circle class="cls-6" cx="100.57" cy="144.69" r="5.04"/>
      <circle class="cls-6" cx="120.84" cy="144.62" r="5.04"/>
      <circle class="cls-6" cx="64.98" cy="154.77" r="5.04"/>
      <circle class="cls-6" cx="95.23" cy="154.77" r="5.04"/>
      <circle class="cls-6" cx="115.5" cy="154.71" r="5.04"/>
      <circle class="cls-6" cx="59.89" cy="164.97" r="5.04"/>
      <circle class="cls-6" cx="100.22" cy="164.97" r="5.04"/>
      <circle class="cls-6" cx="110.41" cy="164.91" r="5.04"/>
      <circle class="cls-6" cx="120.49" cy="164.91" r="5.04"/>
      <circle class="cls-6" cx="55.15" cy="175.06" r="5.04"/>
      <circle class="cls-6" cx="75.32" cy="175.06" r="5.04"/>
      <circle class="cls-6" cx="95.48" cy="175.06" r="5.04"/>
      <circle class="cls-6" cx="125.83" cy="175" r="5.04"/>
      <circle class="cls-6" cx="59.84" cy="184.92" r="5.04"/>
      <circle class="cls-6" cx="90.09" cy="184.92" r="5.04"/>
      <circle class="cls-6" cx="110.36" cy="184.86" r="5.04"/>
      <circle class="cls-6" cx="120.44" cy="184.86" r="5.04"/>
      <circle class="cls-6" cx="105.38" cy="195.07" r="5.04"/>
      <circle class="cls-6" cx="39.62" cy="205.4" r="5.04"/>
      <circle class="cls-6" cx="59.79" cy="205.4" r="5.04"/>
      <circle class="cls-6" cx="79.96" cy="205.4" r="5.04"/>
      <circle class="cls-6" cx="120.39" cy="205.34" r="5.04"/>
      <circle class="cls-6" cx="44.62" cy="215.25" r="5.04"/>
      <circle class="cls-6" cx="64.78" cy="215.25" r="5.04"/>
      <circle class="cls-6" cx="105.22" cy="215.19" r="5.04"/>
      <circle class="cls-6" cx="31.16" cy="225.17" r="5.04"/>
      <circle class="cls-6" cx="81.58" cy="225.17" r="5.04"/>
      <circle class="cls-6" cx="111.93" cy="225.11" r="5.04"/>
      <circle class="cls-6" cx="34.64" cy="235.71" r="5.04"/>
      <circle class="cls-6" cx="44.73" cy="235.71" r="5.04"/>
      <circle class="cls-6" cx="95.24" cy="235.65" r="5.04"/>
      <circle class="cls-6" cx="30.26" cy="245.54" r="5.04"/>
      <circle class="cls-6" cx="70.6" cy="245.54" r="5.04"/>
      <circle class="cls-6" cx="100.95" cy="245.48" r="5.04"/>
      <circle class="cls-6" cx="45.34" cy="255.44" r="5.04"/>
      <circle class="cls-6" cx="65.51" cy="255.44" r="5.04"/>
      <circle class="cls-6" cx="95.86" cy="255.37" r="5.04"/>
      <circle class="cls-6" cx="105.94" cy="255.37" r="5.04"/>
      <circle class="cls-6" cx="49.72" cy="265.52" r="5.04"/>
      <circle class="cls-6" cx="69.89" cy="265.52" r="5.04"/>
      <circle class="cls-6" cx="79.97" cy="265.52" r="5.04"/>
      <circle class="cls-6" cx="110.32" cy="265.46" r="5.04"/>
      <circle class="cls-6" cx="54.76" cy="275.22" r="5.04"/>
      <circle class="cls-6" cx="95.09" cy="275.22" r="5.04"/>
      <circle class="cls-6" cx="115.36" cy="275.16" r="5.04"/>
      <circle class="cls-6" cx="145.65" cy="215.22" r="5.04"/>
      <circle class="cls-6" cx="132.2" cy="225.37" r="5.04"/>
      <circle class="cls-6" cx="120.89" cy="245.51" r="5.04"/>
      <circle class="cls-6" cx="141.16" cy="245.45" r="5.04"/>
      <circle class="cls-6" cx="135.62" cy="255.34" r="5.04"/>
      <circle class="cls-6" cx="130.8" cy="265.55" r="5.04"/>
      <circle class="cls-6" cx="135.52" cy="275.69" r="5.04"/>
      <circle class="cls-6" cx="140.99" cy="205.08" r="5.04"/>
      <circle class="cls-6" cx="135.57" cy="195.03" r="5.04"/>
      <circle class="cls-6" cx="44.6" cy="320.58" r="5.01"/>
      <circle class="cls-6" cx="106.76" cy="320.52" r="5.01"/>
      <circle class="cls-6" cx="119.1" cy="320.67" r="5.01"/>
      <circle class="cls-6" cx="199.1" cy="320.65" r="5.01"/>
      <circle class="cls-6" cx="261.26" cy="320.59" r="5.01"/>
      <circle class="cls-7" cx="273.6" cy="320.74" r="5.01"/>
      <circle class="cls-6" cx="470.62" cy="320.61" r="5.01"/>
      <circle class="cls-6" cx="532.78" cy="320.55" r="5.01"/>
      <circle class="cls-6" cx="545.13" cy="320.7" r="5.01"/>
    </g>
    <g id="_샘플원통" data-name="샘플원통">
      <circle class="cls-6" cx="31.6" cy="320.64" r="5.01"/>
      <circle class="cls-7" cx="56.65" cy="320.58" r="5.01"/>
      <circle class="cls-6" cx="69.72" cy="320.55" r="5.01"/>
      <circle class="cls-6" cx="81.84" cy="320.67" r="5.01"/>
      <circle class="cls-7" cx="94.13" cy="320.58" r="5.01"/>
      <circle class="cls-7" cx="131.59" cy="320.52" r="5.01"/>
      <circle class="cls-7" cx="144.38" cy="320.52" r="5.01"/>
      <circle class="cls-7" cx="186.1" cy="320.71" r="5.01"/>
      <circle class="cls-7" cx="211.14" cy="320.65" r="5.01"/>
      <circle class="cls-7" cx="224.22" cy="320.62" r="5.01"/>
      <circle class="cls-7" cx="236.34" cy="320.74" r="5.01"/>
      <circle class="cls-7" cx="248.63" cy="320.65" r="5.01"/>
      <circle class="cls-7" cx="286.09" cy="320.59" r="5.01"/>
      <circle class="cls-7" cx="298.88" cy="320.59" r="5.01"/>
      <circle class="cls-7" cx="457.62" cy="320.67" r="5.01"/>
      <circle class="cls-6" cx="482.67" cy="320.61" r="5.01"/>
      <circle class="cls-7" cx="495.75" cy="320.58" r="5.01"/>
      <circle class="cls-7" cx="507.86" cy="320.7" r="5.01"/>
      <circle class="cls-7" cx="520.15" cy="320.61" r="5.01"/>
      <circle class="cls-7" cx="557.61" cy="320.55" r="5.01"/>
      <circle class="cls-7" cx="570.4" cy="320.55" r="5.01"/>
    </g>
  </g>
</svg>