<?xml version="1.0" encoding="UTF-8"?>
<svg xmlns="http://www.w3.org/2000/svg" version="1.1" viewBox="0 0 600 600">
  <defs>
    <style>
      .cls-1 {
        fill: none;
        stroke: #000;
        stroke-miterlimit: 10;
      }

      .cls-2 {
        fill: #e60012;
      }

      .cls-3 {
        fill: blue;
      }
    </style>
  </defs>
  <!-- Generator: Adobe Illustrator 28.7.1, SVG Export Plug-In . SVG Version: 1.2.0 Build 142)  -->
  <g>
    <g id="_레이어_1" data-name="레이어_1">
      <path class="cls-1" d="M209.45,292.78c10.38-9.14,15.9-14,25.21-16.52,8.15-2.21,14.43-1.33,23.91,0,14.5,2.03,24.65,6.93,30.86,10,8.46,4.17,13.26,6.61,17.82,12.17,2.28,2.78,8.8,10.74,6.95,19.56-.38,1.81-1.41,5.09-7.82,11.3-4.94,4.78-13.77,13.34-28.69,17.39-12.08,3.28-21.88,1.9-28.69.87-8.1-1.23-20.1-3.05-31.3-12.17-2.78-2.26-11.78-9.79-14.78-21.73-1.72-6.85-.42-10.98,0-12.17,1.38-3.94,3.91-6.4,6.52-8.69Z"/>
      <circle class="cls-3" cx="478.83" cy="261.7" r="8.91"/>
      <circle cx="258.29" cy="309.15" r="8.91"/>
      <g>
        <line class="cls-2" x1="279.43" y1="306.69" x2="457.2" y2="264.96"/>
        <g>
          <line class="cls-1" x1="286.3" y1="305.07" x2="451.39" y2="266.32"/>
          <polygon points="279.43 306.69 290.04 308.37 286.81 304.95 288.18 300.46 279.43 306.69"/>
          <polygon points="449.5 270.57 450.19 266.61 447.81 263.36 457.2 264.96 449.5 270.57"/>
        </g>
      </g>
      <path d="M187.33,315.26l-.21.93c-.55.07-.98.1-1.27.1-.47,0-1.09-.04-1.86-.11-.83-.08-1.53-.11-2.12-.11-.47,0-.95.08-1.45.23.44-1.25.95-2.99,1.53-5.22l1.25-4.9-4.41.16c-.77.04-1.57.1-2.39.18-.74,2.9-1.5,5.05-2.28,6.44-.78,1.39-1.68,2.42-2.68,3.08-1.01.66-1.97.99-2.9.99s-1.67-.22-2.32-.65c-.47-.3-.7-.69-.7-1.14,0-.27.09-.5.28-.69s.41-.29.67-.29c.42,0,.86.3,1.3.9.27.36.49.59.66.69s.36.16.56.16c.85,0,1.64-.69,2.39-2.06.74-1.37,1.83-4.76,3.27-10.16l1.6-5.97c-2.17,0-3.81.36-4.9,1.08-1.09.72-1.64,1.53-1.64,2.43,0,.3.15.69.44,1.16.26.44.39.79.39,1.06,0,.32-.1.57-.3.77s-.45.3-.76.3c-.38,0-.71-.18-.98-.55-.27-.36-.41-.89-.41-1.59,0-1.26.46-2.38,1.37-3.34.91-.97,2.24-1.65,3.98-2.06,1-.23,3-.34,5.99-.34-.8,1.59-1.71,4.39-2.7,8.42,2.88,0,5.15-.1,6.8-.31.94-3.15,1.77-5.35,2.49-6.6.72-1.25,1.53-2.15,2.42-2.7.9-.55,1.9-.83,3.01-.83.96,0,1.69.18,2.21.55s.77.78.77,1.25c0,.27-.09.5-.28.67s-.42.26-.72.26c-.38,0-.81-.27-1.29-.82-.49-.54-.92-.82-1.3-.82-.81,0-1.62.76-2.41,2.27-1.41,2.7-3.05,8.39-4.9,17.08.18.02.44.06.78.11.62.11,1.12.16,1.49.16.44,0,.95-.05,1.51-.16Z"/>
      <g>
        <path d="M352.52,316.7v-.45l1.34-.11c0-.31.02-.65.02-1.01s0-.73,0-1.1c0-.37,0-.7,0-1v-8.22l-1.41-.08v-.43l2.5-.48.24.14-.05,2.48v3.26l.03.16v5.55l-.19,1.42-2.5-.14ZM357.77,316.94c-.49,0-.98-.12-1.48-.37s-.95-.66-1.35-1.25h-.18l.21-.4c.42.45.81.77,1.19.96.38.19.78.29,1.21.29s.86-.12,1.24-.35c.38-.23.69-.62.92-1.17.23-.54.35-1.26.35-2.14,0-1.21-.23-2.1-.7-2.69-.46-.59-1.06-.88-1.78-.88-.25,0-.5.04-.78.12-.27.08-.55.22-.84.42-.29.2-.61.5-.96.9l-.18-.46h.21c.44-.61.93-1.04,1.46-1.31.54-.27,1.08-.4,1.62-.4.65,0,1.23.18,1.73.53.5.35.9.85,1.18,1.49.29.64.43,1.4.43,2.27s-.15,1.63-.44,2.3c-.29.67-.7,1.2-1.23,1.58-.53.38-1.14.57-1.85.57Z"/>
        <path d="M364.07,316.7c.01-.26.02-.6.03-1.04.01-.44.02-.89.02-1.37,0-.47,0-.89,0-1.26v-.96c0-.54,0-1.03-.02-1.47s-.03-.85-.05-1.25l-1.42-.06v-.42l2.64-.62.19.13-.05,2.24v2.42c0,.36,0,.78,0,1.26,0,.48.01.93.02,1.37,0,.44.02.78.03,1.04h-1.42ZM362.74,316.7v-.45l1.76-.18h.5l1.7.18v.45h-3.95ZM364.66,306.22c-.26,0-.47-.08-.66-.25-.18-.17-.27-.38-.27-.65s.09-.49.27-.66c.18-.17.4-.26.66-.26s.46.09.65.26c.19.17.28.39.28.66s-.09.48-.28.65-.4.25-.65.25Z"/>
        <path d="M370.41,316.94c-.64,0-1.17-.18-1.58-.54s-.62-.88-.62-1.54c0-.42.09-.79.27-1.11.18-.33.48-.62.9-.87.42-.26.98-.48,1.69-.69.45-.14.92-.27,1.41-.4.49-.13.95-.24,1.38-.34v.4c-.43.11-.86.22-1.3.34-.44.12-.84.25-1.2.39-.68.25-1.17.54-1.45.88-.28.34-.42.74-.42,1.18,0,.49.14.86.41,1.12.27.26.63.38,1.08.38.25,0,.49-.05.72-.14.23-.1.5-.26.8-.5s.65-.55,1.06-.96l.14.75h-.38c-.33.35-.64.65-.94.9-.29.25-.59.43-.9.55-.31.12-.66.18-1.06.18ZM374.68,316.92c-.48,0-.84-.16-1.08-.49s-.38-.77-.41-1.34v-4.14c0-.6-.06-1.06-.19-1.38s-.33-.55-.59-.68-.61-.19-1.04-.19c-.31,0-.62.05-.93.14-.31.09-.64.23-.99.42l.69-.43-.26,1.26c-.04.29-.13.49-.26.61-.13.12-.3.18-.5.18-.38,0-.62-.19-.7-.58.16-.65.53-1.16,1.1-1.54s1.31-.56,2.21-.56,1.62.22,2.07.66c.45.44.68,1.16.68,2.15v3.95c0,.5.06.84.18,1.02s.28.26.5.26c.14,0,.26-.03.37-.09.11-.06.22-.16.35-.3l.26.24c-.17.28-.38.48-.62.62-.24.13-.52.2-.82.2Z"/>
        <path d="M379.82,316.94c-.51,0-.98-.06-1.39-.17-.42-.11-.84-.27-1.28-.47v-1.9h.7l.38,2.02-.59-.03v-.58c.3.2.61.36.94.46.33.11.73.16,1.2.16.7,0,1.23-.14,1.59-.43s.54-.66.54-1.1c0-.39-.12-.72-.36-.97-.24-.25-.69-.48-1.34-.68l-.83-.3c-.65-.23-1.17-.54-1.54-.9s-.57-.85-.57-1.45c0-.67.26-1.24.78-1.7s1.26-.69,2.22-.69c.48,0,.91.06,1.29.18s.77.3,1.16.54l-.05,1.71h-.64l-.38-1.87.5.1v.51c-.32-.22-.63-.39-.93-.49s-.61-.15-.94-.15c-.61,0-1.07.13-1.38.4s-.46.61-.46,1.04c0,.38.13.7.38.94.26.24.67.46,1.25.66l.82.29c.81.28,1.39.61,1.73.99.34.38.51.85.51,1.41,0,.46-.13.88-.38,1.26-.25.38-.62.68-1.1.9-.48.22-1.09.33-1.82.33Z"/>
      </g>
    </g>
    <g id="_격리_모드" data-name="격리_모드">
      <path d="M514.71,246.05c0,.38-.15.67-.44.9-.29.23-.55.32-.79.32s-.41-.03-.55-.12-.32-.17-.47-.26-.32-.2-.49-.29-.38-.15-.61-.15c-.52,0-.99.17-1.37.55-.38.35-.73.84-1.05,1.46s-.58,1.31-.84,2.13-.49,1.69-.76,2.59h3.76l-.2.99h-3.7c-.52,2.15-1.08,4.16-1.66,6.08-.23.84-.49,1.69-.79,2.56s-.55,1.69-.84,2.47c-.29.79-.58,1.54-.9,2.24s-.61,1.28-.9,1.78c-.9,1.48-1.8,2.62-2.74,3.44-.9.82-1.86,1.22-2.82,1.22-.44,0-.76-.15-.93-.44s-.29-.64-.29-1.11c0-.38.17-.64.52-.76.35-.15.73-.2,1.16-.26h1.28c.41,0,.73,0,.9-.15.49-.29.87-.58,1.16-.93.29-.32.55-.82.79-1.43s.44-1.46.67-2.47.49-2.39.87-4.08c.15-.64.32-1.43.61-2.36.26-.93.52-1.8.79-2.68.32-1.02.64-2.07.99-3.14h-3.17l.2-.99h3.38c.32-.93.7-1.89,1.22-2.91.49-1.02,1.08-1.95,1.72-2.82.64-.84,1.37-1.57,2.13-2.15s1.57-.84,2.45-.84c.7,0,1.14.17,1.4.55s.35.7.35,1.05h-.03Z"/>
    </g>
  </g>
</svg>