<?xml version="1.0" encoding="UTF-8"?>
<svg xmlns="http://www.w3.org/2000/svg" version="1.1" xmlns:xlink="http://www.w3.org/1999/xlink" viewBox="0 0 600 600">
  <defs>
    <style>
      .cls-1, .cls-2 {
        fill: #231815;
      }

      .cls-3 {
        stroke-dasharray: 1 1.65;
      }

      .cls-3, .cls-4, .cls-5, .cls-6 {
        fill: none;
      }

      .cls-3, .cls-5, .cls-7 {
        stroke: #000;
      }

      .cls-3, .cls-6, .cls-7 {
        stroke-linejoin: round;
      }

      .cls-8 {
        fill: #fff;
      }

      .cls-9 {
        clip-path: url(#clippath-1);
      }

      .cls-5, .cls-6 {
        stroke-linecap: square;
      }

      .cls-5, .cls-7 {
        stroke-width: .8px;
      }

      .cls-10 {
        clip-path: url(#clippath-3);
      }

      .cls-6 {
        stroke: blue;
        stroke-opacity: .3;
        stroke-width: 1.5px;
      }

      .cls-11 {
        clip-path: url(#clippath-2);
      }

      .cls-2 {
        stroke: #231815;
        stroke-miterlimit: 10;
        stroke-width: .5px;
      }

      .cls-12 {
        clip-path: url(#clippath);
      }
    </style>
    <clipPath id="clippath">
      <rect class="cls-4" x="28.34" y="219.64" width="252.07" height="191.65"/>
    </clipPath>
    <clipPath id="clippath-1">
      <rect class="cls-4" x="28.34" y="219.64" width="252.07" height="191.65"/>
    </clipPath>
    <clipPath id="clippath-2">
      <rect class="cls-4" x="329.5" y="219.64" width="252.07" height="191.65"/>
    </clipPath>
    <clipPath id="clippath-3">
      <rect class="cls-4" x="329.5" y="219.64" width="252.07" height="191.65"/>
    </clipPath>
  </defs>
  <!-- Generator: Adobe Illustrator 28.7.1, SVG Export Plug-In . SVG Version: 1.2.0 Build 142)  -->
  <g>
    <g id="_레이어_1" data-name="레이어_1">
      <g id="figure_1">
        <g id="patch_1">
          <path class="cls-8" d="M7.66,425.02h283.52v-212.64H7.66v212.64Z"/>
        </g>
        <g id="axes_1">
          <g id="patch_2">
            <path class="cls-8" d="M28.34,411.29h252.07v-191.65H28.34v191.65Z"/>
          </g>
          <g id="matplotlib.axis_1">
            <g id="xtick_1">
              <g id="line2d_1">
                <path id="mae7dea919d" class="cls-7" d="M28.34,411.29v1.72"/>
              </g>
              <g id="text_1">
                <g>
                  <path id="DejaVuSans-2212" d="M21.32,416.73h3.08v.41h-3.08v-.41Z"/>
                  <path id="DejaVuSans-31" d="M25.53,418.07h.79v-2.74l-.86.17v-.44l.86-.17h.49v3.18h.79v.41h-2.07v-.41Z"/>
                  <path id="DejaVuSans-2e" d="M28.58,417.87h.51v.61h-.51v-.61Z"/>
                  <path id="DejaVuSans-30" d="M31.18,415.21c-.25,0-.44.12-.56.37-.13.25-.19.62-.19,1.11s.06.86.19,1.11c.13.25.31.37.56.37s.44-.12.57-.37c.13-.25.19-.62.19-1.11s-.06-.86-.19-1.11c-.13-.25-.31-.37-.57-.37ZM31.18,414.83c.4,0,.71.16.92.48.21.32.32.78.32,1.39s-.11,1.07-.32,1.38c-.21.32-.52.48-.92.48s-.71-.16-.92-.48c-.21-.32-.32-.78-.32-1.38s.11-1.07.32-1.39c.21-.32.52-.48.92-.48Z"/>
                  <path id="DejaVuSans-30-2" data-name="DejaVuSans-30" d="M34.31,415.21c-.25,0-.44.12-.56.37-.13.25-.19.62-.19,1.11s.06.86.19,1.11c.13.25.31.37.56.37s.44-.12.57-.37c.13-.25.19-.62.19-1.11s-.06-.86-.19-1.11c-.13-.25-.31-.37-.57-.37ZM34.31,414.83c.4,0,.71.16.92.48.21.32.32.78.32,1.39s-.11,1.07-.32,1.38c-.21.32-.52.48-.92.48s-.71-.16-.92-.48c-.21-.32-.32-.78-.32-1.38s.11-1.07.32-1.39c.21-.32.52-.48.92-.48Z"/>
                </g>
              </g>
            </g>
            <g id="xtick_2">
              <g id="line2d_2">
                <path id="mae7dea919d-2" data-name="mae7dea919d" class="cls-7" d="M59.85,411.29v1.72"/>
              </g>
              <g id="text_2">
                <g>
                  <path id="DejaVuSans-2212-2" data-name="DejaVuSans-2212" d="M52.83,416.73h3.08v.41h-3.08v-.41Z"/>
                  <path id="DejaVuSans-30-3" data-name="DejaVuSans-30" d="M57.99,415.21c-.25,0-.44.12-.56.37-.13.25-.19.62-.19,1.11s.06.86.19,1.11c.13.25.31.37.56.37s.44-.12.57-.37c.13-.25.19-.62.19-1.11s-.06-.86-.19-1.11c-.13-.25-.31-.37-.57-.37ZM57.99,414.83c.4,0,.71.16.92.48.21.32.32.78.32,1.39s-.11,1.07-.32,1.38c-.21.32-.52.48-.92.48s-.71-.16-.92-.48c-.21-.32-.32-.78-.32-1.38s.11-1.07.32-1.39c.21-.32.52-.48.92-.48Z"/>
                  <path id="DejaVuSans-2e-2" data-name="DejaVuSans-2e" d="M60.09,417.87h.51v.61h-.51v-.61Z"/>
                  <path id="DejaVuSans-37" d="M61.53,414.89h2.31v.21l-1.3,3.38h-.51l1.23-3.18h-1.72v-.41Z"/>
                  <path id="DejaVuSans-35" d="M64.79,414.89h1.91v.41h-1.46v.88c.07-.02.14-.04.21-.05.07-.01.14-.02.21-.02.4,0,.72.11.95.33.23.22.35.52.35.89s-.12.69-.36.9c-.24.21-.58.32-1.02.32-.15,0-.3-.01-.46-.04-.16-.03-.32-.06-.48-.12v-.49c.14.08.29.14.45.18s.32.06.49.06c.28,0,.5-.07.66-.22.16-.15.24-.34.24-.59s-.08-.45-.24-.59c-.16-.15-.38-.22-.66-.22-.13,0-.26.01-.39.04-.13.03-.26.07-.39.13v-1.8Z"/>
                </g>
              </g>
            </g>
            <g id="xtick_3">
              <g id="line2d_3">
                <path id="mae7dea919d-3" data-name="mae7dea919d" class="cls-7" d="M91.36,411.29v1.72"/>
              </g>
              <g id="text_3">
                <g>
                  <path id="DejaVuSans-2212-3" data-name="DejaVuSans-2212" d="M84.34,416.73h3.08v.41h-3.08v-.41Z"/>
                  <path id="DejaVuSans-30-4" data-name="DejaVuSans-30" d="M89.5,415.21c-.25,0-.44.12-.56.37-.13.25-.19.62-.19,1.11s.06.86.19,1.11c.13.25.31.37.56.37s.44-.12.57-.37c.13-.25.19-.62.19-1.11s-.06-.86-.19-1.11c-.13-.25-.31-.37-.57-.37ZM89.5,414.83c.4,0,.71.16.92.48.21.32.32.78.32,1.39s-.11,1.07-.32,1.38c-.21.32-.52.48-.92.48s-.71-.16-.92-.48c-.21-.32-.32-.78-.32-1.38s.11-1.07.32-1.39c.21-.32.52-.48.92-.48Z"/>
                  <path id="DejaVuSans-2e-3" data-name="DejaVuSans-2e" d="M91.6,417.87h.51v.61h-.51v-.61Z"/>
                  <path id="DejaVuSans-35-2" data-name="DejaVuSans-35" d="M93.17,414.89h1.91v.41h-1.46v.88c.07-.02.14-.04.21-.05.07-.01.14-.02.21-.02.4,0,.72.11.95.33.23.22.35.52.35.89s-.12.69-.36.9c-.24.21-.58.32-1.02.32-.15,0-.3-.01-.46-.04-.16-.03-.32-.06-.48-.12v-.49c.14.08.29.14.45.18s.32.06.49.06c.28,0,.5-.07.66-.22.16-.15.24-.34.24-.59s-.08-.45-.24-.59c-.16-.15-.38-.22-.66-.22-.13,0-.26.01-.39.04-.13.03-.26.07-.39.13v-1.8Z"/>
                  <path id="DejaVuSans-30-5" data-name="DejaVuSans-30" d="M97.33,415.21c-.25,0-.44.12-.56.37-.13.25-.19.62-.19,1.11s.06.86.19,1.11c.13.25.31.37.56.37s.44-.12.57-.37c.13-.25.19-.62.19-1.11s-.06-.86-.19-1.11c-.13-.25-.31-.37-.57-.37ZM97.33,414.83c.4,0,.71.16.92.48.21.32.32.78.32,1.39s-.11,1.07-.32,1.38c-.21.32-.52.48-.92.48s-.71-.16-.92-.48c-.21-.32-.32-.78-.32-1.38s.11-1.07.32-1.39c.21-.32.52-.48.92-.48Z"/>
                </g>
              </g>
            </g>
            <g id="xtick_4">
              <g id="line2d_4">
                <path id="mae7dea919d-4" data-name="mae7dea919d" class="cls-7" d="M122.87,411.29v1.72"/>
              </g>
              <g id="text_4">
                <g>
                  <path id="DejaVuSans-2212-4" data-name="DejaVuSans-2212" d="M115.85,416.73h3.08v.41h-3.08v-.41Z"/>
                  <path id="DejaVuSans-30-6" data-name="DejaVuSans-30" d="M121.01,415.21c-.25,0-.44.12-.56.37-.13.25-.19.62-.19,1.11s.06.86.19,1.11c.13.25.31.37.56.37s.44-.12.57-.37c.13-.25.19-.62.19-1.11s-.06-.86-.19-1.11c-.13-.25-.31-.37-.57-.37ZM121.01,414.83c.4,0,.71.16.92.48.21.32.32.78.32,1.39s-.11,1.07-.32,1.38c-.21.32-.52.48-.92.48s-.71-.16-.92-.48c-.21-.32-.32-.78-.32-1.38s.11-1.07.32-1.39c.21-.32.52-.48.92-.48Z"/>
                  <path id="DejaVuSans-2e-4" data-name="DejaVuSans-2e" d="M123.11,417.87h.51v.61h-.51v-.61Z"/>
                  <path id="DejaVuSans-32" d="M125.09,418.07h1.69v.41h-2.28v-.41c.18-.19.44-.45.75-.77.32-.32.52-.53.6-.62.16-.17.26-.32.33-.44.06-.12.09-.24.09-.36,0-.19-.07-.35-.2-.47-.13-.12-.31-.18-.52-.18-.15,0-.31.03-.48.08-.17.05-.35.13-.54.24v-.49c.2-.08.38-.14.55-.18.17-.04.33-.06.47-.06.37,0,.67.09.89.28.22.19.33.43.33.74,0,.15-.03.29-.08.42-.05.13-.16.29-.3.47-.04.05-.17.18-.38.4-.21.22-.52.53-.91.93Z"/>
                  <path id="DejaVuSans-35-3" data-name="DejaVuSans-35" d="M127.81,414.89h1.91v.41h-1.46v.88c.07-.02.14-.04.21-.05.07-.01.14-.02.21-.02.4,0,.72.11.95.33.23.22.35.52.35.89s-.12.69-.36.9c-.24.21-.58.32-1.02.32-.15,0-.3-.01-.46-.04-.16-.03-.32-.06-.48-.12v-.49c.14.08.29.14.45.18s.32.06.49.06c.28,0,.5-.07.66-.22.16-.15.24-.34.24-.59s-.08-.45-.24-.59c-.16-.15-.38-.22-.66-.22-.13,0-.26.01-.39.04-.13.03-.26.07-.39.13v-1.8Z"/>
                </g>
              </g>
            </g>
            <g id="xtick_5">
              <g id="line2d_5">
                <path id="mae7dea919d-5" data-name="mae7dea919d" class="cls-7" d="M154.38,411.29v1.72"/>
              </g>
              <g id="text_5">
                <g>
                  <path id="DejaVuSans-30-7" data-name="DejaVuSans-30" d="M150.46,415.21c-.25,0-.44.12-.56.37-.13.25-.19.62-.19,1.11s.06.86.19,1.11c.13.25.31.37.56.37s.44-.12.57-.37c.13-.25.19-.62.19-1.11s-.06-.86-.19-1.11c-.13-.25-.31-.37-.57-.37ZM150.46,414.83c.4,0,.71.16.92.48.21.32.32.78.32,1.39s-.11,1.07-.32,1.38c-.21.32-.52.48-.92.48s-.71-.16-.92-.48c-.21-.32-.32-.78-.32-1.38s.11-1.07.32-1.39c.21-.32.52-.48.92-.48Z"/>
                  <path id="DejaVuSans-2e-5" data-name="DejaVuSans-2e" d="M152.55,417.87h.51v.61h-.51v-.61Z"/>
                  <path id="DejaVuSans-30-8" data-name="DejaVuSans-30" d="M155.16,415.21c-.25,0-.44.12-.56.37-.13.25-.19.62-.19,1.11s.06.86.19,1.11c.13.25.31.37.56.37s.44-.12.57-.37c.13-.25.19-.62.19-1.11s-.06-.86-.19-1.11c-.13-.25-.31-.37-.57-.37ZM155.16,414.83c.4,0,.71.16.92.48.21.32.32.78.32,1.39s-.11,1.07-.32,1.38c-.21.32-.52.48-.92.48s-.71-.16-.92-.48c-.21-.32-.32-.78-.32-1.38s.11-1.07.32-1.39c.21-.32.52-.48.92-.48Z"/>
                  <path id="DejaVuSans-30-9" data-name="DejaVuSans-30" d="M158.29,415.21c-.25,0-.44.12-.56.37-.13.25-.19.62-.19,1.11s.06.86.19,1.11c.13.25.31.37.56.37s.44-.12.57-.37c.13-.25.19-.62.19-1.11s-.06-.86-.19-1.11c-.13-.25-.31-.37-.57-.37ZM158.29,414.83c.4,0,.71.16.92.48.21.32.32.78.32,1.39s-.11,1.07-.32,1.38c-.21.32-.52.48-.92.48s-.71-.16-.92-.48c-.21-.32-.32-.78-.32-1.38s.11-1.07.32-1.39c.21-.32.52-.48.92-.48Z"/>
                </g>
              </g>
            </g>
            <g id="xtick_6">
              <g id="line2d_6">
                <path id="mae7dea919d-6" data-name="mae7dea919d" class="cls-7" d="M185.88,411.29v1.72"/>
              </g>
              <g id="text_6">
                <g>
                  <path id="DejaVuSans-30-10" data-name="DejaVuSans-30" d="M181.97,415.21c-.25,0-.44.12-.56.37-.13.25-.19.62-.19,1.11s.06.86.19,1.11c.13.25.31.37.56.37s.44-.12.57-.37c.13-.25.19-.62.19-1.11s-.06-.86-.19-1.11c-.13-.25-.31-.37-.57-.37ZM181.97,414.83c.4,0,.71.16.92.48.21.32.32.78.32,1.39s-.11,1.07-.32,1.38c-.21.32-.52.48-.92.48s-.71-.16-.92-.48c-.21-.32-.32-.78-.32-1.38s.11-1.07.32-1.39c.21-.32.52-.48.92-.48Z"/>
                  <path id="DejaVuSans-2e-6" data-name="DejaVuSans-2e" d="M184.06,417.87h.51v.61h-.51v-.61Z"/>
                  <path id="DejaVuSans-32-2" data-name="DejaVuSans-32" d="M186.05,418.07h1.69v.41h-2.28v-.41c.18-.19.44-.45.75-.77.32-.32.52-.53.6-.62.16-.17.26-.32.33-.44.06-.12.09-.24.09-.36,0-.19-.07-.35-.2-.47-.13-.12-.31-.18-.52-.18-.15,0-.31.03-.48.08-.17.05-.35.13-.54.24v-.49c.2-.08.38-.14.55-.18.17-.04.33-.06.47-.06.37,0,.67.09.89.28.22.19.33.43.33.74,0,.15-.03.29-.08.42-.05.13-.16.29-.3.47-.04.05-.17.18-.38.4-.21.22-.52.53-.91.93Z"/>
                  <path id="DejaVuSans-35-4" data-name="DejaVuSans-35" d="M188.76,414.89h1.91v.41h-1.46v.88c.07-.02.14-.04.21-.05.07-.01.14-.02.21-.02.4,0,.72.11.95.33.23.22.35.52.35.89s-.12.69-.36.9c-.24.21-.58.32-1.02.32-.15,0-.3-.01-.46-.04-.16-.03-.32-.06-.48-.12v-.49c.14.08.29.14.45.18s.32.06.49.06c.28,0,.5-.07.66-.22.16-.15.24-.34.24-.59s-.08-.45-.24-.59c-.16-.15-.38-.22-.66-.22-.13,0-.26.01-.39.04-.13.03-.26.07-.39.13v-1.8Z"/>
                </g>
              </g>
            </g>
            <g id="xtick_7">
              <g id="line2d_7">
                <path id="mae7dea919d-7" data-name="mae7dea919d" class="cls-7" d="M217.39,411.29v1.72"/>
              </g>
              <g id="text_7">
                <g>
                  <path id="DejaVuSans-30-11" data-name="DejaVuSans-30" d="M213.48,415.21c-.25,0-.44.12-.56.37-.13.25-.19.62-.19,1.11s.06.86.19,1.11c.13.25.31.37.56.37s.44-.12.57-.37c.13-.25.19-.62.19-1.11s-.06-.86-.19-1.11c-.13-.25-.31-.37-.57-.37ZM213.48,414.83c.4,0,.71.16.92.48.21.32.32.78.32,1.39s-.11,1.07-.32,1.38c-.21.32-.52.48-.92.48s-.71-.16-.92-.48c-.21-.32-.32-.78-.32-1.38s.11-1.07.32-1.39c.21-.32.52-.48.92-.48Z"/>
                  <path id="DejaVuSans-2e-7" data-name="DejaVuSans-2e" d="M215.57,417.87h.51v.61h-.51v-.61Z"/>
                  <path id="DejaVuSans-35-5" data-name="DejaVuSans-35" d="M217.14,414.89h1.91v.41h-1.46v.88c.07-.02.14-.04.21-.05.07-.01.14-.02.21-.02.4,0,.72.11.95.33.23.22.35.52.35.89s-.12.69-.36.9c-.24.21-.58.32-1.02.32-.15,0-.3-.01-.46-.04-.16-.03-.32-.06-.48-.12v-.49c.14.08.29.14.45.18s.32.06.49.06c.28,0,.5-.07.66-.22.16-.15.24-.34.24-.59s-.08-.45-.24-.59c-.16-.15-.38-.22-.66-.22-.13,0-.26.01-.39.04-.13.03-.26.07-.39.13v-1.8Z"/>
                  <path id="DejaVuSans-30-12" data-name="DejaVuSans-30" d="M221.31,415.21c-.25,0-.44.12-.56.37-.13.25-.19.62-.19,1.11s.06.86.19,1.11c.13.25.31.37.56.37s.44-.12.57-.37c.13-.25.19-.62.19-1.11s-.06-.86-.19-1.11c-.13-.25-.31-.37-.57-.37ZM221.31,414.83c.4,0,.71.16.92.48.21.32.32.78.32,1.39s-.11,1.07-.32,1.38c-.21.32-.52.48-.92.48s-.71-.16-.92-.48c-.21-.32-.32-.78-.32-1.38s.11-1.07.32-1.39c.21-.32.52-.48.92-.48Z"/>
                </g>
              </g>
            </g>
            <g id="xtick_8">
              <g id="line2d_8">
                <path id="mae7dea919d-8" data-name="mae7dea919d" class="cls-7" d="M248.9,411.29v1.72"/>
              </g>
              <g id="text_8">
                <g>
                  <path id="DejaVuSans-30-13" data-name="DejaVuSans-30" d="M244.99,415.21c-.25,0-.44.12-.56.37-.13.25-.19.62-.19,1.11s.06.86.19,1.11c.13.25.31.37.56.37s.44-.12.57-.37c.13-.25.19-.62.19-1.11s-.06-.86-.19-1.11c-.13-.25-.31-.37-.57-.37ZM244.99,414.83c.4,0,.71.16.92.48.21.32.32.78.32,1.39s-.11,1.07-.32,1.38c-.21.32-.52.48-.92.48s-.71-.16-.92-.48c-.21-.32-.32-.78-.32-1.38s.11-1.07.32-1.39c.21-.32.52-.48.92-.48Z"/>
                  <path id="DejaVuSans-2e-8" data-name="DejaVuSans-2e" d="M247.08,417.87h.51v.61h-.51v-.61Z"/>
                  <path id="DejaVuSans-37-2" data-name="DejaVuSans-37" d="M248.52,414.89h2.31v.21l-1.3,3.38h-.51l1.23-3.18h-1.72v-.41Z"/>
                  <path id="DejaVuSans-35-6" data-name="DejaVuSans-35" d="M251.78,414.89h1.91v.41h-1.46v.88c.07-.02.14-.04.21-.05.07-.01.14-.02.21-.02.4,0,.72.11.95.33.23.22.35.52.35.89s-.12.69-.36.9c-.24.21-.58.32-1.02.32-.15,0-.3-.01-.46-.04-.16-.03-.32-.06-.48-.12v-.49c.14.08.29.14.45.18s.32.06.49.06c.28,0,.5-.07.66-.22.16-.15.24-.34.24-.59s-.08-.45-.24-.59c-.16-.15-.38-.22-.66-.22-.13,0-.26.01-.39.04-.13.03-.26.07-.39.13v-1.8Z"/>
                </g>
              </g>
            </g>
            <g id="xtick_9">
              <g id="line2d_9">
                <path id="mae7dea919d-9" data-name="mae7dea919d" class="cls-7" d="M280.41,411.29v1.72"/>
              </g>
              <g id="text_9">
                <g>
                  <path id="DejaVuSans-31-2" data-name="DejaVuSans-31" d="M275.54,418.07h.79v-2.74l-.86.17v-.44l.86-.17h.49v3.18h.79v.41h-2.07v-.41Z"/>
                  <path id="DejaVuSans-2e-9" data-name="DejaVuSans-2e" d="M278.59,417.87h.51v.61h-.51v-.61Z"/>
                  <path id="DejaVuSans-30-14" data-name="DejaVuSans-30" d="M281.19,415.21c-.25,0-.44.12-.56.37-.13.25-.19.62-.19,1.11s.06.86.19,1.11c.13.25.31.37.56.37s.44-.12.57-.37c.13-.25.19-.62.19-1.11s-.06-.86-.19-1.11c-.13-.25-.31-.37-.57-.37ZM281.19,414.83c.4,0,.71.16.92.48.21.32.32.78.32,1.39s-.11,1.07-.32,1.38c-.21.32-.52.48-.92.48s-.71-.16-.92-.48c-.21-.32-.32-.78-.32-1.38s.11-1.07.32-1.39c.21-.32.52-.48.92-.48Z"/>
                  <path id="DejaVuSans-30-15" data-name="DejaVuSans-30" d="M284.32,415.21c-.25,0-.44.12-.56.37-.13.25-.19.62-.19,1.11s.06.86.19,1.11c.13.25.31.37.56.37s.44-.12.57-.37c.13-.25.19-.62.19-1.11s-.06-.86-.19-1.11c-.13-.25-.31-.37-.57-.37ZM284.32,414.83c.4,0,.71.16.92.48.21.32.32.78.32,1.39s-.11,1.07-.32,1.38c-.21.32-.52.48-.92.48s-.71-.16-.92-.48c-.21-.32-.32-.78-.32-1.38s.11-1.07.32-1.39c.21-.32.52-.48.92-.48Z"/>
                </g>
              </g>
            </g>
          </g>
          <g id="matplotlib.axis_2">
            <g id="ytick_1">
              <g id="line2d_10">
                <path id="mba42d8faeb" class="cls-7" d="M28.34,411.29h-1.72"/>
              </g>
              <g id="text_10">
                <g>
                  <path id="DejaVuSans-2212-5" data-name="DejaVuSans-2212" d="M13.46,411.42h3.08v.41h-3.08v-.41Z"/>
                  <path id="DejaVuSans-32-3" data-name="DejaVuSans-32" d="M18.01,412.76h1.69v.41h-2.28v-.41c.18-.19.44-.45.75-.77.32-.32.52-.53.6-.62.16-.17.26-.32.33-.44.06-.12.09-.24.09-.36,0-.19-.07-.35-.2-.47-.13-.12-.31-.18-.52-.18-.15,0-.31.03-.48.08-.17.05-.35.13-.54.24v-.49c.2-.08.38-.14.55-.18.17-.04.33-.06.47-.06.37,0,.67.09.89.28.22.19.33.43.33.74,0,.15-.03.29-.08.42-.05.13-.16.29-.3.47-.04.05-.17.18-.38.4-.21.22-.52.53-.91.93Z"/>
                  <path id="DejaVuSans-2e-10" data-name="DejaVuSans-2e" d="M20.72,412.55h.51v.61h-.51v-.61Z"/>
                  <path id="DejaVuSans-30-16" data-name="DejaVuSans-30" d="M23.33,409.9c-.25,0-.44.12-.56.37-.13.25-.19.62-.19,1.11s.06.86.19,1.11c.13.25.31.37.56.37s.44-.12.57-.37c.13-.25.19-.62.19-1.11s-.06-.86-.19-1.11c-.13-.25-.31-.37-.57-.37ZM23.33,409.51c.4,0,.71.16.92.48.21.32.32.78.32,1.39s-.11,1.07-.32,1.38c-.21.32-.52.48-.92.48s-.71-.16-.92-.48c-.21-.32-.32-.78-.32-1.38s.11-1.07.32-1.39c.21-.32.52-.48.92-.48Z"/>
                </g>
              </g>
            </g>
            <g id="ytick_2">
              <g id="line2d_11">
                <path id="mba42d8faeb-2" data-name="mba42d8faeb" class="cls-7" d="M28.34,387.34h-1.72"/>
              </g>
              <g id="text_11">
                <g>
                  <path id="DejaVuSans-2212-6" data-name="DejaVuSans-2212" d="M13.46,387.46h3.08v.41h-3.08v-.41Z"/>
                  <path id="DejaVuSans-31-3" data-name="DejaVuSans-31" d="M17.68,388.8h.79v-2.74l-.86.17v-.44l.86-.17h.49v3.18h.79v.41h-2.07v-.41Z"/>
                  <path id="DejaVuSans-2e-11" data-name="DejaVuSans-2e" d="M20.72,388.6h.51v.61h-.51v-.61Z"/>
                  <path id="DejaVuSans-35-7" data-name="DejaVuSans-35" d="M22.29,385.62h1.91v.41h-1.46v.88c.07-.02.14-.04.21-.05.07-.01.14-.02.21-.02.4,0,.72.11.95.33.23.22.35.52.35.89s-.12.69-.36.9c-.24.21-.58.32-1.02.32-.15,0-.3-.01-.46-.04-.16-.03-.32-.06-.48-.12v-.49c.14.08.29.14.45.18s.32.06.49.06c.28,0,.5-.07.66-.22.16-.15.24-.34.24-.59s-.08-.45-.24-.59c-.16-.15-.38-.22-.66-.22-.13,0-.26.01-.39.04-.13.03-.26.07-.39.13v-1.8Z"/>
                </g>
              </g>
            </g>
            <g id="ytick_3">
              <g id="line2d_12">
                <path id="mba42d8faeb-3" data-name="mba42d8faeb" class="cls-7" d="M28.34,363.38h-1.72"/>
              </g>
              <g id="text_12">
                <g>
                  <path id="DejaVuSans-2212-7" data-name="DejaVuSans-2212" d="M13.46,363.5h3.08v.41h-3.08v-.41Z"/>
                  <path id="DejaVuSans-31-4" data-name="DejaVuSans-31" d="M17.68,364.84h.79v-2.74l-.86.17v-.44l.86-.17h.49v3.18h.79v.41h-2.07v-.41Z"/>
                  <path id="DejaVuSans-2e-12" data-name="DejaVuSans-2e" d="M20.72,364.64h.51v.61h-.51v-.61Z"/>
                  <path id="DejaVuSans-30-17" data-name="DejaVuSans-30" d="M23.33,361.98c-.25,0-.44.12-.56.37-.13.25-.19.62-.19,1.11s.06.86.19,1.11c.13.25.31.37.56.37s.44-.12.57-.37c.13-.25.19-.62.19-1.11s-.06-.86-.19-1.11c-.13-.25-.31-.37-.57-.37ZM23.33,361.6c.4,0,.71.16.92.48.21.32.32.78.32,1.39s-.11,1.07-.32,1.38c-.21.32-.52.48-.92.48s-.71-.16-.92-.48c-.21-.32-.32-.78-.32-1.38s.11-1.07.32-1.39c.21-.32.52-.48.92-.48Z"/>
                </g>
              </g>
            </g>
            <g id="ytick_4">
              <g id="line2d_13">
                <path id="mba42d8faeb-4" data-name="mba42d8faeb" class="cls-7" d="M28.34,339.43h-1.72"/>
              </g>
              <g id="text_13">
                <g>
                  <path id="DejaVuSans-2212-8" data-name="DejaVuSans-2212" d="M13.46,339.55h3.08v.41h-3.08v-.41Z"/>
                  <path id="DejaVuSans-30-18" data-name="DejaVuSans-30" d="M18.63,338.03c-.25,0-.44.12-.56.37-.13.25-.19.62-.19,1.11s.06.86.19,1.11c.13.25.31.37.56.37s.44-.12.57-.37c.13-.25.19-.62.19-1.11s-.06-.86-.19-1.11c-.13-.25-.31-.37-.57-.37ZM18.63,337.64c.4,0,.71.16.92.48.21.32.32.78.32,1.39s-.11,1.07-.32,1.38c-.21.32-.52.48-.92.48s-.71-.16-.92-.48c-.21-.32-.32-.78-.32-1.38s.11-1.07.32-1.39c.21-.32.52-.48.92-.48Z"/>
                  <path id="DejaVuSans-2e-13" data-name="DejaVuSans-2e" d="M20.72,340.68h.51v.61h-.51v-.61Z"/>
                  <path id="DejaVuSans-35-8" data-name="DejaVuSans-35" d="M22.29,337.71h1.91v.41h-1.46v.88c.07-.02.14-.04.21-.05.07-.01.14-.02.21-.02.4,0,.72.11.95.33.23.22.35.52.35.89s-.12.69-.36.9c-.24.21-.58.32-1.02.32-.15,0-.3-.01-.46-.04-.16-.03-.32-.06-.48-.12v-.49c.14.08.29.14.45.18s.32.06.49.06c.28,0,.5-.07.66-.22.16-.15.24-.34.24-.59s-.08-.45-.24-.59c-.16-.15-.38-.22-.66-.22-.13,0-.26.01-.39.04-.13.03-.26.07-.39.13v-1.8Z"/>
                </g>
              </g>
            </g>
            <g id="ytick_5">
              <g id="line2d_14">
                <path id="mba42d8faeb-5" data-name="mba42d8faeb" class="cls-7" d="M28.34,315.47h-1.72"/>
              </g>
              <g id="text_14">
                <g>
                  <path id="DejaVuSans-30-19" data-name="DejaVuSans-30" d="M18.63,314.07c-.25,0-.44.12-.56.37-.13.25-.19.62-.19,1.11s.06.86.19,1.11c.13.25.31.37.56.37s.44-.12.57-.37c.13-.25.19-.62.19-1.11s-.06-.86-.19-1.11c-.13-.25-.31-.37-.57-.37ZM18.63,313.69c.4,0,.71.16.92.48.21.32.32.78.32,1.39s-.11,1.07-.32,1.38c-.21.32-.52.48-.92.48s-.71-.16-.92-.48c-.21-.32-.32-.78-.32-1.38s.11-1.07.32-1.39c.21-.32.52-.48.92-.48Z"/>
                  <path id="DejaVuSans-2e-14" data-name="DejaVuSans-2e" d="M20.72,316.73h.51v.61h-.51v-.61Z"/>
                  <path id="DejaVuSans-30-20" data-name="DejaVuSans-30" d="M23.33,314.07c-.25,0-.44.12-.56.37-.13.25-.19.62-.19,1.11s.06.86.19,1.11c.13.25.31.37.56.37s.44-.12.57-.37c.13-.25.19-.62.19-1.11s-.06-.86-.19-1.11c-.13-.25-.31-.37-.57-.37ZM23.33,313.69c.4,0,.71.16.92.48.21.32.32.78.32,1.39s-.11,1.07-.32,1.38c-.21.32-.52.48-.92.48s-.71-.16-.92-.48c-.21-.32-.32-.78-.32-1.38s.11-1.07.32-1.39c.21-.32.52-.48.92-.48Z"/>
                </g>
              </g>
            </g>
            <g id="ytick_6">
              <g id="line2d_15">
                <path id="mba42d8faeb-6" data-name="mba42d8faeb" class="cls-7" d="M28.34,291.51h-1.72"/>
              </g>
              <g id="text_15">
                <g>
                  <path id="DejaVuSans-30-21" data-name="DejaVuSans-30" d="M18.63,290.11c-.25,0-.44.12-.56.37-.13.25-.19.62-.19,1.11s.06.86.19,1.11c.13.25.31.37.56.37s.44-.12.57-.37c.13-.25.19-.62.19-1.11s-.06-.86-.19-1.11c-.13-.25-.31-.37-.57-.37ZM18.63,289.73c.4,0,.71.16.92.48.21.32.32.78.32,1.39s-.11,1.07-.32,1.38c-.21.32-.52.48-.92.48s-.71-.16-.92-.48c-.21-.32-.32-.78-.32-1.38s.11-1.07.32-1.39c.21-.32.52-.48.92-.48Z"/>
                  <path id="DejaVuSans-2e-15" data-name="DejaVuSans-2e" d="M20.72,292.77h.51v.61h-.51v-.61Z"/>
                  <path id="DejaVuSans-35-9" data-name="DejaVuSans-35" d="M22.29,289.79h1.91v.41h-1.46v.88c.07-.02.14-.04.21-.05.07-.01.14-.02.21-.02.4,0,.72.11.95.33.23.22.35.52.35.89s-.12.69-.36.9c-.24.21-.58.32-1.02.32-.15,0-.3-.01-.46-.04-.16-.03-.32-.06-.48-.12v-.49c.14.08.29.14.45.18s.32.06.49.06c.28,0,.5-.07.66-.22.16-.15.24-.34.24-.59s-.08-.45-.24-.59c-.16-.15-.38-.22-.66-.22-.13,0-.26.01-.39.04-.13.03-.26.07-.39.13v-1.8Z"/>
                </g>
              </g>
            </g>
            <g id="ytick_7">
              <g id="line2d_16">
                <path id="mba42d8faeb-7" data-name="mba42d8faeb" class="cls-7" d="M28.34,267.56h-1.72"/>
              </g>
              <g id="text_16">
                <g>
                  <path id="DejaVuSans-31-5" data-name="DejaVuSans-31" d="M17.68,269.02h.79v-2.74l-.86.17v-.44l.86-.17h.49v3.18h.79v.41h-2.07v-.41Z"/>
                  <path id="DejaVuSans-2e-16" data-name="DejaVuSans-2e" d="M20.72,268.82h.51v.61h-.51v-.61Z"/>
                  <path id="DejaVuSans-30-22" data-name="DejaVuSans-30" d="M23.33,266.16c-.25,0-.44.12-.56.37-.13.25-.19.62-.19,1.11s.06.86.19,1.11c.13.25.31.37.56.37s.44-.12.57-.37c.13-.25.19-.62.19-1.11s-.06-.86-.19-1.11c-.13-.25-.31-.37-.57-.37ZM23.33,265.77c.4,0,.71.16.92.48.21.32.32.78.32,1.39s-.11,1.07-.32,1.38c-.21.32-.52.48-.92.48s-.71-.16-.92-.48c-.21-.32-.32-.78-.32-1.38s.11-1.07.32-1.39c.21-.32.52-.48.92-.48Z"/>
                </g>
              </g>
            </g>
            <g id="ytick_8">
              <g id="line2d_17">
                <path id="mba42d8faeb-8" data-name="mba42d8faeb" class="cls-7" d="M28.34,243.6h-1.72"/>
              </g>
              <g id="text_17">
                <g>
                  <path id="DejaVuSans-31-6" data-name="DejaVuSans-31" d="M17.68,245.06h.79v-2.74l-.86.17v-.44l.86-.17h.49v3.18h.79v.41h-2.07v-.41Z"/>
                  <path id="DejaVuSans-2e-17" data-name="DejaVuSans-2e" d="M20.72,244.86h.51v.61h-.51v-.61Z"/>
                  <path id="DejaVuSans-35-10" data-name="DejaVuSans-35" d="M22.29,241.88h1.91v.41h-1.46v.88c.07-.02.14-.04.21-.05.07-.01.14-.02.21-.02.4,0,.72.11.95.33.23.22.35.52.35.89s-.12.69-.36.9c-.24.21-.58.32-1.02.32-.15,0-.3-.01-.46-.04-.16-.03-.32-.06-.48-.12v-.49c.14.08.29.14.45.18s.32.06.49.06c.28,0,.5-.07.66-.22.16-.15.24-.34.24-.59s-.08-.45-.24-.59c-.16-.15-.38-.22-.66-.22-.13,0-.26.01-.39.04-.13.03-.26.07-.39.13v-1.8Z"/>
                </g>
              </g>
            </g>
            <g id="ytick_9">
              <g id="line2d_18">
                <path id="mba42d8faeb-9" data-name="mba42d8faeb" class="cls-7" d="M28.34,219.64h-1.72"/>
              </g>
              <g id="text_18">
                <g>
                  <path id="DejaVuSans-32-4" data-name="DejaVuSans-32" d="M18.01,221.11h1.69v.41h-2.28v-.41c.18-.19.44-.45.75-.77.32-.32.52-.53.6-.62.16-.17.26-.32.33-.44.06-.12.09-.24.09-.36,0-.19-.07-.35-.2-.47-.13-.12-.31-.18-.52-.18-.15,0-.31.03-.48.08-.17.05-.35.13-.54.24v-.49c.2-.08.38-.14.55-.18.17-.04.33-.06.47-.06.37,0,.67.09.89.28.22.19.33.43.33.74,0,.15-.03.29-.08.42-.05.13-.16.29-.3.47-.04.05-.17.18-.38.4-.21.22-.52.53-.91.93Z"/>
                  <path id="DejaVuSans-2e-18" data-name="DejaVuSans-2e" d="M20.72,220.9h.51v.61h-.51v-.61Z"/>
                  <path id="DejaVuSans-30-23" data-name="DejaVuSans-30" d="M23.33,218.25c-.25,0-.44.12-.56.37-.13.25-.19.62-.19,1.11s.06.86.19,1.11c.13.25.31.37.56.37s.44-.12.57-.37c.13-.25.19-.62.19-1.11s-.06-.86-.19-1.11c-.13-.25-.31-.37-.57-.37ZM23.33,217.86c.4,0,.71.16.92.48.21.32.32.78.32,1.39s-.11,1.07-.32,1.38c-.21.32-.52.48-.92.48s-.71-.16-.92-.48c-.21-.32-.32-.78-.32-1.38s.11-1.07.32-1.39c.21-.32.52-.48.92-.48Z"/>
                </g>
              </g>
            </g>
          </g>
          <g id="line2d_19">
            <g class="cls-12">
              <path class="cls-6" d="M28.34,315.47l8.08,19.17,4.55,10.49,3.54,7.91,3.03,6.55,3.03,6.29,2.53,5.03,2.53,4.81,2.53,4.57,2.53,4.31,2.02,3.25,2.02,3.07,2.02,2.88,2.02,2.68,2.02,2.47,2.02,2.26,1.52,1.55,1.52,1.43,1.52,1.3,1.52,1.17,1.52,1.04,1.52.91,1.52.78,1.52.65,1.52.51,1.52.38,1.52.24,1.52.1,1.52-.03,1.52-.17,1.52-.31,1.52-.44,1.52-.58,1.52-.71,1.52-.85,1.52-.98,1.52-1.11,1.52-1.24,1.52-1.37,1.52-1.49,1.52-1.62,2.02-2.34,2.02-2.55,2.02-2.75,2.02-2.95,2.02-3.14,2.02-3.32,2.53-4.39,2.53-4.64,2.53-4.88,2.53-5.09,3.03-6.36,3.03-6.6,3.54-7.96,4.04-9.36,5.56-13.16,11.11-26.37,4.04-9.3,3.54-7.89,3.03-6.53,3.03-6.27,2.53-5.01,2.53-4.78,2.53-4.54,2.53-4.29,2.02-3.23,2.02-3.05,2.02-2.85,2.02-2.65,2.02-2.45,2.02-2.24,1.52-1.53,1.52-1.41,1.52-1.28,1.52-1.15,1.52-1.02,1.52-.89,1.52-.76,1.52-.62,1.52-.49,1.52-.35,1.52-.22,1.52-.08,1.52.06,1.52.19,1.52.33,1.52.47,1.52.6,1.52.74,1.52.87,1.52,1,1.52,1.13,1.52,1.26,1.52,1.39,1.52,1.51,1.52,1.64,2.02,2.37,2.02,2.58,2.02,2.78,2.02,2.97,2.02,3.16,2.02,3.34,2.53,4.42,2.53,4.67,2.53,4.9,3.03,6.16,3.03,6.42,3.54,7.79,4.04,9.21,4.55,10.65,5.56,13.23h0"/>
            </g>
          </g>
          <g id="line2d_20">
            <g class="cls-9">
              <path class="cls-3" d="M28.34,315.47h252.07"/>
            </g>
          </g>
          <g id="patch_3">
            <path class="cls-5" d="M28.34,411.29v-191.65"/>
          </g>
          <g id="patch_4">
            <path class="cls-5" d="M280.41,411.29v-191.65"/>
          </g>
          <g id="patch_5">
            <path class="cls-5" d="M28.34,411.29h252.07"/>
          </g>
          <g id="patch_6">
            <path class="cls-5" d="M28.34,219.64h252.07"/>
          </g>
        </g>
      </g>
      <g id="figure_1-2" data-name="figure_1">
        <g id="patch_1-2" data-name="patch_1">
          <path class="cls-8" d="M308.82,425.02h283.52v-212.64h-283.52v212.64Z"/>
        </g>
        <g id="axes_1-2" data-name="axes_1">
          <g id="patch_2-2" data-name="patch_2">
            <path class="cls-8" d="M329.5,411.29h252.07v-191.65h-252.07v191.65Z"/>
          </g>
          <g id="matplotlib.axis_1-2" data-name="matplotlib.axis_1">
            <g id="xtick_1-2" data-name="xtick_1">
              <g id="line2d_1-2" data-name="line2d_1">
                <path id="mae7dea919d-10" data-name="mae7dea919d" class="cls-7" d="M329.5,411.29v1.72"/>
              </g>
              <g id="text_1-2" data-name="text_1">
                <g>
                  <path id="DejaVuSans-2212-9" data-name="DejaVuSans-2212" d="M322.48,416.73h3.08v.41h-3.08v-.41Z"/>
                  <path id="DejaVuSans-31-7" data-name="DejaVuSans-31" d="M326.69,418.07h.79v-2.74l-.86.17v-.44l.86-.17h.49v3.18h.79v.41h-2.07v-.41Z"/>
                  <path id="DejaVuSans-2e-19" data-name="DejaVuSans-2e" d="M329.74,417.87h.51v.61h-.51v-.61Z"/>
                  <path id="DejaVuSans-30-24" data-name="DejaVuSans-30" d="M332.34,415.21c-.25,0-.44.12-.56.37-.13.25-.19.62-.19,1.11s.06.86.19,1.11c.13.25.31.37.56.37s.44-.12.57-.37c.13-.25.19-.62.19-1.11s-.06-.86-.19-1.11c-.13-.25-.31-.37-.57-.37ZM332.34,414.83c.4,0,.71.16.92.48.21.32.32.78.32,1.39s-.11,1.07-.32,1.38c-.21.32-.52.48-.92.48s-.71-.16-.92-.48c-.21-.32-.32-.78-.32-1.38s.11-1.07.32-1.39c.21-.32.52-.48.92-.48Z"/>
                  <path id="DejaVuSans-30-25" data-name="DejaVuSans-30" d="M335.48,415.21c-.25,0-.44.12-.56.37-.13.25-.19.62-.19,1.11s.06.86.19,1.11c.13.25.31.37.56.37s.44-.12.57-.37c.13-.25.19-.62.19-1.11s-.06-.86-.19-1.11c-.13-.25-.31-.37-.57-.37ZM335.48,414.83c.4,0,.71.16.92.48.21.32.32.78.32,1.39s-.11,1.07-.32,1.38c-.21.32-.52.48-.92.48s-.71-.16-.92-.48c-.21-.32-.32-.78-.32-1.38s.11-1.07.32-1.39c.21-.32.52-.48.92-.48Z"/>
                </g>
              </g>
            </g>
            <g id="xtick_2-2" data-name="xtick_2">
              <g id="line2d_2-2" data-name="line2d_2">
                <path id="mae7dea919d-11" data-name="mae7dea919d" class="cls-7" d="M361.01,411.29v1.72"/>
              </g>
              <g id="text_2-2" data-name="text_2">
                <g>
                  <path id="DejaVuSans-2212-10" data-name="DejaVuSans-2212" d="M353.99,416.73h3.08v.41h-3.08v-.41Z"/>
                  <path id="DejaVuSans-30-26" data-name="DejaVuSans-30" d="M359.16,415.21c-.25,0-.44.12-.56.37-.13.25-.19.62-.19,1.11s.06.86.19,1.11c.13.25.31.37.56.37s.44-.12.57-.37c.13-.25.19-.62.19-1.11s-.06-.86-.19-1.11c-.13-.25-.31-.37-.57-.37ZM359.16,414.83c.4,0,.71.16.92.48.21.32.32.78.32,1.39s-.11,1.07-.32,1.38c-.21.32-.52.48-.92.48s-.71-.16-.92-.48c-.21-.32-.32-.78-.32-1.38s.11-1.07.32-1.39c.21-.32.52-.48.92-.48Z"/>
                  <path id="DejaVuSans-2e-20" data-name="DejaVuSans-2e" d="M361.25,417.87h.51v.61h-.51v-.61Z"/>
                  <path id="DejaVuSans-37-3" data-name="DejaVuSans-37" d="M362.69,414.89h2.31v.21l-1.3,3.38h-.51l1.23-3.18h-1.72v-.41Z"/>
                  <path id="DejaVuSans-35-11" data-name="DejaVuSans-35" d="M365.95,414.89h1.91v.41h-1.46v.88c.07-.02.14-.04.21-.05.07-.01.14-.02.21-.02.4,0,.72.11.95.33.23.22.35.52.35.89s-.12.69-.36.9c-.24.21-.58.32-1.02.32-.15,0-.3-.01-.46-.04-.16-.03-.32-.06-.48-.12v-.49c.14.08.29.14.45.18s.32.06.49.06c.28,0,.5-.07.66-.22.16-.15.24-.34.24-.59s-.08-.45-.24-.59c-.16-.15-.38-.22-.66-.22-.13,0-.26.01-.39.04-.13.03-.26.07-.39.13v-1.8Z"/>
                </g>
              </g>
            </g>
            <g id="xtick_3-2" data-name="xtick_3">
              <g id="line2d_3-2" data-name="line2d_3">
                <path id="mae7dea919d-12" data-name="mae7dea919d" class="cls-7" d="M392.52,411.29v1.72"/>
              </g>
              <g id="text_3-2" data-name="text_3">
                <g>
                  <path id="DejaVuSans-2212-11" data-name="DejaVuSans-2212" d="M385.5,416.73h3.08v.41h-3.08v-.41Z"/>
                  <path id="DejaVuSans-30-27" data-name="DejaVuSans-30" d="M390.67,415.21c-.25,0-.44.12-.56.37-.13.25-.19.62-.19,1.11s.06.86.19,1.11c.13.25.31.37.56.37s.44-.12.57-.37c.13-.25.19-.62.19-1.11s-.06-.86-.19-1.11c-.13-.25-.31-.37-.57-.37ZM390.67,414.83c.4,0,.71.16.92.48.21.32.32.78.32,1.39s-.11,1.07-.32,1.38c-.21.32-.52.48-.92.48s-.71-.16-.92-.48c-.21-.32-.32-.78-.32-1.38s.11-1.07.32-1.39c.21-.32.52-.48.92-.48Z"/>
                  <path id="DejaVuSans-2e-21" data-name="DejaVuSans-2e" d="M392.76,417.87h.51v.61h-.51v-.61Z"/>
                  <path id="DejaVuSans-35-12" data-name="DejaVuSans-35" d="M394.33,414.89h1.91v.41h-1.46v.88c.07-.02.14-.04.21-.05.07-.01.14-.02.21-.02.4,0,.72.11.95.33.23.22.35.52.35.89s-.12.69-.36.9c-.24.21-.58.32-1.02.32-.15,0-.3-.01-.46-.04-.16-.03-.32-.06-.48-.12v-.49c.14.08.29.14.45.18s.32.06.49.06c.28,0,.5-.07.66-.22.16-.15.24-.34.24-.59s-.08-.45-.24-.59c-.16-.15-.38-.22-.66-.22-.13,0-.26.01-.39.04-.13.03-.26.07-.39.13v-1.8Z"/>
                  <path id="DejaVuSans-30-28" data-name="DejaVuSans-30" d="M398.49,415.21c-.25,0-.44.12-.56.37-.13.25-.19.62-.19,1.11s.06.86.19,1.11c.13.25.31.37.56.37s.44-.12.57-.37c.13-.25.19-.62.19-1.11s-.06-.86-.19-1.11c-.13-.25-.31-.37-.57-.37ZM398.49,414.83c.4,0,.71.16.92.48.21.32.32.78.32,1.39s-.11,1.07-.32,1.38c-.21.32-.52.48-.92.48s-.71-.16-.92-.48c-.21-.32-.32-.78-.32-1.38s.11-1.07.32-1.39c.21-.32.52-.48.92-.48Z"/>
                </g>
              </g>
            </g>
            <g id="xtick_4-2" data-name="xtick_4">
              <g id="line2d_4-2" data-name="line2d_4">
                <path id="mae7dea919d-13" data-name="mae7dea919d" class="cls-7" d="M424.03,411.29v1.72"/>
              </g>
              <g id="text_4-2" data-name="text_4">
                <g>
                  <path id="DejaVuSans-2212-12" data-name="DejaVuSans-2212" d="M417.01,416.73h3.08v.41h-3.08v-.41Z"/>
                  <path id="DejaVuSans-30-29" data-name="DejaVuSans-30" d="M422.18,415.21c-.25,0-.44.12-.56.37-.13.25-.19.62-.19,1.11s.06.86.19,1.11c.13.25.31.37.56.37s.44-.12.57-.37c.13-.25.19-.62.19-1.11s-.06-.86-.19-1.11c-.13-.25-.31-.37-.57-.37ZM422.18,414.83c.4,0,.71.16.92.48.21.32.32.78.32,1.39s-.11,1.07-.32,1.38c-.21.32-.52.48-.92.48s-.71-.16-.92-.48c-.21-.32-.32-.78-.32-1.38s.11-1.07.32-1.39c.21-.32.52-.48.92-.48Z"/>
                  <path id="DejaVuSans-2e-22" data-name="DejaVuSans-2e" d="M424.27,417.87h.51v.61h-.51v-.61Z"/>
                  <path id="DejaVuSans-32-5" data-name="DejaVuSans-32" d="M426.25,418.07h1.69v.41h-2.28v-.41c.18-.19.44-.45.75-.77.32-.32.52-.53.6-.62.16-.17.26-.32.33-.44.06-.12.09-.24.09-.36,0-.19-.07-.35-.2-.47-.13-.12-.31-.18-.52-.18-.15,0-.31.03-.48.08-.17.05-.35.13-.54.24v-.49c.2-.08.38-.14.55-.18.17-.04.33-.06.47-.06.37,0,.67.09.89.28.22.19.33.43.33.74,0,.15-.03.29-.08.42-.05.13-.16.29-.3.47-.04.05-.17.18-.38.4-.21.22-.52.53-.91.93Z"/>
                  <path id="DejaVuSans-35-13" data-name="DejaVuSans-35" d="M428.97,414.89h1.91v.41h-1.46v.88c.07-.02.14-.04.21-.05.07-.01.14-.02.21-.02.4,0,.72.11.95.33.23.22.35.52.35.89s-.12.69-.36.9c-.24.21-.58.32-1.02.32-.15,0-.3-.01-.46-.04-.16-.03-.32-.06-.48-.12v-.49c.14.08.29.14.45.18s.32.06.49.06c.28,0,.5-.07.66-.22.16-.15.24-.34.24-.59s-.08-.45-.24-.59c-.16-.15-.38-.22-.66-.22-.13,0-.26.01-.39.04-.13.03-.26.07-.39.13v-1.8Z"/>
                </g>
              </g>
            </g>
            <g id="xtick_5-2" data-name="xtick_5">
              <g id="line2d_5-2" data-name="line2d_5">
                <path id="mae7dea919d-14" data-name="mae7dea919d" class="cls-7" d="M455.54,411.29v1.72"/>
              </g>
              <g id="text_5-2" data-name="text_5">
                <g>
                  <path id="DejaVuSans-30-30" data-name="DejaVuSans-30" d="M451.62,415.21c-.25,0-.44.12-.56.37-.13.25-.19.62-.19,1.11s.06.86.19,1.11c.13.25.31.37.56.37s.44-.12.57-.37c.13-.25.19-.62.19-1.11s-.06-.86-.19-1.11c-.13-.25-.31-.37-.57-.37ZM451.62,414.83c.4,0,.71.16.92.48.21.32.32.78.32,1.39s-.11,1.07-.32,1.38c-.21.32-.52.48-.92.48s-.71-.16-.92-.48c-.21-.32-.32-.78-.32-1.38s.11-1.07.32-1.39c.21-.32.52-.48.92-.48Z"/>
                  <path id="DejaVuSans-2e-23" data-name="DejaVuSans-2e" d="M453.72,417.87h.51v.61h-.51v-.61Z"/>
                  <path id="DejaVuSans-30-31" data-name="DejaVuSans-30" d="M456.32,415.21c-.25,0-.44.12-.56.37-.13.25-.19.62-.19,1.11s.06.86.19,1.11c.13.25.31.37.56.37s.44-.12.57-.37c.13-.25.19-.62.19-1.11s-.06-.86-.19-1.11c-.13-.25-.31-.37-.57-.37ZM456.32,414.83c.4,0,.71.16.92.48.21.32.32.78.32,1.39s-.11,1.07-.32,1.38c-.21.32-.52.48-.92.48s-.71-.16-.92-.48c-.21-.32-.32-.78-.32-1.38s.11-1.07.32-1.39c.21-.32.52-.48.92-.48Z"/>
                  <path id="DejaVuSans-30-32" data-name="DejaVuSans-30" d="M459.45,415.21c-.25,0-.44.12-.56.37-.13.25-.19.62-.19,1.11s.06.86.19,1.11c.13.25.31.37.56.37s.44-.12.57-.37c.13-.25.19-.62.19-1.11s-.06-.86-.19-1.11c-.13-.25-.31-.37-.57-.37ZM459.45,414.83c.4,0,.71.16.92.48.21.32.32.78.32,1.39s-.11,1.07-.32,1.38c-.21.32-.52.48-.92.48s-.71-.16-.92-.48c-.21-.32-.32-.78-.32-1.38s.11-1.07.32-1.39c.21-.32.52-.48.92-.48Z"/>
                </g>
              </g>
            </g>
            <g id="xtick_6-2" data-name="xtick_6">
              <g id="line2d_6-2" data-name="line2d_6">
                <path id="mae7dea919d-15" data-name="mae7dea919d" class="cls-7" d="M487.05,411.29v1.72"/>
              </g>
              <g id="text_6-2" data-name="text_6">
                <g>
                  <path id="DejaVuSans-30-33" data-name="DejaVuSans-30" d="M483.13,415.21c-.25,0-.44.12-.56.37-.13.25-.19.62-.19,1.11s.06.86.19,1.11c.13.25.31.37.56.37s.44-.12.57-.37c.13-.25.19-.62.19-1.11s-.06-.86-.19-1.11c-.13-.25-.31-.37-.57-.37ZM483.13,414.83c.4,0,.71.16.92.48.21.32.32.78.32,1.39s-.11,1.07-.32,1.38c-.21.32-.52.48-.92.48s-.71-.16-.92-.48c-.21-.32-.32-.78-.32-1.38s.11-1.07.32-1.39c.21-.32.52-.48.92-.48Z"/>
                  <path id="DejaVuSans-2e-24" data-name="DejaVuSans-2e" d="M485.23,417.87h.51v.61h-.51v-.61Z"/>
                  <path id="DejaVuSans-32-6" data-name="DejaVuSans-32" d="M487.21,418.07h1.69v.41h-2.28v-.41c.18-.19.44-.45.75-.77.32-.32.52-.53.6-.62.16-.17.26-.32.33-.44.06-.12.09-.24.09-.36,0-.19-.07-.35-.2-.47-.13-.12-.31-.18-.52-.18-.15,0-.31.03-.48.08-.17.05-.35.13-.54.24v-.49c.2-.08.38-.14.55-.18.17-.04.33-.06.47-.06.37,0,.67.09.89.28.22.19.33.43.33.74,0,.15-.03.29-.08.42-.05.13-.16.29-.3.47-.04.05-.17.18-.38.4-.21.22-.52.53-.91.93Z"/>
                  <path id="DejaVuSans-35-14" data-name="DejaVuSans-35" d="M489.93,414.89h1.91v.41h-1.46v.88c.07-.02.14-.04.21-.05.07-.01.14-.02.21-.02.4,0,.72.11.95.33.23.22.35.52.35.89s-.12.69-.36.9c-.24.21-.58.32-1.02.32-.15,0-.3-.01-.46-.04-.16-.03-.32-.06-.48-.12v-.49c.14.08.29.14.45.18s.32.06.49.06c.28,0,.5-.07.66-.22.16-.15.24-.34.24-.59s-.08-.45-.24-.59c-.16-.15-.38-.22-.66-.22-.13,0-.26.01-.39.04-.13.03-.26.07-.39.13v-1.8Z"/>
                </g>
              </g>
            </g>
            <g id="xtick_7-2" data-name="xtick_7">
              <g id="line2d_7-2" data-name="line2d_7">
                <path id="mae7dea919d-16" data-name="mae7dea919d" class="cls-7" d="M518.56,411.29v1.72"/>
              </g>
              <g id="text_7-2" data-name="text_7">
                <g>
                  <path id="DejaVuSans-30-34" data-name="DejaVuSans-30" d="M514.64,415.21c-.25,0-.44.12-.56.37-.13.25-.19.62-.19,1.11s.06.86.19,1.11c.13.25.31.37.56.37s.44-.12.57-.37c.13-.25.19-.62.19-1.11s-.06-.86-.19-1.11c-.13-.25-.31-.37-.57-.37ZM514.64,414.83c.4,0,.71.16.92.48.21.32.32.78.32,1.39s-.11,1.07-.32,1.38c-.21.32-.52.48-.92.48s-.71-.16-.92-.48c-.21-.32-.32-.78-.32-1.38s.11-1.07.32-1.39c.21-.32.52-.48.92-.48Z"/>
                  <path id="DejaVuSans-2e-25" data-name="DejaVuSans-2e" d="M516.73,417.87h.51v.61h-.51v-.61Z"/>
                  <path id="DejaVuSans-35-15" data-name="DejaVuSans-35" d="M518.3,414.89h1.91v.41h-1.46v.88c.07-.02.14-.04.21-.05.07-.01.14-.02.21-.02.4,0,.72.11.95.33.23.22.35.52.35.89s-.12.69-.36.9c-.24.21-.58.32-1.02.32-.15,0-.3-.01-.46-.04-.16-.03-.32-.06-.48-.12v-.49c.14.08.29.14.45.18s.32.06.49.06c.28,0,.5-.07.66-.22.16-.15.24-.34.24-.59s-.08-.45-.24-.59c-.16-.15-.38-.22-.66-.22-.13,0-.26.01-.39.04-.13.03-.26.07-.39.13v-1.8Z"/>
                  <path id="DejaVuSans-30-35" data-name="DejaVuSans-30" d="M522.47,415.21c-.25,0-.44.12-.56.37-.13.25-.19.62-.19,1.11s.06.86.19,1.11c.13.25.31.37.56.37s.44-.12.57-.37c.13-.25.19-.62.19-1.11s-.06-.86-.19-1.11c-.13-.25-.31-.37-.57-.37ZM522.47,414.83c.4,0,.71.16.92.48.21.32.32.78.32,1.39s-.11,1.07-.32,1.38c-.21.32-.52.48-.92.48s-.71-.16-.92-.48c-.21-.32-.32-.78-.32-1.38s.11-1.07.32-1.39c.21-.32.52-.48.92-.48Z"/>
                </g>
              </g>
            </g>
            <g id="xtick_8-2" data-name="xtick_8">
              <g id="line2d_8-2" data-name="line2d_8">
                <path id="mae7dea919d-17" data-name="mae7dea919d" class="cls-7" d="M550.07,411.29v1.72"/>
              </g>
              <g id="text_8-2" data-name="text_8">
                <g>
                  <path id="DejaVuSans-30-36" data-name="DejaVuSans-30" d="M546.15,415.21c-.25,0-.44.12-.56.37-.13.25-.19.62-.19,1.11s.06.86.19,1.11c.13.25.31.37.56.37s.44-.12.57-.37c.13-.25.19-.62.19-1.11s-.06-.86-.19-1.11c-.13-.25-.31-.37-.57-.37ZM546.15,414.83c.4,0,.71.16.92.48.21.32.32.78.32,1.39s-.11,1.07-.32,1.38c-.21.32-.52.48-.92.48s-.71-.16-.92-.48c-.21-.32-.32-.78-.32-1.38s.11-1.07.32-1.39c.21-.32.52-.48.92-.48Z"/>
                  <path id="DejaVuSans-2e-26" data-name="DejaVuSans-2e" d="M548.24,417.87h.51v.61h-.51v-.61Z"/>
                  <path id="DejaVuSans-37-4" data-name="DejaVuSans-37" d="M549.69,414.89h2.31v.21l-1.3,3.38h-.51l1.23-3.18h-1.72v-.41Z"/>
                  <path id="DejaVuSans-35-16" data-name="DejaVuSans-35" d="M552.95,414.89h1.91v.41h-1.46v.88c.07-.02.14-.04.21-.05.07-.01.14-.02.21-.02.4,0,.72.11.95.33.23.22.35.52.35.89s-.12.69-.36.9c-.24.21-.58.32-1.02.32-.15,0-.3-.01-.46-.04-.16-.03-.32-.06-.48-.12v-.49c.14.08.29.14.45.18s.32.06.49.06c.28,0,.5-.07.66-.22.16-.15.24-.34.24-.59s-.08-.45-.24-.59c-.16-.15-.38-.22-.66-.22-.13,0-.26.01-.39.04-.13.03-.26.07-.39.13v-1.8Z"/>
                </g>
              </g>
            </g>
            <g id="xtick_9-2" data-name="xtick_9">
              <g id="line2d_9-2" data-name="line2d_9">
                <path id="mae7dea919d-18" data-name="mae7dea919d" class="cls-7" d="M581.57,411.29v1.72"/>
              </g>
              <g id="text_9-2" data-name="text_9">
                <g>
                  <path id="DejaVuSans-31-8" data-name="DejaVuSans-31" d="M576.71,418.07h.79v-2.74l-.86.17v-.44l.86-.17h.49v3.18h.79v.41h-2.07v-.41Z"/>
                  <path id="DejaVuSans-2e-27" data-name="DejaVuSans-2e" d="M579.75,417.87h.51v.61h-.51v-.61Z"/>
                  <path id="DejaVuSans-30-37" data-name="DejaVuSans-30" d="M582.36,415.21c-.25,0-.44.12-.56.37-.13.25-.19.62-.19,1.11s.06.86.19,1.11c.13.25.31.37.56.37s.44-.12.57-.37c.13-.25.19-.62.19-1.11s-.06-.86-.19-1.11c-.13-.25-.31-.37-.57-.37ZM582.36,414.83c.4,0,.71.16.92.48.21.32.32.78.32,1.39s-.11,1.07-.32,1.38c-.21.32-.52.48-.92.48s-.71-.16-.92-.48c-.21-.32-.32-.78-.32-1.38s.11-1.07.32-1.39c.21-.32.52-.48.92-.48Z"/>
                  <path id="DejaVuSans-30-38" data-name="DejaVuSans-30" d="M585.49,415.21c-.25,0-.44.12-.56.37-.13.25-.19.62-.19,1.11s.06.86.19,1.11c.13.25.31.37.56.37s.44-.12.57-.37c.13-.25.19-.62.19-1.11s-.06-.86-.19-1.11c-.13-.25-.31-.37-.57-.37ZM585.49,414.83c.4,0,.71.16.92.48.21.32.32.78.32,1.39s-.11,1.07-.32,1.38c-.21.32-.52.48-.92.48s-.71-.16-.92-.48c-.21-.32-.32-.78-.32-1.38s.11-1.07.32-1.39c.21-.32.52-.48.92-.48Z"/>
                </g>
              </g>
            </g>
          </g>
          <g id="matplotlib.axis_2-2" data-name="matplotlib.axis_2">
            <g id="ytick_1-2" data-name="ytick_1">
              <g id="line2d_10-2" data-name="line2d_10">
                <path id="mba42d8faeb-10" data-name="mba42d8faeb" class="cls-7" d="M329.5,411.29h-1.72"/>
              </g>
              <g id="text_10-2" data-name="text_10">
                <g>
                  <path id="DejaVuSans-2212-13" data-name="DejaVuSans-2212" d="M314.62,411.42h3.08v.41h-3.08v-.41Z"/>
                  <path id="DejaVuSans-32-7" data-name="DejaVuSans-32" d="M319.17,412.76h1.69v.41h-2.28v-.41c.18-.19.44-.45.75-.77.32-.32.52-.53.6-.62.16-.17.26-.32.33-.44.06-.12.09-.24.09-.36,0-.19-.07-.35-.2-.47-.13-.12-.31-.18-.52-.18-.15,0-.31.03-.48.08-.17.05-.35.13-.54.24v-.49c.2-.08.38-.14.55-.18.17-.04.33-.06.47-.06.37,0,.67.09.89.28.22.19.33.43.33.74,0,.15-.03.29-.08.42-.05.13-.16.29-.3.47-.04.05-.17.18-.38.4-.21.22-.52.53-.91.93Z"/>
                  <path id="DejaVuSans-2e-28" data-name="DejaVuSans-2e" d="M321.88,412.55h.51v.61h-.51v-.61Z"/>
                  <path id="DejaVuSans-30-39" data-name="DejaVuSans-30" d="M324.49,409.9c-.25,0-.44.12-.56.37-.13.25-.19.62-.19,1.11s.06.86.19,1.11c.13.25.31.37.56.37s.44-.12.57-.37c.13-.25.19-.62.19-1.11s-.06-.86-.19-1.11c-.13-.25-.31-.37-.57-.37ZM324.49,409.51c.4,0,.71.16.92.48.21.32.32.78.32,1.39s-.11,1.07-.32,1.38c-.21.32-.52.48-.92.48s-.71-.16-.92-.48c-.21-.32-.32-.78-.32-1.38s.11-1.07.32-1.39c.21-.32.52-.48.92-.48Z"/>
                </g>
              </g>
            </g>
            <g id="ytick_2-2" data-name="ytick_2">
              <g id="line2d_11-2" data-name="line2d_11">
                <path id="mba42d8faeb-11" data-name="mba42d8faeb" class="cls-7" d="M329.5,387.34h-1.72"/>
              </g>
              <g id="text_11-2" data-name="text_11">
                <g>
                  <path id="DejaVuSans-2212-14" data-name="DejaVuSans-2212" d="M314.62,387.46h3.08v.41h-3.08v-.41Z"/>
                  <path id="DejaVuSans-31-9" data-name="DejaVuSans-31" d="M318.84,388.8h.79v-2.74l-.86.17v-.44l.86-.17h.49v3.18h.79v.41h-2.07v-.41Z"/>
                  <path id="DejaVuSans-2e-29" data-name="DejaVuSans-2e" d="M321.88,388.6h.51v.61h-.51v-.61Z"/>
                  <path id="DejaVuSans-35-17" data-name="DejaVuSans-35" d="M323.45,385.62h1.91v.41h-1.46v.88c.07-.02.14-.04.21-.05.07-.01.14-.02.21-.02.4,0,.72.11.95.33.23.22.35.52.35.89s-.12.69-.36.9c-.24.21-.58.32-1.02.32-.15,0-.3-.01-.46-.04-.16-.03-.32-.06-.48-.12v-.49c.14.08.29.14.45.18s.32.06.49.06c.28,0,.5-.07.66-.22.16-.15.24-.34.24-.59s-.08-.45-.24-.59c-.16-.15-.38-.22-.66-.22-.13,0-.26.01-.39.04-.13.03-.26.07-.39.13v-1.8Z"/>
                </g>
              </g>
            </g>
            <g id="ytick_3-2" data-name="ytick_3">
              <g id="line2d_12-2" data-name="line2d_12">
                <path id="mba42d8faeb-12" data-name="mba42d8faeb" class="cls-7" d="M329.5,363.38h-1.72"/>
              </g>
              <g id="text_12-2" data-name="text_12">
                <g>
                  <path id="DejaVuSans-2212-15" data-name="DejaVuSans-2212" d="M314.62,363.5h3.08v.41h-3.08v-.41Z"/>
                  <path id="DejaVuSans-31-10" data-name="DejaVuSans-31" d="M318.84,364.84h.79v-2.74l-.86.17v-.44l.86-.17h.49v3.18h.79v.41h-2.07v-.41Z"/>
                  <path id="DejaVuSans-2e-30" data-name="DejaVuSans-2e" d="M321.88,364.64h.51v.61h-.51v-.61Z"/>
                  <path id="DejaVuSans-30-40" data-name="DejaVuSans-30" d="M324.49,361.98c-.25,0-.44.12-.56.37-.13.25-.19.62-.19,1.11s.06.86.19,1.11c.13.25.31.37.56.37s.44-.12.57-.37c.13-.25.19-.62.19-1.11s-.06-.86-.19-1.11c-.13-.25-.31-.37-.57-.37ZM324.49,361.6c.4,0,.71.16.92.48.21.32.32.78.32,1.39s-.11,1.07-.32,1.38c-.21.32-.52.48-.92.48s-.71-.16-.92-.48c-.21-.32-.32-.78-.32-1.38s.11-1.07.32-1.39c.21-.32.52-.48.92-.48Z"/>
                </g>
              </g>
            </g>
            <g id="ytick_4-2" data-name="ytick_4">
              <g id="line2d_13-2" data-name="line2d_13">
                <path id="mba42d8faeb-13" data-name="mba42d8faeb" class="cls-7" d="M329.5,339.43h-1.72"/>
              </g>
              <g id="text_13-2" data-name="text_13">
                <g>
                  <path id="DejaVuSans-2212-16" data-name="DejaVuSans-2212" d="M314.62,339.55h3.08v.41h-3.08v-.41Z"/>
                  <path id="DejaVuSans-30-41" data-name="DejaVuSans-30" d="M319.79,338.03c-.25,0-.44.12-.56.37-.13.25-.19.62-.19,1.11s.06.86.19,1.11c.13.25.31.37.56.37s.44-.12.57-.37c.13-.25.19-.62.19-1.11s-.06-.86-.19-1.11c-.13-.25-.31-.37-.57-.37ZM319.79,337.64c.4,0,.71.16.92.48.21.32.32.78.32,1.39s-.11,1.07-.32,1.38c-.21.32-.52.48-.92.48s-.71-.16-.92-.48c-.21-.32-.32-.78-.32-1.38s.11-1.07.32-1.39c.21-.32.52-.48.92-.48Z"/>
                  <path id="DejaVuSans-2e-31" data-name="DejaVuSans-2e" d="M321.88,340.68h.51v.61h-.51v-.61Z"/>
                  <path id="DejaVuSans-35-18" data-name="DejaVuSans-35" d="M323.45,337.71h1.91v.41h-1.46v.88c.07-.02.14-.04.21-.05.07-.01.14-.02.21-.02.4,0,.72.11.95.33.23.22.35.52.35.89s-.12.69-.36.9c-.24.21-.58.32-1.02.32-.15,0-.3-.01-.46-.04-.16-.03-.32-.06-.48-.12v-.49c.14.08.29.14.45.18s.32.06.49.06c.28,0,.5-.07.66-.22.16-.15.24-.34.24-.59s-.08-.45-.24-.59c-.16-.15-.38-.22-.66-.22-.13,0-.26.01-.39.04-.13.03-.26.07-.39.13v-1.8Z"/>
                </g>
              </g>
            </g>
            <g id="ytick_5-2" data-name="ytick_5">
              <g id="line2d_14-2" data-name="line2d_14">
                <path id="mba42d8faeb-14" data-name="mba42d8faeb" class="cls-7" d="M329.5,315.47h-1.72"/>
              </g>
              <g id="text_14-2" data-name="text_14">
                <g>
                  <path id="DejaVuSans-30-42" data-name="DejaVuSans-30" d="M319.79,314.07c-.25,0-.44.12-.56.37-.13.25-.19.62-.19,1.11s.06.86.19,1.11c.13.25.31.37.56.37s.44-.12.57-.37c.13-.25.19-.62.19-1.11s-.06-.86-.19-1.11c-.13-.25-.31-.37-.57-.37ZM319.79,313.69c.4,0,.71.16.92.48.21.32.32.78.32,1.39s-.11,1.07-.32,1.38c-.21.32-.52.48-.92.48s-.71-.16-.92-.48c-.21-.32-.32-.78-.32-1.38s.11-1.07.32-1.39c.21-.32.52-.48.92-.48Z"/>
                  <path id="DejaVuSans-2e-32" data-name="DejaVuSans-2e" d="M321.89,316.73h.51v.61h-.51v-.61Z"/>
                  <path id="DejaVuSans-30-43" data-name="DejaVuSans-30" d="M324.49,314.07c-.25,0-.44.12-.56.37-.13.25-.19.62-.19,1.11s.06.86.19,1.11c.13.25.31.37.56.37s.44-.12.57-.37c.13-.25.19-.62.19-1.11s-.06-.86-.19-1.11c-.13-.25-.31-.37-.57-.37ZM324.49,313.69c.4,0,.71.16.92.48.21.32.32.78.32,1.39s-.11,1.07-.32,1.38c-.21.32-.52.48-.92.48s-.71-.16-.92-.48c-.21-.32-.32-.78-.32-1.38s.11-1.07.32-1.39c.21-.32.52-.48.92-.48Z"/>
                </g>
              </g>
            </g>
            <g id="ytick_6-2" data-name="ytick_6">
              <g id="line2d_15-2" data-name="line2d_15">
                <path id="mba42d8faeb-15" data-name="mba42d8faeb" class="cls-7" d="M329.5,291.51h-1.72"/>
              </g>
              <g id="text_15-2" data-name="text_15">
                <g>
                  <path id="DejaVuSans-30-44" data-name="DejaVuSans-30" d="M319.79,290.11c-.25,0-.44.12-.56.37-.13.25-.19.62-.19,1.11s.06.86.19,1.11c.13.25.31.37.56.37s.44-.12.57-.37c.13-.25.19-.62.19-1.11s-.06-.86-.19-1.11c-.13-.25-.31-.37-.57-.37ZM319.79,289.73c.4,0,.71.16.92.48.21.32.32.78.32,1.39s-.11,1.07-.32,1.38c-.21.32-.52.48-.92.48s-.71-.16-.92-.48c-.21-.32-.32-.78-.32-1.38s.11-1.07.32-1.39c.21-.32.52-.48.92-.48Z"/>
                  <path id="DejaVuSans-2e-33" data-name="DejaVuSans-2e" d="M321.89,292.77h.51v.61h-.51v-.61Z"/>
                  <path id="DejaVuSans-35-19" data-name="DejaVuSans-35" d="M323.46,289.79h1.91v.41h-1.46v.88c.07-.02.14-.04.21-.05.07-.01.14-.02.21-.02.4,0,.72.11.95.33.23.22.35.52.35.89s-.12.69-.36.9c-.24.21-.58.32-1.02.32-.15,0-.3-.01-.46-.04-.16-.03-.32-.06-.48-.12v-.49c.14.08.29.14.45.18s.32.06.49.06c.28,0,.5-.07.66-.22.16-.15.24-.34.24-.59s-.08-.45-.24-.59c-.16-.15-.38-.22-.66-.22-.13,0-.26.01-.39.04-.13.03-.26.07-.39.13v-1.8Z"/>
                </g>
              </g>
            </g>
            <g id="ytick_7-2" data-name="ytick_7">
              <g id="line2d_16-2" data-name="line2d_16">
                <path id="mba42d8faeb-16" data-name="mba42d8faeb" class="cls-7" d="M329.5,267.56h-1.72"/>
              </g>
              <g id="text_16-2" data-name="text_16">
                <g>
                  <path id="DejaVuSans-31-11" data-name="DejaVuSans-31" d="M318.84,269.02h.79v-2.74l-.86.17v-.44l.86-.17h.49v3.18h.79v.41h-2.07v-.41Z"/>
                  <path id="DejaVuSans-2e-34" data-name="DejaVuSans-2e" d="M321.89,268.82h.51v.61h-.51v-.61Z"/>
                  <path id="DejaVuSans-30-45" data-name="DejaVuSans-30" d="M324.49,266.16c-.25,0-.44.12-.56.37-.13.25-.19.62-.19,1.11s.06.86.19,1.11c.13.25.31.37.56.37s.44-.12.57-.37c.13-.25.19-.62.19-1.11s-.06-.86-.19-1.11c-.13-.25-.31-.37-.57-.37ZM324.49,265.77c.4,0,.71.16.92.48.21.32.32.78.32,1.39s-.11,1.07-.32,1.38c-.21.32-.52.48-.92.48s-.71-.16-.92-.48c-.21-.32-.32-.78-.32-1.38s.11-1.07.32-1.39c.21-.32.52-.48.92-.48Z"/>
                </g>
              </g>
            </g>
            <g id="ytick_8-2" data-name="ytick_8">
              <g id="line2d_17-2" data-name="line2d_17">
                <path id="mba42d8faeb-17" data-name="mba42d8faeb" class="cls-7" d="M329.5,243.6h-1.72"/>
              </g>
              <g id="text_17-2" data-name="text_17">
                <g>
                  <path id="DejaVuSans-31-12" data-name="DejaVuSans-31" d="M318.84,245.06h.79v-2.74l-.86.17v-.44l.86-.17h.49v3.18h.79v.41h-2.07v-.41Z"/>
                  <path id="DejaVuSans-2e-35" data-name="DejaVuSans-2e" d="M321.89,244.86h.51v.61h-.51v-.61Z"/>
                  <path id="DejaVuSans-35-20" data-name="DejaVuSans-35" d="M323.46,241.88h1.91v.41h-1.46v.88c.07-.02.14-.04.21-.05.07-.01.14-.02.21-.02.4,0,.72.11.95.33.23.22.35.52.35.89s-.12.69-.36.9c-.24.21-.58.32-1.02.32-.15,0-.3-.01-.46-.04-.16-.03-.32-.06-.48-.12v-.49c.14.08.29.14.45.18s.32.06.49.06c.28,0,.5-.07.66-.22.16-.15.24-.34.24-.59s-.08-.45-.24-.59c-.16-.15-.38-.22-.66-.22-.13,0-.26.01-.39.04-.13.03-.26.07-.39.13v-1.8Z"/>
                </g>
              </g>
            </g>
            <g id="ytick_9-2" data-name="ytick_9">
              <g id="line2d_18-2" data-name="line2d_18">
                <path id="mba42d8faeb-18" data-name="mba42d8faeb" class="cls-7" d="M329.5,219.64h-1.72"/>
              </g>
              <g id="text_18-2" data-name="text_18">
                <g>
                  <path id="DejaVuSans-32-8" data-name="DejaVuSans-32" d="M319.17,221.11h1.69v.41h-2.28v-.41c.18-.19.44-.45.75-.77.32-.32.52-.53.6-.62.16-.17.26-.32.33-.44.06-.12.09-.24.09-.36,0-.19-.07-.35-.2-.47-.13-.12-.31-.18-.52-.18-.15,0-.31.03-.48.08-.17.05-.35.13-.54.24v-.49c.2-.08.38-.14.55-.18.17-.04.33-.06.47-.06.37,0,.67.09.89.28.22.19.33.43.33.74,0,.15-.03.29-.08.42-.05.13-.16.29-.3.47-.04.05-.17.18-.38.4-.21.22-.52.53-.91.93Z"/>
                  <path id="DejaVuSans-2e-36" data-name="DejaVuSans-2e" d="M321.89,220.9h.51v.61h-.51v-.61Z"/>
                  <path id="DejaVuSans-30-46" data-name="DejaVuSans-30" d="M324.49,218.25c-.25,0-.44.12-.56.37-.13.25-.19.62-.19,1.11s.06.86.19,1.11c.13.25.31.37.56.37s.44-.12.57-.37c.13-.25.19-.62.19-1.11s-.06-.86-.19-1.11c-.13-.25-.31-.37-.57-.37ZM324.49,217.86c.4,0,.71.16.92.48.21.32.32.78.32,1.39s-.11,1.07-.32,1.38c-.21.32-.52.48-.92.48s-.71-.16-.92-.48c-.21-.32-.32-.78-.32-1.38s.11-1.07.32-1.39c.21-.32.52-.48.92-.48Z"/>
                </g>
              </g>
            </g>
          </g>
          <g id="line2d_19-2" data-name="line2d_19">
            <g class="cls-11">
              <path class="cls-6" d="M329.5,315.47l8.08,19.17,4.55,10.49,3.54,7.91,3.03,6.55,3.03,6.29,2.53,5.03,2.53,4.81,2.53,4.57,2.53,4.31,2.02,3.25,2.02,3.07,2.02,2.88,2.02,2.68,2.02,2.47,2.02,2.26,1.52,1.55,1.52,1.43,1.52,1.3,1.52,1.17,1.52,1.04,1.52.91,1.52.78,1.52.65,1.52.51,1.52.38,1.52.24,1.52.1,1.52-.03,1.52-.17,1.52-.31,1.52-.44,1.52-.58,1.52-.71,1.52-.85,1.52-.98,1.52-1.11,1.52-1.24,1.52-1.37,1.52-1.49,1.52-1.62,2.02-2.34,2.02-2.55,2.02-2.75,2.02-2.95,2.02-3.14,2.02-3.32,2.53-4.39,2.53-4.64,2.53-4.88,2.53-5.09,3.03-6.36,3.03-6.6,3.54-7.96,4.04-9.36,5.56-13.16,11.11-26.37,4.04-9.3,3.54-7.89,3.03-6.53,3.03-6.27,2.53-5.01,2.53-4.78,2.53-4.54,2.53-4.29,2.02-3.23,2.02-3.05,2.02-2.85,2.02-2.65,2.02-2.45,2.02-2.24,1.52-1.53,1.52-1.41,1.52-1.28,1.52-1.15,1.52-1.02,1.52-.89,1.52-.76,1.52-.62,1.52-.49,1.52-.35,1.52-.22,1.52-.08,1.52.06,1.52.19,1.52.33,1.52.47,1.52.6,1.52.74,1.52.87,1.52,1,1.52,1.13,1.52,1.26,1.52,1.39,1.52,1.51,1.52,1.64,2.02,2.37,2.02,2.58,2.02,2.78,2.02,2.97,2.02,3.16,2.02,3.34,2.53,4.42,2.53,4.67,2.53,4.9,3.03,6.16,3.03,6.42,3.54,7.79,4.04,9.21,4.55,10.65,5.56,13.23h0"/>
            </g>
          </g>
          <g id="line2d_20-2" data-name="line2d_20">
            <g class="cls-10">
              <path class="cls-3" d="M329.5,315.47h252.07"/>
            </g>
          </g>
          <g id="patch_3-2" data-name="patch_3">
            <path class="cls-5" d="M329.5,411.29v-191.65"/>
          </g>
          <g id="patch_4-2" data-name="patch_4">
            <path class="cls-5" d="M581.57,411.29v-191.65"/>
          </g>
          <g id="patch_5-2" data-name="patch_5">
            <path class="cls-5" d="M329.5,411.29h252.07"/>
          </g>
          <g id="patch_6-2" data-name="patch_6">
            <path class="cls-5" d="M329.5,219.64h252.07"/>
          </g>
        </g>
      </g>
      <path class="cls-1" d="M162.6,195.61l-.2.88c-.52.06-.93.09-1.2.09-.44,0-1.03-.04-1.76-.11-.78-.07-1.45-.11-2.01-.11-.44,0-.9.07-1.37.22.42-1.19.9-2.83,1.45-4.94l1.19-4.64-4.18.15c-.73.04-1.49.1-2.26.17-.7,2.75-1.42,4.78-2.16,6.1-.74,1.32-1.59,2.29-2.54,2.91-.95.62-1.87.93-2.74.93s-1.59-.21-2.19-.62c-.44-.29-.66-.65-.66-1.08,0-.26.09-.48.26-.66.17-.18.39-.27.63-.27.4,0,.81.28,1.24.85.26.34.47.56.62.66.16.1.34.15.53.15.8,0,1.56-.65,2.26-1.95s1.74-4.5,3.1-9.62l1.51-5.65c-2.06,0-3.61.34-4.64,1.02-1.03.68-1.55,1.45-1.55,2.3,0,.29.14.65.42,1.1.25.41.37.75.37,1,0,.3-.1.54-.29.73-.19.19-.43.29-.72.29-.36,0-.67-.17-.93-.52-.26-.34-.39-.85-.39-1.51,0-1.19.43-2.25,1.3-3.17s2.12-1.56,3.77-1.95c.95-.22,2.84-.32,5.67-.32-.76,1.5-1.61,4.16-2.56,7.97,2.73,0,4.87-.1,6.44-.29.89-2.98,1.67-5.07,2.35-6.25.68-1.18,1.44-2.03,2.29-2.56.85-.52,1.8-.79,2.85-.79.91,0,1.6.17,2.09.52s.73.74.73,1.18c0,.26-.09.47-.26.63-.17.17-.4.25-.68.25-.36,0-.76-.26-1.22-.77-.46-.51-.87-.77-1.23-.77-.77,0-1.53.72-2.28,2.15-1.34,2.55-2.88,7.94-4.64,16.17.17.02.42.06.74.11.58.1,1.06.15,1.41.15.42,0,.9-.05,1.43-.15Z"/>
      <path class="cls-1" d="M475.55,195.61l-.2.88c-.52.06-.93.09-1.2.09-.44,0-1.03-.04-1.76-.11-.78-.07-1.45-.11-2.01-.11-.44,0-.9.07-1.37.22.42-1.19.9-2.83,1.45-4.94l1.19-4.64-4.18.15c-.73.04-1.49.1-2.26.17-.7,2.75-1.42,4.78-2.16,6.1-.74,1.32-1.59,2.29-2.54,2.91-.95.62-1.87.93-2.74.93s-1.59-.21-2.19-.62c-.44-.29-.66-.65-.66-1.08,0-.26.09-.48.26-.66.17-.18.39-.27.63-.27.4,0,.81.28,1.24.85.26.34.47.56.62.66.16.1.34.15.53.15.8,0,1.56-.65,2.26-1.95s1.74-4.5,3.1-9.62l1.51-5.65c-2.06,0-3.61.34-4.64,1.02-1.03.68-1.55,1.45-1.55,2.3,0,.29.14.65.42,1.1.25.41.37.75.37,1,0,.3-.1.54-.29.73-.19.19-.43.29-.72.29-.36,0-.67-.17-.93-.52-.26-.34-.39-.85-.39-1.51,0-1.19.43-2.25,1.3-3.17s2.12-1.56,3.77-1.95c.95-.22,2.84-.32,5.67-.32-.76,1.5-1.61,4.16-2.56,7.97,2.73,0,4.87-.1,6.44-.29.89-2.98,1.67-5.07,2.35-6.25.68-1.18,1.44-2.03,2.29-2.56.85-.52,1.8-.79,2.85-.79.91,0,1.6.17,2.09.52s.73.74.73,1.18c0,.26-.09.47-.26.63-.17.17-.4.25-.68.25-.36,0-.76-.26-1.22-.77-.46-.51-.87-.77-1.23-.77-.77,0-1.53.72-2.28,2.15-1.34,2.55-2.88,7.94-4.64,16.17.17.02.42.06.74.11.58.1,1.06.15,1.41.15.42,0,.9-.05,1.43-.15Z"/>
      <path class="cls-1" d="M170.76,189.51c.82,0,1.49.3,1.98.91.5.61.75,1.51.75,2.72,0,1.71-.43,3.31-1.29,4.78-.86,1.47-1.91,2.21-3.13,2.21-.72,0-1.33-.31-1.83-.94-.5-.63-.75-1.49-.75-2.57,0-1.27.25-2.52.74-3.74.5-1.22,1.05-2.08,1.68-2.6.62-.51,1.24-.77,1.85-.77ZM170.6,190.02c-.36,0-.72.24-1.09.71-.37.48-.71,1.35-1.03,2.61-.31,1.27-.47,2.47-.47,3.62,0,.92.13,1.6.4,2.02.27.42.57.63.92.63.31,0,.61-.15.91-.46.44-.46.84-1.31,1.2-2.57.36-1.26.54-2.53.54-3.8,0-.99-.15-1.72-.45-2.21-.23-.36-.53-.55-.93-.55Z"/>
      <path class="cls-1" d="M483.75,188.78h.28l-1.2,4.67-1,4.33c-.1.36-.15.61-.15.73,0,.1.05.18.15.24s.32.11.67.14c.26.02.51.06.76.1l-.17.43c-1.24-.13-2.1-.2-2.59-.2-.71,0-1.49.07-2.33.2l.15-.43c.3-.08.64-.16,1.03-.24.38-.07.64-.19.78-.35.19-.2.39-.69.6-1.45l.93-3.57c.31-1.36.46-2.13.46-2.31,0-.2-.08-.3-.25-.3-.13,0-.71.23-1.74.69l-.17-.43c1.5-.71,2.42-1.19,2.75-1.42.33-.23.68-.51,1.05-.83Z"/>
    </g>
    <g id="_레이어_2" data-name="레이어_2">
      <line class="cls-2" x1="29.47" y1="310.02" x2="280.23" y2="310.02"/>
      <line class="cls-2" x1="29.29" y1="308.3" x2="280.05" y2="308.3"/>
      <line class="cls-2" x1="29.29" y1="305.18" x2="280.05" y2="305.18"/>
      <line class="cls-2" x1="29.29" y1="301.78" x2="280.05" y2="301.78"/>
      <line class="cls-2" x1="29.29" y1="298.95" x2="280.05" y2="298.95"/>
      <line class="cls-2" x1="29.29" y1="306.6" x2="280.05" y2="306.6"/>
      <line class="cls-2" x1="29.29" y1="296.11" x2="280.05" y2="296.11"/>
      <line class="cls-2" x1="29.29" y1="293.28" x2="280.05" y2="293.28"/>
      <line class="cls-2" x1="29.29" y1="290.44" x2="280.05" y2="290.44"/>
      <line class="cls-2" x1="29.29" y1="287.32" x2="280.05" y2="287.32"/>
      <line class="cls-2" x1="29.29" y1="281.94" x2="280.05" y2="281.94"/>
      <line class="cls-2" x1="29.29" y1="264.93" x2="280.05" y2="264.93"/>
      <line class="cls-2" x1="29.29" y1="276.27" x2="280.05" y2="276.27"/>
      <line class="cls-2" x1="28.9" y1="249.93" x2="279.66" y2="249.93"/>
      <line class="cls-2" x1="28.9" y1="230.09" x2="279.66" y2="230.09"/>
      <line class="cls-2" x1="28.9" y1="269.77" x2="279.66" y2="269.77"/>
      <line class="cls-2" x1="28.9" y1="258.43" x2="279.66" y2="258.43"/>
      <line class="cls-2" x1="279.77" y1="318.7" x2="29.01" y2="318.7"/>
      <line class="cls-2" x1="279.95" y1="320.42" x2="29.19" y2="320.42"/>
      <line class="cls-2" x1="279.95" y1="323.54" x2="29.19" y2="323.54"/>
      <line class="cls-2" x1="279.95" y1="326.94" x2="29.19" y2="326.94"/>
      <line class="cls-2" x1="279.95" y1="329.77" x2="29.19" y2="329.77"/>
      <line class="cls-2" x1="279.95" y1="322.12" x2="29.19" y2="322.12"/>
      <line class="cls-2" x1="279.95" y1="332.61" x2="29.19" y2="332.61"/>
      <line class="cls-2" x1="279.95" y1="335.44" x2="29.19" y2="335.44"/>
      <line class="cls-2" x1="279.95" y1="338.28" x2="29.19" y2="338.28"/>
      <line class="cls-2" x1="279.95" y1="341.39" x2="29.19" y2="341.39"/>
      <line class="cls-2" x1="279.95" y1="346.78" x2="29.19" y2="346.78"/>
      <line class="cls-2" x1="279.95" y1="363.79" x2="29.19" y2="363.79"/>
      <line class="cls-2" x1="279.95" y1="352.45" x2="29.19" y2="352.45"/>
      <line class="cls-2" x1="280.34" y1="378.79" x2="29.58" y2="378.79"/>
      <line class="cls-2" x1="280.34" y1="398.63" x2="29.58" y2="398.63"/>
      <line class="cls-2" x1="280.34" y1="358.95" x2="29.58" y2="358.95"/>
      <line class="cls-2" x1="280.34" y1="370.28" x2="29.58" y2="370.28"/>
      <line class="cls-2" x1="28.99" y1="316.31" x2="279.74" y2="316.31"/>
      <line class="cls-2" x1="28.99" y1="317.44" x2="279.74" y2="317.44"/>
      <line class="cls-2" x1="28.99" y1="314.6" x2="279.74" y2="314.6"/>
      <line class="cls-2" x1="28.99" y1="312.9" x2="279.74" y2="312.9"/>
      <line class="cls-2" x1="28.99" y1="311.49" x2="279.74" y2="311.49"/>
      <line class="cls-2" x1="329.5" y1="354.17" x2="383.13" y2="411.42"/>
      <line class="cls-2" x1="329.5" y1="326.94" x2="375.17" y2="411.29"/>
      <line class="cls-2" x1="379.87" y1="411.29" x2="329.99" y2="342.96"/>
      <line class="cls-2" x1="410.65" y1="411.29" x2="511.87" y2="219.64"/>
      <line class="cls-2" x1="403.48" y1="411.29" x2="551.99" y2="219.72"/>
      <line class="cls-2" x1="421.42" y1="411.29" x2="490.94" y2="219.64"/>
      <line class="cls-2" x1="534.83" y1="219.72" x2="581.57" y2="302.72"/>
      <line class="cls-2" x1="581.57" y1="262.8" x2="526.54" y2="219.64"/>
      <line class="cls-2" x1="507.76" y1="219.64" x2="331.1" y2="409.51"/>
      <line class="cls-2" x1="582.36" y1="271.61" x2="401.13" y2="410.72"/>
      <path class="cls-2" d="M408.57,410.72"/>
      <line class="cls-2" x1="510.63" y1="219.89" x2="329.99" y2="360.3"/>
      <line class="cls-2" x1="525.04" y1="219.89" x2="581.57" y2="242.91"/>
      <line class="cls-2" x1="581.57" y1="310.84" x2="540.24" y2="219.64"/>
      <path class="cls-2" d="M459.63,297.04"/>
      <line class="cls-2" x1="500.13" y1="219.64" x2="396.69" y2="410.78"/>
      <line class="cls-2" x1="329.5" y1="337.95" x2="514.91" y2="219.7"/>
      <line class="cls-2" x1="329.99" y1="384.07" x2="383.9" y2="410.72"/>
      <path class="cls-2" d="M414.3,425.02"/>
      <path class="cls-2" d="M581.11,226.63s-161.65,165.03-163.41,166.54"/>
      <line class="cls-2" x1="440.82" y1="354.17" x2="530.33" y2="218.91"/>
      <line class="cls-2" x1="485.48" y1="246.72" x2="369.43" y2="411.49"/>
      <line class="cls-2" x1="330.01" y1="305.18" x2="512.07" y2="221.51"/>
      <line class="cls-2" x1="328.64" y1="268.3" x2="514" y2="219.7"/>
      <line class="cls-2" x1="397.74" y1="410.69" x2="581.6" y2="372.49"/>
      <path class="cls-2" d="M324.46,302.72"/>
      <line class="cls-2" x1="329.5" y1="320.95" x2="369.43" y2="410.03"/>
      <line class="cls-2" x1="549.43" y1="218.91" x2="581.57" y2="315.8"/>
      <line class="cls-2" x1="399.25" y1="409.18" x2="582.67" y2="320.95"/>
      <line class="cls-2" x1="329.99" y1="348.11" x2="579.7" y2="219.7"/>
      <line class="cls-2" x1="354.93" y1="410.03" x2="581.6" y2="289.73"/>
      <line class="cls-2" x1="329.74" y1="367.87" x2="465.96" y2="411.29"/>
      <line class="cls-2" x1="468.27" y1="218.91" x2="581.11" y2="267.36"/>
      <line class="cls-2" x1="331.59" y1="378.79" x2="580.26" y2="281.94"/>
      <line class="cls-2" x1="329.5" y1="332.61" x2="581.57" y2="231.4"/>
      <line class="cls-2" x1="349.47" y1="410.03" x2="544.91" y2="219.64"/>
    </g>
  </g>
</svg>