<?xml version="1.0" encoding="UTF-8"?>
<svg xmlns="http://www.w3.org/2000/svg" version="1.1" xmlns:xlink="http://www.w3.org/1999/xlink" viewBox="0 0 600 600">
  <defs>
    <style>
      .cls-1 {
        fill: #231815;
      }

      .cls-2 {
        stroke: #231815;
      }

      .cls-2, .cls-3 {
        stroke-miterlimit: 10;
      }

      .cls-4 {
        stroke-dasharray: 1 1.65;
      }

      .cls-4, .cls-5, .cls-6, .cls-7 {
        fill: none;
      }

      .cls-4, .cls-6, .cls-8 {
        stroke: #000;
      }

      .cls-4, .cls-7, .cls-8 {
        stroke-linejoin: round;
      }

      .cls-9 {
        fill: #fff;
      }

      .cls-10 {
        clip-path: url(#clippath-1);
      }

      .cls-3 {
        stroke: #e60012;
        stroke-width: 2px;
      }

      .cls-3, .cls-11 {
        fill: #e60012;
      }

      .cls-6, .cls-7 {
        stroke-linecap: square;
      }

      .cls-6, .cls-8 {
        stroke-width: .8px;
      }

      .cls-12 {
        clip-path: url(#clippath-3);
      }

      .cls-7 {
        stroke: blue;
        stroke-opacity: .3;
        stroke-width: 1.5px;
      }

      .cls-11 {
        opacity: .2;
      }

      .cls-13 {
        clip-path: url(#clippath-2);
      }

      .cls-14 {
        clip-path: url(#clippath);
      }
    </style>
    <clipPath id="clippath">
      <rect class="cls-5" x="28" y="209.96" width="252.07" height="191.65"/>
    </clipPath>
    <clipPath id="clippath-1">
      <rect class="cls-5" x="28" y="209.96" width="252.07" height="191.65"/>
    </clipPath>
    <clipPath id="clippath-2">
      <rect class="cls-5" x="329.17" y="209.96" width="252.07" height="191.65"/>
    </clipPath>
    <clipPath id="clippath-3">
      <rect class="cls-5" x="329.17" y="209.96" width="252.07" height="191.65"/>
    </clipPath>
  </defs>
  <!-- Generator: Adobe Illustrator 28.7.1, SVG Export Plug-In . SVG Version: 1.2.0 Build 142)  -->
  <g>
    <g id="_레이어_1" data-name="레이어_1">
      <g id="figure_1">
        <g id="patch_1">
          <path class="cls-9" d="M7.33,415.33h283.52v-212.64H7.33v212.64Z"/>
        </g>
        <g id="axes_1">
          <g id="patch_2">
            <path class="cls-9" d="M28,401.61h252.07v-191.65H28v191.65Z"/>
          </g>
          <g id="matplotlib.axis_1">
            <g id="xtick_1">
              <g id="line2d_1">
                <path id="mae7dea919d" class="cls-8" d="M28,401.61v1.72"/>
              </g>
              <g id="text_1">
                <g>
                  <path id="DejaVuSans-2212" d="M20.98,407.05h3.08v.41h-3.08v-.41Z"/>
                  <path id="DejaVuSans-31" d="M25.2,408.38h.79v-2.74l-.86.17v-.44l.86-.17h.49v3.18h.79v.41h-2.07v-.41Z"/>
                  <path id="DejaVuSans-2e" d="M28.24,408.18h.51v.61h-.51v-.61Z"/>
                  <path id="DejaVuSans-30" d="M30.85,405.52c-.25,0-.44.12-.56.37-.13.25-.19.62-.19,1.11s.06.86.19,1.11c.13.25.31.37.56.37s.44-.12.57-.37c.13-.25.19-.62.19-1.11s-.06-.86-.19-1.11c-.13-.25-.31-.37-.57-.37ZM30.85,405.14c.4,0,.71.16.92.48.21.32.32.78.32,1.39s-.11,1.07-.32,1.38c-.21.32-.52.48-.92.48s-.71-.16-.92-.48c-.21-.32-.32-.78-.32-1.38s.11-1.07.32-1.39c.21-.32.52-.48.92-.48Z"/>
                  <path id="DejaVuSans-30-2" data-name="DejaVuSans-30" d="M33.98,405.52c-.25,0-.44.12-.56.37-.13.25-.19.62-.19,1.11s.06.86.19,1.11c.13.25.31.37.56.37s.44-.12.57-.37c.13-.25.19-.62.19-1.11s-.06-.86-.19-1.11c-.13-.25-.31-.37-.57-.37ZM33.98,405.14c.4,0,.71.16.92.48.21.32.32.78.32,1.39s-.11,1.07-.32,1.38c-.21.32-.52.48-.92.48s-.71-.16-.92-.48c-.21-.32-.32-.78-.32-1.38s.11-1.07.32-1.39c.21-.32.52-.48.92-.48Z"/>
                </g>
              </g>
            </g>
            <g id="xtick_2">
              <g id="line2d_2">
                <path id="mae7dea919d-2" data-name="mae7dea919d" class="cls-8" d="M59.51,401.61v1.72"/>
              </g>
              <g id="text_2">
                <g>
                  <path id="DejaVuSans-2212-2" data-name="DejaVuSans-2212" d="M52.49,407.05h3.08v.41h-3.08v-.41Z"/>
                  <path id="DejaVuSans-30-3" data-name="DejaVuSans-30" d="M57.66,405.52c-.25,0-.44.12-.56.37-.13.25-.19.62-.19,1.11s.06.86.19,1.11c.13.25.31.37.56.37s.44-.12.57-.37c.13-.25.19-.62.19-1.11s-.06-.86-.19-1.11c-.13-.25-.31-.37-.57-.37ZM57.66,405.14c.4,0,.71.16.92.48.21.32.32.78.32,1.39s-.11,1.07-.32,1.38c-.21.32-.52.48-.92.48s-.71-.16-.92-.48c-.21-.32-.32-.78-.32-1.38s.11-1.07.32-1.39c.21-.32.52-.48.92-.48Z"/>
                  <path id="DejaVuSans-2e-2" data-name="DejaVuSans-2e" d="M59.75,408.18h.51v.61h-.51v-.61Z"/>
                  <path id="DejaVuSans-37" d="M61.2,405.2h2.31v.21l-1.3,3.38h-.51l1.23-3.18h-1.72v-.41Z"/>
                  <path id="DejaVuSans-35" d="M64.46,405.2h1.91v.41h-1.46v.88c.07-.02.14-.04.21-.05.07-.01.14-.02.21-.02.4,0,.72.11.95.33.23.22.35.52.35.89s-.12.69-.36.9c-.24.21-.58.32-1.02.32-.15,0-.3-.01-.46-.04-.16-.03-.32-.06-.48-.12v-.49c.14.08.29.14.45.18s.32.06.49.06c.28,0,.5-.07.66-.22.16-.15.24-.34.24-.59s-.08-.45-.24-.59c-.16-.15-.38-.22-.66-.22-.13,0-.26.01-.39.04-.13.03-.26.07-.39.13v-1.8Z"/>
                </g>
              </g>
            </g>
            <g id="xtick_3">
              <g id="line2d_3">
                <path id="mae7dea919d-3" data-name="mae7dea919d" class="cls-8" d="M91.02,401.61v1.72"/>
              </g>
              <g id="text_3">
                <g>
                  <path id="DejaVuSans-2212-3" data-name="DejaVuSans-2212" d="M84,407.05h3.08v.41h-3.08v-.41Z"/>
                  <path id="DejaVuSans-30-4" data-name="DejaVuSans-30" d="M89.17,405.52c-.25,0-.44.12-.56.37-.13.25-.19.62-.19,1.11s.06.86.19,1.11c.13.25.31.37.56.37s.44-.12.57-.37c.13-.25.19-.62.19-1.11s-.06-.86-.19-1.11c-.13-.25-.31-.37-.57-.37ZM89.17,405.14c.4,0,.71.16.92.48.21.32.32.78.32,1.39s-.11,1.07-.32,1.38c-.21.32-.52.48-.92.48s-.71-.16-.92-.48c-.21-.32-.32-.78-.32-1.38s.11-1.07.32-1.39c.21-.32.52-.48.92-.48Z"/>
                  <path id="DejaVuSans-2e-3" data-name="DejaVuSans-2e" d="M91.26,408.18h.51v.61h-.51v-.61Z"/>
                  <path id="DejaVuSans-35-2" data-name="DejaVuSans-35" d="M92.83,405.2h1.91v.41h-1.46v.88c.07-.02.14-.04.21-.05.07-.01.14-.02.21-.02.4,0,.72.11.95.33.23.22.35.52.35.89s-.12.69-.36.9c-.24.21-.58.32-1.02.32-.15,0-.3-.01-.46-.04-.16-.03-.32-.06-.48-.12v-.49c.14.08.29.14.45.18s.32.06.49.06c.28,0,.5-.07.66-.22.16-.15.24-.34.24-.59s-.08-.45-.24-.59c-.16-.15-.38-.22-.66-.22-.13,0-.26.01-.39.04-.13.03-.26.07-.39.13v-1.8Z"/>
                  <path id="DejaVuSans-30-5" data-name="DejaVuSans-30" d="M97,405.52c-.25,0-.44.12-.56.37-.13.25-.19.62-.19,1.11s.06.86.19,1.11c.13.25.31.37.56.37s.44-.12.57-.37c.13-.25.19-.62.19-1.11s-.06-.86-.19-1.11c-.13-.25-.31-.37-.57-.37ZM97,405.14c.4,0,.71.16.92.48.21.32.32.78.32,1.39s-.11,1.07-.32,1.38c-.21.32-.52.48-.92.48s-.71-.16-.92-.48c-.21-.32-.32-.78-.32-1.38s.11-1.07.32-1.39c.21-.32.52-.48.92-.48Z"/>
                </g>
              </g>
            </g>
            <g id="xtick_4">
              <g id="line2d_4">
                <path id="mae7dea919d-4" data-name="mae7dea919d" class="cls-8" d="M122.53,401.61v1.72"/>
              </g>
              <g id="text_4">
                <g>
                  <path id="DejaVuSans-2212-4" data-name="DejaVuSans-2212" d="M115.51,407.05h3.08v.41h-3.08v-.41Z"/>
                  <path id="DejaVuSans-30-6" data-name="DejaVuSans-30" d="M120.68,405.52c-.25,0-.44.12-.56.37-.13.25-.19.62-.19,1.11s.06.86.19,1.11c.13.25.31.37.56.37s.44-.12.57-.37c.13-.25.19-.62.19-1.11s-.06-.86-.19-1.11c-.13-.25-.31-.37-.57-.37ZM120.68,405.14c.4,0,.71.16.92.48.21.32.32.78.32,1.39s-.11,1.07-.32,1.38c-.21.32-.52.48-.92.48s-.71-.16-.92-.48c-.21-.32-.32-.78-.32-1.38s.11-1.07.32-1.39c.21-.32.52-.48.92-.48Z"/>
                  <path id="DejaVuSans-2e-4" data-name="DejaVuSans-2e" d="M122.77,408.18h.51v.61h-.51v-.61Z"/>
                  <path id="DejaVuSans-32" d="M124.76,408.38h1.69v.41h-2.28v-.41c.18-.19.44-.45.75-.77.32-.32.52-.53.6-.62.16-.17.26-.32.33-.44.06-.12.09-.24.09-.36,0-.19-.07-.35-.2-.47-.13-.12-.31-.18-.52-.18-.15,0-.31.03-.48.08-.17.05-.35.13-.54.24v-.49c.2-.08.38-.14.55-.18.17-.04.33-.06.47-.06.37,0,.67.09.89.28.22.19.33.43.33.74,0,.15-.03.29-.08.42-.05.13-.16.29-.3.47-.04.05-.17.18-.38.4-.21.22-.52.53-.91.93Z"/>
                  <path id="DejaVuSans-35-3" data-name="DejaVuSans-35" d="M127.47,405.2h1.91v.41h-1.46v.88c.07-.02.14-.04.21-.05.07-.01.14-.02.21-.02.4,0,.72.11.95.33.23.22.35.52.35.89s-.12.69-.36.9c-.24.21-.58.32-1.02.32-.15,0-.3-.01-.46-.04-.16-.03-.32-.06-.48-.12v-.49c.14.08.29.14.45.18s.32.06.49.06c.28,0,.5-.07.66-.22.16-.15.24-.34.24-.59s-.08-.45-.24-.59c-.16-.15-.38-.22-.66-.22-.13,0-.26.01-.39.04-.13.03-.26.07-.39.13v-1.8Z"/>
                </g>
              </g>
            </g>
            <g id="xtick_5">
              <g id="line2d_5">
                <path id="mae7dea919d-5" data-name="mae7dea919d" class="cls-8" d="M154.04,401.61v1.72"/>
              </g>
              <g id="text_5">
                <g>
                  <path id="DejaVuSans-30-7" data-name="DejaVuSans-30" d="M150.13,405.52c-.25,0-.44.12-.56.37-.13.25-.19.62-.19,1.11s.06.86.19,1.11c.13.25.31.37.56.37s.44-.12.57-.37c.13-.25.19-.62.19-1.11s-.06-.86-.19-1.11c-.13-.25-.31-.37-.57-.37ZM150.13,405.14c.4,0,.71.16.92.48.21.32.32.78.32,1.39s-.11,1.07-.32,1.38c-.21.32-.52.48-.92.48s-.71-.16-.92-.48c-.21-.32-.32-.78-.32-1.38s.11-1.07.32-1.39c.21-.32.52-.48.92-.48Z"/>
                  <path id="DejaVuSans-2e-5" data-name="DejaVuSans-2e" d="M152.22,408.18h.51v.61h-.51v-.61Z"/>
                  <path id="DejaVuSans-30-8" data-name="DejaVuSans-30" d="M154.82,405.52c-.25,0-.44.12-.56.37-.13.25-.19.62-.19,1.11s.06.86.19,1.11c.13.25.31.37.56.37s.44-.12.57-.37c.13-.25.19-.62.19-1.11s-.06-.86-.19-1.11c-.13-.25-.31-.37-.57-.37ZM154.82,405.14c.4,0,.71.16.92.48.21.32.32.78.32,1.39s-.11,1.07-.32,1.38c-.21.32-.52.48-.92.48s-.71-.16-.92-.48c-.21-.32-.32-.78-.32-1.38s.11-1.07.32-1.39c.21-.32.52-.48.92-.48Z"/>
                  <path id="DejaVuSans-30-9" data-name="DejaVuSans-30" d="M157.95,405.52c-.25,0-.44.12-.56.37-.13.25-.19.62-.19,1.11s.06.86.19,1.11c.13.25.31.37.56.37s.44-.12.57-.37c.13-.25.19-.62.19-1.11s-.06-.86-.19-1.11c-.13-.25-.31-.37-.57-.37ZM157.95,405.14c.4,0,.71.16.92.48.21.32.32.78.32,1.39s-.11,1.07-.32,1.38c-.21.32-.52.48-.92.48s-.71-.16-.92-.48c-.21-.32-.32-.78-.32-1.38s.11-1.07.32-1.39c.21-.32.52-.48.92-.48Z"/>
                </g>
              </g>
            </g>
            <g id="xtick_6">
              <g id="line2d_6">
                <path id="mae7dea919d-6" data-name="mae7dea919d" class="cls-8" d="M185.55,401.61v1.72"/>
              </g>
              <g id="text_6">
                <g>
                  <path id="DejaVuSans-30-10" data-name="DejaVuSans-30" d="M181.64,405.52c-.25,0-.44.12-.56.37-.13.25-.19.62-.19,1.11s.06.86.19,1.11c.13.25.31.37.56.37s.44-.12.57-.37c.13-.25.19-.62.19-1.11s-.06-.86-.19-1.11c-.13-.25-.31-.37-.57-.37ZM181.64,405.14c.4,0,.71.16.92.48.21.32.32.78.32,1.39s-.11,1.07-.32,1.38c-.21.32-.52.48-.92.48s-.71-.16-.92-.48c-.21-.32-.32-.78-.32-1.38s.11-1.07.32-1.39c.21-.32.52-.48.92-.48Z"/>
                  <path id="DejaVuSans-2e-6" data-name="DejaVuSans-2e" d="M183.73,408.18h.51v.61h-.51v-.61Z"/>
                  <path id="DejaVuSans-32-2" data-name="DejaVuSans-32" d="M185.71,408.38h1.69v.41h-2.28v-.41c.18-.19.44-.45.75-.77.32-.32.52-.53.6-.62.16-.17.26-.32.33-.44.06-.12.09-.24.09-.36,0-.19-.07-.35-.2-.47-.13-.12-.31-.18-.52-.18-.15,0-.31.03-.48.08-.17.05-.35.13-.54.24v-.49c.2-.08.38-.14.55-.18.17-.04.33-.06.47-.06.37,0,.67.09.89.28.22.19.33.43.33.74,0,.15-.03.29-.08.42-.05.13-.16.29-.3.47-.04.05-.17.18-.38.4-.21.22-.52.53-.91.93Z"/>
                  <path id="DejaVuSans-35-4" data-name="DejaVuSans-35" d="M188.43,405.2h1.91v.41h-1.46v.88c.07-.02.14-.04.21-.05.07-.01.14-.02.21-.02.4,0,.72.11.95.33.23.22.35.52.35.89s-.12.69-.36.9c-.24.21-.58.32-1.02.32-.15,0-.3-.01-.46-.04-.16-.03-.32-.06-.48-.12v-.49c.14.08.29.14.45.18s.32.06.49.06c.28,0,.5-.07.66-.22.16-.15.24-.34.24-.59s-.08-.45-.24-.59c-.16-.15-.38-.22-.66-.22-.13,0-.26.01-.39.04-.13.03-.26.07-.39.13v-1.8Z"/>
                </g>
              </g>
            </g>
            <g id="xtick_7">
              <g id="line2d_7">
                <path id="mae7dea919d-7" data-name="mae7dea919d" class="cls-8" d="M217.06,401.61v1.72"/>
              </g>
              <g id="text_7">
                <g>
                  <path id="DejaVuSans-30-11" data-name="DejaVuSans-30" d="M213.15,405.52c-.25,0-.44.12-.56.37-.13.25-.19.62-.19,1.11s.06.86.19,1.11c.13.25.31.37.56.37s.44-.12.57-.37c.13-.25.19-.62.19-1.11s-.06-.86-.19-1.11c-.13-.25-.31-.37-.57-.37ZM213.15,405.14c.4,0,.71.16.92.48.21.32.32.78.32,1.39s-.11,1.07-.32,1.38c-.21.32-.52.48-.92.48s-.71-.16-.92-.48c-.21-.32-.32-.78-.32-1.38s.11-1.07.32-1.39c.21-.32.52-.48.92-.48Z"/>
                  <path id="DejaVuSans-2e-7" data-name="DejaVuSans-2e" d="M215.24,408.18h.51v.61h-.51v-.61Z"/>
                  <path id="DejaVuSans-35-5" data-name="DejaVuSans-35" d="M216.81,405.2h1.91v.41h-1.46v.88c.07-.02.14-.04.21-.05.07-.01.14-.02.21-.02.4,0,.72.11.95.33.23.22.35.52.35.89s-.12.69-.36.9c-.24.21-.58.32-1.02.32-.15,0-.3-.01-.46-.04-.16-.03-.32-.06-.48-.12v-.49c.14.08.29.14.45.18s.32.06.49.06c.28,0,.5-.07.66-.22.16-.15.24-.34.24-.59s-.08-.45-.24-.59c-.16-.15-.38-.22-.66-.22-.13,0-.26.01-.39.04-.13.03-.26.07-.39.13v-1.8Z"/>
                  <path id="DejaVuSans-30-12" data-name="DejaVuSans-30" d="M220.97,405.52c-.25,0-.44.12-.56.37-.13.25-.19.62-.19,1.11s.06.86.19,1.11c.13.25.31.37.56.37s.44-.12.57-.37c.13-.25.19-.62.19-1.11s-.06-.86-.19-1.11c-.13-.25-.31-.37-.57-.37ZM220.97,405.14c.4,0,.71.16.92.48.21.32.32.78.32,1.39s-.11,1.07-.32,1.38c-.21.32-.52.48-.92.48s-.71-.16-.92-.48c-.21-.32-.32-.78-.32-1.38s.11-1.07.32-1.39c.21-.32.52-.48.92-.48Z"/>
                </g>
              </g>
            </g>
            <g id="xtick_8">
              <g id="line2d_8">
                <path id="mae7dea919d-8" data-name="mae7dea919d" class="cls-8" d="M248.57,401.61v1.72"/>
              </g>
              <g id="text_8">
                <g>
                  <path id="DejaVuSans-30-13" data-name="DejaVuSans-30" d="M244.65,405.52c-.25,0-.44.12-.56.37-.13.25-.19.62-.19,1.11s.06.86.19,1.11c.13.25.31.37.56.37s.44-.12.57-.37c.13-.25.19-.62.19-1.11s-.06-.86-.19-1.11c-.13-.25-.31-.37-.57-.37ZM244.65,405.14c.4,0,.71.16.92.48.21.32.32.78.32,1.39s-.11,1.07-.32,1.38c-.21.32-.52.48-.92.48s-.71-.16-.92-.48c-.21-.32-.32-.78-.32-1.38s.11-1.07.32-1.39c.21-.32.52-.48.92-.48Z"/>
                  <path id="DejaVuSans-2e-8" data-name="DejaVuSans-2e" d="M246.75,408.18h.51v.61h-.51v-.61Z"/>
                  <path id="DejaVuSans-37-2" data-name="DejaVuSans-37" d="M248.19,405.2h2.31v.21l-1.3,3.38h-.51l1.23-3.18h-1.72v-.41Z"/>
                  <path id="DejaVuSans-35-6" data-name="DejaVuSans-35" d="M251.45,405.2h1.91v.41h-1.46v.88c.07-.02.14-.04.21-.05.07-.01.14-.02.21-.02.4,0,.72.11.95.33.23.22.35.52.35.89s-.12.69-.36.9c-.24.21-.58.32-1.02.32-.15,0-.3-.01-.46-.04-.16-.03-.32-.06-.48-.12v-.49c.14.08.29.14.45.18s.32.06.49.06c.28,0,.5-.07.66-.22.16-.15.24-.34.24-.59s-.08-.45-.24-.59c-.16-.15-.38-.22-.66-.22-.13,0-.26.01-.39.04-.13.03-.26.07-.39.13v-1.8Z"/>
                </g>
              </g>
            </g>
            <g id="xtick_9">
              <g id="line2d_9">
                <path id="mae7dea919d-9" data-name="mae7dea919d" class="cls-8" d="M280.08,401.61v1.72"/>
              </g>
              <g id="text_9">
                <g>
                  <path id="DejaVuSans-31-2" data-name="DejaVuSans-31" d="M275.21,408.38h.79v-2.74l-.86.17v-.44l.86-.17h.49v3.18h.79v.41h-2.07v-.41Z"/>
                  <path id="DejaVuSans-2e-9" data-name="DejaVuSans-2e" d="M278.26,408.18h.51v.61h-.51v-.61Z"/>
                  <path id="DejaVuSans-30-14" data-name="DejaVuSans-30" d="M280.86,405.52c-.25,0-.44.12-.56.37-.13.25-.19.62-.19,1.11s.06.86.19,1.11c.13.25.31.37.56.37s.44-.12.57-.37c.13-.25.19-.62.19-1.11s-.06-.86-.19-1.11c-.13-.25-.31-.37-.57-.37ZM280.86,405.14c.4,0,.71.16.92.48.21.32.32.78.32,1.39s-.11,1.07-.32,1.38c-.21.32-.52.48-.92.48s-.71-.16-.92-.48c-.21-.32-.32-.78-.32-1.38s.11-1.07.32-1.39c.21-.32.52-.48.92-.48Z"/>
                  <path id="DejaVuSans-30-15" data-name="DejaVuSans-30" d="M283.99,405.52c-.25,0-.44.12-.56.37-.13.25-.19.62-.19,1.11s.06.86.19,1.11c.13.25.31.37.56.37s.44-.12.57-.37c.13-.25.19-.62.19-1.11s-.06-.86-.19-1.11c-.13-.25-.31-.37-.57-.37ZM283.99,405.14c.4,0,.71.16.92.48.21.32.32.78.32,1.39s-.11,1.07-.32,1.38c-.21.32-.52.48-.92.48s-.71-.16-.92-.48c-.21-.32-.32-.78-.32-1.38s.11-1.07.32-1.39c.21-.32.52-.48.92-.48Z"/>
                </g>
              </g>
            </g>
          </g>
          <g id="matplotlib.axis_2">
            <g id="ytick_1">
              <g id="line2d_10">
                <path id="mba42d8faeb" class="cls-8" d="M28,401.61h-1.72"/>
              </g>
              <g id="text_10">
                <g>
                  <path id="DejaVuSans-2212-5" data-name="DejaVuSans-2212" d="M13.13,401.73h3.08v.41h-3.08v-.41Z"/>
                  <path id="DejaVuSans-32-3" data-name="DejaVuSans-32" d="M17.68,403.07h1.69v.41h-2.28v-.41c.18-.19.44-.45.75-.77.32-.32.52-.53.6-.62.16-.17.26-.32.33-.44.06-.12.09-.24.09-.36,0-.19-.07-.35-.2-.47-.13-.12-.31-.18-.52-.18-.15,0-.31.03-.48.08-.17.05-.35.13-.54.24v-.49c.2-.08.38-.14.55-.18.17-.04.33-.06.47-.06.37,0,.67.09.89.28.22.19.33.43.33.74,0,.15-.03.29-.08.42-.05.13-.16.29-.3.47-.04.05-.17.18-.38.4-.21.22-.52.53-.91.93Z"/>
                  <path id="DejaVuSans-2e-10" data-name="DejaVuSans-2e" d="M20.39,402.87h.51v.61h-.51v-.61Z"/>
                  <path id="DejaVuSans-30-16" data-name="DejaVuSans-30" d="M22.99,400.21c-.25,0-.44.12-.56.37-.13.25-.19.62-.19,1.11s.06.86.19,1.11c.13.25.31.37.56.37s.44-.12.57-.37c.13-.25.19-.62.19-1.11s-.06-.86-.19-1.11c-.13-.25-.31-.37-.57-.37ZM22.99,399.82c.4,0,.71.16.92.48.21.32.32.78.32,1.39s-.11,1.07-.32,1.38c-.21.32-.52.48-.92.48s-.71-.16-.92-.48c-.21-.32-.32-.78-.32-1.38s.11-1.07.32-1.39c.21-.32.52-.48.92-.48Z"/>
                </g>
              </g>
            </g>
            <g id="ytick_2">
              <g id="line2d_11">
                <path id="mba42d8faeb-2" data-name="mba42d8faeb" class="cls-8" d="M28,377.65h-1.72"/>
              </g>
              <g id="text_11">
                <g>
                  <path id="DejaVuSans-2212-6" data-name="DejaVuSans-2212" d="M13.13,377.77h3.08v.41h-3.08v-.41Z"/>
                  <path id="DejaVuSans-31-3" data-name="DejaVuSans-31" d="M17.34,379.11h.79v-2.74l-.86.17v-.44l.86-.17h.49v3.18h.79v.41h-2.07v-.41Z"/>
                  <path id="DejaVuSans-2e-11" data-name="DejaVuSans-2e" d="M20.39,378.91h.51v.61h-.51v-.61Z"/>
                  <path id="DejaVuSans-35-7" data-name="DejaVuSans-35" d="M21.96,375.93h1.91v.41h-1.46v.88c.07-.02.14-.04.21-.05.07-.01.14-.02.21-.02.4,0,.72.11.95.33.23.22.35.52.35.89s-.12.69-.36.9c-.24.21-.58.32-1.02.32-.15,0-.3-.01-.46-.04-.16-.03-.32-.06-.48-.12v-.49c.14.08.29.14.45.18s.32.06.49.06c.28,0,.5-.07.66-.22.16-.15.24-.34.24-.59s-.08-.45-.24-.59c-.16-.15-.38-.22-.66-.22-.13,0-.26.01-.39.04-.13.03-.26.07-.39.13v-1.8Z"/>
                </g>
              </g>
            </g>
            <g id="ytick_3">
              <g id="line2d_12">
                <path id="mba42d8faeb-3" data-name="mba42d8faeb" class="cls-8" d="M28,353.69h-1.72"/>
              </g>
              <g id="text_12">
                <g>
                  <path id="DejaVuSans-2212-7" data-name="DejaVuSans-2212" d="M13.13,353.82h3.08v.41h-3.08v-.41Z"/>
                  <path id="DejaVuSans-31-4" data-name="DejaVuSans-31" d="M17.34,355.16h.79v-2.74l-.86.17v-.44l.86-.17h.49v3.18h.79v.41h-2.07v-.41Z"/>
                  <path id="DejaVuSans-2e-12" data-name="DejaVuSans-2e" d="M20.39,354.95h.51v.61h-.51v-.61Z"/>
                  <path id="DejaVuSans-30-17" data-name="DejaVuSans-30" d="M22.99,352.3c-.25,0-.44.12-.56.37-.13.25-.19.62-.19,1.11s.06.86.19,1.11c.13.25.31.37.56.37s.44-.12.57-.37c.13-.25.19-.62.19-1.11s-.06-.86-.19-1.11c-.13-.25-.31-.37-.57-.37ZM22.99,351.91c.4,0,.71.16.92.48.21.32.32.78.32,1.39s-.11,1.07-.32,1.38c-.21.32-.52.48-.92.48s-.71-.16-.92-.48c-.21-.32-.32-.78-.32-1.38s.11-1.07.32-1.39c.21-.32.52-.48.92-.48Z"/>
                </g>
              </g>
            </g>
            <g id="ytick_4">
              <g id="line2d_13">
                <path id="mba42d8faeb-4" data-name="mba42d8faeb" class="cls-8" d="M28,329.74h-1.72"/>
              </g>
              <g id="text_13">
                <g>
                  <path id="DejaVuSans-2212-8" data-name="DejaVuSans-2212" d="M13.13,329.86h3.08v.41h-3.08v-.41Z"/>
                  <path id="DejaVuSans-30-18" data-name="DejaVuSans-30" d="M18.3,328.34c-.25,0-.44.12-.56.37-.13.25-.19.62-.19,1.11s.06.86.19,1.11c.13.25.31.37.56.37s.44-.12.57-.37c.13-.25.19-.62.19-1.11s-.06-.86-.19-1.11c-.13-.25-.31-.37-.57-.37ZM18.3,327.96c.4,0,.71.16.92.48.21.32.32.78.32,1.39s-.11,1.07-.32,1.38c-.21.32-.52.48-.92.48s-.71-.16-.92-.48c-.21-.32-.32-.78-.32-1.38s.11-1.07.32-1.39c.21-.32.52-.48.92-.48Z"/>
                  <path id="DejaVuSans-2e-13" data-name="DejaVuSans-2e" d="M20.39,331h.51v.61h-.51v-.61Z"/>
                  <path id="DejaVuSans-35-8" data-name="DejaVuSans-35" d="M21.96,328.02h1.91v.41h-1.46v.88c.07-.02.14-.04.21-.05.07-.01.14-.02.21-.02.4,0,.72.11.95.33.23.22.35.52.35.89s-.12.69-.36.9c-.24.21-.58.32-1.02.32-.15,0-.3-.01-.46-.04-.16-.03-.32-.06-.48-.12v-.49c.14.08.29.14.45.18s.32.06.49.06c.28,0,.5-.07.66-.22.16-.15.24-.34.24-.59s-.08-.45-.24-.59c-.16-.15-.38-.22-.66-.22-.13,0-.26.01-.39.04-.13.03-.26.07-.39.13v-1.8Z"/>
                </g>
              </g>
            </g>
            <g id="ytick_5">
              <g id="line2d_14">
                <path id="mba42d8faeb-5" data-name="mba42d8faeb" class="cls-8" d="M28,305.78h-1.72"/>
              </g>
              <g id="text_14">
                <g>
                  <path id="DejaVuSans-30-19" data-name="DejaVuSans-30" d="M18.3,304.38c-.25,0-.44.12-.56.37-.13.25-.19.62-.19,1.11s.06.86.19,1.11c.13.25.31.37.56.37s.44-.12.57-.37c.13-.25.19-.62.19-1.11s-.06-.86-.19-1.11c-.13-.25-.31-.37-.57-.37ZM18.3,304c.4,0,.71.16.92.48.21.32.32.78.32,1.39s-.11,1.07-.32,1.38c-.21.32-.52.48-.92.48s-.71-.16-.92-.48c-.21-.32-.32-.78-.32-1.38s.11-1.07.32-1.39c.21-.32.52-.48.92-.48Z"/>
                  <path id="DejaVuSans-2e-14" data-name="DejaVuSans-2e" d="M20.39,307.04h.51v.61h-.51v-.61Z"/>
                  <path id="DejaVuSans-30-20" data-name="DejaVuSans-30" d="M22.99,304.38c-.25,0-.44.12-.56.37-.13.25-.19.62-.19,1.11s.06.86.19,1.11c.13.25.31.37.56.37s.44-.12.57-.37c.13-.25.19-.62.19-1.11s-.06-.86-.19-1.11c-.13-.25-.31-.37-.57-.37ZM22.99,304c.4,0,.71.16.92.48.21.32.32.78.32,1.39s-.11,1.07-.32,1.38c-.21.32-.52.48-.92.48s-.71-.16-.92-.48c-.21-.32-.32-.78-.32-1.38s.11-1.07.32-1.39c.21-.32.52-.48.92-.48Z"/>
                </g>
              </g>
            </g>
            <g id="ytick_6">
              <g id="line2d_15">
                <path id="mba42d8faeb-6" data-name="mba42d8faeb" class="cls-8" d="M28,281.83h-1.72"/>
              </g>
              <g id="text_15">
                <g>
                  <path id="DejaVuSans-30-21" data-name="DejaVuSans-30" d="M18.3,280.43c-.25,0-.44.12-.56.37-.13.25-.19.62-.19,1.11s.06.86.19,1.11c.13.25.31.37.56.37s.44-.12.57-.37c.13-.25.19-.62.19-1.11s-.06-.86-.19-1.11c-.13-.25-.31-.37-.57-.37ZM18.3,280.04c.4,0,.71.16.92.48.21.32.32.78.32,1.39s-.11,1.07-.32,1.38c-.21.32-.52.48-.92.48s-.71-.16-.92-.48c-.21-.32-.32-.78-.32-1.38s.11-1.07.32-1.39c.21-.32.52-.48.92-.48Z"/>
                  <path id="DejaVuSans-2e-15" data-name="DejaVuSans-2e" d="M20.39,283.09h.51v.61h-.51v-.61Z"/>
                  <path id="DejaVuSans-35-9" data-name="DejaVuSans-35" d="M21.96,280.11h1.91v.41h-1.46v.88c.07-.02.14-.04.21-.05.07-.01.14-.02.21-.02.4,0,.72.11.95.33.23.22.35.52.35.89s-.12.69-.36.9c-.24.21-.58.32-1.02.32-.15,0-.3-.01-.46-.04-.16-.03-.32-.06-.48-.12v-.49c.14.08.29.14.45.18s.32.06.49.06c.28,0,.5-.07.66-.22.16-.15.24-.34.24-.59s-.08-.45-.24-.59c-.16-.15-.38-.22-.66-.22-.13,0-.26.01-.39.04-.13.03-.26.07-.39.13v-1.8Z"/>
                </g>
              </g>
            </g>
            <g id="ytick_7">
              <g id="line2d_16">
                <path id="mba42d8faeb-7" data-name="mba42d8faeb" class="cls-8" d="M28,257.87h-1.72"/>
              </g>
              <g id="text_16">
                <g>
                  <path id="DejaVuSans-31-5" data-name="DejaVuSans-31" d="M17.34,259.33h.79v-2.74l-.86.17v-.44l.86-.17h.49v3.18h.79v.41h-2.07v-.41Z"/>
                  <path id="DejaVuSans-2e-16" data-name="DejaVuSans-2e" d="M20.39,259.13h.51v.61h-.51v-.61Z"/>
                  <path id="DejaVuSans-30-22" data-name="DejaVuSans-30" d="M22.99,256.47c-.25,0-.44.12-.56.37-.13.25-.19.62-.19,1.11s.06.86.19,1.11c.13.25.31.37.56.37s.44-.12.57-.37c.13-.25.19-.62.19-1.11s-.06-.86-.19-1.11c-.13-.25-.31-.37-.57-.37ZM22.99,256.09c.4,0,.71.16.92.48.21.32.32.78.32,1.39s-.11,1.07-.32,1.38c-.21.32-.52.48-.92.48s-.71-.16-.92-.48c-.21-.32-.32-.78-.32-1.38s.11-1.07.32-1.39c.21-.32.52-.48.92-.48Z"/>
                </g>
              </g>
            </g>
            <g id="ytick_8">
              <g id="line2d_17">
                <path id="mba42d8faeb-8" data-name="mba42d8faeb" class="cls-8" d="M28,233.91h-1.72"/>
              </g>
              <g id="text_17">
                <g>
                  <path id="DejaVuSans-31-6" data-name="DejaVuSans-31" d="M17.34,235.38h.79v-2.74l-.86.17v-.44l.86-.17h.49v3.18h.79v.41h-2.07v-.41Z"/>
                  <path id="DejaVuSans-2e-17" data-name="DejaVuSans-2e" d="M20.39,235.17h.51v.61h-.51v-.61Z"/>
                  <path id="DejaVuSans-35-10" data-name="DejaVuSans-35" d="M21.96,232.19h1.91v.41h-1.46v.88c.07-.02.14-.04.21-.05.07-.01.14-.02.21-.02.4,0,.72.11.95.33.23.22.35.52.35.89s-.12.69-.36.9c-.24.21-.58.32-1.02.32-.15,0-.3-.01-.46-.04-.16-.03-.32-.06-.48-.12v-.49c.14.08.29.14.45.18s.32.06.49.06c.28,0,.5-.07.66-.22.16-.15.24-.34.24-.59s-.08-.45-.24-.59c-.16-.15-.38-.22-.66-.22-.13,0-.26.01-.39.04-.13.03-.26.07-.39.13v-1.8Z"/>
                </g>
              </g>
            </g>
            <g id="ytick_9">
              <g id="line2d_18">
                <path id="mba42d8faeb-9" data-name="mba42d8faeb" class="cls-8" d="M28,209.96h-1.72"/>
              </g>
              <g id="text_18">
                <g>
                  <path id="DejaVuSans-32-4" data-name="DejaVuSans-32" d="M17.68,211.42h1.69v.41h-2.28v-.41c.18-.19.44-.45.75-.77.32-.32.52-.53.6-.62.16-.17.26-.32.33-.44.06-.12.09-.24.09-.36,0-.19-.07-.35-.2-.47-.13-.12-.31-.18-.52-.18-.15,0-.31.03-.48.08-.17.05-.35.13-.54.24v-.49c.2-.08.38-.14.55-.18.17-.04.33-.06.47-.06.37,0,.67.09.89.28.22.19.33.43.33.74,0,.15-.03.29-.08.42-.05.13-.16.29-.3.47-.04.05-.17.18-.38.4-.21.22-.52.53-.91.93Z"/>
                  <path id="DejaVuSans-2e-18" data-name="DejaVuSans-2e" d="M20.39,211.22h.51v.61h-.51v-.61Z"/>
                  <path id="DejaVuSans-30-23" data-name="DejaVuSans-30" d="M22.99,208.56c-.25,0-.44.12-.56.37-.13.25-.19.62-.19,1.11s.06.86.19,1.11c.13.25.31.37.56.37s.44-.12.57-.37c.13-.25.19-.62.19-1.11s-.06-.86-.19-1.11c-.13-.25-.31-.37-.57-.37ZM22.99,208.17c.4,0,.71.16.92.48.21.32.32.78.32,1.39s-.11,1.07-.32,1.38c-.21.32-.52.48-.92.48s-.71-.16-.92-.48c-.21-.32-.32-.78-.32-1.38s.11-1.07.32-1.39c.21-.32.52-.48.92-.48Z"/>
                </g>
              </g>
            </g>
          </g>
          <g id="line2d_19">
            <g class="cls-14">
              <path class="cls-7" d="M28,305.78l8.08,19.17,4.55,10.49,3.54,7.91,3.03,6.55,3.03,6.29,2.53,5.03,2.53,4.81,2.53,4.57,2.53,4.31,2.02,3.25,2.02,3.07,2.02,2.88,2.02,2.68,2.02,2.47,2.02,2.26,1.52,1.55,1.52,1.43,1.52,1.3,1.52,1.17,1.52,1.04,1.52.91,1.52.78,1.52.65,1.52.51,1.52.38,1.52.24,1.52.1,1.52-.03,1.52-.17,1.52-.31,1.52-.44,1.52-.58,1.52-.71,1.52-.85,1.52-.98,1.52-1.11,1.52-1.24,1.52-1.37,1.52-1.49,1.52-1.62,2.02-2.34,2.02-2.55,2.02-2.75,2.02-2.95,2.02-3.14,2.02-3.32,2.53-4.39,2.53-4.64,2.53-4.88,2.53-5.09,3.03-6.36,3.03-6.6,3.54-7.96,4.04-9.36,5.56-13.16,11.11-26.37,4.04-9.3,3.54-7.89,3.03-6.53,3.03-6.27,2.53-5.01,2.53-4.78,2.53-4.54,2.53-4.29,2.02-3.23,2.02-3.05,2.02-2.85,2.02-2.65,2.02-2.45,2.02-2.24,1.52-1.53,1.52-1.41,1.52-1.28,1.52-1.15,1.52-1.02,1.52-.89,1.52-.76,1.52-.62,1.52-.49,1.52-.35,1.52-.22,1.52-.08,1.52.06,1.52.19,1.52.33,1.52.47,1.52.6,1.52.74,1.52.87,1.52,1,1.52,1.13,1.52,1.26,1.52,1.39,1.52,1.51,1.52,1.64,2.02,2.37,2.02,2.58,2.02,2.78,2.02,2.97,2.02,3.16,2.02,3.34,2.53,4.42,2.53,4.67,2.53,4.9,3.03,6.16,3.03,6.42,3.54,7.79,4.04,9.21,4.55,10.65,5.56,13.23h0"/>
            </g>
          </g>
          <g id="line2d_20">
            <g class="cls-10">
              <path class="cls-4" d="M28,305.78h252.07"/>
            </g>
          </g>
          <g id="patch_3">
            <path class="cls-6" d="M28,401.61v-191.65"/>
          </g>
          <g id="patch_4">
            <path class="cls-6" d="M280.08,401.61v-191.65"/>
          </g>
          <g id="patch_5">
            <path class="cls-6" d="M28,401.61h252.07"/>
          </g>
          <g id="patch_6">
            <path class="cls-6" d="M28,209.96h252.07"/>
          </g>
        </g>
      </g>
      <g id="figure_1-2" data-name="figure_1">
        <g id="patch_1-2" data-name="patch_1">
          <path class="cls-9" d="M308.49,415.33h283.52v-212.64h-283.52v212.64Z"/>
        </g>
        <g id="axes_1-2" data-name="axes_1">
          <g id="patch_2-2" data-name="patch_2">
            <path class="cls-9" d="M329.17,401.61h252.07v-191.65h-252.07v191.65Z"/>
          </g>
          <g id="matplotlib.axis_1-2" data-name="matplotlib.axis_1">
            <g id="xtick_1-2" data-name="xtick_1">
              <g id="line2d_1-2" data-name="line2d_1">
                <path id="mae7dea919d-10" data-name="mae7dea919d" class="cls-8" d="M329.17,401.61v1.72"/>
              </g>
              <g id="text_1-2" data-name="text_1">
                <g>
                  <path id="DejaVuSans-2212-9" data-name="DejaVuSans-2212" d="M322.15,407.05h3.08v.41h-3.08v-.41Z"/>
                  <path id="DejaVuSans-31-7" data-name="DejaVuSans-31" d="M326.36,408.38h.79v-2.74l-.86.17v-.44l.86-.17h.49v3.18h.79v.41h-2.07v-.41Z"/>
                  <path id="DejaVuSans-2e-19" data-name="DejaVuSans-2e" d="M329.41,408.18h.51v.61h-.51v-.61Z"/>
                  <path id="DejaVuSans-30-24" data-name="DejaVuSans-30" d="M332.01,405.52c-.25,0-.44.12-.56.37-.13.25-.19.62-.19,1.11s.06.86.19,1.11c.13.25.31.37.56.37s.44-.12.57-.37c.13-.25.19-.62.19-1.11s-.06-.86-.19-1.11c-.13-.25-.31-.37-.57-.37ZM332.01,405.14c.4,0,.71.16.92.48.21.32.32.78.32,1.39s-.11,1.07-.32,1.38c-.21.32-.52.48-.92.48s-.71-.16-.92-.48c-.21-.32-.32-.78-.32-1.38s.11-1.07.32-1.39c.21-.32.52-.48.92-.48Z"/>
                  <path id="DejaVuSans-30-25" data-name="DejaVuSans-30" d="M335.14,405.52c-.25,0-.44.12-.56.37-.13.25-.19.62-.19,1.11s.06.86.19,1.11c.13.25.31.37.56.37s.44-.12.57-.37c.13-.25.19-.62.19-1.11s-.06-.86-.19-1.11c-.13-.25-.31-.37-.57-.37ZM335.14,405.14c.4,0,.71.16.92.48.21.32.32.78.32,1.39s-.11,1.07-.32,1.38c-.21.32-.52.48-.92.48s-.71-.16-.92-.48c-.21-.32-.32-.78-.32-1.38s.11-1.07.32-1.39c.21-.32.52-.48.92-.48Z"/>
                </g>
              </g>
            </g>
            <g id="xtick_2-2" data-name="xtick_2">
              <g id="line2d_2-2" data-name="line2d_2">
                <path id="mae7dea919d-11" data-name="mae7dea919d" class="cls-8" d="M360.68,401.61v1.72"/>
              </g>
              <g id="text_2-2" data-name="text_2">
                <g>
                  <path id="DejaVuSans-2212-10" data-name="DejaVuSans-2212" d="M353.66,407.05h3.08v.41h-3.08v-.41Z"/>
                  <path id="DejaVuSans-30-26" data-name="DejaVuSans-30" d="M358.82,405.52c-.25,0-.44.12-.56.37-.13.25-.19.62-.19,1.11s.06.86.19,1.11c.13.25.31.37.56.37s.44-.12.57-.37c.13-.25.19-.62.19-1.11s-.06-.86-.19-1.11c-.13-.25-.31-.37-.57-.37ZM358.82,405.14c.4,0,.71.16.92.48.21.32.32.78.32,1.39s-.11,1.07-.32,1.38c-.21.32-.52.48-.92.48s-.71-.16-.92-.48c-.21-.32-.32-.78-.32-1.38s.11-1.07.32-1.39c.21-.32.52-.48.92-.48Z"/>
                  <path id="DejaVuSans-2e-20" data-name="DejaVuSans-2e" d="M360.92,408.18h.51v.61h-.51v-.61Z"/>
                  <path id="DejaVuSans-37-3" data-name="DejaVuSans-37" d="M362.36,405.2h2.31v.21l-1.3,3.38h-.51l1.23-3.18h-1.72v-.41Z"/>
                  <path id="DejaVuSans-35-11" data-name="DejaVuSans-35" d="M365.62,405.2h1.91v.41h-1.46v.88c.07-.02.14-.04.21-.05.07-.01.14-.02.21-.02.4,0,.72.11.95.33.23.22.35.52.35.89s-.12.69-.36.9c-.24.21-.58.32-1.02.32-.15,0-.3-.01-.46-.04-.16-.03-.32-.06-.48-.12v-.49c.14.08.29.14.45.18s.32.06.49.06c.28,0,.5-.07.66-.22.16-.15.24-.34.24-.59s-.08-.45-.24-.59c-.16-.15-.38-.22-.66-.22-.13,0-.26.01-.39.04-.13.03-.26.07-.39.13v-1.8Z"/>
                </g>
              </g>
            </g>
            <g id="xtick_3-2" data-name="xtick_3">
              <g id="line2d_3-2" data-name="line2d_3">
                <path id="mae7dea919d-12" data-name="mae7dea919d" class="cls-8" d="M392.19,401.61v1.72"/>
              </g>
              <g id="text_3-2" data-name="text_3">
                <g>
                  <path id="DejaVuSans-2212-11" data-name="DejaVuSans-2212" d="M385.17,407.05h3.08v.41h-3.08v-.41Z"/>
                  <path id="DejaVuSans-30-27" data-name="DejaVuSans-30" d="M390.33,405.52c-.25,0-.44.12-.56.37-.13.25-.19.62-.19,1.11s.06.86.19,1.11c.13.25.31.37.56.37s.44-.12.57-.37c.13-.25.19-.62.19-1.11s-.06-.86-.19-1.11c-.13-.25-.31-.37-.57-.37ZM390.33,405.14c.4,0,.71.16.92.48.21.32.32.78.32,1.39s-.11,1.07-.32,1.38c-.21.32-.52.48-.92.48s-.71-.16-.92-.48c-.21-.32-.32-.78-.32-1.38s.11-1.07.32-1.39c.21-.32.52-.48.92-.48Z"/>
                  <path id="DejaVuSans-2e-21" data-name="DejaVuSans-2e" d="M392.43,408.18h.51v.61h-.51v-.61Z"/>
                  <path id="DejaVuSans-35-12" data-name="DejaVuSans-35" d="M394,405.2h1.91v.41h-1.46v.88c.07-.02.14-.04.21-.05.07-.01.14-.02.21-.02.4,0,.72.11.95.33.23.22.35.52.35.89s-.12.69-.36.9c-.24.21-.58.32-1.02.32-.15,0-.3-.01-.46-.04-.16-.03-.32-.06-.48-.12v-.49c.14.08.29.14.45.18s.32.06.49.06c.28,0,.5-.07.66-.22.16-.15.24-.34.24-.59s-.08-.45-.24-.59c-.16-.15-.38-.22-.66-.22-.13,0-.26.01-.39.04-.13.03-.26.07-.39.13v-1.8Z"/>
                  <path id="DejaVuSans-30-28" data-name="DejaVuSans-30" d="M398.16,405.52c-.25,0-.44.12-.56.37-.13.25-.19.62-.19,1.11s.06.86.19,1.11c.13.25.31.37.56.37s.44-.12.57-.37c.13-.25.19-.62.19-1.11s-.06-.86-.19-1.11c-.13-.25-.31-.37-.57-.37ZM398.16,405.14c.4,0,.71.16.92.48.21.32.32.78.32,1.39s-.11,1.07-.32,1.38c-.21.32-.52.48-.92.48s-.71-.16-.92-.48c-.21-.32-.32-.78-.32-1.38s.11-1.07.32-1.39c.21-.32.52-.48.92-.48Z"/>
                </g>
              </g>
            </g>
            <g id="xtick_4-2" data-name="xtick_4">
              <g id="line2d_4-2" data-name="line2d_4">
                <path id="mae7dea919d-13" data-name="mae7dea919d" class="cls-8" d="M423.7,401.61v1.72"/>
              </g>
              <g id="text_4-2" data-name="text_4">
                <g>
                  <path id="DejaVuSans-2212-12" data-name="DejaVuSans-2212" d="M416.67,407.05h3.08v.41h-3.08v-.41Z"/>
                  <path id="DejaVuSans-30-29" data-name="DejaVuSans-30" d="M421.84,405.52c-.25,0-.44.12-.56.37-.13.25-.19.62-.19,1.11s.06.86.19,1.11c.13.25.31.37.56.37s.44-.12.57-.37c.13-.25.19-.62.19-1.11s-.06-.86-.19-1.11c-.13-.25-.31-.37-.57-.37ZM421.84,405.14c.4,0,.71.16.92.48.21.32.32.78.32,1.39s-.11,1.07-.32,1.38c-.21.32-.52.48-.92.48s-.71-.16-.92-.48c-.21-.32-.32-.78-.32-1.38s.11-1.07.32-1.39c.21-.32.52-.48.92-.48Z"/>
                  <path id="DejaVuSans-2e-22" data-name="DejaVuSans-2e" d="M423.94,408.18h.51v.61h-.51v-.61Z"/>
                  <path id="DejaVuSans-32-5" data-name="DejaVuSans-32" d="M425.92,408.38h1.69v.41h-2.28v-.41c.18-.19.44-.45.75-.77.32-.32.52-.53.6-.62.16-.17.26-.32.33-.44.06-.12.09-.24.09-.36,0-.19-.07-.35-.2-.47-.13-.12-.31-.18-.52-.18-.15,0-.31.03-.48.08-.17.05-.35.13-.54.24v-.49c.2-.08.38-.14.55-.18.17-.04.33-.06.47-.06.37,0,.67.09.89.28.22.19.33.43.33.74,0,.15-.03.29-.08.42-.05.13-.16.29-.3.47-.04.05-.17.18-.38.4-.21.22-.52.53-.91.93Z"/>
                  <path id="DejaVuSans-35-13" data-name="DejaVuSans-35" d="M428.64,405.2h1.91v.41h-1.46v.88c.07-.02.14-.04.21-.05.07-.01.14-.02.21-.02.4,0,.72.11.95.33.23.22.35.52.35.89s-.12.69-.36.9c-.24.21-.58.32-1.02.32-.15,0-.3-.01-.46-.04-.16-.03-.32-.06-.48-.12v-.49c.14.08.29.14.45.18s.32.06.49.06c.28,0,.5-.07.66-.22.16-.15.24-.34.24-.59s-.08-.45-.24-.59c-.16-.15-.38-.22-.66-.22-.13,0-.26.01-.39.04-.13.03-.26.07-.39.13v-1.8Z"/>
                </g>
              </g>
            </g>
            <g id="xtick_5-2" data-name="xtick_5">
              <g id="line2d_5-2" data-name="line2d_5">
                <path id="mae7dea919d-14" data-name="mae7dea919d" class="cls-8" d="M455.2,401.61v1.72"/>
              </g>
              <g id="text_5-2" data-name="text_5">
                <g>
                  <path id="DejaVuSans-30-30" data-name="DejaVuSans-30" d="M451.29,405.52c-.25,0-.44.12-.56.37-.13.25-.19.62-.19,1.11s.06.86.19,1.11c.13.25.31.37.56.37s.44-.12.57-.37c.13-.25.19-.62.19-1.11s-.06-.86-.19-1.11c-.13-.25-.31-.37-.57-.37ZM451.29,405.14c.4,0,.71.16.92.48.21.32.32.78.32,1.39s-.11,1.07-.32,1.38c-.21.32-.52.48-.92.48s-.71-.16-.92-.48c-.21-.32-.32-.78-.32-1.38s.11-1.07.32-1.39c.21-.32.52-.48.92-.48Z"/>
                  <path id="DejaVuSans-2e-23" data-name="DejaVuSans-2e" d="M453.38,408.18h.51v.61h-.51v-.61Z"/>
                  <path id="DejaVuSans-30-31" data-name="DejaVuSans-30" d="M455.99,405.52c-.25,0-.44.12-.56.37-.13.25-.19.62-.19,1.11s.06.86.19,1.11c.13.25.31.37.56.37s.44-.12.57-.37c.13-.25.19-.62.19-1.11s-.06-.86-.19-1.11c-.13-.25-.31-.37-.57-.37ZM455.99,405.14c.4,0,.71.16.92.48.21.32.32.78.32,1.39s-.11,1.07-.32,1.38c-.21.32-.52.48-.92.48s-.71-.16-.92-.48c-.21-.32-.32-.78-.32-1.38s.11-1.07.32-1.39c.21-.32.52-.48.92-.48Z"/>
                  <path id="DejaVuSans-30-32" data-name="DejaVuSans-30" d="M459.12,405.52c-.25,0-.44.12-.56.37-.13.25-.19.62-.19,1.11s.06.86.19,1.11c.13.25.31.37.56.37s.44-.12.57-.37c.13-.25.19-.62.19-1.11s-.06-.86-.19-1.11c-.13-.25-.31-.37-.57-.37ZM459.12,405.14c.4,0,.71.16.92.48.21.32.32.78.32,1.39s-.11,1.07-.32,1.38c-.21.32-.52.48-.92.48s-.71-.16-.92-.48c-.21-.32-.32-.78-.32-1.38s.11-1.07.32-1.39c.21-.32.52-.48.92-.48Z"/>
                </g>
              </g>
            </g>
            <g id="xtick_6-2" data-name="xtick_6">
              <g id="line2d_6-2" data-name="line2d_6">
                <path id="mae7dea919d-15" data-name="mae7dea919d" class="cls-8" d="M486.71,401.61v1.72"/>
              </g>
              <g id="text_6-2" data-name="text_6">
                <g>
                  <path id="DejaVuSans-30-33" data-name="DejaVuSans-30" d="M482.8,405.52c-.25,0-.44.12-.56.37-.13.25-.19.62-.19,1.11s.06.86.19,1.11c.13.25.31.37.56.37s.44-.12.57-.37c.13-.25.19-.62.19-1.11s-.06-.86-.19-1.11c-.13-.25-.31-.37-.57-.37ZM482.8,405.14c.4,0,.71.16.92.48.21.32.32.78.32,1.39s-.11,1.07-.32,1.38c-.21.32-.52.48-.92.48s-.71-.16-.92-.48c-.21-.32-.32-.78-.32-1.38s.11-1.07.32-1.39c.21-.32.52-.48.92-.48Z"/>
                  <path id="DejaVuSans-2e-24" data-name="DejaVuSans-2e" d="M484.89,408.18h.51v.61h-.51v-.61Z"/>
                  <path id="DejaVuSans-32-6" data-name="DejaVuSans-32" d="M486.87,408.38h1.69v.41h-2.28v-.41c.18-.19.44-.45.75-.77.32-.32.52-.53.6-.62.16-.17.26-.32.33-.44.06-.12.09-.24.09-.36,0-.19-.07-.35-.2-.47-.13-.12-.31-.18-.52-.18-.15,0-.31.03-.48.08-.17.05-.35.13-.54.24v-.49c.2-.08.38-.14.55-.18.17-.04.33-.06.47-.06.37,0,.67.09.89.28.22.19.33.43.33.74,0,.15-.03.29-.08.42-.05.13-.16.29-.3.47-.04.05-.17.18-.38.4-.21.22-.52.53-.91.93Z"/>
                  <path id="DejaVuSans-35-14" data-name="DejaVuSans-35" d="M489.59,405.2h1.91v.41h-1.46v.88c.07-.02.14-.04.21-.05.07-.01.14-.02.21-.02.4,0,.72.11.95.33.23.22.35.52.35.89s-.12.69-.36.9c-.24.21-.58.32-1.02.32-.15,0-.3-.01-.46-.04-.16-.03-.32-.06-.48-.12v-.49c.14.08.29.14.45.18s.32.06.49.06c.28,0,.5-.07.66-.22.16-.15.24-.34.24-.59s-.08-.45-.24-.59c-.16-.15-.38-.22-.66-.22-.13,0-.26.01-.39.04-.13.03-.26.07-.39.13v-1.8Z"/>
                </g>
              </g>
            </g>
            <g id="xtick_7-2" data-name="xtick_7">
              <g id="line2d_7-2" data-name="line2d_7">
                <path id="mae7dea919d-16" data-name="mae7dea919d" class="cls-8" d="M518.22,401.61v1.72"/>
              </g>
              <g id="text_7-2" data-name="text_7">
                <g>
                  <path id="DejaVuSans-30-34" data-name="DejaVuSans-30" d="M514.31,405.52c-.25,0-.44.12-.56.37-.13.25-.19.62-.19,1.11s.06.86.19,1.11c.13.25.31.37.56.37s.44-.12.57-.37c.13-.25.19-.62.19-1.11s-.06-.86-.19-1.11c-.13-.25-.31-.37-.57-.37ZM514.31,405.14c.4,0,.71.16.92.48.21.32.32.78.32,1.39s-.11,1.07-.32,1.38c-.21.32-.52.48-.92.48s-.71-.16-.92-.48c-.21-.32-.32-.78-.32-1.38s.11-1.07.32-1.39c.21-.32.52-.48.92-.48Z"/>
                  <path id="DejaVuSans-2e-25" data-name="DejaVuSans-2e" d="M516.4,408.18h.51v.61h-.51v-.61Z"/>
                  <path id="DejaVuSans-35-15" data-name="DejaVuSans-35" d="M517.97,405.2h1.91v.41h-1.46v.88c.07-.02.14-.04.21-.05.07-.01.14-.02.21-.02.4,0,.72.11.95.33.23.22.35.52.35.89s-.12.69-.36.9c-.24.21-.58.32-1.02.32-.15,0-.3-.01-.46-.04-.16-.03-.32-.06-.48-.12v-.49c.14.08.29.14.45.18s.32.06.49.06c.28,0,.5-.07.66-.22.16-.15.24-.34.24-.59s-.08-.45-.24-.59c-.16-.15-.38-.22-.66-.22-.13,0-.26.01-.39.04-.13.03-.26.07-.39.13v-1.8Z"/>
                  <path id="DejaVuSans-30-35" data-name="DejaVuSans-30" d="M522.14,405.52c-.25,0-.44.12-.56.37-.13.25-.19.62-.19,1.11s.06.86.19,1.11c.13.25.31.37.56.37s.44-.12.57-.37c.13-.25.19-.62.19-1.11s-.06-.86-.19-1.11c-.13-.25-.31-.37-.57-.37ZM522.14,405.14c.4,0,.71.16.92.48.21.32.32.78.32,1.39s-.11,1.07-.32,1.38c-.21.32-.52.48-.92.48s-.71-.16-.92-.48c-.21-.32-.32-.78-.32-1.38s.11-1.07.32-1.39c.21-.32.52-.48.92-.48Z"/>
                </g>
              </g>
            </g>
            <g id="xtick_8-2" data-name="xtick_8">
              <g id="line2d_8-2" data-name="line2d_8">
                <path id="mae7dea919d-17" data-name="mae7dea919d" class="cls-8" d="M549.73,401.61v1.72"/>
              </g>
              <g id="text_8-2" data-name="text_8">
                <g>
                  <path id="DejaVuSans-30-36" data-name="DejaVuSans-30" d="M545.82,405.52c-.25,0-.44.12-.56.37-.13.25-.19.62-.19,1.11s.06.86.19,1.11c.13.25.31.37.56.37s.44-.12.57-.37c.13-.25.19-.62.19-1.11s-.06-.86-.19-1.11c-.13-.25-.31-.37-.57-.37ZM545.82,405.14c.4,0,.71.16.92.48.21.32.32.78.32,1.39s-.11,1.07-.32,1.38c-.21.32-.52.48-.92.48s-.71-.16-.92-.48c-.21-.32-.32-.78-.32-1.38s.11-1.07.32-1.39c.21-.32.52-.48.92-.48Z"/>
                  <path id="DejaVuSans-2e-26" data-name="DejaVuSans-2e" d="M547.91,408.18h.51v.61h-.51v-.61Z"/>
                  <path id="DejaVuSans-37-4" data-name="DejaVuSans-37" d="M549.35,405.2h2.31v.21l-1.3,3.38h-.51l1.23-3.18h-1.72v-.41Z"/>
                  <path id="DejaVuSans-35-16" data-name="DejaVuSans-35" d="M552.61,405.2h1.91v.41h-1.46v.88c.07-.02.14-.04.21-.05.07-.01.14-.02.21-.02.4,0,.72.11.95.33.23.22.35.52.35.89s-.12.69-.36.9c-.24.21-.58.32-1.02.32-.15,0-.3-.01-.46-.04-.16-.03-.32-.06-.48-.12v-.49c.14.08.29.14.45.18s.32.06.49.06c.28,0,.5-.07.66-.22.16-.15.24-.34.24-.59s-.08-.45-.24-.59c-.16-.15-.38-.22-.66-.22-.13,0-.26.01-.39.04-.13.03-.26.07-.39.13v-1.8Z"/>
                </g>
              </g>
            </g>
            <g id="xtick_9-2" data-name="xtick_9">
              <g id="line2d_9-2" data-name="line2d_9">
                <path id="mae7dea919d-18" data-name="mae7dea919d" class="cls-8" d="M581.24,401.61v1.72"/>
              </g>
              <g id="text_9-2" data-name="text_9">
                <g>
                  <path id="DejaVuSans-31-8" data-name="DejaVuSans-31" d="M576.37,408.38h.79v-2.74l-.86.17v-.44l.86-.17h.49v3.18h.79v.41h-2.07v-.41Z"/>
                  <path id="DejaVuSans-2e-27" data-name="DejaVuSans-2e" d="M579.42,408.18h.51v.61h-.51v-.61Z"/>
                  <path id="DejaVuSans-30-37" data-name="DejaVuSans-30" d="M582.02,405.52c-.25,0-.44.12-.56.37-.13.25-.19.62-.19,1.11s.06.86.19,1.11c.13.25.31.37.56.37s.44-.12.57-.37c.13-.25.19-.62.19-1.11s-.06-.86-.19-1.11c-.13-.25-.31-.37-.57-.37ZM582.02,405.14c.4,0,.71.16.92.48.21.32.32.78.32,1.39s-.11,1.07-.32,1.38c-.21.32-.52.48-.92.48s-.71-.16-.92-.48c-.21-.32-.32-.78-.32-1.38s.11-1.07.32-1.39c.21-.32.52-.48.92-.48Z"/>
                  <path id="DejaVuSans-30-38" data-name="DejaVuSans-30" d="M585.15,405.52c-.25,0-.44.12-.56.37-.13.25-.19.62-.19,1.11s.06.86.19,1.11c.13.25.31.37.56.37s.44-.12.57-.37c.13-.25.19-.62.19-1.11s-.06-.86-.19-1.11c-.13-.25-.31-.37-.57-.37ZM585.15,405.14c.4,0,.71.16.92.48.21.32.32.78.32,1.39s-.11,1.07-.32,1.38c-.21.32-.52.48-.92.48s-.71-.16-.92-.48c-.21-.32-.32-.78-.32-1.38s.11-1.07.32-1.39c.21-.32.52-.48.92-.48Z"/>
                </g>
              </g>
            </g>
          </g>
          <g id="matplotlib.axis_2-2" data-name="matplotlib.axis_2">
            <g id="ytick_1-2" data-name="ytick_1">
              <g id="line2d_10-2" data-name="line2d_10">
                <path id="mba42d8faeb-10" data-name="mba42d8faeb" class="cls-8" d="M329.17,401.61h-1.72"/>
              </g>
              <g id="text_10-2" data-name="text_10">
                <g>
                  <path id="DejaVuSans-2212-13" data-name="DejaVuSans-2212" d="M314.29,401.73h3.08v.41h-3.08v-.41Z"/>
                  <path id="DejaVuSans-32-7" data-name="DejaVuSans-32" d="M318.84,403.07h1.69v.41h-2.28v-.41c.18-.19.44-.45.75-.77.32-.32.52-.53.6-.62.16-.17.26-.32.33-.44.06-.12.09-.24.09-.36,0-.19-.07-.35-.2-.47-.13-.12-.31-.18-.52-.18-.15,0-.31.03-.48.08-.17.05-.35.13-.54.24v-.49c.2-.08.38-.14.55-.18.17-.04.33-.06.47-.06.37,0,.67.09.89.28.22.19.33.43.33.74,0,.15-.03.29-.08.42-.05.13-.16.29-.3.47-.04.05-.17.18-.38.4-.21.22-.52.53-.91.93Z"/>
                  <path id="DejaVuSans-2e-28" data-name="DejaVuSans-2e" d="M321.55,402.87h.51v.61h-.51v-.61Z"/>
                  <path id="DejaVuSans-30-39" data-name="DejaVuSans-30" d="M324.15,400.21c-.25,0-.44.12-.56.37-.13.25-.19.62-.19,1.11s.06.86.19,1.11c.13.25.31.37.56.37s.44-.12.57-.37c.13-.25.19-.62.19-1.11s-.06-.86-.19-1.11c-.13-.25-.31-.37-.57-.37ZM324.15,399.82c.4,0,.71.16.92.48.21.32.32.78.32,1.39s-.11,1.07-.32,1.38c-.21.32-.52.48-.92.48s-.71-.16-.92-.48c-.21-.32-.32-.78-.32-1.38s.11-1.07.32-1.39c.21-.32.52-.48.92-.48Z"/>
                </g>
              </g>
            </g>
            <g id="ytick_2-2" data-name="ytick_2">
              <g id="line2d_11-2" data-name="line2d_11">
                <path id="mba42d8faeb-11" data-name="mba42d8faeb" class="cls-8" d="M329.17,377.65h-1.72"/>
              </g>
              <g id="text_11-2" data-name="text_11">
                <g>
                  <path id="DejaVuSans-2212-14" data-name="DejaVuSans-2212" d="M314.29,377.77h3.08v.41h-3.08v-.41Z"/>
                  <path id="DejaVuSans-31-9" data-name="DejaVuSans-31" d="M318.5,379.11h.79v-2.74l-.86.17v-.44l.86-.17h.49v3.18h.79v.41h-2.07v-.41Z"/>
                  <path id="DejaVuSans-2e-29" data-name="DejaVuSans-2e" d="M321.55,378.91h.51v.61h-.51v-.61Z"/>
                  <path id="DejaVuSans-35-17" data-name="DejaVuSans-35" d="M323.12,375.93h1.91v.41h-1.46v.88c.07-.02.14-.04.21-.05.07-.01.14-.02.21-.02.4,0,.72.11.95.33.23.22.35.52.35.89s-.12.69-.36.9c-.24.21-.58.32-1.02.32-.15,0-.3-.01-.46-.04-.16-.03-.32-.06-.48-.12v-.49c.14.08.29.14.45.18s.32.06.49.06c.28,0,.5-.07.66-.22.16-.15.24-.34.24-.59s-.08-.45-.24-.59c-.16-.15-.38-.22-.66-.22-.13,0-.26.01-.39.04-.13.03-.26.07-.39.13v-1.8Z"/>
                </g>
              </g>
            </g>
            <g id="ytick_3-2" data-name="ytick_3">
              <g id="line2d_12-2" data-name="line2d_12">
                <path id="mba42d8faeb-12" data-name="mba42d8faeb" class="cls-8" d="M329.17,353.69h-1.72"/>
              </g>
              <g id="text_12-2" data-name="text_12">
                <g>
                  <path id="DejaVuSans-2212-15" data-name="DejaVuSans-2212" d="M314.29,353.82h3.08v.41h-3.08v-.41Z"/>
                  <path id="DejaVuSans-31-10" data-name="DejaVuSans-31" d="M318.5,355.16h.79v-2.74l-.86.17v-.44l.86-.17h.49v3.18h.79v.41h-2.07v-.41Z"/>
                  <path id="DejaVuSans-2e-30" data-name="DejaVuSans-2e" d="M321.55,354.95h.51v.61h-.51v-.61Z"/>
                  <path id="DejaVuSans-30-40" data-name="DejaVuSans-30" d="M324.15,352.3c-.25,0-.44.12-.56.37-.13.25-.19.62-.19,1.11s.06.86.19,1.11c.13.25.31.37.56.37s.44-.12.57-.37c.13-.25.19-.62.19-1.11s-.06-.86-.19-1.11c-.13-.25-.31-.37-.57-.37ZM324.15,351.91c.4,0,.71.16.92.48.21.32.32.78.32,1.39s-.11,1.07-.32,1.38c-.21.32-.52.48-.92.48s-.71-.16-.92-.48c-.21-.32-.32-.78-.32-1.38s.11-1.07.32-1.39c.21-.32.52-.48.92-.48Z"/>
                </g>
              </g>
            </g>
            <g id="ytick_4-2" data-name="ytick_4">
              <g id="line2d_13-2" data-name="line2d_13">
                <path id="mba42d8faeb-13" data-name="mba42d8faeb" class="cls-8" d="M329.17,329.74h-1.72"/>
              </g>
              <g id="text_13-2" data-name="text_13">
                <g>
                  <path id="DejaVuSans-2212-16" data-name="DejaVuSans-2212" d="M314.29,329.86h3.08v.41h-3.08v-.41Z"/>
                  <path id="DejaVuSans-30-41" data-name="DejaVuSans-30" d="M319.46,328.34c-.25,0-.44.12-.56.37-.13.25-.19.62-.19,1.11s.06.86.19,1.11c.13.25.31.37.56.37s.44-.12.57-.37c.13-.25.19-.62.19-1.11s-.06-.86-.19-1.11c-.13-.25-.31-.37-.57-.37ZM319.46,327.96c.4,0,.71.16.92.48.21.32.32.78.32,1.39s-.11,1.07-.32,1.38c-.21.32-.52.48-.92.48s-.71-.16-.92-.48c-.21-.32-.32-.78-.32-1.38s.11-1.07.32-1.39c.21-.32.52-.48.92-.48Z"/>
                  <path id="DejaVuSans-2e-31" data-name="DejaVuSans-2e" d="M321.55,331h.51v.61h-.51v-.61Z"/>
                  <path id="DejaVuSans-35-18" data-name="DejaVuSans-35" d="M323.12,328.02h1.91v.41h-1.46v.88c.07-.02.14-.04.21-.05.07-.01.14-.02.21-.02.4,0,.72.11.95.33.23.22.35.52.35.89s-.12.69-.36.9c-.24.21-.58.32-1.02.32-.15,0-.3-.01-.46-.04-.16-.03-.32-.06-.48-.12v-.49c.14.08.29.14.45.18s.32.06.49.06c.28,0,.5-.07.66-.22.16-.15.24-.34.24-.59s-.08-.45-.24-.59c-.16-.15-.38-.22-.66-.22-.13,0-.26.01-.39.04-.13.03-.26.07-.39.13v-1.8Z"/>
                </g>
              </g>
            </g>
            <g id="ytick_5-2" data-name="ytick_5">
              <g id="line2d_14-2" data-name="line2d_14">
                <path id="mba42d8faeb-14" data-name="mba42d8faeb" class="cls-8" d="M329.17,305.78h-1.72"/>
              </g>
              <g id="text_14-2" data-name="text_14">
                <g>
                  <path id="DejaVuSans-30-42" data-name="DejaVuSans-30" d="M319.46,304.38c-.25,0-.44.12-.56.37-.13.25-.19.62-.19,1.11s.06.86.19,1.11c.13.25.31.37.56.37s.44-.12.57-.37c.13-.25.19-.62.19-1.11s-.06-.86-.19-1.11c-.13-.25-.31-.37-.57-.37ZM319.46,304c.4,0,.71.16.92.48.21.32.32.78.32,1.39s-.11,1.07-.32,1.38c-.21.32-.52.48-.92.48s-.71-.16-.92-.48c-.21-.32-.32-.78-.32-1.38s.11-1.07.32-1.39c.21-.32.52-.48.92-.48Z"/>
                  <path id="DejaVuSans-2e-32" data-name="DejaVuSans-2e" d="M321.55,307.04h.51v.61h-.51v-.61Z"/>
                  <path id="DejaVuSans-30-43" data-name="DejaVuSans-30" d="M324.15,304.38c-.25,0-.44.12-.56.37-.13.25-.19.62-.19,1.11s.06.86.19,1.11c.13.25.31.37.56.37s.44-.12.57-.37c.13-.25.19-.62.19-1.11s-.06-.86-.19-1.11c-.13-.25-.31-.37-.57-.37ZM324.15,304c.4,0,.71.16.92.48.21.32.32.78.32,1.39s-.11,1.07-.32,1.38c-.21.32-.52.48-.92.48s-.71-.16-.92-.48c-.21-.32-.32-.78-.32-1.38s.11-1.07.32-1.39c.21-.32.52-.48.92-.48Z"/>
                </g>
              </g>
            </g>
            <g id="ytick_6-2" data-name="ytick_6">
              <g id="line2d_15-2" data-name="line2d_15">
                <path id="mba42d8faeb-15" data-name="mba42d8faeb" class="cls-8" d="M329.17,281.83h-1.72"/>
              </g>
              <g id="text_15-2" data-name="text_15">
                <g>
                  <path id="DejaVuSans-30-44" data-name="DejaVuSans-30" d="M319.46,280.43c-.25,0-.44.12-.56.37-.13.25-.19.62-.19,1.11s.06.86.19,1.11c.13.25.31.37.56.37s.44-.12.57-.37c.13-.25.19-.62.19-1.11s-.06-.86-.19-1.11c-.13-.25-.31-.37-.57-.37ZM319.46,280.04c.4,0,.71.16.92.48.21.32.32.78.32,1.39s-.11,1.07-.32,1.38c-.21.32-.52.48-.92.48s-.71-.16-.92-.48c-.21-.32-.32-.78-.32-1.38s.11-1.07.32-1.39c.21-.32.52-.48.92-.48Z"/>
                  <path id="DejaVuSans-2e-33" data-name="DejaVuSans-2e" d="M321.55,283.09h.51v.61h-.51v-.61Z"/>
                  <path id="DejaVuSans-35-19" data-name="DejaVuSans-35" d="M323.12,280.11h1.91v.41h-1.46v.88c.07-.02.14-.04.21-.05.07-.01.14-.02.21-.02.4,0,.72.11.95.33.23.22.35.52.35.89s-.12.69-.36.9c-.24.21-.58.32-1.02.32-.15,0-.3-.01-.46-.04-.16-.03-.32-.06-.48-.12v-.49c.14.08.29.14.45.18s.32.06.49.06c.28,0,.5-.07.66-.22.16-.15.24-.34.24-.59s-.08-.45-.24-.59c-.16-.15-.38-.22-.66-.22-.13,0-.26.01-.39.04-.13.03-.26.07-.39.13v-1.8Z"/>
                </g>
              </g>
            </g>
            <g id="ytick_7-2" data-name="ytick_7">
              <g id="line2d_16-2" data-name="line2d_16">
                <path id="mba42d8faeb-16" data-name="mba42d8faeb" class="cls-8" d="M329.17,257.87h-1.72"/>
              </g>
              <g id="text_16-2" data-name="text_16">
                <g>
                  <path id="DejaVuSans-31-11" data-name="DejaVuSans-31" d="M318.5,259.33h.79v-2.74l-.86.17v-.44l.86-.17h.49v3.18h.79v.41h-2.07v-.41Z"/>
                  <path id="DejaVuSans-2e-34" data-name="DejaVuSans-2e" d="M321.55,259.13h.51v.61h-.51v-.61Z"/>
                  <path id="DejaVuSans-30-45" data-name="DejaVuSans-30" d="M324.15,256.47c-.25,0-.44.12-.56.37-.13.25-.19.62-.19,1.11s.06.86.19,1.11c.13.25.31.37.56.37s.44-.12.57-.37c.13-.25.19-.62.19-1.11s-.06-.86-.19-1.11c-.13-.25-.31-.37-.57-.37ZM324.15,256.09c.4,0,.71.16.92.48.21.32.32.78.32,1.39s-.11,1.07-.32,1.38c-.21.32-.52.48-.92.48s-.71-.16-.92-.48c-.21-.32-.32-.78-.32-1.38s.11-1.07.32-1.39c.21-.32.52-.48.92-.48Z"/>
                </g>
              </g>
            </g>
            <g id="ytick_8-2" data-name="ytick_8">
              <g id="line2d_17-2" data-name="line2d_17">
                <path id="mba42d8faeb-17" data-name="mba42d8faeb" class="cls-8" d="M329.17,233.91h-1.72"/>
              </g>
              <g id="text_17-2" data-name="text_17">
                <g>
                  <path id="DejaVuSans-31-12" data-name="DejaVuSans-31" d="M318.5,235.38h.79v-2.74l-.86.17v-.44l.86-.17h.49v3.18h.79v.41h-2.07v-.41Z"/>
                  <path id="DejaVuSans-2e-35" data-name="DejaVuSans-2e" d="M321.55,235.17h.51v.61h-.51v-.61Z"/>
                  <path id="DejaVuSans-35-20" data-name="DejaVuSans-35" d="M323.12,232.19h1.91v.41h-1.46v.88c.07-.02.14-.04.21-.05.07-.01.14-.02.21-.02.4,0,.72.11.95.33.23.22.35.52.35.89s-.12.69-.36.9c-.24.21-.58.32-1.02.32-.15,0-.3-.01-.46-.04-.16-.03-.32-.06-.48-.12v-.49c.14.08.29.14.45.18s.32.06.49.06c.28,0,.5-.07.66-.22.16-.15.24-.34.24-.59s-.08-.45-.24-.59c-.16-.15-.38-.22-.66-.22-.13,0-.26.01-.39.04-.13.03-.26.07-.39.13v-1.8Z"/>
                </g>
              </g>
            </g>
            <g id="ytick_9-2" data-name="ytick_9">
              <g id="line2d_18-2" data-name="line2d_18">
                <path id="mba42d8faeb-18" data-name="mba42d8faeb" class="cls-8" d="M329.17,209.96h-1.72"/>
              </g>
              <g id="text_18-2" data-name="text_18">
                <g>
                  <path id="DejaVuSans-32-8" data-name="DejaVuSans-32" d="M318.84,211.42h1.69v.41h-2.28v-.41c.18-.19.44-.45.75-.77.32-.32.52-.53.6-.62.16-.17.26-.32.33-.44.06-.12.09-.24.09-.36,0-.19-.07-.35-.2-.47-.13-.12-.31-.18-.52-.18-.15,0-.31.03-.48.08-.17.05-.35.13-.54.24v-.49c.2-.08.38-.14.55-.18.17-.04.33-.06.47-.06.37,0,.67.09.89.28.22.19.33.43.33.74,0,.15-.03.29-.08.42-.05.13-.16.29-.3.47-.04.05-.17.18-.38.4-.21.22-.52.53-.91.93Z"/>
                  <path id="DejaVuSans-2e-36" data-name="DejaVuSans-2e" d="M321.55,211.22h.51v.61h-.51v-.61Z"/>
                  <path id="DejaVuSans-30-46" data-name="DejaVuSans-30" d="M324.15,208.56c-.25,0-.44.12-.56.37-.13.25-.19.62-.19,1.11s.06.86.19,1.11c.13.25.31.37.56.37s.44-.12.57-.37c.13-.25.19-.62.19-1.11s-.06-.86-.19-1.11c-.13-.25-.31-.37-.57-.37ZM324.15,208.17c.4,0,.71.16.92.48.21.32.32.78.32,1.39s-.11,1.07-.32,1.38c-.21.32-.52.48-.92.48s-.71-.16-.92-.48c-.21-.32-.32-.78-.32-1.38s.11-1.07.32-1.39c.21-.32.52-.48.92-.48Z"/>
                </g>
              </g>
            </g>
          </g>
          <g id="line2d_19-2" data-name="line2d_19">
            <g class="cls-13">
              <path class="cls-7" d="M329.17,305.78l8.08,19.17,4.55,10.49,3.54,7.91,3.03,6.55,3.03,6.29,2.53,5.03,2.53,4.81,2.53,4.57,2.53,4.31,2.02,3.25,2.02,3.07,2.02,2.88,2.02,2.68,2.02,2.47,2.02,2.26,1.52,1.55,1.52,1.43,1.52,1.3,1.52,1.17,1.52,1.04,1.52.91,1.52.78,1.52.65,1.52.51,1.52.38,1.52.24,1.52.1,1.52-.03,1.52-.17,1.52-.31,1.52-.44,1.52-.58,1.52-.71,1.52-.85,1.52-.98,1.52-1.11,1.52-1.24,1.52-1.37,1.52-1.49,1.52-1.62,2.02-2.34,2.02-2.55,2.02-2.75,2.02-2.95,2.02-3.14,2.02-3.32,2.53-4.39,2.53-4.64,2.53-4.88,2.53-5.09,3.03-6.36,3.03-6.6,3.54-7.96,4.04-9.36,5.56-13.16,11.11-26.37,4.04-9.3,3.54-7.89,3.03-6.53,3.03-6.27,2.53-5.01,2.53-4.78,2.53-4.54,2.53-4.29,2.02-3.23,2.02-3.05,2.02-2.85,2.02-2.65,2.02-2.45,2.02-2.24,1.52-1.53,1.52-1.41,1.52-1.28,1.52-1.15,1.52-1.02,1.52-.89,1.52-.76,1.52-.62,1.52-.49,1.52-.35,1.52-.22,1.52-.08,1.52.06,1.52.19,1.52.33,1.52.47,1.52.6,1.52.74,1.52.87,1.52,1,1.52,1.13,1.52,1.26,1.52,1.39,1.52,1.51,1.52,1.64,2.02,2.37,2.02,2.58,2.02,2.78,2.02,2.97,2.02,3.16,2.02,3.34,2.53,4.42,2.53,4.67,2.53,4.9,3.03,6.16,3.03,6.42,3.54,7.79,4.04,9.21,4.55,10.65,5.56,13.23h0"/>
            </g>
          </g>
          <g id="line2d_20-2" data-name="line2d_20">
            <g class="cls-12">
              <path class="cls-4" d="M329.17,305.78h252.07"/>
            </g>
          </g>
          <g id="patch_3-2" data-name="patch_3">
            <path class="cls-6" d="M329.17,401.61v-191.65"/>
          </g>
          <g id="patch_4-2" data-name="patch_4">
            <path class="cls-6" d="M581.24,401.61v-191.65"/>
          </g>
          <g id="patch_5-2" data-name="patch_5">
            <path class="cls-6" d="M329.17,401.61h252.07"/>
          </g>
          <g id="patch_6-2" data-name="patch_6">
            <path class="cls-6" d="M329.17,209.96h252.07"/>
          </g>
        </g>
      </g>
      <path class="cls-1" d="M160.79,184.79l-.2.88c-.52.06-.93.09-1.2.09-.44,0-1.03-.04-1.76-.11-.78-.07-1.45-.11-2.01-.11-.44,0-.9.07-1.37.22.42-1.19.9-2.83,1.45-4.94l1.19-4.64-4.18.15c-.73.04-1.49.1-2.26.17-.7,2.75-1.42,4.78-2.16,6.1-.74,1.32-1.59,2.29-2.54,2.91-.95.62-1.87.93-2.74.93s-1.59-.21-2.19-.62c-.44-.29-.66-.65-.66-1.08,0-.26.09-.48.26-.66.17-.18.39-.27.63-.27.4,0,.81.28,1.24.85.26.34.47.56.62.66.16.1.34.15.53.15.8,0,1.56-.65,2.26-1.95s1.74-4.5,3.1-9.62l1.51-5.65c-2.06,0-3.61.34-4.64,1.02-1.03.68-1.55,1.45-1.55,2.3,0,.29.14.65.42,1.1.25.41.37.75.37,1,0,.3-.1.54-.29.73-.19.19-.43.29-.72.29-.36,0-.67-.17-.93-.52-.26-.34-.39-.85-.39-1.51,0-1.19.43-2.25,1.3-3.17s2.12-1.56,3.77-1.95c.95-.22,2.84-.32,5.67-.32-.76,1.5-1.61,4.16-2.56,7.97,2.73,0,4.87-.1,6.44-.29.89-2.98,1.67-5.07,2.35-6.25.68-1.18,1.44-2.03,2.29-2.56.85-.52,1.8-.79,2.85-.79.91,0,1.6.17,2.09.52s.73.74.73,1.18c0,.26-.09.47-.26.63-.17.17-.4.25-.68.25-.36,0-.76-.26-1.22-.77-.46-.51-.87-.77-1.23-.77-.77,0-1.53.72-2.28,2.15-1.34,2.55-2.88,7.94-4.64,16.17.17.02.42.06.74.11.58.1,1.06.15,1.41.15.42,0,.9-.05,1.43-.15Z"/>
      <path class="cls-1" d="M473.75,184.79l-.2.88c-.52.06-.93.09-1.2.09-.44,0-1.03-.04-1.76-.11-.78-.07-1.45-.11-2.01-.11-.44,0-.9.07-1.37.22.42-1.19.9-2.83,1.45-4.94l1.19-4.64-4.18.15c-.73.04-1.49.1-2.26.17-.7,2.75-1.42,4.78-2.16,6.1-.74,1.32-1.59,2.29-2.54,2.91-.95.62-1.87.93-2.74.93s-1.59-.21-2.19-.62c-.44-.29-.66-.65-.66-1.08,0-.26.09-.48.26-.66.17-.18.39-.27.63-.27.4,0,.81.28,1.24.85.26.34.47.56.62.66.16.1.34.15.53.15.8,0,1.56-.65,2.26-1.95s1.74-4.5,3.1-9.62l1.51-5.65c-2.06,0-3.61.34-4.64,1.02-1.03.68-1.55,1.45-1.55,2.3,0,.29.14.65.42,1.1.25.41.37.75.37,1,0,.3-.1.54-.29.73-.19.19-.43.29-.72.29-.36,0-.67-.17-.93-.52-.26-.34-.39-.85-.39-1.51,0-1.19.43-2.25,1.3-3.17s2.12-1.56,3.77-1.95c.95-.22,2.84-.32,5.67-.32-.76,1.5-1.61,4.16-2.56,7.97,2.73,0,4.87-.1,6.44-.29.89-2.98,1.67-5.07,2.35-6.25.68-1.18,1.44-2.03,2.29-2.56.85-.52,1.8-.79,2.85-.79.91,0,1.6.17,2.09.52s.73.74.73,1.18c0,.26-.09.47-.26.63-.17.17-.4.25-.68.25-.36,0-.76-.26-1.22-.77-.46-.51-.87-.77-1.23-.77-.77,0-1.53.72-2.28,2.15-1.34,2.55-2.88,7.94-4.64,16.17.17.02.42.06.74.11.58.1,1.06.15,1.41.15.42,0,.9-.05,1.43-.15Z"/>
      <path class="cls-1" d="M168.95,178.69c.82,0,1.49.3,1.98.91.5.61.75,1.51.75,2.72,0,1.71-.43,3.31-1.29,4.78-.86,1.47-1.91,2.21-3.13,2.21-.72,0-1.33-.31-1.83-.94-.5-.63-.75-1.49-.75-2.57,0-1.27.25-2.52.74-3.74.5-1.22,1.05-2.08,1.68-2.6.62-.51,1.24-.77,1.85-.77ZM168.8,179.2c-.36,0-.72.24-1.09.71-.37.48-.71,1.35-1.03,2.61-.31,1.27-.47,2.47-.47,3.62,0,.92.13,1.6.4,2.02.27.42.57.63.92.63.31,0,.61-.15.91-.46.44-.46.84-1.31,1.2-2.57.36-1.26.54-2.53.54-3.8,0-.99-.15-1.72-.45-2.21-.23-.36-.53-.55-.93-.55Z"/>
      <path class="cls-1" d="M481.95,177.96h.28l-1.2,4.67-1,4.33c-.1.36-.15.61-.15.73,0,.1.05.18.15.24.1.06.32.11.67.14.26.02.51.06.76.1l-.17.43c-1.24-.13-2.1-.2-2.59-.2-.71,0-1.49.07-2.33.2l.15-.43c.3-.08.64-.16,1.03-.24.38-.07.64-.19.78-.35.19-.2.39-.69.6-1.45l.93-3.57c.31-1.36.46-2.13.46-2.31,0-.2-.08-.3-.25-.3-.13,0-.71.23-1.74.69l-.17-.43c1.5-.71,2.42-1.19,2.75-1.42s.68-.51,1.05-.83Z"/>
    </g>
    <g id="_레이어_2" data-name="레이어_2">
      <line class="cls-3" x1="26.28" y1="305.78" x2="280.08" y2="305.78"/>
      <line class="cls-3" x1="329.82" y1="348.15" x2="582.32" y2="263.01"/>
      <path class="cls-3" d="M28,287"/>
      <polygon class="cls-11" points="28 259.43 28 353.69 280.08 353.69 280.08 257.87 28 259.43"/>
      <path class="cls-11" d="M494.39,208.56s-41.22,35.92-65.91,47.91-98.57,6.54-98.57,6.54l-.75,138.6,89.05.86s50.61-49.47,76.18-65.64,86.88-18.26,86.88-18.26l-.03-108.61-86.85-1.4Z"/>
      <g>
        <path d="M60.84,447.33v-.39l1.12-.1c0-.27.01-.57.01-.9s0-.65,0-.97c0-.32,0-.61,0-.86v-7.21l-1.19-.07v-.38l2.37-.45.21.13-.04,2.18v2.79l.03.14v4.98l-.21,1.26-2.31-.15ZM65.58,447.54c-.45,0-.89-.11-1.32-.34s-.82-.59-1.17-1.09h-.15l.2-.32c.34.37.66.64.98.79.32.15.65.23.99.23.38,0,.73-.1,1.06-.3.32-.2.58-.53.78-1,.2-.47.29-1.1.29-1.9,0-1.05-.2-1.83-.59-2.33-.39-.5-.9-.75-1.51-.75-.21,0-.43.03-.66.09-.22.06-.46.18-.7.35-.24.17-.51.42-.81.75l-.17-.41h.21c.38-.52.81-.9,1.28-1.14s.95-.36,1.44-.36c.58,0,1.09.15,1.53.46.44.31.79.74,1.05,1.31s.39,1.24.39,2.04-.13,1.43-.39,2.02c-.26.59-.63,1.06-1.09,1.39s-1.01.5-1.62.5Z"/>
        <path d="M71.03,447.33c0-.23.02-.54.03-.92,0-.38.02-.78.02-1.2,0-.42,0-.78,0-1.09v-.9c0-.48,0-.9-.01-1.27,0-.37-.02-.73-.04-1.07l-1.2-.07v-.35l2.48-.6.18.11-.04,2.02v2.13c0,.31,0,.67,0,1.09,0,.42,0,.82.01,1.2s.01.69.02.92h-1.46ZM69.92,447.33v-.39l1.53-.15h.56l1.5.15v.39h-3.58ZM71.66,438.16c-.24,0-.45-.08-.62-.24-.17-.16-.26-.36-.26-.62s.09-.46.26-.62c.17-.16.38-.24.62-.24s.45.08.63.24c.18.16.27.36.27.62s-.09.46-.27.62c-.18.16-.39.24-.63.24Z"/>
        <path d="M76.7,447.54c-.56,0-1.03-.16-1.4-.48-.37-.32-.56-.77-.56-1.36,0-.37.08-.7.25-.99.16-.29.44-.55.82-.78.38-.23.9-.44,1.54-.62.38-.11.79-.22,1.23-.34.44-.11.84-.21,1.22-.31v.35c-.37.09-.75.19-1.13.3-.38.11-.72.22-1.01.33-.57.21-.98.47-1.23.78-.25.3-.37.67-.37,1.08s.11.75.34.97c.23.21.53.32.9.32.2,0,.39-.04.59-.11.2-.08.42-.21.67-.41.25-.2.55-.48.9-.83l.14.69h-.38c-.28.31-.55.57-.8.78s-.51.37-.78.48c-.27.11-.58.16-.94.16ZM80.48,447.52c-.43,0-.75-.14-.97-.42-.22-.28-.35-.66-.39-1.15v-3.74c0-.52-.06-.92-.17-1.2-.11-.28-.28-.48-.51-.59-.23-.11-.53-.17-.89-.17-.26,0-.52.04-.79.11s-.56.19-.88.36l.69-.38-.21,1.11c-.03.29-.11.5-.25.62s-.3.18-.48.18c-.37,0-.6-.18-.69-.55.12-.59.44-1.05.96-1.39s1.2-.5,2.05-.5,1.47.2,1.88.6c.4.4.6,1.05.6,1.95v3.51c0,.4.05.68.15.83.1.15.24.22.41.22.11,0,.21-.03.31-.08.09-.06.2-.15.32-.29l.22.2c-.15.27-.34.47-.57.59-.23.13-.5.19-.81.19Z"/>
        <path d="M85.11,447.54c-.48,0-.9-.05-1.28-.15-.38-.1-.76-.25-1.14-.44v-1.71h.67l.36,1.82-.56-.04v-.5c.28.18.56.31.85.41.28.1.63.15,1.03.15.61,0,1.06-.12,1.37-.36.31-.24.46-.56.46-.96,0-.34-.1-.61-.31-.83-.21-.21-.6-.41-1.18-.59l-.74-.27c-.57-.2-1.02-.46-1.36-.79-.34-.33-.51-.77-.51-1.31,0-.62.24-1.13.71-1.55.47-.42,1.15-.62,2.02-.62.44,0,.83.05,1.16.15.34.1.69.26,1.05.48l-.06,1.54h-.6l-.39-1.69.48.11v.45c-.28-.21-.55-.35-.8-.43s-.53-.13-.83-.13c-.51,0-.91.11-1.18.34-.27.23-.41.53-.41.89,0,.32.11.58.33.79.22.21.59.4,1.1.58l.73.25c.72.24,1.23.54,1.53.88.3.34.46.77.46,1.27,0,.43-.11.81-.34,1.16s-.56.61-1,.8c-.44.19-.98.29-1.62.29Z"/>
        <path d="M99.97,441.01h-7.17v-.62h7.17v.62ZM99.97,444.15h-7.17v-.63h7.17v.63Z"/>
        <path d="M107.99,447.54c-.57,0-1.1-.17-1.6-.53-.49-.35-.89-.9-1.2-1.66-.3-.76-.46-1.74-.46-2.94s.15-2.21.46-2.97c.3-.76.7-1.32,1.2-1.67.49-.36,1.03-.53,1.6-.53s1.09.18,1.58.53c.49.35.9.91,1.2,1.67.31.76.46,1.75.46,2.97s-.15,2.18-.46,2.94c-.31.76-.71,1.31-1.2,1.66-.5.35-1.02.53-1.58.53ZM107.99,447.09c.24,0,.48-.08.7-.23.22-.15.42-.41.6-.76.18-.35.32-.83.43-1.43.11-.6.17-1.35.17-2.25s-.06-1.66-.17-2.28c-.11-.61-.26-1.09-.43-1.45s-.38-.61-.6-.77c-.22-.16-.46-.24-.7-.24s-.48.08-.7.23-.43.41-.61.77-.32.84-.43,1.46c-.1.61-.15,1.37-.15,2.28s.05,1.65.15,2.25c.1.6.24,1.08.43,1.43.18.36.38.61.61.76.22.15.46.23.7.23Z"/>
        <path d="M114.2,447.54c-.27,0-.49-.09-.67-.28s-.27-.41-.27-.66.09-.48.27-.67c.18-.18.4-.27.67-.27s.5.09.68.27c.18.18.27.4.27.67s-.09.47-.27.66-.41.28-.68.28Z"/>
        <path d="M120.01,447.54c-.8,0-1.46-.18-1.97-.55s-.83-.88-.94-1.54c.06-.15.14-.26.26-.34.12-.07.24-.11.38-.11.21,0,.36.06.47.17.11.12.19.32.24.6l.36,1.33-.48-.39c.23.13.46.23.67.29s.48.09.8.09c.77,0,1.36-.23,1.79-.68.43-.45.64-1.09.64-1.91s-.21-1.49-.62-1.89c-.42-.4-.97-.6-1.66-.6-.62,0-1.17.1-1.67.31l-.36-.15.32-4.7h5.14v1.12h-4.9l.29-.76-.29,4.23-.46-.14c.38-.2.75-.33,1.11-.41.36-.07.74-.11,1.15-.11,1.04,0,1.86.25,2.48.76s.92,1.25.92,2.22c0,.64-.15,1.2-.46,1.68-.31.48-.74.84-1.29,1.1s-1.2.38-1.95.38Z"/>
      </g>
      <g>
        <path d="M361.74,447.33v-.39l1.12-.1c0-.27.01-.57.01-.9s0-.65,0-.97c0-.32,0-.61,0-.86v-7.21l-1.19-.07v-.38l2.37-.45.21.13-.04,2.18v2.79l.03.14v4.98l-.21,1.26-2.31-.15ZM366.49,447.54c-.45,0-.89-.11-1.32-.34-.43-.22-.82-.59-1.17-1.09h-.15l.2-.32c.34.37.66.64.98.79.32.15.65.23.99.23.38,0,.73-.1,1.06-.3.32-.2.58-.53.78-1,.2-.47.29-1.1.29-1.9,0-1.05-.2-1.83-.59-2.33-.39-.5-.9-.75-1.51-.75-.21,0-.43.03-.66.09-.22.06-.46.18-.7.35-.24.17-.51.42-.81.75l-.17-.41h.21c.38-.52.81-.9,1.28-1.14.47-.24.95-.36,1.43-.36.58,0,1.09.15,1.53.46.44.31.79.74,1.05,1.31s.39,1.24.39,2.04-.13,1.43-.39,2.02-.62,1.06-1.09,1.39-1.01.5-1.62.5Z"/>
        <path d="M371.94,447.33c0-.23.02-.54.03-.92,0-.38.02-.78.02-1.2,0-.42,0-.78,0-1.09v-.9c0-.48,0-.9-.01-1.27,0-.37-.02-.73-.04-1.07l-1.2-.07v-.35l2.48-.6.18.11-.04,2.02v2.13c0,.31,0,.67,0,1.09,0,.42,0,.82.01,1.2s.01.69.02.92h-1.46ZM370.83,447.33v-.39l1.53-.15h.56l1.5.15v.39h-3.58ZM372.57,438.16c-.24,0-.45-.08-.62-.24-.17-.16-.26-.36-.26-.62s.09-.46.26-.62c.17-.16.38-.24.62-.24s.45.08.63.24c.18.16.27.36.27.62s-.09.46-.27.62c-.18.16-.39.24-.63.24Z"/>
        <path d="M377.61,447.54c-.56,0-1.03-.16-1.4-.48-.37-.32-.56-.77-.56-1.36,0-.37.08-.7.25-.99.16-.29.44-.55.82-.78.38-.23.9-.44,1.54-.62.38-.11.79-.22,1.23-.34.44-.11.84-.21,1.22-.31v.35c-.37.09-.75.19-1.13.3s-.72.22-1.01.33c-.57.21-.98.47-1.23.78-.25.3-.37.67-.37,1.08s.11.75.34.97c.23.21.53.32.9.32.2,0,.39-.04.59-.11.2-.08.42-.21.67-.41.25-.2.55-.48.9-.83l.14.69h-.38c-.28.31-.55.57-.8.78s-.51.37-.78.48-.58.16-.94.16ZM381.39,447.52c-.43,0-.75-.14-.97-.42-.22-.28-.35-.66-.38-1.15v-3.74c0-.52-.06-.92-.17-1.2-.11-.28-.28-.48-.51-.59-.23-.11-.53-.17-.89-.17-.26,0-.52.04-.79.11-.27.07-.56.19-.88.36l.69-.38-.21,1.11c-.03.29-.11.5-.25.62-.14.12-.3.18-.48.18-.37,0-.6-.18-.69-.55.12-.59.44-1.05.96-1.39.52-.34,1.2-.5,2.05-.5s1.47.2,1.88.6.6,1.05.6,1.95v3.51c0,.4.05.68.15.83s.24.22.41.22c.11,0,.21-.03.31-.08.09-.06.2-.15.32-.29l.22.2c-.15.27-.34.47-.57.59-.23.13-.5.19-.81.19Z"/>
        <path d="M386.02,447.54c-.48,0-.9-.05-1.28-.15-.38-.1-.76-.25-1.14-.44v-1.71h.67l.36,1.82-.56-.04v-.5c.28.18.56.31.85.41.28.1.63.15,1.03.15.61,0,1.06-.12,1.37-.36.31-.24.46-.56.46-.96,0-.34-.1-.61-.31-.83s-.6-.41-1.18-.59l-.74-.27c-.57-.2-1.02-.46-1.36-.79-.34-.33-.51-.77-.51-1.31,0-.62.24-1.13.71-1.55.47-.42,1.15-.62,2.02-.62.44,0,.83.05,1.16.15.34.1.69.26,1.05.48l-.06,1.54h-.6l-.39-1.69.48.11v.45c-.28-.21-.55-.35-.8-.43s-.53-.13-.83-.13c-.51,0-.91.11-1.18.34-.27.23-.41.53-.41.89,0,.32.11.58.33.79.22.21.59.4,1.1.58l.73.25c.72.24,1.23.54,1.53.88.3.34.46.77.46,1.27,0,.43-.12.81-.34,1.16s-.56.61-1,.8-.98.29-1.62.29Z"/>
        <path d="M400.87,441.01h-7.17v-.62h7.17v.62ZM400.87,444.15h-7.17v-.63h7.17v.63Z"/>
        <path d="M408.9,447.54c-.57,0-1.1-.17-1.6-.53-.49-.35-.89-.9-1.2-1.66-.3-.76-.46-1.74-.46-2.94s.15-2.21.46-2.97c.3-.76.7-1.32,1.2-1.67.5-.36,1.03-.53,1.6-.53s1.09.18,1.58.53c.49.35.9.91,1.2,1.67.31.76.46,1.75.46,2.97s-.15,2.18-.46,2.94c-.31.76-.71,1.31-1.2,1.66-.5.35-1.02.53-1.58.53ZM408.9,447.09c.24,0,.48-.08.7-.23.22-.15.42-.41.6-.76.18-.35.32-.83.43-1.43.11-.6.17-1.35.17-2.25s-.06-1.66-.17-2.28c-.11-.61-.26-1.09-.43-1.45-.18-.35-.38-.61-.6-.77-.22-.16-.46-.24-.7-.24s-.48.08-.7.23c-.22.15-.43.41-.61.77-.18.36-.32.84-.43,1.46-.1.61-.15,1.37-.15,2.28s.05,1.65.15,2.25.25,1.08.43,1.43c.18.36.38.61.61.76.22.15.46.23.7.23Z"/>
        <path d="M415.11,447.54c-.27,0-.5-.09-.67-.28-.18-.19-.27-.41-.27-.66s.09-.48.27-.67c.18-.18.4-.27.67-.27s.5.09.68.27c.18.18.27.4.27.67s-.09.47-.27.66c-.18.19-.41.28-.68.28Z"/>
        <path d="M418.19,447.33v-.85c.46-.49.9-.97,1.33-1.45.43-.48.82-.9,1.16-1.27.48-.52.88-1,1.2-1.45s.55-.87.7-1.27.23-.82.23-1.24c0-.67-.17-1.19-.52-1.56-.35-.37-.82-.55-1.43-.55-.24,0-.49.03-.73.1-.24.07-.51.18-.8.35l.6-.39-.36,1.39c-.07.31-.16.52-.29.63-.13.11-.29.17-.46.17-.14,0-.27-.04-.38-.12-.11-.08-.2-.19-.25-.34.07-.49.26-.89.56-1.22s.67-.58,1.12-.75.92-.25,1.43-.25c.97,0,1.7.23,2.18.7s.73,1.1.73,1.89c0,.43-.1.86-.31,1.28-.21.42-.54.88-.99,1.38-.46.49-1.07,1.08-1.83,1.75-.16.14-.36.33-.61.57-.25.24-.52.5-.82.78-.3.28-.6.57-.9.87l.14-.46v.22h5.71v1.12h-6.41Z"/>
        <path d="M426.46,447.33v-.39l2.31-.22h1.2l2.17.22v.39h-5.68ZM428.63,447.33c.03-1.08.04-2.16.04-3.23v-5.85l-1.97.29v-.45l3.19-.78.21.15-.06,2.23v4.41c0,.52,0,1.06.01,1.6,0,.55.02,1.09.03,1.63h-1.46Z"/>
      </g>
      <g>
        <path d="M169.25,440.44v-.42h3.64v.42l-1.51.14h-.74l-1.39-.14ZM172.92,447.4l-2.97-7.38h1.53l2.34,6.27h-.25l.07-.18,2.11-6.09h.57l-2.77,7.38h-.63ZM174.36,440.44v-.42h2.74v.42l-1.13.14h-.25l-1.36-.14Z"/>
        <path d="M179.57,447.54c-.56,0-1.03-.16-1.4-.48-.37-.32-.56-.77-.56-1.36,0-.37.08-.7.25-.99.16-.29.44-.55.82-.78.38-.23.9-.44,1.54-.62.38-.11.79-.22,1.23-.34.44-.11.84-.21,1.22-.31v.35c-.37.09-.75.19-1.13.3-.38.11-.72.22-1.01.33-.57.21-.98.47-1.23.78-.25.3-.37.67-.37,1.08s.11.75.34.97c.23.21.53.32.9.32.2,0,.39-.04.59-.11.2-.08.42-.21.67-.41.25-.2.55-.48.9-.83l.14.69h-.38c-.28.31-.55.57-.8.78s-.51.37-.78.48c-.27.11-.58.16-.94.16ZM183.35,447.52c-.43,0-.75-.14-.97-.42-.22-.28-.35-.66-.39-1.15v-3.74c0-.52-.06-.92-.17-1.2-.11-.28-.28-.48-.51-.59-.23-.11-.53-.17-.89-.17-.26,0-.52.04-.79.11s-.56.19-.88.36l.69-.38-.21,1.11c-.03.29-.11.5-.25.62s-.3.18-.48.18c-.37,0-.6-.18-.69-.55.12-.59.44-1.05.96-1.39s1.2-.5,2.05-.5,1.47.2,1.88.6c.4.4.6,1.05.6,1.95v3.51c0,.4.05.68.15.83.1.15.24.22.41.22.11,0,.21-.03.31-.08.09-.06.2-.15.32-.29l.22.2c-.15.27-.34.47-.57.59-.23.13-.5.19-.81.19Z"/>
        <path d="M186.5,447.33c0-.23.02-.54.02-.92,0-.38,0-.78.01-1.2,0-.42,0-.78,0-1.09v-.91c0-.49,0-.91,0-1.26,0-.35-.02-.7-.04-1.04l-1.19-.08v-.35l2.32-.62.18.11.08,1.97h0v2.17c0,.31,0,.67,0,1.09,0,.42,0,.82.01,1.2s.01.69.02.92h-1.44ZM185.4,447.33v-.39l1.53-.17h.77l1.57.17v.39h-3.86ZM187.9,442.86l-.35-.77h.28c.15-.47.35-.87.59-1.21.25-.34.53-.6.84-.79.31-.19.63-.28.96-.28.28,0,.52.06.73.17.21.12.35.3.41.55,0,.25-.06.46-.19.62-.13.16-.32.24-.6.24-.19,0-.35-.05-.5-.15s-.31-.25-.48-.43l-.32-.32.6.03c-.46.16-.85.42-1.17.79-.32.37-.59.89-.82,1.56Z"/>
        <path d="M202.73,441.01h-7.17v-.62h7.17v.62ZM202.73,444.15h-7.17v-.63h7.17v.63Z"/>
        <path d="M210.75,447.54c-.57,0-1.1-.17-1.6-.53-.49-.35-.89-.9-1.2-1.66-.3-.76-.46-1.74-.46-2.94s.15-2.21.46-2.97c.3-.76.7-1.32,1.2-1.67.49-.36,1.03-.53,1.6-.53s1.09.18,1.58.53c.49.35.9.91,1.2,1.67.31.76.46,1.75.46,2.97s-.15,2.18-.46,2.94c-.31.76-.71,1.31-1.2,1.66-.5.35-1.02.53-1.58.53ZM210.75,447.09c.24,0,.48-.08.7-.23.22-.15.42-.41.6-.76.18-.35.32-.83.43-1.43.11-.6.17-1.35.17-2.25s-.06-1.66-.17-2.28c-.11-.61-.26-1.09-.43-1.45s-.38-.61-.6-.77c-.22-.16-.46-.24-.7-.24s-.48.08-.7.23-.43.41-.61.77-.32.84-.43,1.46c-.1.61-.15,1.37-.15,2.28s.05,1.65.15,2.25c.1.6.24,1.08.43,1.43.18.36.38.61.61.76.22.15.46.23.7.23Z"/>
        <path d="M216.96,447.54c-.27,0-.49-.09-.67-.28s-.27-.41-.27-.66.09-.48.27-.67c.18-.18.4-.27.67-.27s.5.09.68.27c.18.18.27.4.27.67s-.09.47-.27.66-.41.28-.68.28Z"/>
        <path d="M220.04,447.33v-.85c.46-.49.9-.97,1.33-1.45.43-.48.82-.9,1.16-1.27.48-.52.88-1,1.2-1.45.31-.44.55-.87.7-1.27.15-.41.23-.82.23-1.24,0-.67-.17-1.19-.52-1.56-.35-.37-.82-.55-1.43-.55-.24,0-.49.03-.73.1s-.51.18-.8.35l.6-.39-.36,1.39c-.06.31-.16.52-.29.63-.13.11-.28.17-.46.17-.14,0-.27-.04-.38-.12-.11-.08-.2-.19-.25-.34.07-.49.26-.89.56-1.22.3-.33.67-.58,1.12-.75.45-.17.92-.25,1.43-.25.97,0,1.7.23,2.18.7s.73,1.1.73,1.89c0,.43-.1.86-.31,1.28-.21.42-.54.88-.99,1.38-.46.49-1.07,1.08-1.83,1.75-.16.14-.36.33-.61.57-.25.24-.52.5-.82.78-.3.28-.6.57-.9.87l.14-.46v.22h5.71v1.12h-6.41Z"/>
        <path d="M230.63,447.54c-.8,0-1.46-.18-1.97-.55s-.83-.88-.94-1.54c.06-.15.14-.26.26-.34.12-.07.24-.11.38-.11.21,0,.36.06.47.17.11.12.19.32.24.6l.36,1.33-.48-.39c.23.13.46.23.67.29s.48.09.8.09c.77,0,1.36-.23,1.79-.68.43-.45.64-1.09.64-1.91s-.21-1.49-.62-1.89c-.42-.4-.97-.6-1.66-.6-.62,0-1.17.1-1.67.31l-.36-.15.32-4.7h5.14v1.12h-4.9l.29-.76-.29,4.23-.46-.14c.38-.2.75-.33,1.11-.41.36-.07.74-.11,1.15-.11,1.04,0,1.86.25,2.48.76s.92,1.25.92,2.22c0,.64-.15,1.2-.46,1.68-.31.48-.74.84-1.29,1.1s-1.2.38-1.95.38Z"/>
      </g>
      <g>
        <path d="M481.43,440.44v-.42h3.64v.42l-1.51.14h-.74l-1.39-.14ZM485.1,447.4l-2.97-7.38h1.53l2.34,6.27h-.25l.07-.18,2.11-6.09h.57l-2.77,7.38h-.63ZM486.54,440.44v-.42h2.74v.42l-1.13.14h-.25l-1.36-.14Z"/>
        <path d="M491.75,447.54c-.56,0-1.03-.16-1.4-.48-.37-.32-.56-.77-.56-1.36,0-.37.08-.7.25-.99.16-.29.44-.55.82-.78.38-.23.9-.44,1.54-.62.38-.11.79-.22,1.23-.34.44-.11.84-.21,1.22-.31v.35c-.37.09-.75.19-1.13.3s-.72.22-1.01.33c-.57.21-.98.47-1.23.78-.25.3-.37.67-.37,1.08s.11.75.34.97c.23.21.53.32.9.32.2,0,.39-.04.59-.11.2-.08.42-.21.67-.41.25-.2.55-.48.9-.83l.14.69h-.38c-.28.31-.55.57-.8.78s-.51.37-.78.48-.58.16-.94.16ZM495.53,447.52c-.43,0-.75-.14-.97-.42-.22-.28-.35-.66-.38-1.15v-3.74c0-.52-.06-.92-.17-1.2-.11-.28-.28-.48-.51-.59-.23-.11-.53-.17-.89-.17-.26,0-.52.04-.79.11-.27.07-.56.19-.88.36l.69-.38-.21,1.11c-.03.29-.11.5-.25.62-.14.12-.3.18-.48.18-.37,0-.6-.18-.69-.55.12-.59.44-1.05.96-1.39.52-.34,1.2-.5,2.05-.5s1.47.2,1.88.6.6,1.05.6,1.95v3.51c0,.4.05.68.15.83s.24.22.41.22c.11,0,.21-.03.31-.08.09-.06.2-.15.32-.29l.22.2c-.15.27-.34.47-.57.59-.23.13-.5.19-.81.19Z"/>
        <path d="M498.68,447.33c0-.23.02-.54.02-.92,0-.38,0-.78.01-1.2s0-.78,0-1.09v-.91c0-.49,0-.91,0-1.26s-.02-.7-.04-1.04l-1.19-.08v-.35l2.32-.62.18.11.08,1.97h0v2.17c0,.31,0,.67,0,1.09s0,.82.01,1.2.01.69.02.92h-1.44ZM497.58,447.33v-.39l1.53-.17h.77l1.57.17v.39h-3.86ZM500.08,442.86l-.35-.77h.28c.15-.47.35-.87.59-1.21.25-.34.53-.6.84-.79.31-.19.63-.28.96-.28.28,0,.52.06.73.17.21.12.35.3.41.55,0,.25-.06.46-.19.62-.13.16-.33.24-.6.24-.19,0-.35-.05-.5-.15s-.31-.25-.48-.43l-.32-.32.6.03c-.46.16-.85.42-1.17.79-.32.37-.59.89-.82,1.56Z"/>
        <path d="M514.91,441.01h-7.17v-.62h7.17v.62ZM514.91,444.15h-7.17v-.63h7.17v.63Z"/>
        <path d="M520.18,447.33v-.39l2.31-.22h1.2l2.17.22v.39h-5.68ZM522.35,447.33c.03-1.08.04-2.16.04-3.23v-5.85l-1.97.29v-.45l3.19-.78.21.15-.06,2.23v4.41c0,.52,0,1.06.01,1.6,0,.55.02,1.09.03,1.63h-1.46Z"/>
        <path d="M529.14,447.54c-.27,0-.49-.09-.67-.28-.18-.19-.27-.41-.27-.66s.09-.48.27-.67c.18-.18.4-.27.67-.27s.5.09.68.27.27.4.27.67-.09.47-.27.66c-.18.19-.41.28-.68.28Z"/>
        <path d="M535.46,447.54c-1.05,0-1.88-.36-2.47-1.08-.59-.72-.89-1.72-.89-2.99,0-.77.14-1.51.43-2.22.29-.7.7-1.34,1.23-1.9.54-.56,1.18-1.03,1.94-1.39.76-.36,1.6-.6,2.55-.71l.08.34c-1.06.22-1.96.62-2.67,1.18-.72.56-1.26,1.23-1.62,2.02-.36.79-.55,1.65-.55,2.6,0,.85.08,1.55.25,2.1.17.55.4.96.71,1.23.3.27.65.4,1.04.4.51,0,.94-.22,1.27-.67s.5-1.13.5-2.04c0-.8-.16-1.42-.48-1.84s-.77-.64-1.34-.64c-.37,0-.73.08-1.08.25-.35.16-.69.44-1.02.83l-.27-.18h.1c.72-1.02,1.64-1.53,2.76-1.53.86,0,1.53.28,2,.84.48.56.71,1.3.71,2.21,0,.62-.14,1.18-.41,1.67-.28.49-.65.87-1.13,1.14s-1.03.41-1.64.41Z"/>
        <path d="M540.65,447.57l-.08-.38c1.03-.36,1.87-.82,2.53-1.38.66-.56,1.15-1.22,1.47-1.98.32-.77.48-1.64.48-2.63,0-.83-.08-1.5-.24-2.02-.16-.52-.38-.9-.67-1.13-.28-.24-.61-.36-.99-.36-.35,0-.66.1-.95.29-.29.2-.51.49-.69.88-.17.39-.26.87-.26,1.43,0,.81.2,1.44.59,1.89.39.45.9.67,1.51.67.38,0,.73-.08,1.04-.24.31-.16.61-.39.9-.69l.24.1h-.08c-.26.42-.61.75-1.04,1-.43.25-.95.37-1.55.37s-1.09-.12-1.54-.35-.8-.57-1.06-1.01c-.26-.44-.39-.97-.39-1.59,0-.65.15-1.22.45-1.69s.7-.85,1.19-1.11c.5-.27,1.04-.4,1.64-.4,1.04,0,1.85.35,2.43,1.05s.86,1.69.86,2.97c0,1.02-.22,1.95-.67,2.79-.45.84-1.1,1.57-1.97,2.16-.86.6-1.92,1.05-3.16,1.36Z"/>
      </g>
      <path d="M92.45,296.12c-.3.25-.42.5-.42.66,0,.25.24.53.86.53.51,0,1.11-.01,1.57-.01.89,0,2.06.3,2.06,1.69,0,1.48-1.76,2.83-3.62,2.83-1.63,0-2.48-.92-2.5-1.74,0-.31.13-.57.36-.79.3-.29.81-.71,1.13-.95-.51-.15-.87-.47-1.05-.76-.13-.21-.18-.48-.18-.63.55-.21,1.05-.61,1.33-.98l.47.15ZM93.12,296.26c-1.36,0-2.43-.81-2.43-2.11,0-1.58,1.43-2.32,2.56-2.32.48,0,.95.12,1.39.35.63,0,1.5-.11,1.89-.21l.08.12c-.08.23-.3.63-.52.76-.21,0-.66-.06-.86-.07.23.31.39.74.39,1.25,0,1.5-1.27,2.22-2.5,2.22ZM93.42,298.38c-.69,0-1.01.08-1.25.29-.36.3-.62.69-.62,1.08,0,.77.78,1.34,1.88,1.34,1.29,0,2.03-.65,2.03-1.52,0-.48-.24-.85-.64-1.01-.36-.14-.82-.17-1.39-.17ZM93.12,292.29c-.6,0-1.13.56-1.13,1.66s.52,1.85,1.27,1.85c.6-.02,1.11-.55,1.11-1.66s-.48-1.84-1.24-1.84Z"/>
      <line class="cls-2" x1="89.77" y1="289.46" x2="96.89" y2="289.46"/>
      <path d="M386.37,316.39c-.3.25-.42.5-.42.66,0,.25.24.53.86.53.5,0,1.11-.01,1.57-.01.89,0,2.05.3,2.05,1.69,0,1.48-1.76,2.83-3.62,2.83-1.63,0-2.48-.92-2.5-1.74,0-.31.13-.57.36-.79.3-.29.81-.71,1.13-.95-.51-.15-.87-.47-1.05-.76-.13-.21-.18-.48-.18-.63.55-.21,1.05-.61,1.33-.98l.47.15ZM387.04,316.53c-1.36,0-2.43-.81-2.43-2.11,0-1.58,1.43-2.32,2.56-2.32.49,0,.95.12,1.39.35.63,0,1.5-.11,1.89-.21l.08.12c-.08.23-.3.63-.52.76-.21,0-.66-.06-.86-.07.23.31.39.74.39,1.25,0,1.5-1.27,2.22-2.5,2.22ZM387.34,318.65c-.69,0-1.01.08-1.25.29-.36.3-.62.69-.62,1.08,0,.77.78,1.34,1.88,1.34,1.29,0,2.03-.65,2.03-1.52,0-.48-.25-.85-.64-1.01-.36-.14-.82-.17-1.39-.17ZM387.04,312.56c-.6,0-1.13.56-1.13,1.66s.52,1.85,1.27,1.85c.6-.02,1.11-.55,1.11-1.66s-.48-1.84-1.24-1.84Z"/>
      <line class="cls-2" x1="383.69" y1="309.73" x2="390.81" y2="309.73"/>
    </g>
  </g>
</svg>