<?xml version="1.0" encoding="UTF-8"?>
<svg xmlns="http://www.w3.org/2000/svg" version="1.1" viewBox="0 0 600 600">
  <defs>
    <style>
      .cls-1 {
        stroke: #000;
      }

      .cls-1, .cls-2 {
        fill: none;
        stroke-miterlimit: 10;
      }

      .cls-3 {
        fill: #231815;
      }

      .cls-4 {
        fill: #e60012;
      }

      .cls-5 {
        fill: blue;
      }

      .cls-2 {
        stroke: #e60012;
      }
    </style>
  </defs>
  <!-- Generator: Adobe Illustrator 28.7.1, SVG Export Plug-In . SVG Version: 1.2.0 Build 142)  -->
  <g>
    <g id="_레이어_1" data-name="레이어_1">
      <path class="cls-1" d="M101.25,255.33c32.17-22.93,60.85-33.9,60.85-33.9,24.71-9.45,44.23-13.49,63.03-17.39,18.29-3.79,33.56-6.88,54.33-7.82,6.72-.3,17.64-.55,50.86,2.17,28.99,2.37,43.49,3.56,63.03,6.52,0,0,76.09,11.52,98.23,36.51,2.24,2.53,7.65,8.64,8.26,17.39.47,6.83-2.18,12.24-4.35,16.52-5.54,10.96-13.43,17.43-16.08,19.56-27.17,21.82-58.68,37.38-58.68,37.38-10.89,5.38-25.37,12.47-45.64,19.99-21.51,7.98-37.85,14.04-60.85,16.95-19.43,2.46-34.67,1.53-44.77.87-19.22-1.26-32.87-4.25-50.86-8.26-35.23-7.86-29.04-10.2-77.37-23.47-12-3.29-29.5-7.85-45.21-19.99-6.63-5.13-12.44-11.22-15.21-19.99-.9-2.86-2.33-8.69-1.3-15.21,2.06-13.02,12.77-21.43,21.73-27.82Z"/>
      <path class="cls-4" d="M417.69,304.88c-20.65-2.75-26.41-5.02-28.91-6.09-2.45-1.04-5.28-2.26-8.69-4.56-4.58-3.09-12.05-8.12-14.34-16.52-2.03-7.44.96-13.97,3.91-20.43,3.64-7.97,8.39-12.88,12.39-16.95,11.07-11.27,22.6-16.31,26.3-17.82,5.63-2.3,13.3-5.34,23.69-5.22,2.06.02,7.57.21,14.34,2.17,4.52,1.31,12.81,3.81,20.43,11.08,5.41,5.16,2.86,6.1,9.35,13.04,5.12,5.49,9.15,7.67,10.43,13.26.18.79.19,2.77.22,6.74.04,7.05.07,10.57-.43,13.26-1.28,6.88-4.48,11.56-5.22,12.61-2.5,3.55-5.07,5.55-8.04,7.82-4.59,3.51-10.79,8.26-19.56,10-3.36.66-8.15.31-17.6-.43-6.34-.5-12.16-1.14-18.26-1.96Z"/>
      <circle class="cls-5" cx="437.82" cy="250.81" r="8.91"/>
      <circle cx="140.06" cy="282" r="6.43"/>
      <circle cx="148.63" cy="285.02" r="6.43"/>
      <circle cx="148.52" cy="277.4" r="6.43"/>
      <circle cx="181.12" cy="269.14" r="6.43"/>
      <circle cx="186.12" cy="277.45" r="6.43"/>
      <circle cx="166.34" cy="291.45" r="6.43"/>
      <circle cx="182.21" cy="290.3" r="6.43"/>
      <circle cx="198.97" cy="301.94" r="6.43"/>
      <circle cx="190.46" cy="307.39" r="6.43"/>
      <circle cx="205.4" cy="304.3" r="6.43"/>
      <circle cx="207.2" cy="290.3" r="6.43"/>
      <circle cx="208.72" cy="314.8" r="6.43"/>
      <circle cx="216.11" cy="305.42" r="6.43"/>
      <circle cx="211.82" cy="332.03" r="6.43"/>
      <circle cx="196.89" cy="341.72" r="6.43"/>
      <circle cx="177.61" cy="338.46" r="6.43"/>
      <circle cx="179.69" cy="319.18" r="6.43"/>
      <circle cx="169.35" cy="314.8" r="6.43"/>
      <circle cx="145.91" cy="311.34" r="6.43"/>
      <circle cx="140.91" cy="325.6" r="6.43"/>
      <circle cx="152.34" cy="334.33" r="6.43"/>
      <circle cx="118.75" cy="304.3" r="6.43"/>
      <circle cx="98.97" cy="295.52" r="6.43"/>
      <circle cx="93.97" cy="307.39" r="6.43"/>
      <circle cx="102.45" cy="314.8" r="6.43"/>
      <circle cx="91.8" cy="271.02" r="6.43"/>
      <circle cx="96.02" cy="280.21" r="6.43"/>
      <circle cx="108.87" cy="275.57" r="6.43"/>
      <circle cx="114.18" cy="262.72" r="6.43"/>
      <circle cx="121.73" cy="252.83" r="6.43"/>
      <circle cx="124.18" cy="262.72" r="6.43"/>
      <circle cx="148.63" cy="241.9" r="6.43"/>
      <circle cx="148.63" cy="256.29" r="6.43"/>
      <circle cx="163.95" cy="244.44" r="6.43"/>
      <circle cx="182.21" cy="231.59" r="6.43"/>
      <circle cx="196.89" cy="229.05" r="6.43"/>
      <circle cx="190.46" cy="248.33" r="6.43"/>
      <circle cx="207.2" cy="217.36" r="6.43"/>
      <circle cx="220.05" cy="223.78" r="6.43"/>
      <circle cx="208.72" cy="252.83" r="6.43"/>
      <circle cx="218.25" cy="244.44" r="6.43"/>
      <circle cx="221.57" cy="249.86" r="6.43"/>
      <circle cx="220.05" cy="260" r="6.43"/>
      <circle cx="208.72" cy="269.14" r="6.43"/>
      <circle cx="230.02" cy="294.85" r="6.43"/>
      <circle cx="231.98" cy="310.73" r="6.43"/>
      <circle cx="244.83" cy="304.3" r="6.43"/>
      <circle cx="243.93" cy="282" r="6.43"/>
      <circle cx="241.75" cy="246.4" r="6.43"/>
      <circle cx="243.93" cy="233.55" r="6.43"/>
      <circle cx="247.19" cy="216.19" r="6.43"/>
      <circle cx="265.23" cy="227.12" r="6.43"/>
      <circle cx="278.05" cy="220.69" r="6.43"/>
      <circle cx="266.53" cy="209.77" r="6.43"/>
      <circle cx="279.38" cy="207.84" r="6.43"/>
      <circle cx="241.75" cy="321.22" r="6.43"/>
      <circle cx="273.11" cy="332.69" r="6.43"/>
      <circle cx="340.59" cy="353.09" r="6.43"/>
      <circle cx="243.22" cy="351.97" r="6.43"/>
      <circle cx="220.5" cy="327.88" r="6.43"/>
      <circle cx="288.43" cy="292.11" r="6.43"/>
      <circle cx="333.2" cy="300.5" r="6.43"/>
      <circle cx="387.88" cy="269.25" r="6.43"/>
      <circle cx="402.53" cy="268.37" r="6.43"/>
      <circle cx="243.6" cy="278.25" r="6.43"/>
      <circle cx="311.08" cy="298.65" r="6.43"/>
      <circle cx="213.71" cy="297.53" r="6.43"/>
      <circle cx="190.99" cy="273.44" r="6.43"/>
      <circle cx="258.92" cy="237.67" r="6.43"/>
      <circle cx="303.69" cy="246.06" r="6.43"/>
      <circle cx="360.2" cy="220.35" r="6.43"/>
      <circle cx="373.02" cy="213.92" r="6.43"/>
      <circle cx="302.18" cy="319.5" r="6.43"/>
      <circle cx="369.66" cy="339.9" r="6.43"/>
      <circle cx="272.3" cy="338.78" r="6.43"/>
      <circle cx="249.57" cy="314.69" r="6.43"/>
      <circle cx="317.51" cy="278.92" r="6.43"/>
      <circle cx="418.78" cy="286.67" r="6.43"/>
      <circle cx="418.78" cy="261.6" r="6.43"/>
      <circle cx="441.02" cy="279.92" r="6.43"/>
      <circle cx="292.5" cy="306.47" r="6.43"/>
      <circle cx="315.69" cy="320.48" r="6.43"/>
      <circle cx="326.4" cy="321.6" r="6.43"/>
      <circle cx="258.92" cy="258.07" r="6.43"/>
      <circle cx="258.92" cy="272.46" r="6.43"/>
      <circle cx="274.24" cy="260.62" r="6.43"/>
      <circle cx="292.5" cy="247.76" r="6.43"/>
      <circle cx="301.28" cy="289.62" r="6.43"/>
      <circle cx="292.33" cy="340.97" r="6.43"/>
      <circle cx="315.53" cy="354.97" r="6.43"/>
      <circle cx="326.24" cy="356.09" r="6.43"/>
      <circle cx="258.76" cy="292.57" r="6.43"/>
      <circle cx="258.76" cy="306.96" r="6.43"/>
      <circle cx="274.08" cy="295.11" r="6.43"/>
      <circle cx="292.33" cy="282.26" r="6.43"/>
      <circle cx="301.11" cy="324.11" r="6.43"/>
      <circle cx="355.69" cy="266.24" r="6.43"/>
      <circle cx="378.88" cy="280.24" r="6.43"/>
      <circle cx="393.5" cy="293.09" r="6.43"/>
      <circle cx="322.11" cy="217.84" r="6.43"/>
      <circle cx="322.11" cy="232.23" r="6.43"/>
      <circle cx="337.43" cy="220.38" r="6.43"/>
      <circle cx="355.69" cy="207.53" r="6.43"/>
      <circle cx="364.47" cy="249.38" r="6.43"/>
      <circle cx="365.04" cy="305.67" r="6.43"/>
      <circle cx="388.24" cy="319.67" r="6.43"/>
      <circle cx="398.95" cy="320.79" r="6.43"/>
      <circle cx="331.47" cy="257.27" r="6.43"/>
      <circle cx="331.47" cy="271.66" r="6.43"/>
      <circle cx="346.79" cy="259.81" r="6.43"/>
      <circle cx="381.81" cy="253.38" r="6.43"/>
      <circle cx="373.82" cy="288.81" r="6.43"/>
      <circle cx="321.95" cy="306.47" r="6.43"/>
      <circle cx="345.14" cy="320.48" r="6.43"/>
      <circle cx="355.86" cy="321.6" r="6.43"/>
      <circle cx="288.37" cy="258.07" r="6.43"/>
      <circle cx="288.37" cy="272.46" r="6.43"/>
      <circle cx="303.7" cy="260.62" r="6.43"/>
      <circle cx="321.95" cy="247.76" r="6.43"/>
      <circle cx="330.73" cy="289.62" r="6.43"/>
      <circle cx="398.95" cy="251.94" r="6.43"/>
      <circle cx="432.85" cy="267.06" r="6.43"/>
      <circle cx="408.31" cy="232.66" r="6.43"/>
      <circle cx="327.38" cy="288.16" r="6.43"/>
      <circle cx="361.29" cy="303.28" r="6.43"/>
      <circle cx="336.74" cy="268.88" r="6.43"/>
      <circle cx="260.55" cy="323.5" r="6.43"/>
      <circle cx="266.53" cy="359.93" r="6.43"/>
      <circle cx="390.68" cy="234.24" r="6.43"/>
      <circle cx="413.65" cy="246.06" r="6.43"/>
      <circle cx="430.51" cy="227.82" r="6.43"/>
      <circle cx="444.25" cy="227.82" r="6.43"/>
      <circle cx="437.82" cy="294.07" r="6.43"/>
      <circle cx="461.22" cy="288.16" r="6.43"/>
      <circle cx="476.58" cy="274.79" r="6.43"/>
      <circle cx="474.08" cy="257.27" r="6.43"/>
      <circle cx="467.65" cy="243.81" r="6.43"/>
      <circle cx="451.95" cy="239.63" r="6.43"/>
      <circle cx="422.49" cy="312.09" r="6.43"/>
      <g>
        <line class="cls-3" x1="503.31" y1="319.5" x2="450.68" y2="263.69"/>
        <g>
          <line class="cls-1" x1="503.31" y1="319.5" x2="454.77" y2="268.04"/>
          <polygon points="459.4 267.54 455.62 268.93 454.01 272.62 450.68 263.69 459.4 267.54"/>
        </g>
      </g>
      <g>
        <line class="cls-4" x1="459.63" y1="356.09" x2="449.63" y2="309.71"/>
        <g>
          <line class="cls-2" x1="459.63" y1="356.09" x2="451.12" y2="316.61"/>
          <polygon class="cls-4" points="449.63 309.71 455.7 318.58 451.23 317.12 447.76 320.29 449.63 309.71"/>
        </g>
      </g>
      <path d="M110.9,235.42l-.2.88c-.52.06-.93.09-1.2.09-.44,0-1.03-.04-1.76-.11-.78-.07-1.45-.11-2.01-.11-.44,0-.9.07-1.37.22.42-1.19.9-2.83,1.45-4.94l1.19-4.64-4.18.15c-.73.04-1.49.1-2.26.17-.7,2.75-1.42,4.78-2.16,6.1-.74,1.32-1.59,2.29-2.54,2.91-.95.62-1.87.93-2.74.93s-1.59-.21-2.19-.62c-.44-.29-.66-.65-.66-1.08,0-.26.09-.48.26-.66.17-.18.39-.27.63-.27.4,0,.81.28,1.24.85.26.34.47.56.62.66.16.1.34.15.53.15.8,0,1.56-.65,2.26-1.95s1.74-4.5,3.1-9.62l1.51-5.65c-2.06,0-3.61.34-4.64,1.02-1.03.68-1.55,1.45-1.55,2.3,0,.29.14.65.42,1.1.25.41.37.75.37,1,0,.3-.1.54-.29.73-.19.19-.43.29-.72.29-.36,0-.67-.17-.93-.52-.26-.34-.39-.85-.39-1.51,0-1.19.43-2.25,1.3-3.17s2.12-1.56,3.77-1.95c.95-.22,2.84-.32,5.67-.32-.76,1.5-1.61,4.16-2.56,7.97,2.73,0,4.87-.1,6.44-.29.89-2.98,1.67-5.07,2.35-6.25.68-1.18,1.44-2.03,2.29-2.56.85-.52,1.8-.79,2.85-.79.91,0,1.6.17,2.09.52s.73.74.73,1.18c0,.26-.09.47-.26.63-.17.17-.4.25-.68.25-.36,0-.76-.26-1.22-.77-.46-.51-.87-.77-1.23-.77-.77,0-1.53.72-2.28,2.15-1.34,2.55-2.88,7.94-4.64,16.17.17.02.42.06.74.11.58.1,1.06.15,1.41.15.42,0,.9-.05,1.43-.15Z"/>
      <g>
        <path d="M449.51,363.02v-.46h3.97v.46l-1.74.16h-.66l-1.57-.16ZM453.68,370.89l-3.33-8.34h1.47l2.7,7.25h-.27l.1-.21,2.46-7.04h.62l-3.12,8.34h-.64ZM455.19,363.02v-.46h3.15v.46l-1.3.16h-.27l-1.58-.16Z"/>
        <path d="M461.19,371.05c-.64,0-1.17-.18-1.58-.54s-.62-.88-.62-1.54c0-.42.09-.79.27-1.11.18-.33.48-.62.9-.87.42-.26.98-.49,1.69-.69.45-.14.92-.27,1.41-.4.49-.13.95-.24,1.38-.34v.4c-.43.11-.86.22-1.3.34s-.84.25-1.2.39c-.68.25-1.17.54-1.45.88-.28.34-.42.74-.42,1.18,0,.49.14.86.41,1.12.27.26.63.38,1.08.38.25,0,.49-.05.72-.14.23-.1.5-.26.8-.5.3-.24.65-.55,1.06-.96l.14.75h-.38c-.33.35-.64.65-.94.9-.29.25-.59.43-.9.55-.31.12-.66.18-1.06.18ZM465.46,371.04c-.48,0-.84-.16-1.08-.49-.24-.33-.38-.77-.41-1.34v-4.14c0-.6-.06-1.06-.19-1.38s-.33-.55-.59-.68-.61-.19-1.04-.19c-.31,0-.62.05-.93.14-.31.09-.64.23-.99.42l.69-.43-.26,1.26c-.04.29-.13.49-.26.61-.13.12-.3.18-.5.18-.38,0-.62-.19-.7-.58.16-.65.53-1.16,1.1-1.54.58-.37,1.31-.56,2.21-.56s1.62.22,2.07.66.68,1.16.68,2.15v3.95c0,.5.06.84.18,1.02.12.18.28.26.5.26.14,0,.26-.03.37-.09.11-.06.22-.16.35-.3l.26.24c-.17.28-.38.48-.62.62-.24.13-.51.2-.82.2Z"/>
        <path d="M469.04,370.81c0-.26.02-.6.02-1.04,0-.44.01-.89.02-1.37,0-.47,0-.89,0-1.26v-.96c0-.55,0-1.04,0-1.47,0-.43-.02-.84-.04-1.23l-1.41-.06v-.42l2.46-.64.21.13.1,2.26v2.4c0,.36,0,.78,0,1.26,0,.47.01.93.02,1.37,0,.44.01.78.02,1.04h-1.41ZM467.71,370.81v-.45l1.78-.19h.66l1.81.19v.45h-4.24ZM470.39,365.71l-.34-.83h.29c.16-.52.38-.97.67-1.35.29-.38.61-.67.97-.89.36-.21.72-.32,1.1-.32.31,0,.58.06.82.18.23.12.39.3.46.54-.01.29-.08.51-.21.67-.13.16-.34.24-.62.24-.2,0-.38-.05-.54-.15s-.33-.25-.51-.46l-.37-.35.72.03c-.55.15-1.03.44-1.42.87s-.73,1.04-1.02,1.82Z"/>
      </g>
    </g>
    <g id="_격리_모드" data-name="격리_모드">
      <path d="M520.82,301.53c0,.38-.15.67-.44.9-.29.23-.55.32-.79.32s-.41-.03-.55-.12-.32-.17-.47-.26-.32-.2-.49-.29-.38-.15-.61-.15c-.52,0-.99.17-1.37.55-.38.35-.73.84-1.05,1.46s-.58,1.31-.84,2.13-.49,1.69-.76,2.59h3.76l-.2.99h-3.7c-.52,2.15-1.08,4.16-1.66,6.08-.23.84-.49,1.69-.79,2.56s-.55,1.69-.84,2.47c-.29.79-.58,1.54-.9,2.24s-.61,1.28-.9,1.78c-.9,1.48-1.8,2.62-2.74,3.44-.9.82-1.86,1.22-2.82,1.22-.44,0-.76-.15-.93-.44s-.29-.64-.29-1.11c0-.38.17-.64.52-.76.35-.15.73-.2,1.16-.26h1.28c.41,0,.73,0,.9-.15.49-.29.87-.58,1.16-.93.29-.32.55-.82.79-1.43s.44-1.46.67-2.47.49-2.39.87-4.08c.15-.64.32-1.43.61-2.36.26-.93.52-1.8.79-2.68.32-1.02.64-2.07.99-3.14h-3.17l.2-.99h3.38c.32-.93.7-1.89,1.22-2.91.49-1.02,1.08-1.95,1.72-2.82.64-.84,1.37-1.57,2.13-2.15s1.57-.84,2.45-.84c.7,0,1.14.17,1.4.55s.35.7.35,1.05h-.03Z"/>
    </g>
  </g>
</svg>