<?xml version="1.0" encoding="UTF-8"?>
<svg xmlns="http://www.w3.org/2000/svg" version="1.1" viewBox="0 0 600 600">
  <defs>
    <style>
      .cls-1, .cls-2, .cls-3, .cls-4 {
        fill: none;
        stroke-miterlimit: 10;
      }

      .cls-1, .cls-4 {
        stroke: #231815;
      }

      .cls-2 {
        stroke: #00a0e9;
      }

      .cls-5 {
        fill: #e60012;
      }

      .cls-6 {
        fill: #00a0e9;
      }

      .cls-3 {
        stroke: #e60012;
      }

      .cls-4 {
        stroke-width: .5px;
      }
    </style>
  </defs>
  <!-- Generator: Adobe Illustrator 28.7.1, SVG Export Plug-In . SVG Version: 1.2.0 Build 142)  -->
  <g>
    <g id="_레이어_1" data-name="레이어_1">
      <path class="cls-6" d="M157.9,270.06l-2.62,3.39h-11.33l.2-.61c.77,0,1.35-.08,1.74-.23.38-.15.66-.5.83-1.02l3.61-10.83c.22-.68-.41-1.03-1.91-1.03l.21-.63h11.27l.2,3.43-.57.28c-.25-.67-.51-1.21-.76-1.62s-.54-.72-.86-.93c-.33-.21-.7-.35-1.12-.42s-.92-.1-1.51-.1c-.55,0-1.01.02-1.36.05s-.67.1-.91.19c-.24.09-.44.23-.59.42-.15.18-.27.43-.37.71l-1.56,4.69h1.72c.21,0,.49-.03.81-.09s.66-.18,1.02-.37c.35-.18.68-.44,1.01-.76s.59-.75.8-1.27h.55l-1.83,5.5h-.57c.2-.61.24-1.09.12-1.41-.12-.33-.33-.56-.59-.7s-.56-.22-.86-.24c-.29-.02-.52-.03-.65-.03h-1.72l-1.69,5.06c-.12.39-.17.67-.12.86.04.19.16.33.36.39.19.07.46.1.79.1h1.16c1.25,0,2.42-.24,3.51-.73,1.09-.49,2.14-1.26,3.19-2.31l.43.24h-.01Z"/>
      <path class="cls-6" d="M160.83,276.43c-.11.17-.25.37-.42.6s-.36.45-.56.64c-.2.2-.41.38-.62.52s-.41.21-.59.21c-.12,0-.24-.04-.34-.11-.1-.07-.18-.17-.23-.3-.06-.12-.09-.26-.1-.43,0-.16.02-.31.08-.48l1.45-3.83c.1-.25.15-.44.15-.56s-.02-.2-.06-.23c-.04-.04-.11-.04-.19-.02-.08.02-.15.05-.21.09-.12.06-.25.16-.38.28s-.24.25-.37.4-.22.27-.3.4c-.08.12-.14.21-.18.27l-.19-.19c.09-.17.22-.36.39-.57s.35-.41.54-.6c.19-.18.39-.35.58-.48.2-.13.39-.19.56-.19.11,0,.21.02.31.07.1.05.18.12.25.22s.1.24.1.42-.04.4-.14.66l-1.5,3.89s-.02.07-.03.14,0,.13,0,.2.03.13.07.19c.04.06.1.08.19.08.12,0,.25-.06.42-.19s.31-.28.47-.46c.15-.17.29-.35.42-.51.12-.17.21-.29.26-.38l.2.24h-.03ZM161.5,268.97c0,.06-.02.12-.05.2-.03.08-.08.16-.15.24-.07.08-.15.14-.25.2-.1.05-.22.08-.38.08-.06,0-.13-.01-.21-.04s-.14-.07-.21-.12c-.06-.05-.12-.11-.16-.18-.04-.07-.07-.15-.07-.24,0-.2.07-.4.21-.57.14-.17.33-.26.54-.26s.38.07.52.21c.13.14.2.3.2.47h.02Z"/>
      <path class="cls-6" d="M169.57,276.38c-.35.61-.69,1.1-1.06,1.46-.37.37-.72.56-1.09.56-.26,0-.44-.07-.54-.21-.09-.14-.14-.31-.14-.51s.03-.38.08-.56.09-.31.12-.39l1.3-3.46s.02-.1.03-.19.01-.19,0-.28-.04-.18-.09-.25-.13-.1-.25-.1c-.13,0-.27.05-.42.14-.14.09-.34.3-.58.62-.24.33-.58.8-.99,1.44-.42.64-.97,1.49-1.65,2.57l-.52,1.06h-.97l1.59-4.31c.03-.07.06-.19.11-.36s.08-.33.11-.5c.02-.17.02-.31,0-.44s-.09-.19-.21-.19c-.05,0-.14.04-.26.12s-.25.2-.41.36-.3.34-.48.55c-.17.21-.34.44-.5.68l-.25-.15c.1-.16.23-.36.42-.6.17-.24.37-.48.58-.71.2-.23.42-.43.64-.59.21-.16.42-.24.6-.24.21,0,.36.06.46.17.09.12.15.26.17.45s.01.39-.03.62c-.04.23-.1.46-.17.69-.08.28-.17.58-.27.88-.09.27-.19.58-.3.93s-.23.71-.38,1.09c.46-.73.86-1.36,1.2-1.88.34-.53.64-.97.89-1.32.25-.36.48-.64.66-.85s.35-.38.5-.49.28-.18.41-.22.25-.06.4-.06c.22,0,.41.06.53.17.12.12.21.25.25.42s.06.34.05.51c-.01.18-.04.33-.07.45l-1.35,3.62s-.02.06-.04.14c-.02.07-.03.15-.03.23s.01.15.05.21.09.1.18.1c.15,0,.3-.06.47-.19s.3-.28.44-.46c.13-.17.25-.35.37-.51.11-.17.19-.29.24-.38l.2.18v-.02Z"/>
      <path class="cls-5" d="M159.12,233.22l-2.56,3.31h-11.05l.2-.59c.75,0,1.32-.08,1.69-.23s.64-.48.81-.99l3.52-10.57c.22-.66-.4-1-1.86-1l.2-.61h10.99l.2,3.35-.55.28c-.25-.65-.49-1.18-.74-1.58-.24-.4-.52-.7-.85-.91-.32-.2-.68-.34-1.09-.41-.41-.07-.91-.1-1.47-.1-.53,0-.98.02-1.33.05s-.65.1-.89.19c-.24.09-.43.23-.57.41-.15.18-.27.41-.36.69l-1.53,4.58h1.68c.21,0,.48-.03.79-.09.32-.06.64-.18.99-.36.34-.18.66-.43.98-.74.31-.32.57-.73.78-1.24h.54l-1.79,5.36h-.56c.2-.59.24-1.06.12-1.38-.12-.32-.31-.54-.57-.68s-.54-.22-.84-.24-.5-.03-.63-.03h-1.68l-1.65,4.94c-.12.37-.16.65-.12.84.04.19.16.31.35.38s.45.1.77.1h1.13c1.23,0,2.36-.24,3.42-.71,1.06-.48,2.09-1.23,3.11-2.25l.42.24h-.01Z"/>
      <path class="cls-5" d="M164.09,236.97c0,.61-.11,1.19-.32,1.72s-.49,1-.82,1.4-.69.71-1.09.94c-.39.23-.78.34-1.15.34-.26,0-.5-.05-.71-.16s-.39-.25-.54-.43-.26-.38-.34-.62c-.08-.24-.12-.49-.12-.75s.04-.57.12-.91.2-.65.34-.99.32-.64.53-.96.43-.58.68-.83.51-.42.78-.56.56-.21.87-.21c.2,0,.41.04.62.14.21.09.4.22.57.39s.31.38.41.63.16.53.16.86h-.01ZM163.3,236.53c0-.12-.02-.25-.05-.39-.03-.15-.08-.28-.16-.41-.07-.13-.18-.24-.31-.33s-.29-.14-.49-.14c-.26,0-.51.08-.73.25s-.43.38-.61.65c-.18.26-.35.56-.49.9s-.27.66-.36.99c-.1.32-.17.62-.22.92s-.08.51-.08.68c0,.13,0,.27.03.43.02.16.06.31.13.46.07.14.17.27.31.37s.32.15.56.15c.28,0,.53-.09.76-.26.23-.17.43-.4.62-.67s.34-.58.48-.94c.14-.34.25-.67.34-1.02.09-.33.16-.64.2-.94.04-.29.07-.52.07-.69h0Z"/>
      <path class="cls-5" d="M171.61,234.98c-.31.7-.58,1.38-.84,2.02-.1.27-.21.56-.32.86s-.21.58-.3.87-.17.54-.24.78-.12.46-.15.64c-.02.07-.02.16-.02.26s.02.18.06.25c.03.06.09.1.16.12.07.01.17-.03.29-.12.12-.1.28-.26.46-.48.18-.23.41-.55.67-.98l.21.12c-.3.52-.57.93-.83,1.22s-.47.5-.67.62-.37.18-.52.16c-.15-.01-.27-.06-.37-.15-.1-.09-.17-.19-.21-.32-.04-.13-.06-.25-.05-.35.02-.22.08-.51.18-.87.1-.36.21-.73.34-1.12s.25-.75.37-1.11.22-.62.29-.83c-.49.89-.95,1.63-1.36,2.23-.41.6-.78,1.1-1.12,1.48-.33.38-.61.65-.86.82s-.44.24-.6.24c-.11,0-.22-.02-.35-.07s-.23-.13-.32-.25-.14-.29-.14-.5.05-.48.18-.82l1.38-3.45c.09-.23.12-.41.09-.54s-.12-.18-.26-.15-.33.17-.56.4c-.23.24-.5.6-.82,1.11l-.22-.16c.09-.14.21-.32.35-.54.15-.22.32-.44.51-.65s.39-.4.59-.55c.21-.15.41-.23.61-.23.11,0,.22.04.32.11s.17.18.22.32.07.31.06.5c0,.2-.06.42-.16.66l-1.25,3.07c-.1.24-.15.44-.15.62s.02.31.08.41.14.14.25.14.23-.06.35-.18c.23-.23.46-.48.68-.75.23-.28.45-.57.66-.89.21-.31.42-.62.62-.94.2-.31.39-.61.57-.91.41-.69.81-1.41,1.18-2.13h.93-.01Z"/>
      <path class="cls-5" d="M176.55,235.1l-.1.44h-1.42l-1.42,4.79c-.03.11-.01.21.04.31s.15.13.29.1.32-.15.55-.37c.23-.21.51-.58.85-1.1l.24.14c-.1.16-.23.36-.39.58-.17.23-.35.44-.55.64s-.4.37-.6.51c-.21.14-.4.21-.58.21-.32,0-.53-.12-.62-.37-.09-.25-.07-.58.05-1l1.39-4.45h-1.17l.12-.44h1.15l.75-2.54h.84l-.79,2.54h1.39Z"/>
      <path class="cls-6" d="M541.8,337.69l-2.62,3.39h-11.33l.2-.61c.77,0,1.35-.08,1.74-.23.38-.15.66-.5.83-1.02l3.61-10.83c.22-.68-.41-1.03-1.91-1.03l.21-.63h11.27l.2,3.43-.57.28c-.25-.67-.51-1.21-.76-1.62s-.54-.72-.86-.93c-.33-.21-.7-.35-1.12-.42s-.92-.1-1.51-.1c-.55,0-1.01.02-1.36.05s-.67.1-.91.19c-.24.09-.44.23-.59.42-.15.18-.27.43-.37.71l-1.56,4.69h1.72c.21,0,.49-.03.81-.09s.66-.18,1.02-.37c.35-.18.68-.44,1.01-.76s.59-.75.8-1.27h.55l-1.83,5.5h-.57c.2-.61.24-1.09.12-1.41-.12-.33-.33-.56-.59-.7s-.56-.22-.86-.24c-.29-.02-.52-.03-.65-.03h-1.72l-1.69,5.06c-.12.39-.17.67-.12.86.04.19.16.33.36.39.19.07.46.1.79.1h1.16c1.25,0,2.42-.24,3.51-.73,1.09-.49,2.14-1.26,3.19-2.31l.43.24h-.01Z"/>
      <path class="cls-6" d="M544.73,344.06c-.11.17-.25.37-.42.6s-.36.45-.56.64c-.2.2-.41.38-.62.52s-.41.21-.59.21c-.12,0-.24-.04-.34-.11-.1-.07-.18-.17-.23-.3-.06-.12-.09-.26-.1-.43,0-.16.02-.31.08-.48l1.45-3.83c.1-.25.15-.44.15-.56s-.02-.2-.06-.23c-.04-.04-.11-.04-.19-.02-.08.02-.15.05-.21.09-.12.06-.25.16-.38.28s-.24.25-.37.4-.22.27-.3.4c-.08.12-.14.21-.18.27l-.19-.19c.09-.17.22-.36.39-.57s.35-.41.54-.6c.19-.18.39-.35.58-.48.2-.13.39-.19.56-.19.11,0,.21.02.31.07.1.05.18.12.25.22s.1.24.1.42-.04.4-.14.66l-1.5,3.89s-.02.07-.03.14,0,.13,0,.2.03.13.07.19c.04.06.1.08.19.08.12,0,.25-.06.42-.19s.31-.28.47-.46c.15-.17.29-.35.42-.51.12-.17.21-.29.26-.38l.2.24h-.03ZM545.4,336.6c0,.06-.02.12-.05.2-.03.08-.08.16-.15.24-.07.08-.15.14-.25.2-.1.05-.22.08-.38.08-.06,0-.13-.01-.21-.04s-.14-.07-.21-.12c-.06-.05-.12-.11-.16-.18-.04-.07-.07-.15-.07-.24,0-.2.07-.4.21-.57.14-.17.33-.26.54-.26s.38.07.52.21c.13.14.2.3.2.47h.02Z"/>
      <path class="cls-6" d="M553.47,344.01c-.35.61-.69,1.1-1.06,1.46-.37.37-.72.56-1.09.56-.26,0-.44-.07-.54-.21-.09-.14-.14-.31-.14-.51s.03-.38.08-.56.09-.31.12-.39l1.3-3.46s.02-.1.03-.19.01-.19,0-.28-.04-.18-.09-.25-.13-.1-.25-.1c-.13,0-.27.05-.42.14-.14.09-.34.3-.58.62-.24.33-.58.8-.99,1.44-.42.64-.97,1.49-1.65,2.57l-.52,1.06h-.97l1.59-4.31c.03-.07.06-.19.11-.36s.08-.33.11-.5c.02-.17.02-.31,0-.44s-.09-.19-.21-.19c-.05,0-.14.04-.26.12s-.25.2-.41.36-.3.34-.48.55c-.17.21-.34.44-.5.68l-.25-.15c.1-.16.23-.36.42-.6.17-.24.37-.48.58-.71.2-.23.42-.43.64-.59.21-.16.42-.24.6-.24.21,0,.36.06.46.17.09.12.15.26.17.45s.01.39-.03.62c-.04.23-.1.46-.17.69-.08.28-.17.58-.27.88-.09.27-.19.58-.3.93s-.23.71-.38,1.09c.46-.73.86-1.36,1.2-1.88.34-.53.64-.97.89-1.32.25-.36.48-.64.66-.85s.35-.38.5-.49.28-.18.41-.22.25-.06.4-.06c.22,0,.41.06.53.17.12.12.21.25.25.42s.06.34.05.51c-.01.18-.04.33-.07.45l-1.35,3.62s-.02.06-.04.14c-.02.07-.03.15-.03.23s.01.15.05.21.09.1.18.1c.15,0,.3-.06.47-.19s.3-.28.44-.46c.13-.17.25-.35.37-.51.11-.17.19-.29.24-.38l.2.18v-.02Z"/>
      <path class="cls-5" d="M544.5,288.86l-2.56,3.31h-11.05l.2-.59c.75,0,1.32-.08,1.69-.23s.64-.48.81-.99l3.52-10.57c.22-.66-.4-1-1.86-1l.2-.61h10.99l.2,3.35-.55.28c-.25-.65-.49-1.18-.74-1.58-.24-.4-.52-.7-.85-.91-.32-.2-.68-.34-1.09-.41-.41-.07-.91-.1-1.47-.1-.53,0-.98.02-1.33.05s-.65.1-.89.19c-.24.09-.43.23-.57.41-.15.18-.27.41-.36.69l-1.53,4.58h1.68c.21,0,.48-.03.79-.09.32-.06.64-.18.99-.36.34-.18.66-.43.98-.74.31-.32.57-.73.78-1.24h.54l-1.79,5.36h-.56c.2-.59.24-1.06.12-1.38-.12-.32-.31-.54-.57-.68s-.54-.22-.84-.24-.5-.03-.63-.03h-1.68l-1.65,4.94c-.12.37-.16.65-.12.84.04.19.16.31.35.38s.45.1.77.1h1.13c1.23,0,2.36-.24,3.42-.71,1.06-.48,2.09-1.23,3.11-2.25l.42.24h-.01Z"/>
      <path class="cls-5" d="M549.48,292.61c0,.61-.11,1.19-.32,1.72s-.49,1-.82,1.4-.69.71-1.09.94c-.39.23-.78.34-1.15.34-.26,0-.5-.05-.71-.16s-.39-.25-.54-.43-.26-.38-.34-.62c-.08-.24-.12-.49-.12-.75s.04-.57.12-.91.2-.65.34-.99.32-.64.53-.96.43-.58.68-.83.51-.42.78-.56.56-.21.87-.21c.2,0,.41.04.62.14.21.09.4.22.57.39s.31.38.41.63.16.53.16.86h-.01ZM548.68,292.17c0-.12-.02-.25-.05-.39-.03-.15-.08-.28-.16-.41-.07-.13-.18-.24-.31-.33s-.29-.14-.49-.14c-.26,0-.51.08-.73.25s-.43.38-.61.65c-.18.26-.35.56-.49.9s-.27.66-.36.99c-.1.32-.17.62-.22.92s-.08.51-.08.68c0,.13,0,.27.03.43.02.16.06.31.13.46.07.14.17.27.31.37s.32.15.56.15c.28,0,.53-.09.76-.26.23-.17.43-.4.62-.67s.34-.58.48-.94c.14-.34.25-.67.34-1.02.09-.33.16-.64.2-.94.04-.29.07-.52.07-.69h0Z"/>
      <path class="cls-5" d="M556.99,290.62c-.31.7-.58,1.38-.84,2.02-.1.27-.21.56-.32.86s-.21.58-.3.87-.17.54-.24.78-.12.46-.15.64c-.02.07-.02.16-.02.26s.02.18.06.25c.03.06.09.1.16.12.07.01.17-.03.29-.12.12-.1.28-.26.46-.48.18-.23.41-.55.67-.98l.21.12c-.3.52-.57.93-.83,1.22s-.47.5-.67.62-.37.18-.52.16c-.15-.01-.27-.06-.37-.15-.1-.09-.17-.19-.21-.32-.04-.13-.06-.25-.05-.35.02-.22.08-.51.18-.87.1-.36.21-.73.34-1.12s.25-.75.37-1.11.22-.62.29-.83c-.49.89-.95,1.63-1.36,2.23-.41.6-.78,1.1-1.12,1.48-.33.38-.61.65-.86.82s-.44.24-.6.24c-.11,0-.22-.02-.35-.07s-.23-.13-.32-.25-.14-.29-.14-.5.05-.48.18-.82l1.38-3.45c.09-.23.12-.41.09-.54s-.12-.18-.26-.15-.33.17-.56.4c-.23.24-.5.6-.82,1.11l-.22-.16c.09-.14.21-.32.35-.54.15-.22.32-.44.51-.65s.39-.4.59-.55c.21-.15.41-.23.61-.23.11,0,.22.04.32.11s.17.18.22.32.07.31.06.5c0,.2-.06.42-.16.66l-1.25,3.07c-.1.24-.15.44-.15.62s.02.31.08.41.14.14.25.14.23-.06.35-.18c.23-.23.46-.48.68-.75.23-.28.45-.57.66-.89.21-.31.42-.62.62-.94.2-.31.39-.61.57-.91.41-.69.81-1.41,1.18-2.13h.93-.01Z"/>
      <path class="cls-5" d="M561.93,290.74l-.1.44h-1.42l-1.42,4.79c-.03.11-.01.21.04.31s.15.13.29.1.32-.15.55-.37c.23-.21.51-.58.85-1.1l.24.14c-.1.16-.23.36-.39.58-.17.23-.35.44-.55.64s-.4.37-.6.51c-.21.14-.4.21-.58.21-.32,0-.53-.12-.62-.37-.09-.25-.07-.58.05-1l1.39-4.45h-1.17l.12-.44h1.15l.75-2.54h.84l-.79,2.54h1.39Z"/>
    </g>
    <g id="_레이어_2" data-name="레이어_2">
      <polyline class="cls-1" points="46.63 183.38 46.63 351.12 260.03 351.12"/>
      <polyline class="cls-1" points="353.93 185.47 353.93 353.21 567.32 353.21"/>
      <line class="cls-4" x1="46.63" y1="247.82" x2="260.03" y2="247.82"/>
      <line class="cls-4" x1="353.93" y1="314.86" x2="566.03" y2="314.86"/>
      <g>
        <path d="M33.06,301.69l-2.49.52.42-.73v5.03h-.5v-5.38l2.58-.08v.64ZM40.73,307.27c-.78-.02-1.57-.03-2.37-.04-.79,0-1.59,0-2.38,0h-.74c-.8,0-1.6,0-2.39,0-.79,0-1.58.02-2.37.04v-1.53c.78,0,1.58.02,2.39.02.81,0,1.65,0,2.51,0h.34c.92,0,1.79,0,2.6,0,.81,0,1.62-.01,2.41-.02v1.53ZM30.92,308.66h-.43v-2.16h.6v.17l-.17,1.99ZM37.19,303.23l-1.55.2h-.29l-1.51-.2v-.53h3.36v.53ZM35.76,306.5h-.48v-3.39h.48v3.39ZM40.73,306.5h-.49v-5.28l.39.73-2.52-.53v-.63l2.62.07v5.64ZM40.73,308.66h-.43l-.18-1.99v-.17h.62v2.16Z"/>
        <path d="M33.84,295.16h-.42v-2.67h.42l.13,1.12v.31l-.13,1.25ZM40.73,294.46l-3.29,2.21-4.02,2.7v-1.54l3.16-2.16,4.14-2.81v1.6ZM37.36,295.96l-.29.29v-.06l-1.82-1.25-1.82-1.25v-.69l3.93,2.94ZM33.84,299.95h-.42v-3.51h.42l.14,1.46v.62l-.14,1.44ZM40.73,299.4l-4.09-3.05.28-.29v.03l1.9,1.32,1.9,1.3v.7ZM40.73,295.9h-.39l-.15-1.75v-.38l.15-1.48h.39v3.61ZM40.73,300.04h-.39l-.14-1.23v-.31l.14-1.23h.39v2.77Z"/>
        <path d="M40.94,287.14c0,.43-.1.85-.29,1.27-.19.42-.53.8-1.03,1.14v.18l-.34-.21c.35-.33.6-.64.73-.94s.2-.64.2-1.02c0-.39-.1-.75-.31-1.07-.21-.32-.54-.58-1.01-.77s-1.08-.29-1.85-.29c-1.08,0-1.87.19-2.37.57-.5.38-.75.88-.75,1.5,0,.33.08.66.23.99.15.33.46.69.9,1.08l-.34.17v-.14c-.53-.36-.92-.78-1.16-1.25-.24-.47-.36-.94-.36-1.43,0-.58.15-1.09.46-1.53.31-.44.74-.79,1.31-1.05.56-.26,1.24-.39,2.04-.39s1.5.14,2.09.42c.59.28,1.04.66,1.36,1.13.32.48.48,1.02.48,1.62ZM44.37,290.7c-.35,0-.71-.02-1.09-.02s-.77,0-1.15-.01c-.39,0-.74,0-1.07,0h-4.42c-.48,0-.9,0-1.27,0-.37,0-.72.02-1.06.04l-.08,1.2h-.35l-.62-2.31.11-.18,1.16-.1h.08s5.03-.01,5.03-.01h.15s1.26.01,1.26.01c.32,0,.67,0,1.06,0s.77,0,1.16-.01c.39,0,.75-.01,1.1-.02v1.43ZM44.37,291.85h-.39l-.14-1.55v-.7l.14-1.61h.39v3.86Z"/>
        <path d="M40.94,278.99c0,.71-.14,1.34-.43,1.89-.29.55-.72.98-1.29,1.3-.57.31-1.28.47-2.12.47s-1.49-.16-2.07-.49-1.02-.76-1.34-1.3c-.31-.54-.47-1.12-.47-1.75s.13-1.17.39-1.62c.26-.44.61-.78,1.06-1.01.44-.23.95-.34,1.52-.34.34,0,.62.03.84.08v5.81h-.45v-3.92c0-.26-.07-.44-.21-.53-.14-.09-.36-.14-.67-.14-.61,0-1.09.15-1.46.45s-.55.72-.55,1.26c0,.38.12.73.37,1.04.25.31.61.56,1.09.75.48.19,1.07.28,1.77.28.76,0,1.38-.11,1.87-.34.49-.23.85-.54,1.07-.93.22-.39.34-.84.34-1.36s-.09-.92-.27-1.28-.43-.67-.76-.95l.18-.24c.5.3.9.69,1.18,1.17.28.48.42,1.05.42,1.7Z"/>
        <path d="M40.94,271.34c0,.69-.15,1.3-.45,1.83-.3.53-.73.95-1.29,1.26s-1.24.46-2.03.46c-.85,0-1.57-.17-2.16-.52s-1.04-.81-1.34-1.39c-.31-.57-.46-1.19-.46-1.85,0-.44.08-.84.25-1.21.16-.37.39-.68.67-.93.28-.25.62-.42,1-.52.35.1.53.32.53.66,0,.21-.06.39-.18.52-.12.14-.33.22-.63.26l-1.26.32.57-.77c-.18.28-.3.54-.38.79-.07.25-.11.5-.11.75,0,.47.13.89.4,1.26.27.37.65.67,1.14.88.5.21,1.09.32,1.79.32,1.01,0,1.79-.25,2.35-.74.56-.49.83-1.13.83-1.91,0-.41-.08-.8-.25-1.16s-.42-.68-.76-.97l.18-.24c.51.32.91.7,1.18,1.16.27.46.41,1.03.41,1.72Z"/>
        <path d="M40.94,264.6c0,.61-.16,1.06-.47,1.36-.31.3-.8.45-1.45.45-.23,0-.44,0-.63,0-.19,0-.41,0-.67,0h-3.77v1.34h-.43l-.13-1.64.2.27-2.37-.49v-.9l2.42.04h5.42c.42,0,.73-.08.92-.25.19-.16.29-.39.29-.69,0-.21-.03-.38-.1-.54-.06-.15-.16-.32-.28-.51l.25-.21c.26.2.46.44.59.73.14.29.2.64.2,1.05ZM33.96,265.71h-.53v-2.63h.53v2.63Z"/>
        <path d="M40.94,258.4c0,.71-.14,1.34-.43,1.89-.29.55-.72.98-1.29,1.3-.57.31-1.28.47-2.12.47s-1.49-.16-2.07-.49-1.02-.76-1.34-1.3c-.31-.54-.47-1.12-.47-1.75s.13-1.17.39-1.62c.26-.44.61-.78,1.06-1.01.44-.23.95-.34,1.52-.34.34,0,.62.03.84.08v5.81h-.45v-3.92c0-.26-.07-.44-.21-.53-.14-.09-.36-.14-.67-.14-.61,0-1.09.15-1.46.45s-.55.72-.55,1.26c0,.38.12.73.37,1.04.25.31.61.56,1.09.75.48.19,1.07.28,1.77.28.76,0,1.38-.11,1.87-.34.49-.23.85-.54,1.07-.93.22-.39.34-.84.34-1.36s-.09-.92-.27-1.28-.43-.67-.76-.95l.18-.24c.5.3.9.69,1.18,1.17.28.48.42,1.05.42,1.7Z"/>
        <path d="M40.87,248.89l-1.36.08h-4.91l-.14-.04h-4.16l-.07,1.25h-.38l-.45-2.39.13-.21,2.14.04h8.58l.08-1.23h.39l.14,2.51ZM40.94,251.19c0,.6-.16,1.13-.47,1.6-.31.47-.75.84-1.32,1.11s-1.23.4-1.99.4c-.81,0-1.51-.15-2.1-.44s-1.04-.69-1.37-1.19c-.32-.5-.48-1.06-.48-1.67,0-.42.1-.82.31-1.2.21-.38.55-.74,1.02-1.08v-.14l.32.2c-.34.32-.58.62-.72.9s-.22.59-.22.92c0,.41.1.79.32,1.13.21.34.55.61,1.02.82.47.21,1.09.31,1.85.31.72,0,1.31-.1,1.76-.29.46-.19.79-.45,1.01-.78s.32-.7.32-1.11c0-.35-.08-.68-.23-.98s-.41-.6-.76-.9l.36-.2v.13c.45.32.79.68,1.02,1.1.23.42.34.87.34,1.37Z"/>
        <path d="M33.06,234.77l-2.49.52.42-.73v5.03h-.5v-5.38l2.58-.08v.64ZM40.73,240.35c-.78-.02-1.57-.03-2.37-.03-.79,0-1.59,0-2.38,0h-.74c-.8,0-1.6,0-2.39,0-.79,0-1.58.02-2.37.03v-1.53c.78,0,1.58.02,2.39.02.81,0,1.65,0,2.51,0h.34c.92,0,1.79,0,2.6,0,.81,0,1.62-.01,2.41-.02v1.53ZM30.92,241.74h-.43v-2.16h.6v.17l-.17,1.99ZM37.19,236.31l-1.55.2h-.29l-1.51-.2v-.53h3.36v.53ZM35.76,239.58h-.48v-3.39h.48v3.39ZM40.73,239.58h-.49v-5.28l.39.73-2.52-.53v-.63l2.62.07v5.64ZM40.73,241.74h-.43l-.18-1.99v-.17h.62v2.16Z"/>
        <path d="M36.27,230.2l-.77.35v-.28c-.47-.15-.87-.35-1.21-.59-.34-.25-.6-.53-.79-.84-.19-.31-.28-.63-.28-.96,0-.28.06-.52.18-.73s.3-.35.55-.41c.25,0,.46.06.62.19s.24.32.24.6c0,.19-.05.35-.15.5s-.25.31-.43.48l-.32.32.03-.6c.16.46.42.85.79,1.17.37.32.89.59,1.56.82ZM40.73,231.6c-.23,0-.54-.02-.92-.02-.38,0-.78,0-1.2-.01-.42,0-.78,0-1.09,0h-.91c-.49,0-.91,0-1.26,0-.35,0-.7.02-1.04.04l-.08,1.19h-.35l-.62-2.32.11-.18,1.97-.08h2.17c.31,0,.67,0,1.09,0,.42,0,.82,0,1.2-.01s.69-.01.92-.02v1.44ZM40.73,232.71h-.39l-.17-1.53v-.77l.17-1.57h.39v3.86Z"/>
        <path d="M36.27,223.58l-.77.35v-.28c-.47-.15-.87-.35-1.21-.59-.34-.25-.6-.53-.79-.84-.19-.31-.28-.63-.28-.96,0-.28.06-.52.18-.73s.3-.35.55-.41c.25,0,.46.06.62.19s.24.32.24.6c0,.19-.05.35-.15.5s-.25.31-.43.48l-.32.32.03-.6c.16.46.42.85.79,1.17.37.32.89.59,1.56.82ZM40.73,224.98c-.23,0-.54-.02-.92-.02-.38,0-.78,0-1.2-.01-.42,0-.78,0-1.09,0h-.91c-.49,0-.91,0-1.26,0-.35,0-.7.02-1.04.04l-.08,1.19h-.35l-.62-2.32.11-.18,1.97-.08h2.17c.31,0,.67,0,1.09,0,.42,0,.82,0,1.2-.01s.69-.01.92-.02v1.44ZM40.73,226.09h-.39l-.17-1.53v-.77l.17-1.57h.39v3.86Z"/>
        <path d="M40.94,216.08c0,.65-.15,1.25-.44,1.79s-.73.97-1.31,1.29c-.58.32-1.28.48-2.11.48s-1.55-.17-2.12-.5c-.57-.34-1.01-.78-1.3-1.32-.29-.55-.44-1.13-.44-1.74s.15-1.23.44-1.77.73-.99,1.3-1.32c.57-.34,1.28-.5,2.12-.5s1.54.17,2.11.5c.58.33,1.02.77,1.31,1.31s.44,1.14.44,1.79ZM40.49,216.08c0-.66-.29-1.18-.87-1.55-.58-.37-1.42-.56-2.53-.56s-1.96.19-2.54.56c-.58.37-.88.89-.88,1.55s.29,1.17.88,1.54c.58.37,1.43.56,2.54.56s1.96-.19,2.53-.56c.58-.37.87-.89.87-1.54Z"/>
        <path d="M36.27,208.77l-.77.35v-.28c-.47-.15-.87-.35-1.21-.59-.34-.25-.6-.53-.79-.84-.19-.31-.28-.63-.28-.96,0-.28.06-.52.18-.73s.3-.35.55-.41c.25,0,.46.06.62.19s.24.32.24.6c0,.19-.05.35-.15.5s-.25.31-.43.48l-.32.32.03-.6c.16.46.42.85.79,1.17.37.32.89.59,1.56.82ZM40.73,210.17c-.23,0-.54-.02-.92-.02-.38,0-.78,0-1.2-.01-.42,0-.78,0-1.09,0h-.91c-.49,0-.91,0-1.26,0-.35,0-.7.02-1.04.04l-.08,1.19h-.35l-.62-2.32.11-.18,1.97-.08h2.17c.31,0,.67,0,1.09,0,.42,0,.82,0,1.2-.01s.69-.01.92-.02v1.44ZM40.73,211.28h-.39l-.17-1.53v-.77l.17-1.57h.39v3.86Z"/>
      </g>
      <g>
        <path d="M340.64,307.17l-2.49.52.42-.73v5.03h-.5v-5.38l2.58-.08v.64ZM348.31,312.76c-.78-.02-1.57-.03-2.37-.04-.79,0-1.59,0-2.38,0h-.74c-.8,0-1.6,0-2.39,0-.79,0-1.58.02-2.37.04v-1.53c.78,0,1.58.02,2.39.02.81,0,1.64,0,2.51,0h.34c.92,0,1.79,0,2.6,0,.81,0,1.62-.01,2.41-.02v1.53ZM338.5,314.15h-.43v-2.16h.6v.17l-.17,1.99ZM344.77,308.71l-1.55.2h-.29l-1.51-.2v-.53h3.36v.53ZM343.34,311.99h-.48v-3.39h.48v3.39ZM348.31,311.99h-.49v-5.28l.39.73-2.52-.53v-.63l2.62.07v5.64ZM348.31,314.15h-.43l-.18-1.99v-.17h.62v2.16Z"/>
        <path d="M341.43,300.65h-.42v-2.67h.42l.13,1.12v.31l-.13,1.25ZM348.31,299.95l-3.29,2.21-4.02,2.7v-1.54l3.16-2.16,4.14-2.81v1.6ZM344.94,301.45l-.29.29v-.06l-1.82-1.25-1.82-1.25v-.69l3.93,2.94ZM341.43,305.44h-.42v-3.51h.42l.14,1.46v.62l-.14,1.44ZM348.31,304.89l-4.09-3.05.28-.29v.03l1.9,1.32,1.9,1.3v.7ZM348.31,301.39h-.39l-.15-1.75v-.38l.15-1.48h.39v3.61ZM348.31,305.52h-.39l-.14-1.23v-.31l.14-1.23h.39v2.77Z"/>
        <path d="M348.52,292.63c0,.43-.1.85-.29,1.27-.19.42-.53.8-1.03,1.14v.18l-.34-.21c.35-.33.6-.64.73-.94s.2-.64.2-1.02c0-.39-.1-.75-.31-1.07-.21-.32-.54-.58-1.01-.77s-1.08-.29-1.85-.29c-1.08,0-1.87.19-2.37.57s-.75.88-.75,1.5c0,.33.08.66.23.99.15.33.46.69.9,1.08l-.34.17v-.14c-.53-.36-.92-.78-1.16-1.25-.24-.47-.36-.94-.36-1.43,0-.58.15-1.09.46-1.53.31-.44.74-.79,1.31-1.05.57-.26,1.24-.39,2.04-.39s1.5.14,2.09.42c.59.28,1.04.66,1.36,1.13s.48,1.02.48,1.62ZM351.96,296.18c-.35,0-.71-.02-1.09-.02s-.77,0-1.15-.01c-.39,0-.75,0-1.07,0h-4.42c-.48,0-.9,0-1.27,0-.37,0-.72.02-1.06.04l-.08,1.2h-.35l-.62-2.31.11-.18,1.16-.1h.08s5.03-.01,5.03-.01h.15s1.26.01,1.26.01c.32,0,.67,0,1.06,0,.39,0,.78,0,1.16-.01.39,0,.75-.01,1.1-.02v1.43ZM351.96,297.33h-.39l-.14-1.55v-.7l.14-1.61h.39v3.86Z"/>
        <path d="M348.52,284.48c0,.71-.14,1.34-.43,1.89-.29.55-.72.98-1.29,1.3-.57.31-1.28.47-2.12.47s-1.49-.16-2.07-.49c-.58-.33-1.02-.76-1.34-1.3-.31-.54-.47-1.12-.47-1.75s.13-1.17.39-1.62c.26-.44.61-.78,1.06-1.01.44-.23.95-.34,1.52-.34.34,0,.62.03.84.08v5.81h-.45v-3.92c0-.26-.07-.44-.21-.53-.14-.09-.36-.14-.67-.14-.61,0-1.09.15-1.46.45-.37.3-.55.72-.55,1.26,0,.38.12.73.37,1.04.25.31.61.56,1.09.75.48.19,1.07.28,1.77.28.76,0,1.38-.11,1.87-.34.49-.23.85-.54,1.07-.93.22-.39.34-.84.34-1.36s-.09-.92-.27-1.28c-.18-.36-.43-.67-.76-.95l.18-.24c.5.3.9.69,1.18,1.17.28.48.42,1.05.42,1.7Z"/>
        <path d="M348.52,276.82c0,.69-.15,1.3-.45,1.83-.3.53-.73.95-1.29,1.26-.56.31-1.24.46-2.03.46-.85,0-1.57-.17-2.16-.52s-1.04-.81-1.34-1.39c-.31-.57-.46-1.19-.46-1.85,0-.44.08-.84.25-1.21.16-.37.39-.68.67-.93.28-.25.62-.42,1-.52.35.1.53.32.53.66,0,.21-.06.39-.18.52-.12.14-.33.22-.63.26l-1.26.32.57-.77c-.18.28-.3.54-.38.79-.08.25-.11.5-.11.75,0,.47.13.89.4,1.26.27.37.65.67,1.14.88.5.21,1.09.32,1.79.32,1.01,0,1.79-.25,2.34-.74.56-.49.83-1.13.83-1.91,0-.41-.08-.8-.25-1.16s-.42-.68-.76-.97l.18-.24c.51.32.91.7,1.18,1.16.27.46.41,1.03.41,1.72Z"/>
        <path d="M348.52,270.09c0,.61-.16,1.06-.47,1.36-.31.3-.8.45-1.45.45-.23,0-.44,0-.63,0-.19,0-.41,0-.67,0h-3.77v1.34h-.43l-.13-1.64.2.27-2.37-.49v-.9l2.42.04h5.42c.42,0,.73-.08.92-.25.19-.16.29-.39.29-.69,0-.21-.03-.38-.1-.54-.07-.15-.16-.32-.28-.51l.25-.21c.26.2.46.44.59.73.14.29.2.64.2,1.05ZM341.54,271.19h-.53v-2.63h.53v2.63Z"/>
        <path d="M348.52,263.89c0,.71-.14,1.34-.43,1.89-.29.55-.72.98-1.29,1.3-.57.31-1.28.47-2.12.47s-1.49-.16-2.07-.49c-.58-.33-1.02-.76-1.34-1.3-.31-.54-.47-1.12-.47-1.75s.13-1.17.39-1.62c.26-.44.61-.78,1.06-1.01.44-.23.95-.34,1.52-.34.34,0,.62.03.84.08v5.81h-.45v-3.92c0-.26-.07-.44-.21-.53-.14-.09-.36-.14-.67-.14-.61,0-1.09.15-1.46.45-.37.3-.55.72-.55,1.26,0,.38.12.73.37,1.04.25.31.61.56,1.09.75.48.19,1.07.28,1.77.28.76,0,1.38-.11,1.87-.34.49-.23.85-.54,1.07-.93.22-.39.34-.84.34-1.36s-.09-.92-.27-1.28c-.18-.36-.43-.67-.76-.95l.18-.24c.5.3.9.69,1.18,1.17.28.48.42,1.05.42,1.7Z"/>
        <path d="M348.46,254.38l-1.36.08h-4.91l-.14-.04h-4.16l-.07,1.25h-.38l-.45-2.39.13-.21,2.14.04h8.58l.08-1.23h.39l.14,2.51ZM348.52,256.68c0,.6-.16,1.13-.47,1.6s-.75.84-1.32,1.11-1.23.4-1.99.4c-.81,0-1.51-.15-2.1-.44s-1.04-.69-1.37-1.19c-.32-.5-.48-1.06-.48-1.67,0-.42.1-.82.31-1.2.21-.38.55-.74,1.02-1.08v-.14l.32.2c-.34.32-.58.62-.72.9s-.22.59-.22.92c0,.41.1.79.32,1.13.21.34.55.61,1.02.82.47.21,1.09.31,1.86.31.72,0,1.31-.1,1.76-.29.46-.19.79-.45,1.01-.78s.32-.7.32-1.11c0-.35-.08-.68-.23-.98-.15-.3-.41-.6-.76-.9l.36-.2v.13c.45.32.79.68,1.01,1.1.23.42.34.87.34,1.37Z"/>
        <path d="M340.64,240.25l-2.49.52.42-.73v5.03h-.5v-5.38l2.58-.08v.64ZM348.31,245.84c-.78-.02-1.57-.03-2.37-.03-.79,0-1.59,0-2.38,0h-.74c-.8,0-1.6,0-2.39,0-.79,0-1.58.02-2.37.03v-1.53c.78,0,1.58.02,2.39.02.81,0,1.64,0,2.51,0h.34c.92,0,1.79,0,2.6,0,.81,0,1.62-.01,2.41-.02v1.53ZM338.5,247.23h-.43v-2.16h.6v.17l-.17,1.99ZM344.77,241.79l-1.55.2h-.29l-1.51-.2v-.53h3.36v.53ZM343.34,245.07h-.48v-3.39h.48v3.39ZM348.31,245.07h-.49v-5.28l.39.73-2.52-.53v-.63l2.62.07v5.64ZM348.31,247.23h-.43l-.18-1.99v-.17h.62v2.16Z"/>
        <path d="M343.85,235.69l-.77.35v-.28c-.47-.15-.87-.35-1.21-.59-.34-.25-.6-.53-.79-.84-.19-.31-.28-.63-.28-.96,0-.28.06-.52.17-.73.12-.21.3-.35.55-.41.25,0,.46.06.62.19.16.13.24.32.24.6,0,.19-.05.35-.15.5s-.25.31-.43.48l-.32.32.03-.6c.16.46.42.85.79,1.17.37.32.89.59,1.56.82ZM348.31,237.09c-.23,0-.54-.02-.92-.02-.38,0-.78,0-1.2-.01-.42,0-.78,0-1.09,0h-.91c-.49,0-.91,0-1.26,0-.35,0-.7.02-1.04.04l-.08,1.19h-.35l-.62-2.32.11-.18,1.97-.08h2.17c.31,0,.67,0,1.09,0,.42,0,.82,0,1.2-.01s.69-.01.92-.02v1.44ZM348.31,238.2h-.39l-.17-1.53v-.77l.17-1.57h.39v3.86Z"/>
        <path d="M343.85,229.07l-.77.35v-.28c-.47-.15-.87-.35-1.21-.59-.34-.25-.6-.53-.79-.84-.19-.31-.28-.63-.28-.96,0-.28.06-.52.17-.73.12-.21.3-.35.55-.41.25,0,.46.06.62.19.16.13.24.32.24.6,0,.19-.05.35-.15.5s-.25.31-.43.48l-.32.32.03-.6c.16.46.42.85.79,1.17.37.32.89.59,1.56.82ZM348.31,230.47c-.23,0-.54-.02-.92-.02-.38,0-.78,0-1.2-.01-.42,0-.78,0-1.09,0h-.91c-.49,0-.91,0-1.26,0-.35,0-.7.02-1.04.04l-.08,1.19h-.35l-.62-2.32.11-.18,1.97-.08h2.17c.31,0,.67,0,1.09,0,.42,0,.82,0,1.2-.01s.69-.01.92-.02v1.44ZM348.31,231.57h-.39l-.17-1.53v-.77l.17-1.57h.39v3.86Z"/>
        <path d="M348.52,221.56c0,.65-.15,1.25-.44,1.79s-.73.97-1.31,1.29c-.58.32-1.28.48-2.11.48s-1.55-.17-2.12-.5c-.57-.34-1.01-.78-1.3-1.32-.29-.55-.44-1.13-.44-1.74s.15-1.23.44-1.77.73-.99,1.3-1.32c.57-.34,1.28-.5,2.12-.5s1.54.17,2.11.5c.58.33,1.02.77,1.31,1.31s.44,1.14.44,1.79ZM348.08,221.56c0-.66-.29-1.18-.87-1.55-.58-.37-1.42-.56-2.53-.56s-1.96.19-2.54.56c-.58.37-.88.89-.88,1.55s.29,1.17.88,1.54c.58.37,1.43.56,2.54.56s1.96-.19,2.53-.56c.58-.37.87-.89.87-1.54Z"/>
        <path d="M343.85,214.26l-.77.35v-.28c-.47-.15-.87-.35-1.21-.59-.34-.25-.6-.53-.79-.84-.19-.31-.28-.63-.28-.96,0-.28.06-.52.17-.73.12-.21.3-.35.55-.41.25,0,.46.06.62.19.16.13.24.32.24.6,0,.19-.05.35-.15.5s-.25.31-.43.48l-.32.32.03-.6c.16.46.42.85.79,1.17.37.32.89.59,1.56.82ZM348.31,215.66c-.23,0-.54-.02-.92-.02-.38,0-.78,0-1.2-.01-.42,0-.78,0-1.09,0h-.91c-.49,0-.91,0-1.26,0-.35,0-.7.02-1.04.04l-.08,1.19h-.35l-.62-2.32.11-.18,1.97-.08h2.17c.31,0,.67,0,1.09,0,.42,0,.82,0,1.2-.01s.69-.01.92-.02v1.44ZM348.31,216.76h-.39l-.17-1.53v-.77l.17-1.57h.39v3.86Z"/>
      </g>
      <g>
        <path d="M84.24,367.74l-6.29-9.21-.03-.03-.38-.56-1.32-.1v-.43h2.66l5.81,8.58-.25.08-.03-4.17v-4.49h.53v10.33h-.71ZM76.25,367.66v-.43l1.47-.18h.34l1.83.18v.43h-3.64ZM77.59,367.66v-9.9h.5l.08,5.67v4.23h-.59ZM82.69,357.84v-.43h3.64v.43l-1.47.17h-.31l-1.86-.17Z"/>
        <path d="M90.11,367.87c-.66,0-1.18-.21-1.55-.62-.37-.42-.56-1.15-.55-2.19l.04-4.23.34.27-1.46-.22v-.36l2.37-.25.15.15-.07,1.89v2.8c0,.71.12,1.2.35,1.48.23.28.57.42,1.01.42s.83-.12,1.22-.37.74-.58,1.05-1l.36.59h-.45c-.35.49-.77.88-1.23,1.19-.47.31-.99.46-1.58.46ZM92.84,367.8l-.06-1.72h0s.03-5.05.03-5.05l-1.11-.14v-.35l2.35-.28.14.15-.06,1.89v4.87l1.02.1v.39l-2.32.14Z"/>
        <path d="M97.39,367.66c0-.23.02-.54.02-.92,0-.38,0-.78.01-1.2,0-.42,0-.78,0-1.09v-.92c0-.48,0-.89,0-1.25,0-.35-.02-.7-.04-1.05l-1.19-.07v-.35l2.32-.62.18.11.08,1.58v2.56c0,.31,0,.67,0,1.09,0,.42,0,.82.01,1.2s.01.69.02.92h-1.44ZM96.28,367.66v-.39l1.51-.15h.57l1.47.15v.39h-3.56ZM102.02,367.66c0-.23.02-.54.02-.92,0-.38,0-.78.01-1.2,0-.42,0-.79,0-1.11v-1.65c0-.67-.1-1.15-.31-1.42s-.5-.41-.86-.41-.72.12-1.12.35-.83.61-1.27,1.13l-.11-.55h.18c.44-.57.89-1,1.37-1.3.47-.3.97-.45,1.49-.45.62,0,1.11.21,1.46.62.35.42.52,1.09.52,2.02v1.65c0,.32,0,.69,0,1.11,0,.42,0,.82.01,1.2s.01.68.02.92h-1.41ZM100.93,367.66v-.39l1.47-.15h.6l1.44.15v.39h-3.51ZM106.61,367.66c0-.23.02-.54.02-.92,0-.38,0-.78.01-1.2,0-.42,0-.79,0-1.11v-1.65c0-.69-.1-1.17-.31-1.44-.21-.27-.51-.4-.9-.4-.35,0-.71.1-1.1.31-.39.21-.81.58-1.25,1.1l-.14-.57h.2c.44-.57.89-.99,1.36-1.25s.95-.4,1.46-.4c.67,0,1.18.21,1.53.62.35.42.52,1.09.52,2.04v1.64c0,.32,0,.69,0,1.11,0,.42,0,.82.01,1.2s.01.68.02.92h-1.43ZM105.53,367.66v-.39l1.46-.15h.6l1.46.15v.39h-3.51Z"/>
        <path d="M110.07,367.66v-.39l1.12-.1c0-.27.01-.57.01-.9s0-.65,0-.97,0-.61,0-.86v-7.21l-1.19-.07v-.38l2.37-.45.21.13-.04,2.18v2.79l.03.14v4.98l-.21,1.26-2.31-.15ZM114.81,367.87c-.45,0-.89-.11-1.32-.34-.43-.22-.82-.59-1.17-1.09h-.15l.2-.32c.34.37.66.64.98.79.32.15.65.23.99.23.38,0,.73-.1,1.06-.3.32-.2.58-.53.78-1,.2-.47.29-1.1.29-1.9,0-1.05-.2-1.83-.59-2.33-.39-.5-.9-.75-1.51-.75-.21,0-.43.03-.66.09-.22.06-.46.18-.7.35-.24.17-.51.42-.81.75l-.17-.41h.21c.38-.52.81-.9,1.28-1.14s.95-.36,1.44-.36c.58,0,1.09.15,1.53.46.44.31.79.75,1.05,1.31s.39,1.24.39,2.04-.13,1.43-.39,2.02c-.26.59-.63,1.06-1.09,1.39s-1.01.5-1.62.5Z"/>
        <path d="M122.91,367.87c-.71,0-1.34-.14-1.89-.43-.55-.29-.98-.72-1.3-1.29-.31-.57-.47-1.28-.47-2.12s.16-1.49.49-2.07c.33-.58.76-1.02,1.3-1.34.54-.31,1.12-.47,1.75-.47s1.17.13,1.62.39c.44.26.78.61,1.01,1.06.23.44.34.95.34,1.52,0,.34-.03.62-.08.84h-5.81v-.45h3.92c.26,0,.44-.07.53-.21s.14-.36.14-.67c0-.61-.15-1.09-.45-1.46-.3-.37-.72-.55-1.26-.55-.38,0-.73.12-1.04.37-.31.25-.56.61-.75,1.09-.19.48-.28,1.07-.28,1.77,0,.76.11,1.38.34,1.87.23.49.54.85.93,1.07.39.22.84.34,1.36.34s.92-.09,1.28-.27c.36-.18.67-.43.95-.76l.24.18c-.3.5-.69.9-1.17,1.18-.48.28-1.05.42-1.7.42Z"/>
        <path d="M128.03,367.66c0-.23.02-.54.02-.92,0-.38,0-.78.01-1.2,0-.42,0-.78,0-1.09v-.91c0-.49,0-.91,0-1.26,0-.35-.02-.7-.04-1.04l-1.19-.08v-.35l2.32-.62.18.11.08,1.97h0v2.17c0,.31,0,.67,0,1.09,0,.42,0,.82.01,1.2s.01.69.02.92h-1.44ZM126.92,367.66v-.39l1.53-.17h.77l1.57.17v.39h-3.86ZM129.43,363.19l-.35-.77h.28c.15-.47.35-.87.59-1.21.25-.34.53-.6.84-.79.31-.19.63-.28.96-.28.28,0,.52.06.73.18.21.12.35.3.41.55,0,.25-.06.46-.19.62-.13.16-.32.24-.6.24-.19,0-.35-.05-.5-.15s-.31-.25-.48-.43l-.32-.32.6.03c-.46.16-.85.42-1.17.79-.32.37-.59.89-.82,1.56Z"/>
        <path d="M140.77,367.87c-.65,0-1.25-.15-1.79-.44s-.97-.73-1.29-1.31c-.32-.58-.48-1.28-.48-2.11s.17-1.55.5-2.12.78-1.01,1.32-1.3c.55-.29,1.13-.44,1.74-.44s1.23.15,1.77.44.99.73,1.32,1.3.5,1.28.5,2.12-.17,1.54-.5,2.11c-.33.58-.77,1.01-1.31,1.31s-1.14.44-1.79.44ZM140.77,367.42c.66,0,1.18-.29,1.55-.87.37-.58.56-1.42.56-2.53s-.19-1.96-.56-2.54c-.37-.58-.89-.88-1.55-.88s-1.17.29-1.54.88c-.37.58-.56,1.43-.56,2.54s.19,1.96.56,2.53c.37.58.89.87,1.54.87Z"/>
        <path d="M146.69,367.66c.02-.53.03-1.07.04-1.61,0-.54.01-1.08.01-1.61v-3.56h-1.29v-.43l1.78-.15-.5.25v-.1c.06-.9.19-1.61.4-2.14.21-.53.5-.97.86-1.32.32-.29.65-.5.99-.62.35-.13.7-.19,1.05-.19s.67.07.95.2.46.33.53.59c0,.19-.08.34-.21.47s-.31.19-.55.19c-.2,0-.38-.06-.55-.17-.17-.11-.36-.29-.55-.53l-.36-.43v-.13h.6v.11c-.26.03-.5.11-.72.26-.22.14-.4.32-.54.54-.15.24-.27.51-.36.81-.09.3-.15.66-.17,1.08-.02.42-.03.93,0,1.53v3.75c0,.53,0,1.07.01,1.61,0,.54.02,1.08.04,1.61h-1.47ZM145.52,367.66v-.39l1.61-.15h.73l1.69.15v.39h-4.03ZM147.43,360.88v-.53h2.76v.53h-2.76Z"/>
        <path d="M154.78,357.84v-.43h2.16v.6h-.17l-1.99-.17ZM154.78,367.66v-.43l1.99-.18h.17v.62h-2.16ZM156.17,367.66c.02-.78.03-1.58.03-2.39,0-.81,0-1.68,0-2.62v-.41c0-.83,0-1.65,0-2.44,0-.8-.02-1.59-.03-2.39h1.53c0,.78-.02,1.58-.02,2.38,0,.8,0,1.62,0,2.45v.41c0,.92,0,1.79,0,2.6,0,.81.01,1.62.02,2.41h-1.53ZM156.94,367.66v-.48h1.79c1.28,0,2.25-.41,2.91-1.24.66-.83.99-1.96.99-3.41s-.33-2.66-.98-3.45-1.59-1.18-2.8-1.18h-1.92v-.49h2.1c1.07,0,1.99.2,2.76.61.77.41,1.35.99,1.76,1.75.41.76.61,1.68.61,2.77s-.21,1.96-.64,2.73c-.42.77-1.04,1.36-1.83,1.77s-1.75.62-2.86.62h-1.89Z"/>
        <path d="M167.5,367.87c-.56,0-1.03-.16-1.4-.48-.37-.32-.56-.77-.56-1.36,0-.37.08-.71.25-.99.16-.29.44-.55.82-.78.38-.23.9-.44,1.54-.62.38-.11.79-.22,1.23-.34.44-.11.84-.21,1.22-.31v.35c-.37.09-.75.19-1.13.3-.38.11-.72.22-1.01.33-.57.21-.98.47-1.23.78-.25.3-.37.67-.37,1.08s.11.75.34.97c.23.21.53.32.9.32.2,0,.39-.04.59-.11.2-.07.42-.21.67-.41.25-.2.55-.48.9-.83l.14.69h-.38c-.28.31-.55.57-.8.78-.25.21-.51.37-.78.48-.27.11-.58.16-.94.16ZM171.28,367.85c-.43,0-.75-.14-.97-.42-.22-.28-.35-.66-.39-1.15v-3.74c0-.52-.06-.92-.17-1.2-.11-.28-.28-.48-.51-.59-.23-.11-.53-.17-.89-.17-.26,0-.52.04-.79.11-.27.07-.56.19-.88.36l.69-.38-.21,1.11c-.03.29-.11.49-.25.62-.14.12-.3.18-.48.18-.37,0-.6-.18-.69-.55.12-.59.44-1.05.96-1.39s1.2-.5,2.05-.5,1.47.2,1.88.6c.4.4.6,1.05.6,1.95v3.51c0,.4.05.68.15.83.1.15.24.22.41.22.11,0,.21-.03.31-.08s.2-.15.32-.29l.22.2c-.15.27-.34.47-.57.59-.23.13-.5.19-.81.19Z"/>
        <path d="M176.09,367.87c-.61,0-1.06-.16-1.36-.47-.3-.31-.45-.8-.45-1.45,0-.23,0-.44,0-.63,0-.19,0-.41,0-.67v-3.77h-1.34v-.43l1.64-.13-.27.2.49-2.37h.9l-.04,2.42v5.42c0,.42.08.73.25.92.16.19.39.29.69.29.21,0,.38-.03.54-.1.15-.06.32-.16.51-.28l.21.25c-.2.26-.44.46-.73.59-.29.13-.64.2-1.05.2ZM174.99,360.88v-.53h2.63v.53h-2.63Z"/>
        <path d="M180.66,367.87c-.56,0-1.03-.16-1.4-.48-.37-.32-.56-.77-.56-1.36,0-.37.08-.71.25-.99.16-.29.44-.55.82-.78.38-.23.9-.44,1.54-.62.38-.11.79-.22,1.23-.34.44-.11.84-.21,1.22-.31v.35c-.37.09-.75.19-1.13.3-.38.11-.72.22-1.01.33-.57.21-.98.47-1.23.78-.25.3-.37.67-.37,1.08s.11.75.34.97c.23.21.53.32.9.32.2,0,.39-.04.59-.11.2-.07.42-.21.67-.41.25-.2.55-.48.9-.83l.14.69h-.38c-.28.31-.55.57-.8.78-.25.21-.51.37-.78.48-.27.11-.58.16-.94.16ZM184.44,367.85c-.43,0-.75-.14-.97-.42-.22-.28-.35-.66-.39-1.15v-3.74c0-.52-.06-.92-.17-1.2-.11-.28-.28-.48-.51-.59-.23-.11-.53-.17-.89-.17-.26,0-.52.04-.79.11-.27.07-.56.19-.88.36l.69-.38-.21,1.11c-.03.29-.11.49-.25.62-.14.12-.3.18-.48.18-.37,0-.6-.18-.69-.55.12-.59.44-1.05.96-1.39s1.2-.5,2.05-.5,1.47.2,1.88.6c.4.4.6,1.05.6,1.95v3.51c0,.4.05.68.15.83.1.15.24.22.41.22.11,0,.21-.03.31-.08s.2-.15.32-.29l.22.2c-.15.27-.34.47-.57.59-.23.13-.5.19-.81.19Z"/>
        <path d="M190.2,357.84v-.43h2.16v.6h-.17l-1.99-.17ZM190.2,367.66v-.43l1.99-.18h.43l2.06.18v.43h-4.48ZM191.59,367.66c.02-.78.03-1.57.03-2.37,0-.79,0-1.59,0-2.38v-.74c0-.8,0-1.6,0-2.39,0-.79-.02-1.58-.03-2.37h1.53c0,.78-.02,1.57-.02,2.37,0,.79,0,1.59,0,2.39v.98c0,.69,0,1.42,0,2.18,0,.76.01,1.54.02,2.33h-1.53ZM192.36,363.48v-.48h1.47c.68,0,1.23-.11,1.65-.33.42-.22.73-.53.93-.92s.3-.85.3-1.35c0-.82-.21-1.44-.63-1.87-.42-.42-1.07-.64-1.95-.64h-1.78v-.49h1.86c1.33,0,2.32.27,2.95.8.63.53.94,1.26.94,2.2,0,.57-.15,1.09-.43,1.55-.29.47-.75.84-1.37,1.11s-1.44.41-2.44.41h-1.51Z"/>
        <path d="M202.51,367.87c-.65,0-1.25-.15-1.79-.44s-.97-.73-1.29-1.31c-.32-.58-.48-1.28-.48-2.11s.17-1.55.5-2.12.78-1.01,1.32-1.3c.55-.29,1.13-.44,1.74-.44s1.23.15,1.77.44.99.73,1.32,1.3.5,1.28.5,2.12-.17,1.54-.5,2.11c-.33.58-.77,1.01-1.31,1.31s-1.14.44-1.79.44ZM202.51,367.42c.66,0,1.18-.29,1.55-.87.37-.58.56-1.42.56-2.53s-.19-1.96-.56-2.54c-.37-.58-.89-.88-1.55-.88s-1.17.29-1.54.88c-.37.58-.56,1.43-.56,2.54s.19,1.96.56,2.53c.37.58.89.87,1.54.87Z"/>
        <path d="M208.45,367.66c0-.23.02-.54.03-.92,0-.38.02-.78.02-1.2s0-.78,0-1.09v-.9c0-.48,0-.9-.01-1.27,0-.37-.02-.73-.04-1.07l-1.2-.07v-.35l2.48-.6.18.11-.04,2.02v2.13c0,.31,0,.67,0,1.09,0,.42,0,.82.01,1.2s.01.69.02.92h-1.46ZM207.34,367.66v-.39l1.53-.15h.56l1.5.15v.39h-3.58ZM209.08,358.49c-.24,0-.45-.08-.62-.24-.17-.16-.26-.36-.26-.62s.09-.46.26-.62c.17-.16.38-.24.62-.24s.45.08.63.24c.18.16.27.36.27.62s-.09.46-.27.62c-.18.16-.39.24-.63.24Z"/>
        <path d="M213.14,367.66c0-.23.02-.54.02-.92,0-.38,0-.78.01-1.2s0-.78,0-1.09v-.91c0-.48,0-.89,0-1.25s-.02-.71-.04-1.04l-1.19-.08v-.35l2.32-.62.18.11.08,1.62h0v2.52c0,.31,0,.67,0,1.09,0,.42,0,.82.01,1.2s.01.69.02.92h-1.44ZM212.03,367.66v-.39l1.51-.15h.57l1.47.15v.39h-3.56ZM217.91,367.66c0-.23.02-.54.02-.92s0-.78.01-1.2,0-.79,0-1.11v-1.71c0-.65-.11-1.11-.32-1.38-.21-.27-.52-.4-.91-.4-.31,0-.68.1-1.11.31-.43.21-.89.59-1.37,1.13l-.1-.5h.15c.51-.63,1.02-1.08,1.51-1.35s.99-.4,1.48-.4c.62,0,1.12.21,1.47.62.35.42.53,1.09.53,2.02v1.65c0,.32,0,.69,0,1.11s.01.82.02,1.2c0,.38.02.68.03.92h-1.44ZM216.82,367.66v-.39l1.48-.15h.59l1.47.15v.39h-3.54Z"/>
        <path d="M224.14,367.87c-.61,0-1.06-.16-1.36-.47-.3-.31-.45-.8-.45-1.45,0-.23,0-.44,0-.63,0-.19,0-.41,0-.67v-3.77h-1.34v-.43l1.64-.13-.27.2.49-2.37h.9l-.04,2.42v5.42c0,.42.08.73.25.92.16.19.39.29.69.29.21,0,.39-.03.54-.1.15-.06.32-.16.51-.28l.21.25c-.2.26-.44.46-.73.59-.29.13-.64.2-1.05.2ZM223.03,360.88v-.53h2.63v.53h-2.63Z"/>
        <path d="M229.25,367.87c-.48,0-.9-.05-1.28-.15-.38-.1-.76-.25-1.14-.44v-1.71h.67l.36,1.82-.56-.04v-.5c.28.18.56.32.85.41.29.1.63.15,1.03.15.61,0,1.06-.12,1.37-.36.31-.24.46-.56.46-.96,0-.34-.1-.61-.31-.83-.21-.21-.6-.41-1.18-.59l-.74-.27c-.57-.2-1.02-.46-1.37-.79s-.51-.77-.51-1.31c0-.62.24-1.13.71-1.55.47-.42,1.15-.62,2.02-.62.44,0,.83.05,1.16.15s.69.26,1.05.48l-.06,1.54h-.6l-.39-1.69.48.11v.45c-.28-.21-.55-.35-.8-.43s-.53-.13-.83-.13c-.51,0-.91.11-1.18.34s-.41.53-.41.89c0,.32.11.58.33.79.22.21.59.4,1.1.58l.73.25c.72.24,1.23.54,1.53.88.3.35.46.77.46,1.27,0,.43-.11.81-.34,1.16-.23.34-.56.61-1,.8-.44.19-.98.29-1.62.29Z"/>
      </g>
      <g>
        <path d="M392.68,369.2l-6.29-9.21-.03-.03-.38-.56-1.32-.1v-.43h2.66l5.81,8.58-.25.08-.03-4.17v-4.49h.53v10.33h-.71ZM384.69,369.11v-.43l1.47-.18h.34l1.83.18v.43h-3.64ZM386.03,369.11v-9.9h.5l.08,5.67v4.23h-.59ZM391.13,359.3v-.43h3.64v.43l-1.47.17h-.31l-1.86-.17Z"/>
        <path d="M398.55,369.32c-.66,0-1.18-.21-1.55-.62-.37-.42-.55-1.15-.55-2.19l.04-4.23.34.27-1.46-.22v-.36l2.37-.25.15.15-.07,1.89v2.8c0,.71.12,1.2.35,1.48.23.28.57.42,1.01.42s.83-.12,1.22-.37c.39-.25.74-.58,1.05-1l.36.59h-.45c-.35.49-.76.88-1.23,1.19-.47.31-.99.46-1.58.46ZM401.28,369.25l-.06-1.72h0s.03-5.05.03-5.05l-1.11-.14v-.35l2.35-.28.14.15-.06,1.89v4.87l1.02.1v.39l-2.32.14Z"/>
        <path d="M405.83,369.11c0-.23.02-.54.02-.92,0-.38,0-.78.01-1.2s0-.78,0-1.09v-.92c0-.48,0-.89,0-1.25,0-.35-.02-.7-.04-1.05l-1.19-.07v-.35l2.32-.62.18.11.08,1.58v2.56c0,.31,0,.67,0,1.09s0,.82.01,1.2.01.69.02.92h-1.44ZM404.72,369.11v-.39l1.51-.15h.57l1.47.15v.39h-3.56ZM410.46,369.11c0-.23.02-.54.02-.92s0-.78.01-1.2,0-.79,0-1.11v-1.65c0-.67-.1-1.15-.31-1.42s-.5-.41-.86-.41c-.34,0-.72.12-1.12.35s-.83.61-1.27,1.13l-.11-.55h.18c.44-.57.89-1,1.37-1.3s.97-.45,1.49-.45c.62,0,1.11.21,1.46.62.34.42.52,1.09.52,2.02v1.65c0,.32,0,.69,0,1.11,0,.42,0,.82.01,1.2s.01.68.02.92h-1.41ZM409.37,369.11v-.39l1.47-.15h.6l1.44.15v.39h-3.51ZM415.05,369.11c0-.23.02-.54.02-.92s0-.78.01-1.2c0-.42,0-.79,0-1.11v-1.65c0-.69-.11-1.17-.32-1.44-.21-.27-.51-.4-.9-.4-.34,0-.71.1-1.1.31s-.8.58-1.25,1.1l-.14-.57h.2c.44-.57.89-.99,1.36-1.25s.95-.4,1.46-.4c.67,0,1.18.21,1.53.62.35.42.52,1.09.52,2.04v1.64c0,.32,0,.69,0,1.11s0,.82.01,1.2.01.68.02.92h-1.43ZM413.98,369.11v-.39l1.46-.15h.6l1.46.15v.39h-3.51Z"/>
        <path d="M418.51,369.11v-.39l1.12-.1c0-.27.01-.57.01-.9s0-.65,0-.97,0-.61,0-.86v-7.21l-1.19-.07v-.38l2.37-.45.21.13-.04,2.18v2.79l.03.14v4.98l-.21,1.26-2.31-.15ZM423.26,369.32c-.45,0-.89-.11-1.32-.34-.43-.22-.82-.59-1.17-1.09h-.15l.2-.32c.34.37.66.64.98.79.32.15.65.23.99.23.38,0,.74-.1,1.06-.3.32-.2.58-.53.78-1s.29-1.1.29-1.9c0-1.05-.2-1.83-.59-2.33-.39-.5-.9-.75-1.51-.75-.21,0-.43.03-.66.09s-.46.18-.7.35-.51.42-.81.75l-.17-.41h.21c.38-.52.81-.9,1.28-1.14.47-.24.95-.36,1.44-.36.58,0,1.09.15,1.53.46.44.31.79.75,1.05,1.31s.38,1.24.38,2.04-.13,1.43-.39,2.02c-.26.59-.63,1.06-1.09,1.39s-1.01.5-1.62.5Z"/>
        <path d="M431.35,369.32c-.71,0-1.34-.14-1.89-.43-.55-.29-.98-.72-1.3-1.29-.31-.57-.47-1.28-.47-2.12s.16-1.49.49-2.07c.33-.58.76-1.02,1.3-1.34.54-.31,1.12-.47,1.75-.47s1.17.13,1.62.39c.44.26.78.61,1.01,1.06s.34.95.34,1.52c0,.34-.03.62-.08.84h-5.81v-.45h3.92c.26,0,.44-.07.53-.21.09-.14.14-.36.14-.67,0-.61-.15-1.09-.45-1.46-.3-.37-.72-.55-1.26-.55-.38,0-.73.12-1.04.37-.31.25-.56.61-.75,1.09-.19.48-.28,1.07-.28,1.77,0,.76.11,1.38.34,1.87.23.49.54.85.93,1.07.39.22.84.34,1.36.34s.92-.09,1.28-.27c.36-.18.67-.43.95-.76l.24.18c-.3.5-.69.9-1.17,1.18-.48.28-1.05.42-1.7.42Z"/>
        <path d="M436.47,369.11c0-.23.02-.54.02-.92,0-.38,0-.78.01-1.2s0-.78,0-1.09v-.91c0-.49,0-.91,0-1.26,0-.35-.02-.7-.04-1.04l-1.19-.08v-.35l2.32-.62.18.11.08,1.97h0v2.17c0,.31,0,.67,0,1.09s0,.82.01,1.2.01.69.02.92h-1.44ZM435.37,369.11v-.39l1.53-.17h.77l1.57.17v.39h-3.86ZM437.87,364.65l-.35-.77h.28c.15-.47.35-.87.59-1.21.25-.34.53-.6.84-.79.31-.19.63-.28.96-.28.28,0,.52.06.73.18.21.12.35.3.41.55,0,.25-.06.46-.19.62-.13.16-.33.24-.6.24-.19,0-.35-.05-.5-.15s-.31-.25-.48-.43l-.32-.32.6.03c-.46.16-.85.42-1.17.79-.32.37-.59.89-.82,1.56Z"/>
        <path d="M449.21,369.32c-.65,0-1.25-.15-1.79-.44-.54-.29-.97-.73-1.29-1.31-.32-.58-.48-1.28-.48-2.11s.17-1.55.5-2.12.78-1.01,1.32-1.3,1.13-.44,1.74-.44,1.22.15,1.77.44.99.73,1.32,1.3.5,1.28.5,2.12-.17,1.54-.5,2.11c-.33.58-.77,1.01-1.31,1.31-.54.29-1.14.44-1.79.44ZM449.21,368.87c.66,0,1.18-.29,1.55-.87.37-.58.56-1.42.56-2.53s-.19-1.96-.56-2.54c-.37-.58-.89-.88-1.55-.88s-1.17.29-1.54.88c-.37.58-.56,1.43-.56,2.54s.19,1.96.56,2.53c.37.58.89.87,1.54.87Z"/>
        <path d="M455.14,369.11c.02-.53.03-1.07.04-1.61,0-.54.01-1.08.01-1.61v-3.56h-1.29v-.43l1.78-.15-.5.25v-.1c.06-.9.19-1.61.4-2.14.21-.53.5-.97.86-1.32.32-.29.65-.5.99-.62s.7-.19,1.05-.19.67.07.95.2c.28.13.46.33.53.59,0,.19-.08.34-.21.47s-.31.19-.55.19c-.2,0-.38-.06-.55-.17-.17-.11-.36-.29-.55-.53l-.36-.43v-.13h.6v.11c-.26.03-.5.11-.72.26-.22.14-.4.32-.54.54-.15.24-.27.51-.36.81s-.14.66-.17,1.08-.03.93,0,1.53v3.75c0,.53,0,1.07.01,1.61,0,.54.02,1.08.04,1.61h-1.47ZM453.96,369.11v-.39l1.61-.15h.73l1.69.15v.39h-4.03ZM455.88,362.34v-.53h2.76v.53h-2.76Z"/>
        <path d="M463.23,359.3v-.43h2.16v.6h-.17l-1.99-.17ZM463.23,369.11v-.43l1.99-.18h.17v.62h-2.16ZM464.61,369.11c.02-.78.03-1.58.04-2.39,0-.81,0-1.68,0-2.62v-.41c0-.83,0-1.65,0-2.44s-.02-1.59-.04-2.39h1.53c0,.78-.02,1.58-.02,2.38s0,1.62,0,2.45v.41c0,.92,0,1.79,0,2.6,0,.81.01,1.62.02,2.41h-1.53ZM465.38,369.11v-.48h1.79c1.28,0,2.25-.41,2.91-1.24.66-.83.99-1.96.99-3.41s-.33-2.66-.98-3.45-1.59-1.18-2.8-1.18h-1.92v-.49h2.1c1.07,0,1.99.2,2.76.61.77.41,1.35.99,1.76,1.75.41.76.61,1.68.61,2.77s-.21,1.96-.64,2.73c-.42.77-1.04,1.36-1.83,1.77s-1.75.62-2.86.62h-1.89Z"/>
        <path d="M475.94,369.32c-.56,0-1.03-.16-1.4-.48-.37-.32-.56-.77-.56-1.36,0-.37.08-.71.25-.99s.44-.55.82-.78c.38-.23.9-.44,1.54-.62.38-.11.79-.22,1.23-.34.44-.11.84-.21,1.22-.31v.35c-.37.09-.75.19-1.13.3-.38.11-.72.22-1.01.33-.57.21-.98.47-1.22.78-.25.3-.37.67-.37,1.08s.11.75.34.97c.23.21.53.32.9.32.2,0,.39-.04.59-.11.2-.07.42-.21.67-.41.25-.2.55-.48.9-.83l.14.69h-.38c-.28.31-.55.57-.8.78-.25.21-.51.37-.78.48-.27.11-.58.16-.94.16ZM479.72,369.31c-.43,0-.75-.14-.97-.42-.22-.28-.35-.66-.39-1.15v-3.74c0-.52-.06-.92-.17-1.2-.11-.28-.28-.48-.51-.59s-.53-.17-.89-.17c-.26,0-.53.04-.79.11-.27.07-.56.19-.88.36l.69-.38-.21,1.11c-.03.29-.11.49-.25.62-.13.12-.3.18-.48.18-.37,0-.6-.18-.69-.55.12-.59.44-1.05.96-1.39.52-.34,1.2-.5,2.05-.5s1.47.2,1.88.6c.4.4.6,1.05.6,1.95v3.51c0,.4.05.68.15.83.1.15.24.22.41.22.11,0,.21-.03.31-.08.09-.06.2-.15.32-.29l.22.2c-.15.27-.34.47-.57.59s-.5.19-.8.19Z"/>
        <path d="M484.54,369.32c-.61,0-1.06-.16-1.36-.47-.3-.31-.45-.8-.45-1.45,0-.23,0-.44,0-.63s0-.41,0-.67v-3.77h-1.34v-.43l1.64-.13-.27.2.49-2.37h.9l-.04,2.42v5.42c0,.42.08.73.25.92s.39.29.69.29c.21,0,.38-.03.54-.1.15-.06.32-.16.51-.28l.21.25c-.2.26-.44.46-.73.59-.29.13-.64.2-1.05.2ZM483.43,362.34v-.53h2.63v.53h-2.63Z"/>
        <path d="M489.1,369.32c-.56,0-1.03-.16-1.4-.48-.37-.32-.56-.77-.56-1.36,0-.37.08-.71.25-.99.16-.29.44-.55.82-.78.38-.23.9-.44,1.54-.62.38-.11.79-.22,1.23-.34.44-.11.84-.21,1.22-.31v.35c-.37.09-.75.19-1.13.3-.38.11-.72.22-1.01.33-.57.21-.98.47-1.23.78-.25.3-.37.67-.37,1.08s.11.75.34.97c.23.21.53.32.9.32.2,0,.39-.04.59-.11.2-.07.42-.21.67-.41.25-.2.55-.48.9-.83l.14.69h-.38c-.28.31-.55.57-.8.78-.25.21-.51.37-.78.48s-.58.16-.94.16ZM492.88,369.31c-.43,0-.75-.14-.97-.42-.22-.28-.35-.66-.38-1.15v-3.74c0-.52-.06-.92-.17-1.2s-.28-.48-.51-.59c-.23-.11-.53-.17-.89-.17-.26,0-.52.04-.79.11-.27.07-.56.19-.88.36l.69-.38-.21,1.11c-.03.29-.11.49-.25.62-.14.12-.3.18-.48.18-.37,0-.6-.18-.69-.55.12-.59.44-1.05.96-1.39.52-.34,1.2-.5,2.05-.5s1.47.2,1.88.6.6,1.05.6,1.95v3.51c0,.4.05.68.15.83s.24.22.41.22c.11,0,.21-.03.31-.08.09-.06.2-.15.32-.29l.22.2c-.15.27-.34.47-.57.59-.23.13-.5.19-.81.19Z"/>
        <path d="M498.65,359.3v-.43h2.16v.6h-.17l-1.99-.17ZM498.65,369.11v-.43l1.99-.18h.43l2.06.18v.43h-4.48ZM500.03,369.11c.02-.78.03-1.57.03-2.37,0-.79,0-1.59,0-2.38v-.74c0-.8,0-1.6,0-2.39,0-.79-.02-1.58-.03-2.37h1.53c0,.78-.02,1.57-.02,2.37,0,.79,0,1.59,0,2.39v.98c0,.69,0,1.42,0,2.18,0,.76.01,1.54.02,2.33h-1.53ZM500.8,364.94v-.48h1.47c.68,0,1.23-.11,1.65-.33.42-.22.73-.53.93-.92.2-.4.3-.85.3-1.35,0-.82-.21-1.44-.63-1.87-.42-.42-1.07-.64-1.95-.64h-1.78v-.49h1.86c1.33,0,2.32.27,2.95.8.63.53.94,1.26.94,2.2,0,.57-.14,1.09-.43,1.55-.29.47-.75.84-1.37,1.11-.63.28-1.44.41-2.44.41h-1.51Z"/>
        <path d="M510.95,369.32c-.65,0-1.25-.15-1.79-.44-.54-.29-.97-.73-1.29-1.31-.32-.58-.48-1.28-.48-2.11s.17-1.55.5-2.12.78-1.01,1.32-1.3,1.13-.44,1.74-.44,1.23.15,1.77.44.99.73,1.32,1.3.5,1.28.5,2.12-.17,1.54-.5,2.11c-.33.58-.77,1.01-1.31,1.31s-1.14.44-1.79.44ZM510.95,368.87c.66,0,1.18-.29,1.55-.87.37-.58.56-1.42.56-2.53s-.19-1.96-.56-2.54c-.37-.58-.89-.88-1.55-.88s-1.17.29-1.54.88c-.37.58-.56,1.43-.56,2.54s.19,1.96.56,2.53c.37.58.89.87,1.54.87Z"/>
        <path d="M516.89,369.11c0-.23.02-.54.03-.92,0-.38.02-.78.02-1.2s0-.78,0-1.09v-.9c0-.48,0-.9-.01-1.27,0-.37-.02-.73-.04-1.07l-1.2-.07v-.35l2.48-.6.18.11-.04,2.02v2.13c0,.31,0,.67,0,1.09,0,.42,0,.82.01,1.2s.01.69.02.92h-1.46ZM515.78,369.11v-.39l1.53-.15h.56l1.5.15v.39h-3.58ZM517.52,359.94c-.24,0-.45-.08-.62-.24-.17-.16-.26-.36-.26-.62s.09-.46.26-.62c.17-.16.38-.24.62-.24s.45.08.63.24c.18.16.27.36.27.62s-.09.46-.27.62c-.18.16-.39.24-.63.24Z"/>
        <path d="M521.58,369.11c0-.23.02-.54.02-.92,0-.38,0-.78.01-1.2s0-.78,0-1.09v-.91c0-.48,0-.89,0-1.25s-.02-.71-.04-1.04l-1.19-.08v-.35l2.32-.62.18.11.08,1.62h0v2.52c0,.31,0,.67,0,1.09,0,.42,0,.82.01,1.2s.01.69.02.92h-1.44ZM520.47,369.11v-.39l1.51-.15h.57l1.47.15v.39h-3.56ZM526.35,369.11c0-.23.02-.54.02-.92s0-.78.01-1.2,0-.79,0-1.11v-1.71c0-.65-.11-1.11-.32-1.38-.21-.27-.52-.4-.91-.4-.31,0-.68.1-1.11.31-.43.21-.89.59-1.37,1.13l-.1-.5h.15c.51-.63,1.02-1.08,1.51-1.35s.99-.4,1.48-.4c.62,0,1.12.21,1.47.62.35.42.53,1.09.53,2.02v1.65c0,.32,0,.69,0,1.11s.01.82.02,1.2c0,.38.02.68.03.92h-1.44ZM525.26,369.11v-.39l1.48-.15h.59l1.47.15v.39h-3.54Z"/>
        <path d="M532.58,369.32c-.61,0-1.06-.16-1.36-.47-.3-.31-.45-.8-.45-1.45,0-.23,0-.44,0-.63,0-.19,0-.41,0-.67v-3.77h-1.34v-.43l1.64-.13-.27.2.49-2.37h.9l-.04,2.42v5.42c0,.42.08.73.25.92.16.19.39.29.69.29.21,0,.39-.03.54-.1.15-.06.32-.16.51-.28l.21.25c-.2.26-.44.46-.73.59-.29.13-.64.2-1.05.2ZM531.48,362.34v-.53h2.63v.53h-2.63Z"/>
        <path d="M537.69,369.32c-.48,0-.9-.05-1.28-.15-.38-.1-.76-.25-1.14-.44v-1.71h.67l.36,1.82-.56-.04v-.5c.28.18.56.32.85.41.29.1.63.15,1.03.15.61,0,1.06-.12,1.37-.36.31-.24.46-.56.46-.96,0-.34-.1-.61-.31-.83-.21-.21-.6-.41-1.18-.59l-.74-.27c-.57-.2-1.02-.46-1.37-.79s-.51-.77-.51-1.31c0-.62.24-1.13.71-1.55.47-.42,1.15-.62,2.02-.62.44,0,.83.05,1.16.15s.69.26,1.05.48l-.06,1.54h-.6l-.39-1.69.48.11v.45c-.28-.21-.55-.35-.8-.43s-.53-.13-.83-.13c-.51,0-.91.11-1.18.34s-.41.53-.41.89c0,.32.11.58.33.79.22.21.59.4,1.1.58l.73.25c.72.24,1.23.54,1.53.88.3.35.46.77.46,1.27,0,.43-.11.81-.34,1.16-.23.34-.56.61-1,.8-.44.19-.98.29-1.62.29Z"/>
      </g>
      <g>
        <path d="M88.81,409.65c-.8,0-1.57-.11-2.31-.33-.74-.22-1.35-.48-1.84-.79l.12-2.97h.85l.71,3.32-.96-.46-.13-.64c.62.45,1.17.76,1.67.92.49.16,1.08.24,1.75.24,1.03,0,1.85-.23,2.46-.7.61-.47.92-1.15.92-2.04,0-.46-.08-.86-.24-1.2-.16-.33-.43-.64-.82-.93-.39-.28-.91-.56-1.58-.83l-.85-.35c-1.17-.5-2.06-1.08-2.66-1.75-.6-.66-.91-1.5-.91-2.52,0-.84.2-1.53.61-2.08s.96-.97,1.66-1.25c.7-.28,1.49-.42,2.36-.42.75,0,1.41.09,1.98.28.57.19,1.1.45,1.59.78l-.1,2.82h-.89l-.69-3.16,1,.46.1.66c-.51-.41-.98-.7-1.39-.87-.41-.17-.89-.25-1.45-.25-.89,0-1.62.22-2.19.65s-.86,1.05-.86,1.86c0,.72.21,1.3.63,1.73.42.43,1,.81,1.75,1.13l.91.37c.96.41,1.73.82,2.3,1.23.57.41.97.87,1.21,1.36.24.5.36,1.08.36,1.75,0,.81-.21,1.51-.62,2.11-.41.6-.99,1.06-1.75,1.39-.75.33-1.64.49-2.67.49Z"/>
        <path d="M97.08,409.32c.01-.32.03-.75.04-1.27s.02-1.08.03-1.66c0-.58,0-1.08,0-1.5v-1.24c0-.66,0-1.24-.02-1.75-.01-.51-.03-1-.06-1.48l-1.66-.1v-.48l3.42-.83.25.15-.06,2.78v2.93c0,.42,0,.93,0,1.5,0,.58.01,1.13.02,1.66s.02.95.03,1.27h-2.01ZM95.56,409.32v-.54l2.1-.21h.77l2.06.21v.54h-4.94ZM97.95,396.68c-.33,0-.62-.11-.86-.33-.24-.22-.36-.5-.36-.85s.12-.63.36-.85c.24-.22.52-.33.86-.33s.62.11.87.33c.24.22.37.5.37.85s-.12.63-.37.85c-.24.22-.53.33-.87.33Z"/>
        <path d="M103.55,409.32c.01-.32.02-.75.03-1.27s.01-1.08.02-1.66c0-.58,0-1.08,0-1.5v-1.27c0-.66,0-1.23,0-1.72,0-.49-.02-.97-.05-1.45l-1.64-.1v-.48l3.2-.85.25.15.12,2.18v3.53c0,.42,0,.93,0,1.5s.01,1.13.02,1.66c0,.53.02.95.03,1.27h-1.99ZM102.02,409.32v-.54l2.08-.21h.79l2.03.21v.54h-4.9ZM109.93,409.32c.01-.32.02-.74.03-1.26,0-.52.01-1.07.02-1.65,0-.58,0-1.09,0-1.52v-2.28c0-.93-.14-1.58-.43-1.96-.29-.38-.69-.57-1.19-.57s-.99.16-1.54.48c-.55.32-1.14.84-1.76,1.56l-.15-.75h.25c.6-.78,1.23-1.38,1.88-1.79.65-.41,1.33-.62,2.05-.62.86,0,1.53.29,2.01.86.48.57.71,1.5.71,2.79v2.28c0,.44,0,.95,0,1.52,0,.58.01,1.13.02,1.65,0,.52.02.94.03,1.26h-1.95ZM108.43,409.32v-.54l2.03-.21h.83l1.99.21v.54h-4.84ZM116.26,409.32c.01-.32.02-.74.03-1.26,0-.52.01-1.07.02-1.65,0-.58,0-1.09,0-1.52v-2.28c0-.95-.15-1.61-.43-1.98-.29-.37-.7-.55-1.24-.55-.48,0-.98.15-1.51.43s-1.11.79-1.73,1.51l-.19-.79h.27c.6-.78,1.23-1.36,1.87-1.73.64-.37,1.31-.55,2.01-.55.93,0,1.63.29,2.1.86.48.57.71,1.51.71,2.81v2.26c0,.44,0,.95,0,1.52,0,.58.01,1.13.02,1.65,0,.52.02.94.03,1.26h-1.97ZM114.77,409.32v-.54l2.01-.21h.83l2.01.21v.54h-4.84Z"/>
        <path d="M122.32,414.33c.01-.48.02-.98.03-1.5s.01-1.06.02-1.59c0-.53,0-1.03,0-1.48v-6.1c0-.66,0-1.24,0-1.75,0-.51-.02-.99-.05-1.46l-1.66-.12v-.48l3.18-.85.25.15.13,1.6.02.12v6.93l-.02.21v1.74c0,.44,0,.92,0,1.46,0,.53.01,1.07.02,1.6,0,.53.02,1.04.03,1.51h-1.97ZM120.74,414.33v-.54l2.14-.19h.96l2.22.19v.54h-5.33ZM127.22,409.61c-.59,0-1.17-.13-1.75-.4-.57-.26-1.1-.74-1.57-1.42h-.25l.29-.46c.45.49.88.82,1.3,1,.42.18.88.27,1.4.27.54,0,1.03-.14,1.48-.42.44-.28.8-.75,1.06-1.39.26-.64.4-1.49.4-2.55,0-1.49-.26-2.58-.78-3.27-.52-.69-1.21-1.03-2.07-1.03-.45,0-.9.11-1.36.32-.46.21-.96.63-1.5,1.24l-.23-.46h.19c.5-.73,1.07-1.26,1.72-1.59s1.3-.49,1.97-.49c.8,0,1.5.21,2.1.64.6.42,1.09,1.03,1.45,1.8.36.78.54,1.71.54,2.81s-.19,2.06-.58,2.88-.91,1.43-1.56,1.87c-.66.44-1.4.66-2.24.66Z"/>
        <path d="M133.08,409.32v-.54l2.24-.21h.77l2.28.21v.54h-5.29ZM134.74,409.32c.01-.42.02-.89.03-1.4,0-.51.01-1.03.02-1.55s0-1.02,0-1.49v-9.94l-1.64-.1v-.52l3.3-.62.29.17-.06,3.01v7.99c0,.46,0,.96,0,1.49s.01,1.04.02,1.55c0,.51.02.97.03,1.4h-2.01Z"/>
        <path d="M144.91,409.61c-.98,0-1.85-.2-2.6-.6s-1.35-.99-1.78-1.79-.65-1.76-.65-2.92.22-2.06.68-2.86c.45-.8,1.05-1.41,1.79-1.84.75-.43,1.55-.65,2.41-.65s1.62.18,2.23.54c.61.36,1.07.85,1.39,1.46.31.61.47,1.31.47,2.09,0,.46-.04.85-.12,1.16h-8.01v-.62h5.4c.36,0,.6-.1.73-.29.13-.19.19-.5.19-.93,0-.84-.21-1.51-.62-2.02s-.99-.76-1.74-.76c-.53,0-1.01.17-1.44.51s-.77.84-1.03,1.5c-.26.66-.39,1.48-.39,2.44,0,1.04.16,1.9.47,2.58.31.67.74,1.17,1.28,1.48.54.31,1.16.46,1.87.46s1.27-.12,1.77-.37.93-.59,1.3-1.04l.33.25c-.41.69-.95,1.24-1.61,1.62-.66.39-1.44.58-2.34.58Z"/>
        <path d="M155.31,409.32v-.6l2.2-.25h.39l2.24.25v.6h-4.82ZM155.41,395.79v-.6h2.72v.83h-.19l-2.53-.23ZM157.28,409.32l.04-14.12h.64l.14,6.81v7.31h-.81ZM163.05,409.32l-5.42-13.43h-.12v-.69h1.87l4.82,12.06h-.44l.14-.27,4.63-11.79h.83v.69h-.33l-.21.52-5.06,12.91h-.71ZM166.67,409.32v-.6l2.72-.25h.42l2.78.25v.6h-5.92ZM168.57,409.32c.03-1.09.04-2.17.04-3.24s0-2.08.02-3.05l.08-7.83h1.95c-.03,1.08-.04,2.17-.05,3.26,0,1.09,0,2.19,0,3.3v1.02c0,1.09,0,2.19,0,3.28,0,1.09.02,2.18.05,3.26h-2.08ZM169.61,396.02v-.83h2.95v.6l-2.72.23h-.23Z"/>
        <path d="M178.79,409.61c-.9,0-1.72-.2-2.47-.61-.75-.41-1.34-1.01-1.78-1.8s-.67-1.77-.67-2.91.23-2.13.69-2.92c.46-.79,1.07-1.39,1.82-1.79s1.55-.61,2.4-.61,1.69.2,2.44.61,1.36,1,1.82,1.79c.46.79.69,1.77.69,2.92s-.23,2.12-.69,2.91-1.06,1.4-1.8,1.8c-.75.41-1.57.61-2.47.61ZM178.79,408.99c.91,0,1.63-.4,2.14-1.2.51-.8.77-1.96.77-3.49s-.26-2.7-.77-3.5c-.51-.8-1.23-1.21-2.14-1.21s-1.61.4-2.12,1.21c-.51.8-.77,1.97-.77,3.5s.26,2.7.77,3.49c.51.8,1.22,1.2,2.12,1.2Z"/>
        <path d="M189.87,409.61c-.82,0-1.56-.21-2.21-.65-.65-.43-1.16-1.04-1.52-1.82-.37-.78-.55-1.7-.55-2.74,0-1.12.2-2.08.61-2.89.41-.81.95-1.44,1.64-1.88s1.46-.67,2.31-.67c.58,0,1.13.14,1.66.42.53.28,1.02.75,1.49,1.41h.19l-.27.44c-.44-.46-.85-.79-1.24-.99-.39-.2-.81-.3-1.26-.3-.57,0-1.08.14-1.55.43-.47.29-.85.76-1.13,1.41-.28.65-.42,1.5-.42,2.56,0,.99.13,1.8.4,2.43.26.63.62,1.09,1.07,1.39s.96.44,1.52.44c.49,0,.94-.11,1.35-.32.41-.21.82-.56,1.23-1.05l.27.5h-.17c-.44.62-.94,1.08-1.51,1.4-.57.32-1.2.47-1.88.47ZM193.03,409.51l-.12-1.87v-6.77l.06-.19v-5.73l-1.72-.1v-.52l3.3-.62.29.17-.06,2.95v11.83l1.7.12v.54l-3.45.19Z"/>
        <path d="M202.91,409.61c-.98,0-1.85-.2-2.6-.6s-1.35-.99-1.78-1.79-.65-1.76-.65-2.92.22-2.06.68-2.86c.45-.8,1.05-1.41,1.79-1.84.75-.43,1.55-.65,2.41-.65s1.62.18,2.23.54c.61.36,1.07.85,1.39,1.46.31.61.47,1.31.47,2.09,0,.46-.04.85-.12,1.16h-8.01v-.62h5.4c.36,0,.6-.1.73-.29.13-.19.19-.5.19-.93,0-.84-.21-1.51-.62-2.02s-.99-.76-1.74-.76c-.53,0-1.01.17-1.44.51s-.77.84-1.03,1.5c-.26.66-.39,1.48-.39,2.44,0,1.04.16,1.9.47,2.58.31.67.74,1.17,1.28,1.48.54.31,1.16.46,1.87.46s1.27-.12,1.77-.37.93-.59,1.3-1.04l.33.25c-.41.69-.95,1.24-1.61,1.62-.66.39-1.44.58-2.34.58Z"/>
        <path d="M208.06,409.32v-.54l2.24-.21h.77l2.28.21v.54h-5.29ZM209.72,409.32c.01-.42.02-.89.03-1.4,0-.51.01-1.03.02-1.55s0-1.02,0-1.49v-9.94l-1.64-.1v-.52l3.3-.62.29.17-.06,3.01v7.99c0,.46,0,.96,0,1.49s.01,1.04.02,1.55c0,.51.02.97.03,1.4h-2.01Z"/>
      </g>
      <g>
        <path d="M401.06,409.65c-1.05,0-2.02-.16-2.88-.49s-1.63-.81-2.28-1.44c-.65-.63-1.15-1.4-1.5-2.31-.35-.91-.52-1.94-.52-3.1s.18-2.2.54-3.12c.36-.92.87-1.7,1.51-2.35s1.41-1.14,2.29-1.48c.88-.33,1.82-.5,2.84-.5.81,0,1.53.09,2.16.26.63.17,1.25.45,1.87.82l.04,3.16h-.93l-.75-3.49,1.1.37v.67c-.53-.4-1.04-.68-1.53-.85-.5-.17-1.05-.25-1.65-.25-1.03,0-1.95.25-2.76.76-.81.51-1.44,1.26-1.9,2.26-.46,1-.68,2.23-.68,3.7s.23,2.68.68,3.67c.46,1,1.08,1.75,1.88,2.26.8.51,1.7.76,2.72.76.6,0,1.18-.09,1.72-.26.54-.17,1.08-.46,1.62-.86v.66l-1.06.33.77-3.43h.91v3.15c-.64.39-1.3.67-1.98.84-.67.17-1.42.26-2.23.26Z"/>
        <path d="M412.04,409.61c-.9,0-1.72-.2-2.47-.61-.75-.41-1.34-1.01-1.79-1.8-.44-.8-.67-1.77-.67-2.91s.23-2.13.69-2.92,1.07-1.39,1.82-1.79c.75-.41,1.55-.61,2.4-.61s1.69.2,2.44.61c.75.41,1.36,1,1.82,1.79s.69,1.77.69,2.92-.23,2.12-.68,2.91c-.46.8-1.06,1.4-1.8,1.8-.75.41-1.57.61-2.47.61ZM412.04,408.99c.91,0,1.63-.4,2.14-1.2.51-.8.77-1.96.77-3.49s-.26-2.7-.77-3.5c-.51-.8-1.23-1.21-2.14-1.21s-1.61.4-2.12,1.21c-.51.8-.77,1.97-.77,3.5s.26,2.7.77,3.49c.51.8,1.22,1.2,2.12,1.2Z"/>
        <path d="M420.18,409.32c.01-.32.02-.75.03-1.27,0-.53.01-1.08.02-1.66s0-1.08,0-1.5v-1.27c0-.66,0-1.23,0-1.72,0-.49-.02-.97-.05-1.45l-1.64-.1v-.48l3.2-.85.25.15.12,2.18v3.53c0,.42,0,.93,0,1.5,0,.58.01,1.13.02,1.66s.02.95.03,1.27h-1.99ZM418.66,409.32v-.54l2.08-.21h.79l2.03.21v.54h-4.9ZM426.57,409.32c.01-.32.02-.74.03-1.26,0-.52.01-1.07.02-1.65,0-.58,0-1.09,0-1.52v-2.28c0-.93-.14-1.58-.43-1.96-.29-.38-.68-.57-1.19-.57-.48,0-.99.16-1.54.48-.55.32-1.14.84-1.76,1.56l-.15-.75h.25c.6-.78,1.23-1.38,1.88-1.79.65-.41,1.33-.62,2.05-.62.86,0,1.53.29,2.01.86.48.57.71,1.5.71,2.79v2.28c0,.44,0,.95,0,1.52,0,.58.01,1.13.02,1.65,0,.52.02.94.03,1.26h-1.95ZM425.07,409.32v-.54l2.03-.21h.83l1.99.21v.54h-4.84ZM432.9,409.32c.01-.32.02-.74.03-1.26,0-.52.01-1.07.02-1.65,0-.58,0-1.09,0-1.52v-2.28c0-.95-.14-1.61-.43-1.98-.29-.37-.71-.55-1.25-.55-.48,0-.98.15-1.51.43-.53.29-1.11.79-1.73,1.51l-.19-.79h.27c.6-.78,1.23-1.36,1.87-1.73.64-.37,1.31-.55,2.01-.55.93,0,1.63.29,2.1.86.48.57.71,1.51.71,2.81v2.26c0,.44,0,.95,0,1.52,0,.58.01,1.13.02,1.65,0,.52.02.94.03,1.26h-1.97ZM431.41,409.32v-.54l2.01-.21h.83l2.01.21v.54h-4.84Z"/>
        <path d="M438.96,414.33c.01-.48.02-.98.03-1.5,0-.53.01-1.06.02-1.59,0-.53,0-1.03,0-1.48v-6.1c0-.66,0-1.24,0-1.75,0-.51-.02-.99-.05-1.46l-1.66-.12v-.48l3.18-.85.25.15.13,1.6.02.12v6.93l-.02.21v1.74c0,.44,0,.92,0,1.46,0,.53.01,1.07.02,1.6,0,.53.02,1.04.03,1.51h-1.97ZM437.38,414.33v-.54l2.14-.19h.96l2.22.19v.54h-5.33ZM443.86,409.61c-.59,0-1.17-.13-1.75-.4-.57-.26-1.1-.74-1.57-1.42h-.25l.29-.46c.45.49.88.82,1.3,1,.42.18.88.27,1.4.27.54,0,1.03-.14,1.48-.42.44-.28.8-.75,1.06-1.39.26-.64.4-1.49.4-2.55,0-1.49-.26-2.58-.78-3.27-.52-.69-1.21-1.03-2.07-1.03-.45,0-.9.11-1.36.32-.46.21-.96.63-1.5,1.24l-.23-.46h.19c.5-.73,1.07-1.26,1.72-1.59.64-.33,1.3-.49,1.97-.49.8,0,1.5.21,2.1.64.6.42,1.09,1.03,1.45,1.8.36.78.54,1.71.54,2.81s-.19,2.06-.58,2.88-.91,1.43-1.56,1.87c-.66.44-1.4.66-2.24.66Z"/>
        <path d="M449.72,409.32v-.54l2.24-.21h.77l2.28.21v.54h-5.29ZM451.38,409.32c.01-.42.02-.89.03-1.4,0-.51.01-1.03.02-1.55,0-.53,0-1.02,0-1.49v-9.94l-1.64-.1v-.52l3.3-.62.29.17-.06,3.01v7.99c0,.46,0,.96,0,1.49,0,.53.01,1.04.02,1.55,0,.51.02.97.03,1.4h-2.01Z"/>
        <path d="M461.55,409.61c-.98,0-1.85-.2-2.6-.6s-1.35-.99-1.79-1.79c-.43-.79-.65-1.76-.65-2.92s.22-2.06.67-2.86c.45-.8,1.05-1.41,1.79-1.84.75-.43,1.55-.65,2.41-.65s1.62.18,2.23.54,1.07.85,1.39,1.46c.31.61.47,1.31.47,2.09,0,.46-.04.85-.12,1.16h-8.01v-.62h5.4c.36,0,.6-.1.73-.29.13-.19.19-.5.19-.93,0-.84-.21-1.51-.62-2.02-.41-.51-.99-.76-1.74-.76-.53,0-1.01.17-1.44.51-.43.34-.78.84-1.03,1.5-.26.66-.39,1.48-.39,2.44,0,1.04.16,1.9.47,2.58.31.67.74,1.17,1.28,1.48.54.31,1.16.46,1.87.46s1.27-.12,1.77-.37.93-.59,1.3-1.04l.33.25c-.41.69-.95,1.24-1.61,1.62-.66.39-1.44.58-2.34.58Z"/>
        <path d="M466.47,409.32v-.54l1.7-.19h.42l1.7.19v.54h-3.82ZM466.59,399.83v-.58h4.84v.58l-2.01.19h-.85l-1.99-.19ZM467.34,409.32l4.21-5.63.41.39h-.04l-1.81,2.62-1.79,2.62h-.96ZM474.15,409.32l-3.05-4.53-3.72-5.54h2.12l2.97,4.36,3.88,5.71h-2.2ZM472.08,404.67l-.41-.41h.08l1.72-2.51,1.72-2.51h.95l-4.05,5.42ZM472.16,409.32v-.54l2.41-.21h.52l2.04.21v.54h-4.98ZM473.19,399.83v-.58h3.68v.58l-1.54.17h-.42l-1.72-.17Z"/>
        <path d="M482.97,409.32v-.6l2.2-.25h.39l2.24.25v.6h-4.82ZM483.06,395.79v-.6h2.72v.83h-.19l-2.53-.23ZM484.93,409.32l.04-14.12h.64l.14,6.81v7.31h-.81ZM490.7,409.32l-5.42-13.43h-.12v-.69h1.87l4.82,12.06h-.44l.14-.27,4.63-11.79h.83v.69h-.33l-.21.52-5.06,12.91h-.71ZM494.33,409.32v-.6l2.72-.25h.42l2.78.25v.6h-5.92ZM496.22,409.32c.03-1.09.04-2.17.04-3.24s0-2.08.02-3.05l.08-7.83h1.95c-.03,1.08-.04,2.17-.05,3.26,0,1.09,0,2.19,0,3.3v1.02c0,1.09,0,2.19,0,3.28,0,1.09.02,2.18.05,3.26h-2.08ZM497.26,396.02v-.83h2.95v.6l-2.72.23h-.23Z"/>
        <path d="M506.45,409.61c-.9,0-1.72-.2-2.47-.61s-1.34-1.01-1.78-1.8c-.44-.8-.67-1.77-.67-2.91s.23-2.13.69-2.92c.46-.79,1.07-1.39,1.82-1.79.75-.41,1.55-.61,2.4-.61s1.69.2,2.44.61c.75.41,1.36,1,1.82,1.79.46.79.7,1.77.7,2.92s-.23,2.12-.69,2.91c-.46.8-1.06,1.4-1.8,1.8s-1.57.61-2.47.61ZM506.45,408.99c.91,0,1.63-.4,2.14-1.2.51-.8.77-1.96.77-3.49s-.26-2.7-.77-3.5c-.51-.8-1.23-1.21-2.14-1.21s-1.61.4-2.12,1.21c-.51.8-.77,1.97-.77,3.5s.26,2.7.77,3.49c.51.8,1.22,1.2,2.12,1.2Z"/>
        <path d="M517.52,409.61c-.82,0-1.56-.21-2.21-.65-.65-.43-1.16-1.04-1.52-1.82-.37-.78-.55-1.7-.55-2.74,0-1.12.2-2.08.61-2.89.41-.81.95-1.44,1.64-1.88.69-.44,1.46-.67,2.31-.67.58,0,1.13.14,1.66.42.53.28,1.02.75,1.49,1.41h.19l-.27.44c-.44-.46-.85-.79-1.24-.99-.39-.2-.81-.3-1.26-.3-.57,0-1.08.14-1.55.43-.47.29-.85.76-1.13,1.41-.28.65-.42,1.5-.42,2.56,0,.99.13,1.8.4,2.43.26.63.62,1.09,1.07,1.39s.96.44,1.52.44c.49,0,.94-.11,1.35-.32s.82-.56,1.24-1.05l.27.5h-.17c-.44.62-.94,1.08-1.51,1.4-.57.32-1.2.47-1.88.47ZM520.69,409.51l-.12-1.87v-6.77l.06-.19v-5.73l-1.72-.1v-.52l3.3-.62.29.17-.06,2.95v11.83l1.7.12v.54l-3.45.19Z"/>
        <path d="M530.56,409.61c-.98,0-1.85-.2-2.61-.6s-1.35-.99-1.78-1.79c-.43-.79-.65-1.76-.65-2.92s.22-2.06.68-2.86c.45-.8,1.05-1.41,1.79-1.84.75-.43,1.55-.65,2.41-.65s1.62.18,2.23.54c.61.36,1.07.85,1.39,1.46.32.61.47,1.31.47,2.09,0,.46-.04.85-.12,1.16h-8.01v-.62h5.4c.36,0,.6-.1.73-.29.13-.19.19-.5.19-.93,0-.84-.21-1.51-.62-2.02-.41-.51-.99-.76-1.74-.76-.53,0-1.01.17-1.44.51-.43.34-.77.84-1.03,1.5-.26.66-.39,1.48-.39,2.44,0,1.04.16,1.9.47,2.58.32.67.74,1.17,1.28,1.48s1.16.46,1.87.46,1.27-.12,1.76-.37.93-.59,1.3-1.04l.33.25c-.41.69-.95,1.24-1.61,1.62s-1.44.58-2.34.58Z"/>
        <path d="M535.72,409.32v-.54l2.24-.21h.77l2.28.21v.54h-5.29ZM537.38,409.32c.01-.42.02-.89.03-1.4,0-.51.01-1.03.02-1.55,0-.53,0-1.02,0-1.49v-9.94l-1.64-.1v-.52l3.3-.62.29.17-.06,3.01v7.99c0,.46,0,.96,0,1.49,0,.53.01,1.04.02,1.55,0,.51.02.97.03,1.4h-2.01Z"/>
      </g>
      <path class="cls-2" d="M47.22,263.14s30.56-13.21,212.8-13.63"/>
      <path class="cls-3" d="M47.22,226.62s7.85,18.54,212.8,19.17"/>
      <path class="cls-3" d="M453.59,185.21c4.46,22.59,8.41,42.08,11.74,59.74,1.37,7.27,3.4,18.32,11.74,28.7,4.79,5.96,9.98,9.62,13.04,11.74,7.86,5.45,15.89,8.74,27.91,12,11.01,2.98,26.89,6.36,46.96,7.57"/>
      <path class="cls-2" d="M367.5,352.17c4.81-4.05,12.22-9.52,22.17-14.09,13.64-6.25,25.27-7.69,38.61-9.13,40.29-4.35,55.04-4.96,55.04-4.96,22.15-.91,46.08-1.91,80.61-3.39"/>
    </g>
  </g>
</svg>