<?xml version="1.0" encoding="UTF-8"?>
<svg xmlns="http://www.w3.org/2000/svg" version="1.1" xmlns:xlink="http://www.w3.org/1999/xlink" viewBox="0 0 600 600">
  <defs>
    <style>
      .cls-1 {
        stroke: #22ac38;
      }

      .cls-1, .cls-2 {
        stroke-miterlimit: 10;
      }

      .cls-1, .cls-2, .cls-3 {
        fill: #22ac38;
      }

      .cls-4 {
        stroke-dasharray: 1 1.65;
      }

      .cls-4, .cls-5, .cls-6, .cls-7 {
        fill: none;
      }

      .cls-4, .cls-6, .cls-8 {
        stroke: #000;
      }

      .cls-4, .cls-7, .cls-8 {
        stroke-linejoin: round;
      }

      .cls-9 {
        fill: #e60012;
      }

      .cls-10 {
        fill: #fff;
      }

      .cls-2 {
        stroke: #e60012;
      }

      .cls-11 {
        clip-path: url(#clippath-1);
      }

      .cls-6, .cls-7 {
        stroke-linecap: square;
      }

      .cls-6, .cls-8 {
        stroke-width: .8px;
      }

      .cls-12 {
        clip-path: url(#clippath-3);
      }

      .cls-7 {
        stroke: blue;
        stroke-opacity: .3;
        stroke-width: 1.5px;
      }

      .cls-13 {
        clip-path: url(#clippath-2);
      }

      .cls-14 {
        fill: #1d2088;
      }

      .cls-15 {
        clip-path: url(#clippath);
      }
    </style>
    <clipPath id="clippath">
      <rect class="cls-5" x="26.73" y="210.12" width="252.07" height="191.65"/>
    </clipPath>
    <clipPath id="clippath-1">
      <rect class="cls-5" x="26.73" y="210.12" width="252.07" height="191.65"/>
    </clipPath>
    <clipPath id="clippath-2">
      <rect class="cls-5" x="327.9" y="210.12" width="252.07" height="191.65"/>
    </clipPath>
    <clipPath id="clippath-3">
      <rect class="cls-5" x="327.9" y="210.12" width="252.07" height="191.65"/>
    </clipPath>
  </defs>
  <!-- Generator: Adobe Illustrator 28.7.1, SVG Export Plug-In . SVG Version: 1.2.0 Build 142)  -->
  <g>
    <g id="_레이어_1" data-name="레이어_1">
      <g id="figure_1">
        <g id="patch_1">
          <path class="cls-10" d="M6.05,415.5h283.52v-212.64H6.05v212.64Z"/>
        </g>
        <g id="axes_1">
          <g id="patch_2">
            <path class="cls-10" d="M26.73,401.77h252.07v-191.65H26.73v191.65Z"/>
          </g>
          <g id="matplotlib.axis_1">
            <g id="xtick_1">
              <g id="line2d_1">
                <path id="mae7dea919d" class="cls-8" d="M26.73,401.77v1.72"/>
              </g>
              <g id="text_1">
                <g>
                  <path id="DejaVuSans-2212" d="M19.71,407.21h3.08v.41h-3.08v-.41Z"/>
                  <path id="DejaVuSans-31" d="M23.93,408.55h.79v-2.74l-.86.17v-.44l.86-.17h.49v3.18h.79v.41h-2.07v-.41Z"/>
                  <path id="DejaVuSans-2e" d="M26.97,408.35h.51v.61h-.51v-.61Z"/>
                  <path id="DejaVuSans-30" d="M29.58,405.69c-.25,0-.44.12-.56.37-.13.25-.19.62-.19,1.11s.06.86.19,1.11c.13.25.31.37.56.37s.44-.12.57-.37c.13-.25.19-.62.19-1.11s-.06-.86-.19-1.11c-.13-.25-.31-.37-.57-.37ZM29.58,405.31c.4,0,.71.16.92.48.21.32.32.78.32,1.39s-.11,1.07-.32,1.38c-.21.32-.52.48-.92.48s-.71-.16-.92-.48c-.21-.32-.32-.78-.32-1.38s.11-1.07.32-1.39c.21-.32.52-.48.92-.48Z"/>
                  <path id="DejaVuSans-30-2" data-name="DejaVuSans-30" d="M32.71,405.69c-.25,0-.44.12-.56.37-.13.25-.19.62-.19,1.11s.06.86.19,1.11c.13.25.31.37.56.37s.44-.12.57-.37c.13-.25.19-.62.19-1.11s-.06-.86-.19-1.11c-.13-.25-.31-.37-.57-.37ZM32.71,405.31c.4,0,.71.16.92.48.21.32.32.78.32,1.39s-.11,1.07-.32,1.38c-.21.32-.52.48-.92.48s-.71-.16-.92-.48c-.21-.32-.32-.78-.32-1.38s.11-1.07.32-1.39c.21-.32.52-.48.92-.48Z"/>
                </g>
              </g>
            </g>
            <g id="xtick_2">
              <g id="line2d_2">
                <path id="mae7dea919d-2" data-name="mae7dea919d" class="cls-8" d="M58.24,401.77v1.72"/>
              </g>
              <g id="text_2">
                <g>
                  <path id="DejaVuSans-2212-2" data-name="DejaVuSans-2212" d="M51.22,407.21h3.08v.41h-3.08v-.41Z"/>
                  <path id="DejaVuSans-30-3" data-name="DejaVuSans-30" d="M56.39,405.69c-.25,0-.44.12-.56.37-.13.25-.19.62-.19,1.11s.06.86.19,1.11c.13.25.31.37.56.37s.44-.12.57-.37c.13-.25.19-.62.19-1.11s-.06-.86-.19-1.11c-.13-.25-.31-.37-.57-.37ZM56.39,405.31c.4,0,.71.16.92.48.21.32.32.78.32,1.39s-.11,1.07-.32,1.38c-.21.32-.52.48-.92.48s-.71-.16-.92-.48c-.21-.32-.32-.78-.32-1.38s.11-1.07.32-1.39c.21-.32.52-.48.92-.48Z"/>
                  <path id="DejaVuSans-2e-2" data-name="DejaVuSans-2e" d="M58.48,408.35h.51v.61h-.51v-.61Z"/>
                  <path id="DejaVuSans-37" d="M59.92,405.37h2.31v.21l-1.3,3.38h-.51l1.23-3.18h-1.72v-.41Z"/>
                  <path id="DejaVuSans-35" d="M63.18,405.37h1.91v.41h-1.46v.88c.07-.02.14-.04.21-.05.07-.01.14-.02.21-.02.4,0,.72.11.95.33.23.22.35.52.35.89s-.12.69-.36.9c-.24.21-.58.32-1.02.32-.15,0-.3-.01-.46-.04-.16-.03-.32-.06-.48-.12v-.49c.14.08.29.14.45.18s.32.06.49.06c.28,0,.5-.07.66-.22.16-.15.24-.34.24-.59s-.08-.45-.24-.59c-.16-.15-.38-.22-.66-.22-.13,0-.26.01-.39.04-.13.03-.26.07-.39.13v-1.8Z"/>
                </g>
              </g>
            </g>
            <g id="xtick_3">
              <g id="line2d_3">
                <path id="mae7dea919d-3" data-name="mae7dea919d" class="cls-8" d="M89.75,401.77v1.72"/>
              </g>
              <g id="text_3">
                <g>
                  <path id="DejaVuSans-2212-3" data-name="DejaVuSans-2212" d="M82.73,407.21h3.08v.41h-3.08v-.41Z"/>
                  <path id="DejaVuSans-30-4" data-name="DejaVuSans-30" d="M87.9,405.69c-.25,0-.44.12-.56.37-.13.25-.19.62-.19,1.11s.06.86.19,1.11c.13.25.31.37.56.37s.44-.12.57-.37c.13-.25.19-.62.19-1.11s-.06-.86-.19-1.11c-.13-.25-.31-.37-.57-.37ZM87.9,405.31c.4,0,.71.16.92.48.21.32.32.78.32,1.39s-.11,1.07-.32,1.38c-.21.32-.52.48-.92.48s-.71-.16-.92-.48c-.21-.32-.32-.78-.32-1.38s.11-1.07.32-1.39c.21-.32.52-.48.92-.48Z"/>
                  <path id="DejaVuSans-2e-3" data-name="DejaVuSans-2e" d="M89.99,408.35h.51v.61h-.51v-.61Z"/>
                  <path id="DejaVuSans-35-2" data-name="DejaVuSans-35" d="M91.56,405.37h1.91v.41h-1.46v.88c.07-.02.14-.04.21-.05.07-.01.14-.02.21-.02.4,0,.72.11.95.33.23.22.35.52.35.89s-.12.69-.36.9c-.24.21-.58.32-1.02.32-.15,0-.3-.01-.46-.04-.16-.03-.32-.06-.48-.12v-.49c.14.08.29.14.45.18s.32.06.49.06c.28,0,.5-.07.66-.22.16-.15.24-.34.24-.59s-.08-.45-.24-.59c-.16-.15-.38-.22-.66-.22-.13,0-.26.01-.39.04-.13.03-.26.07-.39.13v-1.8Z"/>
                  <path id="DejaVuSans-30-5" data-name="DejaVuSans-30" d="M95.73,405.69c-.25,0-.44.12-.56.37-.13.25-.19.62-.19,1.11s.06.86.19,1.11c.13.25.31.37.56.37s.44-.12.57-.37c.13-.25.19-.62.19-1.11s-.06-.86-.19-1.11c-.13-.25-.31-.37-.57-.37ZM95.73,405.31c.4,0,.71.16.92.48.21.32.32.78.32,1.39s-.11,1.07-.32,1.38c-.21.32-.52.48-.92.48s-.71-.16-.92-.48c-.21-.32-.32-.78-.32-1.38s.11-1.07.32-1.39c.21-.32.52-.48.92-.48Z"/>
                </g>
              </g>
            </g>
            <g id="xtick_4">
              <g id="line2d_4">
                <path id="mae7dea919d-4" data-name="mae7dea919d" class="cls-8" d="M121.26,401.77v1.72"/>
              </g>
              <g id="text_4">
                <g>
                  <path id="DejaVuSans-2212-4" data-name="DejaVuSans-2212" d="M114.24,407.21h3.08v.41h-3.08v-.41Z"/>
                  <path id="DejaVuSans-30-6" data-name="DejaVuSans-30" d="M119.41,405.69c-.25,0-.44.12-.56.37-.13.25-.19.62-.19,1.11s.06.86.19,1.11c.13.25.31.37.56.37s.44-.12.57-.37c.13-.25.19-.62.19-1.11s-.06-.86-.19-1.11c-.13-.25-.31-.37-.57-.37ZM119.41,405.31c.4,0,.71.16.92.48.21.32.32.78.32,1.39s-.11,1.07-.32,1.38c-.21.32-.52.48-.92.48s-.71-.16-.92-.48c-.21-.32-.32-.78-.32-1.38s.11-1.07.32-1.39c.21-.32.52-.48.92-.48Z"/>
                  <path id="DejaVuSans-2e-4" data-name="DejaVuSans-2e" d="M121.5,408.35h.51v.61h-.51v-.61Z"/>
                  <path id="DejaVuSans-32" d="M123.48,408.55h1.69v.41h-2.28v-.41c.18-.19.44-.45.75-.77.32-.32.52-.53.6-.62.16-.17.26-.32.33-.44.06-.12.09-.24.09-.36,0-.19-.07-.35-.2-.47-.13-.12-.31-.18-.52-.18-.15,0-.31.03-.48.08-.17.05-.35.13-.54.24v-.49c.2-.08.38-.14.55-.18.17-.04.33-.06.47-.06.37,0,.67.09.89.28.22.19.33.43.33.74,0,.15-.03.29-.08.42-.05.13-.16.29-.3.47-.04.05-.17.18-.38.4-.21.22-.52.53-.91.93Z"/>
                  <path id="DejaVuSans-35-3" data-name="DejaVuSans-35" d="M126.2,405.37h1.91v.41h-1.46v.88c.07-.02.14-.04.21-.05.07-.01.14-.02.21-.02.4,0,.72.11.95.33.23.22.35.52.35.89s-.12.69-.36.9c-.24.21-.58.32-1.02.32-.15,0-.3-.01-.46-.04-.16-.03-.32-.06-.48-.12v-.49c.14.08.29.14.45.18s.32.06.49.06c.28,0,.5-.07.66-.22.16-.15.24-.34.24-.59s-.08-.45-.24-.59c-.16-.15-.38-.22-.66-.22-.13,0-.26.01-.39.04-.13.03-.26.07-.39.13v-1.8Z"/>
                </g>
              </g>
            </g>
            <g id="xtick_5">
              <g id="line2d_5">
                <path id="mae7dea919d-5" data-name="mae7dea919d" class="cls-8" d="M152.77,401.77v1.72"/>
              </g>
              <g id="text_5">
                <g>
                  <path id="DejaVuSans-30-7" data-name="DejaVuSans-30" d="M148.85,405.69c-.25,0-.44.12-.56.37-.13.25-.19.62-.19,1.11s.06.86.19,1.11c.13.25.31.37.56.37s.44-.12.57-.37c.13-.25.19-.62.19-1.11s-.06-.86-.19-1.11c-.13-.25-.31-.37-.57-.37ZM148.85,405.31c.4,0,.71.16.92.48.21.32.32.78.32,1.39s-.11,1.07-.32,1.38c-.21.32-.52.48-.92.48s-.71-.16-.92-.48c-.21-.32-.32-.78-.32-1.38s.11-1.07.32-1.39c.21-.32.52-.48.92-.48Z"/>
                  <path id="DejaVuSans-2e-5" data-name="DejaVuSans-2e" d="M150.95,408.35h.51v.61h-.51v-.61Z"/>
                  <path id="DejaVuSans-30-8" data-name="DejaVuSans-30" d="M153.55,405.69c-.25,0-.44.12-.56.37-.13.25-.19.62-.19,1.11s.06.86.19,1.11c.13.25.31.37.56.37s.44-.12.57-.37c.13-.25.19-.62.19-1.11s-.06-.86-.19-1.11c-.13-.25-.31-.37-.57-.37ZM153.55,405.31c.4,0,.71.16.92.48.21.32.32.78.32,1.39s-.11,1.07-.32,1.38c-.21.32-.52.48-.92.48s-.71-.16-.92-.48c-.21-.32-.32-.78-.32-1.38s.11-1.07.32-1.39c.21-.32.52-.48.92-.48Z"/>
                  <path id="DejaVuSans-30-9" data-name="DejaVuSans-30" d="M156.68,405.69c-.25,0-.44.12-.56.37-.13.25-.19.62-.19,1.11s.06.86.19,1.11c.13.25.31.37.56.37s.44-.12.57-.37c.13-.25.19-.62.19-1.11s-.06-.86-.19-1.11c-.13-.25-.31-.37-.57-.37ZM156.68,405.31c.4,0,.71.16.92.48.21.32.32.78.32,1.39s-.11,1.07-.32,1.38c-.21.32-.52.48-.92.48s-.71-.16-.92-.48c-.21-.32-.32-.78-.32-1.38s.11-1.07.32-1.39c.21-.32.52-.48.92-.48Z"/>
                </g>
              </g>
            </g>
            <g id="xtick_6">
              <g id="line2d_6">
                <path id="mae7dea919d-6" data-name="mae7dea919d" class="cls-8" d="M184.28,401.77v1.72"/>
              </g>
              <g id="text_6">
                <g>
                  <path id="DejaVuSans-30-10" data-name="DejaVuSans-30" d="M180.36,405.69c-.25,0-.44.12-.56.37-.13.25-.19.62-.19,1.11s.06.86.19,1.11c.13.25.31.37.56.37s.44-.12.57-.37c.13-.25.19-.62.19-1.11s-.06-.86-.19-1.11c-.13-.25-.31-.37-.57-.37ZM180.36,405.31c.4,0,.71.16.92.48.21.32.32.78.32,1.39s-.11,1.07-.32,1.38c-.21.32-.52.48-.92.48s-.71-.16-.92-.48c-.21-.32-.32-.78-.32-1.38s.11-1.07.32-1.39c.21-.32.52-.48.92-.48Z"/>
                  <path id="DejaVuSans-2e-6" data-name="DejaVuSans-2e" d="M182.46,408.35h.51v.61h-.51v-.61Z"/>
                  <path id="DejaVuSans-32-2" data-name="DejaVuSans-32" d="M184.44,408.55h1.69v.41h-2.28v-.41c.18-.19.44-.45.75-.77.32-.32.52-.53.6-.62.16-.17.26-.32.33-.44.06-.12.09-.24.09-.36,0-.19-.07-.35-.2-.47-.13-.12-.31-.18-.52-.18-.15,0-.31.03-.48.08-.17.05-.35.13-.54.24v-.49c.2-.08.38-.14.55-.18.17-.04.33-.06.47-.06.37,0,.67.09.89.28.22.19.33.43.33.74,0,.15-.03.29-.08.42-.05.13-.16.29-.3.47-.04.05-.17.18-.38.4-.21.22-.52.53-.91.93Z"/>
                  <path id="DejaVuSans-35-4" data-name="DejaVuSans-35" d="M187.16,405.37h1.91v.41h-1.46v.88c.07-.02.14-.04.21-.05.07-.01.14-.02.21-.02.4,0,.72.11.95.33.23.22.35.52.35.89s-.12.69-.36.9c-.24.21-.58.32-1.02.32-.15,0-.3-.01-.46-.04-.16-.03-.32-.06-.48-.12v-.49c.14.08.29.14.45.18s.32.06.49.06c.28,0,.5-.07.66-.22.16-.15.24-.34.24-.59s-.08-.45-.24-.59c-.16-.15-.38-.22-.66-.22-.13,0-.26.01-.39.04-.13.03-.26.07-.39.13v-1.8Z"/>
                </g>
              </g>
            </g>
            <g id="xtick_7">
              <g id="line2d_7">
                <path id="mae7dea919d-7" data-name="mae7dea919d" class="cls-8" d="M215.79,401.77v1.72"/>
              </g>
              <g id="text_7">
                <g>
                  <path id="DejaVuSans-30-11" data-name="DejaVuSans-30" d="M211.87,405.69c-.25,0-.44.12-.56.37-.13.25-.19.62-.19,1.11s.06.86.19,1.11c.13.25.31.37.56.37s.44-.12.57-.37c.13-.25.19-.62.19-1.11s-.06-.86-.19-1.11c-.13-.25-.31-.37-.57-.37ZM211.87,405.31c.4,0,.71.16.92.48.21.32.32.78.32,1.39s-.11,1.07-.32,1.38c-.21.32-.52.48-.92.48s-.71-.16-.92-.48c-.21-.32-.32-.78-.32-1.38s.11-1.07.32-1.39c.21-.32.52-.48.92-.48Z"/>
                  <path id="DejaVuSans-2e-7" data-name="DejaVuSans-2e" d="M213.97,408.35h.51v.61h-.51v-.61Z"/>
                  <path id="DejaVuSans-35-5" data-name="DejaVuSans-35" d="M215.54,405.37h1.91v.41h-1.46v.88c.07-.02.14-.04.21-.05.07-.01.14-.02.21-.02.4,0,.72.11.95.33.23.22.35.52.35.89s-.12.69-.36.9c-.24.21-.58.32-1.02.32-.15,0-.3-.01-.46-.04-.16-.03-.32-.06-.48-.12v-.49c.14.08.29.14.45.18s.32.06.49.06c.28,0,.5-.07.66-.22.16-.15.24-.34.24-.59s-.08-.45-.24-.59c-.16-.15-.38-.22-.66-.22-.13,0-.26.01-.39.04-.13.03-.26.07-.39.13v-1.8Z"/>
                  <path id="DejaVuSans-30-12" data-name="DejaVuSans-30" d="M219.7,405.69c-.25,0-.44.12-.56.37-.13.25-.19.62-.19,1.11s.06.86.19,1.11c.13.25.31.37.56.37s.44-.12.57-.37c.13-.25.19-.62.19-1.11s-.06-.86-.19-1.11c-.13-.25-.31-.37-.57-.37ZM219.7,405.31c.4,0,.71.16.92.48.21.32.32.78.32,1.39s-.11,1.07-.32,1.38c-.21.32-.52.48-.92.48s-.71-.16-.92-.48c-.21-.32-.32-.78-.32-1.38s.11-1.07.32-1.39c.21-.32.52-.48.92-.48Z"/>
                </g>
              </g>
            </g>
            <g id="xtick_8">
              <g id="line2d_8">
                <path id="mae7dea919d-8" data-name="mae7dea919d" class="cls-8" d="M247.3,401.77v1.72"/>
              </g>
              <g id="text_8">
                <g>
                  <path id="DejaVuSans-30-13" data-name="DejaVuSans-30" d="M243.38,405.69c-.25,0-.44.12-.56.37-.13.25-.19.62-.19,1.11s.06.86.19,1.11c.13.25.31.37.56.37s.44-.12.57-.37c.13-.25.19-.62.19-1.11s-.06-.86-.19-1.11c-.13-.25-.31-.37-.57-.37ZM243.38,405.31c.4,0,.71.16.92.48.21.32.32.78.32,1.39s-.11,1.07-.32,1.38c-.21.32-.52.48-.92.48s-.71-.16-.92-.48c-.21-.32-.32-.78-.32-1.38s.11-1.07.32-1.39c.21-.32.52-.48.92-.48Z"/>
                  <path id="DejaVuSans-2e-8" data-name="DejaVuSans-2e" d="M245.48,408.35h.51v.61h-.51v-.61Z"/>
                  <path id="DejaVuSans-37-2" data-name="DejaVuSans-37" d="M246.92,405.37h2.31v.21l-1.3,3.38h-.51l1.23-3.18h-1.72v-.41Z"/>
                  <path id="DejaVuSans-35-6" data-name="DejaVuSans-35" d="M250.18,405.37h1.91v.41h-1.46v.88c.07-.02.14-.04.21-.05.07-.01.14-.02.21-.02.4,0,.72.11.95.33.23.22.35.52.35.89s-.12.69-.36.9c-.24.21-.58.32-1.02.32-.15,0-.3-.01-.46-.04-.16-.03-.32-.06-.48-.12v-.49c.14.08.29.14.45.18s.32.06.49.06c.28,0,.5-.07.66-.22.16-.15.24-.34.24-.59s-.08-.45-.24-.59c-.16-.15-.38-.22-.66-.22-.13,0-.26.01-.39.04-.13.03-.26.07-.39.13v-1.8Z"/>
                </g>
              </g>
            </g>
            <g id="xtick_9">
              <g id="line2d_9">
                <path id="mae7dea919d-9" data-name="mae7dea919d" class="cls-8" d="M278.81,401.77v1.72"/>
              </g>
              <g id="text_9">
                <g>
                  <path id="DejaVuSans-31-2" data-name="DejaVuSans-31" d="M273.94,408.55h.79v-2.74l-.86.17v-.44l.86-.17h.49v3.18h.79v.41h-2.07v-.41Z"/>
                  <path id="DejaVuSans-2e-9" data-name="DejaVuSans-2e" d="M276.98,408.35h.51v.61h-.51v-.61Z"/>
                  <path id="DejaVuSans-30-14" data-name="DejaVuSans-30" d="M279.59,405.69c-.25,0-.44.12-.56.37-.13.25-.19.62-.19,1.11s.06.86.19,1.11c.13.25.31.37.56.37s.44-.12.57-.37c.13-.25.19-.62.19-1.11s-.06-.86-.19-1.11c-.13-.25-.31-.37-.57-.37ZM279.59,405.31c.4,0,.71.16.92.48.21.32.32.78.32,1.39s-.11,1.07-.32,1.38c-.21.32-.52.48-.92.48s-.71-.16-.92-.48c-.21-.32-.32-.78-.32-1.38s.11-1.07.32-1.39c.21-.32.52-.48.92-.48Z"/>
                  <path id="DejaVuSans-30-15" data-name="DejaVuSans-30" d="M282.72,405.69c-.25,0-.44.12-.56.37-.13.25-.19.62-.19,1.11s.06.86.19,1.11c.13.25.31.37.56.37s.44-.12.57-.37c.13-.25.19-.62.19-1.11s-.06-.86-.19-1.11c-.13-.25-.31-.37-.57-.37ZM282.72,405.31c.4,0,.71.16.92.48.21.32.32.78.32,1.39s-.11,1.07-.32,1.38c-.21.32-.52.48-.92.48s-.71-.16-.92-.48c-.21-.32-.32-.78-.32-1.38s.11-1.07.32-1.39c.21-.32.52-.48.92-.48Z"/>
                </g>
              </g>
            </g>
          </g>
          <g id="matplotlib.axis_2">
            <g id="ytick_1">
              <g id="line2d_10">
                <path id="mba42d8faeb" class="cls-8" d="M26.73,401.77h-1.72"/>
              </g>
              <g id="text_10">
                <g>
                  <path id="DejaVuSans-2212-5" data-name="DejaVuSans-2212" d="M11.86,401.9h3.08v.41h-3.08v-.41Z"/>
                  <path id="DejaVuSans-32-3" data-name="DejaVuSans-32" d="M16.4,403.24h1.69v.41h-2.28v-.41c.18-.19.44-.45.75-.77.32-.32.52-.53.6-.62.16-.17.26-.32.33-.44.06-.12.09-.24.09-.36,0-.19-.07-.35-.2-.47-.13-.12-.31-.18-.52-.18-.15,0-.31.03-.48.08-.17.05-.35.13-.54.24v-.49c.2-.08.38-.14.55-.18.17-.04.33-.06.47-.06.37,0,.67.09.89.28.22.19.33.43.33.74,0,.15-.03.29-.08.42-.05.13-.16.29-.3.47-.04.05-.17.18-.38.4-.21.22-.52.53-.91.93Z"/>
                  <path id="DejaVuSans-2e-10" data-name="DejaVuSans-2e" d="M19.12,403.03h.51v.61h-.51v-.61Z"/>
                  <path id="DejaVuSans-30-16" data-name="DejaVuSans-30" d="M21.72,400.37c-.25,0-.44.12-.56.37-.13.25-.19.62-.19,1.11s.06.86.19,1.11c.13.25.31.37.56.37s.44-.12.57-.37c.13-.25.19-.62.19-1.11s-.06-.86-.19-1.11c-.13-.25-.31-.37-.57-.37ZM21.72,399.99c.4,0,.71.16.92.48.21.32.32.78.32,1.39s-.11,1.07-.32,1.38c-.21.32-.52.48-.92.48s-.71-.16-.92-.48c-.21-.32-.32-.78-.32-1.38s.11-1.07.32-1.39c.21-.32.52-.48.92-.48Z"/>
                </g>
              </g>
            </g>
            <g id="ytick_2">
              <g id="line2d_11">
                <path id="mba42d8faeb-2" data-name="mba42d8faeb" class="cls-8" d="M26.73,377.82h-1.72"/>
              </g>
              <g id="text_11">
                <g>
                  <path id="DejaVuSans-2212-6" data-name="DejaVuSans-2212" d="M11.86,377.94h3.08v.41h-3.08v-.41Z"/>
                  <path id="DejaVuSans-31-3" data-name="DejaVuSans-31" d="M16.07,379.28h.79v-2.74l-.86.17v-.44l.86-.17h.49v3.18h.79v.41h-2.07v-.41Z"/>
                  <path id="DejaVuSans-2e-11" data-name="DejaVuSans-2e" d="M19.12,379.08h.51v.61h-.51v-.61Z"/>
                  <path id="DejaVuSans-35-7" data-name="DejaVuSans-35" d="M20.69,376.1h1.91v.41h-1.46v.88c.07-.02.14-.04.21-.05.07-.01.14-.02.21-.02.4,0,.72.11.95.33.23.22.35.52.35.89s-.12.69-.36.9c-.24.21-.58.32-1.02.32-.15,0-.3-.01-.46-.04-.16-.03-.32-.06-.48-.12v-.49c.14.08.29.14.45.18s.32.06.49.06c.28,0,.5-.07.66-.22.16-.15.24-.34.24-.59s-.08-.45-.24-.59c-.16-.15-.38-.22-.66-.22-.13,0-.26.01-.39.04-.13.03-.26.07-.39.13v-1.8Z"/>
                </g>
              </g>
            </g>
            <g id="ytick_3">
              <g id="line2d_12">
                <path id="mba42d8faeb-3" data-name="mba42d8faeb" class="cls-8" d="M26.73,353.86h-1.72"/>
              </g>
              <g id="text_12">
                <g>
                  <path id="DejaVuSans-2212-7" data-name="DejaVuSans-2212" d="M11.86,353.98h3.08v.41h-3.08v-.41Z"/>
                  <path id="DejaVuSans-31-4" data-name="DejaVuSans-31" d="M16.07,355.32h.79v-2.74l-.86.17v-.44l.86-.17h.49v3.18h.79v.41h-2.07v-.41Z"/>
                  <path id="DejaVuSans-2e-12" data-name="DejaVuSans-2e" d="M19.12,355.12h.51v.61h-.51v-.61Z"/>
                  <path id="DejaVuSans-30-17" data-name="DejaVuSans-30" d="M21.72,352.46c-.25,0-.44.12-.56.37-.13.25-.19.62-.19,1.11s.06.86.19,1.11c.13.25.31.37.56.37s.44-.12.57-.37c.13-.25.19-.62.19-1.11s-.06-.86-.19-1.11c-.13-.25-.31-.37-.57-.37ZM21.72,352.08c.4,0,.71.16.92.48.21.32.32.78.32,1.39s-.11,1.07-.32,1.38c-.21.32-.52.48-.92.48s-.71-.16-.92-.48c-.21-.32-.32-.78-.32-1.38s.11-1.07.32-1.39c.21-.32.52-.48.92-.48Z"/>
                </g>
              </g>
            </g>
            <g id="ytick_4">
              <g id="line2d_13">
                <path id="mba42d8faeb-4" data-name="mba42d8faeb" class="cls-8" d="M26.73,329.9h-1.72"/>
              </g>
              <g id="text_13">
                <g>
                  <path id="DejaVuSans-2212-8" data-name="DejaVuSans-2212" d="M11.86,330.03h3.08v.41h-3.08v-.41Z"/>
                  <path id="DejaVuSans-30-18" data-name="DejaVuSans-30" d="M17.02,328.51c-.25,0-.44.12-.56.37-.13.25-.19.62-.19,1.11s.06.86.19,1.11c.13.25.31.37.56.37s.44-.12.57-.37c.13-.25.19-.62.19-1.11s-.06-.86-.19-1.11c-.13-.25-.31-.37-.57-.37ZM17.02,328.12c.4,0,.71.16.92.48.21.32.32.78.32,1.39s-.11,1.07-.32,1.38c-.21.32-.52.48-.92.48s-.71-.16-.92-.48c-.21-.32-.32-.78-.32-1.38s.11-1.07.32-1.39c.21-.32.52-.48.92-.48Z"/>
                  <path id="DejaVuSans-2e-13" data-name="DejaVuSans-2e" d="M19.12,331.16h.51v.61h-.51v-.61Z"/>
                  <path id="DejaVuSans-35-8" data-name="DejaVuSans-35" d="M20.69,328.19h1.91v.41h-1.46v.88c.07-.02.14-.04.21-.05.07-.01.14-.02.21-.02.4,0,.72.11.95.33.23.22.35.52.35.89s-.12.69-.36.9c-.24.21-.58.32-1.02.32-.15,0-.3-.01-.46-.04-.16-.03-.32-.06-.48-.12v-.49c.14.08.29.14.45.18s.32.06.49.06c.28,0,.5-.07.66-.22.16-.15.24-.34.24-.59s-.08-.45-.24-.59c-.16-.15-.38-.22-.66-.22-.13,0-.26.01-.39.04-.13.03-.26.07-.39.13v-1.8Z"/>
                </g>
              </g>
            </g>
            <g id="ytick_5">
              <g id="line2d_14">
                <path id="mba42d8faeb-5" data-name="mba42d8faeb" class="cls-8" d="M26.73,305.95h-1.72"/>
              </g>
              <g id="text_14">
                <g>
                  <path id="DejaVuSans-30-19" data-name="DejaVuSans-30" d="M17.02,304.55c-.25,0-.44.12-.56.37-.13.25-.19.62-.19,1.11s.06.86.19,1.11c.13.25.31.37.56.37s.44-.12.57-.37c.13-.25.19-.62.19-1.11s-.06-.86-.19-1.11c-.13-.25-.31-.37-.57-.37ZM17.02,304.17c.4,0,.71.16.92.48.21.32.32.78.32,1.39s-.11,1.07-.32,1.38c-.21.32-.52.48-.92.48s-.71-.16-.92-.48c-.21-.32-.32-.78-.32-1.38s.11-1.07.32-1.39c.21-.32.52-.48.92-.48Z"/>
                  <path id="DejaVuSans-2e-14" data-name="DejaVuSans-2e" d="M19.12,307.21h.51v.61h-.51v-.61Z"/>
                  <path id="DejaVuSans-30-20" data-name="DejaVuSans-30" d="M21.72,304.55c-.25,0-.44.12-.56.37-.13.25-.19.62-.19,1.11s.06.86.19,1.11c.13.25.31.37.56.37s.44-.12.57-.37c.13-.25.19-.62.19-1.11s-.06-.86-.19-1.11c-.13-.25-.31-.37-.57-.37ZM21.72,304.17c.4,0,.71.16.92.48.21.32.32.78.32,1.39s-.11,1.07-.32,1.38c-.21.32-.52.48-.92.48s-.71-.16-.92-.48c-.21-.32-.32-.78-.32-1.38s.11-1.07.32-1.39c.21-.32.52-.48.92-.48Z"/>
                </g>
              </g>
            </g>
            <g id="ytick_6">
              <g id="line2d_15">
                <path id="mba42d8faeb-6" data-name="mba42d8faeb" class="cls-8" d="M26.73,281.99h-1.72"/>
              </g>
              <g id="text_15">
                <g>
                  <path id="DejaVuSans-30-21" data-name="DejaVuSans-30" d="M17.02,280.59c-.25,0-.44.12-.56.37-.13.25-.19.62-.19,1.11s.06.86.19,1.11c.13.25.31.37.56.37s.44-.12.57-.37c.13-.25.19-.62.19-1.11s-.06-.86-.19-1.11c-.13-.25-.31-.37-.57-.37ZM17.02,280.21c.4,0,.71.16.92.48.21.32.32.78.32,1.39s-.11,1.07-.32,1.38c-.21.32-.52.48-.92.48s-.71-.16-.92-.48c-.21-.32-.32-.78-.32-1.38s.11-1.07.32-1.39c.21-.32.52-.48.92-.48Z"/>
                  <path id="DejaVuSans-2e-15" data-name="DejaVuSans-2e" d="M19.12,283.25h.51v.61h-.51v-.61Z"/>
                  <path id="DejaVuSans-35-9" data-name="DejaVuSans-35" d="M20.69,280.27h1.91v.41h-1.46v.88c.07-.02.14-.04.21-.05.07-.01.14-.02.21-.02.4,0,.72.11.95.33.23.22.35.52.35.89s-.12.69-.36.9c-.24.21-.58.32-1.02.32-.15,0-.3-.01-.46-.04-.16-.03-.32-.06-.48-.12v-.49c.14.08.29.14.45.18s.32.06.49.06c.28,0,.5-.07.66-.22.16-.15.24-.34.24-.59s-.08-.45-.24-.59c-.16-.15-.38-.22-.66-.22-.13,0-.26.01-.39.04-.13.03-.26.07-.39.13v-1.8Z"/>
                </g>
              </g>
            </g>
            <g id="ytick_7">
              <g id="line2d_16">
                <path id="mba42d8faeb-7" data-name="mba42d8faeb" class="cls-8" d="M26.73,258.04h-1.72"/>
              </g>
              <g id="text_16">
                <g>
                  <path id="DejaVuSans-31-5" data-name="DejaVuSans-31" d="M16.07,259.5h.79v-2.74l-.86.17v-.44l.86-.17h.49v3.18h.79v.41h-2.07v-.41Z"/>
                  <path id="DejaVuSans-2e-16" data-name="DejaVuSans-2e" d="M19.12,259.3h.51v.61h-.51v-.61Z"/>
                  <path id="DejaVuSans-30-22" data-name="DejaVuSans-30" d="M21.72,256.64c-.25,0-.44.12-.56.37-.13.25-.19.62-.19,1.11s.06.86.19,1.11c.13.25.31.37.56.37s.44-.12.57-.37c.13-.25.19-.62.19-1.11s-.06-.86-.19-1.11c-.13-.25-.31-.37-.57-.37ZM21.72,256.25c.4,0,.71.16.92.48.21.32.32.78.32,1.39s-.11,1.07-.32,1.38c-.21.32-.52.48-.92.48s-.71-.16-.92-.48c-.21-.32-.32-.78-.32-1.38s.11-1.07.32-1.39c.21-.32.52-.48.92-.48Z"/>
                </g>
              </g>
            </g>
            <g id="ytick_8">
              <g id="line2d_17">
                <path id="mba42d8faeb-8" data-name="mba42d8faeb" class="cls-8" d="M26.73,234.08h-1.72"/>
              </g>
              <g id="text_17">
                <g>
                  <path id="DejaVuSans-31-6" data-name="DejaVuSans-31" d="M16.07,235.54h.79v-2.74l-.86.17v-.44l.86-.17h.49v3.18h.79v.41h-2.07v-.41Z"/>
                  <path id="DejaVuSans-2e-17" data-name="DejaVuSans-2e" d="M19.12,235.34h.51v.61h-.51v-.61Z"/>
                  <path id="DejaVuSans-35-10" data-name="DejaVuSans-35" d="M20.69,232.36h1.91v.41h-1.46v.88c.07-.02.14-.04.21-.05.07-.01.14-.02.21-.02.4,0,.72.11.95.33.23.22.35.52.35.89s-.12.69-.36.9c-.24.21-.58.32-1.02.32-.15,0-.3-.01-.46-.04-.16-.03-.32-.06-.48-.12v-.49c.14.08.29.14.45.18s.32.06.49.06c.28,0,.5-.07.66-.22.16-.15.24-.34.24-.59s-.08-.45-.24-.59c-.16-.15-.38-.22-.66-.22-.13,0-.26.01-.39.04-.13.03-.26.07-.39.13v-1.8Z"/>
                </g>
              </g>
            </g>
            <g id="ytick_9">
              <g id="line2d_18">
                <path id="mba42d8faeb-9" data-name="mba42d8faeb" class="cls-8" d="M26.73,210.12h-1.72"/>
              </g>
              <g id="text_18">
                <g>
                  <path id="DejaVuSans-32-4" data-name="DejaVuSans-32" d="M16.4,211.59h1.69v.41h-2.28v-.41c.18-.19.44-.45.75-.77.32-.32.52-.53.6-.62.16-.17.26-.32.33-.44.06-.12.09-.24.09-.36,0-.19-.07-.35-.2-.47-.13-.12-.31-.18-.52-.18-.15,0-.31.03-.48.08-.17.05-.35.13-.54.24v-.49c.2-.08.38-.14.55-.18.17-.04.33-.06.47-.06.37,0,.67.09.89.28.22.19.33.43.33.74,0,.15-.03.29-.08.42-.05.13-.16.29-.3.47-.04.05-.17.18-.38.4-.21.22-.52.53-.91.93Z"/>
                  <path id="DejaVuSans-2e-18" data-name="DejaVuSans-2e" d="M19.12,211.38h.51v.61h-.51v-.61Z"/>
                  <path id="DejaVuSans-30-23" data-name="DejaVuSans-30" d="M21.72,208.73c-.25,0-.44.12-.56.37-.13.25-.19.62-.19,1.11s.06.86.19,1.11c.13.25.31.37.56.37s.44-.12.57-.37c.13-.25.19-.62.19-1.11s-.06-.86-.19-1.11c-.13-.25-.31-.37-.57-.37ZM21.72,208.34c.4,0,.71.16.92.48.21.32.32.78.32,1.39s-.11,1.07-.32,1.38c-.21.32-.52.48-.92.48s-.71-.16-.92-.48c-.21-.32-.32-.78-.32-1.38s.11-1.07.32-1.39c.21-.32.52-.48.92-.48Z"/>
                </g>
              </g>
            </g>
          </g>
          <g id="line2d_19">
            <g class="cls-15">
              <path class="cls-7" d="M26.73,305.95l8.08,19.17,4.55,10.49,3.54,7.91,3.03,6.55,3.03,6.29,2.53,5.03,2.53,4.81,2.53,4.57,2.53,4.31,2.02,3.25,2.02,3.07,2.02,2.88,2.02,2.68,2.02,2.47,2.02,2.26,1.52,1.55,1.52,1.43,1.52,1.3,1.52,1.17,1.52,1.04,1.52.91,1.52.78,1.52.65,1.52.51,1.52.38,1.52.24,1.52.1,1.52-.03,1.52-.17,1.52-.31,1.52-.44,1.52-.58,1.52-.71,1.52-.85,1.52-.98,1.52-1.11,1.52-1.24,1.52-1.37,1.52-1.49,1.52-1.62,2.02-2.34,2.02-2.55,2.02-2.75,2.02-2.95,2.02-3.14,2.02-3.32,2.53-4.39,2.53-4.64,2.53-4.88,2.53-5.09,3.03-6.36,3.03-6.6,3.54-7.96,4.04-9.36,5.56-13.16,11.11-26.37,4.04-9.3,3.54-7.89,3.03-6.53,3.03-6.27,2.53-5.01,2.53-4.78,2.53-4.54,2.53-4.29,2.02-3.23,2.02-3.05,2.02-2.85,2.02-2.65,2.02-2.45,2.02-2.24,1.52-1.53,1.52-1.41,1.52-1.28,1.52-1.15,1.52-1.02,1.52-.89,1.52-.76,1.52-.62,1.52-.49,1.52-.35,1.52-.22,1.52-.08,1.52.06,1.52.19,1.52.33,1.52.47,1.52.6,1.52.74,1.52.87,1.52,1,1.52,1.13,1.52,1.26,1.52,1.39,1.52,1.51,1.52,1.64,2.02,2.37,2.02,2.58,2.02,2.78,2.02,2.97,2.02,3.16,2.02,3.34,2.53,4.42,2.53,4.67,2.53,4.9,3.03,6.16,3.03,6.42,3.54,7.79,4.04,9.21,4.55,10.65,5.56,13.23h0"/>
            </g>
          </g>
          <g id="line2d_20">
            <g class="cls-11">
              <path class="cls-4" d="M26.73,305.95h252.07"/>
            </g>
          </g>
          <g id="patch_3">
            <path class="cls-6" d="M26.73,401.77v-191.65"/>
          </g>
          <g id="patch_4">
            <path class="cls-6" d="M278.81,401.77v-191.65"/>
          </g>
          <g id="patch_5">
            <path class="cls-6" d="M26.73,401.77h252.07"/>
          </g>
          <g id="patch_6">
            <path class="cls-6" d="M26.73,210.12h252.07"/>
          </g>
        </g>
      </g>
      <g id="figure_1-2" data-name="figure_1">
        <g id="patch_1-2" data-name="patch_1">
          <path class="cls-10" d="M307.22,415.5h283.52v-212.64h-283.52v212.64Z"/>
        </g>
        <g id="axes_1-2" data-name="axes_1">
          <g id="patch_2-2" data-name="patch_2">
            <path class="cls-10" d="M327.9,401.77h252.07v-191.65h-252.07v191.65Z"/>
          </g>
          <g id="matplotlib.axis_1-2" data-name="matplotlib.axis_1">
            <g id="xtick_1-2" data-name="xtick_1">
              <g id="line2d_1-2" data-name="line2d_1">
                <path id="mae7dea919d-10" data-name="mae7dea919d" class="cls-8" d="M327.9,401.77v1.72"/>
              </g>
              <g id="text_1-2" data-name="text_1">
                <g>
                  <path id="DejaVuSans-2212-9" data-name="DejaVuSans-2212" d="M320.87,407.21h3.08v.41h-3.08v-.41Z"/>
                  <path id="DejaVuSans-31-7" data-name="DejaVuSans-31" d="M325.09,408.55h.79v-2.74l-.86.17v-.44l.86-.17h.49v3.18h.79v.41h-2.07v-.41Z"/>
                  <path id="DejaVuSans-2e-19" data-name="DejaVuSans-2e" d="M328.14,408.35h.51v.61h-.51v-.61Z"/>
                  <path id="DejaVuSans-30-24" data-name="DejaVuSans-30" d="M330.74,405.69c-.25,0-.44.12-.56.37-.13.25-.19.62-.19,1.11s.06.86.19,1.11c.13.25.31.37.56.37s.44-.12.57-.37c.13-.25.19-.62.19-1.11s-.06-.86-.19-1.11c-.13-.25-.31-.37-.57-.37ZM330.74,405.31c.4,0,.71.16.92.48.21.32.32.78.32,1.39s-.11,1.07-.32,1.38c-.21.32-.52.48-.92.48s-.71-.16-.92-.48c-.21-.32-.32-.78-.32-1.38s.11-1.07.32-1.39c.21-.32.52-.48.92-.48Z"/>
                  <path id="DejaVuSans-30-25" data-name="DejaVuSans-30" d="M333.87,405.69c-.25,0-.44.12-.56.37-.13.25-.19.62-.19,1.11s.06.86.19,1.11c.13.25.31.37.56.37s.44-.12.57-.37c.13-.25.19-.62.19-1.11s-.06-.86-.19-1.11c-.13-.25-.31-.37-.57-.37ZM333.87,405.31c.4,0,.71.16.92.48.21.32.32.78.32,1.39s-.11,1.07-.32,1.38c-.21.32-.52.48-.92.48s-.71-.16-.92-.48c-.21-.32-.32-.78-.32-1.38s.11-1.07.32-1.39c.21-.32.52-.48.92-.48Z"/>
                </g>
              </g>
            </g>
            <g id="xtick_2-2" data-name="xtick_2">
              <g id="line2d_2-2" data-name="line2d_2">
                <path id="mae7dea919d-11" data-name="mae7dea919d" class="cls-8" d="M359.4,401.77v1.72"/>
              </g>
              <g id="text_2-2" data-name="text_2">
                <g>
                  <path id="DejaVuSans-2212-10" data-name="DejaVuSans-2212" d="M352.38,407.21h3.08v.41h-3.08v-.41Z"/>
                  <path id="DejaVuSans-30-26" data-name="DejaVuSans-30" d="M357.55,405.69c-.25,0-.44.12-.56.37-.13.25-.19.62-.19,1.11s.06.86.19,1.11c.13.25.31.37.56.37s.44-.12.57-.37c.13-.25.19-.62.19-1.11s-.06-.86-.19-1.11c-.13-.25-.31-.37-.57-.37ZM357.55,405.31c.4,0,.71.16.92.48.21.32.32.78.32,1.39s-.11,1.07-.32,1.38c-.21.32-.52.48-.92.48s-.71-.16-.92-.48c-.21-.32-.32-.78-.32-1.38s.11-1.07.32-1.39c.21-.32.52-.48.92-.48Z"/>
                  <path id="DejaVuSans-2e-20" data-name="DejaVuSans-2e" d="M359.64,408.35h.51v.61h-.51v-.61Z"/>
                  <path id="DejaVuSans-37-3" data-name="DejaVuSans-37" d="M361.09,405.37h2.31v.21l-1.3,3.38h-.51l1.23-3.18h-1.72v-.41Z"/>
                  <path id="DejaVuSans-35-11" data-name="DejaVuSans-35" d="M364.35,405.37h1.91v.41h-1.46v.88c.07-.02.14-.04.21-.05.07-.01.14-.02.21-.02.4,0,.72.11.95.33.23.22.35.52.35.89s-.12.69-.36.9c-.24.21-.58.32-1.02.32-.15,0-.3-.01-.46-.04-.16-.03-.32-.06-.48-.12v-.49c.14.08.29.14.45.18s.32.06.49.06c.28,0,.5-.07.66-.22.16-.15.24-.34.24-.59s-.08-.45-.24-.59c-.16-.15-.38-.22-.66-.22-.13,0-.26.01-.39.04-.13.03-.26.07-.39.13v-1.8Z"/>
                </g>
              </g>
            </g>
            <g id="xtick_3-2" data-name="xtick_3">
              <g id="line2d_3-2" data-name="line2d_3">
                <path id="mae7dea919d-12" data-name="mae7dea919d" class="cls-8" d="M390.91,401.77v1.72"/>
              </g>
              <g id="text_3-2" data-name="text_3">
                <g>
                  <path id="DejaVuSans-2212-11" data-name="DejaVuSans-2212" d="M383.89,407.21h3.08v.41h-3.08v-.41Z"/>
                  <path id="DejaVuSans-30-27" data-name="DejaVuSans-30" d="M389.06,405.69c-.25,0-.44.12-.56.37-.13.25-.19.62-.19,1.11s.06.86.19,1.11c.13.25.31.37.56.37s.44-.12.57-.37c.13-.25.19-.62.19-1.11s-.06-.86-.19-1.11c-.13-.25-.31-.37-.57-.37ZM389.06,405.31c.4,0,.71.16.92.48.21.32.32.78.32,1.39s-.11,1.07-.32,1.38c-.21.32-.52.48-.92.48s-.71-.16-.92-.48c-.21-.32-.32-.78-.32-1.38s.11-1.07.32-1.39c.21-.32.52-.48.92-.48Z"/>
                  <path id="DejaVuSans-2e-21" data-name="DejaVuSans-2e" d="M391.15,408.35h.51v.61h-.51v-.61Z"/>
                  <path id="DejaVuSans-35-12" data-name="DejaVuSans-35" d="M392.72,405.37h1.91v.41h-1.46v.88c.07-.02.14-.04.21-.05.07-.01.14-.02.21-.02.4,0,.72.11.95.33.23.22.35.52.35.89s-.12.69-.36.9c-.24.21-.58.32-1.02.32-.15,0-.3-.01-.46-.04-.16-.03-.32-.06-.48-.12v-.49c.14.08.29.14.45.18s.32.06.49.06c.28,0,.5-.07.66-.22.16-.15.24-.34.24-.59s-.08-.45-.24-.59c-.16-.15-.38-.22-.66-.22-.13,0-.26.01-.39.04-.13.03-.26.07-.39.13v-1.8Z"/>
                  <path id="DejaVuSans-30-28" data-name="DejaVuSans-30" d="M396.89,405.69c-.25,0-.44.12-.56.37-.13.25-.19.62-.19,1.11s.06.86.19,1.11c.13.25.31.37.56.37s.44-.12.57-.37c.13-.25.19-.62.19-1.11s-.06-.86-.19-1.11c-.13-.25-.31-.37-.57-.37ZM396.89,405.31c.4,0,.71.16.92.48.21.32.32.78.32,1.39s-.11,1.07-.32,1.38c-.21.32-.52.48-.92.48s-.71-.16-.92-.48c-.21-.32-.32-.78-.32-1.38s.11-1.07.32-1.39c.21-.32.52-.48.92-.48Z"/>
                </g>
              </g>
            </g>
            <g id="xtick_4-2" data-name="xtick_4">
              <g id="line2d_4-2" data-name="line2d_4">
                <path id="mae7dea919d-13" data-name="mae7dea919d" class="cls-8" d="M422.42,401.77v1.72"/>
              </g>
              <g id="text_4-2" data-name="text_4">
                <g>
                  <path id="DejaVuSans-2212-12" data-name="DejaVuSans-2212" d="M415.4,407.21h3.08v.41h-3.08v-.41Z"/>
                  <path id="DejaVuSans-30-29" data-name="DejaVuSans-30" d="M420.57,405.69c-.25,0-.44.12-.56.37-.13.25-.19.62-.19,1.11s.06.86.19,1.11c.13.25.31.37.56.37s.44-.12.57-.37c.13-.25.19-.62.19-1.11s-.06-.86-.19-1.11c-.13-.25-.31-.37-.57-.37ZM420.57,405.31c.4,0,.71.16.92.48.21.32.32.78.32,1.39s-.11,1.07-.32,1.38c-.21.32-.52.48-.92.48s-.71-.16-.92-.48c-.21-.32-.32-.78-.32-1.38s.11-1.07.32-1.39c.21-.32.52-.48.92-.48Z"/>
                  <path id="DejaVuSans-2e-22" data-name="DejaVuSans-2e" d="M422.66,408.35h.51v.61h-.51v-.61Z"/>
                  <path id="DejaVuSans-32-5" data-name="DejaVuSans-32" d="M424.65,408.55h1.69v.41h-2.28v-.41c.18-.19.44-.45.75-.77.32-.32.52-.53.6-.62.16-.17.26-.32.33-.44.06-.12.09-.24.09-.36,0-.19-.07-.35-.2-.47-.13-.12-.31-.18-.52-.18-.15,0-.31.03-.48.08-.17.05-.35.13-.54.24v-.49c.2-.08.38-.14.55-.18.17-.04.33-.06.47-.06.37,0,.67.09.89.28.22.19.33.43.33.74,0,.15-.03.29-.08.42-.05.13-.16.29-.3.47-.04.05-.17.18-.38.4-.21.22-.52.53-.91.93Z"/>
                  <path id="DejaVuSans-35-13" data-name="DejaVuSans-35" d="M427.36,405.37h1.91v.41h-1.46v.88c.07-.02.14-.04.21-.05.07-.01.14-.02.21-.02.4,0,.72.11.95.33.23.22.35.52.35.89s-.12.69-.36.9c-.24.21-.58.32-1.02.32-.15,0-.3-.01-.46-.04-.16-.03-.32-.06-.48-.12v-.49c.14.08.29.14.45.18s.32.06.49.06c.28,0,.5-.07.66-.22.16-.15.24-.34.24-.59s-.08-.45-.24-.59c-.16-.15-.38-.22-.66-.22-.13,0-.26.01-.39.04-.13.03-.26.07-.39.13v-1.8Z"/>
                </g>
              </g>
            </g>
            <g id="xtick_5-2" data-name="xtick_5">
              <g id="line2d_5-2" data-name="line2d_5">
                <path id="mae7dea919d-14" data-name="mae7dea919d" class="cls-8" d="M453.93,401.77v1.72"/>
              </g>
              <g id="text_5-2" data-name="text_5">
                <g>
                  <path id="DejaVuSans-30-30" data-name="DejaVuSans-30" d="M450.02,405.69c-.25,0-.44.12-.56.37-.13.25-.19.62-.19,1.11s.06.86.19,1.11c.13.25.31.37.56.37s.44-.12.57-.37c.13-.25.19-.62.19-1.11s-.06-.86-.19-1.11c-.13-.25-.31-.37-.57-.37ZM450.02,405.31c.4,0,.71.16.92.48.21.32.32.78.32,1.39s-.11,1.07-.32,1.38c-.21.32-.52.48-.92.48s-.71-.16-.92-.48c-.21-.32-.32-.78-.32-1.38s.11-1.07.32-1.39c.21-.32.52-.48.92-.48Z"/>
                  <path id="DejaVuSans-2e-23" data-name="DejaVuSans-2e" d="M452.11,408.35h.51v.61h-.51v-.61Z"/>
                  <path id="DejaVuSans-30-31" data-name="DejaVuSans-30" d="M454.71,405.69c-.25,0-.44.12-.56.37-.13.25-.19.62-.19,1.11s.06.86.19,1.11c.13.25.31.37.56.37s.44-.12.57-.37c.13-.25.19-.62.19-1.11s-.06-.86-.19-1.11c-.13-.25-.31-.37-.57-.37ZM454.71,405.31c.4,0,.71.16.92.48.21.32.32.78.32,1.39s-.11,1.07-.32,1.38c-.21.32-.52.48-.92.48s-.71-.16-.92-.48c-.21-.32-.32-.78-.32-1.38s.11-1.07.32-1.39c.21-.32.52-.48.92-.48Z"/>
                  <path id="DejaVuSans-30-32" data-name="DejaVuSans-30" d="M457.84,405.69c-.25,0-.44.12-.56.37-.13.25-.19.62-.19,1.11s.06.86.19,1.11c.13.25.31.37.56.37s.44-.12.57-.37c.13-.25.19-.62.19-1.11s-.06-.86-.19-1.11c-.13-.25-.31-.37-.57-.37ZM457.84,405.31c.4,0,.71.16.92.48.21.32.32.78.32,1.39s-.11,1.07-.32,1.38c-.21.32-.52.48-.92.48s-.71-.16-.92-.48c-.21-.32-.32-.78-.32-1.38s.11-1.07.32-1.39c.21-.32.52-.48.92-.48Z"/>
                </g>
              </g>
            </g>
            <g id="xtick_6-2" data-name="xtick_6">
              <g id="line2d_6-2" data-name="line2d_6">
                <path id="mae7dea919d-15" data-name="mae7dea919d" class="cls-8" d="M485.44,401.77v1.72"/>
              </g>
              <g id="text_6-2" data-name="text_6">
                <g>
                  <path id="DejaVuSans-30-33" data-name="DejaVuSans-30" d="M481.53,405.69c-.25,0-.44.12-.56.37-.13.25-.19.62-.19,1.11s.06.86.19,1.11c.13.25.31.37.56.37s.44-.12.57-.37c.13-.25.19-.62.19-1.11s-.06-.86-.19-1.11c-.13-.25-.31-.37-.57-.37ZM481.53,405.31c.4,0,.71.16.92.48.21.32.32.78.32,1.39s-.11,1.07-.32,1.38c-.21.32-.52.48-.92.48s-.71-.16-.92-.48c-.21-.32-.32-.78-.32-1.38s.11-1.07.32-1.39c.21-.32.52-.48.92-.48Z"/>
                  <path id="DejaVuSans-2e-24" data-name="DejaVuSans-2e" d="M483.62,408.35h.51v.61h-.51v-.61Z"/>
                  <path id="DejaVuSans-32-6" data-name="DejaVuSans-32" d="M485.6,408.55h1.69v.41h-2.28v-.41c.18-.19.44-.45.75-.77.32-.32.52-.53.6-.62.16-.17.26-.32.33-.44.06-.12.09-.24.09-.36,0-.19-.07-.35-.2-.47-.13-.12-.31-.18-.52-.18-.15,0-.31.03-.48.08-.17.05-.35.13-.54.24v-.49c.2-.08.38-.14.55-.18.17-.04.33-.06.47-.06.37,0,.67.09.89.28.22.19.33.43.33.74,0,.15-.03.29-.08.42-.05.13-.16.29-.3.47-.04.05-.17.18-.38.4-.21.22-.52.53-.91.93Z"/>
                  <path id="DejaVuSans-35-14" data-name="DejaVuSans-35" d="M488.32,405.37h1.91v.41h-1.46v.88c.07-.02.14-.04.21-.05.07-.01.14-.02.21-.02.4,0,.72.11.95.33.23.22.35.52.35.89s-.12.69-.36.9c-.24.21-.58.32-1.02.32-.15,0-.3-.01-.46-.04-.16-.03-.32-.06-.48-.12v-.49c.14.08.29.14.45.18s.32.06.49.06c.28,0,.5-.07.66-.22.16-.15.24-.34.24-.59s-.08-.45-.24-.59c-.16-.15-.38-.22-.66-.22-.13,0-.26.01-.39.04-.13.03-.26.07-.39.13v-1.8Z"/>
                </g>
              </g>
            </g>
            <g id="xtick_7-2" data-name="xtick_7">
              <g id="line2d_7-2" data-name="line2d_7">
                <path id="mae7dea919d-16" data-name="mae7dea919d" class="cls-8" d="M516.95,401.77v1.72"/>
              </g>
              <g id="text_7-2" data-name="text_7">
                <g>
                  <path id="DejaVuSans-30-34" data-name="DejaVuSans-30" d="M513.04,405.69c-.25,0-.44.12-.56.37-.13.25-.19.62-.19,1.11s.06.86.19,1.11c.13.25.31.37.56.37s.44-.12.57-.37c.13-.25.19-.62.19-1.11s-.06-.86-.19-1.11c-.13-.25-.31-.37-.57-.37ZM513.04,405.31c.4,0,.71.16.92.48.21.32.32.78.32,1.39s-.11,1.07-.32,1.38c-.21.32-.52.48-.92.48s-.71-.16-.92-.48c-.21-.32-.32-.78-.32-1.38s.11-1.07.32-1.39c.21-.32.52-.48.92-.48Z"/>
                  <path id="DejaVuSans-2e-25" data-name="DejaVuSans-2e" d="M515.13,408.35h.51v.61h-.51v-.61Z"/>
                  <path id="DejaVuSans-35-15" data-name="DejaVuSans-35" d="M516.7,405.37h1.91v.41h-1.46v.88c.07-.02.14-.04.21-.05.07-.01.14-.02.21-.02.4,0,.72.11.95.33.23.22.35.52.35.89s-.12.69-.36.9c-.24.21-.58.32-1.02.32-.15,0-.3-.01-.46-.04-.16-.03-.32-.06-.48-.12v-.49c.14.08.29.14.45.18s.32.06.49.06c.28,0,.5-.07.66-.22.16-.15.24-.34.24-.59s-.08-.45-.24-.59c-.16-.15-.38-.22-.66-.22-.13,0-.26.01-.39.04-.13.03-.26.07-.39.13v-1.8Z"/>
                  <path id="DejaVuSans-30-35" data-name="DejaVuSans-30" d="M520.86,405.69c-.25,0-.44.12-.56.37-.13.25-.19.62-.19,1.11s.06.86.19,1.11c.13.25.31.37.56.37s.44-.12.57-.37c.13-.25.19-.62.19-1.11s-.06-.86-.19-1.11c-.13-.25-.31-.37-.57-.37ZM520.86,405.31c.4,0,.71.16.92.48.21.32.32.78.32,1.39s-.11,1.07-.32,1.38c-.21.32-.52.48-.92.48s-.71-.16-.92-.48c-.21-.32-.32-.78-.32-1.38s.11-1.07.32-1.39c.21-.32.52-.48.92-.48Z"/>
                </g>
              </g>
            </g>
            <g id="xtick_8-2" data-name="xtick_8">
              <g id="line2d_8-2" data-name="line2d_8">
                <path id="mae7dea919d-17" data-name="mae7dea919d" class="cls-8" d="M548.46,401.77v1.72"/>
              </g>
              <g id="text_8-2" data-name="text_8">
                <g>
                  <path id="DejaVuSans-30-36" data-name="DejaVuSans-30" d="M544.54,405.69c-.25,0-.44.12-.56.37-.13.25-.19.62-.19,1.11s.06.86.19,1.11c.13.25.31.37.56.37s.44-.12.57-.37c.13-.25.19-.62.19-1.11s-.06-.86-.19-1.11c-.13-.25-.31-.37-.57-.37ZM544.54,405.31c.4,0,.71.16.92.48.21.32.32.78.32,1.39s-.11,1.07-.32,1.38c-.21.32-.52.48-.92.48s-.71-.16-.92-.48c-.21-.32-.32-.78-.32-1.38s.11-1.07.32-1.39c.21-.32.52-.48.92-.48Z"/>
                  <path id="DejaVuSans-2e-26" data-name="DejaVuSans-2e" d="M546.64,408.35h.51v.61h-.51v-.61Z"/>
                  <path id="DejaVuSans-37-4" data-name="DejaVuSans-37" d="M548.08,405.37h2.31v.21l-1.3,3.38h-.51l1.23-3.18h-1.72v-.41Z"/>
                  <path id="DejaVuSans-35-16" data-name="DejaVuSans-35" d="M551.34,405.37h1.91v.41h-1.46v.88c.07-.02.14-.04.21-.05.07-.01.14-.02.21-.02.4,0,.72.11.95.33.23.22.35.52.35.89s-.12.69-.36.9c-.24.21-.58.32-1.02.32-.15,0-.3-.01-.46-.04-.16-.03-.32-.06-.48-.12v-.49c.14.08.29.14.45.18s.32.06.49.06c.28,0,.5-.07.66-.22.16-.15.24-.34.24-.59s-.08-.45-.24-.59c-.16-.15-.38-.22-.66-.22-.13,0-.26.01-.39.04-.13.03-.26.07-.39.13v-1.8Z"/>
                </g>
              </g>
            </g>
            <g id="xtick_9-2" data-name="xtick_9">
              <g id="line2d_9-2" data-name="line2d_9">
                <path id="mae7dea919d-18" data-name="mae7dea919d" class="cls-8" d="M579.97,401.77v1.72"/>
              </g>
              <g id="text_9-2" data-name="text_9">
                <g>
                  <path id="DejaVuSans-31-8" data-name="DejaVuSans-31" d="M575.1,408.55h.79v-2.74l-.86.17v-.44l.86-.17h.49v3.18h.79v.41h-2.07v-.41Z"/>
                  <path id="DejaVuSans-2e-27" data-name="DejaVuSans-2e" d="M578.15,408.35h.51v.61h-.51v-.61Z"/>
                  <path id="DejaVuSans-30-37" data-name="DejaVuSans-30" d="M580.75,405.69c-.25,0-.44.12-.56.37-.13.25-.19.62-.19,1.11s.06.86.19,1.11c.13.25.31.37.56.37s.44-.12.57-.37c.13-.25.19-.62.19-1.11s-.06-.86-.19-1.11c-.13-.25-.31-.37-.57-.37ZM580.75,405.31c.4,0,.71.16.92.48.21.32.32.78.32,1.39s-.11,1.07-.32,1.38c-.21.32-.52.48-.92.48s-.71-.16-.92-.48c-.21-.32-.32-.78-.32-1.38s.11-1.07.32-1.39c.21-.32.52-.48.92-.48Z"/>
                  <path id="DejaVuSans-30-38" data-name="DejaVuSans-30" d="M583.88,405.69c-.25,0-.44.12-.56.37-.13.25-.19.62-.19,1.11s.06.86.19,1.11c.13.25.31.37.56.37s.44-.12.57-.37c.13-.25.19-.62.19-1.11s-.06-.86-.19-1.11c-.13-.25-.31-.37-.57-.37ZM583.88,405.31c.4,0,.71.16.92.48.21.32.32.78.32,1.39s-.11,1.07-.32,1.38c-.21.32-.52.48-.92.48s-.71-.16-.92-.48c-.21-.32-.32-.78-.32-1.38s.11-1.07.32-1.39c.21-.32.52-.48.92-.48Z"/>
                </g>
              </g>
            </g>
          </g>
          <g id="matplotlib.axis_2-2" data-name="matplotlib.axis_2">
            <g id="ytick_1-2" data-name="ytick_1">
              <g id="line2d_10-2" data-name="line2d_10">
                <path id="mba42d8faeb-10" data-name="mba42d8faeb" class="cls-8" d="M327.9,401.77h-1.72"/>
              </g>
              <g id="text_10-2" data-name="text_10">
                <g>
                  <path id="DejaVuSans-2212-13" data-name="DejaVuSans-2212" d="M313.02,401.9h3.08v.41h-3.08v-.41Z"/>
                  <path id="DejaVuSans-32-7" data-name="DejaVuSans-32" d="M317.57,403.24h1.69v.41h-2.28v-.41c.18-.19.44-.45.75-.77.32-.32.52-.53.6-.62.16-.17.26-.32.33-.44.06-.12.09-.24.09-.36,0-.19-.07-.35-.2-.47-.13-.12-.31-.18-.52-.18-.15,0-.31.03-.48.08-.17.05-.35.13-.54.24v-.49c.2-.08.38-.14.55-.18.17-.04.33-.06.47-.06.37,0,.67.09.89.28.22.19.33.43.33.74,0,.15-.03.29-.08.42-.05.13-.16.29-.3.47-.04.05-.17.18-.38.4-.21.22-.52.53-.91.93Z"/>
                  <path id="DejaVuSans-2e-28" data-name="DejaVuSans-2e" d="M320.28,403.03h.51v.61h-.51v-.61Z"/>
                  <path id="DejaVuSans-30-39" data-name="DejaVuSans-30" d="M322.88,400.37c-.25,0-.44.12-.56.37-.13.25-.19.62-.19,1.11s.06.86.19,1.11c.13.25.31.37.56.37s.44-.12.57-.37c.13-.25.19-.62.19-1.11s-.06-.86-.19-1.11c-.13-.25-.31-.37-.57-.37ZM322.88,399.99c.4,0,.71.16.92.48.21.32.32.78.32,1.39s-.11,1.07-.32,1.38c-.21.32-.52.48-.92.48s-.71-.16-.92-.48c-.21-.32-.32-.78-.32-1.38s.11-1.07.32-1.39c.21-.32.52-.48.92-.48Z"/>
                </g>
              </g>
            </g>
            <g id="ytick_2-2" data-name="ytick_2">
              <g id="line2d_11-2" data-name="line2d_11">
                <path id="mba42d8faeb-11" data-name="mba42d8faeb" class="cls-8" d="M327.9,377.82h-1.72"/>
              </g>
              <g id="text_11-2" data-name="text_11">
                <g>
                  <path id="DejaVuSans-2212-14" data-name="DejaVuSans-2212" d="M313.02,377.94h3.08v.41h-3.08v-.41Z"/>
                  <path id="DejaVuSans-31-9" data-name="DejaVuSans-31" d="M317.23,379.28h.79v-2.74l-.86.17v-.44l.86-.17h.49v3.18h.79v.41h-2.07v-.41Z"/>
                  <path id="DejaVuSans-2e-29" data-name="DejaVuSans-2e" d="M320.28,379.08h.51v.61h-.51v-.61Z"/>
                  <path id="DejaVuSans-35-17" data-name="DejaVuSans-35" d="M321.85,376.1h1.91v.41h-1.46v.88c.07-.02.14-.04.21-.05.07-.01.14-.02.21-.02.4,0,.72.11.95.33.23.22.35.52.35.89s-.12.69-.36.9c-.24.21-.58.32-1.02.32-.15,0-.3-.01-.46-.04-.16-.03-.32-.06-.48-.12v-.49c.14.08.29.14.45.18s.32.06.49.06c.28,0,.5-.07.66-.22.16-.15.24-.34.24-.59s-.08-.45-.24-.59c-.16-.15-.38-.22-.66-.22-.13,0-.26.01-.39.04-.13.03-.26.07-.39.13v-1.8Z"/>
                </g>
              </g>
            </g>
            <g id="ytick_3-2" data-name="ytick_3">
              <g id="line2d_12-2" data-name="line2d_12">
                <path id="mba42d8faeb-12" data-name="mba42d8faeb" class="cls-8" d="M327.9,353.86h-1.72"/>
              </g>
              <g id="text_12-2" data-name="text_12">
                <g>
                  <path id="DejaVuSans-2212-15" data-name="DejaVuSans-2212" d="M313.02,353.98h3.08v.41h-3.08v-.41Z"/>
                  <path id="DejaVuSans-31-10" data-name="DejaVuSans-31" d="M317.23,355.32h.79v-2.74l-.86.17v-.44l.86-.17h.49v3.18h.79v.41h-2.07v-.41Z"/>
                  <path id="DejaVuSans-2e-30" data-name="DejaVuSans-2e" d="M320.28,355.12h.51v.61h-.51v-.61Z"/>
                  <path id="DejaVuSans-30-40" data-name="DejaVuSans-30" d="M322.88,352.46c-.25,0-.44.12-.56.37-.13.25-.19.62-.19,1.11s.06.86.19,1.11c.13.25.31.37.56.37s.44-.12.57-.37c.13-.25.19-.62.19-1.11s-.06-.86-.19-1.11c-.13-.25-.31-.37-.57-.37ZM322.88,352.08c.4,0,.71.16.92.48.21.32.32.78.32,1.39s-.11,1.07-.32,1.38c-.21.32-.52.48-.92.48s-.71-.16-.92-.48c-.21-.32-.32-.78-.32-1.38s.11-1.07.32-1.39c.21-.32.52-.48.92-.48Z"/>
                </g>
              </g>
            </g>
            <g id="ytick_4-2" data-name="ytick_4">
              <g id="line2d_13-2" data-name="line2d_13">
                <path id="mba42d8faeb-13" data-name="mba42d8faeb" class="cls-8" d="M327.9,329.9h-1.72"/>
              </g>
              <g id="text_13-2" data-name="text_13">
                <g>
                  <path id="DejaVuSans-2212-16" data-name="DejaVuSans-2212" d="M313.02,330.03h3.08v.41h-3.08v-.41Z"/>
                  <path id="DejaVuSans-30-41" data-name="DejaVuSans-30" d="M318.19,328.51c-.25,0-.44.12-.56.37-.13.25-.19.62-.19,1.11s.06.86.19,1.11c.13.25.31.37.56.37s.44-.12.57-.37c.13-.25.19-.62.19-1.11s-.06-.86-.19-1.11c-.13-.25-.31-.37-.57-.37ZM318.19,328.12c.4,0,.71.16.92.48.21.32.32.78.32,1.39s-.11,1.07-.32,1.38c-.21.32-.52.48-.92.48s-.71-.16-.92-.48c-.21-.32-.32-.78-.32-1.38s.11-1.07.32-1.39c.21-.32.52-.48.92-.48Z"/>
                  <path id="DejaVuSans-2e-31" data-name="DejaVuSans-2e" d="M320.28,331.16h.51v.61h-.51v-.61Z"/>
                  <path id="DejaVuSans-35-18" data-name="DejaVuSans-35" d="M321.85,328.19h1.91v.41h-1.46v.88c.07-.02.14-.04.21-.05.07-.01.14-.02.21-.02.4,0,.72.11.95.33.23.22.35.52.35.89s-.12.69-.36.9c-.24.21-.58.32-1.02.32-.15,0-.3-.01-.46-.04-.16-.03-.32-.06-.48-.12v-.49c.14.08.29.14.45.18s.32.06.49.06c.28,0,.5-.07.66-.22.16-.15.24-.34.24-.59s-.08-.45-.24-.59c-.16-.15-.38-.22-.66-.22-.13,0-.26.01-.39.04-.13.03-.26.07-.39.13v-1.8Z"/>
                </g>
              </g>
            </g>
            <g id="ytick_5-2" data-name="ytick_5">
              <g id="line2d_14-2" data-name="line2d_14">
                <path id="mba42d8faeb-14" data-name="mba42d8faeb" class="cls-8" d="M327.9,305.95h-1.72"/>
              </g>
              <g id="text_14-2" data-name="text_14">
                <g>
                  <path id="DejaVuSans-30-42" data-name="DejaVuSans-30" d="M318.19,304.55c-.25,0-.44.12-.56.37-.13.25-.19.62-.19,1.11s.06.86.19,1.11c.13.25.31.37.56.37s.44-.12.57-.37c.13-.25.19-.62.19-1.11s-.06-.86-.19-1.11c-.13-.25-.31-.37-.57-.37ZM318.19,304.17c.4,0,.71.16.92.48.21.32.32.78.32,1.39s-.11,1.07-.32,1.38c-.21.32-.52.48-.92.48s-.71-.16-.92-.48c-.21-.32-.32-.78-.32-1.38s.11-1.07.32-1.39c.21-.32.52-.48.92-.48Z"/>
                  <path id="DejaVuSans-2e-32" data-name="DejaVuSans-2e" d="M320.28,307.21h.51v.61h-.51v-.61Z"/>
                  <path id="DejaVuSans-30-43" data-name="DejaVuSans-30" d="M322.88,304.55c-.25,0-.44.12-.56.37-.13.25-.19.62-.19,1.11s.06.86.19,1.11c.13.25.31.37.56.37s.44-.12.57-.37c.13-.25.19-.62.19-1.11s-.06-.86-.19-1.11c-.13-.25-.31-.37-.57-.37ZM322.88,304.17c.4,0,.71.16.92.48.21.32.32.78.32,1.39s-.11,1.07-.32,1.38c-.21.32-.52.48-.92.48s-.71-.16-.92-.48c-.21-.32-.32-.78-.32-1.38s.11-1.07.32-1.39c.21-.32.52-.48.92-.48Z"/>
                </g>
              </g>
            </g>
            <g id="ytick_6-2" data-name="ytick_6">
              <g id="line2d_15-2" data-name="line2d_15">
                <path id="mba42d8faeb-15" data-name="mba42d8faeb" class="cls-8" d="M327.9,281.99h-1.72"/>
              </g>
              <g id="text_15-2" data-name="text_15">
                <g>
                  <path id="DejaVuSans-30-44" data-name="DejaVuSans-30" d="M318.19,280.59c-.25,0-.44.12-.56.37-.13.25-.19.62-.19,1.11s.06.86.19,1.11c.13.25.31.37.56.37s.44-.12.57-.37c.13-.25.19-.62.19-1.11s-.06-.86-.19-1.11c-.13-.25-.31-.37-.57-.37ZM318.19,280.21c.4,0,.71.16.92.48.21.32.32.78.32,1.39s-.11,1.07-.32,1.38c-.21.32-.52.48-.92.48s-.71-.16-.92-.48c-.21-.32-.32-.78-.32-1.38s.11-1.07.32-1.39c.21-.32.52-.48.92-.48Z"/>
                  <path id="DejaVuSans-2e-33" data-name="DejaVuSans-2e" d="M320.28,283.25h.51v.61h-.51v-.61Z"/>
                  <path id="DejaVuSans-35-19" data-name="DejaVuSans-35" d="M321.85,280.27h1.91v.41h-1.46v.88c.07-.02.14-.04.21-.05.07-.01.14-.02.21-.02.4,0,.72.11.95.33.23.22.35.52.35.89s-.12.69-.36.9c-.24.21-.58.32-1.02.32-.15,0-.3-.01-.46-.04-.16-.03-.32-.06-.48-.12v-.49c.14.08.29.14.45.18s.32.06.49.06c.28,0,.5-.07.66-.22.16-.15.24-.34.24-.59s-.08-.45-.24-.59c-.16-.15-.38-.22-.66-.22-.13,0-.26.01-.39.04-.13.03-.26.07-.39.13v-1.8Z"/>
                </g>
              </g>
            </g>
            <g id="ytick_7-2" data-name="ytick_7">
              <g id="line2d_16-2" data-name="line2d_16">
                <path id="mba42d8faeb-16" data-name="mba42d8faeb" class="cls-8" d="M327.9,258.04h-1.72"/>
              </g>
              <g id="text_16-2" data-name="text_16">
                <g>
                  <path id="DejaVuSans-31-11" data-name="DejaVuSans-31" d="M317.23,259.5h.79v-2.74l-.86.17v-.44l.86-.17h.49v3.18h.79v.41h-2.07v-.41Z"/>
                  <path id="DejaVuSans-2e-34" data-name="DejaVuSans-2e" d="M320.28,259.3h.51v.61h-.51v-.61Z"/>
                  <path id="DejaVuSans-30-45" data-name="DejaVuSans-30" d="M322.88,256.64c-.25,0-.44.12-.56.37-.13.25-.19.62-.19,1.11s.06.86.19,1.11c.13.25.31.37.56.37s.44-.12.57-.37c.13-.25.19-.62.19-1.11s-.06-.86-.19-1.11c-.13-.25-.31-.37-.57-.37ZM322.88,256.25c.4,0,.71.16.92.48.21.32.32.78.32,1.39s-.11,1.07-.32,1.38c-.21.32-.52.48-.92.48s-.71-.16-.92-.48c-.21-.32-.32-.78-.32-1.38s.11-1.07.32-1.39c.21-.32.52-.48.92-.48Z"/>
                </g>
              </g>
            </g>
            <g id="ytick_8-2" data-name="ytick_8">
              <g id="line2d_17-2" data-name="line2d_17">
                <path id="mba42d8faeb-17" data-name="mba42d8faeb" class="cls-8" d="M327.9,234.08h-1.72"/>
              </g>
              <g id="text_17-2" data-name="text_17">
                <g>
                  <path id="DejaVuSans-31-12" data-name="DejaVuSans-31" d="M317.23,235.54h.79v-2.74l-.86.17v-.44l.86-.17h.49v3.18h.79v.41h-2.07v-.41Z"/>
                  <path id="DejaVuSans-2e-35" data-name="DejaVuSans-2e" d="M320.28,235.34h.51v.61h-.51v-.61Z"/>
                  <path id="DejaVuSans-35-20" data-name="DejaVuSans-35" d="M321.85,232.36h1.91v.41h-1.46v.88c.07-.02.14-.04.21-.05.07-.01.14-.02.21-.02.4,0,.72.11.95.33.23.22.35.52.35.89s-.12.69-.36.9c-.24.21-.58.32-1.02.32-.15,0-.3-.01-.46-.04-.16-.03-.32-.06-.48-.12v-.49c.14.08.29.14.45.18s.32.06.49.06c.28,0,.5-.07.66-.22.16-.15.24-.34.24-.59s-.08-.45-.24-.59c-.16-.15-.38-.22-.66-.22-.13,0-.26.01-.39.04-.13.03-.26.07-.39.13v-1.8Z"/>
                </g>
              </g>
            </g>
            <g id="ytick_9-2" data-name="ytick_9">
              <g id="line2d_18-2" data-name="line2d_18">
                <path id="mba42d8faeb-18" data-name="mba42d8faeb" class="cls-8" d="M327.9,210.12h-1.72"/>
              </g>
              <g id="text_18-2" data-name="text_18">
                <g>
                  <path id="DejaVuSans-32-8" data-name="DejaVuSans-32" d="M317.57,211.59h1.69v.41h-2.28v-.41c.18-.19.44-.45.75-.77.32-.32.52-.53.6-.62.16-.17.26-.32.33-.44.06-.12.09-.24.09-.36,0-.19-.07-.35-.2-.47-.13-.12-.31-.18-.52-.18-.15,0-.31.03-.48.08-.17.05-.35.13-.54.24v-.49c.2-.08.38-.14.55-.18.17-.04.33-.06.47-.06.37,0,.67.09.89.28.22.19.33.43.33.74,0,.15-.03.29-.08.42-.05.13-.16.29-.3.47-.04.05-.17.18-.38.4-.21.22-.52.53-.91.93Z"/>
                  <path id="DejaVuSans-2e-36" data-name="DejaVuSans-2e" d="M320.28,211.38h.51v.61h-.51v-.61Z"/>
                  <path id="DejaVuSans-30-46" data-name="DejaVuSans-30" d="M322.88,208.73c-.25,0-.44.12-.56.37-.13.25-.19.62-.19,1.11s.06.86.19,1.11c.13.25.31.37.56.37s.44-.12.57-.37c.13-.25.19-.62.19-1.11s-.06-.86-.19-1.11c-.13-.25-.31-.37-.57-.37ZM322.88,208.34c.4,0,.71.16.92.48.21.32.32.78.32,1.39s-.11,1.07-.32,1.38c-.21.32-.52.48-.92.48s-.71-.16-.92-.48c-.21-.32-.32-.78-.32-1.38s.11-1.07.32-1.39c.21-.32.52-.48.92-.48Z"/>
                </g>
              </g>
            </g>
          </g>
          <g id="line2d_19-2" data-name="line2d_19">
            <g class="cls-13">
              <path class="cls-7" d="M327.9,305.95l8.08,19.17,4.55,10.49,3.54,7.91,3.03,6.55,3.03,6.29,2.53,5.03,2.53,4.81,2.53,4.57,2.53,4.31,2.02,3.25,2.02,3.07,2.02,2.88,2.02,2.68,2.02,2.47,2.02,2.26,1.52,1.55,1.52,1.43,1.52,1.3,1.52,1.17,1.52,1.04,1.52.91,1.52.78,1.52.65,1.52.51,1.52.38,1.52.24,1.52.1,1.52-.03,1.52-.17,1.52-.31,1.52-.44,1.52-.58,1.52-.71,1.52-.85,1.52-.98,1.52-1.11,1.52-1.24,1.52-1.37,1.52-1.49,1.52-1.62,2.02-2.34,2.02-2.55,2.02-2.75,2.02-2.95,2.02-3.14,2.02-3.32,2.53-4.39,2.53-4.64,2.53-4.88,2.53-5.09,3.03-6.36,3.03-6.6,3.54-7.96,4.04-9.36,5.56-13.16,11.11-26.37,4.04-9.3,3.54-7.89,3.03-6.53,3.03-6.27,2.53-5.01,2.53-4.78,2.53-4.54,2.53-4.29,2.02-3.23,2.02-3.05,2.02-2.85,2.02-2.65,2.02-2.45,2.02-2.24,1.52-1.53,1.52-1.41,1.52-1.28,1.52-1.15,1.52-1.02,1.52-.89,1.52-.76,1.52-.62,1.52-.49,1.52-.35,1.52-.22,1.52-.08,1.52.06,1.52.19,1.52.33,1.52.47,1.52.6,1.52.74,1.52.87,1.52,1,1.52,1.13,1.52,1.26,1.52,1.39,1.52,1.51,1.52,1.64,2.02,2.37,2.02,2.58,2.02,2.78,2.02,2.97,2.02,3.16,2.02,3.34,2.53,4.42,2.53,4.67,2.53,4.9,3.03,6.16,3.03,6.42,3.54,7.79,4.04,9.21,4.55,10.65,5.56,13.23h0"/>
            </g>
          </g>
          <g id="line2d_20-2" data-name="line2d_20">
            <g class="cls-12">
              <path class="cls-4" d="M327.9,305.95h252.07"/>
            </g>
          </g>
          <g id="patch_3-2" data-name="patch_3">
            <path class="cls-6" d="M327.9,401.77v-191.65"/>
          </g>
          <g id="patch_4-2" data-name="patch_4">
            <path class="cls-6" d="M579.97,401.77v-191.65"/>
          </g>
          <g id="patch_5-2" data-name="patch_5">
            <path class="cls-6" d="M327.9,401.77h252.07"/>
          </g>
          <g id="patch_6-2" data-name="patch_6">
            <path class="cls-6" d="M327.9,210.12h252.07"/>
          </g>
        </g>
      </g>
      <path class="cls-3" d="M159.52,184.95l-.2.88c-.52.06-.93.09-1.2.09-.44,0-1.03-.04-1.76-.11-.78-.07-1.45-.11-2.01-.11-.44,0-.9.07-1.37.22.42-1.19.9-2.83,1.45-4.94l1.19-4.64-4.18.15c-.73.04-1.49.1-2.26.17-.7,2.75-1.42,4.78-2.16,6.1-.74,1.32-1.59,2.29-2.54,2.91-.95.62-1.87.93-2.74.93s-1.59-.21-2.19-.62c-.44-.29-.66-.65-.66-1.08,0-.26.09-.48.26-.66.17-.18.39-.27.63-.27.4,0,.81.28,1.24.85.26.34.47.56.62.66.16.1.34.15.53.15.8,0,1.56-.65,2.26-1.95s1.74-4.5,3.1-9.62l1.51-5.65c-2.06,0-3.61.34-4.64,1.02-1.03.68-1.55,1.45-1.55,2.3,0,.29.14.65.42,1.1.25.41.37.75.37,1,0,.3-.1.54-.29.73-.19.19-.43.29-.72.29-.36,0-.67-.17-.93-.52-.26-.34-.39-.85-.39-1.51,0-1.19.43-2.25,1.3-3.17s2.12-1.56,3.77-1.95c.95-.22,2.84-.32,5.67-.32-.76,1.5-1.61,4.16-2.56,7.97,2.73,0,4.87-.1,6.44-.29.89-2.98,1.67-5.07,2.35-6.25.68-1.18,1.44-2.03,2.29-2.56.85-.52,1.8-.79,2.85-.79.91,0,1.6.17,2.09.52s.73.74.73,1.18c0,.26-.09.47-.26.63-.17.17-.4.25-.68.25-.36,0-.76-.26-1.22-.77-.46-.51-.87-.77-1.23-.77-.77,0-1.53.72-2.28,2.15-1.34,2.55-2.88,7.94-4.64,16.17.17.02.42.06.74.11.58.1,1.06.15,1.41.15.42,0,.9-.05,1.43-.15Z"/>
      <path class="cls-9" d="M472.47,184.95l-.2.88c-.52.06-.93.09-1.2.09-.44,0-1.03-.04-1.76-.11-.78-.07-1.45-.11-2.01-.11-.44,0-.9.07-1.37.22.42-1.19.9-2.83,1.45-4.94l1.19-4.64-4.18.15c-.73.04-1.49.1-2.26.17-.7,2.75-1.42,4.78-2.16,6.1-.74,1.32-1.59,2.29-2.54,2.91-.95.62-1.87.93-2.74.93s-1.59-.21-2.19-.62c-.44-.29-.66-.65-.66-1.08,0-.26.09-.48.26-.66.17-.18.39-.27.63-.27.4,0,.81.28,1.24.85.26.34.47.56.62.66.16.1.34.15.53.15.8,0,1.56-.65,2.26-1.95s1.74-4.5,3.1-9.62l1.51-5.65c-2.06,0-3.61.34-4.64,1.02-1.03.68-1.55,1.45-1.55,2.3,0,.29.14.65.42,1.1.25.41.37.75.37,1,0,.3-.1.54-.29.73-.19.19-.43.29-.72.29-.36,0-.67-.17-.93-.52-.26-.34-.39-.85-.39-1.51,0-1.19.43-2.25,1.3-3.17s2.12-1.56,3.77-1.95c.95-.22,2.84-.32,5.67-.32-.76,1.5-1.61,4.16-2.56,7.97,2.73,0,4.87-.1,6.44-.29.89-2.98,1.67-5.07,2.35-6.25.68-1.18,1.44-2.03,2.29-2.56.85-.52,1.8-.79,2.85-.79.91,0,1.6.17,2.09.52s.73.74.73,1.18c0,.26-.09.47-.26.63-.17.17-.4.25-.68.25-.36,0-.76-.26-1.22-.77-.46-.51-.87-.77-1.23-.77-.77,0-1.53.72-2.28,2.15-1.34,2.55-2.88,7.94-4.64,16.17.17.02.42.06.74.11.58.1,1.06.15,1.41.15.42,0,.9-.05,1.43-.15Z"/>
      <path class="cls-3" d="M167.68,178.85c.82,0,1.49.3,1.98.91.5.61.75,1.51.75,2.72,0,1.71-.43,3.31-1.29,4.78-.86,1.47-1.91,2.21-3.13,2.21-.72,0-1.33-.31-1.83-.94-.5-.63-.75-1.49-.75-2.57,0-1.27.25-2.52.74-3.74.5-1.22,1.05-2.08,1.68-2.6.62-.51,1.24-.77,1.85-.77ZM167.52,179.36c-.36,0-.72.24-1.09.71-.37.48-.71,1.35-1.03,2.61-.31,1.27-.47,2.47-.47,3.62,0,.92.13,1.6.4,2.02.27.42.57.63.92.63.31,0,.61-.15.91-.46.44-.46.84-1.31,1.2-2.57.36-1.26.54-2.53.54-3.8,0-.99-.15-1.72-.45-2.21-.23-.36-.53-.55-.93-.55Z"/>
      <path class="cls-9" d="M480.67,178.13h.28l-1.2,4.67-1,4.33c-.1.36-.15.61-.15.73,0,.1.05.18.15.24s.32.11.67.14c.26.02.51.06.76.1l-.17.43c-1.24-.13-2.1-.2-2.59-.2-.71,0-1.49.07-2.33.2l.15-.43c.3-.08.64-.16,1.03-.24.38-.07.64-.19.78-.35.19-.2.39-.69.6-1.45l.93-3.57c.31-1.36.46-2.13.46-2.31,0-.2-.08-.3-.25-.3-.13,0-.71.23-1.74.69l-.17-.43c1.5-.71,2.42-1.19,2.75-1.42.33-.23.68-.51,1.05-.83Z"/>
    </g>
    <g id="_레이어_2" data-name="레이어_2">
      <circle class="cls-14" cx="233.17" cy="219.35" r="3.78"/>
      <circle class="cls-14" cx="174.66" cy="255.51" r="3.78"/>
      <circle class="cls-14" cx="534.72" cy="217.94" r="3.78"/>
      <circle class="cls-14" cx="476.22" cy="254.1" r="3.78"/>
      <line class="cls-1" x1="278.81" y1="236" x2="26.73" y2="236"/>
      <line class="cls-2" x1="551.39" y1="210.12" x2="327.9" y2="336.96"/>
    </g>
  </g>
</svg>