<?xml version="1.0" encoding="UTF-8"?>
<svg xmlns="http://www.w3.org/2000/svg" version="1.1" viewBox="0 0 600 600">
  <defs>
    <style>
      .cls-1, .cls-2, .cls-3, .cls-4, .cls-5, .cls-6, .cls-7, .cls-8 {
        stroke-miterlimit: 10;
      }

      .cls-1, .cls-2, .cls-5, .cls-8 {
        fill: none;
      }

      .cls-1, .cls-8 {
        stroke: #231815;
      }

      .cls-2, .cls-3, .cls-4 {
        stroke: #00a0e9;
      }

      .cls-9, .cls-6, .cls-7 {
        fill: #e60012;
      }

      .cls-3, .cls-10, .cls-4 {
        fill: #00a0e9;
      }

      .cls-4, .cls-7 {
        opacity: .2;
      }

      .cls-5, .cls-6, .cls-7 {
        stroke: #e60012;
      }

      .cls-8 {
        stroke-width: .5px;
      }
    </style>
  </defs>
  <!-- Generator: Adobe Illustrator 28.7.1, SVG Export Plug-In . SVG Version: 1.2.0 Build 142)  -->
  <g>
    <g id="_레이어_1" data-name="레이어_1">
      <path class="cls-10" d="M239.72,277.58l-2.62,3.39h-11.33l.2-.61c.77,0,1.35-.08,1.74-.23.38-.15.66-.5.83-1.02l3.61-10.83c.22-.68-.41-1.03-1.91-1.03l.21-.63h11.27l.2,3.43-.57.28c-.25-.67-.51-1.21-.76-1.62s-.54-.72-.86-.93c-.33-.21-.7-.35-1.12-.42s-.92-.1-1.51-.1c-.55,0-1.01.02-1.36.05s-.67.1-.91.19c-.24.09-.44.23-.59.42-.15.18-.27.43-.37.71l-1.56,4.69h1.72c.21,0,.49-.03.81-.09s.66-.18,1.02-.37c.35-.18.68-.44,1.01-.76s.59-.75.8-1.27h.55l-1.83,5.5h-.57c.2-.61.24-1.09.12-1.41-.12-.33-.33-.56-.59-.7s-.56-.22-.86-.24c-.29-.02-.52-.03-.65-.03h-1.72l-1.69,5.06c-.12.39-.17.67-.12.86.04.19.16.33.36.39.19.07.46.1.79.1h1.16c1.25,0,2.42-.24,3.51-.73,1.09-.49,2.14-1.26,3.19-2.31l.43.24h-.01Z"/>
      <path class="cls-10" d="M242.64,283.95c-.11.17-.25.37-.42.6s-.36.45-.56.64c-.2.2-.41.38-.62.52s-.41.21-.59.21c-.12,0-.24-.04-.34-.11-.1-.07-.18-.17-.23-.3-.06-.12-.09-.26-.1-.43,0-.16.02-.31.08-.48l1.45-3.83c.1-.25.15-.44.15-.56s-.02-.2-.06-.23c-.04-.04-.11-.04-.19-.02-.08.02-.15.05-.21.09-.12.06-.25.16-.38.28s-.24.25-.37.4-.22.27-.3.4c-.08.12-.14.21-.18.27l-.19-.19c.09-.17.22-.36.39-.57s.35-.41.54-.6c.19-.18.39-.35.58-.48.2-.13.39-.19.56-.19.11,0,.21.02.31.07.1.05.18.12.25.22s.1.24.1.42-.04.4-.14.66l-1.5,3.89s-.02.07-.03.14,0,.13,0,.2.03.13.07.19c.04.06.1.08.19.08.12,0,.25-.06.42-.19s.31-.28.47-.46c.15-.17.29-.35.42-.51.12-.17.21-.29.26-.38l.2.24h-.03ZM243.32,276.5c0,.06-.02.12-.05.2-.03.08-.08.16-.15.24-.07.08-.15.14-.25.2-.1.05-.22.08-.38.08-.06,0-.13-.01-.21-.04s-.14-.07-.21-.12c-.06-.05-.12-.11-.16-.18-.04-.07-.07-.15-.07-.24,0-.2.07-.4.21-.57.14-.17.33-.26.54-.26s.38.07.52.21c.13.14.2.3.2.47h.02Z"/>
      <path class="cls-10" d="M251.38,283.9c-.35.61-.69,1.1-1.06,1.46-.37.37-.72.56-1.09.56-.26,0-.44-.07-.54-.21-.09-.14-.14-.31-.14-.51s.03-.38.08-.56.09-.31.12-.39l1.3-3.46s.02-.1.03-.19.01-.19,0-.28-.04-.18-.09-.25-.13-.1-.25-.1c-.13,0-.27.05-.42.14-.14.09-.34.3-.58.62-.24.33-.58.8-.99,1.44-.42.64-.97,1.49-1.65,2.57l-.52,1.06h-.97l1.59-4.31c.03-.07.06-.19.11-.36s.08-.33.11-.5c.02-.17.02-.31,0-.44s-.09-.19-.21-.19c-.05,0-.14.04-.26.12s-.25.2-.41.36-.3.34-.48.55c-.17.21-.34.44-.5.68l-.25-.15c.1-.16.23-.36.42-.6.17-.24.37-.48.58-.71.2-.23.42-.43.64-.59.21-.16.42-.24.6-.24.21,0,.36.06.46.17.09.12.15.26.17.45s.01.39-.03.62c-.04.23-.1.46-.17.69-.08.28-.17.58-.27.88-.09.27-.19.58-.3.93s-.23.71-.38,1.09c.46-.73.86-1.36,1.2-1.88.34-.53.64-.97.89-1.32.25-.36.48-.64.66-.85s.35-.38.5-.49.28-.18.41-.22.25-.06.4-.06c.22,0,.41.06.53.17.12.12.21.25.25.42s.06.34.05.51c-.01.18-.04.33-.07.45l-1.35,3.62s-.02.06-.04.14c-.02.07-.03.15-.03.23s.01.15.05.21.09.1.18.1c.15,0,.3-.06.47-.19s.3-.28.44-.46c.13-.17.25-.35.37-.51.11-.17.19-.29.24-.38l.2.18v-.02Z"/>
      <path class="cls-9" d="M240.94,203.9l-2.56,3.31h-11.05l.2-.59c.75,0,1.32-.08,1.69-.23s.64-.48.81-.99l3.52-10.57c.22-.66-.4-1-1.86-1l.2-.61h10.99l.2,3.35-.55.28c-.25-.65-.49-1.18-.74-1.58-.24-.4-.52-.7-.85-.91-.32-.2-.68-.34-1.09-.41-.41-.07-.91-.1-1.47-.1-.53,0-.98.02-1.33.05s-.65.1-.89.19c-.24.09-.43.23-.57.41-.15.18-.27.41-.36.69l-1.53,4.58h1.68c.21,0,.48-.03.79-.09.32-.06.64-.18.99-.36.34-.18.66-.43.98-.74.31-.32.57-.73.78-1.24h.54l-1.79,5.36h-.56c.2-.59.24-1.06.12-1.38-.12-.32-.31-.54-.57-.68s-.54-.22-.84-.24-.5-.03-.63-.03h-1.68l-1.65,4.94c-.12.37-.16.65-.12.84.04.19.16.31.35.38s.45.1.77.1h1.13c1.23,0,2.36-.24,3.42-.71,1.06-.48,2.09-1.23,3.11-2.25l.42.24h-.01Z"/>
      <path class="cls-9" d="M245.91,207.64c0,.61-.11,1.19-.32,1.72s-.49,1-.82,1.4-.69.71-1.09.94c-.39.23-.78.34-1.15.34-.26,0-.5-.05-.71-.16s-.39-.25-.54-.43-.26-.38-.34-.62c-.08-.24-.12-.49-.12-.75s.04-.57.12-.91.2-.65.34-.99.32-.64.53-.96.43-.58.68-.83.51-.42.78-.56.56-.21.87-.21c.2,0,.41.04.62.14.21.09.4.22.57.39s.31.38.41.63.16.53.16.86h-.01ZM245.11,207.21c0-.12-.02-.25-.05-.39-.03-.15-.08-.28-.16-.41-.07-.13-.18-.24-.31-.33s-.29-.14-.49-.14c-.26,0-.51.08-.73.25s-.43.38-.61.65c-.18.26-.35.56-.49.9s-.27.66-.36.99c-.1.32-.17.62-.22.92s-.08.51-.08.68c0,.13,0,.27.03.43.02.16.06.31.13.46.07.14.17.27.31.37s.32.15.56.15c.28,0,.53-.09.76-.26.23-.17.43-.4.62-.67s.34-.58.48-.94c.14-.34.25-.67.34-1.02.09-.33.16-.64.2-.94.04-.29.07-.52.07-.69h0Z"/>
      <path class="cls-9" d="M253.42,205.66c-.31.7-.58,1.38-.84,2.02-.1.27-.21.56-.32.86s-.21.58-.3.87-.17.54-.24.78-.12.46-.15.64c-.02.07-.02.16-.02.26s.02.18.06.25c.03.06.09.1.16.12.07.01.17-.03.29-.12.12-.1.28-.26.46-.48.18-.23.41-.55.67-.98l.21.12c-.3.52-.57.93-.83,1.22s-.47.5-.67.62-.37.18-.52.16c-.15-.01-.27-.06-.37-.15-.1-.09-.17-.19-.21-.32-.04-.13-.06-.25-.05-.35.02-.22.08-.51.18-.87.1-.36.21-.73.34-1.12s.25-.75.37-1.11.22-.62.29-.83c-.49.89-.95,1.63-1.36,2.23-.41.6-.78,1.1-1.12,1.48-.33.38-.61.65-.86.82s-.44.24-.6.24c-.11,0-.22-.02-.35-.07s-.23-.13-.32-.25-.14-.29-.14-.5.05-.48.18-.82l1.38-3.45c.09-.23.12-.41.09-.54s-.12-.18-.26-.15-.33.17-.56.4c-.23.24-.5.6-.82,1.11l-.22-.16c.09-.14.21-.32.35-.54.15-.22.32-.44.51-.65s.39-.4.59-.55c.21-.15.41-.23.61-.23.11,0,.22.04.32.11s.17.18.22.32.07.31.06.5c0,.2-.06.42-.16.66l-1.25,3.07c-.1.24-.15.44-.15.62s.02.31.08.41.14.14.25.14.23-.06.35-.18c.23-.23.46-.48.68-.75.23-.28.45-.57.66-.89.21-.31.42-.62.62-.94.2-.31.39-.61.57-.91.41-.69.81-1.41,1.18-2.13h.93-.01Z"/>
      <path class="cls-9" d="M258.37,205.78l-.1.44h-1.42l-1.42,4.79c-.03.11-.01.21.04.31s.15.13.29.1.32-.15.55-.37c.23-.21.51-.58.85-1.1l.24.14c-.1.16-.23.36-.39.58-.17.23-.35.44-.55.64s-.4.37-.6.51c-.21.14-.4.21-.58.21-.32,0-.53-.12-.62-.37-.09-.25-.07-.58.05-1l1.39-4.45h-1.17l.12-.44h1.15l.75-2.54h.84l-.79,2.54h1.39Z"/>
      <path class="cls-5" d="M75.14,176.13c8.95,6.51,20.05,13.63,33.39,20.36,4.56,2.3,16.37,8.08,32.87,13.73,26.34,9.02,47.86,11.98,64.7,14.2,18.3,2.42,42.43,4.41,70.96,3.55"/>
      <path class="cls-2" d="M63.25,314.65c9.47-7.54,21.23-15.78,35.36-23.57,4.83-2.66,17.33-9.35,34.8-15.9,27.89-10.45,50.67-13.87,68.5-16.44,19.38-2.8,44.93-5.11,75.13-4.11"/>
      <path class="cls-10" d="M519.41,278.45l-2.62,3.39h-11.33l.2-.61c.77,0,1.35-.08,1.74-.23.38-.15.66-.5.83-1.02l3.61-10.83c.22-.68-.41-1.03-1.91-1.03l.21-.63h11.27l.2,3.43-.57.28c-.25-.67-.51-1.21-.76-1.62s-.54-.72-.86-.93c-.33-.21-.7-.35-1.12-.42s-.92-.1-1.51-.1c-.55,0-1.01.02-1.36.05s-.67.1-.91.19c-.24.09-.44.23-.59.42-.15.18-.27.43-.37.71l-1.56,4.69h1.72c.21,0,.49-.03.81-.09s.66-.18,1.02-.37c.35-.18.68-.44,1.01-.76s.59-.75.8-1.27h.55l-1.83,5.5h-.57c.2-.61.24-1.09.12-1.41-.12-.33-.33-.56-.59-.7s-.56-.22-.86-.24c-.29-.02-.52-.03-.65-.03h-1.72l-1.69,5.06c-.12.39-.17.67-.12.86.04.19.16.33.36.39.19.07.46.1.79.1h1.16c1.25,0,2.42-.24,3.51-.73,1.09-.49,2.14-1.26,3.19-2.31l.43.24h-.01Z"/>
      <path class="cls-10" d="M522.34,284.82c-.11.17-.25.37-.42.6s-.36.45-.56.64c-.2.2-.41.38-.62.52s-.41.21-.59.21c-.12,0-.24-.04-.34-.11-.1-.07-.18-.17-.23-.3-.06-.12-.09-.26-.1-.43,0-.16.02-.31.08-.48l1.45-3.83c.1-.25.15-.44.15-.56s-.02-.2-.06-.23c-.04-.04-.11-.04-.19-.02-.08.02-.15.05-.21.09-.12.06-.25.16-.38.28s-.24.25-.37.4-.22.27-.3.4c-.08.12-.14.21-.18.27l-.19-.19c.09-.17.22-.36.39-.57s.35-.41.54-.6c.19-.18.39-.35.58-.48.2-.13.39-.19.56-.19.11,0,.21.02.31.07.1.05.18.12.25.22s.1.24.1.42-.04.4-.14.66l-1.5,3.89s-.02.07-.03.14,0,.13,0,.2.03.13.07.19c.04.06.1.08.19.08.12,0,.25-.06.42-.19s.31-.28.47-.46c.15-.17.29-.35.42-.51.12-.17.21-.29.26-.38l.2.24h-.03ZM523.01,277.36c0,.06-.02.12-.05.2-.03.08-.08.16-.15.24-.07.08-.15.14-.25.2-.1.05-.22.08-.38.08-.06,0-.13-.01-.21-.04s-.14-.07-.21-.12c-.06-.05-.12-.11-.16-.18-.04-.07-.07-.15-.07-.24,0-.2.07-.4.21-.57.14-.17.33-.26.54-.26s.38.07.52.21c.13.14.2.3.2.47h.02Z"/>
      <path class="cls-10" d="M531.08,284.77c-.35.61-.69,1.1-1.06,1.46-.37.37-.72.56-1.09.56-.26,0-.44-.07-.54-.21-.09-.14-.14-.31-.14-.51s.03-.38.08-.56.09-.31.12-.39l1.3-3.46s.02-.1.03-.19.01-.19,0-.28-.04-.18-.09-.25-.13-.1-.25-.1c-.13,0-.27.05-.42.14-.14.09-.34.3-.58.62-.24.33-.58.8-.99,1.44-.42.64-.97,1.49-1.65,2.57l-.52,1.06h-.97l1.59-4.31c.03-.07.06-.19.11-.36s.08-.33.11-.5c.02-.17.02-.31,0-.44s-.09-.19-.21-.19c-.05,0-.14.04-.26.12s-.25.2-.41.36-.3.34-.48.55c-.17.21-.34.44-.5.68l-.25-.15c.1-.16.23-.36.42-.6.17-.24.37-.48.58-.71.2-.23.42-.43.64-.59.21-.16.42-.24.6-.24.21,0,.36.06.46.17.09.12.15.26.17.45s.01.39-.03.62c-.04.23-.1.46-.17.69-.08.28-.17.58-.27.88-.09.27-.19.58-.3.93s-.23.71-.38,1.09c.46-.73.86-1.36,1.2-1.88.34-.53.64-.97.89-1.32.25-.36.48-.64.66-.85s.35-.38.5-.49.28-.18.41-.22.25-.06.4-.06c.22,0,.41.06.53.17.12.12.21.25.25.42s.06.34.05.51c-.01.18-.04.33-.07.45l-1.35,3.62s-.02.06-.04.14c-.02.07-.03.15-.03.23s.01.15.05.21.09.1.18.1c.15,0,.3-.06.47-.19s.3-.28.44-.46c.13-.17.25-.35.37-.51.11-.17.19-.29.24-.38l.2.18v-.02Z"/>
      <path class="cls-9" d="M520.63,204.76l-2.56,3.31h-11.05l.2-.59c.75,0,1.32-.08,1.69-.23s.64-.48.81-.99l3.52-10.57c.22-.66-.4-1-1.86-1l.2-.61h10.99l.2,3.35-.55.28c-.25-.65-.49-1.18-.74-1.58-.24-.4-.52-.7-.85-.91-.32-.2-.68-.34-1.09-.41-.41-.07-.91-.1-1.47-.1-.53,0-.98.02-1.33.05s-.65.1-.89.19c-.24.09-.43.23-.57.41-.15.18-.27.41-.36.69l-1.53,4.58h1.68c.21,0,.48-.03.79-.09.32-.06.64-.18.99-.36.34-.18.66-.43.98-.74.31-.32.57-.73.78-1.24h.54l-1.79,5.36h-.56c.2-.59.24-1.06.12-1.38-.12-.32-.31-.54-.57-.68s-.54-.22-.84-.24-.5-.03-.63-.03h-1.68l-1.65,4.94c-.12.37-.16.65-.12.84.04.19.16.31.35.38s.45.1.77.1h1.13c1.23,0,2.36-.24,3.42-.71,1.06-.48,2.09-1.23,3.11-2.25l.42.24h-.01Z"/>
      <path class="cls-9" d="M525.6,208.51c0,.61-.11,1.19-.32,1.72s-.49,1-.82,1.4-.69.71-1.09.94c-.39.23-.78.34-1.15.34-.26,0-.5-.05-.71-.16s-.39-.25-.54-.43-.26-.38-.34-.62c-.08-.24-.12-.49-.12-.75s.04-.57.12-.91.2-.65.34-.99.32-.64.53-.96.43-.58.68-.83.51-.42.78-.56.56-.21.87-.21c.2,0,.41.04.62.14.21.09.4.22.57.39s.31.38.41.63.16.53.16.86h-.01ZM524.81,208.08c0-.12-.02-.25-.05-.39-.03-.15-.08-.28-.16-.41-.07-.13-.18-.24-.31-.33s-.29-.14-.49-.14c-.26,0-.51.08-.73.25s-.43.38-.61.65c-.18.26-.35.56-.49.9s-.27.66-.36.99c-.1.32-.17.62-.22.92s-.08.51-.08.68c0,.13,0,.27.03.43.02.16.06.31.13.46.07.14.17.27.31.37s.32.15.56.15c.28,0,.53-.09.76-.26.23-.17.43-.4.62-.67s.34-.58.48-.94c.14-.34.25-.67.34-1.02.09-.33.16-.64.2-.94.04-.29.07-.52.07-.69h0Z"/>
      <path class="cls-9" d="M533.12,206.53c-.31.7-.58,1.38-.84,2.02-.1.27-.21.56-.32.86s-.21.58-.3.87-.17.54-.24.78-.12.46-.15.64c-.02.07-.02.16-.02.26s.02.18.06.25c.03.06.09.1.16.12.07.01.17-.03.29-.12.12-.1.28-.26.46-.48.18-.23.41-.55.67-.98l.21.12c-.3.52-.57.93-.83,1.22s-.47.5-.67.62-.37.18-.52.16c-.15-.01-.27-.06-.37-.15-.1-.09-.17-.19-.21-.32-.04-.13-.06-.25-.05-.35.02-.22.08-.51.18-.87.1-.36.21-.73.34-1.12s.25-.75.37-1.11.22-.62.29-.83c-.49.89-.95,1.63-1.36,2.23-.41.6-.78,1.1-1.12,1.48-.33.38-.61.65-.86.82s-.44.24-.6.24c-.11,0-.22-.02-.35-.07s-.23-.13-.32-.25-.14-.29-.14-.5.05-.48.18-.82l1.38-3.45c.09-.23.12-.41.09-.54s-.12-.18-.26-.15-.33.17-.56.4c-.23.24-.5.6-.82,1.11l-.22-.16c.09-.14.21-.32.35-.54.15-.22.32-.44.51-.65s.39-.4.59-.55c.21-.15.41-.23.61-.23.11,0,.22.04.32.11s.17.18.22.32.07.31.06.5c0,.2-.06.42-.16.66l-1.25,3.07c-.1.24-.15.44-.15.62s.02.31.08.41.14.14.25.14.23-.06.35-.18c.23-.23.46-.48.68-.75.23-.28.45-.57.66-.89.21-.31.42-.62.62-.94.2-.31.39-.61.57-.91.41-.69.81-1.41,1.18-2.13h.93-.01Z"/>
      <path class="cls-9" d="M538.06,206.65l-.1.44h-1.42l-1.42,4.79c-.03.11-.01.21.04.31s.15.13.29.1.32-.15.55-.37c.23-.21.51-.58.85-1.1l.24.14c-.1.16-.23.36-.39.58-.17.23-.35.44-.55.64s-.4.37-.6.51c-.21.14-.4.21-.58.21-.32,0-.53-.12-.62-.37-.09-.25-.07-.58.05-1l1.39-4.45h-1.17l.12-.44h1.15l.75-2.54h.84l-.79,2.54h1.39Z"/>
      <path class="cls-5" d="M354.83,177c8.95,6.4,20.05,13.4,33.39,20.02,4.56,2.26,16.37,7.94,32.87,13.5,26.34,8.87,47.86,11.78,64.7,13.97,18.3,2.38,42.43,4.34,70.96,3.49"/>
      <path class="cls-2" d="M343.88,311c9.43-7.08,21.14-14.82,35.2-22.14,4.8-2.5,17.26-8.79,34.65-14.93,27.77-9.81,50.45-13.03,68.2-15.45,19.3-2.63,44.73-4.8,74.81-3.86"/>
      <circle class="cls-6" cx="101.78" cy="193.22" r="5.74"/>
      <circle class="cls-3" cx="101.78" cy="289.12" r="5.74"/>
      <circle class="cls-3" cx="386.98" cy="241.17" r="5.74"/>
      <circle class="cls-6" cx="386.98" cy="195.34" r="5.74"/>
    </g>
    <g id="_레이어_2" data-name="레이어_2">
      <polyline class="cls-1" points="63.25 176.74 63.25 344.48 276.65 344.48"/>
      <line class="cls-8" x1="63.25" y1="241.17" x2="276.65" y2="241.17"/>
      <g>
        <path d="M49.68,295.04l-2.49.52.42-.73v5.03h-.5v-5.38l2.58-.08v.64ZM57.35,300.63c-.78-.02-1.57-.03-2.37-.03-.79,0-1.59,0-2.38,0h-.74c-.8,0-1.6,0-2.39,0-.79,0-1.58.02-2.37.03v-1.53c.78,0,1.58.02,2.39.02.81,0,1.65,0,2.51,0h.34c.92,0,1.79,0,2.6,0,.81,0,1.62-.01,2.41-.02v1.53ZM47.54,302.01h-.43v-2.16h.6v.17l-.17,1.99ZM53.81,296.58l-1.55.2h-.29l-1.51-.2v-.53h3.36v.53ZM52.38,299.86h-.48v-3.39h.48v3.39ZM57.35,299.86h-.49v-5.28l.39.73-2.52-.53v-.63l2.62.07v5.64ZM57.35,302.01h-.43l-.18-1.99v-.17h.62v2.16Z"/>
        <path d="M50.46,288.52h-.42v-2.67h.42l.13,1.12v.31l-.13,1.25ZM57.35,287.82l-3.29,2.21-4.02,2.7v-1.54l3.16-2.16,4.14-2.81v1.6ZM53.98,289.31l-.29.29v-.06l-1.82-1.25-1.82-1.25v-.69l3.93,2.94ZM50.46,293.3h-.42v-3.51h.42l.14,1.46v.62l-.14,1.44ZM57.35,292.76l-4.09-3.05.28-.29v.03l1.9,1.32,1.9,1.3v.7ZM57.35,289.26h-.39l-.15-1.75v-.38l.15-1.48h.39v3.61ZM57.35,293.39h-.39l-.14-1.23v-.31l.14-1.23h.39v2.77Z"/>
        <path d="M57.56,280.49c0,.43-.1.85-.29,1.27-.19.42-.53.8-1.03,1.14v.18l-.34-.21c.35-.33.6-.64.73-.94s.2-.64.2-1.02c0-.39-.1-.75-.31-1.07-.21-.32-.54-.58-1.01-.77s-1.08-.29-1.85-.29c-1.08,0-1.87.19-2.37.57-.5.38-.75.88-.75,1.5,0,.33.08.66.23.99.15.33.46.69.9,1.08l-.34.17v-.14c-.53-.36-.92-.78-1.16-1.25-.24-.47-.36-.94-.36-1.43,0-.58.15-1.09.46-1.53.31-.44.74-.79,1.31-1.05.56-.26,1.24-.39,2.04-.39s1.5.14,2.09.42c.59.28,1.04.66,1.36,1.13.32.48.48,1.02.48,1.62ZM60.99,284.05c-.35,0-.71-.02-1.09-.02s-.77,0-1.15-.01c-.39,0-.74,0-1.07,0h-4.42c-.48,0-.9,0-1.27,0-.37,0-.72.02-1.06.04l-.08,1.2h-.35l-.62-2.31.11-.18,1.16-.1h.08s5.03-.01,5.03-.01h.15s1.26.01,1.26.01c.32,0,.67,0,1.06,0s.77,0,1.16-.01c.39,0,.75-.01,1.1-.02v1.43ZM60.99,285.2h-.39l-.14-1.55v-.7l.14-1.61h.39v3.86Z"/>
        <path d="M57.56,272.35c0,.71-.14,1.34-.43,1.89-.29.55-.72.98-1.29,1.3-.57.31-1.28.47-2.12.47s-1.49-.16-2.07-.49-1.02-.76-1.34-1.3c-.31-.54-.47-1.12-.47-1.75s.13-1.17.39-1.62c.26-.44.61-.78,1.06-1.01.44-.23.95-.34,1.52-.34.34,0,.62.03.84.08v5.81h-.45v-3.92c0-.26-.07-.44-.21-.53-.14-.09-.36-.14-.67-.14-.61,0-1.09.15-1.46.45s-.55.72-.55,1.26c0,.38.12.73.37,1.04.25.31.61.56,1.09.75.48.19,1.07.28,1.77.28.76,0,1.38-.11,1.87-.34.49-.23.85-.54,1.07-.93.22-.39.34-.84.34-1.36s-.09-.92-.27-1.28-.43-.67-.76-.95l.18-.24c.5.3.9.69,1.18,1.17.28.48.42,1.05.42,1.7Z"/>
        <path d="M57.56,264.69c0,.69-.15,1.3-.45,1.83-.3.53-.73.95-1.29,1.26s-1.24.46-2.03.46c-.85,0-1.57-.17-2.16-.52s-1.04-.81-1.34-1.39c-.31-.57-.46-1.19-.46-1.85,0-.44.08-.84.25-1.21.16-.37.39-.68.67-.93.28-.25.62-.42,1-.52.35.1.53.32.53.66,0,.21-.06.39-.18.52-.12.14-.33.22-.63.26l-1.26.32.57-.77c-.18.28-.3.54-.38.79-.07.25-.11.5-.11.75,0,.47.13.89.4,1.26.27.37.65.67,1.14.88.5.21,1.09.32,1.79.32,1.01,0,1.79-.25,2.35-.74.56-.49.83-1.13.83-1.91,0-.41-.08-.8-.25-1.16s-.42-.68-.76-.97l.18-.24c.51.32.91.7,1.18,1.16.27.46.41,1.03.41,1.72Z"/>
        <path d="M57.56,257.96c0,.61-.16,1.06-.47,1.36-.31.3-.8.45-1.45.45-.23,0-.44,0-.63,0-.19,0-.41,0-.67,0h-3.77v1.34h-.43l-.13-1.64.2.27-2.37-.49v-.9l2.42.04h5.42c.42,0,.73-.08.92-.25.19-.16.29-.39.29-.69,0-.21-.03-.38-.1-.54-.06-.15-.16-.32-.28-.51l.25-.21c.26.2.46.44.59.73.14.29.2.64.2,1.05ZM50.58,259.06h-.53v-2.63h.53v2.63Z"/>
        <path d="M57.56,251.75c0,.71-.14,1.34-.43,1.89-.29.55-.72.98-1.29,1.3-.57.31-1.28.47-2.12.47s-1.49-.16-2.07-.49-1.02-.76-1.34-1.3c-.31-.54-.47-1.12-.47-1.75s.13-1.17.39-1.62c.26-.44.61-.78,1.06-1.01.44-.23.95-.34,1.52-.34.34,0,.62.03.84.08v5.81h-.45v-3.92c0-.26-.07-.44-.21-.53-.14-.09-.36-.14-.67-.14-.61,0-1.09.15-1.46.45s-.55.72-.55,1.26c0,.38.12.73.37,1.04.25.31.61.56,1.09.75.48.19,1.07.28,1.77.28.76,0,1.38-.11,1.87-.34.49-.23.85-.54,1.07-.93.22-.39.34-.84.34-1.36s-.09-.92-.27-1.28-.43-.67-.76-.95l.18-.24c.5.3.9.69,1.18,1.17.28.48.42,1.05.42,1.7Z"/>
        <path d="M57.49,242.25l-1.36.08h-4.91l-.14-.04h-4.16l-.07,1.25h-.38l-.45-2.39.13-.21,2.14.04h8.58l.08-1.23h.39l.14,2.51ZM57.56,244.54c0,.6-.16,1.13-.47,1.6-.31.47-.75.84-1.32,1.11s-1.23.4-1.99.4c-.81,0-1.51-.15-2.1-.44s-1.04-.69-1.37-1.19c-.32-.5-.48-1.06-.48-1.67,0-.42.1-.82.31-1.2.21-.38.55-.74,1.02-1.08v-.14l.32.2c-.34.32-.58.62-.72.9s-.22.59-.22.92c0,.41.1.79.32,1.13.21.34.55.61,1.02.82.47.21,1.09.31,1.85.31.72,0,1.31-.1,1.76-.29.46-.19.79-.45,1.01-.78s.32-.7.32-1.11c0-.35-.08-.68-.23-.98s-.41-.6-.76-.9l.36-.2v.13c.45.32.79.68,1.02,1.1.23.42.34.87.34,1.37Z"/>
        <path d="M49.68,228.12l-2.49.52.42-.73v5.03h-.5v-5.38l2.58-.08v.64ZM57.35,233.71c-.78-.02-1.57-.03-2.37-.03-.79,0-1.59,0-2.38,0h-.74c-.8,0-1.6,0-2.39,0-.79,0-1.58.02-2.37.03v-1.53c.78,0,1.58.02,2.39.02.81,0,1.65,0,2.51,0h.34c.92,0,1.79,0,2.6,0,.81,0,1.62-.01,2.41-.02v1.53ZM47.54,235.09h-.43v-2.16h.6v.17l-.17,1.99ZM53.81,229.66l-1.55.2h-.29l-1.51-.2v-.53h3.36v.53ZM52.38,232.94h-.48v-3.39h.48v3.39ZM57.35,232.94h-.49v-5.28l.39.73-2.52-.53v-.63l2.62.07v5.64ZM57.35,235.09h-.43l-.18-1.99v-.17h.62v2.16Z"/>
        <path d="M52.89,223.56l-.77.35v-.28c-.47-.15-.87-.35-1.21-.59-.34-.25-.6-.53-.79-.84-.19-.31-.28-.63-.28-.96,0-.28.06-.52.18-.73s.3-.35.55-.41c.25,0,.46.06.62.19s.24.32.24.6c0,.19-.05.35-.15.5s-.25.31-.43.48l-.32.32.03-.6c.16.46.42.85.79,1.17.37.32.89.59,1.56.82ZM57.35,224.96c-.23,0-.54-.02-.92-.02-.38,0-.78,0-1.2-.01-.42,0-.78,0-1.09,0h-.91c-.49,0-.91,0-1.26,0-.35,0-.7.02-1.04.04l-.08,1.19h-.35l-.62-2.32.11-.18,1.97-.08h2.17c.31,0,.67,0,1.09,0,.42,0,.82,0,1.2-.01s.69-.01.92-.02v1.44ZM57.35,226.06h-.39l-.17-1.53v-.77l.17-1.57h.39v3.86Z"/>
        <path d="M52.89,216.94l-.77.35v-.28c-.47-.15-.87-.35-1.21-.59-.34-.25-.6-.53-.79-.84-.19-.31-.28-.63-.28-.96,0-.28.06-.52.18-.73s.3-.35.55-.41c.25,0,.46.06.62.19s.24.32.24.6c0,.19-.05.35-.15.5s-.25.31-.43.48l-.32.32.03-.6c.16.46.42.85.79,1.17.37.32.89.59,1.56.82ZM57.35,218.34c-.23,0-.54-.02-.92-.02-.38,0-.78,0-1.2-.01-.42,0-.78,0-1.09,0h-.91c-.49,0-.91,0-1.26,0-.35,0-.7.02-1.04.04l-.08,1.19h-.35l-.62-2.32.11-.18,1.97-.08h2.17c.31,0,.67,0,1.09,0,.42,0,.82,0,1.2-.01s.69-.01.92-.02v1.44ZM57.35,219.44h-.39l-.17-1.53v-.77l.17-1.57h.39v3.86Z"/>
        <path d="M57.56,209.43c0,.65-.15,1.25-.44,1.79s-.73.97-1.31,1.29c-.58.32-1.28.48-2.11.48s-1.55-.17-2.12-.5c-.57-.34-1.01-.78-1.3-1.32-.29-.55-.44-1.13-.44-1.74s.15-1.23.44-1.77.73-.99,1.3-1.32c.57-.34,1.28-.5,2.12-.5s1.54.17,2.11.5c.58.33,1.02.77,1.31,1.31s.44,1.14.44,1.79ZM57.11,209.43c0-.66-.29-1.18-.87-1.55-.58-.37-1.42-.56-2.53-.56s-1.96.19-2.54.56c-.58.37-.88.89-.88,1.55s.29,1.17.88,1.54c.58.37,1.43.56,2.54.56s1.96-.19,2.53-.56c.58-.37.87-.89.87-1.54Z"/>
        <path d="M52.89,202.12l-.77.35v-.28c-.47-.15-.87-.35-1.21-.59-.34-.25-.6-.53-.79-.84-.19-.31-.28-.63-.28-.96,0-.28.06-.52.18-.73s.3-.35.55-.41c.25,0,.46.06.62.19s.24.32.24.6c0,.19-.05.35-.15.5s-.25.31-.43.48l-.32.32.03-.6c.16.46.42.85.79,1.17.37.32.89.59,1.56.82ZM57.35,203.52c-.23,0-.54-.02-.92-.02-.38,0-.78,0-1.2-.01-.42,0-.78,0-1.09,0h-.91c-.49,0-.91,0-1.26,0-.35,0-.7.02-1.04.04l-.08,1.19h-.35l-.62-2.32.11-.18,1.97-.08h2.17c.31,0,.67,0,1.09,0,.42,0,.82,0,1.2-.01s.69-.01.92-.02v1.44ZM57.35,204.63h-.39l-.17-1.53v-.77l.17-1.57h.39v3.86Z"/>
      </g>
      <g>
        <path d="M100.86,361.09l-6.29-9.21-.03-.03-.38-.56-1.32-.1v-.43h2.66l5.81,8.58-.25.08-.03-4.17v-4.49h.53v10.33h-.71ZM92.87,361.01v-.43l1.47-.18h.34l1.83.18v.43h-3.64ZM94.21,361.01v-9.9h.5l.08,5.67v4.23h-.59ZM99.31,351.2v-.43h3.64v.43l-1.47.17h-.31l-1.86-.17Z"/>
        <path d="M106.73,361.22c-.66,0-1.18-.21-1.55-.62-.37-.42-.56-1.15-.55-2.19l.04-4.23.34.27-1.46-.22v-.36l2.37-.25.15.15-.07,1.89v2.8c0,.71.12,1.2.35,1.48.23.28.57.42,1.01.42s.83-.12,1.22-.37c.39-.25.74-.58,1.05-1l.36.59h-.45c-.35.49-.77.88-1.23,1.19-.47.31-.99.46-1.58.46ZM109.46,361.15l-.06-1.72h0s.03-5.05.03-5.05l-1.11-.14v-.35l2.35-.28.14.15-.06,1.89v4.87l1.02.1v.39l-2.32.14Z"/>
        <path d="M114,361.01c0-.23.02-.54.02-.92,0-.38,0-.78.01-1.2,0-.42,0-.78,0-1.09v-.92c0-.48,0-.89,0-1.25,0-.35-.02-.71-.04-1.05l-1.19-.07v-.35l2.32-.62.18.11.08,1.58v2.56c0,.31,0,.67,0,1.09,0,.42,0,.82.01,1.2s.01.69.02.92h-1.44ZM112.9,361.01v-.39l1.51-.15h.57l1.47.15v.39h-3.56ZM118.64,361.01c0-.23.02-.54.02-.92,0-.38,0-.78.01-1.2,0-.42,0-.79,0-1.11v-1.65c0-.67-.1-1.15-.31-1.42s-.5-.41-.86-.41-.72.12-1.12.35-.83.61-1.27,1.13l-.11-.55h.18c.44-.57.89-1,1.37-1.3.47-.3.97-.45,1.49-.45.62,0,1.11.21,1.46.62s.52,1.09.52,2.02v1.65c0,.32,0,.69,0,1.11,0,.42,0,.82.01,1.2s.01.68.02.92h-1.41ZM117.55,361.01v-.39l1.47-.15h.6l1.44.15v.39h-3.51ZM123.23,361.01c0-.23.02-.54.02-.92,0-.38,0-.78.01-1.2,0-.42,0-.79,0-1.11v-1.65c0-.69-.1-1.17-.31-1.43-.21-.27-.51-.4-.9-.4-.35,0-.71.11-1.1.32-.39.21-.81.58-1.25,1.1l-.14-.57h.2c.44-.57.89-.99,1.36-1.25.47-.27.95-.4,1.46-.4.67,0,1.18.21,1.53.62s.52,1.09.52,2.04v1.64c0,.32,0,.69,0,1.11,0,.42,0,.82.01,1.2s.01.68.02.92h-1.43ZM122.15,361.01v-.39l1.46-.15h.6l1.46.15v.39h-3.51Z"/>
        <path d="M126.69,361.01v-.39l1.12-.1c0-.27.01-.57.01-.9s0-.65,0-.97c0-.32,0-.61,0-.86v-7.21l-1.19-.07v-.38l2.37-.45.21.13-.04,2.18v2.79l.03.14v4.98l-.21,1.26-2.31-.15ZM131.43,361.22c-.45,0-.89-.11-1.32-.34-.43-.22-.82-.59-1.17-1.09h-.15l.2-.32c.34.37.66.64.98.79.32.15.65.23.99.23.38,0,.73-.1,1.06-.3.32-.2.58-.53.78-1,.2-.47.29-1.1.29-1.9,0-1.05-.2-1.83-.59-2.33-.39-.5-.9-.75-1.51-.75-.21,0-.43.03-.66.09-.22.06-.46.18-.7.35-.24.17-.51.42-.81.75l-.17-.41h.21c.38-.52.81-.9,1.28-1.14.47-.24.95-.36,1.44-.36.58,0,1.09.15,1.53.46.44.31.79.74,1.05,1.31.26.57.39,1.24.39,2.04s-.13,1.43-.39,2.02c-.26.59-.63,1.06-1.09,1.39s-1.01.5-1.62.5Z"/>
        <path d="M139.53,361.22c-.71,0-1.34-.14-1.89-.43-.55-.29-.98-.72-1.3-1.29-.31-.57-.47-1.28-.47-2.12s.16-1.49.49-2.07c.33-.58.76-1.02,1.3-1.34.54-.31,1.12-.47,1.75-.47s1.17.13,1.62.39c.44.26.78.61,1.01,1.06.23.44.34.95.34,1.52,0,.34-.03.62-.08.84h-5.81v-.45h3.92c.26,0,.44-.07.53-.21.09-.14.14-.36.14-.67,0-.61-.15-1.09-.45-1.46-.3-.37-.72-.55-1.26-.55-.38,0-.73.12-1.04.37-.31.25-.56.61-.75,1.09-.19.48-.28,1.07-.28,1.77,0,.76.11,1.38.34,1.87.23.49.54.85.93,1.07.39.22.84.34,1.36.34s.92-.09,1.28-.27c.36-.18.67-.43.95-.76l.24.18c-.3.5-.69.9-1.17,1.18-.48.28-1.05.42-1.7.42Z"/>
        <path d="M144.65,361.01c0-.23.02-.54.02-.92,0-.38,0-.78.01-1.2,0-.42,0-.78,0-1.09v-.91c0-.49,0-.91,0-1.26,0-.35-.02-.7-.04-1.04l-1.19-.08v-.35l2.32-.62.18.11.08,1.97h0v2.17c0,.31,0,.67,0,1.09,0,.42,0,.82.01,1.2s.01.69.02.92h-1.44ZM143.54,361.01v-.39l1.53-.17h.77l1.57.17v.39h-3.86ZM146.05,356.54l-.35-.77h.28c.15-.47.35-.87.59-1.21.25-.34.53-.6.84-.79.31-.19.63-.28.96-.28.28,0,.52.06.73.17.21.12.35.3.41.55,0,.25-.06.46-.19.62-.13.16-.32.24-.6.24-.19,0-.35-.05-.5-.15s-.31-.25-.48-.43l-.32-.32.6.03c-.46.16-.85.42-1.17.79-.32.37-.59.89-.82,1.56Z"/>
        <path d="M157.39,361.22c-.65,0-1.25-.15-1.79-.44s-.97-.73-1.29-1.31c-.32-.58-.48-1.28-.48-2.11s.17-1.55.5-2.12c.34-.57.78-1.01,1.32-1.3.55-.29,1.13-.44,1.74-.44s1.23.15,1.77.44.99.73,1.32,1.3c.34.57.5,1.28.5,2.12s-.17,1.54-.5,2.11c-.33.58-.77,1.02-1.31,1.31s-1.14.44-1.79.44ZM157.39,360.77c.66,0,1.18-.29,1.55-.87.37-.58.56-1.42.56-2.53s-.19-1.96-.56-2.54c-.37-.58-.89-.88-1.55-.88s-1.17.29-1.54.88c-.37.58-.56,1.43-.56,2.54s.19,1.96.56,2.53c.37.58.89.87,1.54.87Z"/>
        <path d="M163.31,361.01c.02-.53.03-1.07.04-1.61,0-.54.01-1.08.01-1.61v-3.56h-1.29v-.43l1.78-.15-.5.25v-.1c.06-.9.19-1.61.4-2.14s.5-.97.86-1.32c.32-.29.65-.5.99-.62.35-.13.7-.19,1.05-.19s.67.07.95.2c.28.13.46.33.53.59,0,.19-.08.34-.21.47s-.31.19-.55.19c-.2,0-.38-.06-.55-.17-.17-.11-.36-.29-.55-.53l-.36-.43v-.13h.6v.11c-.26.03-.5.11-.72.26s-.4.32-.54.54c-.15.24-.27.51-.36.81-.09.3-.15.66-.17,1.08-.02.42-.03.93,0,1.53v3.75c0,.53,0,1.07.01,1.61,0,.54.02,1.08.04,1.61h-1.47ZM162.14,361.01v-.39l1.61-.15h.73l1.69.15v.39h-4.03ZM164.05,354.23v-.53h2.76v.53h-2.76Z"/>
        <path d="M171.4,351.2v-.43h2.16v.6h-.17l-1.99-.17ZM171.4,361.01v-.43l1.99-.18h.17v.62h-2.16ZM172.79,361.01c.02-.78.03-1.58.03-2.39,0-.81,0-1.68,0-2.62v-.41c0-.83,0-1.64,0-2.44,0-.8-.02-1.59-.03-2.39h1.53c0,.78-.02,1.58-.02,2.38,0,.8,0,1.62,0,2.45v.41c0,.92,0,1.79,0,2.6,0,.81.01,1.62.02,2.41h-1.53ZM173.56,361.01v-.48h1.79c1.28,0,2.25-.41,2.91-1.24.66-.83.99-1.96.99-3.41s-.33-2.66-.98-3.45c-.65-.79-1.59-1.18-2.8-1.18h-1.92v-.49h2.1c1.07,0,1.99.2,2.76.61.77.41,1.35.99,1.76,1.75.41.76.61,1.68.61,2.76s-.21,1.96-.64,2.73-1.04,1.36-1.83,1.77c-.8.42-1.75.62-2.86.62h-1.89Z"/>
        <path d="M184.12,361.22c-.56,0-1.03-.16-1.4-.48-.37-.32-.56-.77-.56-1.36,0-.37.08-.7.25-.99.16-.29.44-.55.82-.78s.9-.44,1.54-.62c.38-.11.79-.22,1.23-.34.44-.11.84-.21,1.22-.31v.35c-.37.09-.75.19-1.13.3-.38.11-.72.22-1.01.33-.57.21-.98.47-1.23.78-.25.3-.37.66-.37,1.08s.11.75.34.97c.23.21.53.32.9.32.2,0,.39-.04.59-.11.2-.08.42-.21.67-.41s.55-.48.9-.83l.14.69h-.38c-.28.31-.55.57-.8.78s-.51.37-.78.48c-.27.11-.58.16-.94.16ZM187.9,361.21c-.43,0-.75-.14-.97-.42-.22-.28-.35-.66-.39-1.15v-3.74c0-.52-.06-.92-.17-1.2-.11-.28-.28-.48-.51-.59-.23-.11-.53-.17-.89-.17-.26,0-.52.03-.79.1s-.56.19-.88.36l.69-.38-.21,1.11c-.03.29-.11.5-.25.62s-.3.18-.48.18c-.37,0-.6-.18-.69-.55.12-.59.44-1.05.96-1.39s1.2-.5,2.05-.5,1.47.2,1.88.6c.4.4.6,1.05.6,1.95v3.51c0,.4.05.68.15.83.1.15.24.22.41.22.11,0,.21-.03.31-.08.09-.06.2-.15.32-.29l.22.2c-.15.27-.34.47-.57.59-.23.13-.5.19-.81.19Z"/>
        <path d="M192.71,361.22c-.61,0-1.06-.16-1.36-.47-.3-.31-.45-.8-.45-1.45,0-.23,0-.44,0-.63,0-.19,0-.41,0-.67v-3.77h-1.34v-.43l1.64-.13-.27.2.49-2.37h.9l-.04,2.42v5.42c0,.42.08.73.25.92.16.19.39.29.69.29.21,0,.38-.03.54-.1.15-.07.32-.16.51-.28l.21.25c-.2.26-.44.46-.73.59-.29.14-.64.2-1.05.2ZM191.61,354.23v-.53h2.63v.53h-2.63Z"/>
        <path d="M197.28,361.22c-.56,0-1.03-.16-1.4-.48-.37-.32-.56-.77-.56-1.36,0-.37.08-.7.25-.99.16-.29.44-.55.82-.78s.9-.44,1.54-.62c.38-.11.79-.22,1.23-.34.44-.11.84-.21,1.22-.31v.35c-.37.09-.75.19-1.13.3-.38.11-.72.22-1.01.33-.57.21-.98.47-1.23.78-.25.3-.37.66-.37,1.08s.11.75.34.97c.23.21.53.32.9.32.2,0,.39-.04.59-.11.2-.08.42-.21.67-.41s.55-.48.9-.83l.14.69h-.38c-.28.31-.55.57-.8.78s-.51.37-.78.48c-.27.11-.58.16-.94.16ZM201.06,361.21c-.43,0-.75-.14-.97-.42-.22-.28-.35-.66-.39-1.15v-3.74c0-.52-.06-.92-.17-1.2-.11-.28-.28-.48-.51-.59-.23-.11-.53-.17-.89-.17-.26,0-.52.03-.79.1s-.56.19-.88.36l.69-.38-.21,1.11c-.03.29-.11.5-.25.62s-.3.18-.48.18c-.37,0-.6-.18-.69-.55.12-.59.44-1.05.96-1.39s1.2-.5,2.05-.5,1.47.2,1.88.6c.4.4.6,1.05.6,1.95v3.51c0,.4.05.68.15.83.1.15.24.22.41.22.11,0,.21-.03.31-.08.09-.06.2-.15.32-.29l.22.2c-.15.27-.34.47-.57.59-.23.13-.5.19-.81.19Z"/>
        <path d="M206.82,351.2v-.43h2.16v.6h-.17l-1.99-.17ZM206.82,361.01v-.43l1.99-.18h.43l2.06.18v.43h-4.48ZM208.21,361.01c.02-.78.03-1.57.03-2.37,0-.79,0-1.59,0-2.38v-.74c0-.8,0-1.6,0-2.39,0-.79-.02-1.58-.03-2.37h1.53c0,.78-.02,1.57-.02,2.37,0,.79,0,1.59,0,2.39v.98c0,.69,0,1.42,0,2.18,0,.76.01,1.54.02,2.33h-1.53ZM208.98,356.84v-.48h1.47c.68,0,1.23-.11,1.65-.33.42-.22.73-.53.93-.92s.3-.85.3-1.35c0-.82-.21-1.44-.63-1.87-.42-.42-1.07-.64-1.95-.64h-1.78v-.49h1.86c1.33,0,2.32.27,2.95.8.63.53.94,1.27.94,2.2,0,.57-.15,1.09-.43,1.55-.29.47-.75.84-1.37,1.11s-1.44.41-2.44.41h-1.51Z"/>
        <path d="M219.13,361.22c-.65,0-1.25-.15-1.79-.44s-.97-.73-1.29-1.31c-.32-.58-.48-1.28-.48-2.11s.17-1.55.5-2.12c.34-.57.78-1.01,1.32-1.3.55-.29,1.13-.44,1.74-.44s1.23.15,1.77.44.99.73,1.32,1.3c.34.57.5,1.28.5,2.12s-.17,1.54-.5,2.11c-.33.58-.77,1.02-1.31,1.31s-1.14.44-1.79.44ZM219.13,360.77c.66,0,1.18-.29,1.55-.87.37-.58.56-1.42.56-2.53s-.19-1.96-.56-2.54c-.37-.58-.89-.88-1.55-.88s-1.17.29-1.54.88c-.37.58-.56,1.43-.56,2.54s.19,1.96.56,2.53c.37.58.89.87,1.54.87Z"/>
        <path d="M225.07,361.01c0-.23.02-.54.03-.92,0-.38.02-.78.02-1.2s0-.78,0-1.09v-.9c0-.48,0-.9-.01-1.27,0-.37-.02-.73-.04-1.07l-1.2-.07v-.35l2.48-.6.18.11-.04,2.02v2.13c0,.31,0,.67,0,1.09,0,.42,0,.82.01,1.2s.01.69.02.92h-1.46ZM223.96,361.01v-.39l1.53-.15h.56l1.5.15v.39h-3.58ZM225.7,351.84c-.24,0-.45-.08-.62-.24-.17-.16-.26-.36-.26-.62s.09-.46.26-.62.38-.24.62-.24.45.08.63.24c.18.16.27.36.27.62s-.09.46-.27.62c-.18.16-.39.24-.63.24Z"/>
        <path d="M229.76,361.01c0-.23.02-.54.02-.92,0-.38,0-.78.01-1.2s0-.78,0-1.09v-.91c0-.48,0-.89,0-1.25s-.02-.71-.04-1.04l-1.19-.08v-.35l2.32-.62.18.11.08,1.62h0v2.52c0,.31,0,.67,0,1.09,0,.42,0,.82.01,1.2s.01.69.02.92h-1.44ZM228.65,361.01v-.39l1.51-.15h.57l1.47.15v.39h-3.56ZM234.53,361.01c0-.23.02-.54.02-.92s0-.78.01-1.2c0-.42,0-.79,0-1.11v-1.71c0-.65-.11-1.11-.32-1.38-.21-.27-.52-.4-.91-.4-.31,0-.68.11-1.11.32-.43.21-.89.59-1.37,1.13l-.1-.5h.15c.51-.63,1.02-1.08,1.51-1.35.5-.27.99-.4,1.48-.4.62,0,1.12.21,1.47.62s.53,1.09.53,2.02v1.65c0,.32,0,.69,0,1.11,0,.42.01.82.02,1.2,0,.38.02.68.03.92h-1.44ZM233.44,361.01v-.39l1.48-.15h.59l1.47.15v.39h-3.54Z"/>
        <path d="M240.76,361.22c-.61,0-1.06-.16-1.36-.47s-.45-.8-.45-1.45c0-.23,0-.44,0-.63,0-.19,0-.41,0-.67v-3.77h-1.34v-.43l1.64-.13-.27.2.49-2.37h.9l-.04,2.42v5.42c0,.42.08.73.25.92.16.19.39.29.69.29.21,0,.39-.03.54-.1.15-.07.32-.16.51-.28l.21.25c-.2.26-.44.46-.73.59-.29.14-.64.2-1.05.2ZM239.65,354.23v-.53h2.63v.53h-2.63Z"/>
        <path d="M245.87,361.22c-.48,0-.9-.05-1.28-.15-.38-.1-.76-.25-1.14-.44v-1.71h.67l.36,1.82-.56-.04v-.5c.28.18.56.31.85.41.29.1.63.15,1.03.15.61,0,1.06-.12,1.37-.36.31-.24.46-.56.46-.96,0-.34-.1-.61-.31-.83-.21-.21-.6-.41-1.18-.59l-.74-.27c-.57-.2-1.02-.46-1.37-.79-.34-.33-.51-.77-.51-1.31,0-.62.24-1.13.71-1.55.47-.42,1.15-.62,2.02-.62.44,0,.83.05,1.16.15.34.1.69.26,1.05.48l-.06,1.54h-.6l-.39-1.69.48.11v.45c-.28-.21-.55-.35-.8-.43s-.53-.13-.83-.13c-.51,0-.91.11-1.18.34-.27.23-.41.53-.41.89,0,.32.11.58.33.79.22.21.59.4,1.1.58l.73.25c.72.24,1.23.54,1.53.88.3.35.46.77.46,1.27,0,.43-.11.81-.34,1.15-.23.34-.56.61-1,.8-.44.19-.98.29-1.62.29Z"/>
      </g>
      <g>
        <path d="M111.41,389.15v-.6h5.87v.6l-2.76.23h-.46l-2.64-.23ZM117.71,402.79l-4.98-14.24h2.12l4.17,12.5h-.35l.08-.27,3.94-12.23h.91l-4.8,14.24h-1.08ZM120.32,389.15v-.6h4.73v.58l-2.06.25h-.31l-2.35-.23Z"/>
        <path d="M132.63,403c-1.05,0-2.02-.16-2.88-.49s-1.63-.81-2.28-1.44c-.65-.63-1.15-1.4-1.5-2.31-.35-.91-.52-1.94-.52-3.1s.18-2.2.54-3.12c.36-.92.87-1.7,1.51-2.35s1.41-1.14,2.29-1.48c.88-.33,1.82-.5,2.84-.5.81,0,1.53.09,2.16.26.63.17,1.25.45,1.87.82l.04,3.16h-.93l-.75-3.49,1.1.37v.67c-.53-.4-1.04-.68-1.53-.85-.5-.17-1.05-.25-1.65-.25-1.03,0-1.95.25-2.76.76-.81.51-1.44,1.26-1.9,2.26-.46,1-.69,2.23-.69,3.7s.23,2.68.69,3.67c.46,1,1.08,1.75,1.88,2.26s1.7.76,2.72.76c.6,0,1.18-.09,1.72-.26.54-.17,1.08-.46,1.62-.86v.66l-1.06.33.77-3.43h.91v3.15c-.64.39-1.3.67-1.98.84s-1.42.26-2.23.26Z"/>
        <path d="M146.37,402.96c-.77,0-1.42-.22-1.93-.66-.51-.44-.77-1.06-.77-1.87,0-.51.11-.97.34-1.37.22-.4.6-.75,1.13-1.07s1.23-.6,2.12-.86c.53-.15,1.09-.31,1.7-.46.6-.16,1.16-.3,1.68-.42v.48c-.51.13-1.03.27-1.55.42-.52.15-.99.3-1.4.45-.78.3-1.35.65-1.69,1.07-.34.42-.51.92-.51,1.5s.16,1.04.47,1.33c.31.3.73.44,1.24.44.27,0,.54-.05.81-.15.27-.1.58-.29.93-.57.35-.28.76-.66,1.23-1.15l.19.95h-.52c-.39.42-.75.78-1.1,1.07-.35.29-.71.51-1.08.66-.37.15-.8.22-1.29.22ZM151.58,402.94c-.59,0-1.04-.19-1.34-.58-.3-.39-.48-.91-.53-1.58v-5.15c0-.72-.08-1.27-.23-1.66-.15-.39-.39-.66-.7-.81-.32-.15-.72-.23-1.23-.23-.36,0-.72.05-1.09.14s-.77.26-1.21.49l.95-.52-.29,1.52c-.04.4-.15.68-.34.85-.19.17-.41.25-.67.25-.51,0-.83-.25-.95-.75.17-.81.61-1.45,1.32-1.91s1.66-.7,2.83-.7,2.03.28,2.59.83.83,1.45.83,2.68v4.84c0,.55.07.93.2,1.14.14.21.32.31.57.31.15,0,.3-.04.42-.12.13-.08.28-.21.44-.41l.31.27c-.21.37-.47.65-.78.82-.32.17-.69.26-1.11.26Z"/>
        <path d="M155.92,402.67c.01-.32.02-.75.03-1.27s.01-1.08.02-1.66c0-.58,0-1.08,0-1.5v-1.25c0-.66,0-1.23,0-1.73,0-.49-.02-.97-.05-1.44l-1.64-.12v-.48l3.2-.85.25.15.12,2.24v3.47c0,.42,0,.93,0,1.5s.01,1.13.02,1.66c0,.53.02.95.03,1.27h-1.99ZM154.39,402.67v-.54l2.08-.21h.79l2.03.21v.54h-4.9ZM162.5,402.67c.01-.32.02-.74.03-1.26,0-.52.01-1.07.02-1.65,0-.58,0-1.09,0-1.52v-2.35c0-.9-.15-1.53-.44-1.9-.3-.37-.71-.55-1.25-.55-.42,0-.93.15-1.52.43s-1.22.81-1.89,1.55l-.14-.69h.21c.71-.87,1.4-1.5,2.08-1.86.68-.37,1.36-.55,2.05-.55.86,0,1.54.29,2.03.86.49.57.73,1.5.73,2.79v2.28c0,.44,0,.95,0,1.52,0,.58.02,1.13.03,1.65.01.52.03.94.04,1.26h-1.99ZM160.99,402.67v-.54l2.05-.21h.81l2.03.21v.54h-4.88Z"/>
        <path d="M170.1,402.96c-.77,0-1.42-.22-1.93-.66-.51-.44-.77-1.06-.77-1.87,0-.51.11-.97.34-1.37.22-.4.6-.75,1.13-1.07s1.23-.6,2.12-.86c.53-.15,1.09-.31,1.7-.46.6-.16,1.16-.3,1.68-.42v.48c-.51.13-1.03.27-1.55.42-.52.15-.99.3-1.4.45-.78.3-1.35.65-1.69,1.07-.34.42-.51.92-.51,1.5s.16,1.04.47,1.33c.31.3.73.44,1.24.44.27,0,.54-.05.81-.15.27-.1.58-.29.93-.57.35-.28.76-.66,1.23-1.15l.19.95h-.52c-.39.42-.75.78-1.1,1.07-.35.29-.71.51-1.08.66-.37.15-.8.22-1.29.22ZM175.31,402.94c-.59,0-1.04-.19-1.34-.58-.3-.39-.48-.91-.53-1.58v-5.15c0-.72-.08-1.27-.23-1.66-.15-.39-.39-.66-.7-.81-.32-.15-.72-.23-1.23-.23-.36,0-.72.05-1.09.14s-.77.26-1.21.49l.95-.52-.29,1.52c-.04.4-.15.68-.34.85-.19.17-.41.25-.67.25-.51,0-.83-.25-.95-.75.17-.81.61-1.45,1.32-1.91s1.66-.7,2.83-.7,2.03.28,2.59.83.83,1.45.83,2.68v4.84c0,.55.07.93.2,1.14.14.21.32.31.57.31.15,0,.3-.04.42-.12.13-.08.28-.21.44-.41l.31.27c-.21.37-.47.65-.78.82-.32.17-.69.26-1.11.26Z"/>
        <path d="M178.01,402.67v-.54l2.24-.21h.77l2.28.21v.54h-5.29ZM179.67,402.67c.01-.42.02-.89.03-1.4,0-.51.01-1.03.02-1.55s0-1.02,0-1.49v-9.94l-1.64-.1v-.52l3.3-.62.29.17-.06,3.01v7.99c0,.46,0,.96,0,1.49s.01,1.04.02,1.55c0,.51.02.97.03,1.4h-2.01Z"/>
        <path d="M185.38,407.9c-.45,0-.86-.1-1.23-.3s-.57-.48-.61-.84c.05-.3.2-.51.43-.66.24-.14.5-.21.8-.21s.54.07.78.21c.24.14.47.33.68.58l.56.58-.64.35-.37-.33c.63-.21,1.18-.61,1.66-1.22.48-.6.9-1.39,1.27-2.35l.56-1.39.12-.31,1.7-4.73,1.6-4.69h.77l-4.09,10.94c-.39,1.04-.79,1.88-1.22,2.53-.42.64-.87,1.11-1.32,1.4-.46.29-.95.43-1.48.43ZM183.56,393.14v-.54h5v.54l-2.03.21h-1.04l-1.93-.21ZM189.04,403.77l-4.53-11.17h2.06l3.2,8.72.12.23-.85,2.22ZM190.61,393.14v-.54h3.92v.54l-1.58.19h-.29l-2.04-.19Z"/>
        <path d="M198.65,402.96c-.66,0-1.24-.07-1.77-.2s-1.04-.34-1.57-.61l.02-2.35h.91l.5,2.51-.77-.06v-.69c.39.24.77.43,1.17.57.39.13.86.2,1.42.2.84,0,1.47-.16,1.89-.49.42-.33.64-.77.64-1.32,0-.46-.14-.84-.42-1.14-.28-.3-.82-.57-1.62-.81l-1.02-.37c-.78-.27-1.41-.63-1.88-1.09-.47-.46-.7-1.06-.7-1.8,0-.85.32-1.56.97-2.13s1.58-.86,2.79-.86c.6,0,1.14.07,1.6.21.46.14.95.36,1.45.66l-.08,2.12h-.83l-.54-2.33.66.15v.62c-.39-.28-.75-.48-1.1-.6s-.73-.17-1.14-.17c-.71,0-1.25.16-1.62.47-.37.32-.56.72-.56,1.23,0,.44.15.8.45,1.09s.81.56,1.51.8l1,.35c.99.33,1.69.74,2.11,1.21.42.48.63,1.06.63,1.76,0,.59-.16,1.12-.47,1.59-.32.47-.78.84-1.38,1.1-.6.26-1.35.4-2.24.4Z"/>
        <path d="M205.91,402.67c.01-.32.03-.75.04-1.27s.02-1.08.03-1.66c0-.58,0-1.08,0-1.5v-1.24c0-.66,0-1.24-.02-1.75-.01-.51-.03-1-.06-1.48l-1.66-.1v-.48l3.42-.83.25.15-.06,2.78v2.93c0,.42,0,.93,0,1.5,0,.58.01,1.13.02,1.66s.02.95.03,1.27h-2.01ZM204.38,402.67v-.54l2.1-.21h.77l2.06.21v.54h-4.94ZM206.77,390.03c-.33,0-.62-.11-.86-.33-.24-.22-.36-.5-.36-.85s.12-.63.36-.85c.24-.22.52-.33.86-.33s.62.11.87.33c.24.22.37.5.37.85s-.12.63-.37.85c-.24.22-.53.33-.87.33Z"/>
        <path d="M214.42,402.96c-.66,0-1.24-.07-1.77-.2s-1.04-.34-1.57-.61l.02-2.35h.91l.5,2.51-.77-.06v-.69c.39.24.77.43,1.17.57.39.13.86.2,1.42.2.84,0,1.47-.16,1.89-.49.42-.33.64-.77.64-1.32,0-.46-.14-.84-.42-1.14-.28-.3-.82-.57-1.62-.81l-1.02-.37c-.78-.27-1.41-.63-1.88-1.09-.47-.46-.7-1.06-.7-1.8,0-.85.32-1.56.97-2.13s1.58-.86,2.79-.86c.6,0,1.14.07,1.6.21.46.14.95.36,1.45.66l-.08,2.12h-.83l-.54-2.33.66.15v.62c-.39-.28-.75-.48-1.1-.6s-.73-.17-1.14-.17c-.71,0-1.25.16-1.62.47-.37.32-.56.72-.56,1.23,0,.44.15.8.45,1.09s.81.56,1.51.8l1,.35c.99.33,1.69.74,2.11,1.21.42.48.63,1.06.63,1.76,0,.59-.16,1.12-.47,1.59-.32.47-.78.84-1.38,1.1-.6.26-1.35.4-2.24.4Z"/>
      </g>
      <polyline class="cls-1" points="343.88 176.74 343.88 344.48 557.27 344.48"/>
      <line class="cls-8" x1="343.88" y1="241.17" x2="557.27" y2="241.17"/>
      <g>
        <path d="M330.31,295.04l-2.49.52.42-.73v5.03h-.5v-5.38l2.58-.08v.64ZM337.98,300.63c-.78-.02-1.57-.03-2.37-.03-.79,0-1.59,0-2.38,0h-.74c-.8,0-1.6,0-2.39,0-.79,0-1.58.02-2.37.03v-1.53c.78,0,1.58.02,2.39.02.81,0,1.64,0,2.51,0h.34c.92,0,1.79,0,2.6,0,.81,0,1.62-.01,2.41-.02v1.53ZM328.17,302.01h-.43v-2.16h.6v.17l-.17,1.99ZM334.44,296.58l-1.55.2h-.29l-1.51-.2v-.53h3.36v.53ZM333.01,299.86h-.48v-3.39h.48v3.39ZM337.98,299.86h-.49v-5.28l.39.73-2.52-.53v-.63l2.62.07v5.64ZM337.98,302.01h-.43l-.18-1.99v-.17h.62v2.16Z"/>
        <path d="M331.09,288.52h-.42v-2.67h.42l.13,1.12v.31l-.13,1.25ZM337.98,287.82l-3.29,2.21-4.02,2.7v-1.54l3.16-2.16,4.14-2.81v1.6ZM334.61,289.31l-.29.29v-.06l-1.82-1.25-1.82-1.25v-.69l3.93,2.94ZM331.09,293.3h-.42v-3.51h.42l.14,1.46v.62l-.14,1.44ZM337.98,292.76l-4.09-3.05.28-.29v.03l1.9,1.32,1.9,1.3v.7ZM337.98,289.26h-.39l-.15-1.75v-.38l.15-1.48h.39v3.61ZM337.98,293.39h-.39l-.14-1.23v-.31l.14-1.23h.39v2.77Z"/>
        <path d="M338.19,280.49c0,.43-.1.85-.29,1.27-.19.42-.53.8-1.03,1.14v.18l-.34-.21c.35-.33.6-.64.73-.94s.2-.64.2-1.02c0-.39-.1-.75-.31-1.07-.21-.32-.54-.58-1.01-.77s-1.08-.29-1.85-.29c-1.08,0-1.87.19-2.37.57s-.75.88-.75,1.5c0,.33.08.66.23.99.15.33.46.69.9,1.08l-.34.17v-.14c-.53-.36-.92-.78-1.16-1.25-.24-.47-.36-.94-.36-1.43,0-.58.15-1.09.46-1.53.31-.44.74-.79,1.31-1.05.57-.26,1.24-.39,2.04-.39s1.5.14,2.09.42c.59.28,1.04.66,1.36,1.13s.48,1.02.48,1.62ZM341.62,284.05c-.35,0-.71-.02-1.09-.02s-.77,0-1.15-.01c-.39,0-.75,0-1.07,0h-4.42c-.48,0-.9,0-1.27,0-.37,0-.72.02-1.06.04l-.08,1.2h-.35l-.62-2.31.11-.18,1.16-.1h.08s5.03-.01,5.03-.01h.15s1.26.01,1.26.01c.32,0,.67,0,1.06,0,.39,0,.78,0,1.16-.01.39,0,.75-.01,1.1-.02v1.43ZM341.62,285.2h-.39l-.14-1.55v-.7l.14-1.61h.39v3.86Z"/>
        <path d="M338.19,272.35c0,.71-.14,1.34-.43,1.89-.29.55-.72.98-1.29,1.3-.57.31-1.28.47-2.12.47s-1.49-.16-2.07-.49c-.58-.33-1.02-.76-1.34-1.3-.31-.54-.47-1.12-.47-1.75s.13-1.17.39-1.62c.26-.44.61-.78,1.06-1.01.44-.23.95-.34,1.52-.34.34,0,.62.03.84.08v5.81h-.45v-3.92c0-.26-.07-.44-.21-.53-.14-.09-.36-.14-.67-.14-.61,0-1.09.15-1.46.45-.37.3-.55.72-.55,1.26,0,.38.12.73.37,1.04.25.31.61.56,1.09.75.48.19,1.07.28,1.77.28.76,0,1.38-.11,1.87-.34.49-.23.85-.54,1.07-.93.22-.39.34-.84.34-1.36s-.09-.92-.27-1.28c-.18-.36-.43-.67-.76-.95l.18-.24c.5.3.9.69,1.18,1.17.28.48.42,1.05.42,1.7Z"/>
        <path d="M338.19,264.69c0,.69-.15,1.3-.45,1.83-.3.53-.73.95-1.29,1.26-.56.31-1.24.46-2.03.46-.85,0-1.57-.17-2.16-.52s-1.04-.81-1.34-1.39c-.31-.57-.46-1.19-.46-1.85,0-.44.08-.84.25-1.21.16-.37.39-.68.67-.93.28-.25.62-.42,1-.52.35.1.53.32.53.66,0,.21-.06.39-.18.52-.12.14-.33.22-.63.26l-1.26.32.57-.77c-.18.28-.3.54-.38.79-.08.25-.11.5-.11.75,0,.47.13.89.4,1.26.27.37.65.67,1.14.88.5.21,1.09.32,1.79.32,1.01,0,1.79-.25,2.34-.74.56-.49.83-1.13.83-1.91,0-.41-.08-.8-.25-1.16s-.42-.68-.76-.97l.18-.24c.51.32.91.7,1.18,1.16.27.46.41,1.03.41,1.72Z"/>
        <path d="M338.19,257.96c0,.61-.16,1.06-.47,1.36-.31.3-.8.45-1.45.45-.23,0-.44,0-.63,0-.19,0-.41,0-.67,0h-3.77v1.34h-.43l-.13-1.64.2.27-2.37-.49v-.9l2.42.04h5.42c.42,0,.73-.08.92-.25.19-.16.29-.39.29-.69,0-.21-.03-.38-.1-.54-.07-.15-.16-.32-.28-.51l.25-.21c.26.2.46.44.59.73.14.29.2.64.2,1.05ZM331.21,259.06h-.53v-2.63h.53v2.63Z"/>
        <path d="M338.19,251.75c0,.71-.14,1.34-.43,1.89-.29.55-.72.98-1.29,1.3-.57.31-1.28.47-2.12.47s-1.49-.16-2.07-.49c-.58-.33-1.02-.76-1.34-1.3-.31-.54-.47-1.12-.47-1.75s.13-1.17.39-1.62c.26-.44.61-.78,1.06-1.01.44-.23.95-.34,1.52-.34.34,0,.62.03.84.08v5.81h-.45v-3.92c0-.26-.07-.44-.21-.53-.14-.09-.36-.14-.67-.14-.61,0-1.09.15-1.46.45-.37.3-.55.72-.55,1.26,0,.38.12.73.37,1.04.25.31.61.56,1.09.75.48.19,1.07.28,1.77.28.76,0,1.38-.11,1.87-.34.49-.23.85-.54,1.07-.93.22-.39.34-.84.34-1.36s-.09-.92-.27-1.28c-.18-.36-.43-.67-.76-.95l.18-.24c.5.3.9.69,1.18,1.17.28.48.42,1.05.42,1.7Z"/>
        <path d="M338.12,242.25l-1.36.08h-4.91l-.14-.04h-4.16l-.07,1.25h-.38l-.45-2.39.13-.21,2.14.04h8.58l.08-1.23h.39l.14,2.51ZM338.19,244.54c0,.6-.16,1.13-.47,1.6s-.75.84-1.32,1.11-1.23.4-1.99.4c-.81,0-1.51-.15-2.1-.44s-1.04-.69-1.37-1.19c-.32-.5-.48-1.06-.48-1.67,0-.42.1-.82.31-1.2.21-.38.55-.74,1.02-1.08v-.14l.32.2c-.34.32-.58.62-.72.9s-.22.59-.22.92c0,.41.1.79.32,1.13.21.34.55.61,1.02.82.47.21,1.09.31,1.86.31.72,0,1.31-.1,1.76-.29.46-.19.79-.45,1.01-.78s.32-.7.32-1.11c0-.35-.08-.68-.23-.98-.15-.3-.41-.6-.76-.9l.36-.2v.13c.45.32.79.68,1.01,1.1.23.42.34.87.34,1.37Z"/>
        <path d="M330.31,228.12l-2.49.52.42-.73v5.03h-.5v-5.38l2.58-.08v.64ZM337.98,233.71c-.78-.02-1.57-.03-2.37-.03-.79,0-1.59,0-2.38,0h-.74c-.8,0-1.6,0-2.39,0-.79,0-1.58.02-2.37.03v-1.53c.78,0,1.58.02,2.39.02.81,0,1.64,0,2.51,0h.34c.92,0,1.79,0,2.6,0,.81,0,1.62-.01,2.41-.02v1.53ZM328.17,235.09h-.43v-2.16h.6v.17l-.17,1.99ZM334.44,229.66l-1.55.2h-.29l-1.51-.2v-.53h3.36v.53ZM333.01,232.94h-.48v-3.39h.48v3.39ZM337.98,232.94h-.49v-5.28l.39.73-2.52-.53v-.63l2.62.07v5.64ZM337.98,235.09h-.43l-.18-1.99v-.17h.62v2.16Z"/>
        <path d="M333.52,223.56l-.77.35v-.28c-.47-.15-.87-.35-1.21-.59-.34-.25-.6-.53-.79-.84-.19-.31-.28-.63-.28-.96,0-.28.06-.52.17-.73.12-.21.3-.35.55-.41.25,0,.46.06.62.19.16.13.24.32.24.6,0,.19-.05.35-.15.5s-.25.31-.43.48l-.32.32.03-.6c.16.46.42.85.79,1.17.37.32.89.59,1.56.82ZM337.98,224.96c-.23,0-.54-.02-.92-.02-.38,0-.78,0-1.2-.01-.42,0-.78,0-1.09,0h-.91c-.49,0-.91,0-1.26,0-.35,0-.7.02-1.04.04l-.08,1.19h-.35l-.62-2.32.11-.18,1.97-.08h2.17c.31,0,.67,0,1.09,0,.42,0,.82,0,1.2-.01s.69-.01.92-.02v1.44ZM337.98,226.06h-.39l-.17-1.53v-.77l.17-1.57h.39v3.86Z"/>
        <path d="M333.52,216.94l-.77.35v-.28c-.47-.15-.87-.35-1.21-.59-.34-.25-.6-.53-.79-.84-.19-.31-.28-.63-.28-.96,0-.28.06-.52.17-.73.12-.21.3-.35.55-.41.25,0,.46.06.62.19.16.13.24.32.24.6,0,.19-.05.35-.15.5s-.25.31-.43.48l-.32.32.03-.6c.16.46.42.85.79,1.17.37.32.89.59,1.56.82ZM337.98,218.34c-.23,0-.54-.02-.92-.02-.38,0-.78,0-1.2-.01-.42,0-.78,0-1.09,0h-.91c-.49,0-.91,0-1.26,0-.35,0-.7.02-1.04.04l-.08,1.19h-.35l-.62-2.32.11-.18,1.97-.08h2.17c.31,0,.67,0,1.09,0,.42,0,.82,0,1.2-.01s.69-.01.92-.02v1.44ZM337.98,219.44h-.39l-.17-1.53v-.77l.17-1.57h.39v3.86Z"/>
        <path d="M338.19,209.43c0,.65-.15,1.25-.44,1.79s-.73.97-1.31,1.29c-.58.32-1.28.48-2.11.48s-1.55-.17-2.12-.5c-.57-.34-1.01-.78-1.3-1.32-.29-.55-.44-1.13-.44-1.74s.15-1.23.44-1.77.73-.99,1.3-1.32c.57-.34,1.28-.5,2.12-.5s1.54.17,2.11.5c.58.33,1.02.77,1.31,1.31s.44,1.14.44,1.79ZM337.74,209.43c0-.66-.29-1.18-.87-1.55-.58-.37-1.42-.56-2.53-.56s-1.96.19-2.54.56c-.58.37-.88.89-.88,1.55s.29,1.17.88,1.54c.58.37,1.43.56,2.54.56s1.96-.19,2.53-.56c.58-.37.87-.89.87-1.54Z"/>
        <path d="M333.52,202.12l-.77.35v-.28c-.47-.15-.87-.35-1.21-.59-.34-.25-.6-.53-.79-.84-.19-.31-.28-.63-.28-.96,0-.28.06-.52.17-.73.12-.21.3-.35.55-.41.25,0,.46.06.62.19.16.13.24.32.24.6,0,.19-.05.35-.15.5s-.25.31-.43.48l-.32.32.03-.6c.16.46.42.85.79,1.17.37.32.89.59,1.56.82ZM337.98,203.52c-.23,0-.54-.02-.92-.02-.38,0-.78,0-1.2-.01-.42,0-.78,0-1.09,0h-.91c-.49,0-.91,0-1.26,0-.35,0-.7.02-1.04.04l-.08,1.19h-.35l-.62-2.32.11-.18,1.97-.08h2.17c.31,0,.67,0,1.09,0,.42,0,.82,0,1.2-.01s.69-.01.92-.02v1.44ZM337.98,204.63h-.39l-.17-1.53v-.77l.17-1.57h.39v3.86Z"/>
      </g>
      <g>
        <path d="M381.49,361.09l-6.29-9.21-.03-.03-.38-.56-1.32-.1v-.43h2.66l5.81,8.58-.25.08-.03-4.17v-4.49h.53v10.33h-.71ZM373.5,361.01v-.43l1.47-.18h.34l1.83.18v.43h-3.64ZM374.84,361.01v-9.9h.5l.08,5.67v4.23h-.59ZM379.93,351.2v-.43h3.64v.43l-1.47.17h-.31l-1.86-.17Z"/>
        <path d="M387.35,361.22c-.66,0-1.18-.21-1.55-.62s-.56-1.15-.55-2.19l.04-4.23.34.27-1.46-.22v-.36l2.37-.25.15.15-.07,1.89v2.8c0,.71.12,1.2.35,1.48.23.28.57.42,1.01.42s.83-.12,1.22-.37c.39-.25.74-.58,1.05-1l.36.59h-.45c-.36.49-.77.88-1.23,1.19-.47.31-.99.46-1.58.46ZM390.08,361.15l-.06-1.72h0s.03-5.05.03-5.05l-1.11-.14v-.35l2.35-.28.14.15-.06,1.89v4.87l1.02.1v.39l-2.32.14Z"/>
        <path d="M394.63,361.01c0-.23.02-.54.02-.92s0-.78.01-1.2c0-.42,0-.78,0-1.09v-.92c0-.48,0-.89,0-1.25,0-.35-.02-.71-.04-1.05l-1.19-.07v-.35l2.32-.62.18.11.08,1.58v2.56c0,.31,0,.67,0,1.09,0,.42,0,.82.01,1.2s.01.69.02.92h-1.44ZM393.53,361.01v-.39l1.51-.15h.57l1.47.15v.39h-3.56ZM399.27,361.01c0-.23.02-.54.02-.92,0-.38,0-.78.01-1.2,0-.42,0-.79,0-1.11v-1.65c0-.67-.11-1.15-.32-1.42s-.5-.41-.86-.41-.72.12-1.12.35-.83.61-1.27,1.13l-.11-.55h.18c.44-.57.89-1,1.37-1.3.47-.3.97-.45,1.49-.45.62,0,1.11.21,1.46.62.35.42.52,1.09.52,2.02v1.65c0,.32,0,.69,0,1.11,0,.42,0,.82.01,1.2s.01.68.02.92h-1.41ZM398.18,361.01v-.39l1.47-.15h.6l1.44.15v.39h-3.51ZM403.86,361.01c0-.23.02-.54.02-.92,0-.38,0-.78.01-1.2,0-.42,0-.79,0-1.11v-1.65c0-.69-.1-1.17-.31-1.43-.21-.27-.51-.4-.9-.4-.35,0-.71.11-1.1.32-.39.21-.81.58-1.25,1.1l-.14-.57h.2c.44-.57.89-.99,1.36-1.25.47-.27.95-.4,1.46-.4.67,0,1.18.21,1.53.62.34.42.52,1.09.52,2.04v1.64c0,.32,0,.69,0,1.11,0,.42,0,.82.01,1.2s.01.68.02.92h-1.43ZM402.78,361.01v-.39l1.46-.15h.6l1.46.15v.39h-3.51Z"/>
        <path d="M407.32,361.01v-.39l1.12-.1c0-.27.01-.57.01-.9s0-.65,0-.97c0-.32,0-.61,0-.86v-7.21l-1.19-.07v-.38l2.37-.45.21.13-.04,2.18v2.79l.03.14v4.98l-.21,1.26-2.31-.15ZM412.06,361.22c-.45,0-.89-.11-1.32-.34-.43-.22-.82-.59-1.17-1.09h-.15l.2-.32c.34.37.66.64.98.79.32.15.65.23.99.23.38,0,.73-.1,1.06-.3.32-.2.58-.53.78-1,.2-.47.29-1.1.29-1.9,0-1.05-.2-1.83-.59-2.33-.39-.5-.9-.75-1.51-.75-.21,0-.43.03-.66.09-.22.06-.46.18-.7.35-.24.17-.51.42-.81.75l-.17-.41h.21c.38-.52.81-.9,1.28-1.14.47-.24.95-.36,1.43-.36.58,0,1.09.15,1.53.46s.79.74,1.05,1.31c.26.57.39,1.24.39,2.04s-.13,1.43-.39,2.02-.62,1.06-1.09,1.39-1.01.5-1.62.5Z"/>
        <path d="M420.16,361.22c-.71,0-1.34-.14-1.89-.43s-.98-.72-1.29-1.29-.47-1.28-.47-2.12.16-1.49.49-2.07c.33-.58.76-1.02,1.3-1.34.54-.31,1.12-.47,1.75-.47s1.17.13,1.62.39c.44.26.78.61,1.01,1.06.23.44.34.95.34,1.52,0,.34-.03.62-.08.84h-5.81v-.45h3.92c.26,0,.44-.07.53-.21.09-.14.14-.36.14-.67,0-.61-.15-1.09-.45-1.46-.3-.37-.72-.55-1.26-.55-.38,0-.73.12-1.04.37-.31.25-.56.61-.75,1.09-.19.48-.28,1.07-.28,1.77,0,.76.11,1.38.34,1.87.23.49.54.85.93,1.07.39.22.84.34,1.36.34s.92-.09,1.28-.27c.36-.18.67-.43.95-.76l.24.18c-.3.5-.69.9-1.17,1.18s-1.05.42-1.7.42Z"/>
        <path d="M425.28,361.01c0-.23.02-.54.02-.92s0-.78.01-1.2c0-.42,0-.78,0-1.09v-.91c0-.49,0-.91,0-1.26,0-.35-.02-.7-.04-1.04l-1.19-.08v-.35l2.32-.62.18.11.08,1.97h0v2.17c0,.31,0,.67,0,1.09,0,.42,0,.82.01,1.2s.01.69.02.92h-1.44ZM424.17,361.01v-.39l1.53-.17h.77l1.57.17v.39h-3.86ZM426.68,356.54l-.35-.77h.28c.15-.47.35-.87.59-1.21s.53-.6.84-.79c.31-.19.63-.28.96-.28.28,0,.53.06.74.17.21.12.35.3.41.55,0,.25-.06.46-.19.62-.13.16-.32.24-.59.24-.19,0-.35-.05-.5-.15s-.31-.25-.48-.43l-.32-.32.6.03c-.46.16-.85.42-1.17.79-.32.37-.59.89-.82,1.56Z"/>
        <path d="M438.02,361.22c-.65,0-1.25-.15-1.79-.44-.54-.29-.97-.73-1.29-1.31-.32-.58-.48-1.28-.48-2.11s.17-1.55.5-2.12c.34-.57.78-1.01,1.32-1.3.55-.29,1.13-.44,1.74-.44s1.23.15,1.77.44.99.73,1.32,1.3c.34.57.5,1.28.5,2.12s-.17,1.54-.5,2.11c-.33.58-.77,1.02-1.31,1.31-.54.29-1.14.44-1.79.44ZM438.02,360.77c.66,0,1.18-.29,1.55-.87.37-.58.56-1.42.56-2.53s-.19-1.96-.56-2.54c-.37-.58-.89-.88-1.55-.88s-1.17.29-1.54.88c-.37.58-.56,1.43-.56,2.54s.19,1.96.56,2.53c.37.58.89.87,1.54.87Z"/>
        <path d="M443.94,361.01c.02-.53.03-1.07.04-1.61,0-.54.01-1.08.01-1.61v-3.56h-1.29v-.43l1.78-.15-.5.25v-.1c.06-.9.19-1.61.4-2.14s.5-.97.86-1.32c.32-.29.65-.5.99-.62.34-.13.7-.19,1.05-.19s.67.07.95.2c.28.13.46.33.53.59,0,.19-.08.34-.21.47s-.31.19-.55.19c-.2,0-.38-.06-.55-.17-.17-.11-.36-.29-.55-.53l-.36-.43v-.13h.6v.11c-.26.03-.5.11-.72.26-.22.14-.4.32-.54.54-.15.24-.27.51-.36.81-.09.3-.15.66-.17,1.08-.02.42-.03.93,0,1.53v3.75c0,.53,0,1.07.01,1.61,0,.54.02,1.08.04,1.61h-1.47ZM442.77,361.01v-.39l1.61-.15h.73l1.69.15v.39h-4.03ZM444.68,354.23v-.53h2.76v.53h-2.76Z"/>
        <path d="M452.03,351.2v-.43h2.16v.6h-.17l-1.99-.17ZM452.03,361.01v-.43l1.99-.18h.17v.62h-2.16ZM453.42,361.01c.02-.78.03-1.58.03-2.39,0-.81,0-1.68,0-2.62v-.41c0-.83,0-1.64,0-2.44,0-.8-.02-1.59-.03-2.39h1.53c0,.78-.02,1.58-.02,2.38,0,.8,0,1.62,0,2.45v.41c0,.92,0,1.79,0,2.6,0,.81.01,1.62.02,2.41h-1.53ZM454.19,361.01v-.48h1.79c1.28,0,2.25-.41,2.91-1.24s.99-1.96.99-3.41-.33-2.66-.98-3.45c-.65-.79-1.59-1.18-2.8-1.18h-1.92v-.49h2.1c1.07,0,1.99.2,2.76.61.76.41,1.35.99,1.76,1.75s.61,1.68.61,2.76-.21,1.96-.64,2.73-1.04,1.36-1.83,1.77c-.8.42-1.75.62-2.86.62h-1.89Z"/>
        <path d="M464.75,361.22c-.56,0-1.03-.16-1.4-.48s-.56-.77-.56-1.36c0-.37.08-.7.25-.99.16-.29.44-.55.82-.78s.9-.44,1.54-.62c.38-.11.79-.22,1.23-.34.44-.11.84-.21,1.22-.31v.35c-.37.09-.75.19-1.13.3s-.72.22-1.01.33c-.57.21-.98.47-1.23.78-.25.3-.37.66-.37,1.08s.11.75.34.97c.23.21.53.32.9.32.2,0,.39-.04.59-.11.2-.08.42-.21.67-.41s.55-.48.9-.83l.14.69h-.38c-.28.31-.55.57-.8.78s-.51.37-.78.48c-.27.11-.58.16-.94.16ZM468.53,361.21c-.43,0-.75-.14-.97-.42s-.35-.66-.38-1.15v-3.74c0-.52-.06-.92-.17-1.2-.11-.28-.28-.48-.51-.59-.23-.11-.53-.17-.89-.17-.26,0-.52.03-.79.1-.27.07-.56.19-.88.36l.69-.38-.21,1.11c-.03.29-.11.5-.25.62-.14.12-.3.18-.48.18-.37,0-.6-.18-.69-.55.12-.59.44-1.05.96-1.39.52-.34,1.2-.5,2.05-.5s1.47.2,1.88.6.6,1.05.6,1.95v3.51c0,.4.05.68.15.83s.24.22.41.22c.11,0,.21-.03.31-.08.09-.06.2-.15.32-.29l.22.2c-.15.27-.34.47-.57.59-.23.13-.5.19-.81.19Z"/>
        <path d="M473.34,361.22c-.61,0-1.06-.16-1.36-.47s-.45-.8-.45-1.45c0-.23,0-.44,0-.63,0-.19,0-.41,0-.67v-3.77h-1.34v-.43l1.64-.13-.27.2.49-2.37h.9l-.04,2.42v5.42c0,.42.08.73.25.92.16.19.39.29.69.29.21,0,.38-.03.54-.1s.32-.16.51-.28l.21.25c-.2.26-.44.46-.73.59-.29.14-.64.2-1.05.2ZM472.24,354.23v-.53h2.63v.53h-2.63Z"/>
        <path d="M477.91,361.22c-.56,0-1.03-.16-1.4-.48-.37-.32-.56-.77-.56-1.36,0-.37.08-.7.25-.99.16-.29.44-.55.82-.78s.9-.44,1.54-.62c.38-.11.79-.22,1.23-.34.44-.11.84-.21,1.22-.31v.35c-.37.09-.75.19-1.13.3-.38.11-.72.22-1.01.33-.57.21-.98.47-1.22.78-.25.3-.37.66-.37,1.08s.11.75.34.97.53.32.9.32c.2,0,.39-.04.59-.11.2-.08.42-.21.67-.41s.55-.48.9-.83l.14.69h-.38c-.28.31-.55.57-.8.78s-.51.37-.78.48c-.27.11-.58.16-.94.16ZM481.69,361.21c-.43,0-.75-.14-.97-.42-.22-.28-.35-.66-.39-1.15v-3.74c0-.52-.06-.92-.17-1.2-.11-.28-.28-.48-.51-.59-.23-.11-.53-.17-.89-.17-.26,0-.53.03-.79.1-.27.07-.56.19-.88.36l.69-.38-.21,1.11c-.03.29-.11.5-.25.62-.13.12-.3.18-.48.18-.37,0-.6-.18-.69-.55.12-.59.44-1.05.96-1.39.52-.34,1.2-.5,2.05-.5s1.47.2,1.88.6c.4.4.6,1.05.6,1.95v3.51c0,.4.05.68.15.83.1.15.24.22.41.22.11,0,.21-.03.31-.08.09-.06.2-.15.32-.29l.22.2c-.15.27-.34.47-.57.59s-.5.19-.8.19Z"/>
        <path d="M487.45,351.2v-.43h2.16v.6h-.17l-1.99-.17ZM487.45,361.01v-.43l1.99-.18h.43l2.06.18v.43h-4.48ZM488.84,361.01c.02-.78.03-1.57.04-2.37,0-.79,0-1.59,0-2.38v-.74c0-.8,0-1.6,0-2.39,0-.79-.02-1.58-.04-2.37h1.53c0,.78-.02,1.57-.02,2.37,0,.79,0,1.59,0,2.39v.98c0,.69,0,1.42,0,2.18s.01,1.54.02,2.33h-1.53ZM489.61,356.84v-.48h1.47c.68,0,1.23-.11,1.65-.33.42-.22.73-.53.93-.92.2-.4.3-.85.3-1.35,0-.82-.21-1.44-.63-1.87-.42-.42-1.07-.64-1.95-.64h-1.78v-.49h1.86c1.33,0,2.32.27,2.95.8.63.53.95,1.27.95,2.2,0,.57-.15,1.09-.43,1.55-.29.47-.75.84-1.37,1.11-.62.28-1.44.41-2.44.41h-1.51Z"/>
        <path d="M499.76,361.22c-.65,0-1.25-.15-1.79-.44-.54-.29-.97-.73-1.29-1.31-.32-.58-.48-1.28-.48-2.11s.17-1.55.5-2.12c.34-.57.78-1.01,1.32-1.3.55-.29,1.13-.44,1.74-.44s1.23.15,1.77.44.99.73,1.32,1.3c.34.57.5,1.28.5,2.12s-.17,1.54-.5,2.11c-.33.58-.77,1.02-1.31,1.31s-1.14.44-1.79.44ZM499.76,360.77c.66,0,1.18-.29,1.55-.87.37-.58.56-1.42.56-2.53s-.19-1.96-.56-2.54c-.37-.58-.89-.88-1.55-.88s-1.17.29-1.54.88c-.37.58-.56,1.43-.56,2.54s.19,1.96.56,2.53c.37.58.89.87,1.54.87Z"/>
        <path d="M505.7,361.01c0-.23.02-.54.03-.92,0-.38.02-.78.02-1.2s0-.78,0-1.09v-.9c0-.48,0-.9-.01-1.27,0-.37-.02-.73-.04-1.07l-1.2-.07v-.35l2.48-.6.18.11-.04,2.02v2.13c0,.31,0,.67,0,1.09,0,.42,0,.82.01,1.2s.01.69.02.92h-1.46ZM504.59,361.01v-.39l1.53-.15h.56l1.5.15v.39h-3.58ZM506.33,351.84c-.24,0-.45-.08-.62-.24-.17-.16-.26-.36-.26-.62s.09-.46.26-.62.38-.24.62-.24.45.08.63.24c.18.16.27.36.27.62s-.09.46-.27.62c-.18.16-.39.24-.63.24Z"/>
        <path d="M510.38,361.01c0-.23.02-.54.02-.92,0-.38,0-.78.01-1.2s0-.78,0-1.09v-.91c0-.48,0-.89,0-1.25s-.02-.71-.04-1.04l-1.19-.08v-.35l2.32-.62.18.11.08,1.62h0v2.52c0,.31,0,.67,0,1.09,0,.42,0,.82.01,1.2s.01.69.02.92h-1.44ZM509.28,361.01v-.39l1.51-.15h.57l1.47.15v.39h-3.56ZM515.16,361.01c0-.23.02-.54.02-.92s0-.78.01-1.2c0-.42,0-.79,0-1.11v-1.71c0-.65-.11-1.11-.32-1.38-.21-.27-.52-.4-.91-.4-.31,0-.68.11-1.11.32-.43.21-.89.59-1.37,1.13l-.1-.5h.15c.51-.63,1.02-1.08,1.51-1.35.5-.27.99-.4,1.48-.4.62,0,1.12.21,1.47.62s.53,1.09.53,2.02v1.65c0,.32,0,.69,0,1.11,0,.42.01.82.02,1.2,0,.38.02.68.03.92h-1.44ZM514.07,361.01v-.39l1.48-.15h.59l1.47.15v.39h-3.54Z"/>
        <path d="M521.39,361.22c-.61,0-1.06-.16-1.36-.47s-.45-.8-.45-1.45c0-.23,0-.44,0-.63,0-.19,0-.41,0-.67v-3.77h-1.34v-.43l1.64-.13-.27.2.49-2.37h.9l-.04,2.42v5.42c0,.42.08.73.25.92.16.19.39.29.69.29.21,0,.39-.03.54-.1.15-.07.32-.16.51-.28l.21.25c-.2.26-.44.46-.73.59-.29.14-.64.2-1.05.2ZM520.28,354.23v-.53h2.63v.53h-2.63Z"/>
        <path d="M526.5,361.22c-.48,0-.9-.05-1.28-.15-.38-.1-.76-.25-1.14-.44v-1.71h.67l.36,1.82-.56-.04v-.5c.28.18.56.31.85.41.29.1.63.15,1.03.15.61,0,1.06-.12,1.37-.36.31-.24.46-.56.46-.96,0-.34-.1-.61-.31-.83-.21-.21-.6-.41-1.18-.59l-.74-.27c-.57-.2-1.02-.46-1.37-.79-.34-.33-.51-.77-.51-1.31,0-.62.24-1.13.71-1.55.47-.42,1.15-.62,2.02-.62.44,0,.83.05,1.16.15.34.1.69.26,1.05.48l-.06,1.54h-.6l-.39-1.69.48.11v.45c-.28-.21-.55-.35-.8-.43s-.53-.13-.83-.13c-.51,0-.91.11-1.18.34-.27.23-.41.53-.41.89,0,.32.11.58.33.79.22.21.59.4,1.1.58l.73.25c.72.24,1.23.54,1.53.88.3.35.46.77.46,1.27,0,.43-.11.81-.34,1.15-.23.34-.56.61-1,.8-.44.19-.98.29-1.62.29Z"/>
      </g>
      <g>
        <path d="M389.52,389.15v-.6h2.97v.83h-.23l-2.74-.23ZM389.52,402.67v-.6l2.74-.25h.23v.85h-2.97ZM391.43,402.67c.03-1.09.04-2.19.05-3.3,0-1.11,0-2.23,0-3.36v-.95c0-1.09,0-2.18,0-3.27s-.02-2.17-.05-3.25h2.1c-.04,1.07-.06,2.15-.07,3.24,0,1.09,0,2.21,0,3.36v.39c0,1.35,0,2.6,0,3.75s.03,2.28.07,3.39h-2.1ZM392.49,402.67v-.66h2.59c1.18,0,2.11-.27,2.77-.82s.99-1.33.99-2.36-.33-1.85-.98-2.39c-.66-.54-1.69-.81-3.09-.81h-2.28v-.62h2.08c1.2,0,2.1-.27,2.7-.81.6-.54.91-1.3.91-2.28,0-.85-.25-1.51-.76-1.99-.51-.48-1.36-.71-2.56-.71h-2.37v-.67h2.93c1.09,0,1.98.14,2.67.42.69.28,1.2.68,1.52,1.18.33.5.49,1.08.49,1.74,0,.55-.15,1.07-.43,1.55s-.76.89-1.42,1.23c-.66.33-1.52.56-2.6.67l.08-.19c1.22.06,2.21.26,2.96.58.75.32,1.3.75,1.65,1.28.35.53.52,1.14.52,1.8,0,.5-.1.98-.3,1.44-.2.46-.52.87-.96,1.24-.44.37-1.02.66-1.74.87-.72.21-1.61.32-2.66.32h-2.72Z"/>
        <path d="M404.01,402.67c.01-.32.03-.75.04-1.27s.02-1.08.03-1.66c0-.58,0-1.08,0-1.5v-1.24c0-.66,0-1.24-.02-1.75-.01-.51-.03-1-.06-1.48l-1.66-.1v-.48l3.42-.83.25.15-.06,2.78v2.93c0,.42,0,.93,0,1.5,0,.58.01,1.13.02,1.66,0,.53.02.95.03,1.27h-2.01ZM402.49,402.67v-.54l2.1-.21h.77l2.06.21v.54h-4.94ZM404.88,390.03c-.33,0-.62-.11-.86-.33s-.36-.5-.36-.85.12-.63.36-.85.52-.33.86-.33.62.11.87.33c.25.22.37.5.37.85s-.12.63-.37.85c-.24.22-.53.33-.87.33Z"/>
        <path d="M411.83,402.96c-.77,0-1.42-.22-1.93-.66-.51-.44-.77-1.06-.77-1.87,0-.51.11-.97.34-1.37.22-.4.6-.75,1.13-1.07s1.24-.6,2.12-.86c.53-.15,1.09-.31,1.7-.46.6-.16,1.16-.3,1.68-.42v.48c-.51.13-1.03.27-1.55.42-.52.15-.99.3-1.4.45-.78.3-1.35.65-1.69,1.07-.34.42-.51.92-.51,1.5s.16,1.04.47,1.33.73.44,1.24.44c.27,0,.54-.05.81-.15.27-.1.58-.29.93-.57.35-.28.76-.66,1.23-1.15l.19.95h-.52c-.39.42-.75.78-1.1,1.07-.35.29-.71.51-1.08.66-.37.15-.8.22-1.29.22ZM417.03,402.94c-.59,0-1.04-.19-1.34-.58s-.48-.91-.53-1.58v-5.15c0-.72-.08-1.27-.23-1.66-.15-.39-.39-.66-.7-.81-.32-.15-.72-.23-1.23-.23-.36,0-.72.05-1.09.14-.37.1-.77.26-1.21.49l.95-.52-.29,1.52c-.04.4-.15.68-.34.85-.19.17-.41.25-.67.25-.51,0-.83-.25-.95-.75.17-.81.61-1.45,1.32-1.91s1.66-.7,2.83-.7,2.03.28,2.58.83c.55.55.83,1.45.83,2.68v4.84c0,.55.07.93.2,1.14.14.21.33.31.57.31.15,0,.3-.04.42-.12.13-.08.28-.21.44-.41l.31.27c-.21.37-.47.65-.78.82s-.68.26-1.11.26Z"/>
        <path d="M423.42,402.96c-.66,0-1.25-.07-1.77-.2-.52-.13-1.04-.34-1.57-.61l.02-2.35h.91l.5,2.51-.77-.06v-.69c.39.24.78.43,1.17.57.39.13.86.2,1.42.2.84,0,1.47-.16,1.89-.49.42-.33.64-.77.64-1.32,0-.46-.14-.84-.42-1.14s-.82-.57-1.62-.81l-1.02-.37c-.79-.27-1.41-.63-1.88-1.09-.47-.46-.7-1.06-.7-1.8,0-.85.33-1.56.97-2.13s1.58-.86,2.79-.86c.6,0,1.14.07,1.6.21.46.14.95.36,1.45.66l-.08,2.12h-.83l-.54-2.33.66.15v.62c-.39-.28-.75-.48-1.1-.6-.35-.12-.73-.17-1.14-.17-.71,0-1.25.16-1.62.47-.37.32-.56.72-.56,1.23,0,.44.15.8.45,1.09.3.29.81.56,1.51.8l1,.35c.99.33,1.69.74,2.11,1.21.42.48.63,1.06.63,1.76,0,.59-.16,1.12-.47,1.59-.32.47-.78.84-1.38,1.1-.6.26-1.35.4-2.24.4Z"/>
        <path d="M429.21,397.96v-1.06h5.11v1.06h-5.11Z"/>
        <path d="M433.88,389.15v-.6h5.87v.6l-2.76.23h-.46l-2.64-.23ZM440.19,402.79l-4.98-14.24h2.12l4.17,12.5h-.35l.08-.27,3.94-12.23h.91l-4.8,14.24h-1.08ZM442.79,389.15v-.6h4.73v.58l-2.06.25h-.31l-2.35-.23Z"/>
        <path d="M449.64,402.96c-.77,0-1.42-.22-1.93-.66-.51-.44-.77-1.06-.77-1.87,0-.51.11-.97.34-1.37.22-.4.6-.75,1.13-1.07s1.23-.6,2.12-.86c.53-.15,1.09-.31,1.7-.46.6-.16,1.16-.3,1.68-.42v.48c-.51.13-1.03.27-1.55.42-.52.15-.99.3-1.4.45-.79.3-1.35.65-1.69,1.07-.34.42-.51.92-.51,1.5s.16,1.04.47,1.33c.31.3.73.44,1.24.44.27,0,.54-.05.81-.15.27-.1.58-.29.93-.57.35-.28.76-.66,1.23-1.15l.19.95h-.52c-.39.42-.75.78-1.1,1.07-.35.29-.71.51-1.08.66s-.8.22-1.29.22ZM454.85,402.94c-.59,0-1.04-.19-1.34-.58-.3-.39-.48-.91-.53-1.58v-5.15c0-.72-.08-1.27-.23-1.66-.15-.39-.39-.66-.7-.81s-.72-.23-1.22-.23c-.36,0-.72.05-1.09.14-.37.1-.77.26-1.21.49l.95-.52-.29,1.52c-.04.4-.15.68-.34.85-.19.17-.41.25-.67.25-.51,0-.83-.25-.95-.75.17-.81.61-1.45,1.32-1.91s1.66-.7,2.83-.7,2.03.28,2.59.83c.55.55.83,1.45.83,2.68v4.84c0,.55.07.93.2,1.14s.32.31.57.31c.15,0,.3-.04.42-.12.13-.08.28-.21.44-.41l.31.27c-.21.37-.47.65-.78.82-.32.17-.69.26-1.11.26Z"/>
        <path d="M459.19,402.67c.01-.32.02-.75.03-1.27,0-.53.01-1.08.02-1.66s0-1.08,0-1.5v-1.25c0-.67,0-1.25,0-1.74,0-.49-.02-.96-.05-1.43l-1.64-.12v-.48l3.2-.85.25.15.12,2.72v2.99c0,.42,0,.93,0,1.5,0,.58.01,1.13.02,1.66s.02.95.03,1.27h-1.99ZM457.67,402.67v-.54l2.1-.23h1.06l2.16.23v.54h-5.33ZM461.12,396.52l-.48-1.06h.39c.21-.64.48-1.2.82-1.67s.73-.83,1.16-1.09c.43-.26.87-.39,1.32-.39.39,0,.72.08,1.01.24.29.16.48.42.57.76,0,.35-.09.63-.26.85-.17.22-.45.33-.82.33-.26,0-.49-.07-.69-.21-.21-.14-.42-.34-.66-.6l-.44-.44.83.04c-.63.22-1.17.58-1.61,1.09-.44.51-.82,1.22-1.13,2.15Z"/>
        <path d="M468.36,402.67c.01-.32.03-.75.04-1.27s.02-1.08.03-1.66c0-.58,0-1.08,0-1.5v-1.24c0-.66,0-1.24-.02-1.75-.01-.51-.03-1-.06-1.48l-1.66-.1v-.48l3.42-.83.25.15-.06,2.78v2.93c0,.42,0,.93,0,1.5,0,.58.01,1.13.02,1.66,0,.53.02.95.03,1.27h-2.01ZM466.83,402.67v-.54l2.1-.21h.77l2.06.21v.54h-4.94ZM469.22,390.03c-.33,0-.62-.11-.86-.33s-.36-.5-.36-.85.12-.63.36-.85.52-.33.86-.33.62.11.87.33c.25.22.37.5.37.85s-.12.63-.37.85c-.24.22-.53.33-.87.33Z"/>
        <path d="M476.17,402.96c-.77,0-1.42-.22-1.93-.66-.51-.44-.77-1.06-.77-1.87,0-.51.11-.97.34-1.37.22-.4.6-.75,1.13-1.07s1.24-.6,2.12-.86c.53-.15,1.09-.31,1.7-.46.6-.16,1.16-.3,1.68-.42v.48c-.51.13-1.03.27-1.55.42-.52.15-.99.3-1.4.45-.78.3-1.35.65-1.69,1.07-.34.42-.51.92-.51,1.5s.16,1.04.47,1.33.73.44,1.24.44c.27,0,.54-.05.81-.15.27-.1.58-.29.93-.57.35-.28.76-.66,1.23-1.15l.19.95h-.52c-.39.42-.75.78-1.1,1.07-.35.29-.71.51-1.08.66-.37.15-.8.22-1.29.22ZM481.38,402.94c-.59,0-1.04-.19-1.34-.58s-.48-.91-.53-1.58v-5.15c0-.72-.08-1.27-.23-1.66-.15-.39-.39-.66-.7-.81-.32-.15-.72-.23-1.23-.23-.36,0-.72.05-1.09.14-.37.1-.77.26-1.21.49l.95-.52-.29,1.52c-.04.4-.15.68-.34.85-.19.17-.41.25-.67.25-.51,0-.83-.25-.95-.75.17-.81.61-1.45,1.32-1.91s1.66-.7,2.83-.7,2.03.28,2.58.83c.55.55.83,1.45.83,2.68v4.84c0,.55.07.93.2,1.14.14.21.33.31.57.31.15,0,.3-.04.42-.12.13-.08.28-.21.44-.41l.31.27c-.21.37-.47.65-.78.82s-.68.26-1.11.26Z"/>
        <path d="M485.72,402.67c.01-.32.02-.75.03-1.27,0-.53.01-1.08.02-1.66,0-.58,0-1.08,0-1.5v-1.25c0-.66,0-1.23,0-1.73,0-.49-.02-.97-.05-1.44l-1.64-.12v-.48l3.2-.85.25.15.12,2.24v3.47c0,.42,0,.93,0,1.5,0,.58.01,1.13.02,1.66,0,.53.02.95.03,1.27h-1.99ZM484.2,402.67v-.54l2.08-.21h.79l2.03.21v.54h-4.9ZM492.3,402.67c.01-.32.02-.74.03-1.26,0-.52.01-1.07.02-1.65,0-.58,0-1.09,0-1.52v-2.35c0-.9-.15-1.53-.44-1.9-.3-.37-.71-.55-1.25-.55-.42,0-.93.15-1.52.43s-1.22.81-1.89,1.55l-.13-.69h.21c.71-.87,1.4-1.5,2.08-1.86.68-.37,1.36-.55,2.04-.55.86,0,1.54.29,2.03.86.49.57.73,1.5.73,2.79v2.28c0,.44,0,.95,0,1.52,0,.58.02,1.13.03,1.65.01.52.03.94.04,1.26h-1.99ZM490.79,402.67v-.54l2.05-.21h.81l2.03.21v.54h-4.88Z"/>
        <path d="M502.1,402.96c-.95,0-1.79-.21-2.53-.62-.73-.41-1.31-1-1.74-1.78-.42-.77-.64-1.7-.64-2.8,0-1.17.24-2.16.72-2.97.48-.81,1.12-1.43,1.91-1.85.79-.42,1.64-.64,2.56-.64.6,0,1.16.11,1.67.34.51.23.94.53,1.28.93.35.39.58.85.71,1.38-.14.49-.44.73-.91.73-.3,0-.54-.08-.72-.25-.19-.17-.31-.46-.36-.87l-.44-1.74,1.06.79c-.39-.24-.75-.42-1.09-.52-.34-.1-.68-.15-1.03-.15-.64,0-1.22.18-1.74.55-.51.37-.92.89-1.22,1.57s-.44,1.5-.44,2.47c0,1.39.34,2.47,1.01,3.23.68.77,1.55,1.15,2.63,1.15.57,0,1.1-.12,1.59-.35s.94-.58,1.34-1.04l.33.25c-.44.71-.97,1.25-1.6,1.62-.63.37-1.42.56-2.37.56Z"/>
        <path d="M512.71,402.96c-.98,0-1.85-.2-2.6-.6s-1.35-.99-1.79-1.79c-.43-.79-.65-1.76-.65-2.92s.22-2.06.67-2.86c.45-.8,1.05-1.41,1.79-1.84.75-.43,1.55-.65,2.41-.65s1.62.18,2.23.54,1.07.85,1.39,1.46c.31.61.47,1.31.47,2.09,0,.46-.04.85-.12,1.16h-8.01v-.62h5.4c.36,0,.6-.1.73-.29.13-.19.19-.5.19-.93,0-.84-.21-1.51-.62-2.02-.41-.51-.99-.76-1.74-.76-.53,0-1.01.17-1.44.51-.43.34-.78.84-1.03,1.5-.26.66-.39,1.48-.39,2.44,0,1.04.16,1.9.47,2.58.31.67.74,1.17,1.28,1.48.54.31,1.16.46,1.87.46s1.27-.12,1.77-.37.93-.59,1.3-1.04l.33.25c-.41.69-.95,1.24-1.61,1.62-.66.39-1.44.58-2.34.58Z"/>
      </g>
    </g>
    <g id="_레이어_3" data-name="레이어_3">
      <polygon class="cls-7" points="63.25 177.01 75.81 177.01 83.05 182 91.17 187.28 108.24 196.93 129.4 205.8 152.13 214.35 167.84 217.82 188.31 222.35 205.63 224.9 220.98 226.66 239.18 227.88 264.52 228.66 277.05 228.66 277.05 254.63 256.54 254 242.41 254.39 223.77 255.81 209.83 257.24 195.48 259.21 172.8 263.07 144.63 270.7 120.21 279.79 99.89 289.58 83.59 299.46 70.41 308.52 63.53 314.03 63.25 177.01"/>
      <polygon class="cls-4" points="277.05 255.11 277.05 344.48 63.25 344.48 63.25 314.65 73.74 307.22 89.51 296.85 97.21 292.59 110.24 285.55 124.97 279.09 133.14 275.86 141.89 272.64 154.85 268.48 171.73 264.27 188.55 261.14 214.8 257.39 235.87 255.83 256.48 255.11 277.05 255.11"/>
      <rect class="cls-4" x="343.88" y="241.17" width="213.39" height="103.3"/>
      <polygon class="cls-7" points="355.26 177.3 344.2 177.3 344.2 240.89 557.27 240.89 557.27 228.43 534.28 228.57 513.57 227.65 489.76 225.48 462.96 221.52 441.01 216.86 416.49 209.49 403.63 204.35 389.12 197.73 377.88 192.06 355.26 177.3"/>
      <line class="cls-6" x1="101.78" y1="199.09" x2="101.78" y2="285.92"/>
      <line class="cls-3" x1="101.71" y1="293.91" x2="101.71" y2="344.48"/>
      <line class="cls-6" x1="386.98" y1="196.39" x2="386.98" y2="234.43"/>
      <line class="cls-3" x1="386.98" y1="242.07" x2="386.98" y2="343.41"/>
      <g>
        <path class="cls-9" d="M109.69,241.08c-.62,0-1.12-.07-1.49-.21-.37-.14-.64-.33-.8-.56-.16-.24-.25-.51-.25-.81,0-.36.13-.68.4-.95.27-.27.67-.51,1.19-.71l.06.1c-.29.23-.5.45-.64.64-.14.2-.2.44-.2.73,0,.43.15.76.46.98.31.22.74.34,1.3.34.82,0,1.45-.14,1.87-.43.42-.28.63-.65.63-1.09,0-.25-.09-.47-.28-.67-.18-.2-.52-.29-1.01-.29h-1.44c-.22,0-.41,0-.57-.01-.16,0-.3-.04-.44-.08v-.02c-.63-.17-.95-.53-.95-1.09,0-.26.08-.52.24-.76s.43-.51.82-.79v-.11l.26.13c-.19.21-.33.39-.43.54-.09.15-.14.32-.14.52,0,.21.07.37.21.49s.37.18.7.18h1.76c.52,0,.94.07,1.27.2.33.13.57.32.73.57.16.25.23.54.23.88,0,.38-.13.75-.4,1.1-.27.35-.66.64-1.19.86s-1.17.33-1.93.33ZM109.87,235.83c-.51,0-.95-.09-1.31-.28-.36-.18-.64-.44-.83-.76-.19-.32-.29-.69-.29-1.12,0-.65.21-1.17.64-1.57.43-.4,1.03-.59,1.79-.59.4,0,.75.05,1.06.16.31.11.56.27.76.47l.04.04c.38.36.56.86.56,1.49,0,.42-.1.8-.29,1.12s-.47.57-.83.76c-.36.18-.8.28-1.3.28ZM109.86,235.46c.42,0,.76-.16,1-.49s.37-.76.37-1.3-.12-.98-.37-1.3c-.25-.32-.57-.49-.97-.49-.42,0-.76.16-1,.49s-.37.76-.37,1.31.12.97.36,1.29c.24.32.57.49.98.49ZM111.32,232.3v-.19h.07l1.68-.55.2.13v.71l-1.96-.1Z"/>
        <path class="cls-9" d="M117.18,238.14c-.61,0-1.15-.12-1.62-.37-.47-.25-.84-.62-1.11-1.11s-.4-1.1-.4-1.82.14-1.28.42-1.78c.28-.5.65-.88,1.12-1.15.46-.27.96-.4,1.5-.4s1.01.11,1.39.34c.38.22.67.53.86.91.2.38.29.81.29,1.3,0,.29-.02.53-.07.72h-4.98v-.38h3.36c.22,0,.38-.06.46-.18s.12-.31.12-.58c0-.52-.13-.94-.38-1.25-.26-.32-.62-.47-1.08-.47-.33,0-.63.11-.89.32-.27.21-.48.52-.64.94-.16.41-.24.92-.24,1.52,0,.65.1,1.18.29,1.6.2.42.46.73.8.92.34.19.72.29,1.16.29s.79-.08,1.1-.23c.31-.15.58-.37.81-.65l.2.16c-.26.43-.59.77-1,1.01-.41.24-.9.36-1.46.36Z"/>
        <path class="cls-9" d="M121.57,237.96c0-.2.01-.46.02-.79s0-.67.01-1.03c0-.36,0-.67,0-.94v-.78c0-.41,0-.77,0-1.07,0-.31-.01-.61-.03-.89l-1.02-.07v-.3l1.99-.53.16.1.07,1.39h0v2.16c0,.26,0,.58,0,.94,0,.36,0,.7.01,1.03s0,.59.02.79h-1.24ZM120.62,237.96v-.34l1.3-.13h.49l1.26.13v.34h-3.05ZM125.66,237.96c0-.2.01-.46.02-.79,0-.32,0-.67.01-1.03,0-.36,0-.68,0-.95v-1.46c0-.56-.09-.95-.28-1.18-.18-.23-.44-.34-.78-.34-.26,0-.58.09-.95.27-.37.18-.76.5-1.18.97l-.08-.43h.13c.44-.54.87-.93,1.3-1.16.42-.23.85-.34,1.27-.34.54,0,.96.18,1.26.53.3.36.46.93.46,1.73v1.42c0,.27,0,.59,0,.95,0,.36.01.7.02,1.03s.02.59.02.79h-1.24ZM124.73,237.96v-.34l1.27-.13h.5l1.26.13v.34h-3.04Z"/>
        <path class="cls-9" d="M131.84,238.14c-.61,0-1.15-.12-1.62-.37-.47-.25-.84-.62-1.11-1.11s-.4-1.1-.4-1.82.14-1.28.42-1.78c.28-.5.65-.88,1.12-1.15.46-.27.96-.4,1.5-.4s1.01.11,1.39.34c.38.22.67.53.86.91.2.38.29.81.29,1.3,0,.29-.02.53-.07.72h-4.98v-.38h3.36c.22,0,.38-.06.46-.18s.12-.31.12-.58c0-.52-.13-.94-.38-1.25-.26-.32-.62-.47-1.08-.47-.33,0-.63.11-.89.32-.27.21-.48.52-.64.94-.16.41-.24.92-.24,1.52,0,.65.1,1.18.29,1.6.2.42.46.73.8.92.34.19.72.29,1.16.29s.79-.08,1.1-.23c.31-.15.58-.37.81-.65l.2.16c-.26.43-.59.77-1,1.01-.41.24-.9.36-1.46.36Z"/>
        <path class="cls-9" d="M136.24,237.96c0-.2.01-.46.02-.79s0-.67.01-1.03c0-.36,0-.67,0-.94v-.78c0-.42,0-.78,0-1.08,0-.3-.01-.6-.03-.89l-1.02-.07v-.3l1.99-.53.16.1.07,1.69h0v1.86c0,.26,0,.58,0,.94,0,.36,0,.7.01,1.03s0,.59.02.79h-1.24ZM135.29,237.96v-.34l1.31-.14h.66l1.34.14v.34h-3.31ZM137.44,234.14l-.3-.66h.24c.13-.4.3-.75.51-1.04.21-.29.45-.52.72-.68s.54-.24.82-.24c.24,0,.45.05.63.15s.3.26.35.47c0,.22-.05.39-.16.53s-.28.2-.51.2c-.16,0-.3-.04-.43-.13s-.26-.21-.41-.37l-.28-.28.52.02c-.39.14-.73.36-1,.68s-.51.76-.7,1.34Z"/>
        <path class="cls-9" d="M142.56,238.14c-.48,0-.88-.14-1.2-.41-.32-.27-.48-.66-.48-1.16,0-.32.07-.6.21-.85s.37-.47.7-.67c.33-.2.77-.37,1.32-.53.33-.1.68-.19,1.06-.29.38-.1.72-.18,1.04-.26v.3c-.32.08-.64.17-.97.26-.32.09-.61.19-.87.28-.49.18-.84.41-1.05.67-.21.26-.32.57-.32.93s.1.64.29.83c.2.18.45.28.77.28.17,0,.34-.03.5-.1.17-.06.36-.18.58-.35.22-.17.47-.41.77-.71l.12.59h-.32c-.24.26-.47.49-.68.67-.22.18-.44.32-.67.41s-.5.14-.8.14ZM145.8,238.13c-.37,0-.65-.12-.83-.36-.19-.24-.3-.57-.33-.98v-3.2c0-.45-.05-.79-.14-1.03-.1-.24-.24-.41-.44-.5-.2-.1-.45-.14-.76-.14-.22,0-.45.03-.68.09-.23.06-.48.16-.75.31l.59-.32-.18.95c-.02.25-.09.42-.21.53-.12.1-.25.16-.41.16-.32,0-.52-.16-.59-.47.1-.5.38-.9.82-1.19.44-.29,1.03-.43,1.76-.43s1.26.17,1.61.52c.34.34.52.9.52,1.67v3.01c0,.34.04.58.13.71s.2.19.35.19c.1,0,.18-.02.26-.07s.17-.13.28-.25l.19.17c-.13.23-.29.4-.49.51-.2.11-.43.16-.69.16Z"/>
        <path class="cls-9" d="M147.48,237.96v-.34l1.39-.13h.48l1.42.13v.34h-3.29ZM148.51,237.96c0-.26.01-.55.02-.87,0-.32,0-.64.01-.97,0-.33,0-.64,0-.92v-6.18l-1.02-.06v-.32l2.05-.38.18.11-.04,1.87v4.97c0,.29,0,.6,0,.92,0,.33,0,.65.01.97,0,.32.01.61.02.87h-1.25Z"/>
        <path class="cls-9" d="M152.6,237.96c0-.2.02-.46.02-.79,0-.33.01-.67.02-1.03,0-.36,0-.67,0-.94v-.77c0-.41,0-.77-.01-1.09,0-.32-.02-.62-.04-.92l-1.03-.06v-.3l2.12-.52.16.1-.04,1.73v1.82c0,.26,0,.58,0,.94,0,.36,0,.7.01,1.03,0,.33,0,.59.02.79h-1.25ZM151.66,237.96v-.34l1.31-.13h.48l1.28.13v.34h-3.07ZM153.14,230.1c-.21,0-.39-.07-.53-.2-.15-.14-.22-.31-.22-.53s.07-.39.22-.53c.15-.14.33-.2.53-.2s.39.07.54.2c.15.14.23.31.23.53s-.08.39-.23.53c-.15.14-.33.2-.54.2Z"/>
        <path class="cls-9" d="M155.66,237.96v-.34l3.95-5.77v.34l-.1-.11h-3.23l.38-.23-.46,1.73-.5-.04.1-1.85h4.9v.35l-3.9,5.77.06-.48.02.24h3.32l-.32.2.48-1.85h.52l-.12,2.03h-5.1Z"/>
        <path class="cls-9" d="M163.51,238.14c-.48,0-.88-.14-1.2-.41-.32-.27-.48-.66-.48-1.16,0-.32.07-.6.21-.85s.37-.47.7-.67c.33-.2.77-.37,1.32-.53.33-.1.68-.19,1.06-.29.38-.1.72-.18,1.04-.26v.3c-.32.08-.64.17-.97.26-.32.09-.61.19-.87.28-.49.18-.84.41-1.05.67-.21.26-.32.57-.32.93s.1.64.29.83c.2.18.45.28.77.28.17,0,.34-.03.5-.1.17-.06.36-.18.58-.35.22-.17.47-.41.77-.71l.12.59h-.32c-.24.26-.47.49-.68.67-.22.18-.44.32-.67.41s-.5.14-.8.14ZM166.75,238.13c-.37,0-.65-.12-.83-.36-.19-.24-.3-.57-.33-.98v-3.2c0-.45-.05-.79-.14-1.03-.1-.24-.24-.41-.44-.5-.2-.1-.45-.14-.76-.14-.22,0-.45.03-.68.09-.23.06-.48.16-.75.31l.59-.32-.18.95c-.02.25-.09.42-.21.53-.12.1-.25.16-.41.16-.32,0-.52-.16-.59-.47.1-.5.38-.9.82-1.19.44-.29,1.03-.43,1.76-.43s1.26.17,1.61.52c.34.34.52.9.52,1.67v3.01c0,.34.04.58.13.71s.2.19.35.19c.1,0,.18-.02.26-.07s.17-.13.28-.25l.19.17c-.13.23-.29.4-.49.51-.2.11-.43.16-.69.16Z"/>
        <path class="cls-9" d="M170.88,238.14c-.52,0-.91-.13-1.16-.4-.26-.27-.38-.68-.38-1.24,0-.2,0-.38,0-.54s0-.35,0-.58v-3.23h-1.15v-.37l1.4-.11-.23.17.42-2.03h.77l-.04,2.08v4.64c0,.36.07.62.21.79.14.16.34.25.59.25.18,0,.33-.03.46-.08.13-.06.28-.14.44-.24l.18.22c-.17.22-.38.39-.62.51s-.55.17-.9.17ZM169.93,232.16v-.46h2.26v.46h-2.26Z"/>
        <path class="cls-9" d="M173.98,237.96c0-.2.02-.46.02-.79,0-.33.01-.67.02-1.03,0-.36,0-.67,0-.94v-.77c0-.41,0-.77-.01-1.09,0-.32-.02-.62-.04-.92l-1.03-.06v-.3l2.12-.52.16.1-.04,1.73v1.82c0,.26,0,.58,0,.94,0,.36,0,.7.01,1.03,0,.33,0,.59.02.79h-1.25ZM173.03,237.96v-.34l1.31-.13h.48l1.28.13v.34h-3.07ZM174.52,230.1c-.21,0-.39-.07-.53-.2-.15-.14-.22-.31-.22-.53s.07-.39.22-.53c.15-.14.33-.2.53-.2s.39.07.54.2c.15.14.23.31.23.53s-.08.39-.23.53c-.15.14-.33.2-.54.2Z"/>
        <path class="cls-9" d="M180.18,238.14c-.56,0-1.07-.13-1.54-.38-.46-.25-.83-.63-1.11-1.12-.28-.5-.41-1.1-.41-1.81s.14-1.33.43-1.82.67-.86,1.13-1.12c.47-.25.97-.38,1.49-.38s1.05.13,1.52.38c.47.25.85.62,1.13,1.12.29.49.43,1.1.43,1.82s-.14,1.32-.43,1.81c-.28.5-.66.87-1.12,1.12s-.98.38-1.54.38ZM180.18,237.76c.57,0,1.01-.25,1.33-.74s.48-1.22.48-2.17-.16-1.68-.48-2.18-.76-.75-1.33-.75-1,.25-1.32.75-.48,1.23-.48,2.18.16,1.68.48,2.17.76.74,1.32.74Z"/>
        <path class="cls-9" d="M185.24,237.96c0-.2.01-.46.02-.79s0-.67.01-1.03c0-.36,0-.67,0-.94v-.78c0-.41,0-.77,0-1.07,0-.31-.01-.61-.03-.89l-1.02-.07v-.3l1.99-.53.16.1.07,1.39h0v2.16c0,.26,0,.58,0,.94,0,.36,0,.7.01,1.03s0,.59.02.79h-1.24ZM184.3,237.96v-.34l1.3-.13h.49l1.26.13v.34h-3.05ZM189.34,237.96c0-.2.01-.46.02-.79,0-.32,0-.67.01-1.03,0-.36,0-.68,0-.95v-1.46c0-.56-.09-.95-.28-1.18-.18-.23-.44-.34-.78-.34-.26,0-.58.09-.95.27-.37.18-.76.5-1.18.97l-.08-.43h.13c.44-.54.87-.93,1.3-1.16.42-.23.85-.34,1.27-.34.54,0,.96.18,1.26.53.3.36.46.93.46,1.73v1.42c0,.27,0,.59,0,.95,0,.36.01.7.02,1.03s.02.59.02.79h-1.24ZM188.4,237.96v-.34l1.27-.13h.5l1.26.13v.34h-3.04Z"/>
        <path class="cls-9" d="M198.58,238.14c-.61,0-1.15-.12-1.62-.37-.47-.25-.84-.62-1.11-1.11s-.4-1.1-.4-1.82.14-1.28.42-1.78c.28-.5.65-.88,1.12-1.15.46-.27.96-.4,1.5-.4s1.01.11,1.39.34c.38.22.67.53.86.91.2.38.29.81.29,1.3,0,.29-.02.53-.07.72h-4.98v-.38h3.36c.22,0,.38-.06.46-.18s.12-.31.12-.58c0-.52-.13-.94-.38-1.25-.26-.32-.62-.47-1.08-.47-.33,0-.63.11-.89.32-.27.21-.48.52-.64.94-.16.41-.24.92-.24,1.52,0,.65.1,1.18.29,1.6.2.42.46.73.8.92.34.19.72.29,1.16.29s.79-.08,1.1-.23c.31-.15.58-.37.81-.65l.2.16c-.26.43-.59.77-1,1.01-.41.24-.9.36-1.46.36Z"/>
        <path class="cls-9" d="M202.97,237.96c0-.2.01-.46.02-.79s0-.67.01-1.03c0-.36,0-.67,0-.94v-.78c0-.42,0-.78,0-1.08,0-.3-.01-.6-.03-.89l-1.02-.07v-.3l1.99-.53.16.1.07,1.69h0v1.86c0,.26,0,.58,0,.94,0,.36,0,.7.01,1.03s0,.59.02.79h-1.24ZM202.02,237.96v-.34l1.31-.14h.66l1.34.14v.34h-3.31ZM204.17,234.14l-.3-.66h.24c.13-.4.3-.75.51-1.04.21-.29.45-.52.72-.68s.54-.24.82-.24c.24,0,.45.05.63.15s.3.26.35.47c0,.22-.05.39-.16.53s-.28.2-.51.2c-.16,0-.3-.04-.43-.13s-.26-.21-.41-.37l-.28-.28.52.02c-.39.14-.73.36-1,.68s-.51.76-.7,1.34Z"/>
        <path class="cls-9" d="M208.64,237.96c0-.2.01-.46.02-.79s0-.67.01-1.03c0-.36,0-.67,0-.94v-.78c0-.42,0-.78,0-1.08,0-.3-.01-.6-.03-.89l-1.02-.07v-.3l1.99-.53.16.1.07,1.69h0v1.86c0,.26,0,.58,0,.94,0,.36,0,.7.01,1.03s0,.59.02.79h-1.24ZM207.69,237.96v-.34l1.31-.14h.66l1.34.14v.34h-3.31ZM209.84,234.14l-.3-.66h.24c.13-.4.3-.75.51-1.04.21-.29.45-.52.72-.68s.54-.24.82-.24c.24,0,.45.05.63.15s.3.26.35.47c0,.22-.05.39-.16.53s-.28.2-.51.2c-.16,0-.3-.04-.43-.13s-.26-.21-.41-.37l-.28-.28.52.02c-.39.14-.73.36-1,.68s-.51.76-.7,1.34Z"/>
        <path class="cls-9" d="M216.27,238.14c-.56,0-1.07-.13-1.54-.38-.46-.25-.83-.63-1.11-1.12-.28-.5-.41-1.1-.41-1.81s.14-1.33.43-1.82.67-.86,1.13-1.12c.47-.25.97-.38,1.49-.38s1.05.13,1.52.38c.47.25.85.62,1.13,1.12.29.49.43,1.1.43,1.82s-.14,1.32-.43,1.81c-.28.5-.66.87-1.12,1.12s-.98.38-1.54.38ZM216.27,237.76c.57,0,1.01-.25,1.33-.74s.48-1.22.48-2.17-.16-1.68-.48-2.18-.76-.75-1.33-.75-1,.25-1.32.75-.48,1.23-.48,2.18.16,1.68.48,2.17.76.74,1.32.74Z"/>
        <path class="cls-9" d="M221.34,237.96c0-.2.01-.46.02-.79s0-.67.01-1.03c0-.36,0-.67,0-.94v-.78c0-.42,0-.78,0-1.08,0-.3-.01-.6-.03-.89l-1.02-.07v-.3l1.99-.53.16.1.07,1.69h0v1.86c0,.26,0,.58,0,.94,0,.36,0,.7.01,1.03s0,.59.02.79h-1.24ZM220.39,237.96v-.34l1.31-.14h.66l1.34.14v.34h-3.31ZM222.54,234.14l-.3-.66h.24c.13-.4.3-.75.51-1.04.21-.29.45-.52.72-.68s.54-.24.82-.24c.24,0,.45.05.63.15s.3.26.35.47c0,.22-.05.39-.16.53s-.28.2-.51.2c-.16,0-.3-.04-.43-.13s-.26-.21-.41-.37l-.28-.28.52.02c-.39.14-.73.36-1,.68s-.51.76-.7,1.34Z"/>
      </g>
      <g>
        <path class="cls-10" d="M108.6,327.87c0-.2.02-.46.02-.79,0-.33.01-.67.02-1.03,0-.36,0-.67,0-.94v-.77c0-.41,0-.77-.01-1.09,0-.32-.02-.62-.04-.92l-1.03-.06v-.3l2.12-.52.16.1-.04,1.73v1.82c0,.26,0,.58,0,.94,0,.36,0,.7.01,1.03,0,.33,0,.59.02.79h-1.25ZM107.65,327.87v-.34l1.31-.13h.48l1.28.13v.34h-3.07ZM109.14,320.01c-.21,0-.39-.07-.53-.2-.15-.14-.22-.31-.22-.53s.07-.39.22-.53c.15-.14.33-.2.53-.2s.39.07.54.2c.15.14.23.31.23.53s-.08.39-.23.53c-.15.14-.33.2-.54.2Z"/>
        <path class="cls-10" d="M112.62,327.87c0-.2.01-.46.02-.79s0-.67.01-1.03c0-.36,0-.67,0-.94v-.78c0-.41,0-.77,0-1.07,0-.31-.01-.61-.03-.89l-1.02-.07v-.3l1.99-.53.16.1.07,1.39h0v2.16c0,.26,0,.58,0,.94,0,.36,0,.7.01,1.03s0,.59.02.79h-1.24ZM111.67,327.87v-.34l1.3-.13h.49l1.26.13v.34h-3.05ZM116.71,327.87c0-.2.01-.46.02-.79,0-.32,0-.67.01-1.03,0-.36,0-.68,0-.95v-1.46c0-.56-.09-.95-.28-1.18-.18-.23-.44-.34-.78-.34-.26,0-.58.09-.95.27-.37.18-.76.5-1.18.97l-.08-.43h.13c.44-.54.87-.93,1.3-1.16.42-.23.85-.34,1.27-.34.54,0,.96.18,1.26.53.3.36.46.93.46,1.73v1.42c0,.27,0,.59,0,.95,0,.36.01.7.02,1.03s.02.59.02.79h-1.24ZM115.78,327.87v-.34l1.27-.13h.5l1.26.13v.34h-3.04Z"/>
        <path class="cls-10" d="M119.69,324.94v-.66h3.18v.66h-3.18Z"/>
        <path class="cls-10" d="M126.1,328.05c-.41,0-.77-.04-1.1-.13-.32-.08-.65-.21-.98-.38v-1.46h.58l.31,1.56-.48-.04v-.43c.24.15.48.27.73.35s.54.13.88.13c.52,0,.91-.1,1.18-.31.26-.2.4-.48.4-.82,0-.29-.09-.52-.26-.71-.18-.18-.51-.35-1.01-.5l-.64-.23c-.49-.17-.88-.39-1.17-.68s-.44-.66-.44-1.12c0-.53.2-.97.61-1.33.4-.36.98-.53,1.73-.53.38,0,.71.04,1,.13.29.09.59.22.9.41l-.05,1.32h-.52l-.34-1.45.41.1v.38c-.24-.18-.47-.3-.68-.37-.22-.07-.45-.11-.71-.11-.44,0-.78.1-1.01.29-.23.2-.35.45-.35.76,0,.27.09.5.28.68.19.18.5.35.94.5l.62.22c.62.21,1.05.46,1.31.76.26.3.39.66.39,1.09,0,.37-.1.7-.29.99-.2.29-.48.52-.86.68-.38.16-.84.25-1.39.25Z"/>
        <path class="cls-10" d="M131.4,328.05c-.48,0-.88-.14-1.2-.41-.32-.27-.48-.66-.48-1.16,0-.32.07-.6.21-.85s.37-.47.7-.67c.33-.2.77-.37,1.32-.53.33-.1.68-.19,1.06-.29.38-.1.72-.18,1.04-.26v.3c-.32.08-.64.17-.97.26-.32.09-.61.19-.87.28-.49.18-.84.41-1.05.67-.21.26-.32.57-.32.93s.1.64.29.83c.2.18.45.28.77.28.17,0,.34-.03.5-.1.17-.06.36-.18.58-.35.22-.17.47-.41.77-.71l.12.59h-.32c-.24.26-.47.49-.68.67-.22.18-.44.32-.67.41s-.5.14-.8.14ZM134.64,328.04c-.37,0-.65-.12-.83-.36-.19-.24-.3-.57-.33-.98v-3.2c0-.45-.05-.79-.14-1.03-.1-.24-.24-.41-.44-.5-.2-.1-.45-.14-.76-.14-.22,0-.45.03-.68.09-.23.06-.48.16-.75.31l.59-.32-.18.95c-.02.25-.09.42-.21.53-.12.1-.25.16-.41.16-.32,0-.52-.16-.59-.47.1-.5.38-.9.82-1.19.44-.29,1.03-.43,1.76-.43s1.26.17,1.61.52c.34.34.52.9.52,1.67v3.01c0,.34.04.58.13.71s.2.19.35.19c.1,0,.18-.02.26-.07s.17-.13.28-.25l.19.17c-.13.23-.29.4-.49.51-.2.11-.43.16-.69.16Z"/>
        <path class="cls-10" d="M137.34,327.87c0-.2.01-.46.02-.79s0-.67.01-1.03c0-.36,0-.67,0-.94v-.79c0-.41,0-.76,0-1.07,0-.3-.01-.6-.03-.9l-1.02-.06v-.3l1.99-.53.16.1.07,1.36v2.2c0,.26,0,.58,0,.94,0,.36,0,.7.01,1.03s0,.59.02.79h-1.24ZM136.39,327.87v-.34l1.3-.13h.49l1.26.13v.34h-3.05ZM141.31,327.87c0-.2.01-.46.02-.79s0-.67.01-1.03c0-.36,0-.68,0-.95v-1.42c0-.58-.09-.98-.27-1.22-.18-.24-.43-.35-.74-.35s-.62.1-.96.3c-.34.2-.71.52-1.09.97l-.1-.47h.16c.38-.49.77-.86,1.17-1.12.4-.26.83-.38,1.28-.38.54,0,.95.18,1.25.53.3.36.44.93.44,1.73v1.42c0,.27,0,.59,0,.95,0,.36,0,.7.01,1.03,0,.32,0,.59.02.79h-1.21ZM140.38,327.87v-.34l1.26-.13h.52l1.24.13v.34h-3.01ZM145.25,327.87c0-.2.01-.46.02-.79s0-.67.01-1.03c0-.36,0-.68,0-.95v-1.42c0-.59-.09-1-.27-1.23-.18-.23-.44-.34-.77-.34-.3,0-.61.09-.94.27-.33.18-.69.49-1.07.94l-.12-.49h.17c.38-.49.76-.85,1.16-1.07.4-.23.82-.34,1.25-.34.58,0,1.01.18,1.31.53.3.36.44.94.44,1.75v1.4c0,.27,0,.59,0,.95,0,.36,0,.7.01,1.03s0,.59.02.79h-1.22ZM144.32,327.87v-.34l1.25-.13h.52l1.25.13v.34h-3.01Z"/>
        <path class="cls-10" d="M149.02,330.99c0-.3.01-.61.02-.94,0-.33,0-.66.01-.99,0-.33,0-.64,0-.92v-3.79c0-.41,0-.77,0-1.09,0-.32-.01-.62-.03-.91l-1.03-.07v-.3l1.98-.53.16.1.08,1v.07s.01,4.31.01,4.31v.13s-.01,1.08-.01,1.08c0,.27,0,.57,0,.91s0,.66.01,1c0,.33,0,.65.02.94h-1.22ZM148.03,330.99v-.34l1.33-.12h.6l1.38.12v.34h-3.31ZM152.06,328.05c-.37,0-.73-.08-1.09-.25-.36-.16-.68-.46-.98-.88h-.16l.18-.29c.28.3.55.51.81.62.26.11.55.17.87.17s.64-.09.92-.26.5-.46.66-.86c.16-.4.25-.93.25-1.58,0-.93-.16-1.61-.49-2.03-.32-.43-.75-.64-1.29-.64-.28,0-.56.07-.85.2-.28.13-.59.39-.93.77l-.14-.29h.12c.31-.46.67-.79,1.07-.99.4-.2.81-.31,1.22-.31.5,0,.93.13,1.31.4s.68.64.9,1.12c.22.48.34,1.07.34,1.75s-.12,1.28-.36,1.79c-.24.5-.56.89-.97,1.16-.41.27-.87.41-1.39.41Z"/>
        <path class="cls-10" d="M155.71,327.87v-.34l1.39-.13h.48l1.42.13v.34h-3.29ZM156.74,327.87c0-.26.01-.55.02-.87,0-.32,0-.64.01-.97,0-.33,0-.64,0-.92v-6.18l-1.02-.06v-.32l2.05-.38.18.11-.04,1.87v4.97c0,.29,0,.6,0,.92,0,.33,0,.65.01.97,0,.32.01.61.02.87h-1.25Z"/>
        <path class="cls-10" d="M163.07,328.05c-.61,0-1.15-.12-1.62-.37-.47-.25-.84-.62-1.11-1.11s-.4-1.1-.4-1.82.14-1.28.42-1.78c.28-.5.65-.88,1.12-1.15.46-.27.96-.4,1.5-.4s1.01.11,1.39.34c.38.22.67.53.86.91.2.38.29.81.29,1.3,0,.29-.02.53-.07.72h-4.98v-.38h3.36c.22,0,.38-.06.46-.18s.12-.31.12-.58c0-.52-.13-.94-.38-1.25-.26-.32-.62-.47-1.08-.47-.33,0-.63.11-.89.32-.27.21-.48.52-.64.94-.16.41-.24.92-.24,1.52,0,.65.1,1.18.29,1.6.2.42.46.73.8.92.34.19.72.29,1.16.29s.79-.08,1.1-.23c.31-.15.58-.37.81-.65l.2.16c-.26.43-.59.77-1,1.01-.41.24-.9.36-1.46.36Z"/>
        <path class="cls-10" d="M172.78,328.05c-.61,0-1.15-.12-1.62-.37-.47-.25-.84-.62-1.11-1.11s-.4-1.1-.4-1.82.14-1.28.42-1.78c.28-.5.65-.88,1.12-1.15.46-.27.96-.4,1.5-.4s1.01.11,1.39.34c.38.22.67.53.86.91.2.38.29.81.29,1.3,0,.29-.02.53-.07.72h-4.98v-.38h3.36c.22,0,.38-.06.46-.18s.12-.31.12-.58c0-.52-.13-.94-.38-1.25-.26-.32-.62-.47-1.08-.47-.33,0-.63.11-.89.32-.27.21-.48.52-.64.94-.16.41-.24.92-.24,1.52,0,.65.1,1.18.29,1.6.2.42.46.73.8.92.34.19.72.29,1.16.29s.79-.08,1.1-.23c.31-.15.58-.37.81-.65l.2.16c-.26.43-.59.77-1,1.01-.41.24-.9.36-1.46.36Z"/>
        <path class="cls-10" d="M177.17,327.87c0-.2.01-.46.02-.79s0-.67.01-1.03c0-.36,0-.67,0-.94v-.78c0-.42,0-.78,0-1.08,0-.3-.01-.6-.03-.89l-1.02-.07v-.3l1.99-.53.16.1.07,1.69h0v1.86c0,.26,0,.58,0,.94,0,.36,0,.7.01,1.03s0,.59.02.79h-1.24ZM176.22,327.87v-.34l1.31-.14h.66l1.34.14v.34h-3.31ZM178.37,324.04l-.3-.66h.24c.13-.4.3-.75.51-1.04.21-.29.45-.52.72-.68s.54-.24.82-.24c.24,0,.45.05.63.15s.3.26.35.47c0,.22-.05.39-.16.53s-.28.2-.51.2c-.16,0-.3-.04-.43-.13s-.26-.21-.41-.37l-.28-.28.52.02c-.39.14-.73.36-1,.68s-.51.76-.7,1.34Z"/>
        <path class="cls-10" d="M182.84,327.87c0-.2.01-.46.02-.79s0-.67.01-1.03c0-.36,0-.67,0-.94v-.78c0-.42,0-.78,0-1.08,0-.3-.01-.6-.03-.89l-1.02-.07v-.3l1.99-.53.16.1.07,1.69h0v1.86c0,.26,0,.58,0,.94,0,.36,0,.7.01,1.03s0,.59.02.79h-1.24ZM181.9,327.87v-.34l1.31-.14h.66l1.34.14v.34h-3.31ZM184.04,324.04l-.3-.66h.24c.13-.4.3-.75.51-1.04.21-.29.45-.52.72-.68s.54-.24.82-.24c.24,0,.45.05.63.15s.3.26.35.47c0,.22-.05.39-.16.53s-.28.2-.51.2c-.16,0-.3-.04-.43-.13s-.26-.21-.41-.37l-.28-.28.52.02c-.39.14-.73.36-1,.68s-.51.76-.7,1.34Z"/>
        <path class="cls-10" d="M190.48,328.05c-.56,0-1.07-.13-1.54-.38-.46-.25-.83-.63-1.11-1.12-.28-.5-.41-1.1-.41-1.81s.14-1.33.43-1.82.67-.86,1.13-1.12c.47-.25.97-.38,1.49-.38s1.05.13,1.52.38c.47.25.85.62,1.13,1.12.29.49.43,1.1.43,1.82s-.14,1.32-.43,1.81c-.28.5-.66.87-1.12,1.12s-.98.38-1.54.38ZM190.48,327.67c.57,0,1.01-.25,1.33-.74s.48-1.22.48-2.17-.16-1.68-.48-2.18-.76-.75-1.33-.75-1,.25-1.32.75-.48,1.23-.48,2.18.16,1.68.48,2.17.76.74,1.32.74Z"/>
        <path class="cls-10" d="M195.54,327.87c0-.2.01-.46.02-.79s0-.67.01-1.03c0-.36,0-.67,0-.94v-.78c0-.42,0-.78,0-1.08,0-.3-.01-.6-.03-.89l-1.02-.07v-.3l1.99-.53.16.1.07,1.69h0v1.86c0,.26,0,.58,0,.94,0,.36,0,.7.01,1.03s0,.59.02.79h-1.24ZM194.59,327.87v-.34l1.31-.14h.66l1.34.14v.34h-3.31ZM196.74,324.04l-.3-.66h.24c.13-.4.3-.75.51-1.04.21-.29.45-.52.72-.68s.54-.24.82-.24c.24,0,.45.05.63.15s.3.26.35.47c0,.22-.05.39-.16.53s-.28.2-.51.2c-.16,0-.3-.04-.43-.13s-.26-.21-.41-.37l-.28-.28.52.02c-.39.14-.73.36-1,.68s-.51.76-.7,1.34Z"/>
      </g>
      <g>
        <path class="cls-9" d="M394.29,226.97v-.36h3.12v.36l-1.3.12h-.64l-1.19-.12ZM397.44,232.94l-2.54-6.32h1.31l2,5.38h-.22l.06-.16,1.81-5.22h.49l-2.38,6.32h-.54ZM398.67,226.97v-.36h2.35v.36l-.97.12h-.22l-1.16-.12Z"/>
        <path class="cls-9" d="M403.14,233.06c-.48,0-.88-.14-1.2-.41-.32-.27-.48-.66-.48-1.16,0-.32.07-.6.21-.85.14-.25.37-.47.7-.67.33-.2.77-.37,1.32-.53.33-.1.68-.19,1.06-.29.38-.1.72-.18,1.04-.26v.3c-.32.08-.64.17-.97.26-.32.09-.61.19-.87.28-.49.18-.84.41-1.05.67-.21.26-.32.57-.32.93s.1.64.29.83c.2.18.45.28.77.28.17,0,.34-.03.5-.1.17-.06.36-.18.58-.35.22-.17.47-.41.77-.71l.12.59h-.32c-.24.26-.47.49-.68.67-.22.18-.44.32-.67.41-.23.09-.5.14-.8.14ZM406.38,233.04c-.37,0-.65-.12-.83-.36-.19-.24-.3-.57-.33-.98v-3.2c0-.45-.05-.79-.14-1.03-.1-.24-.24-.41-.44-.5s-.45-.14-.76-.14c-.22,0-.45.03-.68.09-.23.06-.48.16-.75.31l.59-.32-.18.95c-.02.25-.09.42-.21.53-.12.1-.25.16-.41.16-.32,0-.52-.16-.59-.47.1-.5.38-.9.82-1.19s1.03-.43,1.76-.43,1.26.17,1.61.52c.34.34.52.9.52,1.67v3.01c0,.34.04.58.13.71s.2.19.35.19c.1,0,.18-.02.26-.07s.17-.13.28-.25l.19.17c-.13.23-.29.4-.49.51-.2.11-.43.16-.69.16Z"/>
        <path class="cls-9" d="M409.08,232.88c0-.2.01-.46.02-.79s0-.67.01-1.03c0-.36,0-.67,0-.94v-.78c0-.42,0-.78,0-1.08,0-.3-.01-.6-.03-.89l-1.02-.07v-.3l1.99-.53.16.1.07,1.69h0v1.86c0,.26,0,.58,0,.94,0,.36,0,.7.01,1.03s0,.59.02.79h-1.24ZM408.13,232.88v-.34l1.31-.14h.66l1.34.14v.34h-3.31ZM410.28,229.05l-.3-.66h.24c.13-.4.3-.75.51-1.04.21-.29.45-.52.72-.68.27-.16.54-.24.82-.24.24,0,.45.05.63.15.18.1.3.26.35.47,0,.22-.05.39-.16.53-.11.14-.28.2-.51.2-.16,0-.3-.04-.43-.13s-.26-.21-.41-.37l-.28-.28.52.02c-.39.14-.73.36-1,.68-.28.32-.51.76-.7,1.34Z"/>
        <path class="cls-9" d="M414.78,232.88c0-.2.02-.46.02-.79,0-.33.01-.67.02-1.03,0-.36,0-.67,0-.94v-.77c0-.41,0-.77-.01-1.09,0-.32-.02-.62-.04-.92l-1.03-.06v-.3l2.12-.52.16.1-.04,1.73v1.82c0,.26,0,.58,0,.94,0,.36,0,.7.01,1.03,0,.33,0,.59.02.79h-1.25ZM413.83,232.88v-.34l1.31-.13h.48l1.28.13v.34h-3.07ZM415.32,225.02c-.21,0-.39-.07-.53-.2-.15-.14-.22-.31-.22-.53s.07-.39.22-.53c.15-.14.33-.2.53-.2s.39.07.54.2c.15.14.23.31.23.53s-.08.39-.23.53c-.15.14-.33.2-.54.2Z"/>
        <path class="cls-9" d="M419.64,233.06c-.48,0-.88-.14-1.2-.41-.32-.27-.48-.66-.48-1.16,0-.32.07-.6.21-.85.14-.25.37-.47.7-.67.33-.2.77-.37,1.32-.53.33-.1.68-.19,1.06-.29.38-.1.72-.18,1.04-.26v.3c-.32.08-.64.17-.97.26-.32.09-.61.19-.87.28-.49.18-.84.41-1.05.67-.21.26-.32.57-.32.93s.1.64.29.83c.2.18.45.28.77.28.17,0,.34-.03.5-.1.17-.06.36-.18.58-.35.22-.17.47-.41.77-.71l.12.59h-.32c-.24.26-.47.49-.68.67-.22.18-.44.32-.67.41-.23.09-.5.14-.8.14ZM422.88,233.04c-.37,0-.65-.12-.83-.36-.19-.24-.3-.57-.33-.98v-3.2c0-.45-.05-.79-.14-1.03s-.24-.41-.44-.5c-.2-.1-.45-.14-.76-.14-.22,0-.45.03-.68.09-.23.06-.48.16-.75.31l.59-.32-.18.95c-.02.25-.09.42-.21.53-.12.1-.25.16-.41.16-.32,0-.52-.16-.59-.47.1-.5.38-.9.82-1.19.44-.29,1.03-.43,1.76-.43s1.26.17,1.61.52.52.9.52,1.67v3.01c0,.34.04.58.13.71s.2.19.35.19c.1,0,.18-.02.26-.07s.17-.13.28-.25l.19.17c-.13.23-.29.4-.49.51-.2.11-.43.16-.69.16Z"/>
        <path class="cls-9" d="M425.58,232.88c0-.2.01-.46.02-.79s0-.67.01-1.03c0-.36,0-.67,0-.94v-.78c0-.41,0-.77,0-1.07,0-.31-.01-.61-.03-.89l-1.02-.07v-.3l1.99-.53.16.1.07,1.39h0v2.16c0,.26,0,.58,0,.94,0,.36,0,.7.01,1.03s0,.59.02.79h-1.24ZM424.63,232.88v-.34l1.3-.13h.49l1.26.13v.34h-3.05ZM429.67,232.88c0-.2.01-.46.02-.79,0-.32,0-.67.01-1.03,0-.36,0-.68,0-.95v-1.46c0-.56-.09-.95-.28-1.18-.18-.23-.44-.34-.78-.34-.26,0-.58.09-.95.27-.37.18-.76.5-1.18.97l-.08-.43h.13c.44-.54.87-.93,1.3-1.16.42-.23.85-.34,1.27-.34.54,0,.96.18,1.26.53.3.36.46.93.46,1.73v1.42c0,.27,0,.59,0,.95,0,.36,0,.7.02,1.03s.02.59.02.79h-1.24ZM428.73,232.88v-.34l1.27-.13h.5l1.26.13v.34h-3.04Z"/>
        <path class="cls-9" d="M435.77,233.06c-.59,0-1.12-.13-1.57-.38s-.82-.62-1.08-1.1c-.26-.48-.4-1.06-.4-1.74,0-.73.15-1.34.45-1.85.3-.5.7-.89,1.19-1.15s1.02-.4,1.59-.4c.38,0,.72.07,1.04.21.32.14.58.33.8.58s.36.53.44.86c-.09.3-.28.46-.56.46-.18,0-.33-.05-.45-.16-.12-.1-.19-.28-.22-.54l-.28-1.08.66.49c-.24-.15-.47-.26-.68-.32-.21-.06-.43-.1-.64-.1-.4,0-.76.11-1.08.34-.32.23-.57.55-.76.98-.18.42-.28.94-.28,1.54,0,.86.21,1.53.63,2.01.42.48.97.71,1.64.71.35,0,.68-.07.99-.22.31-.14.59-.36.83-.65l.2.16c-.27.44-.6.78-1,1.01-.39.23-.88.35-1.48.35Z"/>
        <path class="cls-9" d="M442.37,233.06c-.61,0-1.15-.12-1.62-.37-.47-.25-.84-.62-1.11-1.11-.27-.49-.4-1.1-.4-1.82s.14-1.28.42-1.78c.28-.5.65-.88,1.12-1.15.46-.27.96-.4,1.5-.4s1.01.11,1.39.34c.38.22.67.53.86.91.2.38.29.81.29,1.3,0,.29-.02.53-.07.72h-4.98v-.38h3.36c.22,0,.38-.06.46-.18s.12-.31.12-.58c0-.52-.13-.94-.38-1.25-.26-.32-.62-.47-1.08-.47-.33,0-.63.11-.89.32-.27.21-.48.52-.64.94-.16.41-.24.92-.24,1.52,0,.65.1,1.18.29,1.6s.46.73.8.92c.34.19.72.29,1.16.29s.79-.08,1.1-.23c.31-.15.58-.37.81-.65l.2.16c-.26.43-.59.77-1,1.01-.41.24-.9.36-1.46.36Z"/>
      </g>
      <g>
        <path class="cls-10" d="M393.21,326.31v-.34l.96-.08c0-.23.01-.49.01-.77s0-.56,0-.83c0-.28,0-.52,0-.74v-6.18l-1.02-.06v-.32l2.03-.38.18.11-.04,1.87v2.39l.02.12v4.27l-.18,1.08-1.98-.13ZM397.28,326.49c-.38,0-.76-.1-1.13-.29-.37-.19-.71-.5-1-.94h-.13l.17-.28c.29.32.57.55.84.68.27.13.56.2.85.2.33,0,.63-.09.91-.26.28-.17.5-.46.67-.86.17-.4.25-.94.25-1.63,0-.9-.17-1.57-.5-2-.34-.43-.77-.64-1.3-.64-.18,0-.37.03-.56.08s-.39.15-.6.3c-.21.15-.44.36-.7.64l-.14-.35h.18c.33-.45.69-.77,1.1-.98s.81-.31,1.23-.31c.5,0,.93.13,1.31.4s.68.64.9,1.12c.22.48.33,1.07.33,1.75s-.11,1.23-.34,1.73c-.22.51-.54.91-.94,1.19s-.86.43-1.39.43Z"/>
        <path class="cls-10" d="M401.95,326.31c0-.2.02-.46.02-.79s.01-.67.02-1.03c0-.36,0-.67,0-.94v-.77c0-.41,0-.77-.01-1.09,0-.32-.02-.62-.04-.92l-1.03-.06v-.3l2.12-.52.16.1-.04,1.73v1.82c0,.26,0,.58,0,.94,0,.36,0,.7.01,1.03s0,.59.02.79h-1.25ZM401,326.31v-.34l1.31-.13h.48l1.28.13v.34h-3.07ZM402.49,318.45c-.21,0-.39-.07-.53-.2-.15-.14-.22-.31-.22-.53s.07-.39.22-.53c.15-.14.33-.2.53-.2s.39.07.54.2c.15.14.23.31.23.53s-.08.39-.23.53c-.15.14-.33.2-.54.2Z"/>
        <path class="cls-10" d="M406.8,326.49c-.48,0-.88-.14-1.2-.41-.32-.27-.48-.66-.48-1.16,0-.32.07-.6.21-.85.14-.25.37-.47.7-.67.33-.2.77-.37,1.32-.53.33-.1.68-.19,1.06-.29.38-.1.72-.18,1.04-.26v.3c-.32.08-.64.17-.97.26-.32.09-.61.19-.87.28-.49.18-.84.41-1.05.67-.21.26-.32.57-.32.93s.1.64.29.83c.2.18.45.28.77.28.17,0,.34-.03.5-.1.17-.06.36-.18.58-.35.22-.17.47-.41.77-.71l.12.59h-.32c-.24.26-.47.49-.68.67-.22.18-.44.32-.67.41-.23.09-.5.14-.8.14ZM410.04,326.48c-.37,0-.65-.12-.83-.36-.19-.24-.3-.57-.33-.98v-3.2c0-.45-.05-.79-.14-1.03-.1-.24-.24-.41-.44-.5s-.45-.14-.76-.14c-.22,0-.45.03-.68.09-.23.06-.48.16-.75.31l.59-.32-.18.95c-.02.25-.09.42-.21.53-.12.1-.25.16-.41.16-.32,0-.52-.16-.59-.47.1-.5.38-.9.82-1.19s1.03-.43,1.76-.43,1.26.17,1.61.52c.34.34.52.9.52,1.67v3.01c0,.34.04.58.13.71s.2.19.35.19c.1,0,.18-.02.26-.07s.17-.13.28-.25l.19.17c-.13.23-.29.4-.49.51-.2.11-.43.16-.69.16Z"/>
        <path class="cls-10" d="M414.02,326.49c-.41,0-.77-.04-1.1-.13-.32-.08-.65-.21-.98-.38v-1.46h.58l.31,1.56-.48-.04v-.43c.24.15.48.27.73.35s.54.13.88.13c.52,0,.91-.1,1.18-.31.26-.2.4-.48.4-.82,0-.29-.09-.52-.26-.71-.18-.18-.51-.35-1.01-.5l-.64-.23c-.49-.17-.88-.39-1.17-.68s-.44-.66-.44-1.12c0-.53.2-.97.61-1.33.4-.36.98-.53,1.73-.53.38,0,.71.04,1,.13.29.09.59.22.9.41l-.05,1.32h-.52l-.34-1.45.41.1v.38c-.24-.18-.47-.3-.68-.37-.22-.07-.45-.11-.71-.11-.44,0-.78.1-1.01.29-.23.2-.35.45-.35.76,0,.27.09.5.28.68.19.18.5.35.94.5l.62.22c.62.21,1.05.46,1.31.76.26.3.39.66.39,1.09,0,.37-.1.7-.29.99s-.48.52-.86.68c-.38.16-.84.25-1.39.25Z"/>
      </g>
    </g>
  </g>
</svg>