<?xml version="1.0" encoding="UTF-8"?>
<svg xmlns="http://www.w3.org/2000/svg" version="1.1" viewBox="0 0 600 600">
  <defs>
    <style>
      .cls-1 {
        stroke: #3000f4;
      }

      .cls-1, .cls-2, .cls-3 {
        fill: none;
        stroke-miterlimit: 10;
        stroke-width: 2px;
      }

      .cls-2 {
        stroke: #e90069;
      }

      .cls-3 {
        stroke: #000;
      }
    </style>
  </defs>
  <!-- Generator: Adobe Illustrator 28.7.1, SVG Export Plug-In . SVG Version: 1.2.0 Build 142)  -->
  <g>
    <g id="_레이어_1" data-name="레이어_1">
      <rect class="cls-3" x="69.33" y="221.78" width="216.61" height="172"/>
      <rect class="cls-3" x="323.07" y="221.78" width="216.61" height="172"/>
      <circle class="cls-1" cx="177.64" cy="307.78" r="6.81"/>
      <circle class="cls-1" cx="377.85" cy="350.04" r="6.81"/>
      <circle class="cls-1" cx="431.37" cy="264.83" r="6.81"/>
      <circle class="cls-1" cx="485.31" cy="307.78" r="6.81"/>
      <line class="cls-2" x1="118.88" y1="345.71" x2="130.12" y2="354.91"/>
      <line class="cls-2" x1="118.88" y1="355.55" x2="128.97" y2="344.95"/>
      <line class="cls-2" x1="227.02" y1="260.44" x2="237.49" y2="270.57"/>
      <line class="cls-2" x1="226.51" y1="270.91" x2="237.07" y2="260.44"/>
      <g>
        <path d="M171.1,419.94l.19.8c.18.73.35,1.37.53,1.91s.62,1.81,1.33,3.79c.07-.25.21-.81.41-1.67.26-1.12.44-1.83.53-2.11.25-.84.5-1.46.74-1.86s.5-.68.79-.85.62-.26.99-.26c.3,0,.52.06.68.17.16.11.24.25.24.41,0,.11-.04.21-.13.3-.08.09-.18.13-.3.13-.08,0-.18-.02-.29-.07-.23-.09-.37-.14-.41-.16-.08-.02-.17-.03-.27-.03-.22,0-.42.08-.57.23-.28.26-.59.93-.93,1.99s-.77,2.76-1.3,5.09l-.23,1.02c-.52-1.14-.87-1.96-1.05-2.43-.25-.64-.53-1.45-.84-2.43l-.75-2.37c-.09.55-.3,1.47-.64,2.76-.33,1.3-.53,2.04-.6,2.24-.21.62-.43,1.09-.67,1.42-.24.33-.5.57-.79.72-.29.15-.6.23-.94.23-.43,0-.78-.1-1.05-.29-.21-.14-.31-.32-.31-.54,0-.1.04-.18.12-.26.08-.07.17-.11.28-.11.14,0,.29.08.46.23.29.27.56.4.8.4.26,0,.51-.12.77-.35.37-.36.73-1.1,1.08-2.24.42-1.37.82-3.11,1.21-5.22-.16,0-.46.05-.92.14s-.83.22-1.13.39c-.3.17-.54.38-.7.65-.16.27-.24.54-.24.84,0,.15.02.29.06.44.03.1.09.22.18.37.1.17.16.3.16.38,0,.11-.04.2-.12.28-.08.08-.18.12-.3.12-.17,0-.32-.09-.44-.27-.12-.18-.18-.46-.18-.82,0-.61.15-1.13.46-1.56.31-.43.72-.75,1.23-.97.33-.14.96-.27,1.9-.4.35-.05.67-.1.98-.18Z"/>
        <path d="M182.57,422.6v.77h-6.05v-.77h6.05ZM182.57,424.94v.77h-6.05v-.77h6.05Z"/>
        <path d="M184.84,421.58l-.28-.2c.46-.53.81-.86,1.03-1,.4-.25.8-.38,1.21-.38s.75.11.99.32.36.49.36.83c0,.71-.54,1.46-1.61,2.26.37.02.65.08.84.2s.35.29.47.52c.12.23.18.51.18.84,0,.88-.44,1.7-1.33,2.45-.76.65-1.54.97-2.34.97-.36,0-.68-.08-.97-.25-.29-.16-.43-.37-.43-.61,0-.1.04-.19.11-.26.07-.08.16-.11.26-.11.14,0,.29.08.47.25.23.22.41.36.52.42.16.08.3.12.42.12.36,0,.75-.21,1.19-.63.65-.61.97-1.29.97-2.02,0-.37-.1-.66-.3-.89-.2-.22-.46-.33-.78-.33-.23,0-.5.05-.79.16l.05-.42c.58-.21,1.11-.57,1.57-1.09.33-.36.49-.73.49-1.11,0-.28-.07-.5-.21-.66-.14-.16-.34-.24-.58-.24-.52,0-1.01.29-1.48.87Z"/>
      </g>
      <g>
        <path d="M430.81,416.01l.19.8c.18.73.35,1.37.53,1.91s.62,1.81,1.33,3.79c.07-.25.21-.81.41-1.67.26-1.12.44-1.83.53-2.11.25-.84.5-1.46.74-1.86s.5-.68.79-.85.62-.26.99-.26c.3,0,.52.06.68.17.16.11.24.25.24.41,0,.11-.04.21-.13.3-.08.09-.18.13-.3.13-.08,0-.18-.02-.29-.07-.23-.09-.37-.14-.41-.16-.08-.02-.17-.03-.27-.03-.22,0-.42.08-.57.23-.28.26-.59.93-.93,1.99s-.77,2.76-1.3,5.09l-.23,1.02c-.52-1.14-.87-1.96-1.05-2.43-.25-.64-.53-1.45-.84-2.43l-.75-2.37c-.09.55-.3,1.47-.64,2.76-.33,1.3-.53,2.04-.6,2.24-.21.62-.43,1.09-.67,1.42-.24.33-.5.57-.79.72-.29.15-.6.23-.94.23-.43,0-.78-.1-1.05-.29-.21-.14-.31-.32-.31-.54,0-.1.04-.18.12-.26.08-.07.17-.11.28-.11.14,0,.29.08.46.23.29.27.56.4.8.4.26,0,.51-.12.77-.35.37-.36.73-1.1,1.08-2.24.42-1.37.82-3.11,1.21-5.22-.16,0-.46.05-.92.14s-.83.22-1.13.39c-.3.17-.54.38-.7.65-.16.27-.24.54-.24.84,0,.15.02.29.06.44.03.1.09.22.18.37.1.17.16.3.16.38,0,.11-.04.2-.12.28-.08.08-.18.12-.3.12-.17,0-.32-.09-.44-.27-.12-.18-.18-.46-.18-.82,0-.61.15-1.13.46-1.56.31-.43.72-.75,1.23-.97.33-.14.96-.27,1.9-.4.35-.05.67-.1.98-.18Z"/>
        <path d="M442.29,418.67v.77h-6.05v-.77h6.05ZM442.29,421.01v.77h-6.05v-.77h6.05Z"/>
        <path d="M444.55,417.65l-.28-.2c.46-.53.81-.86,1.03-1,.4-.25.8-.38,1.21-.38s.75.11.99.32.36.49.36.83c0,.71-.54,1.46-1.61,2.26.37.02.65.08.84.2s.35.29.47.52c.12.23.18.51.18.84,0,.88-.44,1.7-1.33,2.45-.76.65-1.54.97-2.34.97-.36,0-.68-.08-.97-.25-.29-.16-.43-.37-.43-.61,0-.1.04-.19.11-.26.07-.08.16-.11.26-.11.14,0,.29.08.47.25.23.22.41.36.52.42.16.08.3.12.42.12.36,0,.75-.21,1.19-.63.65-.61.97-1.29.97-2.02,0-.37-.1-.66-.3-.89-.2-.22-.46-.33-.78-.33-.23,0-.5.05-.79.16l.05-.42c.58-.21,1.11-.57,1.57-1.09.33-.36.49-.73.49-1.11,0-.28-.07-.5-.21-.66-.14-.16-.34-.24-.58-.24-.52,0-1.01.29-1.48.87Z"/>
      </g>
    </g>
  </g>
</svg>