<?xml version="1.0" encoding="UTF-8"?>
<svg xmlns="http://www.w3.org/2000/svg" version="1.1" viewBox="0 0 600 600">
  <defs>
    <style>
      .cls-1 {
        stroke: #3000f4;
      }

      .cls-1, .cls-2, .cls-3 {
        fill: none;
        stroke-miterlimit: 10;
        stroke-width: 2px;
      }

      .cls-2 {
        stroke: #e90069;
      }

      .cls-3 {
        stroke: #000;
      }
    </style>
  </defs>
  <!-- Generator: Adobe Illustrator 28.7.1, SVG Export Plug-In . SVG Version: 1.2.0 Build 142)  -->
  <g>
    <g id="_레이어_1" data-name="레이어_1">
      <rect class="cls-3" x="191.4" y="214.3" width="216.6" height="172"/>
      <circle class="cls-1" cx="299.7" cy="257.4" r="6.8"/>
      <circle class="cls-1" cx="317.8" cy="353.4" r="6.8"/>
      <line class="cls-2" x1="244.9" y1="337.4" x2="255.3" y2="347.5"/>
      <line class="cls-2" x1="244.4" y1="347.9" x2="254.9" y2="337.4"/>
      <line class="cls-2" x1="346.1" y1="297.1" x2="356.6" y2="307.2"/>
      <line class="cls-2" x1="345.6" y1="307.6" x2="356.1" y2="297.1"/>
      <g>
        <path d="M289.4,445.4l.3,1.4c.3,1.3.6,2.4.9,3.4s1.1,3.2,2.4,6.8c.1-.4.4-1.4.7-3,.5-2,.8-3.3.9-3.8.5-1.5.9-2.6,1.3-3.3s.9-1.2,1.4-1.5,1.1-.5,1.8-.5.9.1,1.2.3.4.4.4.7,0,.4-.2.5-.3.2-.5.2-.3,0-.5-.1c-.4-.2-.6-.2-.7-.3-.1,0-.3,0-.5,0-.4,0-.7.1-1,.4-.5.5-1.1,1.7-1.7,3.6s-1.4,4.9-2.3,9.1l-.4,1.8c-.9-2-1.6-3.5-1.9-4.3-.4-1.1-.9-2.6-1.5-4.3l-1.3-4.2c-.2,1-.5,2.6-1.1,4.9-.6,2.3-.9,3.6-1.1,4-.4,1.1-.8,1.9-1.2,2.5s-.9,1-1.4,1.3-1.1.4-1.7.4-1.4-.2-1.9-.5c-.4-.2-.6-.6-.6-1s0-.3.2-.5c.1-.1.3-.2.5-.2s.5.1.8.4c.5.5,1,.7,1.4.7s.9-.2,1.4-.6c.7-.6,1.3-2,1.9-4,.7-2.4,1.5-5.6,2.2-9.3-.3,0-.8,0-1.6.2s-1.5.4-2,.7c-.5.3-1,.7-1.2,1.2s-.4,1-.4,1.5,0,.5.1.8c0,.2.2.4.3.7.2.3.3.5.3.7s0,.4-.2.5-.3.2-.5.2c-.3,0-.6-.2-.8-.5s-.3-.8-.3-1.5c0-1.1.3-2,.8-2.8s1.3-1.3,2.2-1.7c.6-.2,1.7-.5,3.4-.7.6,0,1.2-.2,1.7-.3h0Z"/>
        <path d="M309.9,450.1v1.4h-10.8v-1.4h10.8ZM309.9,454.3v1.4h-10.8v-1.4h10.8Z"/>
        <path d="M320.1,455.1l-.2,1.3h-1.9l-.9,4.1h-1.7l.9-4.1c-2.6,0-4.3,0-5.1,0h-.2c-.2,0-.4,0-.4-.2s0-.3.3-.6c.9-1.6,2.2-3.3,4-5.1s3.5-3.5,5.4-5.1h.3l-.5,2-1.1,4.3-.8,3.5h1.9ZM316.5,455.1c0-.4.2-1.1.5-2.1l1.2-4.8c-1.6,1.5-2.7,2.7-3.5,3.5-.7.8-1.6,2-2.6,3.4h4.4Z"/>
      </g>
    </g>
  </g>
</svg>