<?xml version="1.0" encoding="UTF-8"?>
<svg xmlns="http://www.w3.org/2000/svg" version="1.1" viewBox="0 0 600 600">
  <defs>
    <style>
      .cls-1, .cls-2, .cls-3, .cls-4, .cls-5, .cls-6, .cls-7, .cls-8 {
        stroke-miterlimit: 10;
      }

      .cls-1, .cls-2, .cls-3, .cls-8 {
        stroke: #000;
      }

      .cls-1, .cls-6 {
        fill: none;
      }

      .cls-2, .cls-5 {
        fill: #ff0039;
      }

      .cls-3 {
        fill: #b5b5b6;
      }

      .cls-4 {
        fill: #fff;
        stroke: #fff;
      }

      .cls-5 {
        stroke: #ff0039;
      }

      .cls-6 {
        stroke: #e715ff;
        stroke-width: 2px;
      }

      .cls-7 {
        stroke: #0600df;
      }

      .cls-7, .cls-8 {
        fill: #0600df;
      }
    </style>
  </defs>
  <!-- Generator: Adobe Illustrator 28.7.1, SVG Export Plug-In . SVG Version: 1.2.0 Build 142)  -->
  <g>
    <g id="_레이어_1" data-name="레이어_1">
      <g id="_레이어_3">
        <rect class="cls-3" x="39.5" y="320.2" width="224.4" height="224.4"/>
        <rect class="cls-3" x="337.7" y="320.2" width="224.4" height="224.4"/>
        <polyline class="cls-8" points="110 37.2 218.4 261.6 265.5 261.6 265.5 37.2 110 37.2"/>
        <polygon class="cls-2" points="217.8 261.2 41.7 261.2 41.7 37.2 109.5 37.2 217.8 261.2"/>
        <polyline class="cls-8" points="408 37 516.4 261.4 563.5 261.4 563.5 37 408 37"/>
        <polygon class="cls-2" points="515.8 261 339.7 261 339.7 37 407.5 37 515.8 261"/>
      </g>
      <line class="cls-6" x1="110" y1="37.2" x2="218.4" y2="261.6"/>
      <rect class="cls-3" x="365.3" y="13.2" width="224.4" height="224.4"/>
      <circle class="cls-4" cx="383.7" cy="32.9" r="3.6"/>
      <circle class="cls-4" cx="425.6" cy="144.8" r="3.6"/>
      <circle class="cls-4" cx="440" cy="214.5" r="3.6"/>
      <circle class="cls-4" cx="542.3" cy="37" r="3.6"/>
      <circle class="cls-4" cx="500.8" cy="107.1" r="3.6"/>
      <circle class="cls-4" cx="556.2" cy="181.7" r="3.6"/>
      <circle class="cls-5" cx="60.6" cy="341.2" r="3.6"/>
      <circle class="cls-5" cx="102.5" cy="453.1" r="3.6"/>
      <circle class="cls-5" cx="116.9" cy="522.8" r="3.6"/>
      <circle class="cls-7" cx="219.2" cy="345.3" r="3.6"/>
      <circle class="cls-7" cx="177.7" cy="415.4" r="3.6"/>
      <circle class="cls-7" cx="233" cy="490" r="3.6"/>
      <circle class="cls-5" cx="358.2" cy="339.2" r="3.6"/>
      <circle class="cls-7" cx="400.1" cy="451" r="3.6"/>
      <circle class="cls-7" cx="414.5" cy="520.8" r="3.6"/>
      <circle class="cls-5" cx="516.8" cy="343.2" r="3.6"/>
      <circle class="cls-7" cx="475.3" cy="413.3" r="3.6"/>
      <circle class="cls-7" cx="530.6" cy="488" r="3.6"/>
      <g>
        <path d="M88.2,274v-.4h4.1v.4l-1.9.2h-.4s-1.8-.2-1.9-.2ZM92.1,283.9l-2.9-10.3h1.5l2.4,8.9h-.2v-.2c0,0,2.6-8.7,2.6-8.7h.8l2.6,9h-.2v-.2c0,0,2.4-8.7,2.4-8.7h.6l-2.9,10.3h-.8l-2.7-8.8h.3v.2c0,0-2.6,8.6-2.6,8.6h-.8ZM93.9,274v-.4h4v.4l-1.8.2h-.5l-1.7-.2ZM99.4,274v-.4h3.4v.4l-1.5.2h-.3l-1.5-.2Z"/>
        <path d="M104.4,283.9c0-.2,0-.5,0-.9s0-.8,0-1.2,0-.8,0-1.1v-7.2h-1.2v-.5l2.4-.5h.2c0,.1,0,2.3,0,2.3v3.3s0,2.5,0,2.5v1.1c0,.4,0,.8,0,1.2,0,.4,0,.7,0,.9h-1.5,0ZM103.3,283.9v-.4h1.5c0-.1.6-.1.6-.1h1.4v.5h-3.5ZM109.2,283.9c0-.2,0-.5,0-.9s0-.8,0-1.2v-2.8c0-.6-.1-1.1-.3-1.4-.2-.3-.5-.4-.9-.4s-.7.1-1.1.3c-.4.2-.9.6-1.4,1.1l-.3-.5h.4c.5-.6,1-1,1.5-1.3.5-.3,1-.4,1.5-.4s1.1.2,1.5.6.5,1.1.5,2.1v2.7c0,.4,0,.8,0,1.2s0,.7,0,.9h-1.5,0ZM108.1,283.9v-.4h1.5c0-.1.6-.1.6-.1h1.5v.5h-3.6,0Z"/>
        <path d="M116.3,284.1c-.7,0-1.2-.1-1.8-.4s-1-.7-1.3-1.3-.5-1.3-.5-2.1.2-1.5.5-2.1c.3-.6.8-1,1.3-1.3.6-.3,1.1-.4,1.7-.4s1.2.1,1.8.4,1,.7,1.3,1.3c.3.6.5,1.3.5,2.1s-.2,1.5-.5,2.1c-.3.6-.8,1-1.3,1.3s-1.1.4-1.8.4h0ZM116.3,283.6c.7,0,1.2-.3,1.6-.9s.6-1.4.6-2.5-.2-2-.6-2.5c-.4-.6-.9-.9-1.6-.9s-1.2.3-1.5.9c-.4.6-.6,1.4-.6,2.5s.2,2,.6,2.5c.4.6.9.9,1.5.9Z"/>
        <path d="M121,283.9v-.4h1.6c0-.1.6-.1.6-.1h1.7v.5h-3.8,0ZM122.2,283.9c0-.3,0-.6,0-1s0-.7,0-1.1v-8.3h-1.2v-.5l2.4-.5h.2c0,.1,0,2.3,0,2.3v6.9c0,.4,0,.8,0,1.1,0,.4,0,.7,0,1h-1.5,0Z"/>
        <path d="M129.6,284.1c-.7,0-1.3-.1-1.9-.4-.6-.3-1-.7-1.3-1.3-.3-.6-.5-1.3-.5-2.1s.2-1.5.5-2.1.8-1,1.3-1.3c.5-.3,1.1-.5,1.8-.5s1.2.1,1.6.4c.4.3.8.6,1,1.1.2.4.3,1,.3,1.5s0,.6,0,.8h-5.8v-.5h3.9c.3,0,.4,0,.5-.2,0-.1.1-.4.1-.7,0-.6-.1-1.1-.4-1.5s-.7-.5-1.3-.5-.7.1-1,.4-.6.6-.8,1.1-.3,1.1-.3,1.8.1,1.4.3,1.9c.2.5.5.9.9,1.1s.8.3,1.4.3.9,0,1.3-.3.7-.4.9-.8l.2.2c-.3.5-.7.9-1.2,1.2s-1.1.4-1.7.4h0Z"/>
        <path d="M137.4,274v-.4h4.3v.4l-2,.2h-.3l-2-.2h0ZM137.4,283.9v-.4l2-.2h.3l2,.2v.4h-4.3ZM138.7,283.9c0-.8,0-1.6,0-2.4v-5.5c0-.8,0-1.6,0-2.4h1.5c0,.8,0,1.6,0,2.4v5.5c0,.8,0,1.6,0,2.4h-1.5Z"/>
        <path d="M144.1,283.9c0-.2,0-.5,0-.9s0-.8,0-1.2v-3.2c0-.4,0-.7,0-1h-1.2v-.4l2.3-.6h.2c0,.1,0,1.7,0,1.7h0v3.6c0,.4,0,.8,0,1.2s0,.7,0,.9h-1.4,0ZM143,283.9v-.4h1.5c0-.1.6-.1.6-.1h1.5v.5h-3.6,0ZM148.8,283.9c0-.2,0-.5,0-.9s0-.8,0-1.2v-2.8c0-.6-.1-1.1-.3-1.4-.2-.3-.5-.4-.9-.4s-.7.1-1.1.3c-.4.2-.9.6-1.4,1.1v-.5c-.1,0,0,0,0,0,.5-.6,1-1.1,1.5-1.4.5-.3,1-.4,1.5-.4s1.1.2,1.5.6c.4.4.5,1.1.5,2v2.8c0,.4,0,.8,0,1.2s0,.7,0,.9h-1.4,0ZM147.8,283.9v-.4h1.5c0-.1.6-.1.6-.1h1.5v.5h-3.5Z"/>
        <path d="M153.3,287.5c0-.4,0-.7,0-1.1s0-.8,0-1.1v-6.8c0-.4,0-.7,0-1.1h-1.2v-.4l2.3-.6h.2c0,.1.1,1.3.1,1.3h0c0,0,0,5.1,0,5.1h0c0,.1,0,1.4,0,1.4v1.1c0,.4,0,.8,0,1.2,0,.4,0,.8,0,1.1h-1.4,0ZM152.1,287.5v-.4h1.6c0-.1.7-.1.7-.1h1.6v.5h-3.9ZM156.8,284.1c-.4,0-.9-.1-1.3-.3s-.8-.5-1.1-1h-.2l.2-.3c.3.4.6.6.9.7s.6.2,1,.2.8-.1,1.1-.3.6-.5.8-1,.3-1.1.3-1.9-.2-1.9-.6-2.4-.9-.8-1.5-.8-.7,0-1,.2c-.3.1-.7.5-1.1.9l-.2-.3h.1c.4-.5.8-.9,1.2-1.2s.9-.4,1.4-.4,1.1.1,1.5.5.8.7,1.1,1.3c.3.6.4,1.2.4,2s-.1,1.5-.4,2.1-.7,1-1.1,1.4c-.5.3-1,.5-1.6.5h0Z"/>
        <path d="M164.2,284.1c-.7,0-1.2-.2-1.6-.6-.4-.4-.6-1.1-.6-2.2v-4.2s.4.3.4.3l-1.5-.2v-.4l2.4-.2h.1c0,.1,0,2,0,2v2.8c0,.7.1,1.2.4,1.5.2.3.6.4,1,.4s.8-.1,1.2-.4.7-.6,1.1-1l.4.6h-.4c-.4.5-.8.9-1.2,1.2s-1,.5-1.6.5h0ZM166.9,284v-1.7h0v-5s-1.1-.1-1.1-.1v-.4l2.4-.3h.1c0,.1,0,2,0,2v4.9h1v.5h-2.3c0,.1,0,.1,0,.1Z"/>
        <path d="M173.2,284.1c-.6,0-1.1-.2-1.4-.5s-.4-.8-.4-1.5v-5.1h-1.3v-.4h1.6c0-.1-.3,0-.3,0l.5-2.4h.9v2.4s0,5.4,0,5.4c0,.4,0,.7.2.9.2.2.4.3.7.3s.4,0,.5-.1c.1,0,.3-.2.5-.3l.2.2c-.2.3-.4.5-.7.6-.3.1-.6.2-1.1.2h0ZM172.1,277.1v-.5h2.6v.5h-2.6Z"/>
        <path d="M182.4,284.1c-.6,0-1.1,0-1.7-.2-.5-.2-1-.4-1.3-.6v-2.2h.7l.5,2.4-.7-.3v-.5c.3.3.8.5,1.1.7s.8.2,1.3.2c.8,0,1.3-.2,1.8-.5s.7-.8.7-1.5,0-.6-.2-.9c-.1-.2-.3-.5-.6-.7-.3-.2-.7-.4-1.1-.6l-.6-.2c-.9-.4-1.5-.8-1.9-1.3-.4-.5-.7-1.1-.7-1.8s.1-1.1.4-1.5c.3-.4.7-.7,1.2-.9s1.1-.3,1.7-.3,1,0,1.4.2c.4.1.8.3,1.1.6v2h-.7l-.5-2.3.7.3v.5c-.3-.3-.6-.5-.9-.6-.3-.1-.6-.2-1.1-.2-.6,0-1.2.2-1.6.5s-.6.8-.6,1.4.1.9.5,1.2c.3.3.7.6,1.3.8l.7.3c.7.3,1.3.6,1.7.9s.7.6.9,1,.3.8.3,1.3-.1,1.1-.4,1.5-.7.8-1.3,1c-.6.2-1.2.4-1.9.4h0Z"/>
        <path d="M188.3,287.5c0-.4,0-.7,0-1.1s0-.8,0-1.1v-6.8c0-.4,0-.7,0-1.1h-1.2v-.4l2.3-.6h.2c0,.1.1,1.3.1,1.3h0c0,0,0,5.1,0,5.1h0c0,.1,0,1.4,0,1.4v1.1c0,.4,0,.8,0,1.2,0,.4,0,.8,0,1.1h-1.4,0ZM187.1,287.5v-.4h1.6c0-.1.7-.1.7-.1h1.6v.5h-3.9ZM191.8,284.1c-.4,0-.9-.1-1.3-.3s-.8-.5-1.1-1h-.2l.2-.3c.3.4.6.6.9.7s.6.2,1,.2.8-.1,1.1-.3.6-.5.8-1,.3-1.1.3-1.9-.2-1.9-.6-2.4-.9-.8-1.5-.8-.7,0-1,.2c-.3.1-.7.5-1.1.9l-.2-.3h.1c.4-.5.8-.9,1.2-1.2s.9-.4,1.4-.4,1.1.1,1.5.5.8.7,1.1,1.3c.3.6.4,1.2.4,2s-.1,1.5-.4,2.1-.7,1-1.1,1.4c-.5.3-1,.5-1.6.5h0Z"/>
        <path d="M198.2,284.1c-.6,0-1-.2-1.4-.5s-.6-.8-.6-1.4,0-.7.2-1c.2-.3.4-.5.8-.8s.9-.4,1.5-.6c.4-.1.8-.2,1.2-.3.4-.1.8-.2,1.2-.3v.4c-.4,0-.8.2-1.1.3s-.7.2-1,.3c-.6.2-1,.5-1.2.8-.2.3-.4.7-.4,1.1s.1.8.3,1c.2.2.5.3.9.3s.4,0,.6-.1c.2,0,.4-.2.7-.4s.6-.5.9-.8v.7c.1,0-.2,0-.2,0-.3.3-.6.6-.8.8s-.5.4-.8.5c-.3.1-.6.2-.9.2h0ZM202,284c-.4,0-.8-.1-1-.4s-.4-.7-.4-1.1v-3.7c0-.5,0-.9-.2-1.2s-.3-.5-.5-.6-.5-.2-.9-.2-.5,0-.8.1c-.3,0-.6.2-.9.4l.7-.4-.2,1.1c0,.3-.1.5-.2.6-.1.1-.3.2-.5.2-.4,0-.6-.2-.7-.5.1-.6.4-1,1-1.4s1.2-.5,2.1-.5,1.5.2,1.9.6c.4.4.6,1,.6,2v3.5c0,.4,0,.7.1.8.1.1.2.2.4.2s.2,0,.3,0c0,0,.2-.1.3-.3l.2.2c-.1.3-.3.5-.6.6-.2.1-.5.2-.8.2h0Z"/>
        <path d="M207.7,284.1c-.7,0-1.3-.1-1.8-.5-.5-.3-.9-.7-1.3-1.3s-.5-1.2-.5-2,.2-1.6.5-2.2.8-1,1.4-1.3c.6-.3,1.2-.5,1.9-.5s.8,0,1.2.2c.4.2.7.4.9.7s.4.6.5,1c-.1.4-.3.5-.7.5s-.4,0-.5-.2c-.1-.1-.2-.3-.3-.6l-.3-1.3.8.6c-.3-.2-.5-.3-.8-.4-.2,0-.5-.1-.8-.1-.5,0-.9.1-1.3.4s-.7.6-.9,1.1c-.2.5-.3,1.1-.3,1.8,0,1,.2,1.8.7,2.4s1.1.8,1.9.8.8,0,1.2-.2.7-.4,1-.8l.2.2c-.3.5-.7.9-1.2,1.2s-1,.4-1.7.4h0Z"/>
        <path d="M215.4,284.1c-.7,0-1.3-.1-1.9-.4-.6-.3-1-.7-1.3-1.3-.3-.6-.5-1.3-.5-2.1s.2-1.5.5-2.1.8-1,1.3-1.3c.5-.3,1.1-.5,1.8-.5s1.2.1,1.6.4c.4.3.8.6,1,1.1.2.4.3,1,.3,1.5s0,.6,0,.8h-5.8v-.5h3.9c.3,0,.4,0,.5-.2,0-.1.1-.4.1-.7,0-.6-.1-1.1-.4-1.5s-.7-.5-1.3-.5-.7.1-1,.4-.6.6-.8,1.1-.3,1.1-.3,1.8.1,1.4.3,1.9.5.9.9,1.1.8.3,1.4.3.9,0,1.3-.3.7-.4.9-.8l.2.2c-.3.5-.7.9-1.2,1.2s-1.1.4-1.7.4h0Z"/>
      </g>
      <g>
        <path d="M338.4,274v-.4h2.2v.6h-.2l-2-.2ZM338.4,283.9v-.4l2-.2h.2v.6h-2.2ZM339.8,283.9c0-.8,0-1.6,0-2.4v-5.5c0-.8,0-1.6,0-2.4h1.5c0,.8,0,1.6,0,2.4v5.5c0,.8,0,1.6,0,2.4h-1.5ZM345.4,276.2l-.5-2.5.7.4h-5v-.5h5.4v2.6c0,0-.6,0-.6,0h0ZM340.6,278.9v-.5h3.4v.5h-3.4ZM340.6,283.9v-.5h5.3l-.7.4.5-2.5h.6v2.6h-5.7,0ZM343.9,280.3l-.2-1.5v-.3l.2-1.5h.5v3.4h-.5Z"/>
        <path d="M347.8,287.6c-.3,0-.6,0-.9-.2-.3-.1-.4-.4-.4-.6,0-.2.1-.4.3-.5.2-.1.4-.1.6-.1s.4,0,.6.1c.2.1.3.2.5.4l.4.4-.5.2-.3-.2c.5-.1.9-.4,1.2-.9.4-.4.6-1,.9-1.7l.4-1v-.2c0,0,1.3-3.4,1.3-3.4l1.2-3.4h.6l-3,7.9c-.3.8-.6,1.4-.9,1.8-.3.5-.6.8-1,1s-.7.3-1.1.3h0ZM346.5,276.9v-.4h3.6v.4h-1.5c0,.1-.8.1-.8.1h-1.4ZM350.4,284.7l-3.3-8.1h1.5l2.3,6.3v.2c0,0-.5,1.6-.5,1.6h0ZM351.6,276.9v-.4h2.8v.4h-1.1c0,.1-.2.1-.2.1h-1.5Z"/>
        <path d="M358.4,284.1c-.7,0-1.3-.1-1.9-.4-.5-.3-1-.7-1.3-1.3-.3-.6-.5-1.3-.5-2.1s.2-1.5.5-2.1c.3-.6.8-1,1.3-1.3.5-.3,1.1-.5,1.8-.5s1.2.1,1.6.4.8.6,1,1.1.3,1,.3,1.5,0,.6,0,.8h-5.8v-.5h3.9c.3,0,.4,0,.5-.2,0-.1.1-.4.1-.7,0-.6-.1-1.1-.5-1.5s-.7-.5-1.3-.5-.7.1-1,.4-.6.6-.8,1.1-.3,1.1-.3,1.8.1,1.4.3,1.9.5.9.9,1.1c.4.2.8.3,1.4.3s.9,0,1.3-.3.7-.4,1-.8l.2.2c-.3.5-.7.9-1.2,1.2s-1,.4-1.7.4h0Z"/>
        <path d="M365,284.1c-.5,0-.9,0-1.3-.1s-.8-.2-1.1-.4v-1.7h.7l.4,1.8h-.6v-.5c.3.2.6.3.9.4.3.1.6.1,1,.1.6,0,1.1-.1,1.4-.4s.5-.6.5-1-.1-.6-.3-.8c-.2-.2-.6-.4-1.2-.6l-.7-.3c-.6-.2-1-.5-1.4-.8-.3-.3-.5-.8-.5-1.3s.2-1.1.7-1.5c.5-.4,1.1-.6,2-.6s.8,0,1.2.1c.3.1.7.3,1,.5v1.5h-.7l-.4-1.7h.5v.6c-.3-.2-.5-.4-.8-.4s-.5-.1-.8-.1c-.5,0-.9.1-1.2.3s-.4.5-.4.9.1.6.3.8c.2.2.6.4,1.1.6l.7.2c.7.2,1.2.5,1.5.9.3.4.5.8.5,1.3s-.1.8-.3,1.1-.6.6-1,.8-1,.3-1.6.3h0Z"/>
        <path d="M376.4,284.1c-.6,0-1.2-.1-1.8-.4s-1-.7-1.3-1.3-.5-1.3-.5-2.1.2-1.5.5-2.1c.3-.6.8-1,1.3-1.3s1.1-.4,1.7-.4,1.2.1,1.8.4,1,.7,1.3,1.3c.3.6.5,1.3.5,2.1s-.2,1.5-.5,2.1-.8,1-1.3,1.3-1.1.4-1.8.4h0ZM376.4,283.6c.7,0,1.2-.3,1.5-.9s.6-1.4.6-2.5-.2-2-.6-2.5c-.4-.6-.9-.9-1.5-.9s-1.2.3-1.5.9c-.4.6-.6,1.4-.6,2.5s.2,2,.6,2.5.9.9,1.5.9Z"/>
        <path d="M382.3,283.9c0-.5,0-1.1,0-1.6,0-.5,0-1.1,0-1.6v-3.6h-1.3v-.4h1.8c0-.1-.5.1-.5.1h0c0-1,.2-1.7.4-2.2.2-.5.5-1,.9-1.3.3-.3.6-.5,1-.6s.7-.2,1-.2.7,0,1,.2.5.3.5.6c0,.2,0,.3-.2.5s-.3.2-.5.2-.4,0-.5-.2c-.2-.1-.4-.3-.5-.5l-.4-.4h0c0-.1.6-.1.6-.1h0c-.3.1-.5.2-.7.4-.2.1-.4.3-.5.5-.1.2-.3.5-.4.8s-.1.7-.2,1.1,0,.9,0,1.5v3.8c0,.5,0,1.1,0,1.6,0,.5,0,1.1,0,1.6h-1.5,0ZM381.2,283.9v-.4h1.6c0-.1.7-.1.7-.1h1.7v.5h-4ZM383.1,277.1v-.5h2.8v.5h-2.8Z"/>
        <path d="M391.4,283.9c0-.5,0-1.1,0-1.6,0-.5,0-1.1,0-1.6v-3.6h-1.3v-.4h1.8c0-.1-.5.1-.5.1,0-.6.1-1.1.2-1.5.1-.4.3-.8.5-1.1.2-.3.4-.6.7-.9.3-.3.7-.5,1.2-.7s.9-.2,1.4-.2.9,0,1.3.3.6.4.6.7c0,.2,0,.3-.2.5s-.3.2-.5.2-.4,0-.5-.2-.4-.3-.6-.6l-.5-.6h0c0-.1.3-.1.3-.1h0c-.4.2-.7.3-1,.5-.3.2-.6.4-.8.7-.2.3-.5.7-.6,1.2-.1.5-.2,1.2-.2,2v3.7c0,.5,0,1.1,0,1.6,0,.5,0,1.1,0,1.6h-1.5ZM390.2,283.9v-.4h1.6c0-.1.8-.1.8-.1h1.5v.5h-3.8ZM396.2,283.9c0-.2,0-.5,0-.9s0-.8,0-1.2,0-.8,0-1.1v-1.1c0-.5,0-1,0-1.3,0-.4,0-.8,0-1.1h-4.1v-.5h3.8l1.5-.2h.2c0,.1,0,2.1,0,2.1v3.2c0,.4,0,.8,0,1.2,0,.4,0,.7,0,.9h-1.4,0ZM395.1,283.9v-.4h1.5c0-.1.6-.1.6-.1h1.5v.5h-3.5Z"/>
        <path d="M400.9,283.9c0-.2,0-.5,0-.9s0-.8,0-1.2v-3.2c0-.4,0-.7,0-1h-1.2v-.4l2.3-.6h.2c0,.1,0,1.7,0,1.7h0v3.6c0,.4,0,.8,0,1.2s0,.7,0,.9h-1.4,0ZM399.8,283.9v-.4h1.5c0-.1.6-.1.6-.1h1.5v.5h-3.6,0ZM405.7,283.9c0-.2,0-.5,0-.9s0-.8,0-1.2v-2.8c0-.6-.1-1.1-.3-1.4-.2-.3-.5-.4-.9-.4s-.7.1-1.1.3-.9.6-1.4,1.1v-.5c-.1,0,0,0,0,0,.5-.6,1-1.1,1.5-1.4.5-.3,1-.4,1.5-.4s1.1.2,1.5.6c.4.4.5,1.1.5,2v2.8c0,.4,0,.8,0,1.2,0,.4,0,.7,0,.9h-1.4,0ZM404.6,283.9v-.4h1.5c0-.1.6-.1.6-.1h1.5v.5h-3.5Z"/>
        <path d="M410.3,283.9c0-.2,0-.5,0-.9,0-.4,0-.8,0-1.2v-2c0-.5,0-.9,0-1.3,0-.4,0-.7,0-1.1h-1.2v-.4l2.5-.6h.2c0,.1,0,2.1,0,2.1v3.2c0,.4,0,.8,0,1.2s0,.7,0,.9h-1.5,0ZM409.2,283.9v-.4h1.5c0-.1.6-.1.6-.1h1.5v.5h-3.6ZM410.9,274.7c-.2,0-.5,0-.6-.2-.2-.2-.3-.4-.3-.6s0-.5.3-.6.4-.2.6-.2.5,0,.6.2.3.4.3.6,0,.5-.3.6-.4.2-.6.2Z"/>
        <path d="M416.6,284.1c-.6,0-1.1-.2-1.4-.5s-.5-.8-.5-1.5v-5.1h-1.3v-.4h1.6c0-.1-.3,0-.3,0l.5-2.4h.9v2.4s0,5.4,0,5.4c0,.4,0,.7.2.9s.4.3.7.3.4,0,.5-.1c.1,0,.3-.2.5-.3l.2.2c-.2.3-.4.5-.7.6-.3.1-.6.2-1,.2h0ZM415.5,277.1v-.5h2.6v.5h-2.6Z"/>
        <path d="M422.8,284.1c-.7,0-1.3-.1-1.9-.4-.5-.3-1-.7-1.3-1.3s-.5-1.3-.5-2.1.2-1.5.5-2.1c.3-.6.8-1,1.3-1.3.5-.3,1.1-.5,1.8-.5s1.2.1,1.6.4c.4.3.8.6,1,1.1.2.4.3,1,.3,1.5s0,.6,0,.8h-5.8v-.5h3.9c.3,0,.4,0,.5-.2,0-.1.1-.4.1-.7,0-.6-.1-1.1-.5-1.5s-.7-.5-1.3-.5-.7.1-1,.4-.6.6-.8,1.1-.3,1.1-.3,1.8.1,1.4.3,1.9.5.9.9,1.1c.4.2.8.3,1.4.3s.9,0,1.3-.3.7-.4,1-.8l.2.2c-.3.5-.7.9-1.2,1.2s-1,.4-1.7.4h0Z"/>
        <path d="M433,284.1c-.5,0-.9,0-1.3-.1s-.8-.2-1.1-.4v-1.7h.7l.4,1.8h-.6v-.5c.3.2.6.3.9.4.3.1.6.1,1,.1.6,0,1.1-.1,1.4-.4s.5-.6.5-1-.1-.6-.3-.8c-.2-.2-.6-.4-1.2-.6l-.7-.3c-.6-.2-1-.5-1.4-.8-.3-.3-.5-.8-.5-1.3s.2-1.1.7-1.5c.5-.4,1.1-.6,2-.6s.8,0,1.2.1c.3.1.7.3,1,.5v1.5h-.7l-.4-1.7h.5v.6c-.3-.2-.5-.4-.8-.4s-.5-.1-.8-.1c-.5,0-.9.1-1.2.3s-.4.5-.4.9.1.6.3.8c.2.2.6.4,1.1.6l.7.2c.7.2,1.2.5,1.5.9.3.4.5.8.5,1.3s-.1.8-.3,1.1-.6.6-1,.8-1,.3-1.6.3h0Z"/>
        <path d="M440.9,284.1c-.7,0-1.3-.1-1.9-.4-.5-.3-1-.7-1.3-1.3s-.5-1.3-.5-2.1.2-1.5.5-2.1c.3-.6.8-1,1.3-1.3.5-.3,1.1-.5,1.8-.5s1.2.1,1.6.4c.4.3.8.6,1,1.1.2.4.3,1,.3,1.5s0,.6,0,.8h-5.8v-.5h3.9c.3,0,.4,0,.5-.2,0-.1.1-.4.1-.7,0-.6-.1-1.1-.5-1.5s-.7-.5-1.3-.5-.7.1-1,.4-.6.6-.8,1.1-.3,1.1-.3,1.8.1,1.4.3,1.9.5.9.9,1.1c.4.2.8.3,1.4.3s.9,0,1.3-.3.7-.4,1-.8l.2.2c-.3.5-.7.9-1.2,1.2s-1,.4-1.7.4h0Z"/>
        <path d="M447.7,284.1c-.6,0-1.1-.2-1.4-.5s-.5-.8-.5-1.5v-5.1h-1.3v-.4h1.6c0-.1-.3,0-.3,0l.5-2.4h.9v2.4s0,5.4,0,5.4c0,.4,0,.7.2.9.2.2.4.3.7.3s.4,0,.5-.1c.1,0,.3-.2.5-.3l.2.2c-.2.3-.4.5-.7.6s-.6.2-1,.2h0ZM446.6,277.1v-.5h2.6v.5h-2.6Z"/>
        <path d="M457.4,284.1c-.6,0-1.2-.1-1.8-.4s-1-.7-1.3-1.3-.5-1.3-.5-2.1.2-1.5.5-2.1c.3-.6.8-1,1.3-1.3s1.1-.4,1.7-.4,1.2.1,1.8.4,1,.7,1.3,1.3c.3.6.5,1.3.5,2.1s-.2,1.5-.5,2.1-.8,1-1.3,1.3-1.1.4-1.8.4h0ZM457.4,283.6c.7,0,1.2-.3,1.5-.9s.6-1.4.6-2.5-.2-2-.6-2.5c-.4-.6-.9-.9-1.5-.9s-1.2.3-1.5.9c-.4.6-.6,1.4-.6,2.5s.2,2,.6,2.5.9.9,1.5.9Z"/>
        <path d="M463.3,283.9c0-.5,0-1.1,0-1.6,0-.5,0-1.1,0-1.6v-3.6h-1.3v-.4h1.8c0-.1-.5.1-.5.1h0c0-1,.2-1.7.4-2.2.2-.5.5-1,.9-1.3.3-.3.6-.5,1-.6.3-.1.7-.2,1-.2s.7,0,1,.2.5.3.5.6c0,.2,0,.3-.2.5s-.3.2-.5.2-.4,0-.5-.2-.4-.3-.5-.5l-.4-.4h0c0-.1.6-.1.6-.1h0c-.3.1-.5.2-.7.4-.2.1-.4.3-.5.5-.1.2-.3.5-.4.8s-.1.7-.2,1.1c0,.4,0,.9,0,1.5v3.8c0,.5,0,1.1,0,1.6,0,.5,0,1.1,0,1.6h-1.5,0ZM462.1,283.9v-.4h1.6c0-.1.7-.1.7-.1h1.7v.5h-4ZM464,277.1v-.5h2.8v.5h-2.8Z"/>
        <path d="M473.8,284.1c-.5,0-.9,0-1.3-.1s-.8-.2-1.1-.4v-1.7h.7l.4,1.8h-.6v-.5c.3.2.6.3.9.4.3.1.6.1,1,.1.6,0,1.1-.1,1.4-.4s.5-.6.5-1-.1-.6-.3-.8c-.2-.2-.6-.4-1.2-.6l-.7-.3c-.6-.2-1-.5-1.4-.8-.3-.3-.5-.8-.5-1.3s.2-1.1.7-1.5c.5-.4,1.1-.6,2-.6s.8,0,1.2.1c.3.1.7.3,1,.5v1.5h-.7l-.4-1.7h.5v.6c-.3-.2-.5-.4-.8-.4s-.5-.1-.8-.1c-.5,0-.9.1-1.2.3s-.4.5-.4.9.1.6.3.8c.2.2.6.4,1.1.6l.7.2c.7.2,1.2.5,1.5.9.3.4.5.8.5,1.3s-.1.8-.3,1.1-.6.6-1,.8-1,.3-1.6.3h0Z"/>
        <path d="M480,284.1c-.6,0-1-.2-1.4-.5s-.6-.8-.6-1.4,0-.7.2-1c.2-.3.4-.5.8-.8s.9-.4,1.5-.6c.4-.1.8-.2,1.2-.3.4-.1.8-.2,1.2-.3v.4c-.4,0-.8.2-1.1.3s-.7.2-1,.3c-.6.2-1,.5-1.2.8s-.4.7-.4,1.1.1.8.3,1c.2.2.5.3.9.3s.4,0,.6-.1c.2,0,.4-.2.7-.4s.5-.5.9-.8v.7c.1,0-.2,0-.2,0-.3.3-.5.6-.8.8s-.5.4-.8.5c-.3.1-.6.2-.9.2h0ZM483.8,284c-.4,0-.8-.1-1-.4s-.4-.7-.4-1.1v-3.7c0-.5,0-.9-.2-1.2-.1-.3-.3-.5-.5-.6s-.5-.2-.9-.2-.5,0-.8.1c-.3,0-.6.2-.9.4l.7-.4-.2,1.1c0,.3-.1.5-.2.6-.1.1-.3.2-.5.2-.4,0-.6-.2-.7-.5.1-.6.4-1,1-1.4.5-.3,1.2-.5,2-.5s1.5.2,1.9.6.6,1,.6,2v3.5c0,.4,0,.7.1.8s.2.2.4.2.2,0,.3,0c0,0,.2-.1.3-.3l.2.2c-.1.3-.3.5-.6.6-.2.1-.5.2-.8.2h0Z"/>
        <path d="M486.9,283.9c0-.2,0-.5,0-.9s0-.8,0-1.2v-3.3c0-.4,0-.7,0-1h-1.2v-.4l2.3-.6h.2c0,.1,0,1.7,0,1.7v3.6c0,.4,0,.8,0,1.2s0,.7,0,.9h-1.4,0ZM485.8,283.9v-.4h1.5c0-.1.6-.1.6-.1h1.5v.5h-3.6,0ZM491.6,283.9c0-.2,0-.5,0-.9s0-.8,0-1.2v-2.8c0-.7-.1-1.1-.3-1.4s-.5-.4-.9-.4-.7.1-1.1.4-.8.6-1.3,1.1v-.5c-.1,0,0,0,0,0,.4-.6.9-1,1.4-1.3.5-.3,1-.5,1.5-.5s1.1.2,1.5.6c.4.4.5,1.1.5,2v2.8c0,.4,0,.8,0,1.2s0,.7,0,.9h-1.4,0ZM490.5,283.9v-.4h1.5c0-.1.6-.1.6-.1h1.4v.5h-3.5ZM496.2,283.9c0-.2,0-.5,0-.9s0-.8,0-1.2v-2.8c0-.7-.1-1.2-.3-1.4s-.5-.4-.9-.4-.7.1-1.1.3-.8.6-1.2,1.1v-.6c-.1,0,0,0,0,0,.4-.6.9-1,1.4-1.2.5-.3,1-.4,1.5-.4s1.2.2,1.5.6c.3.4.5,1.1.5,2v2.8c0,.4,0,.8,0,1.2s0,.7,0,.9h-1.4,0ZM495.1,283.9v-.4h1.5c0-.1.6-.1.6-.1h1.5v.5h-3.5Z"/>
        <path d="M500.6,287.5c0-.4,0-.7,0-1.1s0-.8,0-1.1v-6.8c0-.4,0-.7,0-1.1h-1.2v-.4l2.3-.6h.2c0,.1.1,1.3.1,1.3h0c0,0,0,5.1,0,5.1h0c0,.1,0,1.4,0,1.4v1.1c0,.4,0,.8,0,1.2,0,.4,0,.8,0,1.1h-1.4,0ZM499.4,287.5v-.4h1.5c0-.1.7-.1.7-.1h1.6v.5h-3.9ZM504.1,284.1c-.4,0-.9-.1-1.3-.3-.4-.2-.8-.5-1.1-1h-.2l.2-.3c.3.4.6.6,1,.7.3.1.6.2,1,.2s.8-.1,1.1-.3.6-.5.8-1,.3-1.1.3-1.9-.2-1.9-.6-2.4-.9-.8-1.5-.8-.7,0-1,.2c-.3.1-.7.5-1.1.9l-.2-.3h.1c.4-.5.8-.9,1.2-1.2s.9-.4,1.4-.4,1.1.1,1.5.5.8.7,1,1.3c.3.6.4,1.2.4,2s-.1,1.5-.4,2.1-.7,1-1.1,1.4c-.5.3-1,.5-1.6.5h0Z"/>
        <path d="M508.4,283.9v-.4h1.6c0-.1.6-.1.6-.1h1.7v.5h-3.8,0ZM509.6,283.9c0-.3,0-.6,0-1s0-.7,0-1.1v-8.3h-1.2v-.5l2.4-.5h.2c0,.1,0,2.3,0,2.3v6.9c0,.4,0,.8,0,1.1,0,.4,0,.7,0,1h-1.5,0Z"/>
        <path d="M517,284.1c-.7,0-1.3-.1-1.9-.4-.5-.3-1-.7-1.3-1.3-.3-.6-.5-1.3-.5-2.1s.2-1.5.5-2.1c.3-.6.8-1,1.3-1.3.5-.3,1.1-.5,1.8-.5s1.2.1,1.6.4.8.6,1,1.1.3,1,.3,1.5,0,.6,0,.8h-5.8v-.5h3.9c.3,0,.4,0,.5-.2,0-.1.1-.4.1-.7,0-.6-.2-1.1-.5-1.5s-.7-.5-1.3-.5-.7.1-1,.4-.6.6-.8,1.1-.3,1.1-.3,1.8.1,1.4.3,1.9c.2.5.5.9.9,1.1s.8.3,1.4.3.9,0,1.3-.3.7-.4,1-.8l.2.2c-.3.5-.7.9-1.2,1.2s-1,.4-1.7.4h0Z"/>
        <path d="M525.7,287.5c0-.4,0-.7,0-1.1s0-.8,0-1.1v-6.8c0-.4,0-.7,0-1.1h-1.2v-.4l2.3-.6h.2c0,.1,0,1.3,0,1.3h0c0,0,0,5.1,0,5.1h0c0,.1,0,1.4,0,1.4v1.1c0,.4,0,.8,0,1.2,0,.4,0,.8,0,1.1h-1.4,0ZM524.5,287.5v-.4h1.5c0-.1.7-.1.7-.1h1.6v.5h-3.9ZM529.2,284.1c-.4,0-.8-.1-1.3-.3-.4-.2-.8-.5-1.1-1h-.2l.2-.3c.3.4.6.6,1,.7.3.1.6.2,1,.2s.8-.1,1.1-.3.6-.5.8-1,.3-1.1.3-1.9-.2-1.9-.6-2.4-.9-.8-1.5-.8-.7,0-1,.2c-.3.1-.7.5-1.1.9l-.2-.3h.1c.4-.5.8-.9,1.2-1.2s.9-.4,1.4-.4,1.1.1,1.5.5.8.7,1,1.3c.3.6.4,1.2.4,2s-.1,1.5-.4,2.1c-.3.6-.7,1-1.1,1.4-.5.3-1,.5-1.6.5h0Z"/>
        <path d="M537.3,284.1c-.7,0-1.2-.1-1.8-.4s-1-.7-1.3-1.3-.5-1.3-.5-2.1.2-1.5.5-2.1c.3-.6.8-1,1.3-1.3.5-.3,1.1-.4,1.7-.4s1.2.1,1.8.4,1,.7,1.3,1.3c.3.6.5,1.3.5,2.1s-.2,1.5-.5,2.1c-.3.6-.8,1-1.3,1.3s-1.1.4-1.8.4h0ZM537.3,283.6c.7,0,1.2-.3,1.5-.9s.6-1.4.6-2.5-.2-2-.6-2.5c-.4-.6-.9-.9-1.5-.9s-1.2.3-1.5.9c-.4.6-.6,1.4-.6,2.5s.2,2,.6,2.5c.4.6.9.9,1.5.9Z"/>
        <path d="M543.2,283.9c0-.2,0-.5,0-.9,0-.4,0-.8,0-1.2v-2c0-.5,0-.9,0-1.3,0-.4,0-.7,0-1.1h-1.2v-.4l2.5-.6h.2c0,.1,0,2.1,0,2.1v3.2c0,.4,0,.8,0,1.2s0,.7,0,.9h-1.5,0ZM542.1,283.9v-.4h1.5c0-.1.6-.1.6-.1h1.5v.5h-3.6ZM543.9,274.7c-.2,0-.5,0-.6-.2s-.3-.4-.3-.6,0-.5.3-.6.4-.2.6-.2.5,0,.6.2.3.4.3.6,0,.5-.3.6-.4.2-.6.2Z"/>
        <path d="M547.9,283.9c0-.2,0-.5,0-.9s0-.8,0-1.2,0-.8,0-1.1v-2.2c0-.4,0-.7,0-1h-1.2v-.4l2.3-.6h.2c0,.1,0,1.7,0,1.7h0v3.6c0,.4,0,.8,0,1.2s0,.7,0,.9h-1.4,0ZM546.8,283.9v-.4h1.5c0-.1.6-.1.6-.1h1.5v.5h-3.6,0ZM552.7,283.9c0-.2,0-.5,0-.9s0-.8,0-1.2v-2.8c0-.6-.1-1.1-.3-1.4s-.5-.4-.9-.4-.7.1-1.1.3-.9.6-1.4,1.1v-.5c0,0,0,0,0,0,.5-.6,1-1.1,1.5-1.4.5-.3,1-.4,1.5-.4s1.1.2,1.5.6c.3.4.5,1.1.5,2v2.8c0,.4,0,.8,0,1.2,0,.4,0,.7,0,.9h-1.4,0ZM551.6,283.9v-.4h1.5c0-.1.6-.1.6-.1h1.5v.5h-3.5Z"/>
        <path d="M558.9,284.1c-.6,0-1.1-.2-1.4-.5s-.5-.8-.5-1.5v-5.1h-1.3v-.4h1.6c0-.1-.3,0-.3,0l.5-2.4h.9v2.4s0,5.4,0,5.4c0,.4,0,.7.2.9.2.2.4.3.7.3s.4,0,.5-.1c.2,0,.3-.2.5-.3l.2.2c-.2.3-.4.5-.7.6s-.6.2-1,.2h0ZM557.8,277.1v-.5h2.6v.5h-2.6Z"/>
        <path d="M564,284.1c-.5,0-.9,0-1.3-.1s-.8-.2-1.1-.4v-1.7h.7l.4,1.8h-.6v-.5c.3.2.6.3.8.4s.6.1,1,.1c.6,0,1.1-.1,1.4-.4s.5-.6.5-1,0-.6-.3-.8c-.2-.2-.6-.4-1.2-.6l-.7-.3c-.6-.2-1-.5-1.4-.8-.3-.3-.5-.8-.5-1.3s.2-1.1.7-1.5c.5-.4,1.2-.6,2-.6s.8,0,1.2.1c.3.1.7.3,1,.5v1.5h-.7l-.4-1.7h.5v.6c-.3-.2-.5-.4-.8-.4s-.5-.1-.8-.1c-.5,0-.9.1-1.2.3s-.4.5-.4.9.1.6.3.8c.2.2.6.4,1.1.6l.7.2c.7.2,1.2.5,1.5.9.3.4.5.8.5,1.3s-.1.8-.3,1.1-.6.6-1,.8-1,.3-1.6.3h0Z"/>
      </g>
      <path d="M153.3,570.1c-.2.2-.4.5-.6.9s-.5.6-.8.9-.6.5-.9.8c-.3.2-.6.3-.9.3s-.6,0-.7-.3-.2-.4-.3-.6,0-.5,0-.7,0-.4.1-.5l2-5.2c.1-.4.2-.7.2-.9s0-.4-.1-.5c0,0-.2-.2-.3-.2s-.2,0-.2,0c-.2,0-.5.1-.8.4-.3.3-.6.6-1,1s-.7.9-1.1,1.5c-.4.6-.8,1.2-1.1,1.8s-.7,1.3-1,2-.6,1.3-.9,1.9h-1.4l3.6-12.4c.1-.3,0-.6-.3-.7s-.7-.2-1.2-.2v-.4c.5,0,.9-.2,1.3-.3.4,0,.7-.2,1.2-.3.4-.1.8-.2,1.1-.4l-3.7,12.1c.3-.4.6-.9.9-1.4s.6-1,.9-1.5.6-1,1-1.4.7-.9,1-1.2.7-.6,1-.8.6-.3,1-.3.4,0,.6.1.4.2.5.4.2.4.3.7,0,.6-.2,1l-1.9,5.1c-.2.5-.2.8-.2,1,0,.2.2.3.5.2.2,0,.6-.3,1-.6.4-.4.8-.9,1.3-1.6l.3.3h0Z"/>
      <path d="M160.2,577.7h-5.1v-.4c.5,0,.9,0,1.2,0s.5-.1.6-.2c.1,0,.2-.2.2-.3,0-.1,0-.2,0-.3v-6.6c0-.1,0-.2,0-.3,0,0-.1-.1-.3-.2s-.3,0-.6,0-.6,0-1.1,0v-.3c.4,0,.8-.1,1.1-.2s.7-.2,1-.3c.3-.1.7-.3,1-.4v8.5c0,0,0,.2,0,.3,0,0,0,.2.2.3.1,0,.3.2.6.2s.7,0,1.2,0v.3Z"/>
      <path d="M459.8,567.7c-.2.2-.4.5-.6.9s-.5.6-.8.9-.6.5-.9.8c-.3.2-.6.3-.9.3s-.6,0-.7-.3-.2-.4-.3-.6,0-.5,0-.7,0-.4.1-.5l2-5.2c.1-.4.2-.7.2-.9s0-.4-.1-.5c0,0-.2-.2-.3-.2s-.2,0-.2,0c-.2,0-.5.1-.8.4-.3.3-.6.6-1,1s-.7.9-1.1,1.5c-.4.6-.8,1.2-1.1,1.8s-.7,1.3-1,2-.6,1.3-.9,1.9h-1.5l3.6-12.4c.1-.3,0-.6-.3-.7s-.7-.2-1.2-.2v-.4c.5,0,.9-.2,1.3-.3.4,0,.7-.2,1.2-.3.4-.1.8-.2,1.1-.4l-3.7,12.1c.3-.4.6-.9.9-1.4s.6-1,1-1.5.6-1,1-1.4.7-.9,1-1.2.7-.6,1-.8.6-.3,1-.3.4,0,.6.1.4.2.5.4.2.4.3.7,0,.6-.2,1l-1.9,5.1c-.2.5-.2.8-.2,1,0,.2.2.3.5.2.2,0,.6-.3,1-.6.4-.4.8-.9,1.3-1.6l.3.3h0Z"/>
      <path d="M466.9,572.9l-.6,2.5h-5.2c0-.3.2-.6.4-.9s.4-.7.6-1c.2-.3.5-.7.8-1,.3-.3.6-.7.9-1,.2-.3.5-.5.7-.8s.4-.5.5-.8.3-.5.4-.8.1-.5.1-.9c0-.6-.1-1.1-.5-1.5-.3-.3-.7-.5-1.3-.5s-.3,0-.5,0-.4.1-.5.2-.3.2-.4.3-.2.3-.2.5,0,.2,0,.3,0,.1.1.2c0,0,0,.1.1.2,0,0,0,.2,0,.3,0,.2,0,.4-.2.5s-.3.2-.5.2c-.3,0-.5,0-.6-.3s-.2-.4-.2-.7,0-.6.2-.8.4-.5.6-.7c.3-.2.6-.4.9-.5s.7-.2,1-.2.8,0,1.2.2.6.3.9.5.5.5.6.8.2.6.2.9,0,.7-.2,1-.3.6-.5.8-.4.5-.6.7c-.2.2-.5.4-.7.7-.9.8-1.5,1.4-2,2s-.8,1-.8,1.3h2.7c.2,0,.4,0,.5,0,.2,0,.3,0,.5-.2s.3-.3.5-.5.3-.6.5-1h.3c0,0,0,0,0,0h0Z"/>
      <g id="_레이어_2">
        <rect class="cls-1" x="41.1" y="37.2" width="224.4" height="224.4"/>
        <rect class="cls-1" x="39.5" y="320.2" width="224.4" height="224.4"/>
        <rect class="cls-1" x="337.7" y="320.2" width="224.4" height="224.4"/>
      </g>
    </g>
  </g>
</svg>