<?xml version="1.0" encoding="UTF-8"?>
<svg xmlns="http://www.w3.org/2000/svg" version="1.1" viewBox="0 0 600 600">
  <defs>
    <style>
      .cls-1 {
        stroke-dasharray: 6.44 6.44 6.44 6.44 6.44 6.44;
      }

      .cls-1, .cls-2, .cls-3, .cls-4 {
        fill: none;
        stroke: #000;
        stroke-miterlimit: 10;
      }

      .cls-1, .cls-3, .cls-4 {
        stroke-width: 2px;
      }

      .cls-5 {
        fill: #005bbf;
      }

      .cls-6 {
        opacity: .2;
      }

      .cls-7 {
        fill: #f40059;
      }

      .cls-4 {
        stroke-dasharray: 6.44 6.44 6.44 6.44;
      }

      .cls-8 {
        fill: #ff8d15;
      }
    </style>
  </defs>
  <!-- Generator: Adobe Illustrator 28.7.1, SVG Export Plug-In . SVG Version: 1.2.0 Build 142)  -->
  <g>
    <g id="_레이어_1" data-name="레이어_1">
      <path d="M145.25,450.88c-.07.08-.18.12-.31.12-.14,0-.24,0-.3,0h-10.41c-.06,0-.15,0-.26.02-.11.01-.2-.02-.26-.11-.05-.1-.04-.21.04-.34.07-.13.12-.21.14-.23l5.25-11.12c.04-.07.09-.16.15-.25.07-.1.15-.15.24-.16.08-.02.16.01.22.12.07.1.11.19.14.26l5.09,10.94s.04.07.07.13c.04.07.07.14.11.22.04.08.07.16.09.24.02.08.02.14,0,.18ZM143.29,449.81l-4.21-9-4.24,9h8.45Z"/>
      <path d="M447.02,449.28c-.07.08-.18.12-.31.12-.14,0-.24,0-.3,0h-10.41c-.06,0-.15,0-.26.02-.11.01-.2-.02-.26-.11-.05-.1-.04-.21.04-.34.07-.13.12-.21.14-.23l5.25-11.12c.04-.07.09-.16.15-.25.07-.1.15-.15.24-.16.08-.02.16.01.22.12.07.1.11.19.13.26l5.09,10.94s.04.07.07.13c.04.07.07.14.11.22.04.08.07.16.09.24.02.08.02.14,0,.18ZM445.06,448.2l-4.21-9-4.24,9h8.45Z"/>
    </g>
    <g id="_레이어_2" data-name="레이어_2">
      <rect class="cls-2" x="42.1" y="199.33" width="218.25" height="218.25"/>
      <line class="cls-3" x1="89.06" y1="199.33" x2="214.72" y2="417.58"/>
      <g>
        <path d="M55.83,300.09v-1.71h8.24v1.71h-8.24Z"/>
        <path d="M68.08,307.68v-.87l5.13-.5h2.67l4.82.5v.87h-12.63ZM72.9,307.68c.06-2.41.09-4.8.09-7.18v-13l-4.38.65v-1l7.09-1.74.47.34-.12,4.94v9.8c0,1.16.01,2.35.03,3.56.02,1.21.04,2.42.06,3.62h-3.23Z"/>
      </g>
      <path d="M232.59,354.12v-1.08l6.36-.62h3.31l5.97.62v1.08h-15.64ZM238.56,354.12c.08-2.98.12-5.95.12-8.9v-16.1l-5.43.81v-1.23l8.78-2.16.58.42-.15,6.12v12.13c0,1.44.01,2.91.04,4.41.03,1.5.05,3,.08,4.49h-4.01Z"/>
      <rect class="cls-2" x="338.64" y="200.53" width="218.25" height="218.25"/>
      <line class="cls-3" x1="385.6" y1="200.53" x2="511.26" y2="418.78"/>
      <g>
        <path d="M352.37,301.29v-1.71h8.24v1.71h-8.24Z"/>
        <path d="M364.62,308.88v-.87l5.13-.5h2.67l4.82.5v.87h-12.63ZM369.45,308.88c.06-2.41.09-4.8.09-7.18v-13l-4.38.65v-1l7.09-1.74.47.34-.12,4.94v9.8c0,1.16.01,2.35.03,3.56s.04,2.42.06,3.62h-3.23Z"/>
      </g>
      <path d="M529.13,355.33v-1.08l6.36-.62h3.31l5.97.62v1.08h-15.64ZM535.1,355.33c.08-2.98.12-5.95.12-8.9v-16.1l-5.43.81v-1.23l8.78-2.16.58.42-.15,6.12v12.13c0,1.44.01,2.91.04,4.41.03,1.5.05,3,.08,4.49h-4.01Z"/>
    </g>
    <g id="_레이어_3" data-name="레이어_3">
      <path class="cls-6" d="M114.36,417.58h145.3v-218.25h-73.06c-14.79,44.68-29.57,89.35-44.36,134.03-9.29,28.07-18.58,56.15-27.88,84.22Z"/>
      <polygon class="cls-8" points="89.6 199.72 113.11 199.72 150.68 305.96 89.6 199.72"/>
      <polygon class="cls-8" points="153.38 311.34 190.5 417.58 214.72 417.09 153.38 311.34"/>
      <circle class="cls-5" cx="106.5" cy="211.85" r="4.5"/>
      <circle class="cls-5" cx="156.39" cy="260.44" r="4.5"/>
      <circle class="cls-5" cx="167.02" cy="221.82" r="4.5"/>
      <circle class="cls-7" cx="132.9" cy="403.66" r="4.5"/>
      <circle class="cls-7" cx="154.6" cy="337.76" r="4.5"/>
      <circle class="cls-7" cx="192.19" cy="395.74" r="4.5"/>
      <circle class="cls-7" cx="142.69" cy="381.46" r="4.5"/>
      <circle class="cls-7" cx="230.57" cy="396.59" r="4.5"/>
      <circle class="cls-7" cx="182.52" cy="316.44" r="4.5"/>
      <circle class="cls-7" cx="180.8" cy="294.24" r="4.5"/>
      <circle class="cls-7" cx="227.95" cy="296.06" r="4.5"/>
      <circle class="cls-7" cx="223.45" cy="230.07" r="4.5"/>
      <circle class="cls-7" cx="187.7" cy="244.93" r="4.5"/>
      <circle class="cls-7" cx="214.72" cy="344.12" r="4.5"/>
      <circle class="cls-5" cx="98.48" cy="390.45" r="4.5"/>
      <circle class="cls-5" cx="124.76" cy="325.73" r="4.5"/>
      <circle class="cls-5" cx="80.51" cy="224.53" r="4.5"/>
      <circle class="cls-5" cx="56.5" cy="401.09" r="4.5"/>
      <circle class="cls-5" cx="71.52" cy="350.83" r="4.5"/>
      <circle class="cls-5" cx="67.02" cy="263.16" r="4.5"/>
      <circle class="cls-5" cx="102.98" cy="274.58" r="4.5"/>
      <circle class="cls-5" cx="110.06" cy="355.33" r="4.5"/>
      <path d="M158.82,448.34l-2.09,2.71h-9.03l.16-.49c.62,0,1.08-.07,1.38-.19s.53-.39.66-.81l2.88-8.64c.18-.54-.33-.81-1.52-.81l.16-.5h8.98l.16,2.74-.45.23c-.21-.53-.4-.96-.61-1.29-.2-.33-.43-.58-.69-.74-.26-.16-.56-.28-.89-.34-.34-.06-.74-.08-1.2-.08-.44,0-.8.02-1.09.04s-.53.08-.72.16c-.2.07-.35.19-.47.34-.12.15-.22.34-.3.57l-1.25,3.74h1.37c.17,0,.39-.02.65-.07.26-.05.53-.15.81-.3.28-.15.54-.35.8-.61.26-.26.47-.6.64-1.01h.44l-1.46,4.38h-.46c.16-.49.2-.86.1-1.13-.1-.26-.26-.44-.47-.56s-.44-.18-.68-.2-.41-.02-.52-.02h-1.37l-1.35,4.04c-.1.3-.13.53-.1.68.03.16.13.26.29.31s.37.08.63.08h.92c1,0,1.93-.2,2.8-.58.86-.39,1.71-1,2.54-1.84l.35.2h0Z"/>
      <path d="M162.89,451.4c0,.5-.09.97-.26,1.41s-.4.81-.67,1.14-.57.58-.89.77c-.32.19-.64.28-.94.28-.21,0-.41-.04-.58-.13s-.32-.21-.44-.35-.21-.31-.28-.51c-.07-.2-.1-.4-.1-.62s.03-.47.1-.74.16-.53.28-.81.26-.53.44-.78.35-.48.56-.67.42-.35.64-.46.46-.17.71-.17c.16,0,.34.03.51.12.17.07.33.18.47.32s.26.31.34.52.13.44.13.7h0ZM162.24,451.04c0-.1-.02-.21-.04-.32-.02-.12-.07-.23-.13-.34-.06-.11-.15-.2-.26-.27s-.24-.12-.4-.12c-.21,0-.42.07-.6.21s-.35.31-.5.53c-.15.21-.29.46-.4.73s-.22.54-.3.81c-.08.26-.14.51-.18.75s-.07.42-.07.56c0,.11,0,.22.02.35.02.13.05.26.11.38.06.12.14.22.26.3s.26.12.46.12c.23,0,.44-.07.63-.21.19-.14.35-.33.51-.55s.28-.48.39-.77c.12-.28.21-.55.28-.83.07-.27.13-.53.16-.77.03-.24.06-.43.06-.57h0Z"/>
      <path d="M169.03,449.78c-.26.58-.48,1.13-.68,1.65-.08.22-.17.46-.26.7s-.17.48-.25.71-.14.44-.2.64-.1.38-.12.53c-.02.06-.02.13-.02.21s.02.15.05.21c.02.05.07.08.13.1.06,0,.14-.02.24-.1.1-.08.23-.21.38-.39.15-.19.34-.45.55-.8l.17.1c-.25.43-.47.76-.67,1s-.39.41-.55.51-.3.15-.43.13c-.12,0-.22-.05-.3-.12-.08-.07-.14-.16-.17-.26-.03-.11-.05-.21-.04-.29.02-.18.07-.42.15-.71.08-.3.17-.6.28-.91s.21-.62.3-.9.18-.51.24-.67c-.4.72-.77,1.33-1.11,1.83-.34.49-.64.9-.91,1.21-.27.31-.5.53-.7.67s-.36.2-.49.2c-.09,0-.18-.02-.29-.06s-.19-.11-.26-.21-.12-.24-.12-.41.04-.39.15-.67l1.13-2.82c.07-.19.1-.34.07-.44s-.1-.15-.21-.12-.27.14-.46.33c-.19.2-.41.49-.67.9l-.18-.13c.07-.12.17-.26.29-.44.12-.18.26-.36.42-.53s.32-.33.49-.45c.17-.12.34-.19.5-.19.09,0,.18.03.26.09s.14.15.18.26.06.26.05.41c0,.16-.05.35-.13.54l-1.02,2.51c-.08.2-.12.36-.12.51s.02.26.07.34.12.12.21.12.19-.05.29-.15c.19-.19.38-.39.56-.62.19-.23.37-.47.54-.72.17-.26.35-.51.51-.77.16-.26.32-.5.47-.74.34-.57.66-1.15.96-1.74h.76,0Z"/>
      <path d="M173.07,449.88l-.08.36h-1.16l-1.16,3.92c-.02.09,0,.17.03.26s.12.11.24.08.26-.12.45-.3c.19-.17.42-.48.69-.9l.2.12c-.08.13-.19.3-.32.48-.14.19-.29.36-.45.53s-.33.3-.49.42c-.17.12-.33.17-.48.17-.26,0-.44-.1-.51-.3-.07-.21-.06-.48.04-.81l1.14-3.64h-.95l.1-.36h.94l.62-2.07h.68l-.65,2.07h1.14Z"/>
      <g>
        <line class="cls-3" x1="113.11" y1="199.33" x2="114.11" y2="202.15"/>
        <line class="cls-4" x1="116.27" y1="208.23" x2="123.8" y2="229.49"/>
        <line class="cls-1" x1="124.88" y1="232.53" x2="188.42" y2="411.71"/>
        <line class="cls-3" x1="189.5" y1="414.75" x2="190.5" y2="417.58"/>
      </g>
      <path class="cls-6" d="M410.91,417.58h145.3v-218.25h-73.06c-14.79,44.68-29.57,89.35-44.36,134.03-9.29,28.07-18.58,56.15-27.88,84.22Z"/>
      <circle class="cls-8" cx="403.04" cy="213.05" r="4.5"/>
      <circle class="cls-5" cx="452.93" cy="261.65" r="4.5"/>
      <circle class="cls-5" cx="463.56" cy="223.02" r="4.5"/>
      <circle class="cls-7" cx="429.44" cy="404.87" r="4.5"/>
      <circle class="cls-7" cx="451.14" cy="338.97" r="4.5"/>
      <circle class="cls-8" cx="488.74" cy="396.94" r="4.5"/>
      <circle class="cls-7" cx="439.23" cy="382.66" r="4.5"/>
      <circle class="cls-7" cx="527.11" cy="397.8" r="4.5"/>
      <circle class="cls-7" cx="479.06" cy="317.65" r="4.5"/>
      <circle class="cls-7" cx="477.34" cy="295.44" r="4.5"/>
      <circle class="cls-7" cx="524.49" cy="297.27" r="4.5"/>
      <circle class="cls-7" cx="519.99" cy="231.28" r="4.5"/>
      <circle class="cls-7" cx="484.24" cy="246.13" r="4.5"/>
      <circle class="cls-7" cx="511.26" cy="345.32" r="4.5"/>
      <circle class="cls-5" cx="395.02" cy="391.66" r="4.5"/>
      <circle class="cls-5" cx="421.3" cy="326.94" r="4.5"/>
      <circle class="cls-5" cx="377.06" cy="225.74" r="4.5"/>
      <circle class="cls-5" cx="353.04" cy="402.3" r="4.5"/>
      <circle class="cls-5" cx="368.06" cy="352.03" r="4.5"/>
      <circle class="cls-5" cx="363.56" cy="264.36" r="4.5"/>
      <circle class="cls-5" cx="399.52" cy="275.78" r="4.5"/>
      <circle class="cls-5" cx="406.6" cy="356.53" r="4.5"/>
      <path d="M460.87,446.65l-2.14,2.77h-9.26l.17-.5c.63,0,1.1-.07,1.42-.19.31-.12.54-.41.68-.83l2.95-8.85c.18-.56-.33-.84-1.56-.84l.17-.51h9.21l.17,2.81-.47.23c-.21-.55-.42-.99-.62-1.32s-.44-.59-.71-.76c-.27-.17-.57-.28-.91-.34s-.76-.08-1.24-.08c-.45,0-.82.02-1.11.04s-.55.08-.75.16c-.2.07-.36.19-.48.34-.12.15-.22.35-.3.58l-1.28,3.84h1.4c.17,0,.4-.02.66-.07s.54-.15.83-.3c.28-.15.56-.36.82-.62s.48-.61.66-1.04h.45l-1.5,4.49h-.47c.17-.5.2-.89.1-1.15-.1-.27-.27-.46-.48-.57s-.46-.18-.71-.2c-.24-.02-.42-.02-.53-.02h-1.4l-1.38,4.14c-.1.32-.14.55-.1.71.03.16.13.27.29.32.16.06.37.08.65.08h.95c1.02,0,1.98-.2,2.87-.6.89-.4,1.75-1.03,2.61-1.89l.35.2h0Z"/>
      <path d="M463.26,451.86c-.09.14-.21.3-.34.49s-.29.37-.46.52c-.17.17-.33.31-.51.42s-.33.17-.48.17c-.1,0-.2-.03-.27-.09-.08-.06-.15-.14-.19-.25-.05-.1-.07-.22-.08-.35,0-.13.02-.26.07-.39l1.19-3.13c.08-.21.12-.36.12-.46s-.02-.17-.05-.19c-.03-.03-.09-.03-.16-.02-.07.02-.12.04-.17.07-.1.05-.21.13-.31.23s-.2.21-.3.32-.18.22-.25.32c-.07.1-.12.17-.15.22l-.16-.16c.07-.14.18-.29.32-.47s.28-.33.44-.49c.16-.15.32-.28.47-.39.17-.11.32-.16.46-.16.09,0,.17.02.26.06.08.04.15.1.21.18s.08.2.08.34-.03.32-.12.54l-1.23,3.18s-.02.06-.02.12,0,.11,0,.17.02.11.06.16c.03.05.08.07.16.07.1,0,.21-.05.34-.16s.26-.23.38-.37c.12-.14.24-.28.34-.42.1-.14.17-.24.22-.31l.17.2h-.02ZM463.81,445.76s-.02.1-.04.17c-.02.07-.07.13-.12.2-.06.07-.12.12-.21.17-.08.04-.18.07-.31.07-.05,0-.11,0-.17-.03s-.12-.06-.17-.1c-.05-.04-.1-.09-.13-.15-.03-.06-.06-.12-.06-.2,0-.17.06-.32.17-.47.12-.14.27-.22.44-.22s.31.06.42.17c.11.12.17.25.17.38h.02Z"/>
      <path d="M470.41,451.82c-.28.5-.56.9-.86,1.2-.3.3-.59.46-.89.46-.22,0-.36-.06-.44-.17-.07-.12-.12-.26-.12-.42s.02-.31.07-.46.07-.26.1-.32l1.06-2.83s.02-.08.02-.16,0-.16,0-.23-.03-.15-.07-.21-.11-.08-.21-.08c-.11,0-.22.04-.34.12-.12.07-.27.25-.47.51-.2.27-.47.66-.81,1.18-.34.52-.79,1.22-1.35,2.1l-.42.86h-.79l1.3-3.52c.02-.06.05-.16.09-.29s.07-.27.09-.41c.02-.14.02-.26,0-.36s-.07-.16-.17-.16c-.04,0-.12.03-.22.1s-.21.17-.33.29-.25.27-.39.45c-.14.17-.27.36-.41.56l-.21-.12c.08-.13.19-.29.34-.49.14-.2.3-.39.47-.58.17-.19.34-.35.52-.48.17-.13.34-.2.49-.2.17,0,.29.05.37.14.07.1.12.22.14.37s0,.32-.02.51c-.03.19-.08.37-.14.56-.07.23-.14.47-.22.72-.07.22-.16.47-.25.76s-.19.58-.31.89c.37-.6.71-1.11.98-1.54.27-.43.52-.79.73-1.08.21-.29.39-.52.54-.7s.28-.31.41-.4.23-.15.33-.18.21-.05.32-.05c.18,0,.33.05.43.14.1.1.17.21.21.34s.05.27.04.42c0,.15-.03.27-.06.37l-1.1,2.96s-.02.05-.03.12c-.02.06-.02.12-.02.19s0,.12.04.17.07.08.15.08c.12,0,.25-.05.38-.16s.25-.23.36-.37c.11-.14.21-.28.3-.42.09-.14.16-.24.2-.31l.17.15v-.02Z"/>
      <g>
        <line class="cls-3" x1="409.65" y1="200.53" x2="410.65" y2="203.36"/>
        <line class="cls-4" x1="412.81" y1="209.43" x2="420.35" y2="230.69"/>
        <line class="cls-1" x1="421.42" y1="233.73" x2="484.96" y2="412.92"/>
        <line class="cls-3" x1="486.04" y1="415.95" x2="487.04" y2="418.78"/>
      </g>
    </g>
  </g>
</svg>