<?xml version="1.0" encoding="UTF-8"?>
<svg xmlns="http://www.w3.org/2000/svg" version="1.1" viewBox="0 0 600 600">
  <defs>
    <style>
      .cls-1 {
        stroke: #0009aa;
      }

      .cls-1, .cls-2, .cls-3 {
        fill: none;
        stroke-miterlimit: 10;
        stroke-width: 2px;
      }

      .cls-4 {
        fill: #0009aa;
      }

      .cls-2 {
        stroke: #15ff50;
      }

      .cls-5 {
        fill: #ff2a54;
      }

      .cls-3 {
        stroke: #ff2a54;
      }

      .cls-6 {
        fill: #15ff50;
      }
    </style>
  </defs>
  <!-- Generator: Adobe Illustrator 28.7.1, SVG Export Plug-In . SVG Version: 1.2.0 Build 142)  -->
  <g>
    <g id="_레이어_1" data-name="레이어_1">
      <circle class="cls-2" cx="274.29" cy="288.52" r="103.88"/>
      <circle class="cls-1" cx="302.57" cy="313.36" r="103.88"/>
      <circle class="cls-3" cx="325.71" cy="286.11" r="103.88"/>
      <path class="cls-6" d="M186.64,183.09c-.04.51-.24,1.01-.61,1.5-.37.49-.83.95-1.37,1.37s-1.15.8-1.81,1.13c-.66.33-1.3.58-1.92.75.47.13.94.33,1.42.58.47.25.9.56,1.27.9.38.35.68.75.92,1.2.24.45.35.94.35,1.47,0,.28-.04.64-.13,1.06-.08.42-.23.87-.44,1.34-.21.47-.5.94-.86,1.4-.37.46-.83.88-1.4,1.24-.57.37-1.25.66-2.04.89-.79.23-1.72.34-2.77.34h-11.23c-.21.02-.36-.02-.45-.13-.09-.11-.14-.23-.14-.36s.05-.26.14-.38.25-.17.45-.17c.62,0,1.19-.07,1.7-.21.51-.14.84-.46.99-.95l4.67-15.13c.19-.6.08-.97-.33-1.11-.41-.14-1-.2-1.77-.18-.26,0-.46-.05-.59-.14-.13-.09-.2-.2-.2-.33s.05-.24.16-.34c.1-.1.26-.16.47-.16h9.68c.3,0,.57,0,.81.03.24.02.46.05.67.1.21.05.42.1.65.17s.48.14.76.21c.25.08.55.2.92.37.37.17.71.41,1.03.71.32.3.58.68.79,1.15.21.46.28,1.02.23,1.68ZM182.15,193.08c.3-1.09.37-1.93.2-2.52-.17-.59-.58-1.08-1.25-1.48-.26-.19-.63-.32-1.09-.41-.46-.08-1.15-.13-2.05-.13h-4.24l-2.29,7.53c-.09.32-.06.59.11.82.17.23.56.34,1.16.34h3.76c1.42,0,2.62-.34,3.61-1.01.99-.68,1.68-1.72,2.08-3.13ZM183.84,183.57c.11-.34.17-.72.17-1.15s-.09-.83-.27-1.22c-.18-.39-.47-.72-.86-.99-.4-.27-.94-.44-1.64-.49h-3.93c-.17-.02-.34,0-.51.08-.15.06-.29.15-.42.27-.13.12-.24.31-.31.55l-2.04,6.67h3.28c.28,0,.73-.02,1.34-.07.61-.05,1.26-.19,1.94-.42.68-.24,1.32-.61,1.92-1.12.6-.51,1.05-1.22,1.33-2.12Z"/>
      <path class="cls-6" d="M197.02,204.89h-7.02v-.5c.72,0,1.27-.04,1.64-.13.37-.08.63-.19.8-.32.16-.13.25-.27.26-.42.01-.15.02-.28.02-.4v-9.09c0-.17-.03-.31-.08-.42-.06-.11-.18-.2-.37-.26-.19-.06-.46-.11-.83-.13-.36-.02-.85-.03-1.46-.03v-.41c.52-.06,1.04-.17,1.54-.3.5-.14.95-.27,1.35-.42.46-.17.9-.36,1.31-.56v11.65c0,.1.01.23.04.37.03.14.12.28.3.41.17.13.45.24.83.33.38.09.93.14,1.66.14v.49Z"/>
      <path class="cls-5" d="M434.73,175.94c-.04.51-.24,1.01-.61,1.5-.37.49-.83.95-1.37,1.37s-1.15.8-1.81,1.13c-.66.33-1.3.58-1.92.75.47.13.94.33,1.42.58.47.25.9.56,1.27.9.38.35.68.75.92,1.2.24.45.35.94.35,1.47,0,.28-.04.64-.13,1.06-.08.42-.23.87-.44,1.34-.21.47-.5.94-.86,1.4-.37.46-.83.88-1.4,1.24-.57.37-1.25.66-2.04.89-.79.23-1.72.34-2.77.34h-11.23c-.21.02-.36-.02-.45-.13-.09-.11-.14-.23-.14-.36s.05-.26.14-.38.25-.17.45-.17c.62,0,1.19-.07,1.7-.21.51-.14.84-.46.99-.95l4.67-15.13c.19-.6.08-.97-.33-1.11-.41-.14-1-.2-1.77-.18-.26,0-.46-.05-.59-.14-.13-.09-.2-.2-.2-.33s.05-.24.16-.34c.1-.1.26-.16.47-.16h9.68c.3,0,.57,0,.81.03.24.02.46.05.67.1.21.05.42.1.65.17s.48.14.76.21c.25.08.55.2.92.37.37.17.71.41,1.03.71.32.3.58.68.79,1.15.21.46.28,1.02.23,1.68ZM430.23,185.94c.3-1.09.37-1.93.2-2.52-.17-.59-.58-1.08-1.25-1.48-.26-.19-.63-.32-1.09-.41-.46-.08-1.15-.13-2.05-.13h-4.24l-2.29,7.53c-.09.32-.06.59.11.82.17.23.56.34,1.16.34h3.76c1.42,0,2.62-.34,3.61-1.01.99-.68,1.68-1.72,2.08-3.13ZM431.93,176.42c.11-.34.17-.72.17-1.15s-.09-.83-.27-1.22c-.18-.39-.47-.72-.86-.99-.4-.27-.94-.44-1.64-.49h-3.93c-.17-.02-.34,0-.51.08-.15.06-.29.15-.42.27-.13.12-.24.31-.31.55l-2.04,6.67h3.28c.28,0,.73-.02,1.34-.07.61-.05,1.26-.19,1.94-.42.68-.24,1.32-.61,1.92-1.12.6-.51,1.05-1.22,1.33-2.12Z"/>
      <path class="cls-5" d="M445.67,194.27l-.86,3.48h-7.11c.09-.4.26-.83.51-1.28.25-.45.55-.92.89-1.39.34-.47.72-.95,1.12-1.43.41-.48.82-.95,1.23-1.42.33-.38.63-.73.92-1.08.29-.34.54-.69.74-1.04.21-.35.37-.71.49-1.07.12-.36.18-.76.18-1.18,0-.84-.21-1.5-.62-1.98s-1.01-.72-1.78-.72c-.19,0-.4.03-.65.09-.24.06-.48.15-.7.27-.23.12-.41.28-.56.46-.15.18-.22.39-.22.62,0,.16.02.27.08.36.05.08.11.17.18.26.07.09.13.19.18.3.05.11.08.27.08.48,0,.34-.11.58-.33.74-.22.16-.42.23-.61.23-.35,0-.61-.12-.78-.37-.17-.25-.25-.54-.25-.89,0-.39.11-.77.33-1.15.22-.38.51-.71.86-1,.36-.29.76-.53,1.22-.71.46-.18.92-.27,1.4-.27.59,0,1.12.09,1.6.26s.89.41,1.24.71c.34.3.61.65.8,1.05s.28.83.28,1.28c0,.48-.08.92-.25,1.31-.17.4-.39.76-.66,1.11-.27.34-.57.67-.89.97s-.64.6-.94.88c-1.16,1.06-2.07,1.96-2.71,2.69-.64.73-1.03,1.3-1.15,1.72h3.7c.25,0,.48-.01.7-.04s.43-.11.65-.26.42-.39.64-.72.44-.8.68-1.41l.41.14Z"/>
      <path class="cls-4" d="M316.98,431.15c-.04.51-.24,1.01-.61,1.5-.37.49-.83.95-1.37,1.37s-1.15.8-1.81,1.13c-.66.33-1.3.58-1.92.75.47.13.94.33,1.42.58.47.25.9.56,1.27.9.38.35.68.75.92,1.2.24.45.35.94.35,1.47,0,.28-.04.64-.13,1.06-.08.42-.23.87-.44,1.34-.21.47-.5.94-.86,1.4-.37.46-.83.88-1.4,1.24-.57.37-1.25.66-2.04.89-.79.23-1.72.34-2.77.34h-11.23c-.21.02-.36-.02-.45-.13-.09-.11-.14-.23-.14-.36s.05-.26.14-.38.25-.17.45-.17c.62,0,1.19-.07,1.7-.21.51-.14.84-.46.99-.95l4.67-15.13c.19-.6.08-.97-.33-1.11-.41-.14-1-.2-1.77-.18-.26,0-.46-.05-.59-.14-.13-.09-.2-.2-.2-.33s.05-.24.16-.34c.1-.1.26-.16.47-.16h9.68c.3,0,.57,0,.81.03.24.02.46.05.67.1.21.05.42.1.65.17s.48.14.76.21c.25.08.55.2.92.37.37.17.71.41,1.03.71.32.3.58.68.79,1.15.21.46.28,1.02.23,1.68ZM312.48,441.15c.3-1.09.37-1.93.2-2.52-.17-.59-.58-1.08-1.25-1.48-.26-.19-.63-.32-1.09-.41-.46-.08-1.15-.13-2.05-.13h-4.24l-2.29,7.53c-.09.32-.06.59.11.82.17.23.56.34,1.16.34h3.76c1.42,0,2.62-.34,3.61-1.01.99-.68,1.68-1.72,2.08-3.13ZM314.18,431.64c.11-.34.17-.72.17-1.15s-.09-.83-.27-1.22c-.18-.39-.47-.72-.86-.99-.4-.27-.94-.44-1.64-.49h-3.93c-.17-.02-.34,0-.51.08-.15.06-.29.15-.42.27-.13.12-.24.31-.31.55l-2.04,6.67h3.28c.28,0,.73-.02,1.34-.07.61-.05,1.26-.19,1.94-.42.68-.24,1.32-.61,1.92-1.12.6-.51,1.05-1.22,1.33-2.12Z"/>
      <path class="cls-4" d="M328.12,449.6c0,.57-.12,1.08-.35,1.54s-.55.85-.96,1.18-.89.59-1.44.77-1.15.27-1.79.27c-.29,0-.62-.05-1.01-.15-.39-.1-.76-.26-1.12-.47s-.67-.47-.93-.79c-.26-.32-.41-.7-.45-1.14-.03-.3.05-.55.23-.76.18-.21.41-.31.68-.31.17,0,.33.04.47.11s.25.16.35.27c.09.11.16.22.21.34.04.12.07.22.07.31,0,.06-.01.13-.04.18-.03.06-.05.13-.08.2s-.04.16-.06.24c-.01.08,0,.17.02.26.11.41.29.69.53.83.24.14.65.2,1.23.2.54,0,.98-.08,1.33-.25.35-.17.62-.39.82-.66.19-.27.33-.58.4-.93.08-.35.11-.71.11-1.09,0-.84-.12-1.48-.37-1.93-.24-.45-.52-.77-.83-.97-.31-.2-.61-.31-.9-.32-.29-.01-.5-.01-.61,0-.51.08-.85.09-1,.04-.16-.05-.23-.17-.23-.35s.09-.31.26-.39.49-.06.96.06c.1.03.28,0,.53-.08s.5-.23.76-.45c.26-.22.48-.52.68-.89.19-.38.29-.85.29-1.44,0-.88-.16-1.55-.48-2.01-.32-.46-.85-.69-1.6-.69-.33,0-.6.04-.82.13-.22.08-.4.19-.53.32-.14.13-.24.28-.3.44-.06.16-.09.32-.09.48,0,.14.03.29.08.43.05.14.08.29.08.43s-.04.26-.1.36-.15.17-.24.23c-.09.06-.19.1-.29.14-.1.03-.19.05-.26.05-.25,0-.46-.07-.63-.2-.17-.14-.25-.34-.25-.61,0-.39.1-.75.3-1.08.2-.33.46-.62.78-.87.32-.25.69-.45,1.1-.59.41-.14.83-.21,1.26-.21.49,0,.95.08,1.39.23.44.16.83.38,1.16.66s.61.63.81,1.03.3.85.3,1.34c0,.47-.11.88-.33,1.23-.22.36-.49.67-.81.93-.32.27-.66.49-1.03.66-.37.17-.7.3-1,.38.48.06.94.18,1.39.35.45.17.85.4,1.21.68s.64.62.85,1,.32.82.32,1.31Z"/>
    </g>
  </g>
</svg>