<?xml version="1.0" encoding="UTF-8"?>
<svg xmlns="http://www.w3.org/2000/svg" version="1.1" viewBox="0 0 600 600">
  <defs>
    <style>
      .cls-1 {
        stroke: #3000f4;
      }

      .cls-1, .cls-2, .cls-3 {
        fill: none;
        stroke-miterlimit: 10;
        stroke-width: 2px;
      }

      .cls-2 {
        stroke: #e90069;
      }

      .cls-3 {
        stroke: #000;
      }
    </style>
  </defs>
  <!-- Generator: Adobe Illustrator 28.7.1, SVG Export Plug-In . SVG Version: 1.2.0 Build 142)  -->
  <g>
    <g id="_레이어_1" data-name="레이어_1">
      <rect class="cls-3" x="69.3" y="221.8" width="216.6" height="172"/>
      <rect class="cls-3" x="323.1" y="221.8" width="216.6" height="172"/>
      <circle class="cls-1" cx="177.6" cy="307.8" r="6.8"/>
      <circle class="cls-1" cx="377.9" cy="350" r="6.8"/>
      <circle class="cls-1" cx="431.4" cy="264.8" r="6.8"/>
      <circle class="cls-1" cx="485.3" cy="307.8" r="6.8"/>
      <line class="cls-2" x1="118.9" y1="345.7" x2="130.1" y2="354.9"/>
      <line class="cls-2" x1="118.9" y1="355.5" x2="129" y2="345"/>
      <line class="cls-2" x1="227" y1="260.4" x2="237.5" y2="270.6"/>
      <line class="cls-2" x1="226.5" y1="270.9" x2="237.1" y2="260.4"/>
      <g>
        <path d="M284.5,449.2l.5,2.2c.5,2,1,3.8,1.5,5.4s1.7,5.1,3.7,10.6c.2-.7.6-2.3,1.2-4.7.7-3.1,1.2-5.1,1.5-5.9.7-2.4,1.4-4.1,2.1-5.2s1.4-1.9,2.2-2.4,1.7-.7,2.8-.7,1.5.2,1.9.5c.4.3.7.7.7,1.2s-.1.6-.4.8c-.2.3-.5.4-.8.4s-.5,0-.8-.2c-.6-.3-1-.4-1.2-.4-.2,0-.5,0-.8,0-.6,0-1.2.2-1.6.6-.8.7-1.7,2.6-2.6,5.6s-2.2,7.7-3.6,14.3l-.6,2.9c-1.5-3.2-2.4-5.5-2.9-6.8-.7-1.8-1.5-4.1-2.4-6.8l-2.1-6.6c-.3,1.5-.8,4.1-1.8,7.7-.9,3.6-1.5,5.7-1.7,6.3-.6,1.7-1.2,3.1-1.9,4-.7.9-1.4,1.6-2.2,2s-1.7.6-2.6.6-2.2-.3-2.9-.8c-.6-.4-.9-.9-.9-1.5s.1-.5.3-.7c.2-.2.5-.3.8-.3s.8.2,1.3.6c.8.8,1.6,1.1,2.2,1.1s1.4-.3,2.2-1c1-1,2-3.1,3-6.3,1.2-3.8,2.3-8.7,3.4-14.6-.4,0-1.3.1-2.6.4s-2.3.6-3.2,1.1-1.5,1.1-2,1.8-.7,1.5-.7,2.4,0,.8.2,1.2c0,.3.3.6.5,1,.3.5.4.8.4,1.1s-.1.6-.3.8-.5.3-.8.3c-.5,0-.9-.3-1.2-.8s-.5-1.3-.5-2.3c0-1.7.4-3.2,1.3-4.4.9-1.2,2-2.1,3.5-2.7.9-.4,2.7-.8,5.3-1.1,1-.1,1.9-.3,2.7-.5h0Z"/>
        <path d="M316.7,456.7v2.2h-17v-2.2h17ZM316.7,463.2v2.2h-17v-2.2h17Z"/>
        <path d="M323.1,453.8l-.8-.6c1.3-1.5,2.3-2.4,2.9-2.8,1.1-.7,2.2-1.1,3.4-1.1s2.1.3,2.8.9,1,1.4,1,2.3c0,2-1.5,4.1-4.5,6.3,1,0,1.8.2,2.4.6s1,.8,1.3,1.5c.3.6.5,1.4.5,2.4,0,2.5-1.2,4.8-3.7,6.9-2.1,1.8-4.3,2.7-6.6,2.7s-1.9-.2-2.7-.7c-.8-.4-1.2-1-1.2-1.7s.1-.5.3-.7c.2-.2.4-.3.7-.3s.8.2,1.3.7c.6.6,1.2,1,1.5,1.2.4.2.8.3,1.2.3,1,0,2.1-.6,3.3-1.8,1.8-1.7,2.7-3.6,2.7-5.7s-.3-1.9-.8-2.5c-.6-.6-1.3-.9-2.2-.9s-1.4.1-2.2.4v-1.2c1.8-.6,3.3-1.6,4.5-3.1.9-1,1.4-2,1.4-3.1s-.2-1.4-.6-1.9-1-.7-1.6-.7c-1.5,0-2.8.8-4.2,2.4h0Z"/>
      </g>
    </g>
  </g>
</svg>