<?xml version="1.0" encoding="UTF-8"?>
<svg xmlns="http://www.w3.org/2000/svg" version="1.1" viewBox="0 0 600 600">
  <defs>
    <style>
      .cls-1 {
        stroke: #3000f4;
      }

      .cls-1, .cls-2, .cls-3 {
        fill: none;
        stroke-miterlimit: 10;
        stroke-width: 2px;
      }

      .cls-2 {
        stroke: #e90069;
      }

      .cls-3 {
        stroke: #000;
      }
    </style>
  </defs>
  <!-- Generator: Adobe Illustrator 28.7.1, SVG Export Plug-In . SVG Version: 1.2.0 Build 142)  -->
  <g>
    <g id="_레이어_1" data-name="레이어_1">
      <rect class="cls-3" x="191.36" y="214.34" width="216.61" height="172"/>
      <circle class="cls-1" cx="299.67" cy="257.38" r="6.81"/>
      <circle class="cls-1" cx="317.82" cy="353.4" r="6.81"/>
      <line class="cls-2" x1="244.87" y1="337.38" x2="255.34" y2="347.52"/>
      <line class="cls-2" x1="244.36" y1="347.86" x2="254.92" y2="337.38"/>
      <line class="cls-2" x1="346.1" y1="297.1" x2="356.57" y2="307.23"/>
      <line class="cls-2" x1="345.59" y1="307.57" x2="356.14" y2="297.1"/>
      <g>
        <path d="M288.97,407.65l.19.8c.18.73.35,1.37.53,1.91s.62,1.81,1.33,3.79c.07-.25.21-.81.41-1.67.26-1.12.44-1.83.53-2.11.26-.84.5-1.46.74-1.86s.5-.68.79-.85.62-.26.99-.26c.3,0,.52.06.68.17s.24.25.24.41c0,.11-.04.21-.13.3s-.18.13-.3.13c-.08,0-.18-.02-.29-.07-.23-.09-.36-.14-.41-.16-.08-.02-.17-.03-.27-.03-.22,0-.41.08-.57.23-.28.26-.59.93-.93,1.99-.34,1.06-.77,2.76-1.3,5.09l-.23,1.02c-.52-1.14-.87-1.96-1.05-2.43-.25-.64-.53-1.45-.84-2.43l-.75-2.37c-.09.55-.3,1.47-.64,2.76-.33,1.3-.53,2.04-.6,2.24-.21.62-.43,1.09-.67,1.42s-.5.57-.79.72-.6.23-.94.23c-.43,0-.78-.1-1.05-.29-.21-.14-.31-.32-.31-.54,0-.1.04-.18.12-.26.08-.07.17-.11.28-.11.14,0,.29.08.46.23.29.27.56.4.8.4.26,0,.52-.12.77-.35.37-.36.73-1.1,1.08-2.24.42-1.37.82-3.11,1.21-5.22-.16,0-.46.05-.92.14s-.83.22-1.13.39c-.3.17-.54.38-.7.65-.16.27-.24.54-.24.84,0,.15.02.29.06.44.03.1.09.22.18.37.1.17.16.3.16.38,0,.11-.04.2-.12.28s-.18.12-.3.12c-.17,0-.32-.09-.44-.27-.12-.18-.18-.46-.18-.82,0-.61.15-1.13.46-1.56s.72-.75,1.23-.97c.33-.14.96-.27,1.9-.4.35-.05.67-.1.98-.18Z"/>
        <path d="M300.44,410.31v.77h-6.05v-.77h6.05ZM300.44,412.65v.77h-6.05v-.77h6.05Z"/>
        <path d="M306.16,413.1l-.14.72h-1.06l-.49,2.28h-.96l.49-2.28c-1.48,0-2.42,0-2.83.02-.05,0-.1,0-.13,0-.13,0-.2-.05-.2-.14,0-.04.05-.15.16-.33.52-.88,1.26-1.84,2.23-2.88.97-1.04,1.98-1.98,3.05-2.83h.19l-.29,1.1-.6,2.39-.46,1.95h1.03ZM304.16,413.1c.04-.23.13-.62.27-1.19l.66-2.67c-.89.84-1.54,1.5-1.95,1.96-.41.47-.9,1.1-1.47,1.89h2.49Z"/>
      </g>
    </g>
  </g>
</svg>