<?xml version="1.0" encoding="UTF-8"?>
<svg xmlns="http://www.w3.org/2000/svg" version="1.1" viewBox="0 0 600 600">
  <defs>
    <style>
      .cls-1 {
        font-family: AdobeMyungjoStd-Medium-KSCpc-EUC-H, 'Adobe Myungjo Std';
        font-size: 13.08px;
        font-weight: 500;
      }

      .cls-2 {
        fill: #231815;
      }

      .cls-3, .cls-4 {
        stroke: #231815;
      }

      .cls-3, .cls-4, .cls-5, .cls-6 {
        fill: none;
        stroke-miterlimit: 10;
      }

      .cls-4 {
        stroke-width: .75px;
      }

      .cls-7 {
        fill: #727171;
        opacity: .2;
      }

      .cls-5 {
        stroke: #e60012;
      }

      .cls-6 {
        stroke: #036eb8;
      }
    </style>
  </defs>
  <!-- Generator: Adobe Illustrator 28.7.1, SVG Export Plug-In . SVG Version: 1.2.0 Build 142)  -->
  <g>
    <g id="_레이어_2" data-name="레이어_2">
      <rect class="cls-3" x="194.16" y="181.83" width="212.35" height="212.35"/>
      <line class="cls-5" x1="194.16" y1="273.14" x2="406.51" y2="337.31"/>
      <line class="cls-5" x1="236.16" y1="212.23" x2="240.86" y2="218.1"/>
      <line class="cls-5" x1="236.16" y1="218.1" x2="240.86" y2="210.66"/>
      <line class="cls-5" x1="288.22" y1="233.64" x2="292.91" y2="239.51"/>
      <line class="cls-5" x1="288.22" y1="239.51" x2="292.91" y2="232.07"/>
      <line class="cls-5" x1="266.83" y1="324.16" x2="271.52" y2="330.03"/>
      <line class="cls-5" x1="266.83" y1="330.03" x2="271.52" y2="322.59"/>
      <line class="cls-5" x1="308.62" y1="371.56" x2="313.31" y2="377.43"/>
      <line class="cls-5" x1="308.62" y1="377.43" x2="313.31" y2="370"/>
      <circle class="cls-6" cx="337.9" cy="225.27" r="4.86"/>
      <circle class="cls-6" cx="395.55" cy="257.88" r="4.86"/>
      <circle class="cls-6" cx="341.61" cy="289.31" r="4.86"/>
      <circle class="cls-6" cx="384.87" cy="321.32" r="4.86"/>
      <circle class="cls-6" cx="345.83" cy="353.03" r="4.86"/>
    </g>
    <g id="_레이어_3" data-name="레이어_3">
      <polygon class="cls-7" points="194.16 181.83 194.16 273.14 406.51 337.31 406.51 181.83 194.16 181.83"/>
      <text class="cls-1" transform="translate(224.7 416.4)"><tspan x="0" y="0">Update the weight Vector</tspan></text>
    </g>
    <g id="_레이어_4" data-name="레이어_4">
      <rect class="cls-3" x="337.83" y="345.03" width="15.99" height="15.99"/>
      <g>
        <line class="cls-4" x1="375.92" y1="328.15" x2="371.94" y2="339.88"/>
        <polygon class="cls-2" points="369.84 336.54 370.52 336.23 372.04 339.61 375.29 337.85 375.65 338.51 371.68 340.65 369.84 336.54"/>
      </g>
      <g>
        <line class="cls-4" x1="367.27" y1="325.5" x2="363.3" y2="337.23"/>
        <polygon class="cls-2" points="361.19 333.89 361.87 333.58 363.39 336.95 366.64 335.2 367 335.86 363.04 338 361.19 333.89"/>
      </g>
      <g>
        <line class="cls-4" x1="358.43" y1="322.9" x2="354.46" y2="334.63"/>
        <polygon class="cls-2" points="352.35 331.29 353.04 330.98 354.55 334.36 357.81 332.6 358.16 333.26 354.2 335.4 352.35 331.29"/>
      </g>
      <g>
        <line class="cls-4" x1="349.27" y1="319.93" x2="345.3" y2="331.66"/>
        <polygon class="cls-2" points="343.19 328.32 343.88 328.01 345.39 331.38 348.65 329.62 349 330.29 345.04 332.43 343.19 328.32"/>
      </g>
      <g>
        <line class="cls-4" x1="338.16" y1="316.65" x2="334.19" y2="328.38"/>
        <polygon class="cls-2" points="332.08 325.04 332.77 324.73 334.28 328.11 337.53 326.35 337.89 327.01 333.93 329.15 332.08 325.04"/>
      </g>
    </g>
  </g>
</svg>