<?xml version="1.0" encoding="UTF-8"?>
<svg xmlns="http://www.w3.org/2000/svg" version="1.1" viewBox="0 0 600 600">
  <defs>
    <style>
      .cls-1 {
        font-family: AdobeMyungjoStd-Medium-KSCpc-EUC-H, 'Adobe Myungjo Std';
        font-size: 13.08px;
        font-weight: 500;
      }

      .cls-2 {
        stroke: #231815;
      }

      .cls-2, .cls-3, .cls-4 {
        fill: none;
        stroke-miterlimit: 10;
      }

      .cls-5 {
        fill: #727171;
        opacity: .2;
      }

      .cls-3 {
        stroke: #e60012;
      }

      .cls-4 {
        stroke: #036eb8;
      }
    </style>
  </defs>
  <!-- Generator: Adobe Illustrator 28.7.1, SVG Export Plug-In . SVG Version: 1.2.0 Build 142)  -->
  <g>
    <g id="_레이어_2" data-name="레이어_2">
      <rect class="cls-2" x="193.83" y="181.83" width="212.35" height="212.35"/>
      <line class="cls-3" x1="193.83" y1="273.14" x2="406.17" y2="337.31"/>
      <line class="cls-3" x1="235.83" y1="212.23" x2="240.52" y2="218.1"/>
      <line class="cls-3" x1="235.83" y1="218.1" x2="240.52" y2="210.66"/>
      <line class="cls-3" x1="287.88" y1="233.64" x2="292.58" y2="239.51"/>
      <line class="cls-3" x1="287.88" y1="239.51" x2="292.58" y2="232.07"/>
      <line class="cls-3" x1="266.49" y1="324.16" x2="271.19" y2="330.03"/>
      <line class="cls-3" x1="266.49" y1="330.03" x2="271.19" y2="322.59"/>
      <line class="cls-3" x1="308.28" y1="371.56" x2="312.98" y2="377.43"/>
      <line class="cls-3" x1="308.28" y1="377.43" x2="312.98" y2="370"/>
      <circle class="cls-4" cx="337.57" cy="225.27" r="4.86"/>
      <circle class="cls-4" cx="395.21" cy="257.88" r="4.86"/>
      <circle class="cls-4" cx="341.28" cy="289.31" r="4.86"/>
      <circle class="cls-4" cx="384.53" cy="321.32" r="4.86"/>
      <circle class="cls-4" cx="345.49" cy="353.03" r="4.86"/>
    </g>
    <g id="_레이어_3" data-name="레이어_3">
      <polygon class="cls-5" points="193.83 181.83 193.83 273.14 406.17 337.31 406.17 181.83 193.83 181.83"/>
      <text class="cls-1" transform="translate(240.52 416.4)"><tspan x="0" y="0">Misclassified data</tspan></text>
    </g>
  </g>
</svg>