<?xml version="1.0" encoding="UTF-8"?>
<svg xmlns="http://www.w3.org/2000/svg" version="1.1" viewBox="0 0 600 600">
  <defs>
    <style>
      .cls-1 {
        stroke: #231815;
      }

      .cls-1, .cls-2, .cls-3 {
        fill: none;
        stroke-miterlimit: 10;
      }

      .cls-4 {
        fill: #727171;
        opacity: .2;
      }

      .cls-2 {
        stroke: #e60012;
      }

      .cls-3 {
        stroke: #036eb8;
      }

      .cls-5 {
        font-family: AdobeMyungjoStd-Medium-KSCpc-EUC-H, 'Adobe Myungjo Std';
        font-size: 12px;
        font-weight: 500;
      }
    </style>
  </defs>
  <!-- Generator: Adobe Illustrator 28.7.1, SVG Export Plug-In . SVG Version: 1.2.0 Build 142)  -->
  <g>
    <g id="_레이어_2" data-name="레이어_2">
      <rect class="cls-1" x="81.05" y="79.33" width="437.91" height="437.91"/>
      <line class="cls-2" x1="81.05" y1="267.62" x2="518.95" y2="399.96"/>
      <line class="cls-2" x1="167.66" y1="142" x2="177.34" y2="154.11"/>
      <line class="cls-2" x1="167.66" y1="154.11" x2="177.34" y2="138.78"/>
      <line class="cls-2" x1="275.02" y1="186.16" x2="284.7" y2="198.26"/>
      <line class="cls-2" x1="275.02" y1="198.26" x2="284.7" y2="182.93"/>
      <line class="cls-2" x1="230.9" y1="372.83" x2="240.59" y2="384.94"/>
      <line class="cls-2" x1="230.9" y1="384.94" x2="240.59" y2="369.6"/>
      <line class="cls-2" x1="317.08" y1="470.59" x2="326.76" y2="482.69"/>
      <line class="cls-2" x1="317.08" y1="482.69" x2="326.76" y2="467.36"/>
      <circle class="cls-3" cx="377.47" cy="168.9" r="10.02"/>
      <circle class="cls-3" cx="496.35" cy="236.16" r="10.02"/>
      <circle class="cls-3" cx="385.13" cy="300.97" r="10.02"/>
      <circle class="cls-3" cx="474.33" cy="366.98" r="10.02"/>
      <circle class="cls-3" cx="393.82" cy="432.37" r="10.02"/>
    </g>
    <g id="_레이어_3" data-name="레이어_3">
      <polygon class="cls-4" points="81.05 79.33 81.05 267.62 518.95 399.96 518.95 79.33 81.05 79.33"/>
      <text class="cls-5" transform="translate(260.11 544.84)"><tspan x="0" y="0">Misclassified data</tspan></text>
    </g>
  </g>
</svg>