<?xml version="1.0" encoding="UTF-8"?>
<svg xmlns="http://www.w3.org/2000/svg" version="1.1" viewBox="0 0 600 600">
  <defs>
    <style>
      .cls-1 {
        fill: #231815;
      }

      .cls-2, .cls-3, .cls-4 {
        fill: none;
        stroke-miterlimit: 10;
      }

      .cls-2, .cls-4 {
        stroke: #231815;
      }

      .cls-3 {
        stroke: #e60012;
      }

      .cls-4 {
        stroke-width: .8px;
      }
    </style>
  </defs>
  <!-- Generator: Adobe Illustrator 28.7.1, SVG Export Plug-In . SVG Version: 1.2.0 Build 142)  -->
  <g>
    <g id="_레이어_1" data-name="레이어_1">
      <path d="M186.54,125.35c0,.13-.05.23-.15.31-.1.08-.19.11-.27.11-.08,0-.14-.01-.19-.04s-.11-.06-.16-.09c-.05-.03-.11-.07-.17-.1-.06-.03-.13-.05-.21-.05-.18,0-.34.06-.47.19-.13.12-.25.29-.36.5-.11.21-.2.45-.29.73-.09.28-.17.58-.26.89h1.29l-.07.34h-1.27c-.18.74-.37,1.43-.57,2.09-.08.29-.17.58-.27.88-.1.3-.19.58-.29.85-.1.27-.2.53-.31.77-.11.24-.21.44-.31.61-.31.51-.62.9-.94,1.18-.31.28-.64.42-.97.42-.15,0-.26-.05-.32-.15s-.1-.22-.1-.38c0-.13.06-.22.18-.26.12-.05.25-.07.4-.09.15-.01.3-.01.44-.01s.25-.01.31-.05c.17-.1.3-.2.4-.32.1-.11.19-.28.27-.49.08-.21.15-.5.23-.85.08-.35.17-.82.3-1.4.05-.22.11-.49.21-.81.09-.32.18-.62.27-.92.11-.35.22-.71.34-1.08h-1.09l.07-.34h1.16c.11-.32.24-.65.42-1,.17-.35.37-.67.59-.97.22-.29.47-.54.73-.74s.54-.29.84-.29c.24,0,.39.06.48.19s.12.24.12.36Z"/>
      <path d="M191.72,127.88c0,.2-.07.37-.22.51s-.32.21-.52.21-.37-.07-.51-.22c-.14-.14-.22-.31-.22-.51,0-.21.07-.39.21-.53.14-.14.31-.22.52-.22s.39.07.53.22c.14.14.21.33.21.55ZM191.72,131.75c0,.2-.07.37-.22.51s-.32.22-.52.22-.37-.07-.51-.22c-.14-.15-.22-.32-.22-.52,0-.21.07-.39.21-.53.14-.14.31-.21.52-.21s.39.07.53.21c.14.14.21.32.21.54Z"/>
      <path d="M205.07,132.96h-3.47l.11-.34c.07,0,.17,0,.3-.02.13-.01.26-.03.39-.06.13-.03.23-.08.32-.15.08-.07.11-.16.07-.27l-.87-2.76-2.38,2.35c-.14.14-.22.26-.24.38-.03.11,0,.21.05.29.06.08.16.14.29.18.13.04.29.06.47.06l-.11.34h-2.97l.11-.34c.35,0,.68-.08,1-.23.32-.15.61-.35.87-.6l2.79-2.75-1.02-3.37c-.02-.07-.05-.12-.08-.17-.03-.05-.08-.08-.16-.11-.07-.03-.18-.05-.32-.06-.14-.01-.33-.01-.57,0l.11-.34h3.25l-.11.34c-.44,0-.73.04-.86.11-.13.08-.17.21-.11.41l.74,2.42,2.13-2.14c.09-.09.17-.19.23-.29.06-.1.08-.18.06-.26-.02-.08-.08-.14-.2-.19-.12-.05-.3-.07-.56-.07l.11-.34h2.74l-.11.34c-.21,0-.38.01-.53.03-.15.02-.29.06-.4.1-.12.04-.22.1-.31.17-.09.06-.18.14-.26.22l-2.77,2.76,1.04,3.26c.05.15.12.28.2.38.09.1.19.18.3.23.11.06.24.09.38.11.14.02.28.03.43.03l-.11.34Z"/>
      <path d="M218.7,129.58l-2.95,1.95-.14-.16,1.37-1.63h-9.91v-.34h9.9l-1.4-1.66.17-.14,2.96,1.97Z"/>
      <path d="M230.27,125.33c-.21-.01-.41,0-.59.06s-.35.12-.49.22c-.15.09-.28.19-.4.3-.12.11-.22.22-.31.31l-3.16,3.43-.79,2.37c-.09.27-.02.43.2.5.22.07.56.1,1,.1l-.11.34h-3.71l.11-.34c.45,0,.8-.04,1.05-.12.25-.08.42-.24.5-.5l.73-2.19-1.02-3.83c-.02-.07-.05-.14-.08-.22-.03-.08-.08-.15-.14-.22-.07-.07-.17-.12-.3-.17-.13-.04-.32-.06-.56-.06l.11-.34h3.37l-.11.34c-.46,0-.79.05-.98.14-.19.09-.27.23-.23.4l.87,3.43,2.88-3.17c.16-.18.23-.32.21-.43-.02-.1-.08-.18-.19-.23s-.23-.09-.37-.11c-.14-.02-.26-.03-.35-.04l.11-.34h2.88l-.11.34Z"/>
      <path d="M143.31,238.62c0-.62.06-1.21.19-1.76s.28-1.08.47-1.56.4-.93.63-1.33.46-.75.69-1.05c.23-.3.44-.55.64-.75.2-.2.35-.33.46-.41.06-.05.12-.04.17,0,.05.05.04.11-.03.17-.31.35-.61.75-.9,1.2-.29.45-.54.94-.75,1.49-.22.54-.39,1.15-.53,1.8-.13.66-.21,1.38-.21,2.16,0,.72.04,1.38.15,1.98.11.6.24,1.15.41,1.63s.35.91.55,1.29c.2.37.39.69.56.95.17.26.33.46.46.6.13.14.21.23.23.26.07.07.09.14.05.2s-.09.07-.16.02c-.22-.14-.51-.4-.85-.78-.35-.38-.68-.87-1.02-1.47-.33-.59-.62-1.28-.85-2.07-.24-.78-.35-1.65-.34-2.59Z"/>
      <path d="M154.72,238.77c-.04.19-.11.32-.22.39-.11.07-.23.1-.36.1s-.23-.03-.31-.1c-.08-.07-.13-.16-.15-.27-.02-.09,0-.18.03-.28.04-.09.11-.16.21-.19.05-.08.05-.17.01-.26-.04-.09-.16-.14-.36-.14-.1,0-.23.05-.37.15s-.3.25-.47.45-.33.46-.5.76c-.17.31-.32.67-.46,1.08-.14.42-.25.8-.32,1.14-.08.35-.11.64-.1.89s.07.44.17.58.27.21.49.21c.2,0,.4-.05.58-.15.18-.1.35-.22.51-.36.16-.14.29-.29.41-.44.12-.15.21-.28.28-.39l.3.25c-.07.14-.18.3-.33.49s-.31.37-.5.55c-.19.18-.39.33-.59.45-.21.12-.41.18-.62.18-.41,0-.74-.12-.98-.36-.23-.24-.35-.56-.35-.97-.07.15-.18.3-.33.46s-.31.3-.49.43-.39.23-.6.31c-.22.08-.44.12-.66.12-.18,0-.33-.03-.46-.09-.13-.06-.25-.14-.35-.23-.1-.09-.17-.2-.22-.32-.05-.12-.08-.24-.08-.36,0-.53.19-.79.57-.79.18,0,.33.05.43.15.1.1.15.21.15.33,0,.13-.03.25-.08.35-.06.11-.14.17-.25.19-.03.14.03.23.16.26.13.04.29.03.48-.03.19-.06.38-.15.58-.3.2-.14.36-.33.48-.55.12-.22.24-.51.37-.86.12-.35.24-.7.34-1.06.1-.35.19-.68.26-.97s.12-.49.14-.6c0-.11,0-.22-.05-.34s-.1-.22-.17-.32c-.07-.1-.16-.18-.26-.24-.1-.06-.2-.1-.3-.1-.15,0-.29.04-.44.12-.14.08-.28.18-.4.3s-.24.23-.34.35c-.1.12-.18.21-.25.28l-.24-.29c.1-.09.21-.21.33-.35.12-.14.25-.28.39-.41s.3-.24.46-.33.35-.13.55-.13.37.05.53.15.29.22.4.37c.11.15.19.31.25.48.06.17.08.33.07.48.09-.1.21-.23.34-.4s.29-.33.46-.48c.17-.16.36-.29.56-.41.2-.12.42-.17.65-.17s.4.04.54.13c.14.09.24.2.32.33.07.13.12.26.14.4.02.14.02.26,0,.37Z"/>
      <path d="M159.92,246.97h-3.43v-.25c.35,0,.62-.02.8-.06.18-.04.31-.09.39-.16.08-.06.12-.13.13-.2,0-.07,0-.14,0-.19v-4.44c0-.08-.01-.15-.04-.2-.03-.05-.09-.1-.18-.13s-.23-.05-.4-.06c-.18,0-.42-.01-.72-.01v-.2c.26-.03.51-.08.75-.15s.46-.13.66-.2c.23-.08.44-.17.64-.28v5.7c0,.05,0,.11.02.18s.06.14.15.2c.09.06.22.12.41.16s.46.07.81.07v.24Z"/>
      <path d="M163.84,243.05c-.06.24-.16.46-.29.66-.13.2-.27.38-.42.53-.15.15-.29.28-.44.37s-.26.16-.35.19c-.03,0-.06-.02-.08-.06-.03-.04-.03-.06-.01-.08.08-.05.18-.12.3-.23.12-.11.22-.24.33-.39.1-.15.18-.32.24-.5.06-.18.08-.37.05-.57,0-.04-.04-.05-.12-.03-.08.02-.17.03-.28.02-.11,0-.22-.04-.34-.11-.12-.07-.23-.21-.32-.42-.06-.12-.06-.25-.03-.4.04-.15.1-.28.2-.39.1-.12.22-.2.38-.26.16-.06.33-.06.51,0,.32.1.54.32.64.66s.11.68.02,1.03Z"/>
      <path d="M173.27,237.53c-.35.9-.67,1.73-.95,2.47-.12.32-.24.64-.36.95-.12.31-.23.6-.34.86-.11.26-.19.49-.26.68-.07.19-.12.33-.15.4-.05.14-.14.36-.28.66-.14.3-.32.6-.56.91-.23.31-.53.58-.87.81-.35.23-.75.35-1.21.35-.38,0-.67-.03-.89-.1-.21-.07-.37-.15-.47-.25s-.16-.2-.19-.32c-.02-.12-.03-.21-.03-.3,0-.18.06-.32.18-.4s.23-.12.33-.12c.08,0,.18.05.3.15.12.1.18.21.18.32,0,.15-.02.25-.06.3s-.09.1-.13.15c0,.07.04.13.11.17.07.04.16.07.27.09s.22.03.34.03c.12,0,.23,0,.32-.02.17-.03.35-.11.52-.24.17-.13.33-.29.48-.48s.28-.4.41-.62.23-.44.33-.65c.09-.21.17-.4.24-.57.06-.17.11-.3.14-.39-.2.22-.43.4-.69.54s-.56.21-.91.21c-.18,0-.36-.02-.55-.07-.19-.05-.36-.13-.49-.26-.13-.12-.21-.3-.24-.52s.04-.51.19-.86c.32-.7.57-1.28.75-1.73.18-.45.3-.77.37-.94.03-.08.04-.18.04-.28s-.02-.2-.05-.27-.09-.11-.16-.12c-.07,0-.17.05-.28.17-.12.13-.24.26-.37.39s-.24.25-.34.36c-.12.13-.24.25-.35.37l-.21-.29c.06-.08.16-.21.3-.38.13-.17.29-.34.46-.52.17-.17.35-.33.53-.46.18-.13.36-.19.54-.19.13,0,.24.03.35.1s.18.16.24.26.1.22.11.35c.01.13,0,.26-.06.39l-1.16,3.15c-.09.24-.08.44.03.62.11.17.27.27.48.31.21.04.45,0,.71-.13.26-.12.49-.36.71-.71.21-.34.42-.76.62-1.25.2-.49.38-.97.54-1.43.18-.53.36-1.09.54-1.66h.97Z"/>
      <path d="M178.01,246.97h-3.43v-.25c.35,0,.62-.02.8-.06.18-.04.31-.09.39-.16.08-.06.12-.13.13-.2,0-.07,0-.14,0-.19v-4.44c0-.08-.01-.15-.04-.2-.03-.05-.09-.1-.18-.13s-.23-.05-.4-.06c-.18,0-.42-.01-.72-.01v-.2c.26-.03.51-.08.75-.15s.46-.13.66-.2c.23-.08.44-.17.64-.28v5.7c0,.05,0,.11.02.18s.06.14.15.2c.09.06.22.12.41.16s.46.07.81.07v.24Z"/>
      <path d="M182.67,231.76c.11.07.27.21.46.41.2.2.41.45.64.75.23.3.45.65.69,1.05.23.4.44.84.63,1.33.19.48.35,1,.47,1.56s.19,1.15.19,1.76c0,.94-.1,1.8-.34,2.59-.23.78-.52,1.47-.85,2.07-.33.59-.67,1.08-1.02,1.47-.35.38-.63.64-.85.78-.06.05-.12.04-.16-.02s-.03-.13.05-.2c.03-.03.11-.11.23-.26.13-.14.28-.34.46-.6s.36-.57.56-.95c.2-.37.38-.8.55-1.29s.3-1.03.41-1.63c.11-.6.15-1.26.15-1.98,0-.78-.08-1.5-.21-2.16-.13-.66-.31-1.26-.53-1.8-.22-.54-.48-1.04-.76-1.49-.29-.45-.59-.85-.9-1.2-.06-.06-.06-.12-.02-.17.04-.05.1-.05.17,0Z"/>
      <path d="M189.96,243.05c-.06.24-.16.46-.29.66-.13.2-.27.38-.42.53-.15.15-.29.28-.44.37s-.26.16-.35.19c-.03,0-.06-.02-.08-.06-.03-.04-.03-.06-.01-.08.08-.05.18-.12.3-.23.12-.11.22-.24.33-.39.1-.15.18-.32.24-.5.06-.18.08-.37.05-.57,0-.04-.04-.05-.12-.03-.08.02-.17.03-.28.02-.11,0-.22-.04-.34-.11-.12-.07-.23-.21-.32-.42-.06-.12-.06-.25-.03-.4.04-.15.1-.28.2-.39.1-.12.22-.2.38-.26.16-.06.33-.06.51,0,.32.1.54.32.64.66s.11.68.02,1.03Z"/>
      <path d="M197,242.16c0,.24-.09.44-.27.61s-.39.25-.64.25-.45-.09-.62-.26-.26-.38-.26-.62.08-.46.26-.64c.17-.18.38-.26.63-.26s.47.09.65.26c.18.17.26.39.26.65Z"/>
      <path d="M201.26,242.16c0,.24-.09.44-.27.61s-.39.25-.64.25-.45-.09-.62-.26-.26-.38-.26-.62.08-.46.26-.64c.17-.18.38-.26.63-.26s.47.09.65.26c.18.17.26.39.26.65Z"/>
      <path d="M205.53,242.16c0,.24-.09.44-.27.61s-.39.25-.64.25-.45-.09-.62-.26-.26-.38-.26-.62.08-.46.26-.64c.17-.18.38-.26.63-.26s.47.09.65.26c.18.17.26.39.26.65Z"/>
      <path d="M211.46,243.05c-.06.24-.16.46-.29.66-.13.2-.27.38-.42.53-.15.15-.29.28-.44.37s-.26.16-.35.19c-.03,0-.06-.02-.08-.06-.03-.04-.03-.06-.01-.08.08-.05.18-.12.3-.23.12-.11.22-.24.33-.39.1-.15.18-.32.24-.5.06-.18.08-.37.05-.57,0-.04-.04-.05-.12-.03-.08.02-.17.03-.28.02-.11,0-.22-.04-.34-.11-.12-.07-.23-.21-.32-.42-.06-.12-.06-.25-.03-.4.04-.15.1-.28.2-.39.1-.12.22-.2.38-.26.16-.06.33-.06.51,0,.32.1.54.32.64.66s.11.68.02,1.03Z"/>
      <path d="M218.06,238.62c0-.62.06-1.21.19-1.76s.28-1.08.47-1.56.4-.93.63-1.33.46-.75.69-1.05c.23-.3.44-.55.64-.75.2-.2.35-.33.46-.41.06-.05.12-.04.17,0,.05.05.04.11-.03.17-.31.35-.61.75-.9,1.2-.29.45-.54.94-.75,1.49-.22.54-.39,1.15-.53,1.8-.13.66-.21,1.38-.21,2.16,0,.72.04,1.38.15,1.98.11.6.24,1.15.41,1.63s.35.91.55,1.29c.2.37.39.69.56.95.17.26.33.46.46.6.13.14.21.23.23.26.07.07.09.14.05.2s-.09.07-.16.02c-.22-.14-.51-.4-.85-.78-.35-.38-.68-.87-1.02-1.47-.33-.59-.62-1.28-.85-2.07-.24-.78-.35-1.65-.34-2.59Z"/>
      <path d="M229.64,238.77c-.04.19-.11.32-.22.39-.11.07-.23.1-.36.1s-.23-.03-.31-.1c-.08-.07-.13-.16-.15-.27-.02-.09,0-.18.03-.28.04-.09.11-.16.21-.19.05-.08.05-.17.01-.26-.04-.09-.16-.14-.36-.14-.1,0-.23.05-.37.15s-.3.25-.47.45-.33.46-.5.76c-.17.31-.32.67-.46,1.08-.14.42-.25.8-.32,1.14-.08.35-.11.64-.1.89s.07.44.17.58.27.21.49.21c.2,0,.4-.05.58-.15.18-.1.35-.22.51-.36.16-.14.29-.29.41-.44.12-.15.21-.28.28-.39l.3.25c-.07.14-.18.3-.33.49s-.31.37-.5.55c-.19.18-.39.33-.59.45-.21.12-.41.18-.62.18-.41,0-.74-.12-.98-.36-.23-.24-.35-.56-.35-.97-.07.15-.18.3-.33.46s-.31.3-.49.43-.39.23-.6.31c-.22.08-.44.12-.66.12-.18,0-.33-.03-.46-.09-.13-.06-.25-.14-.35-.23-.1-.09-.17-.2-.22-.32-.05-.12-.08-.24-.08-.36,0-.53.19-.79.57-.79.18,0,.33.05.43.15.1.1.15.21.15.33,0,.13-.03.25-.08.35-.06.11-.14.17-.25.19-.03.14.03.23.16.26.13.04.29.03.48-.03.19-.06.38-.15.58-.3.2-.14.36-.33.48-.55.12-.22.24-.51.37-.86.12-.35.24-.7.34-1.06.1-.35.19-.68.26-.97s.12-.49.14-.6c0-.11,0-.22-.05-.34s-.1-.22-.17-.32c-.07-.1-.16-.18-.26-.24-.1-.06-.2-.1-.3-.1-.15,0-.29.04-.44.12-.14.08-.28.18-.4.3s-.24.23-.34.35c-.1.12-.18.21-.25.28l-.24-.29c.1-.09.21-.21.33-.35.12-.14.25-.28.39-.41s.3-.24.46-.33.35-.13.55-.13.37.05.53.15.29.22.4.37c.11.15.19.31.25.48.06.17.08.33.07.48.09-.1.21-.23.34-.4s.29-.33.46-.48c.17-.16.36-.29.56-.41.2-.12.42-.17.65-.17s.4.04.54.13c.14.09.24.2.32.33.07.13.12.26.14.4.02.14.02.26,0,.37Z"/>
      <path d="M239.7,240.61c-.2,0-.38.04-.53.11-.15.08-.28.17-.38.28-.1.11-.18.22-.24.34-.06.12-.1.21-.13.29l-1.83,5.48h-.19l-2.23-5.76-1.42,4.25c-.07.22-.11.4-.11.54s.03.25.09.33c.06.08.15.14.27.17.12.03.27.04.45.04l-.09.29h-2.42l.09-.29c.21,0,.4-.02.55-.08.15-.05.28-.12.39-.22.11-.1.2-.21.28-.34.07-.13.13-.28.19-.45l1.45-4.36c.06-.18.02-.33-.12-.45-.14-.12-.38-.19-.73-.19l.1-.3h1.59l2.05,5.33,1.33-4c.1-.3.11-.54.03-.74-.08-.19-.29-.29-.64-.29l.1-.3h2.19l-.1.3Z"/>
      <path d="M243.2,243.05c-.06.24-.16.46-.29.66-.13.2-.27.38-.42.53-.15.15-.29.28-.44.37s-.26.16-.35.19c-.03,0-.06-.02-.08-.06-.03-.04-.03-.06-.01-.08.08-.05.18-.12.3-.23.12-.11.22-.24.33-.39.1-.15.18-.32.24-.5.06-.18.08-.37.05-.57,0-.04-.04-.05-.12-.03-.08.02-.17.03-.28.02-.11,0-.22-.04-.34-.11-.12-.07-.23-.21-.32-.42-.06-.12-.06-.25-.03-.4.04-.15.1-.28.2-.39.1-.12.22-.2.38-.26.16-.06.33-.06.51,0,.32.1.54.32.64.66s.11.68.02,1.03Z"/>
      <path d="M254.33,237.53c-.35.9-.67,1.73-.95,2.47-.12.32-.24.64-.36.95-.12.31-.23.6-.34.86-.11.26-.19.49-.26.68-.07.19-.12.33-.15.4-.05.14-.14.36-.28.66-.14.3-.32.6-.56.91-.23.31-.53.58-.87.81-.35.23-.75.35-1.21.35-.38,0-.67-.03-.89-.1-.21-.07-.37-.15-.47-.25s-.16-.2-.19-.32c-.02-.12-.03-.21-.03-.3,0-.18.06-.32.18-.4s.23-.12.33-.12c.08,0,.18.05.3.15.12.1.18.21.18.32,0,.15-.02.25-.06.3s-.09.1-.13.15c0,.07.04.13.11.17.07.04.16.07.27.09s.22.03.34.03c.12,0,.23,0,.32-.02.17-.03.35-.11.52-.24.17-.13.33-.29.48-.48s.28-.4.41-.62.23-.44.33-.65c.09-.21.17-.4.24-.57.06-.17.11-.3.14-.39-.2.22-.43.4-.69.54s-.56.21-.91.21c-.18,0-.36-.02-.55-.07-.19-.05-.36-.13-.49-.26-.13-.12-.21-.3-.24-.52s.04-.51.19-.86c.32-.7.57-1.28.75-1.73.18-.45.3-.77.37-.94.03-.08.04-.18.04-.28s-.02-.2-.05-.27-.09-.11-.16-.12c-.07,0-.17.05-.28.17-.12.13-.24.26-.37.39s-.24.25-.34.36c-.12.13-.24.25-.35.37l-.21-.29c.06-.08.16-.21.3-.38.13-.17.29-.34.46-.52.17-.17.35-.33.53-.46.18-.13.36-.19.54-.19.13,0,.24.03.35.1s.18.16.24.26.1.22.11.35c.01.13,0,.26-.06.39l-1.16,3.15c-.09.24-.08.44.03.62.11.17.27.27.48.31.21.04.45,0,.71-.13.26-.12.49-.36.71-.71.21-.34.42-.76.62-1.25.2-.49.38-.97.54-1.43.18-.53.36-1.09.54-1.66h.97Z"/>
      <path d="M263.93,240.61c-.2,0-.38.04-.53.11-.15.08-.28.17-.38.28-.1.11-.18.22-.24.34-.06.12-.1.21-.13.29l-1.83,5.48h-.19l-2.23-5.76-1.42,4.25c-.07.22-.11.4-.11.54s.03.25.09.33c.06.08.15.14.27.17.12.03.27.04.45.04l-.09.29h-2.42l.09-.29c.21,0,.4-.02.55-.08.15-.05.28-.12.39-.22.11-.1.2-.21.28-.34.07-.13.13-.28.19-.45l1.45-4.36c.06-.18.02-.33-.12-.45-.14-.12-.38-.19-.73-.19l.1-.3h1.59l2.05,5.33,1.33-4c.1-.3.11-.54.03-.74-.08-.19-.29-.29-.64-.29l.1-.3h2.19l-.1.3Z"/>
      <path d="M265.78,231.76c.11.07.27.21.46.41.2.2.41.45.64.75.23.3.45.65.69,1.05.23.4.44.84.63,1.33.19.48.35,1,.47,1.56s.19,1.15.19,1.76c0,.94-.1,1.8-.34,2.59-.23.78-.52,1.47-.85,2.07-.33.59-.67,1.08-1.02,1.47-.35.38-.63.64-.85.78-.06.05-.12.04-.16-.02s-.03-.13.05-.2c.03-.03.11-.11.23-.26.13-.14.28-.34.46-.6s.36-.57.56-.95c.2-.37.38-.8.55-1.29s.3-1.03.41-1.63c.11-.6.15-1.26.15-1.98,0-.78-.08-1.5-.21-2.16-.13-.66-.31-1.26-.53-1.8-.22-.54-.48-1.04-.76-1.49-.29-.45-.59-.85-.9-1.2-.06-.06-.06-.12-.02-.17.04-.05.1-.05.17,0Z"/>
      <path d="M431.42,346.03c-.26,1.01-.51,1.96-.77,2.85-.1.38-.22.76-.34,1.15s-.24.76-.36,1.11c-.12.35-.24.67-.36.96-.12.29-.23.52-.33.69-.14.23-.3.42-.48.55-.18.13-.37.23-.55.29-.19.06-.37.09-.56.1-.19,0-.36,0-.51-.03-.16-.03-.29-.06-.4-.09-.11-.04-.19-.06-.23-.08-.19-.08-.35-.19-.47-.33s-.19-.3-.19-.47c0-.15.04-.27.13-.36.09-.1.21-.15.36-.17.14-.02.26.01.36.08.1.07.15.19.15.34,0,.08-.01.16-.03.26-.02.09-.04.18-.06.25,0,.09.07.17.2.23s.29.08.47.08.37-.04.55-.11c.19-.07.33-.19.43-.34.12-.19.23-.4.33-.64s.18-.45.25-.65c.09-.23.16-.47.23-.7-.07.05-.15.11-.25.16-.1.06-.21.1-.34.14s-.27.06-.43.07c-.16,0-.32-.01-.49-.07-.2-.05-.38-.17-.56-.37s-.31-.44-.4-.73c-.09-.29-.13-.63-.12-1.01.02-.38.12-.79.31-1.22.18-.42.38-.76.58-1.01.21-.25.4-.45.57-.6.21-.16.41-.27.61-.35.28-.11.52-.16.73-.14.21.02.38.08.52.16.14.09.26.19.34.31.08.12.14.23.16.32l.13-.66h.8ZM430.25,347.64c.04-.2.06-.38.04-.54-.02-.15-.06-.29-.13-.43s-.19-.25-.36-.32c-.1-.04-.19-.07-.29-.08-.09,0-.18,0-.29.02-.11.02-.22.08-.34.17-.22.17-.43.38-.62.66-.16.23-.33.54-.49.91-.16.37-.27.82-.34,1.35-.05.39-.03.7.07.93.09.23.23.4.41.49s.38.11.6.07.43-.15.64-.32c.1-.09.21-.22.3-.39.1-.17.19-.36.27-.57.08-.21.16-.42.22-.65.07-.22.12-.43.17-.62.05-.19.08-.34.11-.47.03-.12.04-.2.04-.21Z"/>
      <path d="M444.6,345.44c-.16.16-.31.32-.47.47-.16.15-.32.28-.5.39-.18.11-.37.2-.58.27s-.45.1-.72.1c-.35,0-.71-.05-1.05-.16-.35-.1-.7-.22-1.05-.34-.35-.12-.71-.23-1.07-.34-.36-.1-.73-.16-1.11-.16-.23,0-.44.03-.62.08-.18.06-.35.13-.5.23-.15.09-.29.2-.42.32-.13.12-.25.25-.36.39l-.48-.25c.16-.18.32-.35.48-.5.17-.15.34-.28.54-.4.19-.11.41-.2.63-.27.23-.06.49-.1.79-.1.36,0,.72.05,1.06.15.35.1.69.21,1.03.33s.69.23,1.03.33c.35.1.71.15,1.08.15.42,0,.78-.09,1.06-.29.29-.19.53-.41.73-.66l.51.22ZM444.6,349.01c-.16.17-.31.32-.47.47-.16.15-.32.28-.5.39-.18.11-.37.2-.58.27-.21.07-.45.1-.72.1-.35,0-.71-.05-1.05-.16s-.7-.22-1.05-.34-.71-.23-1.07-.34c-.36-.1-.73-.16-1.11-.16-.23,0-.44.03-.62.08-.18.06-.35.13-.5.23-.15.1-.29.2-.42.32-.13.12-.25.25-.36.39l-.48-.25c.16-.18.32-.35.48-.5.17-.15.34-.28.54-.4.19-.11.41-.2.63-.27.23-.06.49-.1.79-.1.36,0,.72.05,1.06.15.35.1.69.21,1.03.33s.69.23,1.03.33c.35.1.71.15,1.08.15.43,0,.79-.09,1.07-.29s.52-.41.72-.66l.51.22Z"/>
      <path d="M456.85,342.97c0,.15-.06.26-.17.35-.11.09-.22.13-.31.13-.09,0-.16-.02-.22-.05s-.12-.06-.18-.1-.12-.08-.19-.11c-.06-.03-.14-.05-.24-.05-.21,0-.39.07-.54.21-.15.14-.29.33-.41.57-.12.24-.23.51-.33.83-.1.32-.2.66-.29,1.02h1.46l-.08.39h-1.45c-.21.84-.42,1.63-.65,2.39-.09.33-.2.66-.3,1s-.22.66-.33.97c-.11.31-.23.6-.35.88-.12.27-.24.5-.35.69-.35.58-.71,1.03-1.07,1.35-.36.32-.73.48-1.11.48-.17,0-.3-.06-.37-.17s-.11-.25-.11-.43c0-.15.07-.25.2-.3s.29-.08.46-.1c.17-.01.34-.02.51-.01.16,0,.28-.01.35-.06.19-.11.34-.23.46-.36.12-.13.22-.32.3-.56.09-.24.17-.56.26-.97.09-.4.2-.94.34-1.6.05-.25.13-.56.23-.92.1-.36.21-.71.31-1.05.12-.4.25-.81.39-1.23h-1.25l.08-.39h1.32c.12-.36.28-.74.47-1.14.2-.4.42-.77.67-1.1s.53-.62.83-.84c.3-.22.62-.34.95-.34.27,0,.45.07.54.21s.14.28.14.41Z"/>
      <path d="M292.16,366.19h-2.84l.1-.29c.08,0,.18-.02.31-.03.12-.02.25-.04.36-.08s.22-.09.31-.17c.09-.07.13-.17.13-.28l-.02-1.55h-2.83l-.87,1.32c-.1.14-.14.25-.12.36.02.1.07.18.15.25.08.07.17.11.28.15.11.03.21.05.31.05l-.1.29h-2.44l.1-.29c.19,0,.36-.02.51-.06.15-.04.28-.1.39-.17.11-.07.21-.15.29-.24s.16-.18.23-.28l3.98-5.86.86-.27.17,6.24c0,.19.08.34.22.45.15.11.35.17.62.17l-.1.31ZM290.52,363.45l-.1-3.66-2.5,3.66h2.61Z"/>
      <path d="M208.44,445.39h-2.76l.1-.29c.2,0,.37-.02.5-.05.13-.03.24-.07.33-.13.08-.05.15-.11.2-.18.05-.07.08-.14.1-.21l.84-2.53h-3.27l-.83,2.51c-.03.08-.04.15-.06.22-.01.07,0,.13.05.19.04.06.12.1.23.13.11.03.28.05.5.05l-.1.29h-2.72l.1-.29c.2,0,.37-.02.5-.05.13-.04.24-.08.32-.14.08-.06.15-.12.19-.19.05-.07.08-.14.11-.21l1.69-5.08c.02-.07.04-.14.04-.21,0-.07-.02-.13-.07-.18s-.13-.09-.24-.12c-.11-.03-.27-.04-.47-.04l.1-.29h2.72l-.1.29c-.22,0-.4.02-.53.04-.13.03-.24.07-.32.12-.08.05-.14.11-.17.18-.03.06-.06.14-.09.21l-.76,2.28h3.27l.76-2.28c.02-.07.04-.14.04-.21,0-.07-.03-.13-.08-.18-.05-.05-.13-.09-.25-.12-.11-.03-.27-.04-.47-.04l.1-.29h2.76l-.1.29c-.22,0-.4.02-.53.04-.13.03-.24.07-.32.12s-.14.11-.17.18c-.04.06-.07.14-.09.21l-1.7,5.11c-.03.08-.04.15-.05.22,0,.07,0,.13.05.18s.12.09.24.12c.11.03.28.04.5.04l-.1.29Z"/>
      <g>
        <path d="M127.78,151.7c-1.09,1.4-1.92,3.14-1.92,5.38,0,2.04.67,3.87,1.92,5.51h-.68c-.86-1.12-1.83-3.03-1.83-5.52s.98-4.32,1.83-5.37h.68Z"/>
        <path d="M129.25,151.71h.6v1.16h-.6v-1.16ZM129.25,154.55h.6v6h-.6v-6Z"/>
        <path d="M136.45,151.71v7.11c0,.58,0,1.13.01,1.73h-.58c-.02-.14-.04-.71-.04-1.01-.3.73-.97,1.15-2.01,1.15-1.56,0-2.49-1.27-2.49-3.07s1.02-3.21,2.65-3.21c1.2,0,1.68.52,1.86.9v-3.6h.6ZM131.98,157.6c0,1.64.85,2.53,1.88,2.53,1.58,0,2.01-1.09,2.01-2.72s-.37-2.44-1.91-2.44c-1.19,0-1.99.95-1.99,2.63Z"/>
        <path d="M138.55,157.62c.01,1.55.79,2.51,1.94,2.51s1.51-.64,1.73-1.13h.61c-.25.79-.89,1.69-2.36,1.69-1.82,0-2.53-1.57-2.53-3.09,0-1.72.85-3.19,2.6-3.19,1.85,0,2.43,1.6,2.43,2.72,0,.17,0,.34-.01.49h-4.41ZM142.36,157.09c-.01-1.19-.66-2.12-1.83-2.12-1.24,0-1.8.86-1.93,2.12h3.77Z"/>
        <path d="M148.56,159.41c0,.53.05.95.08,1.14h-.58c-.05-.14-.08-.41-.11-.92-.2.44-.73,1.07-1.97,1.07-1.39,0-1.99-.9-1.99-1.8,0-1.32,1.02-1.92,2.82-1.92h1.14v-.61c0-.6-.18-1.4-1.55-1.4-1.21,0-1.39.64-1.52,1.13h-.6c.07-.66.48-1.68,2.13-1.68,1.37,0,2.13.58,2.13,1.9v3.11ZM147.97,157.49h-1.18c-1.33,0-2.16.35-2.16,1.38,0,.76.54,1.27,1.38,1.27,1.71,0,1.96-1.14,1.96-2.43v-.22Z"/>
        <path d="M150.54,160.55v-8.84h.6v8.84h-.6Z"/>
        <path d="M160.64,158.78c-.29,1.06-.98,1.91-2.33,1.91-1.5,0-2.57-1.12-2.57-3.12,0-1.64.88-3.17,2.64-3.17,1.52,0,2.15,1.08,2.25,1.92h-.61c-.18-.7-.64-1.36-1.65-1.36-1.27,0-1.99,1.08-1.99,2.58s.67,2.58,1.93,2.58c.88,0,1.4-.44,1.71-1.34h.61Z"/>
        <path d="M162.04,156.18c0-1.01-.01-1.44-.01-1.63h.59c.01.19.02.58.02,1.34.35-.9,1.12-1.44,2.09-1.49v.65c-1.25.08-2.09.95-2.09,2.38v3.12h-.6v-4.37Z"/>
        <path d="M165.96,157.62c.01,1.55.79,2.51,1.94,2.51s1.51-.64,1.73-1.13h.61c-.25.79-.89,1.69-2.36,1.69-1.82,0-2.53-1.57-2.53-3.09,0-1.72.85-3.19,2.6-3.19,1.85,0,2.43,1.6,2.43,2.72,0,.17,0,.34-.01.49h-4.41ZM169.76,157.09c-.01-1.19-.66-2.12-1.83-2.12-1.24,0-1.8.86-1.93,2.12h3.77Z"/>
        <path d="M176.54,151.71v7.11c0,.58,0,1.13.01,1.73h-.58c-.02-.14-.04-.71-.04-1.01-.3.73-.97,1.15-2.01,1.15-1.56,0-2.49-1.27-2.49-3.07s1.02-3.21,2.65-3.21c1.2,0,1.68.52,1.86.9v-3.6h.6ZM172.07,157.6c0,1.64.85,2.53,1.88,2.53,1.58,0,2.01-1.09,2.01-2.72s-.37-2.44-1.91-2.44c-1.19,0-1.99.95-1.99,2.63Z"/>
        <path d="M178.51,151.71h.6v1.16h-.6v-1.16ZM178.51,154.55h.6v6h-.6v-6Z"/>
        <path d="M180.27,154.55h1.12v-1.87h.6v1.87h1.43v.56h-1.43v3.9c0,.67.14,1.06.72,1.06.18,0,.43-.01.62-.07v.53c-.2.08-.49.11-.74.11-.77,0-1.2-.38-1.2-1.34v-4.17h-1.12v-.56Z"/>
        <path d="M191.87,159.41c0,.53.05.95.08,1.14h-.58c-.05-.14-.08-.41-.11-.92-.2.44-.73,1.07-1.97,1.07-1.39,0-1.99-.9-1.99-1.8,0-1.32,1.02-1.92,2.82-1.92h1.14v-.61c0-.6-.18-1.4-1.55-1.4-1.21,0-1.39.64-1.52,1.13h-.6c.07-.66.48-1.68,2.13-1.68,1.37,0,2.13.58,2.13,1.9v3.11ZM191.28,157.49h-1.18c-1.33,0-2.16.35-2.16,1.38,0,.76.54,1.27,1.38,1.27,1.71,0,1.96-1.14,1.96-2.43v-.22Z"/>
        <path d="M194.45,159.66v3.29h-.6v-6.92c0-.49,0-1.02-.01-1.48h.59c.02.23.02.59.02,1.08.37-.72,1.03-1.22,2.11-1.22,1.42,0,2.4,1.19,2.4,2.99,0,2.16-1.15,3.3-2.6,3.3-1.06,0-1.61-.47-1.91-1.03ZM198.32,157.42c0-1.39-.67-2.43-1.86-2.43-1.45,0-2.05.91-2.05,2.54s.47,2.6,1.97,2.6c1.25,0,1.94-1.06,1.94-2.71Z"/>
        <path d="M201.06,159.66v3.29h-.6v-6.92c0-.49,0-1.02-.01-1.48h.59c.02.23.02.59.02,1.08.37-.72,1.03-1.22,2.11-1.22,1.42,0,2.4,1.19,2.4,2.99,0,2.16-1.15,3.3-2.6,3.3-1.06,0-1.61-.47-1.91-1.03ZM204.93,157.42c0-1.39-.67-2.43-1.86-2.43-1.45,0-2.05.91-2.05,2.54s.47,2.6,1.97,2.6c1.25,0,1.94-1.06,1.94-2.71Z"/>
        <path d="M207.07,156.18c0-1.01-.01-1.44-.01-1.63h.59c.01.19.02.58.02,1.34.35-.9,1.12-1.44,2.09-1.49v.65c-1.25.08-2.09.95-2.09,2.38v3.12h-.6v-4.37Z"/>
        <path d="M215.72,157.54c0,1.67-.92,3.15-2.71,3.15-1.62,0-2.63-1.33-2.63-3.14,0-1.71.95-3.14,2.69-3.14,1.59,0,2.65,1.25,2.65,3.13ZM211.02,157.55c0,1.43.77,2.58,2.04,2.58s2.03-1.07,2.03-2.58c0-1.42-.72-2.58-2.05-2.58s-2.02,1.14-2.02,2.58Z"/>
        <path d="M217.13,154.55c.97,2.75,1.64,4.62,1.87,5.38h.01c.13-.44.8-2.23,1.97-5.38h.64l-2.27,6h-.72l-2.13-6h.64Z"/>
        <path d="M226.8,159.41c0,.53.05.95.08,1.14h-.58c-.05-.14-.08-.41-.11-.92-.2.44-.73,1.07-1.97,1.07-1.39,0-1.99-.9-1.99-1.8,0-1.32,1.02-1.92,2.82-1.92h1.14v-.61c0-.6-.18-1.4-1.55-1.4-1.21,0-1.39.64-1.52,1.13h-.6c.07-.66.48-1.68,2.13-1.68,1.37,0,2.13.58,2.13,1.9v3.11ZM226.21,157.49h-1.18c-1.33,0-2.16.35-2.16,1.38,0,.76.54,1.27,1.38,1.27,1.71,0,1.96-1.14,1.96-2.43v-.22Z"/>
        <path d="M228.78,160.55v-8.84h.6v8.84h-.6Z"/>
        <path d="M234.62,160.55v-5.43h-1.03v-.56h1.03v-.85c0-1.01.29-2.11,1.63-2.11.18,0,.44.04.59.08v.58c-.18-.05-.47-.07-.65-.07-.71,0-.97.5-.97,1.55v.83h1.31v.56h-1.31v5.43h-.6Z"/>
        <path d="M242.01,158.8c0,.59.01,1.52.01,1.75h-.58c-.02-.16-.04-.55-.04-1.04-.25.71-.86,1.19-1.93,1.19-.86,0-1.97-.34-1.97-2.17v-3.97h.59v3.83c0,.88.28,1.73,1.46,1.73,1.34,0,1.85-.76,1.85-2.47v-3.08h.6v4.25Z"/>
        <path d="M243.98,156.06c0-.53,0-1.03-.01-1.51h.59c.02.19.04.97.02,1.14.26-.61.76-1.28,1.99-1.28,1.07,0,2.01.6,2.01,2.25v3.89h-.6v-3.79c0-1.07-.44-1.76-1.49-1.76-1.43,0-1.92,1.19-1.92,2.49v3.06h-.6v-4.49Z"/>
        <path d="M254.97,158.78c-.29,1.06-.98,1.91-2.33,1.91-1.5,0-2.57-1.12-2.57-3.12,0-1.64.88-3.17,2.64-3.17,1.52,0,2.15,1.08,2.25,1.92h-.61c-.18-.7-.64-1.36-1.65-1.36-1.27,0-1.99,1.08-1.99,2.58s.67,2.58,1.93,2.58c.88,0,1.4-.44,1.71-1.34h.61Z"/>
        <path d="M255.61,154.55h1.12v-1.87h.6v1.87h1.43v.56h-1.43v3.9c0,.67.14,1.06.72,1.06.18,0,.43-.01.62-.07v.53c-.2.08-.49.11-.74.11-.77,0-1.2-.38-1.2-1.34v-4.17h-1.12v-.56Z"/>
        <path d="M259.98,151.71h.6v1.16h-.6v-1.16ZM259.98,154.55h.6v6h-.6v-6Z"/>
        <path d="M267.4,157.54c0,1.67-.92,3.15-2.71,3.15-1.62,0-2.63-1.33-2.63-3.14,0-1.71.95-3.14,2.69-3.14,1.59,0,2.65,1.25,2.65,3.13ZM262.7,157.55c0,1.43.77,2.58,2.04,2.58s2.03-1.07,2.03-2.58c0-1.42-.72-2.58-2.05-2.58s-2.02,1.14-2.02,2.58Z"/>
        <path d="M268.9,156.06c0-.53,0-1.03-.01-1.51h.59c.02.19.04.97.02,1.14.26-.61.76-1.28,1.99-1.28,1.07,0,2.01.6,2.01,2.25v3.89h-.6v-3.79c0-1.07-.44-1.76-1.49-1.76-1.43,0-1.92,1.19-1.92,2.49v3.06h-.6v-4.49Z"/>
        <path d="M274.74,162.59c1.09-1.4,1.92-3.14,1.92-5.39,0-2.04-.67-3.87-1.92-5.5h.68c.86,1.12,1.83,3.03,1.83,5.52s-.98,4.32-1.83,5.37h-.68Z"/>
      </g>
      <g>
        <path d="M112.76,262.43c-1.09,1.4-1.92,3.14-1.92,5.38,0,2.04.67,3.87,1.92,5.51h-.68c-.86-1.12-1.83-3.03-1.83-5.52s.98-4.32,1.83-5.37h.68Z"/>
        <path d="M114.84,262.45v3.85c.34-.62.92-1.15,1.98-1.15.85,0,2.03.43,2.03,2.33v3.81h-.6v-3.69c0-1.19-.54-1.86-1.54-1.86-1.19,0-1.87.73-1.87,2.21v3.35h-.6v-8.84h.6Z"/>
        <path d="M120.81,262.45h.6v1.16h-.6v-1.16ZM120.81,265.29h.6v6h-.6v-6Z"/>
        <path d="M123.32,269.63c.2.78.76,1.25,1.7,1.25,1.07,0,1.5-.49,1.5-1.16s-.29-1.02-1.63-1.34c-1.55-.37-1.93-.84-1.93-1.63s.62-1.6,1.98-1.6,2,.83,2.1,1.68h-.6c-.11-.5-.5-1.13-1.52-1.13s-1.34.52-1.34,1c0,.55.29.83,1.48,1.12,1.69.41,2.11.96,2.11,1.86,0,1.09-.89,1.76-2.15,1.76-1.37,0-2.13-.72-2.3-1.8h.61Z"/>
        <path d="M127.71,265.29h1.12v-1.87h.6v1.87h1.43v.56h-1.43v3.9c0,.67.14,1.06.72,1.06.18,0,.43-.01.62-.07v.53c-.2.08-.49.11-.74.11-.77,0-1.2-.38-1.2-1.34v-4.17h-1.12v-.56Z"/>
        <path d="M136.87,268.27c0,1.67-.92,3.15-2.71,3.15-1.62,0-2.63-1.33-2.63-3.14,0-1.71.95-3.14,2.69-3.14,1.59,0,2.65,1.25,2.65,3.13ZM132.16,268.29c0,1.43.77,2.58,2.04,2.58s2.03-1.07,2.03-2.58c0-1.42-.72-2.58-2.05-2.58s-2.02,1.14-2.02,2.58Z"/>
        <path d="M138.36,266.92c0-1.01-.01-1.44-.01-1.63h.59c.01.19.02.58.02,1.34.35-.9,1.12-1.44,2.09-1.49v.65c-1.25.08-2.09.95-2.09,2.38v3.12h-.6v-4.37Z"/>
        <path d="M142.15,262.45h.6v1.16h-.6v-1.16ZM142.15,265.29h.6v6h-.6v-6Z"/>
        <path d="M149.13,269.52c-.29,1.06-.98,1.91-2.33,1.91-1.5,0-2.57-1.12-2.57-3.12,0-1.64.88-3.17,2.64-3.17,1.52,0,2.15,1.08,2.25,1.92h-.61c-.18-.7-.64-1.36-1.65-1.36-1.27,0-1.99,1.08-1.99,2.58s.67,2.58,1.93,2.58c.88,0,1.4-.44,1.71-1.34h.61Z"/>
        <path d="M154.69,270.15c0,.53.05.95.08,1.14h-.58c-.05-.14-.08-.41-.11-.92-.2.44-.73,1.07-1.97,1.07-1.39,0-1.99-.9-1.99-1.8,0-1.32,1.02-1.92,2.82-1.92h1.14v-.61c0-.6-.18-1.4-1.55-1.4-1.21,0-1.39.64-1.52,1.13h-.6c.07-.66.48-1.68,2.13-1.68,1.37,0,2.13.58,2.13,1.9v3.11ZM154.1,268.23h-1.18c-1.33,0-2.16.35-2.16,1.38,0,.76.54,1.27,1.38,1.27,1.71,0,1.95-1.14,1.95-2.43v-.22Z"/>
        <path d="M156.67,271.28v-8.84h.6v8.84h-.6Z"/>
        <path d="M162.36,266.92c0-1.01-.01-1.44-.01-1.63h.59c.01.19.02.58.02,1.34.35-.9,1.12-1.44,2.09-1.49v.65c-1.25.08-2.09.95-2.09,2.38v3.12h-.6v-4.37Z"/>
        <path d="M166.28,268.36c.01,1.55.79,2.51,1.94,2.51s1.51-.64,1.73-1.13h.61c-.25.79-.89,1.69-2.36,1.69-1.82,0-2.53-1.57-2.53-3.09,0-1.72.85-3.19,2.6-3.19,1.85,0,2.43,1.6,2.43,2.72,0,.17,0,.34-.01.49h-4.41ZM170.08,267.83c-.01-1.19-.66-2.12-1.83-2.12-1.24,0-1.8.86-1.93,2.12h3.77Z"/>
        <path d="M176.65,269.52c-.29,1.06-.98,1.91-2.33,1.91-1.5,0-2.57-1.12-2.57-3.12,0-1.64.88-3.17,2.64-3.17,1.52,0,2.15,1.08,2.25,1.92h-.61c-.18-.7-.64-1.36-1.65-1.36-1.27,0-1.99,1.08-1.99,2.58s.67,2.58,1.93,2.58c.88,0,1.4-.44,1.71-1.34h.61Z"/>
        <path d="M182.96,268.27c0,1.67-.92,3.15-2.71,3.15-1.62,0-2.63-1.33-2.63-3.14,0-1.71.95-3.14,2.69-3.14,1.59,0,2.65,1.25,2.65,3.13ZM178.26,268.29c0,1.43.77,2.58,2.04,2.58s2.03-1.07,2.03-2.58c0-1.42-.72-2.58-2.05-2.58s-2.02,1.14-2.02,2.58Z"/>
        <path d="M184.45,266.92c0-1.01-.01-1.44-.01-1.63h.59c.01.19.02.58.02,1.34.35-.9,1.12-1.44,2.09-1.49v.65c-1.25.08-2.09.95-2.09,2.38v3.12h-.6v-4.37Z"/>
        <path d="M192.87,262.45v7.11c0,.58,0,1.13.01,1.73h-.58c-.02-.14-.04-.71-.04-1.01-.3.73-.97,1.15-2.01,1.15-1.56,0-2.49-1.27-2.49-3.07s1.02-3.21,2.65-3.21c1.2,0,1.68.52,1.86.9v-3.6h.6ZM188.4,268.33c0,1.64.85,2.53,1.88,2.53,1.58,0,2.01-1.09,2.01-2.72s-.37-2.44-1.91-2.44c-1.19,0-1.99.95-1.99,2.63Z"/>
        <path d="M194.78,269.63c.2.78.76,1.25,1.7,1.25,1.07,0,1.5-.49,1.5-1.16s-.29-1.02-1.63-1.34c-1.55-.37-1.93-.84-1.93-1.63s.62-1.6,1.98-1.6,2,.83,2.1,1.68h-.6c-.11-.5-.5-1.13-1.52-1.13s-1.34.52-1.34,1c0,.55.29.83,1.48,1.12,1.69.41,2.11.96,2.11,1.86,0,1.09-.89,1.76-2.15,1.76-1.37,0-2.13-.72-2.3-1.8h.61Z"/>
        <path d="M208.08,268.27c0,1.67-.92,3.15-2.71,3.15-1.62,0-2.63-1.33-2.63-3.14,0-1.71.95-3.14,2.69-3.14,1.59,0,2.65,1.25,2.65,3.13ZM203.38,268.29c0,1.43.77,2.58,2.04,2.58s2.03-1.07,2.03-2.58c0-1.42-.72-2.58-2.05-2.58s-2.02,1.14-2.02,2.58Z"/>
        <path d="M209.83,271.28v-5.43h-1.03v-.56h1.03v-.85c0-1.01.29-2.11,1.63-2.11.18,0,.44.04.59.08v.58c-.18-.05-.47-.07-.65-.07-.71,0-.97.5-.97,1.55v.83h1.31v.56h-1.31v5.43h-.6Z"/>
        <path d="M220.22,269.52c-.29,1.06-.98,1.91-2.33,1.91-1.5,0-2.57-1.12-2.57-3.12,0-1.64.88-3.17,2.64-3.17,1.52,0,2.15,1.08,2.25,1.92h-.61c-.18-.7-.64-1.36-1.65-1.36-1.27,0-1.99,1.08-1.99,2.58s.67,2.58,1.93,2.58c.88,0,1.4-.44,1.71-1.34h.61Z"/>
        <path d="M221.61,266.92c0-1.01-.01-1.44-.01-1.63h.59c.01.19.02.58.02,1.34.35-.9,1.12-1.44,2.09-1.49v.65c-1.25.08-2.09.95-2.09,2.38v3.12h-.6v-4.37Z"/>
        <path d="M225.53,268.36c.01,1.55.79,2.51,1.94,2.51s1.51-.64,1.73-1.13h.61c-.25.79-.89,1.69-2.36,1.69-1.82,0-2.53-1.57-2.53-3.09,0-1.72.85-3.19,2.6-3.19,1.85,0,2.43,1.6,2.43,2.72,0,.17,0,.34-.01.49h-4.41ZM229.34,267.83c-.01-1.19-.66-2.12-1.83-2.12-1.24,0-1.8.86-1.93,2.12h3.77Z"/>
        <path d="M236.12,262.45v7.11c0,.58,0,1.13.01,1.73h-.58c-.02-.14-.04-.71-.04-1.01-.3.73-.97,1.15-2.01,1.15-1.56,0-2.49-1.27-2.49-3.07s1.02-3.21,2.65-3.21c1.2,0,1.68.52,1.86.9v-3.6h.6ZM231.64,268.33c0,1.64.85,2.53,1.88,2.53,1.58,0,2.01-1.09,2.01-2.72s-.37-2.44-1.91-2.44c-1.19,0-1.99.95-1.99,2.63Z"/>
        <path d="M238.09,262.45h.6v1.16h-.6v-1.16ZM238.09,265.29h.6v6h-.6v-6Z"/>
        <path d="M239.84,265.29h1.12v-1.87h.6v1.87h1.43v.56h-1.43v3.9c0,.67.14,1.06.72,1.06.18,0,.43-.01.62-.07v.53c-.2.08-.49.11-.74.11-.77,0-1.2-.38-1.2-1.34v-4.17h-1.12v-.56Z"/>
        <path d="M251.74,269.52c-.29,1.06-.98,1.91-2.33,1.91-1.5,0-2.57-1.12-2.57-3.12,0-1.64.88-3.17,2.64-3.17,1.52,0,2.15,1.08,2.25,1.92h-.61c-.18-.7-.64-1.36-1.65-1.36-1.27,0-1.99,1.08-1.99,2.58s.67,2.58,1.93,2.58c.88,0,1.4-.44,1.71-1.34h.61Z"/>
        <path d="M257.56,269.53c0,.59.01,1.52.01,1.75h-.58c-.02-.16-.04-.55-.04-1.04-.25.71-.86,1.19-1.93,1.19-.86,0-1.97-.34-1.97-2.17v-3.97h.59v3.83c0,.88.28,1.73,1.46,1.73,1.34,0,1.85-.76,1.85-2.47v-3.08h.6v4.25Z"/>
        <path d="M259.46,269.63c.2.78.76,1.25,1.7,1.25,1.07,0,1.5-.49,1.5-1.16s-.29-1.02-1.63-1.34c-1.55-.37-1.93-.84-1.93-1.63s.62-1.6,1.98-1.6,2,.83,2.1,1.68h-.6c-.11-.5-.5-1.13-1.52-1.13s-1.34.52-1.34,1c0,.55.29.83,1.48,1.12,1.69.41,2.11.96,2.11,1.86,0,1.09-.89,1.76-2.15,1.76-1.37,0-2.13-.72-2.3-1.8h.61Z"/>
        <path d="M263.85,265.29h1.12v-1.87h.6v1.87h1.43v.56h-1.43v3.9c0,.67.14,1.06.72,1.06.18,0,.43-.01.62-.07v.53c-.2.08-.49.11-.74.11-.77,0-1.2-.38-1.2-1.34v-4.17h-1.12v-.56Z"/>
        <path d="M273,268.27c0,1.67-.92,3.15-2.71,3.15-1.62,0-2.63-1.33-2.63-3.14,0-1.71.95-3.14,2.69-3.14,1.59,0,2.65,1.25,2.65,3.13ZM268.3,268.29c0,1.43.77,2.58,2.04,2.58s2.03-1.07,2.03-2.58c0-1.42-.72-2.58-2.05-2.58s-2.02,1.14-2.02,2.58Z"/>
        <path d="M274.49,266.83c0-.52,0-1.08-.01-1.55h.59c.01.2.04.72.02,1.07.25-.6.8-1.21,1.8-1.21.84,0,1.5.42,1.74,1.19.3-.62.9-1.19,1.96-1.19.92,0,1.88.53,1.88,2.19v3.95h-.6v-3.87c0-.8-.29-1.68-1.4-1.68s-1.69.94-1.69,2.1v3.45h-.59v-3.86c0-.88-.26-1.69-1.37-1.69-1.16,0-1.73,1.03-1.73,2.25v3.3h-.6v-4.45Z"/>
        <path d="M284.57,268.36c.01,1.55.79,2.51,1.94,2.51s1.51-.64,1.73-1.13h.61c-.25.79-.89,1.69-2.36,1.69-1.82,0-2.53-1.57-2.53-3.09,0-1.72.85-3.19,2.6-3.19,1.85,0,2.43,1.6,2.43,2.72,0,.17,0,.34-.01.49h-4.41ZM288.38,267.83c-.01-1.19-.66-2.12-1.83-2.12-1.24,0-1.8.86-1.93,2.12h3.77Z"/>
        <path d="M290.47,266.92c0-1.01-.01-1.44-.01-1.63h.59c.01.19.02.58.02,1.34.35-.9,1.12-1.44,2.09-1.49v.65c-1.25.08-2.09.95-2.09,2.38v3.12h-.6v-4.37Z"/>
        <path d="M294.4,269.63c.2.78.76,1.25,1.7,1.25,1.07,0,1.5-.49,1.5-1.16s-.29-1.02-1.63-1.34c-1.55-.37-1.93-.84-1.93-1.63s.62-1.6,1.98-1.6,2,.83,2.1,1.68h-.6c-.11-.5-.5-1.13-1.52-1.13s-1.34.52-1.34,1c0,.55.29.83,1.48,1.12,1.69.41,2.11.96,2.11,1.86,0,1.09-.89,1.76-2.15,1.76-1.37,0-2.13-.72-2.3-1.8h.61Z"/>
        <path d="M299.24,273.32c1.09-1.4,1.92-3.14,1.92-5.39,0-2.04-.67-3.87-1.92-5.5h.68c.86,1.12,1.83,3.03,1.83,5.52s-.98,4.32-1.83,5.37h-.68Z"/>
      </g>
      <g>
        <path d="M139.5,466.63c-1.09,1.4-1.92,3.14-1.92,5.38,0,2.04.67,3.87,1.92,5.5h-.68c-.86-1.12-1.83-3.03-1.83-5.52s.98-4.32,1.83-5.37h.68Z"/>
        <path d="M140.98,473.83c.2.78.76,1.25,1.7,1.25,1.07,0,1.5-.49,1.5-1.16s-.29-1.02-1.63-1.34c-1.55-.37-1.93-.84-1.93-1.63s.62-1.6,1.98-1.6,2,.83,2.1,1.68h-.6c-.11-.5-.5-1.13-1.52-1.13s-1.34.52-1.34,1c0,.55.29.83,1.48,1.12,1.69.41,2.11.96,2.11,1.86,0,1.09-.89,1.76-2.15,1.76-1.37,0-2.13-.72-2.3-1.8h.61Z"/>
        <path d="M146.43,472.56c.01,1.55.79,2.51,1.94,2.51s1.51-.64,1.73-1.13h.61c-.25.79-.89,1.69-2.36,1.69-1.82,0-2.53-1.57-2.53-3.09,0-1.71.85-3.19,2.6-3.19,1.85,0,2.43,1.6,2.43,2.72,0,.17,0,.34-.01.49h-4.41ZM150.24,472.03c-.01-1.19-.66-2.12-1.83-2.12-1.24,0-1.8.86-1.93,2.12h3.77Z"/>
        <path d="M151.52,469.49h1.12v-1.87h.6v1.87h1.43v.56h-1.43v3.9c0,.67.14,1.06.72,1.06.18,0,.43-.01.62-.07v.53c-.2.08-.49.11-.74.11-.77,0-1.2-.38-1.2-1.34v-4.17h-1.12v-.56Z"/>
        <path d="M163.87,472.47c0,1.67-.92,3.15-2.71,3.15-1.62,0-2.63-1.33-2.63-3.14,0-1.71.95-3.14,2.69-3.14,1.59,0,2.65,1.25,2.65,3.13ZM159.17,472.49c0,1.43.77,2.58,2.04,2.58s2.03-1.07,2.03-2.58c0-1.42-.72-2.58-2.05-2.58s-2.02,1.14-2.02,2.58Z"/>
        <path d="M165.61,475.48v-5.43h-1.03v-.56h1.03v-.85c0-1.01.29-2.11,1.63-2.11.18,0,.44.04.59.08v.58c-.18-.05-.47-.07-.65-.07-.71,0-.97.5-.97,1.55v.83h1.31v.56h-1.31v5.43h-.6Z"/>
        <path d="M176,473.72c-.29,1.06-.98,1.91-2.33,1.91-1.5,0-2.57-1.12-2.57-3.12,0-1.64.88-3.17,2.64-3.17,1.52,0,2.15,1.08,2.25,1.92h-.61c-.18-.7-.64-1.36-1.65-1.36-1.27,0-1.99,1.08-1.99,2.58s.67,2.58,1.93,2.58c.88,0,1.4-.44,1.71-1.34h.61Z"/>
        <path d="M181.56,474.34c0,.53.05.95.08,1.14h-.58c-.05-.14-.08-.41-.11-.92-.2.44-.73,1.07-1.97,1.07-1.39,0-1.99-.9-1.99-1.8,0-1.32,1.02-1.92,2.82-1.92h1.14v-.61c0-.6-.18-1.4-1.55-1.4-1.21,0-1.39.64-1.52,1.13h-.6c.07-.66.48-1.68,2.13-1.68,1.37,0,2.13.58,2.13,1.9v3.11ZM180.97,472.43h-1.18c-1.33,0-2.16.35-2.16,1.38,0,.76.54,1.27,1.38,1.27,1.71,0,1.96-1.14,1.96-2.43v-.22Z"/>
        <path d="M183.54,471c0-.53,0-1.03-.01-1.51h.59c.02.19.04.97.02,1.14.26-.61.76-1.28,1.99-1.28,1.07,0,2.01.6,2.01,2.25v3.89h-.6v-3.79c0-1.07-.44-1.76-1.49-1.76-1.43,0-1.92,1.19-1.92,2.5v3.06h-.6v-4.49Z"/>
        <path d="M194.74,466.64v7.11c0,.58,0,1.13.01,1.73h-.58c-.02-.14-.04-.71-.04-1.01-.3.73-.97,1.15-2.01,1.15-1.56,0-2.49-1.27-2.49-3.07s1.02-3.21,2.65-3.21c1.2,0,1.68.52,1.86.9v-3.6h.6ZM190.27,472.53c0,1.64.85,2.53,1.88,2.53,1.58,0,2.01-1.09,2.01-2.72s-.37-2.44-1.91-2.44c-1.19,0-1.99.95-1.99,2.63Z"/>
        <path d="M196.71,466.64h.6v1.16h-.6v-1.16ZM196.71,469.49h.6v6h-.6v-6Z"/>
        <path d="M203.91,466.64v7.11c0,.58,0,1.13.01,1.73h-.58c-.02-.14-.04-.71-.04-1.01-.3.73-.97,1.15-2.01,1.15-1.56,0-2.49-1.27-2.49-3.07s1.02-3.21,2.65-3.21c1.2,0,1.68.52,1.86.9v-3.6h.6ZM199.44,472.53c0,1.64.85,2.53,1.88,2.53,1.58,0,2.01-1.09,2.01-2.72s-.37-2.44-1.91-2.44c-1.19,0-1.99.95-1.99,2.63Z"/>
        <path d="M209.91,474.34c0,.53.05.95.08,1.14h-.58c-.05-.14-.08-.41-.11-.92-.2.44-.73,1.07-1.97,1.07-1.39,0-1.99-.9-1.99-1.8,0-1.32,1.02-1.92,2.82-1.92h1.14v-.61c0-.6-.18-1.4-1.55-1.4-1.21,0-1.39.64-1.52,1.13h-.6c.07-.66.48-1.68,2.13-1.68,1.37,0,2.13.58,2.13,1.9v3.11ZM209.32,472.43h-1.18c-1.33,0-2.16.35-2.16,1.38,0,.76.54,1.27,1.38,1.27,1.71,0,1.96-1.14,1.96-2.43v-.22Z"/>
        <path d="M210.93,469.49h1.12v-1.87h.6v1.87h1.43v.56h-1.43v3.9c0,.67.14,1.06.72,1.06.18,0,.43-.01.62-.07v.53c-.2.08-.49.11-.74.11-.77,0-1.2-.38-1.2-1.34v-4.17h-1.12v-.56Z"/>
        <path d="M215.36,472.56c.01,1.55.79,2.51,1.94,2.51s1.51-.64,1.73-1.13h.61c-.25.79-.89,1.69-2.36,1.69-1.82,0-2.53-1.57-2.53-3.09,0-1.71.85-3.19,2.6-3.19,1.85,0,2.43,1.6,2.43,2.72,0,.17,0,.34-.01.49h-4.41ZM219.16,472.03c-.01-1.19-.66-2.12-1.83-2.12-1.24,0-1.8.86-1.93,2.12h3.77Z"/>
        <path d="M224.53,475.48v-5.43h-1.03v-.56h1.03v-.85c0-1.01.29-2.11,1.63-2.11.18,0,.44.04.59.08v.58c-.18-.05-.47-.07-.65-.07-.71,0-.97.5-.97,1.55v.83h1.31v.56h-1.31v5.43h-.6Z"/>
        <path d="M232.24,472.47c0,1.67-.92,3.15-2.71,3.15-1.62,0-2.63-1.33-2.63-3.14,0-1.71.95-3.14,2.69-3.14,1.59,0,2.65,1.25,2.65,3.13ZM227.54,472.49c0,1.43.77,2.58,2.04,2.58s2.03-1.07,2.03-2.58c0-1.42-.72-2.58-2.05-2.58s-2.02,1.14-2.02,2.58Z"/>
        <path d="M233.73,471.12c0-1.01-.01-1.44-.01-1.63h.59c.01.19.02.58.02,1.34.35-.9,1.12-1.44,2.09-1.49v.65c-1.25.08-2.09.95-2.09,2.38v3.12h-.6v-4.37Z"/>
        <path d="M237.49,471.03c0-.52,0-1.08-.01-1.55h.59c.01.2.04.72.02,1.07.25-.6.8-1.21,1.8-1.21.84,0,1.5.42,1.74,1.19.3-.62.9-1.19,1.96-1.19.92,0,1.88.53,1.88,2.2v3.95h-.6v-3.87c0-.8-.29-1.68-1.4-1.68s-1.69.94-1.69,2.1v3.45h-.59v-3.86c0-.88-.26-1.69-1.37-1.69-1.16,0-1.73,1.03-1.73,2.25v3.3h-.6v-4.45Z"/>
        <path d="M251.84,473.73c0,.59.01,1.52.01,1.75h-.58c-.02-.16-.04-.55-.04-1.04-.25.71-.86,1.19-1.93,1.19-.86,0-1.97-.34-1.97-2.17v-3.97h.59v3.83c0,.88.28,1.73,1.46,1.73,1.34,0,1.85-.76,1.85-2.47v-3.08h.6v4.25Z"/>
        <path d="M253.81,475.48v-8.84h.6v8.84h-.6Z"/>
        <path d="M260.41,474.34c0,.53.05.95.08,1.14h-.58c-.05-.14-.08-.41-.11-.92-.2.44-.73,1.07-1.97,1.07-1.39,0-1.99-.9-1.99-1.8,0-1.32,1.02-1.92,2.82-1.92h1.14v-.61c0-.6-.18-1.4-1.55-1.4-1.21,0-1.39.64-1.52,1.13h-.6c.07-.66.48-1.68,2.13-1.68,1.37,0,2.13.58,2.13,1.9v3.11ZM259.82,472.43h-1.18c-1.33,0-2.16.35-2.16,1.38,0,.76.54,1.27,1.38,1.27,1.71,0,1.95-1.14,1.95-2.43v-.22Z"/>
        <path d="M262.33,473.83c.2.78.76,1.25,1.7,1.25,1.07,0,1.5-.49,1.5-1.16s-.29-1.02-1.63-1.34c-1.55-.37-1.93-.84-1.93-1.63s.62-1.6,1.98-1.6,2,.83,2.1,1.68h-.6c-.11-.5-.5-1.13-1.52-1.13s-1.34.52-1.34,1c0,.55.29.83,1.48,1.12,1.69.41,2.11.96,2.11,1.86,0,1.09-.89,1.76-2.15,1.76-1.37,0-2.13-.72-2.3-1.8h.61Z"/>
        <path d="M267.17,477.52c1.09-1.4,1.92-3.14,1.92-5.38,0-2.04-.67-3.87-1.92-5.5h.68c.86,1.12,1.83,3.03,1.83,5.52s-.98,4.32-1.83,5.37h-.68Z"/>
      </g>
      <g>
        <path d="M371.57,372.68c-1.09,1.4-1.92,3.14-1.92,5.38,0,2.04.67,3.87,1.92,5.5h-.68c-.86-1.12-1.83-3.03-1.83-5.52s.98-4.32,1.83-5.37h.68Z"/>
        <path d="M373.56,381.53v-5.43h-1.03v-.56h1.03v-.85c0-1.01.29-2.11,1.63-2.11.18,0,.44.04.59.08v.58c-.18-.05-.47-.07-.65-.07-.71,0-.97.5-.97,1.55v.83h1.31v.56h-1.31v5.43h-.6Z"/>
        <path d="M376.57,372.69h.6v1.16h-.6v-1.16ZM376.57,375.53h.6v6h-.6v-6Z"/>
        <path d="M379.14,377.04c0-.53,0-1.03-.01-1.51h.59c.02.19.04.97.02,1.14.26-.61.76-1.28,1.99-1.28,1.07,0,2.01.6,2.01,2.25v3.89h-.6v-3.79c0-1.07-.44-1.76-1.49-1.76-1.43,0-1.92,1.19-1.92,2.5v3.06h-.6v-4.49Z"/>
        <path d="M389.76,380.39c0,.53.05.95.08,1.14h-.58c-.05-.14-.08-.41-.11-.92-.2.44-.73,1.07-1.97,1.07-1.39,0-1.99-.9-1.99-1.8,0-1.32,1.02-1.92,2.82-1.92h1.14v-.61c0-.6-.18-1.4-1.55-1.4-1.21,0-1.39.64-1.52,1.13h-.6c.07-.66.48-1.68,2.13-1.68,1.37,0,2.13.58,2.13,1.9v3.11ZM389.17,378.47h-1.17c-1.33,0-2.16.35-2.16,1.38,0,.76.54,1.27,1.38,1.27,1.71,0,1.95-1.14,1.95-2.43v-.22Z"/>
        <path d="M391.74,381.53v-8.84h.6v8.84h-.6Z"/>
        <path d="M401.84,379.76c-.29,1.06-.98,1.91-2.33,1.91-1.5,0-2.57-1.12-2.57-3.12,0-1.64.88-3.17,2.64-3.17,1.52,0,2.15,1.08,2.25,1.92h-.61c-.18-.7-.63-1.36-1.65-1.36-1.27,0-1.99,1.08-1.99,2.58s.67,2.58,1.93,2.58c.88,0,1.4-.44,1.71-1.34h.61Z"/>
        <path d="M403.24,377.16c0-1.01-.01-1.44-.01-1.63h.59c.01.19.02.58.02,1.34.35-.9,1.12-1.44,2.09-1.49v.65c-1.25.08-2.09.95-2.09,2.38v3.12h-.6v-4.37Z"/>
        <path d="M407.16,378.6c.01,1.55.79,2.51,1.94,2.51s1.51-.64,1.73-1.13h.61c-.25.79-.89,1.69-2.36,1.69-1.82,0-2.53-1.57-2.53-3.09,0-1.71.85-3.19,2.6-3.19,1.85,0,2.43,1.6,2.43,2.72,0,.17,0,.34-.01.49h-4.41ZM410.96,378.07c-.01-1.19-.66-2.12-1.83-2.12-1.24,0-1.8.86-1.93,2.12h3.77Z"/>
        <path d="M417.74,372.69v7.11c0,.58,0,1.13.01,1.73h-.58c-.02-.14-.04-.71-.04-1.01-.3.73-.97,1.15-2.01,1.15-1.56,0-2.5-1.27-2.5-3.07s1.02-3.21,2.65-3.21c1.2,0,1.68.52,1.86.9v-3.6h.6ZM413.27,378.58c0,1.64.85,2.53,1.88,2.53,1.58,0,2.01-1.09,2.01-2.72s-.37-2.44-1.91-2.44c-1.19,0-1.99.95-1.99,2.63Z"/>
        <path d="M419.71,372.69h.6v1.16h-.6v-1.16ZM419.71,375.53h.6v6h-.6v-6Z"/>
        <path d="M421.46,375.53h1.12v-1.87h.6v1.87h1.43v.56h-1.43v3.9c0,.67.14,1.06.72,1.06.18,0,.43-.01.62-.07v.53c-.2.08-.49.11-.74.11-.77,0-1.2-.38-1.2-1.34v-4.17h-1.12v-.56Z"/>
        <path d="M433.07,380.39c0,.53.05.95.08,1.14h-.58c-.05-.14-.08-.41-.11-.92-.2.44-.73,1.07-1.97,1.07-1.39,0-1.99-.9-1.99-1.8,0-1.32,1.02-1.92,2.82-1.92h1.14v-.61c0-.6-.18-1.4-1.55-1.4-1.21,0-1.39.64-1.52,1.13h-.6c.07-.66.48-1.68,2.13-1.68,1.37,0,2.13.58,2.13,1.9v3.11ZM432.48,378.47h-1.17c-1.33,0-2.16.35-2.16,1.38,0,.76.54,1.27,1.38,1.27,1.71,0,1.95-1.14,1.95-2.43v-.22Z"/>
        <path d="M435.65,380.64v3.29h-.6v-6.92c0-.49,0-1.02-.01-1.47h.59c.02.23.02.59.02,1.08.37-.72,1.03-1.22,2.11-1.22,1.42,0,2.4,1.19,2.4,2.99,0,2.16-1.15,3.3-2.6,3.3-1.06,0-1.61-.47-1.91-1.03ZM439.52,378.4c0-1.39-.67-2.43-1.86-2.43-1.45,0-2.05.91-2.05,2.54s.47,2.6,1.97,2.6c1.25,0,1.94-1.05,1.94-2.71Z"/>
        <path d="M442.26,380.64v3.29h-.6v-6.92c0-.49,0-1.02-.01-1.47h.59c.02.23.02.59.02,1.08.37-.72,1.03-1.22,2.11-1.22,1.42,0,2.4,1.19,2.4,2.99,0,2.16-1.15,3.3-2.6,3.3-1.06,0-1.61-.47-1.91-1.03ZM446.13,378.4c0-1.39-.67-2.43-1.86-2.43-1.45,0-2.05.91-2.05,2.54s.47,2.6,1.97,2.6c1.25,0,1.94-1.05,1.94-2.71Z"/>
        <path d="M448.27,377.16c0-1.01-.01-1.44-.01-1.63h.59c.01.19.02.58.02,1.34.35-.9,1.12-1.44,2.09-1.49v.65c-1.25.08-2.09.95-2.09,2.38v3.12h-.6v-4.37Z"/>
        <path d="M456.92,378.52c0,1.67-.92,3.15-2.71,3.15-1.62,0-2.63-1.33-2.63-3.14,0-1.71.95-3.14,2.69-3.14,1.59,0,2.65,1.25,2.65,3.13ZM452.22,378.53c0,1.43.77,2.58,2.04,2.58s2.03-1.07,2.03-2.58c0-1.42-.72-2.58-2.05-2.58s-2.01,1.14-2.01,2.58Z"/>
        <path d="M458.33,375.53c.97,2.75,1.64,4.62,1.87,5.38h.01c.13-.44.8-2.23,1.97-5.38h.64l-2.27,6h-.72l-2.13-6h.64Z"/>
        <path d="M468,380.39c0,.53.05.95.08,1.14h-.58c-.05-.14-.08-.41-.11-.92-.2.44-.73,1.07-1.97,1.07-1.39,0-1.99-.9-1.99-1.8,0-1.32,1.02-1.92,2.82-1.92h1.14v-.61c0-.6-.18-1.4-1.55-1.4-1.21,0-1.39.64-1.52,1.13h-.6c.07-.66.48-1.68,2.13-1.68,1.37,0,2.13.58,2.13,1.9v3.11ZM467.41,378.47h-1.17c-1.33,0-2.16.35-2.16,1.38,0,.76.54,1.27,1.38,1.27,1.71,0,1.95-1.14,1.95-2.43v-.22Z"/>
        <path d="M469.98,381.53v-8.84h.6v8.84h-.6Z"/>
        <path d="M475.82,381.53v-5.43h-1.03v-.56h1.03v-.85c0-1.01.29-2.11,1.63-2.11.18,0,.44.04.59.08v.58c-.18-.05-.47-.07-.65-.07-.71,0-.97.5-.97,1.55v.83h1.31v.56h-1.31v5.43h-.6Z"/>
        <path d="M483.54,378.52c0,1.67-.92,3.15-2.71,3.15-1.62,0-2.63-1.33-2.63-3.14,0-1.71.95-3.14,2.69-3.14,1.59,0,2.65,1.25,2.65,3.13ZM478.83,378.53c0,1.43.77,2.58,2.04,2.58s2.03-1.07,2.03-2.58c0-1.42-.72-2.58-2.05-2.58s-2.02,1.14-2.02,2.58Z"/>
        <path d="M485.03,377.16c0-1.01-.01-1.44-.01-1.63h.59c.01.19.02.58.02,1.34.35-.9,1.12-1.44,2.09-1.49v.65c-1.25.08-2.09.95-2.09,2.38v3.12h-.6v-4.37Z"/>
        <path d="M488.78,377.08c0-.52,0-1.08-.01-1.55h.59c.01.2.04.72.02,1.07.25-.6.8-1.21,1.8-1.21.84,0,1.5.42,1.74,1.19.3-.62.9-1.19,1.96-1.19.92,0,1.88.53,1.88,2.2v3.95h-.6v-3.87c0-.8-.29-1.68-1.4-1.68s-1.69.94-1.69,2.1v3.45h-.59v-3.86c0-.88-.26-1.69-1.37-1.69-1.16,0-1.73,1.03-1.73,2.25v3.3h-.6v-4.45Z"/>
        <path d="M503.13,379.78c0,.59.01,1.52.01,1.75h-.58c-.02-.16-.04-.55-.04-1.04-.25.71-.86,1.19-1.93,1.19-.86,0-1.97-.34-1.97-2.17v-3.97h.59v3.83c0,.88.28,1.73,1.46,1.73,1.34,0,1.85-.76,1.85-2.47v-3.08h.6v4.25Z"/>
        <path d="M505.1,381.53v-8.84h.6v8.84h-.6Z"/>
        <path d="M511.7,380.39c0,.53.05.95.08,1.14h-.58c-.05-.14-.08-.41-.11-.92-.2.44-.73,1.07-1.97,1.07-1.39,0-1.99-.9-1.99-1.8,0-1.32,1.02-1.92,2.82-1.92h1.14v-.61c0-.6-.18-1.4-1.55-1.4-1.21,0-1.39.64-1.52,1.13h-.6c.07-.66.48-1.68,2.13-1.68,1.37,0,2.13.58,2.13,1.9v3.11ZM511.11,378.47h-1.18c-1.33,0-2.16.35-2.16,1.38,0,.76.54,1.27,1.38,1.27,1.71,0,1.96-1.14,1.96-2.43v-.22Z"/>
        <path d="M513.1,383.57c1.09-1.4,1.92-3.14,1.92-5.38,0-2.04-.67-3.87-1.92-5.5h.68c.86,1.12,1.83,3.03,1.83,5.52s-.98,4.32-1.83,5.37h-.68Z"/>
      </g>
      <g>
        <line class="cls-4" x1="203.33" y1="166.22" x2="203.33" y2="190.92"/>
        <polygon class="cls-1" points="200.06 188.26 200.65 187.72 203.33 190.61 206.02 187.72 206.6 188.26 203.33 191.78 200.06 188.26"/>
      </g>
      <g>
        <line class="cls-4" x1="348.3" y1="332.08" x2="373" y2="332.08"/>
        <polygon class="cls-1" points="370.35 335.36 369.8 334.77 372.69 332.08 369.8 329.4 370.35 328.81 373.87 332.08 370.35 335.36"/>
      </g>
      <g>
        <path class="cls-4" d="M198.84,285.6s-5.04,29.74,21.22,36.93"/>
        <polygon class="cls-1" points="216.6 324.89 216.25 324.18 219.78 322.42 217.77 319.03 218.46 318.62 220.9 322.76 216.6 324.89"/>
      </g>
      <g>
        <path class="cls-4" d="M196.43,394.05s-1.33-30.43,29.35-39.45"/>
        <polygon class="cls-1" points="224.22 358.52 223.53 358.12 225.5 354.7 221.95 352.99 222.3 352.27 226.62 354.36 224.22 358.52"/>
      </g>
    </g>
    <g id="_테두리" data-name="테두리">
      <rect class="cls-2" x="80" y="85.33" width="252" height="60.67"/>
      <rect class="cls-2" x="113.33" y="196.67" width="187" height="57.33"/>
      <rect class="cls-2" x="380.67" y="294" width="123.33" height="70"/>
      <rect class="cls-3" x="119.33" y="399.33" width="168" height="60"/>
      <circle class="cls-3" cx="290.42" cy="332.08" r="51.08"/>
    </g>
    <g id="_텍스트" data-name="텍스트">
      <g>
        <path d="M99.33,99.94v-.43h4.26v.43l-2.02.16h-.3l-1.94-.16ZM104.46,110.22c-.74,0-1.39-.14-1.95-.42s-1-.73-1.31-1.35c-.31-.62-.47-1.43-.47-2.44v-4.1c0-.81,0-1.61-.03-2.41h1.32c0,.8-.02,1.6-.02,2.4,0,.81,0,1.62,0,2.45v1.44c0,.88.11,1.59.33,2.13.22.54.54.92.95,1.16.41.24.9.35,1.45.35.98,0,1.71-.3,2.18-.9.48-.6.71-1.59.7-2.96v-6.07s.56,0,.56,0l-.03,6.36c0,1.47-.31,2.56-.94,3.27-.63.72-1.54,1.07-2.74,1.07ZM105.85,99.94v-.43h3.71v.43l-1.57.16h-.3l-1.84-.16Z"/>
        <path d="M118.87,110.09l-6.46-9.51h-.03s-.35-.55-.35-.55l-1.41-.09v-.43h2.53l6.07,9-.24.09-.03-4.29v-4.79h.53v10.58h-.62ZM110.63,109.99v-.43l1.53-.17h.32l1.86.17v.43h-3.7ZM112.01,109.99v-10.15h.52l.04,5.56v4.59h-.56ZM117.21,99.94v-.43h3.67v.43l-1.51.16h-.29l-1.87-.16Z"/>
        <path d="M122.15,99.94v-.43h4.28v.43l-1.99.16h-.3l-1.99-.16ZM122.15,109.99v-.43l1.99-.17h.3l1.94.17v.43h-4.23ZM123.62,109.99c.02-.81.03-1.61.03-2.42v-5.65c0-.81,0-1.61-.03-2.41h1.3c0,.8-.02,1.6-.02,2.41,0,.81,0,1.62,0,2.44v1.54c0,.51,0,1.12,0,1.82,0,.71.01,1.46.02,2.27h-1.3ZM124.25,107.17l-.06-.79h.16l.26-.33,5.35-6.54h.68l-6.39,7.66ZM129.63,109.99l-3.21-5.77.79-.95,3.79,6.72h-1.37ZM127.94,99.94v-.43h3.57v.43l-1.5.16-.3.03-1.77-.19ZM128.01,109.99v-.43l1.87-.17h.26l1.79.17v.43h-3.92Z"/>
        <path d="M140.79,110.09l-6.46-9.51h-.03s-.35-.55-.35-.55l-1.41-.09v-.43h2.53l6.07,9-.24.09-.03-4.29v-4.79h.53v10.58h-.62ZM132.56,109.99v-.43l1.53-.17h.32l1.86.17v.43h-3.7ZM133.94,109.99v-10.15h.52l.04,5.56v4.59h-.56ZM139.13,99.94v-.43h3.67v.43l-1.51.16h-.29l-1.87-.16Z"/>
        <path d="M148.71,110.22c-.63,0-1.24-.12-1.81-.37s-1.07-.6-1.5-1.07c-.43-.47-.77-1.04-1.02-1.72-.25-.68-.37-1.45-.37-2.31s.12-1.62.37-2.3c.25-.68.59-1.25,1.02-1.73.43-.47.93-.84,1.5-1.09s1.17-.37,1.81-.37,1.25.12,1.81.37c.57.24,1.07.6,1.5,1.07.44.47.78,1.05,1.02,1.73.24.68.37,1.45.37,2.32s-.12,1.62-.37,2.3c-.24.68-.59,1.25-1.02,1.72s-.94.83-1.5,1.08c-.57.25-1.17.37-1.81.37ZM148.71,109.73c.55,0,1.03-.13,1.45-.4.42-.26.77-.62,1.04-1.08.28-.46.49-.98.63-1.58s.22-1.24.22-1.92-.07-1.31-.22-1.91c-.14-.6-.35-1.13-.63-1.59-.28-.46-.63-.82-1.04-1.08-.42-.26-.9-.39-1.45-.39s-1.03.13-1.45.39c-.42.26-.77.62-1.05,1.08-.28.46-.49.99-.63,1.59-.14.6-.21,1.24-.21,1.91s.07,1.32.21,1.92.35,1.13.63,1.58c.28.46.63.82,1.05,1.08.42.26.9.4,1.45.4Z"/>
        <path d="M154.06,99.94v-.43h4.06v.43l-1.87.16h-.35l-1.84-.16ZM158.16,110.09l-2.98-10.58h1.31l2.48,9.27h-.26l.07-.22,2.69-9.05h.63l2.76,9.31h-.24l.04-.23,2.38-9.08h.62l-2.89,10.58h-.68l-2.78-9.21h.26l-.07.22-2.66,9h-.68ZM159.85,99.94v-.43h4.02v.43l-1.81.16h-.45l-1.76-.16ZM165.43,99.94v-.43h3.51v.43l-1.61.16h-.29l-1.61-.16Z"/>
        <path d="M177.88,110.09l-6.46-9.51h-.03s-.35-.55-.35-.55l-1.41-.09v-.43h2.53l6.07,9-.24.09-.03-4.29v-4.79h.53v10.58h-.62ZM169.65,109.99v-.43l1.53-.17h.32l1.86.17v.43h-3.7ZM171.03,109.99v-10.15h.52l.04,5.56v4.59h-.56ZM176.23,99.94v-.43h3.67v.43l-1.51.16h-.29l-1.87-.16Z"/>
        <path d="M184.48,102.24l.11-2.74h8.62l.13,2.74h-.62l-.52-2.74.59.5h-7.79l.6-.5-.52,2.74h-.62ZM186.61,109.99v-.43l2.12-.17h.36l2.13.17v.43h-4.61ZM188.23,109.99c.02-.81.03-1.61.04-2.42,0-.81,0-1.62,0-2.43v-.78c0-.82,0-1.63,0-2.44,0-.81-.02-1.61-.04-2.41h1.34c0,.8-.02,1.6-.02,2.41,0,.81,0,1.62,0,2.44v.78c0,.82,0,1.63,0,2.43s.01,1.61.02,2.42h-1.34Z"/>
        <path d="M192.87,109.99v-.43l1.41-.16h.24l1.57.16v.43h-3.22ZM193.91,109.99l3.51-10.57h.81l3.57,10.57h-1.3l-3.17-9.72h.29l-.06.2-3.05,9.51h-.6ZM195.46,106.4l.06-.46h4.38l.06.46h-4.49ZM198.71,109.99v-.43l1.93-.16h.42l1.87.16v.43h-4.22Z"/>
        <path d="M203.68,99.94v-.43h2.15v.59h-.16l-1.99-.16ZM203.68,109.99v-.43l1.99-.17h.32l2,.17v.43h-4.3ZM205.15,109.99c.02-.81.03-1.61.03-2.42v-5.65c0-.81,0-1.61-.03-2.41h1.34c-.02.8-.03,1.61-.04,2.45s0,1.76,0,2.76v.29c0,.87,0,1.72,0,2.54s.02,1.63.04,2.44h-1.34ZM211.75,110.12c-.48,0-.83-.07-1.06-.22-.23-.15-.38-.39-.45-.73l-.72-2.46c-.11-.4-.23-.72-.37-.96-.14-.23-.34-.41-.59-.51-.25-.11-.59-.16-1.02-.16h-1.7v-.46h2.09c.54,0,1-.11,1.37-.32.38-.21.67-.5.87-.86.2-.36.3-.77.3-1.21,0-.7-.21-1.25-.63-1.65-.42-.4-1.07-.6-1.94-.6h-2.07v-.48h2.26c1.15,0,2.04.23,2.67.7.63.47.94,1.14.94,2.01,0,.47-.12.9-.37,1.3-.24.4-.61.73-1.09.99-.48.26-1.09.41-1.82.46v-.14c.52.04.93.13,1.23.28.3.15.54.36.71.63.17.27.31.62.44,1.04l.89,2.95-.59-.3,1.9.13v.43c-.16.04-.34.07-.54.09-.2.02-.43.04-.7.04Z"/>
        <path d="M219.01,110.22c-1.05,0-1.96-.23-2.76-.69-.79-.46-1.41-1.1-1.85-1.92s-.66-1.78-.66-2.87.23-2.05.68-2.86c.45-.82,1.08-1.45,1.88-1.91.8-.46,1.72-.69,2.77-.69.64,0,1.21.07,1.7.22.49.14.96.35,1.4.62l.04,2.3h-.66l-.49-2.49.75.29v.53c-.42-.34-.83-.58-1.22-.73-.39-.15-.85-.22-1.37-.22-.8,0-1.5.19-2.12.58-.61.39-1.1.96-1.45,1.7s-.53,1.64-.53,2.68.17,1.91.51,2.65c.34.74.81,1.31,1.42,1.71.6.4,1.31.6,2.12.6.45,0,.87-.05,1.27-.16.39-.11.8-.27,1.21-.49l-.49.4v-.94c0-.6,0-1.2-.01-1.78s-.02-1.18-.04-1.79h1.31c0,.55-.02,1.11-.03,1.69,0,.58-.01,1.21-.01,1.89v.75c-.56.33-1.09.56-1.61.71-.52.14-1.09.22-1.73.22ZM219.4,105.4v-.43h4.03v.43l-1.57.17h-.45l-2.02-.17Z"/>
        <path d="M224.29,99.94v-.43h2.15v.59h-.16l-1.99-.16ZM224.29,109.99v-.43l1.99-.17h.16v.6h-2.15ZM225.76,109.99c.02-.81.03-1.61.03-2.42v-5.65c0-.81,0-1.61-.03-2.41h1.34c0,.8-.02,1.6-.02,2.43,0,.82,0,1.68,0,2.58v.32c0,.97,0,1.87,0,2.7s.01,1.65.02,2.45h-1.34ZM231.42,102.1l-.48-2.49.63.4h-5.14v-.5h5.5l.1,2.59h-.62ZM226.44,104.91v-.47h3.47v.47h-3.47ZM226.44,109.99v-.49h5.4l-.65.36.49-2.5h.6l-.09,2.63h-5.76ZM229.81,106.39l-.2-1.6v-.3l.2-1.57h.5v3.47h-.5Z"/>
        <path d="M233.23,102.24l.11-2.74h8.62l.13,2.74h-.62l-.52-2.74.59.5h-7.79l.6-.5-.52,2.74h-.62ZM235.36,109.99v-.43l2.12-.17h.36l2.13.17v.43h-4.61ZM236.99,109.99c.02-.81.03-1.61.04-2.42,0-.81,0-1.62,0-2.43v-.78c0-.82,0-1.63,0-2.44,0-.81-.02-1.61-.04-2.41h1.34c0,.8-.02,1.6-.02,2.41,0,.81,0,1.62,0,2.44v.78c0,.82,0,1.63,0,2.43s.01,1.61.02,2.42h-1.34Z"/>
        <path d="M246.85,99.94v-.43h2.15v.59h-.16l-1.99-.16ZM246.85,109.99v-.43l1.99-.17h.39l2.06.17v.43h-4.43ZM248.32,109.99c.02-.81.03-1.61.03-2.42v-5.65c0-.81,0-1.61-.03-2.41h1.34c0,.8-.02,1.6-.02,2.43,0,.82,0,1.68,0,2.58v.32c0,.97,0,1.87,0,2.7s.01,1.65.02,2.45h-1.34ZM254.02,102.1l-.49-2.5.66.42h-5.2v-.5h5.54l.09,2.59h-.6ZM248.99,104.91v-.47h3.51v.47h-3.51ZM252.39,106.45l-.2-1.6v-.37l.2-1.55h.5v3.53h-.5Z"/>
        <path d="M255.77,99.94v-.43h4.26v.43l-2.02.16h-.3l-1.94-.16ZM260.9,110.22c-.74,0-1.39-.14-1.95-.42s-1-.73-1.31-1.35c-.31-.62-.47-1.43-.47-2.44v-4.1c0-.81,0-1.61-.03-2.41h1.32c0,.8-.02,1.6-.02,2.4,0,.81,0,1.62,0,2.45v1.44c0,.88.11,1.59.33,2.13.22.54.54.92.95,1.16.41.24.9.35,1.45.35.98,0,1.71-.3,2.18-.9.48-.6.71-1.59.7-2.96v-6.07s.56,0,.56,0l-.03,6.36c0,1.47-.31,2.56-.94,3.27-.63.72-1.54,1.07-2.74,1.07ZM262.29,99.94v-.43h3.71v.43l-1.57.16h-.3l-1.84-.16Z"/>
        <path d="M275.31,110.09l-6.46-9.51h-.03s-.35-.55-.35-.55l-1.41-.09v-.43h2.53l6.07,9-.24.09-.03-4.29v-4.79h.53v10.58h-.62ZM267.07,109.99v-.43l1.53-.17h.32l1.86.17v.43h-3.7ZM268.46,109.99v-10.15h.52l.04,5.56v4.59h-.56ZM273.65,99.94v-.43h3.67v.43l-1.51.16h-.29l-1.87-.16Z"/>
        <path d="M278.21,102.24l.11-2.74h8.62l.13,2.74h-.62l-.52-2.74.59.5h-7.79l.6-.5-.52,2.74h-.62ZM280.35,109.99v-.43l2.12-.17h.36l2.13.17v.43h-4.61ZM281.97,109.99c.02-.81.03-1.61.04-2.42,0-.81,0-1.62,0-2.43v-.78c0-.82,0-1.63,0-2.44,0-.81-.02-1.61-.04-2.41h1.34c0,.8-.02,1.6-.02,2.41,0,.81,0,1.62,0,2.44v.78c0,.82,0,1.63,0,2.43s.01,1.61.02,2.42h-1.34Z"/>
        <path d="M288.15,99.94v-.43h4.3v.43l-2.02.16h-.3l-1.99-.16ZM288.15,109.99v-.43l1.99-.17h.3l2.02.17v.43h-4.3ZM289.61,109.99c.02-.81.03-1.61.04-2.42s0-1.62,0-2.43v-.78c0-.82,0-1.63,0-2.44,0-.81-.02-1.61-.04-2.41h1.35c-.02.8-.03,1.6-.04,2.41,0,.81,0,1.62,0,2.44v.78c0,.82,0,1.63,0,2.43s.02,1.61.04,2.42h-1.35Z"/>
        <path d="M298.47,110.22c-.63,0-1.24-.12-1.81-.37s-1.07-.6-1.5-1.07c-.43-.47-.77-1.04-1.02-1.72-.25-.68-.37-1.45-.37-2.31s.12-1.62.37-2.3c.25-.68.59-1.25,1.02-1.73.43-.47.93-.84,1.5-1.09s1.17-.37,1.81-.37,1.25.12,1.81.37c.57.24,1.07.6,1.5,1.07.44.47.78,1.05,1.02,1.73.24.68.37,1.45.37,2.32s-.12,1.62-.37,2.3c-.25.68-.59,1.25-1.02,1.72s-.94.83-1.5,1.08c-.57.25-1.17.37-1.81.37ZM298.47,109.73c.55,0,1.03-.13,1.45-.4.42-.26.77-.62,1.04-1.08.28-.46.49-.98.63-1.58.14-.6.22-1.24.22-1.92s-.07-1.31-.22-1.91c-.14-.6-.35-1.13-.63-1.59-.28-.46-.63-.82-1.04-1.08-.42-.26-.9-.39-1.45-.39s-1.03.13-1.45.39c-.42.26-.77.62-1.05,1.08-.28.46-.49.99-.63,1.59-.14.6-.21,1.24-.21,1.91s.07,1.32.21,1.92.35,1.13.63,1.58c.28.46.63.82,1.05,1.08.42.26.9.4,1.45.4Z"/>
        <path d="M312.72,110.09l-6.46-9.51h-.03s-.35-.55-.35-.55l-1.41-.09v-.43h2.53l6.07,9-.24.09-.03-4.29v-4.79h.53v10.58h-.62ZM304.48,109.99v-.43l1.53-.17h.32l1.86.17v.43h-3.7ZM305.87,109.99v-10.15h.52l.04,5.56v4.59h-.56ZM311.06,99.94v-.43h3.67v.43l-1.51.16h-.29l-1.87-.16Z"/>
      </g>
      <g>
        <path d="M125.27,213.7l.12-2.77h8.73l.13,2.77h-.63l-.52-2.77.6.51h-7.89l.61-.51-.52,2.77h-.63ZM127.43,221.55v-.44l2.14-.17h.36l2.16.17v.44h-4.67ZM129.08,221.55c.02-.82.03-1.63.04-2.45s0-1.64,0-2.46v-.79c0-.83,0-1.65,0-2.47s-.02-1.64-.04-2.44h1.36c0,.81-.02,1.62-.02,2.44,0,.82,0,1.65,0,2.47v.79c0,.83,0,1.65,0,2.46,0,.82.01,1.63.02,2.45h-1.36Z"/>
        <path d="M135.33,211.37v-.44h2.17v.6h-.16l-2.01-.16ZM135.33,221.55v-.44l2.01-.17h.32l2.03.17v.44h-4.36ZM136.82,221.55c.02-.82.03-1.63.03-2.45v-5.72c0-.82,0-1.64-.03-2.44h1.36c-.02.81-.03,1.63-.04,2.48,0,.85,0,1.78,0,2.8v.29c0,.88,0,1.74,0,2.57s.02,1.65.04,2.47h-1.36ZM143.51,221.68c-.49,0-.84-.08-1.07-.23s-.38-.4-.46-.74l-.73-2.49c-.11-.41-.23-.73-.38-.97-.15-.24-.34-.41-.6-.52s-.6-.16-1.04-.16h-1.72v-.47h2.11c.54,0,1.01-.11,1.39-.32.38-.21.68-.51.88-.87s.31-.78.31-1.22c0-.71-.21-1.27-.64-1.67-.43-.4-1.08-.6-1.97-.6h-2.1v-.48h2.29c1.17,0,2.07.24,2.7.71.64.47.95,1.15.95,2.03,0,.48-.12.92-.37,1.32-.25.4-.62.74-1.11,1-.49.26-1.11.42-1.84.47v-.15c.52.04.94.13,1.25.28.31.15.54.36.71.64.17.28.32.63.44,1.06l.9,2.99-.6-.31,1.92.13v.44c-.17.04-.35.07-.55.09-.2.02-.44.04-.71.04Z"/>
        <path d="M145.3,221.55v-.44l1.43-.16h.25l1.59.16v.44h-3.27ZM146.35,221.55l3.56-10.7h.82l3.62,10.7h-1.31l-3.21-9.84h.29l-.06.2-3.09,9.64h-.61ZM147.93,217.92l.06-.47h4.43l.06.47h-4.55ZM151.22,221.55v-.44l1.95-.16h.42l1.9.16v.44h-4.27Z"/>
        <path d="M164.55,221.65l-6.55-9.64h-.03s-.35-.55-.35-.55l-1.43-.09v-.44h2.57l6.15,9.11-.25.09-.03-4.34v-4.85h.54v10.72h-.63ZM156.21,221.55v-.44l1.55-.17h.32l1.88.17v.44h-3.75ZM157.61,221.55v-10.28h.52l.04,5.63v4.65h-.57ZM162.87,211.37v-.44h3.72v.44l-1.53.16h-.29l-1.9-.16Z"/>
        <path d="M167.87,211.37v-.44h4.36v.44l-2.04.16h-.31l-2.01-.16ZM167.87,221.55v-.44l2.01-.17h.31l2.04.17v.44h-4.36ZM169.36,221.55c.02-.82.03-1.63.04-2.45,0-.82,0-1.64,0-2.46v-.79c0-.83,0-1.65,0-2.47,0-.82-.02-1.64-.04-2.44h1.37c-.02.81-.03,1.62-.04,2.44s0,1.65,0,2.47v.79c0,.83,0,1.65,0,2.46s.02,1.63.04,2.45h-1.37Z"/>
        <path d="M181.98,221.65l-6.55-9.64h-.03s-.35-.55-.35-.55l-1.43-.09v-.44h2.57l6.15,9.11-.25.09-.03-4.34v-4.85h.54v10.72h-.63ZM173.64,221.55v-.44l1.55-.17h.32l1.88.17v.44h-3.75ZM175.04,221.55v-10.28h.52l.04,5.63v4.65h-.57ZM180.31,211.37v-.44h3.72v.44l-1.53.16h-.29l-1.9-.16Z"/>
        <path d="M190.57,221.78c-1.06,0-1.99-.23-2.79-.7-.8-.47-1.43-1.12-1.87-1.95-.45-.83-.67-1.8-.67-2.91s.23-2.08.69-2.9c.46-.83,1.09-1.47,1.9-1.94.81-.47,1.75-.7,2.81-.7.65,0,1.22.07,1.72.22.5.15.97.35,1.41.63l.04,2.33h-.67l-.5-2.52.76.29v.54c-.43-.34-.84-.59-1.24-.74s-.86-.23-1.38-.23c-.81,0-1.52.2-2.14.59-.62.39-1.11.97-1.47,1.72-.36.75-.54,1.66-.54,2.72s.17,1.93.52,2.68c.35.75.82,1.33,1.44,1.73s1.33.61,2.14.61c.46,0,.88-.05,1.28-.16.4-.11.81-.27,1.22-.5l-.5.41v-.95c0-.61,0-1.21-.01-1.81s-.02-1.2-.04-1.81h1.33c-.01.55-.02,1.12-.03,1.71,0,.59-.01,1.23-.01,1.92v.76c-.56.33-1.11.57-1.63.71-.52.15-1.11.22-1.75.22ZM190.96,216.9v-.44h4.08v.44l-1.59.18h-.45l-2.04-.18Z"/>
        <path d="M199.73,211.37v-.44h2.17v.6h-.16l-2.01-.16ZM199.73,221.55v-.44l2.01-.17h.16v.61h-2.17ZM201.21,221.55c.02-.82.03-1.63.03-2.45v-5.72c0-.82,0-1.64-.03-2.44h1.36c0,.81-.02,1.63-.02,2.46s0,1.7,0,2.62v.32c0,.98,0,1.89,0,2.73,0,.84.01,1.67.02,2.49h-1.36ZM206.94,213.56l-.48-2.52.64.41h-5.2v-.51h5.57l.1,2.62h-.63ZM201.9,216.4v-.48h3.51v.48h-3.51ZM201.9,221.55v-.5h5.47l-.66.36.5-2.54h.61l-.09,2.67h-5.83ZM205.31,217.9l-.2-1.62v-.31l.2-1.59h.51v3.51h-.51Z"/>
        <path d="M208.68,221.55v-.44l1.56-.17h.29l1.69.17v.44h-3.54ZM208.84,211.37v-.44h4.2v.44l-1.97.16h-.41l-1.82-.16ZM209.65,221.55l3.59-5.57.38.32h-.07l-.15.26-3.08,4.99h-.67ZM216.05,221.55l-6.3-10.61h1.4l6.3,10.61h-1.4ZM213.87,216.07l-.36-.31h.07l.13-.22,2.77-4.61h.66l-3.27,5.13ZM214.19,221.55v-.44l2.01-.17h.38l1.84.17v.44h-4.23ZM214.62,211.37v-.44h3.54v.44l-1.6.16h-.28l-1.66-.16Z"/>
        <path d="M218.82,221.55v-.44l1.43-.16h.25l1.59.16v.44h-3.27ZM219.87,221.55l3.56-10.7h.82l3.62,10.7h-1.31l-3.21-9.84h.29l-.06.2-3.09,9.64h-.61ZM221.45,217.92l.06-.47h4.43l.06.47h-4.55ZM224.74,221.55v-.44l1.95-.16h.42l1.9.16v.44h-4.27Z"/>
        <path d="M229.68,221.55v-.44l1.62-.17h.28l1.68.17v.44h-3.57ZM229.7,211.37v-.44h2.01v.6h-.13l-1.88-.16ZM231.14,221.55l.03-10.61h.45l.09,4.97v5.64h-.57ZM235.52,221.55l-4.14-10.13h-.07v-.48h1.18l3.78,9.29h-.32l.09-.17,3.65-9.11h.57v.48h-.19l-.16.36-3.89,9.77h-.48ZM238.23,221.55v-.44l2-.17h.29l2.04.17v.44h-4.33ZM239.7,221.55c.02-.82.03-1.63.03-2.43v-2.31l.06-5.88h1.25c0,.81-.02,1.62-.02,2.44,0,.82,0,1.65,0,2.47v.79c0,.83,0,1.65,0,2.46,0,.82.01,1.63.02,2.45h-1.34ZM240.37,211.53v-.6h2.16v.44l-2.01.16h-.15Z"/>
        <path d="M244.07,211.37v-.44h2.17v.6h-.16l-2.01-.16ZM244.07,221.55v-.44l2.01-.17h.39l2.08.17v.44h-4.49ZM245.56,221.55c.02-.82.03-1.63.03-2.45v-5.72c0-.82,0-1.64-.03-2.44h1.36c0,.81-.02,1.62-.02,2.44s0,1.65,0,2.47v1.02c0,.72,0,1.47,0,2.27,0,.79.01,1.6.02,2.41h-1.36ZM246.25,217.2v-.48h1.49c.74,0,1.34-.11,1.8-.34.46-.23.8-.55,1.01-.95s.31-.88.31-1.41c0-.85-.22-1.49-.67-1.93-.45-.44-1.14-.66-2.08-.66h-1.85v-.48h1.95c1.33,0,2.32.28,2.95.83.64.55.96,1.31.96,2.26,0,.59-.15,1.13-.44,1.61-.3.48-.77.86-1.41,1.14-.64.28-1.47.42-2.49.42h-1.52Z"/>
        <path d="M253.27,211.37v-.44h4.39v.44l-2.04.16h-.34l-2.01-.16ZM253.27,221.55v-.44l2.01-.17h.16v.61h-2.17ZM254.76,221.55c.02-.82.03-1.63.03-2.43v-5.74c0-.82,0-1.64-.03-2.44h1.36c0,.81-.02,1.63-.02,2.46s0,1.72,0,2.64v.85c0,.7,0,1.45,0,2.25s.01,1.6.02,2.42h-1.36ZM255.45,221.55v-.5h5.1l-.61.35.51-2.7h.64l-.1,2.84h-5.54Z"/>
        <path d="M262.22,211.37v-.44h2.17v.6h-.16l-2.01-.16ZM262.22,221.55v-.44l2.01-.17h.16v.61h-2.17ZM263.71,221.55c.02-.82.03-1.63.03-2.45v-5.72c0-.82,0-1.64-.03-2.44h1.36c0,.81-.02,1.63-.02,2.46s0,1.7,0,2.62v.32c0,.98,0,1.89,0,2.73,0,.84.01,1.67.02,2.49h-1.36ZM269.44,213.56l-.48-2.52.64.41h-5.2v-.51h5.57l.1,2.62h-.63ZM264.4,216.4v-.48h3.51v.48h-3.51ZM264.4,221.55v-.5h5.47l-.66.36.5-2.54h.61l-.09,2.67h-5.83ZM267.81,217.9l-.2-1.62v-.31l.2-1.59h.51v3.51h-.51Z"/>
        <path d="M274.81,221.78c-.6,0-1.18-.08-1.72-.25s-1-.36-1.36-.6l.09-2.17h.6l.45,2.39-.66-.31-.09-.48c.48.35.9.59,1.27.71s.81.18,1.33.18c.79,0,1.42-.18,1.91-.53.49-.35.73-.88.73-1.58,0-.36-.07-.67-.2-.93-.13-.26-.35-.5-.65-.71-.3-.22-.72-.43-1.25-.65l-.63-.25c-.87-.37-1.52-.8-1.97-1.29-.45-.49-.67-1.11-.67-1.84,0-.61.15-1.12.46-1.54s.71-.72,1.22-.93,1.08-.31,1.71-.31c.55,0,1.04.07,1.46.21.42.14.81.34,1.17.59l-.06,2.07h-.63l-.45-2.3.69.32.04.47c-.38-.3-.73-.51-1.04-.63s-.68-.18-1.1-.18c-.68,0-1.24.16-1.68.49s-.66.8-.66,1.44c0,.55.16,1,.49,1.33.33.33.77.62,1.35.86l.66.26c.74.31,1.32.62,1.74.93.42.31.72.64.9,1.01.17.36.26.79.26,1.29,0,.6-.15,1.13-.46,1.57-.31.45-.74.79-1.29,1.03-.55.24-1.21.36-1.95.36Z"/>
      </g>
      <g>
        <path d="M145.88,417.86v-.42h4.14v.42l-1.95.15h-.28l-1.91-.15ZM145.88,427.59v-.42l1.91-.17h.28l1.95.17v.42h-4.14ZM147.31,427.59c.02-.78.03-1.56.03-2.34v-5.47c0-.79,0-1.56-.03-2.34h1.3c0,.77-.02,1.55-.02,2.34,0,.79,0,1.57,0,2.36v.33c0,.99,0,1.9,0,2.72,0,.82.01,1.62.02,2.4h-1.3ZM147.96,422.56v-.46h6.29v.46h-6.29ZM152.17,417.86v-.42h4.14v.42l-1.91.15h-.29l-1.94-.15ZM152.17,427.59v-.42l1.94-.17h.29l1.91.17v.42h-4.14ZM153.58,427.59c.02-.78.03-1.58.04-2.39,0-.81,0-1.72,0-2.73v-.33c0-.79,0-1.58,0-2.36,0-.79-.02-1.56-.04-2.34h1.31c-.02.77-.03,1.55-.04,2.34s0,1.57,0,2.36v.75c0,.79,0,1.58,0,2.36,0,.78.02,1.56.04,2.34h-1.31Z"/>
        <path d="M157.35,417.86v-.42h3.93v.42l-1.87.15h-.35l-1.72-.15ZM161.39,424.01l-3.28-6.57h1.37l2.83,5.88h-.36l.08-.2,2.72-5.69h.6l-3.25,6.57h-.71ZM159.53,427.59v-.42l2.05-.17h.36l2.08.17v.42h-4.49ZM161.12,427.59c0-.35.02-.68.02-.97,0-.29,0-.6.01-.92,0-.32,0-.69,0-1.1v-1.51h1.21v1.51c0,.41,0,.78,0,1.09,0,.32,0,.62.01.92,0,.3.01.62.02.98h-1.3ZM162.99,417.86v-.42h3.33v.42l-1.39.15h-.28l-1.66-.15Z"/>
        <path d="M167.22,417.86v-.42h2.08v.57h-.15l-1.92-.15ZM167.22,427.59v-.42l1.92-.17h.38l1.99.17v.42h-4.29ZM168.64,427.59c.02-.78.03-1.56.03-2.34v-5.47c0-.79,0-1.56-.03-2.34h1.3c0,.77-.02,1.55-.02,2.34,0,.79,0,1.57,0,2.36v.98c0,.69,0,1.41,0,2.17,0,.76.01,1.53.02,2.31h-1.3ZM169.3,423.44v-.46h1.42c.71,0,1.28-.11,1.72-.33.44-.22.76-.52.96-.91.2-.39.3-.84.3-1.35,0-.81-.21-1.42-.64-1.85s-1.09-.63-1.99-.63h-1.77v-.46h1.87c1.27,0,2.21.26,2.82.79s.91,1.25.91,2.16c0,.57-.14,1.08-.43,1.54-.28.46-.73.83-1.35,1.09-.61.27-1.41.4-2.38.4h-1.45Z"/>
        <path d="M180.77,427.82c-.61,0-1.2-.12-1.75-.36-.55-.24-1.04-.58-1.46-1.04-.42-.46-.75-1.01-.99-1.67-.24-.66-.36-1.4-.36-2.24s.12-1.57.36-2.22c.24-.66.57-1.21.99-1.67.42-.46.9-.81,1.46-1.05.55-.24,1.14-.36,1.75-.36s1.21.12,1.76.36c.55.24,1.03.58,1.46,1.04.42.46.75,1.01.99,1.67.24.66.36,1.41.36,2.25s-.12,1.57-.36,2.22c-.24.66-.57,1.21-.99,1.67-.42.46-.91.8-1.46,1.05-.55.24-1.13.36-1.76.36ZM180.77,427.34c.53,0,1-.13,1.4-.38.4-.25.74-.6,1.01-1.05.27-.44.47-.95.61-1.53.14-.58.21-1.2.21-1.86s-.07-1.27-.21-1.85c-.14-.58-.34-1.09-.61-1.54-.27-.45-.61-.79-1.01-1.05-.4-.25-.87-.38-1.4-.38s-1,.13-1.4.38c-.4.25-.74.6-1.02,1.05-.27.45-.48.96-.61,1.54s-.2,1.2-.2,1.85.07,1.28.2,1.86.34,1.09.61,1.53c.27.44.61.79,1.02,1.05.4.26.87.38,1.4.38Z"/>
        <path d="M186.33,420.09l.11-2.65h8.35l.13,2.65h-.6l-.5-2.65.57.49h-7.54l.59-.49-.5,2.65h-.6ZM188.4,427.59v-.42l2.05-.17h.35l2.06.17v.42h-4.46ZM189.97,427.59c.02-.78.03-1.56.03-2.34,0-.78,0-1.57,0-2.36v-.75c0-.79,0-1.58,0-2.36,0-.79-.02-1.56-.03-2.34h1.3c0,.77-.02,1.55-.02,2.34,0,.79,0,1.57,0,2.36v.75c0,.79,0,1.58,0,2.36,0,.78.01,1.56.02,2.34h-1.3Z"/>
        <path d="M195.96,417.86v-.42h4.14v.42l-1.95.15h-.28l-1.91-.15ZM195.96,427.59v-.42l1.91-.17h.28l1.95.17v.42h-4.14ZM197.38,427.59c.02-.78.03-1.56.03-2.34v-5.47c0-.79,0-1.56-.03-2.34h1.3c0,.77-.02,1.55-.02,2.34,0,.79,0,1.57,0,2.36v.33c0,.99,0,1.9,0,2.72,0,.82.01,1.62.02,2.4h-1.3ZM198.03,422.56v-.46h6.29v.46h-6.29ZM202.25,417.86v-.42h4.14v.42l-1.91.15h-.29l-1.94-.15ZM202.25,427.59v-.42l1.94-.17h.29l1.91.17v.42h-4.14ZM203.65,427.59c.02-.78.03-1.58.04-2.39,0-.81,0-1.72,0-2.73v-.33c0-.79,0-1.58,0-2.36,0-.79-.02-1.56-.04-2.34h1.31c-.02.77-.03,1.55-.04,2.34s0,1.57,0,2.36v.75c0,.79,0,1.58,0,2.36,0,.78.02,1.56.04,2.34h-1.31Z"/>
        <path d="M207.85,417.86v-.42h2.08v.57h-.15l-1.92-.15ZM207.85,427.59v-.42l1.92-.17h.15v.59h-2.08ZM209.27,427.59c.02-.78.03-1.56.03-2.34v-5.47c0-.79,0-1.56-.03-2.34h1.3c0,.77-.02,1.55-.02,2.35,0,.79,0,1.63,0,2.5v.31c0,.94,0,1.81,0,2.61,0,.8.01,1.6.02,2.38h-1.3ZM214.75,419.95l-.46-2.41.61.39h-4.98v-.49h5.33l.1,2.51h-.6ZM209.93,422.67v-.46h3.36v.46h-3.36ZM209.93,427.59v-.47h5.23l-.63.35.47-2.43h.59l-.08,2.55h-5.58ZM213.19,424.11l-.2-1.55v-.29l.2-1.52h.49v3.36h-.49Z"/>
        <path d="M219.88,427.82c-.58,0-1.12-.08-1.65-.24-.52-.16-.95-.35-1.3-.57l.08-2.08h.57l.43,2.29-.63-.29-.08-.46c.46.33.86.56,1.21.68.35.12.78.17,1.27.17.75,0,1.36-.17,1.83-.51.46-.34.7-.84.7-1.51,0-.34-.06-.64-.19-.89-.13-.25-.33-.47-.62-.68-.29-.21-.69-.42-1.2-.62l-.6-.24c-.83-.35-1.45-.76-1.88-1.23s-.64-1.06-.64-1.76c0-.59.15-1.08.44-1.47.29-.39.68-.69,1.17-.89.49-.2,1.03-.3,1.64-.3.53,0,.99.07,1.39.2.4.14.77.32,1.12.57l-.06,1.98h-.6l-.43-2.2.66.31.04.45c-.36-.29-.69-.49-1-.61s-.65-.17-1.05-.17c-.65,0-1.19.16-1.61.47-.42.31-.63.77-.63,1.37,0,.53.16.95.47,1.27s.74.59,1.29.82l.63.25c.71.3,1.26.59,1.67.89.4.29.69.61.86.96.17.35.25.76.25,1.23,0,.58-.15,1.08-.44,1.51s-.7.75-1.23.98c-.53.23-1.15.34-1.87.34Z"/>
        <path d="M224.82,417.86v-.42h4.17v.42l-1.95.15h-.29l-1.92-.15ZM224.82,427.59v-.42l1.92-.17h.29l1.95.17v.42h-4.17ZM226.24,427.59c.02-.78.03-1.56.04-2.34,0-.78,0-1.57,0-2.36v-.75c0-.79,0-1.58,0-2.36,0-.79-.02-1.56-.04-2.34h1.31c-.02.77-.03,1.55-.04,2.34,0,.79,0,1.57,0,2.36v.75c0,.79,0,1.58,0,2.36,0,.78.02,1.56.04,2.34h-1.31Z"/>
        <path d="M233.41,427.82c-.58,0-1.12-.08-1.65-.24-.52-.16-.95-.35-1.3-.57l.08-2.08h.57l.43,2.29-.63-.29-.08-.46c.46.33.86.56,1.21.68.35.12.78.17,1.27.17.75,0,1.36-.17,1.83-.51.46-.34.7-.84.7-1.51,0-.34-.06-.64-.19-.89-.13-.25-.33-.47-.62-.68-.29-.21-.69-.42-1.2-.62l-.6-.24c-.83-.35-1.45-.76-1.88-1.23s-.64-1.06-.64-1.76c0-.59.15-1.08.44-1.47.29-.39.68-.69,1.17-.89.49-.2,1.03-.3,1.64-.3.53,0,.99.07,1.39.2.4.14.77.32,1.12.57l-.06,1.98h-.6l-.43-2.2.66.31.04.45c-.36-.29-.69-.49-1-.61s-.65-.17-1.05-.17c-.65,0-1.19.16-1.61.47-.42.31-.63.77-.63,1.37,0,.53.16.95.47,1.27s.74.59,1.29.82l.63.25c.71.3,1.26.59,1.67.89.4.29.69.61.86.96.17.35.25.76.25,1.23,0,.58-.15,1.08-.44,1.51s-.7.75-1.23.98c-.53.23-1.15.34-1.87.34Z"/>
        <path d="M244.89,427.82c-.58,0-1.12-.08-1.65-.24-.52-.16-.95-.35-1.3-.57l.08-2.08h.57l.43,2.29-.63-.29-.08-.46c.46.33.86.56,1.21.68.35.12.78.17,1.27.17.75,0,1.36-.17,1.83-.51.46-.34.7-.84.7-1.51,0-.34-.06-.64-.19-.89-.13-.25-.33-.47-.62-.68-.29-.21-.69-.42-1.2-.62l-.6-.24c-.83-.35-1.45-.76-1.88-1.23s-.64-1.06-.64-1.76c0-.59.15-1.08.44-1.47.29-.39.68-.69,1.17-.89.49-.2,1.03-.3,1.64-.3.53,0,.99.07,1.39.2.4.14.77.32,1.12.57l-.06,1.98h-.6l-.43-2.2.66.31.04.45c-.36-.29-.69-.49-1-.61s-.65-.17-1.05-.17c-.65,0-1.19.16-1.61.47-.42.31-.63.77-.63,1.37,0,.53.16.95.47,1.27s.74.59,1.29.82l.63.25c.71.3,1.26.59,1.67.89.4.29.69.61.86.96.17.35.25.76.25,1.23,0,.58-.15,1.08-.44,1.51s-.7.75-1.23.98c-.53.23-1.15.34-1.87.34Z"/>
        <path d="M249.82,417.86v-.42h2.08v.57h-.15l-1.92-.15ZM249.82,427.59v-.42l1.92-.17h.15v.59h-2.08ZM251.24,427.59c.02-.78.03-1.56.03-2.34v-5.47c0-.79,0-1.56-.03-2.34h1.3c0,.77-.02,1.55-.02,2.35,0,.79,0,1.63,0,2.5v.31c0,.94,0,1.81,0,2.61,0,.8.01,1.6.02,2.38h-1.3ZM256.72,419.95l-.46-2.41.61.39h-4.98v-.49h5.33l.1,2.51h-.6ZM251.9,422.67v-.46h3.36v.46h-3.36ZM251.9,427.59v-.47h5.23l-.63.35.47-2.43h.59l-.08,2.55h-5.58ZM255.16,424.11l-.2-1.55v-.29l.2-1.52h.49v3.36h-.49Z"/>
        <path d="M258.48,420.09l.11-2.65h8.35l.13,2.65h-.6l-.5-2.65.57.49h-7.54l.59-.49-.5,2.65h-.6ZM260.54,427.59v-.42l2.05-.17h.35l2.06.17v.42h-4.46ZM262.12,427.59c.02-.78.03-1.56.03-2.34,0-.78,0-1.57,0-2.36v-.75c0-.79,0-1.58,0-2.36,0-.79-.02-1.56-.03-2.34h1.3c0,.77-.02,1.55-.02,2.34,0,.79,0,1.57,0,2.36v.75c0,.79,0,1.58,0,2.36,0,.78.01,1.56.02,2.34h-1.3Z"/>
      </g>
      <g>
        <path d="M420.79,305.89v-.43h2.16v.59h-.16l-2-.16ZM420.79,316v-.43l2-.17h.39l2.07.17v.43h-4.46ZM422.27,316c.02-.81.03-1.62.03-2.43v-5.68c0-.82,0-1.62-.03-2.43h1.35c0,.8-.02,1.62-.02,2.44,0,.83,0,1.69,0,2.6v.32c0,.98,0,1.88,0,2.72,0,.84.01,1.66.02,2.47h-1.35ZM428,308.06l-.49-2.52.67.42h-5.23v-.51h5.58l.09,2.61h-.61ZM422.95,310.88v-.48h3.53v.48h-3.53ZM426.37,312.43l-.2-1.61v-.38l.2-1.56h.51v3.55h-.51Z"/>
        <path d="M429.77,305.89v-.43h4.33v.43l-2.03.16h-.3l-2-.16ZM429.77,316v-.43l2-.17h.3l2.03.17v.43h-4.33ZM431.25,316c.02-.81.03-1.62.04-2.43,0-.81,0-1.63,0-2.45v-.78c0-.82,0-1.64,0-2.46,0-.82-.02-1.62-.04-2.43h1.36c-.02.8-.03,1.61-.04,2.43,0,.82,0,1.63,0,2.46v.78c0,.82,0,1.64,0,2.45,0,.81.02,1.62.04,2.43h-1.36Z"/>
        <path d="M443.79,316.1l-6.5-9.57h-.03s-.35-.55-.35-.55l-1.42-.09v-.43h2.55l6.11,9.05-.25.09-.03-4.32v-4.82h.54v10.65h-.62ZM435.51,316v-.43l1.54-.17h.32l1.87.17v.43h-3.72ZM436.9,316v-10.21h.52l.04,5.59v4.62h-.57ZM442.12,305.89v-.43h3.69v.43l-1.52.16h-.29l-1.88-.16Z"/>
        <path d="M446.05,316v-.43l1.42-.16h.25l1.58.16v.43h-3.24ZM447.09,316l3.53-10.63h.81l3.59,10.63h-1.3l-3.19-9.78h.29l-.06.2-3.07,9.57h-.61ZM448.66,312.39l.06-.46h4.4l.06.46h-4.52ZM451.93,316v-.43l1.94-.16h.42l1.88.16v.43h-4.24Z"/>
        <path d="M456.93,305.89v-.43h4.36v.43l-2.03.16h-.33l-2-.16ZM456.93,316v-.43l2-.17h.16v.61h-2.16ZM458.41,316c.02-.81.03-1.62.03-2.41v-5.71c0-.82,0-1.62-.03-2.43h1.35c0,.8-.02,1.62-.02,2.45s0,1.7,0,2.62v.84c0,.7,0,1.44,0,2.23s.01,1.59.02,2.4h-1.35ZM459.09,316v-.49h5.07l-.61.35.51-2.68h.64l-.1,2.82h-5.5Z"/>
        <path d="M395.35,323.27v-.43h4.3v.43l-2.03.16h-.29l-1.98-.16ZM395.35,333.38v-.43l1.98-.17h.29l2.03.17v.43h-4.3ZM396.82,333.38c.02-.81.03-1.62.03-2.43v-5.68c0-.82,0-1.62-.03-2.43h1.35c0,.8-.02,1.61-.02,2.43,0,.82,0,1.63,0,2.46v.35c0,1.03,0,1.97,0,2.82s.01,1.68.02,2.49h-1.35ZM397.5,328.15v-.48h6.53v.48h-6.53ZM401.88,323.27v-.43h4.3v.43l-1.98.16h-.3l-2.01-.16ZM401.88,333.38v-.43l2.01-.17h.3l1.98.17v.43h-4.3ZM403.34,333.38c.02-.81.03-1.64.04-2.48,0-.84,0-1.79,0-2.83v-.35c0-.82,0-1.64,0-2.46,0-.82-.02-1.62-.04-2.43h1.36c-.02.8-.03,1.61-.04,2.43,0,.82,0,1.63,0,2.46v.78c0,.82,0,1.64,0,2.45,0,.81.02,1.62.04,2.43h-1.36Z"/>
        <path d="M407.25,323.27v-.43h4.08v.43l-1.94.16h-.36l-1.78-.16ZM411.45,329.66l-3.4-6.82h1.42l2.94,6.11h-.38l.09-.2,2.82-5.91h.62l-3.38,6.82h-.74ZM409.53,333.38v-.43l2.13-.17h.38l2.16.17v.43h-4.66ZM411.18,333.38c0-.37.02-.7.02-1.01,0-.3,0-.62.01-.96s0-.71,0-1.14v-1.57h1.26v1.57c0,.43,0,.81,0,1.14s0,.65.01.96c0,.31.01.65.02,1.01h-1.35ZM413.12,323.27v-.43h3.46v.43l-1.45.16h-.29l-1.72-.16Z"/>
        <path d="M417.51,323.27v-.43h2.16v.59h-.16l-2-.16ZM417.51,333.38v-.43l2-.17h.39l2.07.17v.43h-4.46ZM418.99,333.38c.02-.81.03-1.62.03-2.43v-5.68c0-.82,0-1.62-.03-2.43h1.35c0,.8-.02,1.61-.02,2.43,0,.82,0,1.63,0,2.46v1.01c0,.71,0,1.46,0,2.25s.01,1.59.02,2.4h-1.35ZM419.67,329.06v-.48h1.48c.73,0,1.33-.11,1.79-.34.46-.23.79-.54,1-.95.21-.41.31-.87.31-1.41,0-.84-.22-1.48-.67-1.92-.44-.44-1.13-.66-2.07-.66h-1.84v-.48h1.94c1.32,0,2.3.28,2.93.83.63.55.95,1.3.95,2.25,0,.59-.15,1.12-.44,1.6-.29.48-.76.86-1.4,1.14s-1.46.42-2.48.42h-1.51Z"/>
        <path d="M431.59,333.61c-.64,0-1.24-.12-1.82-.37s-1.08-.61-1.51-1.08c-.43-.47-.78-1.05-1.03-1.73s-.38-1.46-.38-2.33.12-1.63.38-2.31.59-1.26,1.03-1.74c.43-.48.94-.84,1.51-1.09s1.18-.38,1.82-.38,1.25.12,1.83.37c.57.25,1.07.61,1.51,1.08.44.47.78,1.05,1.03,1.74.25.69.37,1.46.37,2.33s-.12,1.63-.37,2.31c-.25.68-.59,1.26-1.03,1.73-.44.47-.94.84-1.51,1.09-.57.25-1.18.38-1.83.38ZM431.59,333.12c.55,0,1.04-.13,1.46-.4s.77-.63,1.05-1.09c.28-.46.49-.99.64-1.59.15-.6.22-1.25.22-1.93s-.07-1.32-.22-1.92c-.14-.6-.36-1.14-.64-1.6-.28-.46-.63-.83-1.05-1.09-.42-.26-.91-.39-1.46-.39s-1.04.13-1.46.39c-.42.26-.77.62-1.06,1.09-.28.46-.5,1-.64,1.6-.14.6-.21,1.24-.21,1.92s.07,1.33.21,1.93c.14.6.35,1.13.64,1.59.29.46.64.82,1.06,1.09s.91.4,1.46.4Z"/>
        <path d="M437.37,325.59l.12-2.75h8.68l.13,2.75h-.62l-.52-2.75.59.51h-7.84l.61-.51-.52,2.75h-.62ZM439.51,333.38v-.43l2.13-.17h.36l2.14.17v.43h-4.64ZM441.15,333.38c.02-.81.03-1.62.04-2.43,0-.81,0-1.63,0-2.45v-.78c0-.82,0-1.64,0-2.46,0-.82-.02-1.62-.04-2.43h1.35c0,.8-.02,1.61-.02,2.43,0,.82,0,1.63,0,2.46v.78c0,.82,0,1.64,0,2.45,0,.81.01,1.62.02,2.43h-1.35Z"/>
        <path d="M447.36,323.27v-.43h4.3v.43l-2.03.16h-.29l-1.98-.16ZM447.36,333.38v-.43l1.98-.17h.29l2.03.17v.43h-4.3ZM448.84,333.38c.02-.81.03-1.62.03-2.43v-5.68c0-.82,0-1.62-.03-2.43h1.35c0,.8-.02,1.61-.02,2.43,0,.82,0,1.63,0,2.46v.35c0,1.03,0,1.97,0,2.82s.01,1.68.02,2.49h-1.35ZM449.52,328.15v-.48h6.53v.48h-6.53ZM453.89,323.27v-.43h4.3v.43l-1.98.16h-.3l-2.01-.16ZM453.89,333.38v-.43l2.01-.17h.3l1.98.17v.43h-4.3ZM455.36,333.38c.02-.81.03-1.64.04-2.48,0-.84,0-1.79,0-2.83v-.35c0-.82,0-1.64,0-2.46,0-.82-.02-1.62-.04-2.43h1.36c-.02.8-.03,1.61-.04,2.43,0,.82,0,1.63,0,2.46v.78c0,.82,0,1.64,0,2.45,0,.81.02,1.62.04,2.43h-1.36Z"/>
        <path d="M459.72,323.27v-.43h2.16v.59h-.16l-2-.16ZM459.72,333.38v-.43l2-.17h.16v.61h-2.16ZM461.19,333.38c.02-.81.03-1.62.03-2.43v-5.68c0-.82,0-1.62-.03-2.43h1.35c0,.8-.02,1.62-.02,2.44,0,.83,0,1.69,0,2.6v.32c0,.98,0,1.88,0,2.72,0,.84.01,1.66.02,2.47h-1.35ZM466.89,325.44l-.48-2.51.64.41h-5.17v-.51h5.53l.1,2.61h-.62ZM461.87,328.27v-.48h3.49v.48h-3.49ZM461.87,333.38v-.49h5.43l-.65.36.49-2.52h.61l-.09,2.65h-5.79ZM465.26,329.76l-.2-1.61v-.3l.2-1.58h.51v3.49h-.51Z"/>
        <path d="M472.22,333.61c-.6,0-1.17-.08-1.71-.25-.54-.16-.99-.36-1.35-.59l.09-2.16h.59l.45,2.38-.65-.3-.09-.48c.47.35.89.58,1.26.7s.81.18,1.32.18c.78,0,1.41-.18,1.9-.53.48-.35.72-.88.72-1.57,0-.36-.06-.66-.2-.92-.13-.26-.35-.49-.64-.71-.3-.22-.71-.43-1.25-.64l-.62-.25c-.86-.37-1.51-.79-1.96-1.28-.44-.49-.67-1.1-.67-1.83,0-.61.15-1.12.46-1.53.3-.41.71-.72,1.22-.93s1.07-.31,1.7-.31c.55,0,1.03.07,1.45.21.42.14.8.34,1.16.59l-.06,2.06h-.62l-.45-2.29.68.32.04.46c-.38-.3-.72-.51-1.04-.63-.31-.12-.68-.18-1.09-.18-.68,0-1.23.16-1.67.49s-.66.8-.66,1.43c0,.55.16.99.49,1.32.32.33.77.61,1.34.86l.65.26c.73.31,1.31.62,1.73.92.42.3.72.64.89,1s.26.79.26,1.28c0,.6-.15,1.12-.46,1.56-.3.44-.73.79-1.28,1.02-.55.24-1.2.35-1.94.35Z"/>
        <path d="M477.34,323.27v-.43h4.33v.43l-2.03.16h-.3l-2-.16ZM477.34,333.38v-.43l2-.17h.3l2.03.17v.43h-4.33ZM478.82,333.38c.02-.81.03-1.62.04-2.43,0-.81,0-1.63,0-2.45v-.78c0-.82,0-1.64,0-2.46,0-.82-.02-1.62-.04-2.43h1.36c-.02.8-.03,1.61-.04,2.43,0,.82,0,1.63,0,2.46v.78c0,.82,0,1.64,0,2.45,0,.81.02,1.62.04,2.43h-1.36Z"/>
        <path d="M486.27,333.61c-.6,0-1.17-.08-1.71-.25-.54-.16-.99-.36-1.35-.59l.09-2.16h.59l.45,2.38-.65-.3-.09-.48c.47.35.89.58,1.26.7s.81.18,1.32.18c.78,0,1.41-.18,1.9-.53.48-.35.72-.88.72-1.57,0-.36-.06-.66-.2-.92-.13-.26-.35-.49-.64-.71-.3-.22-.71-.43-1.25-.64l-.62-.25c-.86-.37-1.51-.79-1.96-1.28-.44-.49-.67-1.1-.67-1.83,0-.61.15-1.12.46-1.53.3-.41.71-.72,1.22-.93s1.07-.31,1.7-.31c.55,0,1.03.07,1.45.21.42.14.8.34,1.16.59l-.06,2.06h-.62l-.45-2.29.68.32.04.46c-.38-.3-.72-.51-1.04-.63-.31-.12-.68-.18-1.09-.18-.68,0-1.23.16-1.67.49s-.66.8-.66,1.43c0,.55.16.99.49,1.32.32.33.77.61,1.34.86l.65.26c.73.31,1.31.62,1.73.92.42.3.72.64.89,1s.26.79.26,1.28c0,.6-.15,1.12-.46,1.56-.3.44-.73.79-1.28,1.02-.55.24-1.2.35-1.94.35Z"/>
      </g>
      <g>
        <path d="M263.29,313.69c-.08.43-.5,1.87-.64,2.3h-6.44v-.39c1.26-.12,1.37-.19,1.37-1.37v-5.49c0-1.18-.14-1.25-1.25-1.36v-.39h3.71v.39c-1.11.11-1.26.17-1.26,1.36v5.63c0,.84.11,1.04.9,1.05.01,0,1.01.01,1.09.01.71,0,.91-.08,1.23-.43.35-.36.64-.91.84-1.43l.43.11Z"/>
        <path d="M271.39,313.79c-.08.36-.46,1.79-.6,2.2h-6.73v-.39c1.29-.1,1.38-.22,1.38-1.36v-5.47c0-1.23-.15-1.3-1.19-1.4v-.39h4.23c1.3,0,1.84-.01,2.01-.03.01.35.07,1.38.12,2.12l-.42.07c-.12-.47-.26-.76-.42-1.05-.22-.46-.54-.55-1.37-.55h-1.31c-.43,0-.46.04-.46.44v3.06h1.54c1.04,0,1.11-.21,1.27-1.15h.43v2.85h-.43c-.18-1-.29-1.13-1.29-1.13h-1.52v2.75c0,.97.3,1.05,1,1.07h1.29c.84,0,.98-.12,1.29-.48.26-.29.55-.86.75-1.27l.42.11Z"/>
        <path d="M277.02,315.99v-.39c.9-.11,1.01-.25.82-.77-.18-.54-.46-1.23-.75-2.1h-2.99c-.22.62-.43,1.16-.62,1.73-.3.9-.11,1.01,1.02,1.15v.39h-3.2v-.39c.87-.11,1.09-.21,1.58-1.45l2.86-7.27.44-.08c.87,2.37,1.83,4.98,2.7,7.38.44,1.2.57,1.32,1.55,1.43v.39h-3.42ZM275.63,308.61c-.44,1.19-.91,2.45-1.33,3.54h2.59l-1.26-3.54Z"/>
        <path d="M289.19,316.1c-.18,0-.33-.01-.51-.03-1.01-.07-1.55-.33-2.16-1.19-.51-.71-1.01-1.58-1.45-2.28-.28-.44-.46-.53-1.16-.53h-.48v2.17c0,1.18.15,1.25,1.26,1.36v.39h-3.7v-.39c1.15-.12,1.25-.18,1.25-1.36v-5.52c0-1.18-.15-1.22-1.25-1.34v-.39h3.53c1.01,0,1.69.12,2.21.47.57.36.94.98.94,1.83,0,1.19-.76,1.94-1.79,2.38.25.43.84,1.36,1.26,1.98.51.73.78,1.08,1.09,1.43.37.4.69.55,1.01.64l-.06.39ZM284.09,311.6c.72,0,1.18-.11,1.52-.4.54-.4.76-.96.76-1.7,0-1.48-.98-2.02-2.05-2.02-.4,0-.64.06-.73.14-.12.1-.17.24-.17.59v3.39h.66Z"/>
        <path d="M299.3,307.38c-.89.1-1.18.24-1.22.87-.01.44-.04,1.02-.04,2.31v5.55h-.53l-5.92-7.24v3.46c0,1.25.04,1.87.07,2.27.03.71.37.91,1.37,1v.39h-3.36v-.39c.86-.07,1.19-.28,1.25-.96.04-.44.07-1.07.07-2.33v-3.53c0-.39-.03-.61-.28-.91-.26-.35-.55-.43-1.23-.5v-.39h2.08l5.87,6.96v-3.39c0-1.29-.03-1.88-.07-2.3-.04-.62-.36-.82-1.47-.89v-.39h3.42v.39Z"/>
        <path d="M300.4,315.99v-.39c1.13-.12,1.25-.18,1.25-1.36v-5.49c0-1.19-.11-1.25-1.25-1.37v-.39h3.71v.39c-1.15.12-1.26.18-1.26,1.37v5.49c0,1.19.11,1.23,1.26,1.36v.39h-3.71Z"/>
        <path d="M315.07,307.38c-.89.1-1.18.24-1.22.87-.01.44-.04,1.02-.04,2.31v5.55h-.53l-5.92-7.24v3.46c0,1.25.04,1.87.07,2.27.03.71.37.91,1.37,1v.39h-3.36v-.39c.86-.07,1.19-.28,1.25-.96.04-.44.07-1.07.07-2.33v-3.53c0-.39-.03-.61-.28-.91-.26-.35-.55-.43-1.23-.5v-.39h2.08l5.87,6.96v-3.39c0-1.29-.03-1.88-.07-2.3-.04-.62-.36-.82-1.47-.89v-.39h3.42v.39Z"/>
        <path d="M325.17,312.21c-.86.11-.91.19-.91,1.01v1.16c0,.48.01.94.08,1.31-.86.19-1.98.5-3.14.5-3.14,0-5.05-1.95-5.05-4.73,0-2.92,2.38-4.66,5.15-4.66,1.41,0,2.45.28,2.88.35.03.51.1,1.36.21,2.23l-.42.08c-.33-1.18-.73-1.67-1.61-1.97-.32-.11-.89-.18-1.29-.18-2.12,0-3.49,1.45-3.49,3.99,0,2.2,1.13,4.39,3.82,4.39.47,0,.9-.1,1.18-.24.29-.17.47-.32.47-.89v-1.13c0-1.01-.11-1.12-1.44-1.22v-.4h3.56v.4Z"/>
        <path d="M254.15,332.59v-.39c.9-.11,1.01-.25.82-.77-.18-.54-.46-1.23-.75-2.1h-2.99c-.22.62-.43,1.16-.62,1.73-.3.9-.11,1.01,1.02,1.15v.39h-3.2v-.39c.87-.11,1.09-.21,1.58-1.45l2.86-7.27.44-.08c.87,2.37,1.83,4.98,2.7,7.38.44,1.2.57,1.32,1.55,1.43v.39h-3.42ZM252.77,325.21c-.44,1.19-.91,2.45-1.33,3.54h2.59l-1.26-3.54Z"/>
        <path d="M265.07,330.29c-.08.43-.5,1.87-.64,2.3h-6.44v-.39c1.26-.12,1.37-.19,1.37-1.37v-5.49c0-1.18-.14-1.25-1.25-1.36v-.39h3.71v.39c-1.11.11-1.26.17-1.26,1.36v5.63c0,.84.11,1.04.9,1.05.01,0,1.01.01,1.09.01.71,0,.91-.08,1.23-.43.35-.36.64-.91.84-1.43l.43.11Z"/>
        <path d="M275.15,328.81c-.86.11-.91.19-.91,1.01v1.16c0,.48.01.94.08,1.31-.86.19-1.98.5-3.14.5-3.14,0-5.05-1.95-5.05-4.73,0-2.92,2.38-4.66,5.15-4.66,1.41,0,2.45.28,2.88.35.03.51.1,1.36.21,2.23l-.42.08c-.33-1.18-.73-1.67-1.61-1.97-.32-.11-.89-.18-1.29-.18-2.12,0-3.49,1.45-3.49,3.99,0,2.2,1.13,4.39,3.82,4.39.47,0,.9-.1,1.18-.24.29-.17.47-.32.47-.89v-1.13c0-1.01-.11-1.12-1.44-1.22v-.4h3.56v.4Z"/>
        <path d="M281.28,323.4c2.37,0,4.48,1.81,4.48,4.57,0,2.98-2.02,4.83-4.57,4.83s-4.59-2.02-4.59-4.62,1.76-4.77,4.68-4.77ZM281,323.91c-1.55,0-2.96,1.3-2.96,3.89s1.41,4.47,3.38,4.47c1.67,0,2.93-1.25,2.93-3.92,0-2.91-1.54-4.44-3.35-4.44Z"/>
        <path d="M295.31,332.7c-.18,0-.33-.01-.51-.03-1.01-.07-1.55-.33-2.16-1.19-.51-.71-1.01-1.58-1.45-2.28-.28-.44-.46-.53-1.16-.53h-.48v2.17c0,1.18.15,1.25,1.26,1.36v.39h-3.7v-.39c1.15-.12,1.25-.18,1.25-1.36v-5.52c0-1.18-.15-1.22-1.25-1.34v-.39h3.53c1.01,0,1.69.12,2.21.47.57.36.94.98.94,1.83,0,1.19-.76,1.94-1.79,2.38.25.43.84,1.36,1.26,1.98.51.73.78,1.08,1.09,1.43.37.4.69.55,1.01.64l-.06.39ZM290.2,328.2c.72,0,1.18-.11,1.52-.4.54-.4.76-.96.76-1.7,0-1.48-.98-2.02-2.05-2.02-.4,0-.64.06-.73.14-.12.1-.17.24-.17.59v3.39h.66Z"/>
        <path d="M295.85,332.59v-.39c1.14-.12,1.25-.18,1.25-1.36v-5.49c0-1.19-.11-1.25-1.25-1.37v-.39h3.71v.39c-1.15.12-1.26.18-1.26,1.37v5.49c0,1.19.11,1.23,1.26,1.36v.39h-3.71Z"/>
        <path d="M308.18,325.77c-.12-.44-.29-.9-.44-1.15-.22-.37-.36-.47-1.12-.47h-1.38v6.74c0,1.08.11,1.23,1.42,1.31v.39h-4.03v-.39c1.29-.08,1.4-.22,1.4-1.31v-6.74h-1.26c-.76,0-.98.08-1.22.5-.17.28-.28.61-.46,1.12h-.42c.08-.84.17-1.72.21-2.49h.32c.21.33.36.32.75.32h5.48c.39,0,.5-.05.71-.32h.33c0,.65.06,1.65.12,2.45l-.42.04Z"/>
        <path d="M319.36,323.98c-1.15.11-1.26.18-1.26,1.34v5.55c0,1.16.12,1.2,1.26,1.33v.39h-3.71v-.39c1.15-.14,1.26-.17,1.26-1.33v-2.77h-4.73v2.77c0,1.15.11,1.19,1.25,1.33v.39h-3.7v-.39c1.12-.12,1.25-.17,1.25-1.33v-5.55c0-1.16-.12-1.23-1.25-1.34v-.39h3.7v.39c-1.11.1-1.25.19-1.25,1.34v2.2h4.73v-2.2c0-1.15-.15-1.25-1.26-1.34v-.39h3.71v.39Z"/>
        <path d="M328.36,332.59v-.39c1.14-.11,1.18-.19,1.16-1.67v-5.65c-1.12,2.53-2.95,6.49-3.43,7.71h-.36c-.47-1.26-2.03-5.07-3.09-7.57-.23,4.84-.25,5.94-.25,6.2.01.78.36.89,1.3.98v.39h-3.28v-.39c.8-.08,1.13-.25,1.25-1,.08-.61.1-1.11.46-6.16.06-.72-.08-.96-1.3-1.07v-.39h2.41l3.06,7.02,3.28-7.02h2.42v.39c-1.19.14-1.34.26-1.31,1.23l.06,5.31c.06,1.48.1,1.55,1.31,1.67v.39h-3.68Z"/>
      </g>
    </g>
  </g>
</svg>