<?xml version="1.0" encoding="UTF-8"?>
<svg xmlns="http://www.w3.org/2000/svg" version="1.1" viewBox="0 0 600 320.09">
  <defs>
    <style>
      .cls-1 {
        stroke-dasharray: 10.54 10.54;
      }

      .cls-1, .cls-2 {
        stroke: #231815;
      }

      .cls-1, .cls-2, .cls-3, .cls-4 {
        stroke-miterlimit: 10;
      }

      .cls-1, .cls-2, .cls-4 {
        fill: none;
      }

      .cls-5, .cls-6 {
        fill: #e60012;
      }

      .cls-7 {
        fill: #0b318f;
      }

      .cls-3 {
        fill: #e4007f;
        stroke: #e4007f;
      }

      .cls-6 {
        font-size: 16.73px;
      }

      .cls-6, .cls-8 {
        font-family: AdobeMyungjoStd-Medium-KSCpc-EUC-H, 'Adobe Myungjo Std';
        font-weight: 500;
      }

      .cls-9 {
        fill: #7e318e;
      }

      .cls-10 {
        fill: #094;
      }

      .cls-4 {
        stroke: #e60012;
      }

      .cls-8 {
        font-size: 20.39px;
      }
    </style>
  </defs>
  <!-- Generator: Adobe Illustrator 28.7.1, SVG Export Plug-In . SVG Version: 1.2.0 Build 142)  -->
  <g>
    <g id="graph">
      <rect class="cls-2" x="148.29" y="84.77" width="336.52" height="27"/>
      <line class="cls-2" x1="176.66" y1="111.77" x2="176.66" y2="84.77"/>
      <line class="cls-2" x1="204.83" y1="111.77" x2="204.83" y2="84.77"/>
      <line class="cls-2" x1="233.01" y1="111.77" x2="233.01" y2="84.77"/>
      <line class="cls-2" x1="458.64" y1="84.77" x2="458.64" y2="111.77"/>
      <rect class="cls-2" x="147.72" y="127.84" width="336.52" height="27"/>
      <line class="cls-2" x1="176.09" y1="154.84" x2="176.09" y2="127.84"/>
      <line class="cls-2" x1="204.27" y1="154.84" x2="204.27" y2="127.84"/>
      <line class="cls-2" x1="232.44" y1="154.84" x2="232.44" y2="127.84"/>
      <line class="cls-2" x1="458.08" y1="127.84" x2="458.08" y2="154.84"/>
      <g>
        <line class="cls-2" x1="287.3" y1="141.34" x2="293.3" y2="141.34"/>
        <line class="cls-1" x1="303.84" y1="141.34" x2="361.82" y2="141.34"/>
        <line class="cls-2" x1="367.09" y1="141.34" x2="373.09" y2="141.34"/>
      </g>
      <g>
        <line class="cls-2" x1="288.84" y1="98.27" x2="294.84" y2="98.27"/>
        <line class="cls-1" x1="305.38" y1="98.27" x2="363.36" y2="98.27"/>
        <line class="cls-2" x1="368.63" y1="98.27" x2="374.63" y2="98.27"/>
      </g>
      <circle class="cls-10" cx="162.52" cy="97.91" r="5.53"/>
      <circle class="cls-7" cx="190.75" cy="97.91" r="7.92"/>
      <circle class="cls-3" cx="218.32" cy="97.91" r="5.11"/>
      <circle class="cls-9" cx="471.79" cy="99.72" r="4.51"/>
      <circle class="cls-9" cx="470.72" cy="142.64" r="7.92"/>
      <circle class="cls-10" cx="161.51" cy="140.44" r="10.41"/>
      <circle class="cls-7" cx="189.14" cy="140.44" r="4.45"/>
      <circle class="cls-3" cx="217.11" cy="141.34" r="5.79"/>
      <rect class="cls-2" x="266.04" y="244.57" width="92.35" height="24.14"/>
      <g>
        <line class="cls-4" x1="312.21" y1="228.62" x2="312.21" y2="179.8"/>
        <polygon class="cls-5" points="317.2 181.26 312.21 172.62 307.22 181.26 317.2 181.26"/>
      </g>
      <text/>
    </g>
    <g id="text">
      <g>
        <path d="M93.41,94.78v-.41h3.55v.41l-1.56.14h-.59l-1.4-.14ZM97.14,101.81l-2.98-7.45h1.32l2.42,6.48h-.24l.09-.19,2.2-6.29h.56l-2.79,7.45h-.57ZM98.49,94.78v-.41h2.82v.41l-1.16.14h-.24l-1.42-.14Z"/>
        <path d="M103.17,101.74c0-.23.02-.54.03-.93,0-.39.02-.8.02-1.22,0-.42,0-.8,0-1.12v-.86c0-.49,0-.93-.01-1.32,0-.39-.02-.76-.04-1.12l-1.27-.06v-.37l2.36-.56.17.11-.04,2v2.16c0,.32,0,.7,0,1.12s.01.83.02,1.22c0,.39.02.7.03.93h-1.27ZM101.98,101.74v-.4l1.57-.16h.44l1.52.16v.4h-3.53ZM103.7,92.37c-.23,0-.42-.07-.59-.22-.16-.15-.24-.34-.24-.58s.08-.43.24-.59.36-.23.59-.23.41.08.58.23c.17.15.25.35.25.59s-.08.43-.25.58c-.17.15-.36.22-.58.22Z"/>
        <path d="M110.45,101.96c-.7,0-1.32-.14-1.87-.43-.55-.29-.99-.72-1.3-1.3-.31-.58-.47-1.3-.47-2.16,0-.8.16-1.49.49-2.08.33-.59.76-1.04,1.29-1.36.53-.32,1.12-.48,1.75-.48s1.15.13,1.6.39c.44.26.78.62,1.02,1.07.23.45.35.95.35,1.52,0,.34-.03.63-.1.86h-5.84v-.44h4.15c.26,0,.43-.07.52-.2.09-.13.13-.34.13-.63,0-.61-.16-1.11-.49-1.51-.32-.4-.78-.59-1.36-.59-.42,0-.8.13-1.14.39-.34.26-.62.64-.82,1.13s-.3,1.08-.3,1.77c0,.77.12,1.41.35,1.9.23.5.56.86.97,1.09.41.23.88.35,1.4.35s.95-.09,1.32-.26c.38-.18.71-.44,1.01-.78l.23.2c-.31.48-.71.86-1.19,1.14-.48.28-1.04.42-1.69.42Z"/>
        <path d="M113.84,94.78v-.41h3.45v.41l-1.7.14h-.37l-1.37-.14ZM117.2,101.81l-2.6-7.45h1.24l2.07,6.45h-.27l.09-.21,2.19-6.24h.54l2.26,6.45h-.26l.06-.19,1.9-6.27h.59l-2.49,7.45h-.53l-2.26-6.58h.36l-.09.21-2.27,6.37h-.53ZM118.6,94.78v-.41h3.2v.41l-1.44.14h-.3l-1.46-.14ZM122.96,94.78v-.41h2.85v.41l-1.12.14h-.21l-1.52-.14Z"/>
        <path d="M129.97,101.96c-.7,0-1.32-.14-1.87-.43-.55-.29-.99-.72-1.3-1.3-.31-.58-.47-1.3-.47-2.16,0-.8.16-1.49.49-2.08.33-.59.76-1.04,1.29-1.36.53-.32,1.12-.48,1.75-.48s1.15.13,1.6.39c.44.26.78.62,1.02,1.07.23.45.35.95.35,1.52,0,.34-.03.63-.1.86h-5.84v-.44h4.15c.26,0,.43-.07.52-.2.09-.13.13-.34.13-.63,0-.61-.16-1.11-.49-1.51-.32-.4-.78-.59-1.36-.59-.42,0-.8.13-1.14.39-.34.26-.62.64-.82,1.13s-.3,1.08-.3,1.77c0,.77.12,1.41.35,1.9.23.5.56.86.97,1.09.41.23.88.35,1.4.35s.95-.09,1.32-.26c.38-.18.71-.44,1.01-.78l.23.2c-.31.48-.71.86-1.19,1.14-.48.28-1.04.42-1.69.42Z"/>
        <path d="M135.24,101.74c0-.23.02-.54.02-.93,0-.39,0-.8.01-1.22,0-.42,0-.8,0-1.12v-.86c0-.5,0-.93,0-1.32,0-.38-.02-.75-.04-1.1l-1.26-.06v-.37l2.2-.57.19.11.09,2.02h0v2.15c0,.32,0,.7,0,1.12s0,.83.01,1.22c0,.39.01.7.02.93h-1.26ZM134.05,101.74v-.4l1.59-.17h.59l1.62.17v.4h-3.79ZM136.44,97.18l-.3-.74h.26c.14-.47.34-.87.6-1.21s.55-.6.87-.79c.32-.19.65-.29.98-.29.28,0,.52.06.73.16.21.11.35.27.42.48,0,.26-.07.46-.19.6s-.3.21-.56.21c-.18,0-.34-.04-.49-.14-.14-.09-.3-.23-.46-.41l-.33-.31.64.03c-.5.13-.92.39-1.27.78-.35.39-.65.93-.91,1.62Z"/>
      </g>
      <g>
        <path d="M95.18,144.89c0-.23.02-.54.02-.93,0-.39,0-.8.01-1.22,0-.42,0-.8,0-1.12v-.87c0-.49,0-.92,0-1.3,0-.38-.02-.75-.04-1.1l-1.26-.07v-.36l2.2-.57.19.11.09,1.63v2.53c0,.33,0,.7,0,1.12,0,.42,0,.83.01,1.22,0,.39.01.7.02.93h-1.26ZM94.01,144.89v-.4l1.54-.16h.47l1.49.16v.4h-3.5ZM99.88,144.89c0-.23.02-.54.02-.92,0-.39,0-.79.01-1.22,0-.42,0-.8,0-1.14v-1.62c0-.71-.11-1.2-.34-1.49s-.53-.44-.91-.44-.75.11-1.16.34c-.41.23-.86.62-1.36,1.17l-.13-.5h.16c.47-.59.94-1.04,1.42-1.34s.98-.45,1.51-.45c.62,0,1.1.21,1.44.62.34.42.51,1.11.51,2.08v1.62c0,.33,0,.71,0,1.14,0,.42,0,.83.01,1.22,0,.39.01.69.02.92h-1.23ZM98.7,144.89v-.4l1.54-.16h.47l1.47.16v.4h-3.49ZM104.54,144.89c.02-.23.03-.54.04-.92,0-.39,0-.79.01-1.22,0-.42,0-.8,0-1.14v-1.62c0-.72-.11-1.23-.34-1.51-.23-.28-.55-.42-.96-.42-.35,0-.73.1-1.14.31-.41.21-.85.58-1.33,1.12l-.16-.52h.17c.46-.58.93-1.01,1.4-1.28.48-.27.97-.41,1.49-.41.66,0,1.16.21,1.51.62.35.42.52,1.1.52,2.07v1.63c0,.33,0,.71,0,1.14,0,.42,0,.83.01,1.22,0,.39.01.69.02.92h-1.26ZM103.4,144.89v-.4l1.52-.16h.47l1.49.16v.4h-3.48Z"/>
        <path d="M111.59,145.1c-.63,0-1.21-.15-1.75-.44-.54-.29-.98-.73-1.31-1.31-.33-.58-.5-1.29-.5-2.15s.17-1.58.52-2.15c.34-.58.79-1.01,1.33-1.31.54-.3,1.12-.44,1.72-.44s1.2.15,1.75.44.98.73,1.32,1.31c.34.58.51,1.3.51,2.16s-.17,1.58-.5,2.16c-.33.58-.77,1.02-1.31,1.31-.54.29-1.13.44-1.77.44ZM111.59,144.66c.72,0,1.28-.29,1.68-.89.41-.59.61-1.44.61-2.56s-.2-1.96-.61-2.56c-.41-.6-.97-.9-1.68-.9s-1.26.3-1.67.9c-.41.6-.62,1.45-.62,2.56s.21,1.97.62,2.56c.41.59.97.89,1.67.89Z"/>
        <path d="M115.74,137.92v-.41h3.55v.41l-1.56.14h-.59l-1.4-.14ZM119.47,144.96l-2.98-7.45h1.32l2.42,6.48h-.24l.09-.19,2.2-6.29h.56l-2.79,7.45h-.57ZM120.82,137.92v-.41h2.82v.41l-1.16.14h-.24l-1.42-.14Z"/>
        <path d="M125.5,144.89c0-.23.02-.54.03-.93,0-.39.02-.8.02-1.22,0-.42,0-.8,0-1.12v-.86c0-.49,0-.93-.01-1.32,0-.39-.02-.76-.04-1.12l-1.27-.06v-.37l2.36-.56.17.11-.04,2v2.16c0,.33,0,.7,0,1.12,0,.42.01.83.02,1.22,0,.39.02.7.03.93h-1.27ZM124.31,144.89v-.4l1.57-.16h.44l1.52.16v.4h-3.53ZM126.02,135.52c-.23,0-.42-.07-.59-.22-.16-.15-.24-.34-.24-.58s.08-.43.24-.59.36-.23.59-.23.41.08.58.23c.17.15.25.35.25.59s-.08.43-.25.58c-.17.15-.36.22-.58.22Z"/>
        <path d="M132.78,145.1c-.7,0-1.32-.14-1.87-.43-.55-.29-.99-.72-1.3-1.3-.31-.58-.47-1.3-.47-2.16,0-.8.16-1.49.49-2.08.33-.59.76-1.04,1.29-1.36.53-.32,1.12-.48,1.75-.48s1.15.13,1.6.39c.44.26.78.62,1.02,1.07.23.45.35.95.35,1.52,0,.34-.03.63-.1.86h-5.84v-.44h4.15c.26,0,.43-.07.52-.2.09-.13.13-.34.13-.63,0-.61-.16-1.11-.49-1.51-.32-.4-.78-.59-1.36-.59-.42,0-.8.13-1.14.39-.34.26-.62.64-.82,1.13s-.3,1.08-.3,1.77c0,.77.12,1.41.35,1.9.23.5.56.86.97,1.09.41.23.88.35,1.4.35s.95-.09,1.32-.26c.38-.18.71-.44,1.01-.78l.23.2c-.31.48-.71.86-1.19,1.14-.48.28-1.04.42-1.69.42Z"/>
      </g>
      <text class="cls-8" transform="translate(282.23 262.64)"><tspan x="0" y="0">rating</tspan></text>
      <text class="cls-6" transform="translate(327.7 208.03)"><tspan x="0" y="0">LEARNING</tspan></text>
    </g>
  </g>
</svg>