<?xml version="1.0" encoding="UTF-8"?>
<svg xmlns="http://www.w3.org/2000/svg" version="1.1" viewBox="0 0 600 600">
  <defs>
    <style>
      .cls-1 {
        font-size: 14.16px;
      }

      .cls-1, .cls-2, .cls-3, .cls-4, .cls-5, .cls-6, .cls-7 {
        font-family: HancomEQN, HancomEQN;
      }

      .cls-8 {
        fill: #231815;
      }

      .cls-9, .cls-10, .cls-11 {
        fill: none;
        stroke-miterlimit: 10;
      }

      .cls-9, .cls-11 {
        stroke: #231815;
      }

      .cls-12 {
        font-size: 13.94px;
      }

      .cls-12, .cls-13, .cls-14 {
        font-family: H2gtrE, HYGothic-Extra;
      }

      .cls-2 {
        font-size: 13.27px;
      }

      .cls-3 {
        font-size: 10.49px;
      }

      .cls-4 {
        font-size: 9.39px;
      }

      .cls-13 {
        font-size: 14.39px;
      }

      .cls-5 {
        font-size: 12.27px;
      }

      .cls-10 {
        stroke: #e60012;
      }

      .cls-6 {
        font-size: 9.89px;
      }

      .cls-11 {
        stroke-width: .8px;
      }

      .cls-7 {
        font-size: 11.65px;
      }

      .cls-14 {
        font-size: 14.58px;
      }
    </style>
  </defs>
  <!-- Generator: Adobe Illustrator 28.7.1, SVG Export Plug-In . SVG Version: 1.2.0 Build 142)  -->
  <g>
    <g id="_레이어_1" data-name="레이어_1">
      <text class="cls-7" transform="translate(179.96 132.99)"><tspan x="0" y="0"></tspan></text>
      <text class="cls-7" transform="translate(189.36 132.28)"><tspan x="0" y="0"></tspan></text>
      <text class="cls-5" transform="translate(196.8 132.98) scale(.95) skewX(-18.42)"><tspan x="0" y="0"></tspan></text>
      <text class="cls-7" transform="translate(207.05 132.99)"><tspan x="0" y="0">→</tspan></text>
      <text class="cls-5" transform="translate(219.4 132.98) scale(.95) skewX(-18.42)"><tspan x="0" y="0"></tspan></text>
      <text class="cls-1" transform="translate(141.9 242.89)"><tspan x="0" y="0"></tspan></text>
      <text class="cls-1" transform="translate(147.19 243.75)"><tspan x="0" y="0"></tspan></text>
      <text class="cls-4" transform="translate(155.72 246.99) scale(1 1.04)"><tspan x="0" y="0"></tspan></text>
      <text class="cls-1" transform="translate(161.01 242.89)"><tspan x="0" y="0"></tspan></text>
      <text class="cls-1" transform="translate(166.3 243.75)"><tspan x="0" y="0"></tspan></text>
      <text class="cls-4" transform="translate(173.81 246.99) scale(1 1.04)"><tspan x="0" y="0"></tspan></text>
      <text class="cls-1" transform="translate(181.66 242.89)"><tspan x="0" y="0"></tspan></text>
      <text class="cls-1" transform="translate(187.12 242.89)"><tspan x="0" y="0"></tspan></text>
      <text class="cls-1" transform="translate(194.12 242.89)"><tspan x="0" y="0"></tspan></text>
      <text class="cls-1" transform="translate(198.38 242.89)"><tspan x="0" y="0"></tspan></text>
      <text class="cls-1" transform="translate(202.65 242.89)"><tspan x="0" y="0"></tspan></text>
      <text class="cls-1" transform="translate(208.62 242.89)"><tspan x="0" y="0"></tspan></text>
      <text class="cls-1" transform="translate(216.64 242.89)"><tspan x="0" y="0"></tspan></text>
      <text class="cls-1" transform="translate(222.11 243.75)"><tspan x="0" y="0"></tspan></text>
      <text class="cls-6" transform="translate(230.64 246.99) scale(.95 .98) skewX(-19.03)"><tspan x="0" y="0"></tspan></text>
      <text class="cls-1" transform="translate(240.37 242.89)"><tspan x="0" y="0"></tspan></text>
      <text class="cls-1" transform="translate(247.36 243.75)"><tspan x="0" y="0"></tspan></text>
      <text class="cls-6" transform="translate(254.87 246.99) scale(.95 .98) skewX(-19.03)"><tspan x="0" y="0"></tspan></text>
      <text class="cls-1" transform="translate(264.77 242.89)"><tspan x="0" y="0"></tspan></text>
      <text class="cls-2" transform="translate(425.66 351.67)"><tspan x="0" y="0"></tspan></text>
      <text class="cls-2" transform="translate(433.5 351.67)"><tspan x="0" y="0">≈</tspan></text>
      <text class="cls-2" transform="translate(449.34 351.67)"><tspan x="0" y="0"></tspan></text>
      <text class="cls-3" transform="translate(284.59 366.21) scale(.95) skewX(-18.42)"><tspan x="0" y="0"></tspan></text>
      <text class="cls-3" transform="translate(201.26 445.41) scale(.95) skewX(-18.42)"><tspan x="0" y="0"></tspan></text>
      <g>
        <path d="M127.78,151.7c-1.09,1.4-1.92,3.14-1.92,5.38,0,2.04.67,3.87,1.92,5.51h-.68c-.86-1.12-1.83-3.03-1.83-5.52s.98-4.32,1.83-5.37h.68Z"/>
        <path d="M129.25,151.71h.6v1.16h-.6v-1.16ZM129.25,154.55h.6v6h-.6v-6Z"/>
        <path d="M136.45,151.71v7.11c0,.58,0,1.13.01,1.73h-.58c-.02-.14-.04-.71-.04-1.01-.3.73-.97,1.15-2.01,1.15-1.56,0-2.49-1.27-2.49-3.07s1.02-3.21,2.65-3.21c1.2,0,1.68.52,1.86.9v-3.6h.6ZM131.98,157.6c0,1.64.85,2.53,1.88,2.53,1.58,0,2.01-1.09,2.01-2.72s-.37-2.44-1.91-2.44c-1.19,0-1.99.95-1.99,2.63Z"/>
        <path d="M138.55,157.62c.01,1.55.79,2.51,1.94,2.51s1.51-.64,1.73-1.13h.61c-.25.79-.89,1.69-2.36,1.69-1.82,0-2.53-1.57-2.53-3.09,0-1.72.85-3.19,2.6-3.19,1.85,0,2.43,1.6,2.43,2.72,0,.17,0,.34-.01.49h-4.41ZM142.36,157.09c-.01-1.19-.66-2.12-1.83-2.12-1.24,0-1.8.86-1.93,2.12h3.77Z"/>
        <path d="M148.56,159.41c0,.53.05.95.08,1.14h-.58c-.05-.14-.08-.41-.11-.92-.2.44-.73,1.07-1.97,1.07-1.39,0-1.99-.9-1.99-1.8,0-1.32,1.02-1.92,2.82-1.92h1.14v-.61c0-.6-.18-1.4-1.55-1.4-1.21,0-1.39.64-1.52,1.13h-.6c.07-.66.48-1.68,2.13-1.68,1.37,0,2.13.58,2.13,1.9v3.11ZM147.97,157.49h-1.18c-1.33,0-2.16.35-2.16,1.38,0,.76.54,1.27,1.38,1.27,1.71,0,1.96-1.14,1.96-2.43v-.22Z"/>
        <path d="M150.54,160.55v-8.84h.6v8.84h-.6Z"/>
        <path d="M160.64,158.78c-.29,1.06-.98,1.91-2.33,1.91-1.5,0-2.57-1.12-2.57-3.12,0-1.64.88-3.17,2.64-3.17,1.52,0,2.15,1.08,2.25,1.92h-.61c-.18-.7-.64-1.36-1.65-1.36-1.27,0-1.99,1.08-1.99,2.58s.67,2.58,1.93,2.58c.88,0,1.4-.44,1.71-1.34h.61Z"/>
        <path d="M162.04,156.18c0-1.01-.01-1.44-.01-1.63h.59c.01.19.02.58.02,1.34.35-.9,1.12-1.44,2.09-1.49v.65c-1.25.08-2.09.95-2.09,2.38v3.12h-.6v-4.37Z"/>
        <path d="M165.96,157.62c.01,1.55.79,2.51,1.94,2.51s1.51-.64,1.73-1.13h.61c-.25.79-.89,1.69-2.36,1.69-1.82,0-2.53-1.57-2.53-3.09,0-1.72.85-3.19,2.6-3.19,1.85,0,2.43,1.6,2.43,2.72,0,.17,0,.34-.01.49h-4.41ZM169.76,157.09c-.01-1.19-.66-2.12-1.83-2.12-1.24,0-1.8.86-1.93,2.12h3.77Z"/>
        <path d="M176.54,151.71v7.11c0,.58,0,1.13.01,1.73h-.58c-.02-.14-.04-.71-.04-1.01-.3.73-.97,1.15-2.01,1.15-1.56,0-2.49-1.27-2.49-3.07s1.02-3.21,2.65-3.21c1.2,0,1.68.52,1.86.9v-3.6h.6ZM172.07,157.6c0,1.64.85,2.53,1.88,2.53,1.58,0,2.01-1.09,2.01-2.72s-.37-2.44-1.91-2.44c-1.19,0-1.99.95-1.99,2.63Z"/>
        <path d="M178.51,151.71h.6v1.16h-.6v-1.16ZM178.51,154.55h.6v6h-.6v-6Z"/>
        <path d="M180.27,154.55h1.12v-1.87h.6v1.87h1.43v.56h-1.43v3.9c0,.67.14,1.06.72,1.06.18,0,.43-.01.62-.07v.53c-.2.08-.49.11-.74.11-.77,0-1.2-.38-1.2-1.34v-4.17h-1.12v-.56Z"/>
        <path d="M191.87,159.41c0,.53.05.95.08,1.14h-.58c-.05-.14-.08-.41-.11-.92-.2.44-.73,1.07-1.97,1.07-1.39,0-1.99-.9-1.99-1.8,0-1.32,1.02-1.92,2.82-1.92h1.14v-.61c0-.6-.18-1.4-1.55-1.4-1.21,0-1.39.64-1.52,1.13h-.6c.07-.66.48-1.68,2.13-1.68,1.37,0,2.13.58,2.13,1.9v3.11ZM191.28,157.49h-1.18c-1.33,0-2.16.35-2.16,1.38,0,.76.54,1.27,1.38,1.27,1.71,0,1.96-1.14,1.96-2.43v-.22Z"/>
        <path d="M194.45,159.66v3.29h-.6v-6.92c0-.49,0-1.02-.01-1.48h.59c.02.23.02.59.02,1.08.37-.72,1.03-1.22,2.11-1.22,1.42,0,2.4,1.19,2.4,2.99,0,2.16-1.15,3.3-2.6,3.3-1.06,0-1.61-.47-1.91-1.03ZM198.32,157.42c0-1.39-.67-2.43-1.86-2.43-1.45,0-2.05.91-2.05,2.54s.47,2.6,1.97,2.6c1.25,0,1.94-1.06,1.94-2.71Z"/>
        <path d="M201.06,159.66v3.29h-.6v-6.92c0-.49,0-1.02-.01-1.48h.59c.02.23.02.59.02,1.08.37-.72,1.03-1.22,2.11-1.22,1.42,0,2.4,1.19,2.4,2.99,0,2.16-1.15,3.3-2.6,3.3-1.06,0-1.61-.47-1.91-1.03ZM204.93,157.42c0-1.39-.67-2.43-1.86-2.43-1.45,0-2.05.91-2.05,2.54s.47,2.6,1.97,2.6c1.25,0,1.94-1.06,1.94-2.71Z"/>
        <path d="M207.07,156.18c0-1.01-.01-1.44-.01-1.63h.59c.01.19.02.58.02,1.34.35-.9,1.12-1.44,2.09-1.49v.65c-1.25.08-2.09.95-2.09,2.38v3.12h-.6v-4.37Z"/>
        <path d="M215.72,157.54c0,1.67-.92,3.15-2.71,3.15-1.62,0-2.63-1.33-2.63-3.14,0-1.71.95-3.14,2.69-3.14,1.59,0,2.65,1.25,2.65,3.13ZM211.02,157.55c0,1.43.77,2.58,2.04,2.58s2.03-1.07,2.03-2.58c0-1.42-.72-2.58-2.05-2.58s-2.02,1.14-2.02,2.58Z"/>
        <path d="M217.13,154.55c.97,2.75,1.64,4.62,1.87,5.38h.01c.13-.44.8-2.23,1.97-5.38h.64l-2.27,6h-.72l-2.13-6h.64Z"/>
        <path d="M226.8,159.41c0,.53.05.95.08,1.14h-.58c-.05-.14-.08-.41-.11-.92-.2.44-.73,1.07-1.97,1.07-1.39,0-1.99-.9-1.99-1.8,0-1.32,1.02-1.92,2.82-1.92h1.14v-.61c0-.6-.18-1.4-1.55-1.4-1.21,0-1.39.64-1.52,1.13h-.6c.07-.66.48-1.68,2.13-1.68,1.37,0,2.13.58,2.13,1.9v3.11ZM226.21,157.49h-1.18c-1.33,0-2.16.35-2.16,1.38,0,.76.54,1.27,1.38,1.27,1.71,0,1.96-1.14,1.96-2.43v-.22Z"/>
        <path d="M228.78,160.55v-8.84h.6v8.84h-.6Z"/>
        <path d="M234.62,160.55v-5.43h-1.03v-.56h1.03v-.85c0-1.01.29-2.11,1.63-2.11.18,0,.44.04.59.08v.58c-.18-.05-.47-.07-.65-.07-.71,0-.97.5-.97,1.55v.83h1.31v.56h-1.31v5.43h-.6Z"/>
        <path d="M242.01,158.8c0,.59.01,1.52.01,1.75h-.58c-.02-.16-.04-.55-.04-1.04-.25.71-.86,1.19-1.93,1.19-.86,0-1.97-.34-1.97-2.17v-3.97h.59v3.83c0,.88.28,1.73,1.46,1.73,1.34,0,1.85-.76,1.85-2.47v-3.08h.6v4.25Z"/>
        <path d="M243.98,156.06c0-.53,0-1.03-.01-1.51h.59c.02.19.04.97.02,1.14.26-.61.76-1.28,1.99-1.28,1.07,0,2.01.6,2.01,2.25v3.89h-.6v-3.79c0-1.07-.44-1.76-1.49-1.76-1.43,0-1.92,1.19-1.92,2.49v3.06h-.6v-4.49Z"/>
        <path d="M254.97,158.78c-.29,1.06-.98,1.91-2.33,1.91-1.5,0-2.57-1.12-2.57-3.12,0-1.64.88-3.17,2.64-3.17,1.52,0,2.15,1.08,2.25,1.92h-.61c-.18-.7-.64-1.36-1.65-1.36-1.27,0-1.99,1.08-1.99,2.58s.67,2.58,1.93,2.58c.88,0,1.4-.44,1.71-1.34h.61Z"/>
        <path d="M255.61,154.55h1.12v-1.87h.6v1.87h1.43v.56h-1.43v3.9c0,.67.14,1.06.72,1.06.18,0,.43-.01.62-.07v.53c-.2.08-.49.11-.74.11-.77,0-1.2-.38-1.2-1.34v-4.17h-1.12v-.56Z"/>
        <path d="M259.98,151.71h.6v1.16h-.6v-1.16ZM259.98,154.55h.6v6h-.6v-6Z"/>
        <path d="M267.4,157.54c0,1.67-.92,3.15-2.71,3.15-1.62,0-2.63-1.33-2.63-3.14,0-1.71.95-3.14,2.69-3.14,1.59,0,2.65,1.25,2.65,3.13ZM262.7,157.55c0,1.43.77,2.58,2.04,2.58s2.03-1.07,2.03-2.58c0-1.42-.72-2.58-2.05-2.58s-2.02,1.14-2.02,2.58Z"/>
        <path d="M268.9,156.06c0-.53,0-1.03-.01-1.51h.59c.02.19.04.97.02,1.14.26-.61.76-1.28,1.99-1.28,1.07,0,2.01.6,2.01,2.25v3.89h-.6v-3.79c0-1.07-.44-1.76-1.49-1.76-1.43,0-1.92,1.19-1.92,2.49v3.06h-.6v-4.49Z"/>
        <path d="M274.74,162.59c1.09-1.4,1.92-3.14,1.92-5.39,0-2.04-.67-3.87-1.92-5.5h.68c.86,1.12,1.83,3.03,1.83,5.52s-.98,4.32-1.83,5.37h-.68Z"/>
      </g>
      <g>
        <path d="M112.76,262.43c-1.09,1.4-1.92,3.14-1.92,5.38,0,2.04.67,3.87,1.92,5.51h-.68c-.86-1.12-1.83-3.03-1.83-5.52s.98-4.32,1.83-5.37h.68Z"/>
        <path d="M114.84,262.45v3.85c.34-.62.92-1.15,1.98-1.15.85,0,2.03.43,2.03,2.33v3.81h-.6v-3.69c0-1.19-.54-1.86-1.54-1.86-1.19,0-1.87.73-1.87,2.21v3.35h-.6v-8.84h.6Z"/>
        <path d="M120.81,262.45h.6v1.16h-.6v-1.16ZM120.81,265.29h.6v6h-.6v-6Z"/>
        <path d="M123.32,269.63c.2.78.76,1.25,1.7,1.25,1.07,0,1.5-.49,1.5-1.16s-.29-1.02-1.63-1.34c-1.55-.37-1.93-.84-1.93-1.63s.62-1.6,1.98-1.6,2,.83,2.1,1.68h-.6c-.11-.5-.5-1.13-1.52-1.13s-1.34.52-1.34,1c0,.55.29.83,1.48,1.12,1.69.41,2.11.96,2.11,1.86,0,1.09-.89,1.76-2.15,1.76-1.37,0-2.13-.72-2.3-1.8h.61Z"/>
        <path d="M127.71,265.29h1.12v-1.87h.6v1.87h1.43v.56h-1.43v3.9c0,.67.14,1.06.72,1.06.18,0,.43-.01.62-.07v.53c-.2.08-.49.11-.74.11-.77,0-1.2-.38-1.2-1.34v-4.17h-1.12v-.56Z"/>
        <path d="M136.87,268.27c0,1.67-.92,3.15-2.71,3.15-1.62,0-2.63-1.33-2.63-3.14,0-1.71.95-3.14,2.69-3.14,1.59,0,2.65,1.25,2.65,3.13ZM132.16,268.29c0,1.43.77,2.58,2.04,2.58s2.03-1.07,2.03-2.58c0-1.42-.72-2.58-2.05-2.58s-2.02,1.14-2.02,2.58Z"/>
        <path d="M138.36,266.92c0-1.01-.01-1.44-.01-1.63h.59c.01.19.02.58.02,1.34.35-.9,1.12-1.44,2.09-1.49v.65c-1.25.08-2.09.95-2.09,2.38v3.12h-.6v-4.37Z"/>
        <path d="M142.15,262.45h.6v1.16h-.6v-1.16ZM142.15,265.29h.6v6h-.6v-6Z"/>
        <path d="M149.13,269.52c-.29,1.06-.98,1.91-2.33,1.91-1.5,0-2.57-1.12-2.57-3.12,0-1.64.88-3.17,2.64-3.17,1.52,0,2.15,1.08,2.25,1.92h-.61c-.18-.7-.64-1.36-1.65-1.36-1.27,0-1.99,1.08-1.99,2.58s.67,2.58,1.93,2.58c.88,0,1.4-.44,1.71-1.34h.61Z"/>
        <path d="M154.69,270.15c0,.53.05.95.08,1.14h-.58c-.05-.14-.08-.41-.11-.92-.2.44-.73,1.07-1.97,1.07-1.39,0-1.99-.9-1.99-1.8,0-1.32,1.02-1.92,2.82-1.92h1.14v-.61c0-.6-.18-1.4-1.55-1.4-1.21,0-1.39.64-1.52,1.13h-.6c.07-.66.48-1.68,2.13-1.68,1.37,0,2.13.58,2.13,1.9v3.11ZM154.1,268.23h-1.18c-1.33,0-2.16.35-2.16,1.38,0,.76.54,1.27,1.38,1.27,1.71,0,1.95-1.14,1.95-2.43v-.22Z"/>
        <path d="M156.67,271.28v-8.84h.6v8.84h-.6Z"/>
        <path d="M162.36,266.92c0-1.01-.01-1.44-.01-1.63h.59c.01.19.02.58.02,1.34.35-.9,1.12-1.44,2.09-1.49v.65c-1.25.08-2.09.95-2.09,2.38v3.12h-.6v-4.37Z"/>
        <path d="M166.28,268.36c.01,1.55.79,2.51,1.94,2.51s1.51-.64,1.73-1.13h.61c-.25.79-.89,1.69-2.36,1.69-1.82,0-2.53-1.57-2.53-3.09,0-1.72.85-3.19,2.6-3.19,1.85,0,2.43,1.6,2.43,2.72,0,.17,0,.34-.01.49h-4.41ZM170.08,267.83c-.01-1.19-.66-2.12-1.83-2.12-1.24,0-1.8.86-1.93,2.12h3.77Z"/>
        <path d="M176.65,269.52c-.29,1.06-.98,1.91-2.33,1.91-1.5,0-2.57-1.12-2.57-3.12,0-1.64.88-3.17,2.64-3.17,1.52,0,2.15,1.08,2.25,1.92h-.61c-.18-.7-.64-1.36-1.65-1.36-1.27,0-1.99,1.08-1.99,2.58s.67,2.58,1.93,2.58c.88,0,1.4-.44,1.71-1.34h.61Z"/>
        <path d="M182.96,268.27c0,1.67-.92,3.15-2.71,3.15-1.62,0-2.63-1.33-2.63-3.14,0-1.71.95-3.14,2.69-3.14,1.59,0,2.65,1.25,2.65,3.13ZM178.26,268.29c0,1.43.77,2.58,2.04,2.58s2.03-1.07,2.03-2.58c0-1.42-.72-2.58-2.05-2.58s-2.02,1.14-2.02,2.58Z"/>
        <path d="M184.45,266.92c0-1.01-.01-1.44-.01-1.63h.59c.01.19.02.58.02,1.34.35-.9,1.12-1.44,2.09-1.49v.65c-1.25.08-2.09.95-2.09,2.38v3.12h-.6v-4.37Z"/>
        <path d="M192.87,262.45v7.11c0,.58,0,1.13.01,1.73h-.58c-.02-.14-.04-.71-.04-1.01-.3.73-.97,1.15-2.01,1.15-1.56,0-2.49-1.27-2.49-3.07s1.02-3.21,2.65-3.21c1.2,0,1.68.52,1.86.9v-3.6h.6ZM188.4,268.33c0,1.64.85,2.53,1.88,2.53,1.58,0,2.01-1.09,2.01-2.72s-.37-2.44-1.91-2.44c-1.19,0-1.99.95-1.99,2.63Z"/>
        <path d="M194.78,269.63c.2.78.76,1.25,1.7,1.25,1.07,0,1.5-.49,1.5-1.16s-.29-1.02-1.63-1.34c-1.55-.37-1.93-.84-1.93-1.63s.62-1.6,1.98-1.6,2,.83,2.1,1.68h-.6c-.11-.5-.5-1.13-1.52-1.13s-1.34.52-1.34,1c0,.55.29.83,1.48,1.12,1.69.41,2.11.96,2.11,1.86,0,1.09-.89,1.76-2.15,1.76-1.37,0-2.13-.72-2.3-1.8h.61Z"/>
        <path d="M208.08,268.27c0,1.67-.92,3.15-2.71,3.15-1.62,0-2.63-1.33-2.63-3.14,0-1.71.95-3.14,2.69-3.14,1.59,0,2.65,1.25,2.65,3.13ZM203.38,268.29c0,1.43.77,2.58,2.04,2.58s2.03-1.07,2.03-2.58c0-1.42-.72-2.58-2.05-2.58s-2.02,1.14-2.02,2.58Z"/>
        <path d="M209.83,271.28v-5.43h-1.03v-.56h1.03v-.85c0-1.01.29-2.11,1.63-2.11.18,0,.44.04.59.08v.58c-.18-.05-.47-.07-.65-.07-.71,0-.97.5-.97,1.55v.83h1.31v.56h-1.31v5.43h-.6Z"/>
        <path d="M220.22,269.52c-.29,1.06-.98,1.91-2.33,1.91-1.5,0-2.57-1.12-2.57-3.12,0-1.64.88-3.17,2.64-3.17,1.52,0,2.15,1.08,2.25,1.92h-.61c-.18-.7-.64-1.36-1.65-1.36-1.27,0-1.99,1.08-1.99,2.58s.67,2.58,1.93,2.58c.88,0,1.4-.44,1.71-1.34h.61Z"/>
        <path d="M221.61,266.92c0-1.01-.01-1.44-.01-1.63h.59c.01.19.02.58.02,1.34.35-.9,1.12-1.44,2.09-1.49v.65c-1.25.08-2.09.95-2.09,2.38v3.12h-.6v-4.37Z"/>
        <path d="M225.53,268.36c.01,1.55.79,2.51,1.94,2.51s1.51-.64,1.73-1.13h.61c-.25.79-.89,1.69-2.36,1.69-1.82,0-2.53-1.57-2.53-3.09,0-1.72.85-3.19,2.6-3.19,1.85,0,2.43,1.6,2.43,2.72,0,.17,0,.34-.01.49h-4.41ZM229.34,267.83c-.01-1.19-.66-2.12-1.83-2.12-1.24,0-1.8.86-1.93,2.12h3.77Z"/>
        <path d="M236.12,262.45v7.11c0,.58,0,1.13.01,1.73h-.58c-.02-.14-.04-.71-.04-1.01-.3.73-.97,1.15-2.01,1.15-1.56,0-2.49-1.27-2.49-3.07s1.02-3.21,2.65-3.21c1.2,0,1.68.52,1.86.9v-3.6h.6ZM231.64,268.33c0,1.64.85,2.53,1.88,2.53,1.58,0,2.01-1.09,2.01-2.72s-.37-2.44-1.91-2.44c-1.19,0-1.99.95-1.99,2.63Z"/>
        <path d="M238.09,262.45h.6v1.16h-.6v-1.16ZM238.09,265.29h.6v6h-.6v-6Z"/>
        <path d="M239.84,265.29h1.12v-1.87h.6v1.87h1.43v.56h-1.43v3.9c0,.67.14,1.06.72,1.06.18,0,.43-.01.62-.07v.53c-.2.08-.49.11-.74.11-.77,0-1.2-.38-1.2-1.34v-4.17h-1.12v-.56Z"/>
        <path d="M251.74,269.52c-.29,1.06-.98,1.91-2.33,1.91-1.5,0-2.57-1.12-2.57-3.12,0-1.64.88-3.17,2.64-3.17,1.52,0,2.15,1.08,2.25,1.92h-.61c-.18-.7-.64-1.36-1.65-1.36-1.27,0-1.99,1.08-1.99,2.58s.67,2.58,1.93,2.58c.88,0,1.4-.44,1.71-1.34h.61Z"/>
        <path d="M257.56,269.53c0,.59.01,1.52.01,1.75h-.58c-.02-.16-.04-.55-.04-1.04-.25.71-.86,1.19-1.93,1.19-.86,0-1.97-.34-1.97-2.17v-3.97h.59v3.83c0,.88.28,1.73,1.46,1.73,1.34,0,1.85-.76,1.85-2.47v-3.08h.6v4.25Z"/>
        <path d="M259.46,269.63c.2.78.76,1.25,1.7,1.25,1.07,0,1.5-.49,1.5-1.16s-.29-1.02-1.63-1.34c-1.55-.37-1.93-.84-1.93-1.63s.62-1.6,1.98-1.6,2,.83,2.1,1.68h-.6c-.11-.5-.5-1.13-1.52-1.13s-1.34.52-1.34,1c0,.55.29.83,1.48,1.12,1.69.41,2.11.96,2.11,1.86,0,1.09-.89,1.76-2.15,1.76-1.37,0-2.13-.72-2.3-1.8h.61Z"/>
        <path d="M263.85,265.29h1.12v-1.87h.6v1.87h1.43v.56h-1.43v3.9c0,.67.14,1.06.72,1.06.18,0,.43-.01.62-.07v.53c-.2.08-.49.11-.74.11-.77,0-1.2-.38-1.2-1.34v-4.17h-1.12v-.56Z"/>
        <path d="M273,268.27c0,1.67-.92,3.15-2.71,3.15-1.62,0-2.63-1.33-2.63-3.14,0-1.71.95-3.14,2.69-3.14,1.59,0,2.65,1.25,2.65,3.13ZM268.3,268.29c0,1.43.77,2.58,2.04,2.58s2.03-1.07,2.03-2.58c0-1.42-.72-2.58-2.05-2.58s-2.02,1.14-2.02,2.58Z"/>
        <path d="M274.49,266.83c0-.52,0-1.08-.01-1.55h.59c.01.2.04.72.02,1.07.25-.6.8-1.21,1.8-1.21.84,0,1.5.42,1.74,1.19.3-.62.9-1.19,1.96-1.19.92,0,1.88.53,1.88,2.19v3.95h-.6v-3.87c0-.8-.29-1.68-1.4-1.68s-1.69.94-1.69,2.1v3.45h-.59v-3.86c0-.88-.26-1.69-1.37-1.69-1.16,0-1.73,1.03-1.73,2.25v3.3h-.6v-4.45Z"/>
        <path d="M284.57,268.36c.01,1.55.79,2.51,1.94,2.51s1.51-.64,1.73-1.13h.61c-.25.79-.89,1.69-2.36,1.69-1.82,0-2.53-1.57-2.53-3.09,0-1.72.85-3.19,2.6-3.19,1.85,0,2.43,1.6,2.43,2.72,0,.17,0,.34-.01.49h-4.41ZM288.38,267.83c-.01-1.19-.66-2.12-1.83-2.12-1.24,0-1.8.86-1.93,2.12h3.77Z"/>
        <path d="M290.47,266.92c0-1.01-.01-1.44-.01-1.63h.59c.01.19.02.58.02,1.34.35-.9,1.12-1.44,2.09-1.49v.65c-1.25.08-2.09.95-2.09,2.38v3.12h-.6v-4.37Z"/>
        <path d="M294.4,269.63c.2.78.76,1.25,1.7,1.25,1.07,0,1.5-.49,1.5-1.16s-.29-1.02-1.63-1.34c-1.55-.37-1.93-.84-1.93-1.63s.62-1.6,1.98-1.6,2,.83,2.1,1.68h-.6c-.11-.5-.5-1.13-1.52-1.13s-1.34.52-1.34,1c0,.55.29.83,1.48,1.12,1.69.41,2.11.96,2.11,1.86,0,1.09-.89,1.76-2.15,1.76-1.37,0-2.13-.72-2.3-1.8h.61Z"/>
        <path d="M299.24,273.32c1.09-1.4,1.92-3.14,1.92-5.39,0-2.04-.67-3.87-1.92-5.5h.68c.86,1.12,1.83,3.03,1.83,5.52s-.98,4.32-1.83,5.37h-.68Z"/>
      </g>
      <g>
        <path d="M139.5,466.63c-1.09,1.4-1.92,3.14-1.92,5.38,0,2.04.67,3.87,1.92,5.5h-.68c-.86-1.12-1.83-3.03-1.83-5.52s.98-4.32,1.83-5.37h.68Z"/>
        <path d="M140.98,473.83c.2.78.76,1.25,1.7,1.25,1.07,0,1.5-.49,1.5-1.16s-.29-1.02-1.63-1.34c-1.55-.37-1.93-.84-1.93-1.63s.62-1.6,1.98-1.6,2,.83,2.1,1.68h-.6c-.11-.5-.5-1.13-1.52-1.13s-1.34.52-1.34,1c0,.55.29.83,1.48,1.12,1.69.41,2.11.96,2.11,1.86,0,1.09-.89,1.76-2.15,1.76-1.37,0-2.13-.72-2.3-1.8h.61Z"/>
        <path d="M146.43,472.56c.01,1.55.79,2.51,1.94,2.51s1.51-.64,1.73-1.13h.61c-.25.79-.89,1.69-2.36,1.69-1.82,0-2.53-1.57-2.53-3.09,0-1.71.85-3.19,2.6-3.19,1.85,0,2.43,1.6,2.43,2.72,0,.17,0,.34-.01.49h-4.41ZM150.24,472.03c-.01-1.19-.66-2.12-1.83-2.12-1.24,0-1.8.86-1.93,2.12h3.77Z"/>
        <path d="M151.52,469.49h1.12v-1.87h.6v1.87h1.43v.56h-1.43v3.9c0,.67.14,1.06.72,1.06.18,0,.43-.01.62-.07v.53c-.2.08-.49.11-.74.11-.77,0-1.2-.38-1.2-1.34v-4.17h-1.12v-.56Z"/>
        <path d="M163.87,472.47c0,1.67-.92,3.15-2.71,3.15-1.62,0-2.63-1.33-2.63-3.14,0-1.71.95-3.14,2.69-3.14,1.59,0,2.65,1.25,2.65,3.13ZM159.17,472.49c0,1.43.77,2.58,2.04,2.58s2.03-1.07,2.03-2.58c0-1.42-.72-2.58-2.05-2.58s-2.02,1.14-2.02,2.58Z"/>
        <path d="M165.61,475.48v-5.43h-1.03v-.56h1.03v-.85c0-1.01.29-2.11,1.63-2.11.18,0,.44.04.59.08v.58c-.18-.05-.47-.07-.65-.07-.71,0-.97.5-.97,1.55v.83h1.31v.56h-1.31v5.43h-.6Z"/>
        <path d="M176,473.72c-.29,1.06-.98,1.91-2.33,1.91-1.5,0-2.57-1.12-2.57-3.12,0-1.64.88-3.17,2.64-3.17,1.52,0,2.15,1.08,2.25,1.92h-.61c-.18-.7-.64-1.36-1.65-1.36-1.27,0-1.99,1.08-1.99,2.58s.67,2.58,1.93,2.58c.88,0,1.4-.44,1.71-1.34h.61Z"/>
        <path d="M181.56,474.34c0,.53.05.95.08,1.14h-.58c-.05-.14-.08-.41-.11-.92-.2.44-.73,1.07-1.97,1.07-1.39,0-1.99-.9-1.99-1.8,0-1.32,1.02-1.92,2.82-1.92h1.14v-.61c0-.6-.18-1.4-1.55-1.4-1.21,0-1.39.64-1.52,1.13h-.6c.07-.66.48-1.68,2.13-1.68,1.37,0,2.13.58,2.13,1.9v3.11ZM180.97,472.43h-1.18c-1.33,0-2.16.35-2.16,1.38,0,.76.54,1.27,1.38,1.27,1.71,0,1.96-1.14,1.96-2.43v-.22Z"/>
        <path d="M183.54,471c0-.53,0-1.03-.01-1.51h.59c.02.19.04.97.02,1.14.26-.61.76-1.28,1.99-1.28,1.07,0,2.01.6,2.01,2.25v3.89h-.6v-3.79c0-1.07-.44-1.76-1.49-1.76-1.43,0-1.92,1.19-1.92,2.5v3.06h-.6v-4.49Z"/>
        <path d="M194.74,466.64v7.11c0,.58,0,1.13.01,1.73h-.58c-.02-.14-.04-.71-.04-1.01-.3.73-.97,1.15-2.01,1.15-1.56,0-2.49-1.27-2.49-3.07s1.02-3.21,2.65-3.21c1.2,0,1.68.52,1.86.9v-3.6h.6ZM190.27,472.53c0,1.64.85,2.53,1.88,2.53,1.58,0,2.01-1.09,2.01-2.72s-.37-2.44-1.91-2.44c-1.19,0-1.99.95-1.99,2.63Z"/>
        <path d="M196.71,466.64h.6v1.16h-.6v-1.16ZM196.71,469.49h.6v6h-.6v-6Z"/>
        <path d="M203.91,466.64v7.11c0,.58,0,1.13.01,1.73h-.58c-.02-.14-.04-.71-.04-1.01-.3.73-.97,1.15-2.01,1.15-1.56,0-2.49-1.27-2.49-3.07s1.02-3.21,2.65-3.21c1.2,0,1.68.52,1.86.9v-3.6h.6ZM199.44,472.53c0,1.64.85,2.53,1.88,2.53,1.58,0,2.01-1.09,2.01-2.72s-.37-2.44-1.91-2.44c-1.19,0-1.99.95-1.99,2.63Z"/>
        <path d="M209.91,474.34c0,.53.05.95.08,1.14h-.58c-.05-.14-.08-.41-.11-.92-.2.44-.73,1.07-1.97,1.07-1.39,0-1.99-.9-1.99-1.8,0-1.32,1.02-1.92,2.82-1.92h1.14v-.61c0-.6-.18-1.4-1.55-1.4-1.21,0-1.39.64-1.52,1.13h-.6c.07-.66.48-1.68,2.13-1.68,1.37,0,2.13.58,2.13,1.9v3.11ZM209.32,472.43h-1.18c-1.33,0-2.16.35-2.16,1.38,0,.76.54,1.27,1.38,1.27,1.71,0,1.96-1.14,1.96-2.43v-.22Z"/>
        <path d="M210.93,469.49h1.12v-1.87h.6v1.87h1.43v.56h-1.43v3.9c0,.67.14,1.06.72,1.06.18,0,.43-.01.62-.07v.53c-.2.08-.49.11-.74.11-.77,0-1.2-.38-1.2-1.34v-4.17h-1.12v-.56Z"/>
        <path d="M215.36,472.56c.01,1.55.79,2.51,1.94,2.51s1.51-.64,1.73-1.13h.61c-.25.79-.89,1.69-2.36,1.69-1.82,0-2.53-1.57-2.53-3.09,0-1.71.85-3.19,2.6-3.19,1.85,0,2.43,1.6,2.43,2.72,0,.17,0,.34-.01.49h-4.41ZM219.16,472.03c-.01-1.19-.66-2.12-1.83-2.12-1.24,0-1.8.86-1.93,2.12h3.77Z"/>
        <path d="M224.53,475.48v-5.43h-1.03v-.56h1.03v-.85c0-1.01.29-2.11,1.63-2.11.18,0,.44.04.59.08v.58c-.18-.05-.47-.07-.65-.07-.71,0-.97.5-.97,1.55v.83h1.31v.56h-1.31v5.43h-.6Z"/>
        <path d="M232.24,472.47c0,1.67-.92,3.15-2.71,3.15-1.62,0-2.63-1.33-2.63-3.14,0-1.71.95-3.14,2.69-3.14,1.59,0,2.65,1.25,2.65,3.13ZM227.54,472.49c0,1.43.77,2.58,2.04,2.58s2.03-1.07,2.03-2.58c0-1.42-.72-2.58-2.05-2.58s-2.02,1.14-2.02,2.58Z"/>
        <path d="M233.73,471.12c0-1.01-.01-1.44-.01-1.63h.59c.01.19.02.58.02,1.34.35-.9,1.12-1.44,2.09-1.49v.65c-1.25.08-2.09.95-2.09,2.38v3.12h-.6v-4.37Z"/>
        <path d="M237.49,471.03c0-.52,0-1.08-.01-1.55h.59c.01.2.04.72.02,1.07.25-.6.8-1.21,1.8-1.21.84,0,1.5.42,1.74,1.19.3-.62.9-1.19,1.96-1.19.92,0,1.88.53,1.88,2.2v3.95h-.6v-3.87c0-.8-.29-1.68-1.4-1.68s-1.69.94-1.69,2.1v3.45h-.59v-3.86c0-.88-.26-1.69-1.37-1.69-1.16,0-1.73,1.03-1.73,2.25v3.3h-.6v-4.45Z"/>
        <path d="M251.84,473.73c0,.59.01,1.52.01,1.75h-.58c-.02-.16-.04-.55-.04-1.04-.25.71-.86,1.19-1.93,1.19-.86,0-1.97-.34-1.97-2.17v-3.97h.59v3.83c0,.88.28,1.73,1.46,1.73,1.34,0,1.85-.76,1.85-2.47v-3.08h.6v4.25Z"/>
        <path d="M253.81,475.48v-8.84h.6v8.84h-.6Z"/>
        <path d="M260.41,474.34c0,.53.05.95.08,1.14h-.58c-.05-.14-.08-.41-.11-.92-.2.44-.73,1.07-1.97,1.07-1.39,0-1.99-.9-1.99-1.8,0-1.32,1.02-1.92,2.82-1.92h1.14v-.61c0-.6-.18-1.4-1.55-1.4-1.21,0-1.39.64-1.52,1.13h-.6c.07-.66.48-1.68,2.13-1.68,1.37,0,2.13.58,2.13,1.9v3.11ZM259.82,472.43h-1.18c-1.33,0-2.16.35-2.16,1.38,0,.76.54,1.27,1.38,1.27,1.71,0,1.95-1.14,1.95-2.43v-.22Z"/>
        <path d="M262.33,473.83c.2.78.76,1.25,1.7,1.25,1.07,0,1.5-.49,1.5-1.16s-.29-1.02-1.63-1.34c-1.55-.37-1.93-.84-1.93-1.63s.62-1.6,1.98-1.6,2,.83,2.1,1.68h-.6c-.11-.5-.5-1.13-1.52-1.13s-1.34.52-1.34,1c0,.55.29.83,1.48,1.12,1.69.41,2.11.96,2.11,1.86,0,1.09-.89,1.76-2.15,1.76-1.37,0-2.13-.72-2.3-1.8h.61Z"/>
        <path d="M267.17,477.52c1.09-1.4,1.92-3.14,1.92-5.38,0-2.04-.67-3.87-1.92-5.5h.68c.86,1.12,1.83,3.03,1.83,5.52s-.98,4.32-1.83,5.37h-.68Z"/>
      </g>
      <g>
        <path d="M371.57,372.68c-1.09,1.4-1.92,3.14-1.92,5.38,0,2.04.67,3.87,1.92,5.5h-.68c-.86-1.12-1.83-3.03-1.83-5.52s.98-4.32,1.83-5.37h.68Z"/>
        <path d="M373.56,381.53v-5.43h-1.03v-.56h1.03v-.85c0-1.01.29-2.11,1.63-2.11.18,0,.44.04.59.08v.58c-.18-.05-.47-.07-.65-.07-.71,0-.97.5-.97,1.55v.83h1.31v.56h-1.31v5.43h-.6Z"/>
        <path d="M376.57,372.69h.6v1.16h-.6v-1.16ZM376.57,375.53h.6v6h-.6v-6Z"/>
        <path d="M379.14,377.04c0-.53,0-1.03-.01-1.51h.59c.02.19.04.97.02,1.14.26-.61.76-1.28,1.99-1.28,1.07,0,2.01.6,2.01,2.25v3.89h-.6v-3.79c0-1.07-.44-1.76-1.49-1.76-1.43,0-1.92,1.19-1.92,2.5v3.06h-.6v-4.49Z"/>
        <path d="M389.76,380.39c0,.53.05.95.08,1.14h-.58c-.05-.14-.08-.41-.11-.92-.2.44-.73,1.07-1.97,1.07-1.39,0-1.99-.9-1.99-1.8,0-1.32,1.02-1.92,2.82-1.92h1.14v-.61c0-.6-.18-1.4-1.55-1.4-1.21,0-1.39.64-1.52,1.13h-.6c.07-.66.48-1.68,2.13-1.68,1.37,0,2.13.58,2.13,1.9v3.11ZM389.17,378.47h-1.17c-1.33,0-2.16.35-2.16,1.38,0,.76.54,1.27,1.38,1.27,1.71,0,1.95-1.14,1.95-2.43v-.22Z"/>
        <path d="M391.74,381.53v-8.84h.6v8.84h-.6Z"/>
        <path d="M401.84,379.76c-.29,1.06-.98,1.91-2.33,1.91-1.5,0-2.57-1.12-2.57-3.12,0-1.64.88-3.17,2.64-3.17,1.52,0,2.15,1.08,2.25,1.92h-.61c-.18-.7-.63-1.36-1.65-1.36-1.27,0-1.99,1.08-1.99,2.58s.67,2.58,1.93,2.58c.88,0,1.4-.44,1.71-1.34h.61Z"/>
        <path d="M403.24,377.16c0-1.01-.01-1.44-.01-1.63h.59c.01.19.02.58.02,1.34.35-.9,1.12-1.44,2.09-1.49v.65c-1.25.08-2.09.95-2.09,2.38v3.12h-.6v-4.37Z"/>
        <path d="M407.16,378.6c.01,1.55.79,2.51,1.94,2.51s1.51-.64,1.73-1.13h.61c-.25.79-.89,1.69-2.36,1.69-1.82,0-2.53-1.57-2.53-3.09,0-1.71.85-3.19,2.6-3.19,1.85,0,2.43,1.6,2.43,2.72,0,.17,0,.34-.01.49h-4.41ZM410.96,378.07c-.01-1.19-.66-2.12-1.83-2.12-1.24,0-1.8.86-1.93,2.12h3.77Z"/>
        <path d="M417.74,372.69v7.11c0,.58,0,1.13.01,1.73h-.58c-.02-.14-.04-.71-.04-1.01-.3.73-.97,1.15-2.01,1.15-1.56,0-2.5-1.27-2.5-3.07s1.02-3.21,2.65-3.21c1.2,0,1.68.52,1.86.9v-3.6h.6ZM413.27,378.58c0,1.64.85,2.53,1.88,2.53,1.58,0,2.01-1.09,2.01-2.72s-.37-2.44-1.91-2.44c-1.19,0-1.99.95-1.99,2.63Z"/>
        <path d="M419.71,372.69h.6v1.16h-.6v-1.16ZM419.71,375.53h.6v6h-.6v-6Z"/>
        <path d="M421.46,375.53h1.12v-1.87h.6v1.87h1.43v.56h-1.43v3.9c0,.67.14,1.06.72,1.06.18,0,.43-.01.62-.07v.53c-.2.08-.49.11-.74.11-.77,0-1.2-.38-1.2-1.34v-4.17h-1.12v-.56Z"/>
        <path d="M433.07,380.39c0,.53.05.95.08,1.14h-.58c-.05-.14-.08-.41-.11-.92-.2.44-.73,1.07-1.97,1.07-1.39,0-1.99-.9-1.99-1.8,0-1.32,1.02-1.92,2.82-1.92h1.14v-.61c0-.6-.18-1.4-1.55-1.4-1.21,0-1.39.64-1.52,1.13h-.6c.07-.66.48-1.68,2.13-1.68,1.37,0,2.13.58,2.13,1.9v3.11ZM432.48,378.47h-1.17c-1.33,0-2.16.35-2.16,1.38,0,.76.54,1.27,1.38,1.27,1.71,0,1.95-1.14,1.95-2.43v-.22Z"/>
        <path d="M435.65,380.64v3.29h-.6v-6.92c0-.49,0-1.02-.01-1.47h.59c.02.23.02.59.02,1.08.37-.72,1.03-1.22,2.11-1.22,1.42,0,2.4,1.19,2.4,2.99,0,2.16-1.15,3.3-2.6,3.3-1.06,0-1.61-.47-1.91-1.03ZM439.52,378.4c0-1.39-.67-2.43-1.86-2.43-1.45,0-2.05.91-2.05,2.54s.47,2.6,1.97,2.6c1.25,0,1.94-1.05,1.94-2.71Z"/>
        <path d="M442.26,380.64v3.29h-.6v-6.92c0-.49,0-1.02-.01-1.47h.59c.02.23.02.59.02,1.08.37-.72,1.03-1.22,2.11-1.22,1.42,0,2.4,1.19,2.4,2.99,0,2.16-1.15,3.3-2.6,3.3-1.06,0-1.61-.47-1.91-1.03ZM446.13,378.4c0-1.39-.67-2.43-1.86-2.43-1.45,0-2.05.91-2.05,2.54s.47,2.6,1.97,2.6c1.25,0,1.94-1.05,1.94-2.71Z"/>
        <path d="M448.27,377.16c0-1.01-.01-1.44-.01-1.63h.59c.01.19.02.58.02,1.34.35-.9,1.12-1.44,2.09-1.49v.65c-1.25.08-2.09.95-2.09,2.38v3.12h-.6v-4.37Z"/>
        <path d="M456.92,378.52c0,1.67-.92,3.15-2.71,3.15-1.62,0-2.63-1.33-2.63-3.14,0-1.71.95-3.14,2.69-3.14,1.59,0,2.65,1.25,2.65,3.13ZM452.22,378.53c0,1.43.77,2.58,2.04,2.58s2.03-1.07,2.03-2.58c0-1.42-.72-2.58-2.05-2.58s-2.01,1.14-2.01,2.58Z"/>
        <path d="M458.33,375.53c.97,2.75,1.64,4.62,1.87,5.38h.01c.13-.44.8-2.23,1.97-5.38h.64l-2.27,6h-.72l-2.13-6h.64Z"/>
        <path d="M468,380.39c0,.53.05.95.08,1.14h-.58c-.05-.14-.08-.41-.11-.92-.2.44-.73,1.07-1.97,1.07-1.39,0-1.99-.9-1.99-1.8,0-1.32,1.02-1.92,2.82-1.92h1.14v-.61c0-.6-.18-1.4-1.55-1.4-1.21,0-1.39.64-1.52,1.13h-.6c.07-.66.48-1.68,2.13-1.68,1.37,0,2.13.58,2.13,1.9v3.11ZM467.41,378.47h-1.17c-1.33,0-2.16.35-2.16,1.38,0,.76.54,1.27,1.38,1.27,1.71,0,1.95-1.14,1.95-2.43v-.22Z"/>
        <path d="M469.98,381.53v-8.84h.6v8.84h-.6Z"/>
        <path d="M475.82,381.53v-5.43h-1.03v-.56h1.03v-.85c0-1.01.29-2.11,1.63-2.11.18,0,.44.04.59.08v.58c-.18-.05-.47-.07-.65-.07-.71,0-.97.5-.97,1.55v.83h1.31v.56h-1.31v5.43h-.6Z"/>
        <path d="M483.54,378.52c0,1.67-.92,3.15-2.71,3.15-1.62,0-2.63-1.33-2.63-3.14,0-1.71.95-3.14,2.69-3.14,1.59,0,2.65,1.25,2.65,3.13ZM478.83,378.53c0,1.43.77,2.58,2.04,2.58s2.03-1.07,2.03-2.58c0-1.42-.72-2.58-2.05-2.58s-2.02,1.14-2.02,2.58Z"/>
        <path d="M485.03,377.16c0-1.01-.01-1.44-.01-1.63h.59c.01.19.02.58.02,1.34.35-.9,1.12-1.44,2.09-1.49v.65c-1.25.08-2.09.95-2.09,2.38v3.12h-.6v-4.37Z"/>
        <path d="M488.78,377.08c0-.52,0-1.08-.01-1.55h.59c.01.2.04.72.02,1.07.25-.6.8-1.21,1.8-1.21.84,0,1.5.42,1.74,1.19.3-.62.9-1.19,1.96-1.19.92,0,1.88.53,1.88,2.2v3.95h-.6v-3.87c0-.8-.29-1.68-1.4-1.68s-1.69.94-1.69,2.1v3.45h-.59v-3.86c0-.88-.26-1.69-1.37-1.69-1.16,0-1.73,1.03-1.73,2.25v3.3h-.6v-4.45Z"/>
        <path d="M503.13,379.78c0,.59.01,1.52.01,1.75h-.58c-.02-.16-.04-.55-.04-1.04-.25.71-.86,1.19-1.93,1.19-.86,0-1.97-.34-1.97-2.17v-3.97h.59v3.83c0,.88.28,1.73,1.46,1.73,1.34,0,1.85-.76,1.85-2.47v-3.08h.6v4.25Z"/>
        <path d="M505.1,381.53v-8.84h.6v8.84h-.6Z"/>
        <path d="M511.7,380.39c0,.53.05.95.08,1.14h-.58c-.05-.14-.08-.41-.11-.92-.2.44-.73,1.07-1.97,1.07-1.39,0-1.99-.9-1.99-1.8,0-1.32,1.02-1.92,2.82-1.92h1.14v-.61c0-.6-.18-1.4-1.55-1.4-1.21,0-1.39.64-1.52,1.13h-.6c.07-.66.48-1.68,2.13-1.68,1.37,0,2.13.58,2.13,1.9v3.11ZM511.11,378.47h-1.18c-1.33,0-2.16.35-2.16,1.38,0,.76.54,1.27,1.38,1.27,1.71,0,1.96-1.14,1.96-2.43v-.22Z"/>
        <path d="M513.1,383.57c1.09-1.4,1.92-3.14,1.92-5.38,0-2.04-.67-3.87-1.92-5.5h.68c.86,1.12,1.83,3.03,1.83,5.52s-.98,4.32-1.83,5.37h-.68Z"/>
      </g>
      <g>
        <line class="cls-11" x1="203.33" y1="166.22" x2="203.33" y2="190.92"/>
        <polygon class="cls-8" points="200.06 188.26 200.65 187.72 203.33 190.61 206.02 187.72 206.6 188.26 203.33 191.78 200.06 188.26"/>
      </g>
      <g>
        <line class="cls-11" x1="348.3" y1="332.08" x2="373" y2="332.08"/>
        <polygon class="cls-8" points="370.35 335.36 369.8 334.77 372.69 332.08 369.8 329.4 370.35 328.81 373.87 332.08 370.35 335.36"/>
      </g>
      <g>
        <path class="cls-11" d="M198.84,285.6s-5.04,29.74,21.22,36.93"/>
        <polygon class="cls-8" points="216.6 324.89 216.25 324.18 219.78 322.42 217.77 319.03 218.46 318.62 220.9 322.76 216.6 324.89"/>
      </g>
      <g>
        <path class="cls-11" d="M196.43,394.05s-1.33-30.43,29.35-39.45"/>
        <polygon class="cls-8" points="224.22 358.52 223.53 358.12 225.5 354.7 221.95 352.99 222.3 352.27 226.62 354.36 224.22 358.52"/>
      </g>
    </g>
    <g id="_테두리" data-name="테두리">
      <rect class="cls-9" x="80" y="85.33" width="252" height="60.67"/>
      <rect class="cls-9" x="113.33" y="196.67" width="187" height="57.33"/>
      <rect class="cls-9" x="380.67" y="294" width="123.33" height="70"/>
      <rect class="cls-10" x="119.33" y="399.33" width="168" height="60"/>
      <circle class="cls-10" cx="290.42" cy="332.08" r="51.08"/>
    </g>
    <g id="_텍스트" data-name="텍스트">
      <text class="cls-13" transform="translate(86.5 109.99)"><tspan x="0" y="0">UNKNOWN TARGET FUNTION</tspan></text>
      <text class="cls-14" transform="translate(124.67 221.55)"><tspan x="0" y="0">TRANING EXAMPLES</tspan></text>
      <text class="cls-12" transform="translate(135.22 427.59)"><tspan x="0" y="0">HYPOTHESIS SET</tspan></text>
      <g>
        <path d="M422.08,315.98h-2.26v-11.09h7.68v1.97h-5.42v2.52h4.74v1.95h-4.74v4.65Z"/>
        <path d="M432.01,315.98h-2.26v-11.09h2.26v11.09Z"/>
        <path d="M441.58,304.89h2.09v11.09h-2.23l-4.38-7.89h-.04v7.89h-2.11v-11.09h2.39l4.27,7.74h.01v-7.74Z"/>
        <path d="M447.98,315.98h-2.38l3.92-11.09h2.6l3.86,11.09h-2.43l-.72-2.29h-4.09l-.76,2.29ZM449.36,311.78h2.81l-1.37-4.39h-.04l-1.4,4.39Z"/>
        <path d="M460.08,313.98h5.35v2.01h-7.61v-11.09h2.26v9.08Z"/>
        <path d="M394.03,328.4v4.97h-2.26v-11.09h2.26v4.21h4.29v-4.21h2.25v11.09h-2.25v-4.97h-4.29Z"/>
        <path d="M408.58,333.37h-2.26v-4.19l-3.83-6.9h2.66l2.33,4.85,2.12-4.85h2.55l-3.56,6.95v4.14Z"/>
        <path d="M416.35,333.37h-2.26v-11.09h4.85c1.04,0,1.86.32,2.46.96.59.63.89,1.5.89,2.6,0,.78-.22,1.49-.64,2.14-.61.93-1.55,1.4-2.8,1.4h-2.5v3.99ZM418.36,327.48c.72,0,1.21-.23,1.47-.69.14-.25.21-.6.21-1.05,0-.55-.16-.94-.48-1.19-.31-.25-.81-.37-1.49-.37h-1.73v3.3h2.01Z"/>
        <path d="M425.94,322.96c.89-.64,1.92-.96,3.11-.96s2.21.32,3.1.96c1.37.99,2.05,2.61,2.05,4.87s-.68,3.85-2.05,4.84c-.9.65-1.93.98-3.1.98s-2.22-.33-3.11-.98c-1.36-.99-2.04-2.6-2.04-4.84s.68-3.88,2.04-4.87ZM427.14,330.88c.51.51,1.15.76,1.91.76s1.39-.25,1.9-.76c.67-.66,1-1.68,1-3.05s-.33-2.41-1-3.08c-.51-.51-1.14-.76-1.9-.76s-1.4.25-1.91.76c-.66.67-.99,1.7-.99,3.08s.33,2.39.99,3.05Z"/>
        <path d="M441.34,333.37h-2.26v-9.12h-3.34v-1.97h8.94v1.97h-3.34v9.12Z"/>
        <path d="M448.92,328.4v4.97h-2.26v-11.09h2.26v4.21h4.29v-4.21h2.25v11.09h-2.25v-4.97h-4.29Z"/>
        <path d="M466.07,324.24h-5.71v2.35h5.23v1.94h-5.23v2.89h5.96v1.95h-8.18v-11.09h7.93v1.97Z"/>
        <path d="M470.17,329.96c0,.44.14.81.4,1.09.39.43,1.02.65,1.91.65.63,0,1.14-.09,1.51-.27.49-.24.74-.61.74-1.13,0-.4-.18-.7-.55-.92-.26-.15-.73-.3-1.4-.44l-1.16-.3c-.58-.14-1.01-.25-1.29-.34-.44-.15-.81-.33-1.09-.52-.35-.25-.61-.55-.78-.91-.19-.41-.28-.9-.28-1.47,0-.85.24-1.57.75-2.16.72-.83,1.85-1.25,3.39-1.25,1.46,0,2.57.43,3.32,1.29.57.64.86,1.41.88,2.29h-2.14c-.06-.42-.19-.76-.4-1-.38-.42-.99-.64-1.84-.64-.5,0-.92.09-1.26.28-.42.24-.62.58-.62,1.03,0,.36.13.63.38.82.15.11.4.22.74.31h.03s2.65.69,2.65.69c.88.21,1.53.49,1.95.85.58.49.88,1.2.88,2.12,0,1.41-.59,2.41-1.78,3.03-.73.38-1.55.57-2.48.57-1.75,0-3.01-.45-3.79-1.34-.56-.63-.83-1.41-.83-2.33h2.17Z"/>
        <path d="M481.77,333.37h-2.26v-11.09h2.26v11.09Z"/>
        <path d="M486.47,329.96c0,.44.14.81.4,1.09.39.43,1.02.65,1.91.65.63,0,1.14-.09,1.51-.27.49-.24.74-.61.74-1.13,0-.4-.18-.7-.55-.92-.26-.15-.73-.3-1.4-.44l-1.16-.3c-.58-.14-1.01-.25-1.29-.34-.44-.15-.81-.33-1.09-.52-.35-.25-.61-.55-.78-.91-.19-.41-.28-.9-.28-1.47,0-.85.24-1.57.75-2.16.72-.83,1.85-1.25,3.39-1.25,1.46,0,2.57.43,3.32,1.29.57.64.86,1.41.88,2.29h-2.14c-.06-.42-.19-.76-.4-1-.38-.42-.99-.64-1.84-.64-.5,0-.92.09-1.26.28-.42.24-.62.58-.62,1.03,0,.36.13.63.38.82.15.11.4.22.74.31h.03s2.65.69,2.65.69c.88.21,1.53.49,1.95.85.58.49.88,1.2.88,2.12,0,1.41-.59,2.41-1.78,3.03-.73.38-1.55.57-2.48.57-1.75,0-3.01-.45-3.79-1.34-.56-.63-.83-1.41-.83-2.33h2.17Z"/>
      </g>
      <g>
        <path d="M254.08,314.06h5.11v1.92h-7.27v-10.59h2.16v8.67Z"/>
        <path d="M268.73,307.26h-5.46v2.24h5v1.85h-5v2.76h5.69v1.86h-7.81v-10.59h7.58v1.88Z"/>
        <path d="M272.47,315.97h-2.27l3.74-10.59h2.49l3.69,10.59h-2.32l-.69-2.19h-3.9l-.73,2.19ZM273.8,311.96h2.69l-1.31-4.19h-.04l-1.34,4.19Z"/>
        <path d="M281.92,305.38h5.24c1.18,0,2.05.38,2.62,1.15.4.54.59,1.16.59,1.85,0,.59-.14,1.12-.42,1.57-.29.47-.68.79-1.18.96.48.21.8.46.96.74.23.39.35,1.04.35,1.96,0,.83.02,1.35.05,1.55.05.28.19.46.42.54v.27h-2.41c-.08-.27-.13-.55-.16-.85-.04-.34-.05-.77-.05-1.28,0-.8-.08-1.32-.24-1.55-.21-.31-.68-.46-1.42-.46h-2.24v4.15h-2.12v-10.59ZM286.57,310.07c.57,0,.98-.11,1.24-.34.27-.23.41-.61.41-1.13,0-.38-.09-.68-.27-.92-.25-.32-.65-.47-1.2-.47h-2.7v2.86h2.53Z"/>
        <path d="M299.2,305.38h2v10.59h-2.13l-4.19-7.54h-.04v7.54h-2.01v-10.59h2.28l4.08,7.39h.01v-7.39Z"/>
        <path d="M306.18,315.97h-2.16v-10.59h2.16v10.59Z"/>
        <path d="M315.33,305.38h2v10.59h-2.13l-4.19-7.54h-.04v7.54h-2.01v-10.59h2.28l4.08,7.39h.01v-7.39Z"/>
        <path d="M324.91,310.3h4.34v5.63h-1.93v-1.32c0,.37-.27.72-.8,1.05-.59.38-1.34.57-2.23.57-1.33,0-2.44-.46-3.31-1.39-.95-1.01-1.42-2.38-1.42-4.12,0-1.57.4-2.86,1.2-3.86.91-1.14,2.19-1.72,3.84-1.72,1.44,0,2.59.41,3.45,1.23.67.67,1.05,1.45,1.13,2.34h-2.16c0-.12-.05-.27-.15-.45-.11-.21-.25-.4-.42-.58-.22-.21-.46-.37-.72-.5-.32-.13-.67-.2-1.03-.2-.85,0-1.54.29-2.07.88-.59.67-.89,1.63-.89,2.89s.32,2.25.95,2.85c.51.49,1.2.73,2.05.73.55,0,1.04-.12,1.49-.35.72-.38,1.08-1.02,1.08-1.92h-2.4v-1.76Z"/>
        <path d="M247.12,332.58h-2.27l3.74-10.59h2.49l3.69,10.59h-2.32l-.69-2.19h-3.9l-.73,2.19ZM248.44,328.56h2.69l-1.31-4.19h-.04l-1.34,4.19Z"/>
        <path d="M258.69,330.66h5.11v1.92h-7.27v-10.59h2.16v8.67Z"/>
        <path d="M270.75,326.9h4.34v5.63h-1.93v-1.32c0,.37-.27.72-.8,1.05-.59.38-1.34.57-2.23.57-1.33,0-2.44-.46-3.31-1.39-.95-1.01-1.42-2.38-1.42-4.12,0-1.57.4-2.86,1.2-3.86.91-1.14,2.19-1.72,3.84-1.72,1.44,0,2.59.41,3.45,1.23.68.67,1.05,1.45,1.13,2.34h-2.16c0-.12-.05-.27-.15-.45-.11-.21-.25-.4-.42-.58-.22-.21-.46-.37-.72-.5-.32-.13-.67-.2-1.03-.2-.85,0-1.54.29-2.07.88-.59.67-.89,1.63-.89,2.89s.32,2.25.95,2.85c.51.49,1.2.73,2.05.73.55,0,1.04-.12,1.49-.35.72-.38,1.08-1.02,1.08-1.92h-2.41v-1.76Z"/>
        <path d="M278.79,322.63c.85-.61,1.84-.92,2.97-.92s2.11.31,2.96.92c1.31.95,1.96,2.5,1.96,4.65s-.65,3.67-1.96,4.62c-.86.62-1.84.93-2.96.93s-2.12-.31-2.97-.93c-1.3-.95-1.95-2.49-1.95-4.62s.65-3.7,1.95-4.65ZM279.94,330.2c.49.49,1.09.73,1.82.73s1.32-.24,1.81-.73c.64-.63.96-1.6.96-2.92s-.32-2.31-.96-2.95c-.49-.49-1.09-.73-1.81-.73s-1.34.24-1.82.73c-.63.64-.95,1.62-.95,2.95s.32,2.29.95,2.92Z"/>
        <path d="M288.83,321.98h5.24c1.18,0,2.05.38,2.62,1.15.4.54.59,1.16.59,1.85,0,.59-.14,1.12-.42,1.57-.29.47-.68.79-1.18.96.48.21.8.46.96.74.23.39.35,1.04.35,1.96,0,.83.02,1.35.05,1.55.05.28.19.46.42.54v.27h-2.41c-.08-.27-.13-.55-.16-.85-.04-.34-.05-.77-.05-1.28,0-.8-.08-1.32-.24-1.55-.21-.31-.68-.46-1.42-.46h-2.24v4.15h-2.12v-10.59ZM293.48,326.67c.57,0,.98-.11,1.24-.34.27-.23.41-.61.41-1.13,0-.38-.09-.68-.27-.92-.25-.32-.65-.47-1.2-.47h-2.7v2.86h2.53Z"/>
        <path d="M302.15,332.58h-2.16v-10.59h2.16v10.59Z"/>
        <path d="M309.64,332.58h-2.16v-8.71h-3.19v-1.88h8.54v1.88h-3.19v8.71Z"/>
        <path d="M316.88,327.83v4.74h-2.16v-10.59h2.16v4.03h4.09v-4.03h2.15v10.59h-2.15v-4.74h-4.09Z"/>
        <path d="M335.42,332.58h-2.01v-8.23l-1.93,8.23h-2.08l-1.89-8.23h-.04v8.23h-2.01v-10.59h3.16l1.88,8.01h.01l1.81-8.01h3.11v10.59Z"/>
      </g>
    </g>
  </g>
</svg>