<?xml version="1.0" encoding="UTF-8"?>
<svg xmlns="http://www.w3.org/2000/svg" version="1.1" viewBox="0 0 600 600">
  <defs>
    <style>
      .cls-1 {
        font-family: AdobeMyungjoStd-Medium-KSCpc-EUC-H, 'Adobe Myungjo Std';
        font-size: 27.15px;
        font-weight: 500;
      }

      .cls-2 {
        stroke: #231815;
      }

      .cls-2, .cls-3, .cls-4 {
        fill: none;
        stroke-miterlimit: 10;
      }

      .cls-5 {
        fill: #727171;
        opacity: .2;
      }

      .cls-3 {
        stroke: #e60012;
      }

      .cls-4 {
        stroke: #036eb8;
      }
    </style>
  </defs>
  <!-- Generator: Adobe Illustrator 28.7.1, SVG Export Plug-In . SVG Version: 1.2.0 Build 142)  -->
  <g>
    <g id="_레이어_2" data-name="레이어_2">
      <rect class="cls-2" x="81.68" y="87.73" width="442.68" height="442.68"/>
      <line class="cls-3" x1="303.03" y1="87.73" x2="387.91" y2="530.42"/>
      <line class="cls-3" x1="168.16" y1="150.58" x2="177.83" y2="162.67"/>
      <line class="cls-3" x1="168.16" y1="162.67" x2="177.83" y2="147.36"/>
      <line class="cls-3" x1="275.37" y1="194.67" x2="285.04" y2="206.76"/>
      <line class="cls-3" x1="275.37" y1="206.76" x2="285.04" y2="191.45"/>
      <line class="cls-3" x1="231.31" y1="381.09" x2="240.98" y2="393.18"/>
      <line class="cls-3" x1="231.31" y1="393.18" x2="240.98" y2="377.87"/>
      <line class="cls-3" x1="317.37" y1="478.72" x2="327.04" y2="490.81"/>
      <line class="cls-3" x1="317.37" y1="490.81" x2="327.04" y2="475.49"/>
      <circle class="cls-4" cx="377.68" cy="177.44" r="10.01"/>
      <circle class="cls-4" cx="496.4" cy="244.61" r="10.01"/>
      <circle class="cls-4" cx="385.33" cy="309.33" r="10.01"/>
      <circle class="cls-4" cx="474.4" cy="375.25" r="10.01"/>
      <circle class="cls-4" cx="394" cy="440.55" r="10.01"/>
    </g>
    <g id="_레이어_3" data-name="레이어_3">
      <polygon class="cls-5" points="303.03 87.73 387.91 530.42 524.37 530.42 524.37 87.73 303.03 87.73"/>
      <text class="cls-1" transform="translate(148.06 570.36)"><tspan x="0" y="0">Perfectly classfied data</tspan></text>
    </g>
  </g>
</svg>