<?xml version="1.0" encoding="UTF-8"?>
<svg xmlns="http://www.w3.org/2000/svg" version="1.1" viewBox="0 0 600 600">
  <defs>
    <style>
      .cls-1 {
        stroke: #231815;
      }

      .cls-1, .cls-2, .cls-3 {
        fill: none;
        stroke-miterlimit: 10;
      }

      .cls-4 {
        fill: #727171;
        opacity: .2;
      }

      .cls-5 {
        font-family: AdobeMyungjoStd-Medium-KSCpc-EUC-H, 'Adobe Myungjo Std';
        font-size: 13.18px;
        font-weight: 500;
      }

      .cls-2 {
        stroke: #e60012;
      }

      .cls-3 {
        stroke: #036eb8;
      }
    </style>
  </defs>
  <!-- Generator: Adobe Illustrator 28.7.1, SVG Export Plug-In . SVG Version: 1.2.0 Build 142)  -->
  <g>
    <g id="_레이어_2" data-name="레이어_2">
      <rect class="cls-1" x="192.52" y="181.93" width="214.96" height="214.96"/>
      <line class="cls-2" x1="300" y1="181.93" x2="341.22" y2="396.89"/>
      <line class="cls-2" x1="234.51" y1="212.45" x2="239.21" y2="218.32"/>
      <line class="cls-2" x1="234.51" y1="218.32" x2="239.21" y2="210.88"/>
      <line class="cls-2" x1="286.57" y1="233.86" x2="291.27" y2="239.73"/>
      <line class="cls-2" x1="286.57" y1="239.73" x2="291.27" y2="232.29"/>
      <line class="cls-2" x1="265.18" y1="324.38" x2="269.87" y2="330.25"/>
      <line class="cls-2" x1="265.18" y1="330.25" x2="269.87" y2="322.82"/>
      <line class="cls-2" x1="306.97" y1="371.78" x2="311.66" y2="377.65"/>
      <line class="cls-2" x1="306.97" y1="377.65" x2="311.66" y2="370.22"/>
      <circle class="cls-3" cx="336.25" cy="225.49" r="4.86"/>
      <circle class="cls-3" cx="393.9" cy="258.11" r="4.86"/>
      <circle class="cls-3" cx="339.96" cy="289.54" r="4.86"/>
      <circle class="cls-3" cx="383.22" cy="321.54" r="4.86"/>
      <circle class="cls-3" cx="344.18" cy="353.25" r="4.86"/>
    </g>
    <g id="_레이어_3" data-name="레이어_3">
      <polygon class="cls-4" points="300 181.93 341.22 396.89 407.48 396.89 407.48 181.93 300 181.93"/>
      <text class="cls-5" transform="translate(224.76 416.28)"><tspan x="0" y="0">Perfectly classfied data</tspan></text>
    </g>
  </g>
</svg>