<?xml version="1.0" encoding="UTF-8"?>
<svg xmlns="http://www.w3.org/2000/svg" version="1.1" xmlns:xlink="http://www.w3.org/1999/xlink" viewBox="0 0 600 600">
  <defs>
    <style>
      .cls-1, .cls-2 {
        stroke-miterlimit: 10;
      }

      .cls-1, .cls-2, .cls-3, .cls-4, .cls-5, .cls-6 {
        fill: none;
      }

      .cls-1, .cls-3, .cls-4, .cls-6 {
        stroke: #000;
      }

      .cls-2, .cls-7 {
        stroke: #ff151b;
      }

      .cls-4 {
        stroke-width: 2px;
      }

      .cls-7 {
        stroke-linejoin: round;
        stroke-width: 1.5px;
      }

      .cls-6 {
        stroke-linecap: square;
        stroke-width: .8px;
      }

      .cls-8 {
        fill: #0a26ff;
      }

      .cls-9 {
        clip-path: url(#clippath);
      }
    </style>
    <clipPath id="clippath">
      <rect class="cls-1" x="53.4" y="215.92" width="202.58" height="202.58"/>
    </clipPath>
  </defs>
  <!-- Generator: Adobe Illustrator 28.7.1, SVG Export Plug-In . SVG Version: 1.2.0 Build 142)  -->
  <g>
    <g id="_레이어_1" data-name="레이어_1">
      <rect class="cls-5" x="53.4" y="215.92" width="202.58" height="202.58"/>
      <g>
        <path id="m86d2f21d50" class="cls-8" d="M163.68,279.5c.51,0,.99-.2,1.35-.56.36-.36.56-.85.56-1.35s-.2-.99-.56-1.35c-.36-.36-.85-.56-1.35-.56s-.99.2-1.35.56c-.36.36-.56.85-.56,1.35s.2.99.56,1.35c.36.36.85.56,1.35.56Z"/>
        <path id="m86d2f21d50-2" data-name="m86d2f21d50" class="cls-8" d="M173.61,310.86c.51,0,.99-.2,1.35-.56.36-.36.56-.85.56-1.35s-.2-.99-.56-1.35c-.36-.36-.85-.56-1.35-.56s-.99.2-1.35.56c-.36.36-.56.85-.56,1.35s.2.99.56,1.35c.36.36.85.56,1.35.56Z"/>
        <path id="m86d2f21d50-3" data-name="m86d2f21d50" class="cls-8" d="M140.63,292.26c.51,0,.99-.2,1.35-.56.36-.36.56-.85.56-1.35s-.2-.99-.56-1.35c-.36-.36-.85-.56-1.35-.56s-.99.2-1.35.56c-.36.36-.56.85-.56,1.35s.2.99.56,1.35c.36.36.85.56,1.35.56Z"/>
        <path id="m86d2f21d50-4" data-name="m86d2f21d50" class="cls-8" d="M148.21,282.62c.51,0,.99-.2,1.35-.56.36-.36.56-.85.56-1.35s-.2-.99-.56-1.35c-.36-.36-.85-.56-1.35-.56s-.99.2-1.35.56c-.36.36-.56.85-.56,1.35s.2.99.56,1.35c.36.36.85.56,1.35.56Z"/>
        <path id="m86d2f21d50-5" data-name="m86d2f21d50" class="cls-8" d="M184.57,338.14c.51,0,.99-.2,1.35-.56.36-.36.56-.85.56-1.35s-.2-.99-.56-1.35c-.36-.36-.85-.56-1.35-.56s-.99.2-1.35.56c-.36.36-.56.85-.56,1.35s.2.99.56,1.35c.36.36.85.56,1.35.56Z"/>
        <path id="m86d2f21d50-6" data-name="m86d2f21d50" class="cls-8" d="M208.41,313.8c.51,0,.99-.2,1.35-.56.36-.36.56-.85.56-1.35s-.2-.99-.56-1.35c-.36-.36-.85-.56-1.35-.56s-.99.2-1.35.56c-.36.36-.56.85-.56,1.35s.2.99.56,1.35c.36.36.85.56,1.35.56Z"/>
        <path id="m86d2f21d50-7" data-name="m86d2f21d50" class="cls-8" d="M172.24,276.39c.51,0,.99-.2,1.35-.56.36-.36.56-.85.56-1.35s-.2-.99-.56-1.35c-.36-.36-.85-.56-1.35-.56s-.99.2-1.35.56c-.36.36-.56.85-.56,1.35s.2.99.56,1.35c.36.36.85.56,1.35.56Z"/>
        <path id="m86d2f21d50-8" data-name="m86d2f21d50" class="cls-8" d="M167.36,283.35c.51,0,.99-.2,1.35-.56.36-.36.56-.85.56-1.35s-.2-.99-.56-1.35c-.36-.36-.85-.56-1.35-.56s-.99.2-1.35.56c-.36.36-.56.85-.56,1.35s.2.99.56,1.35c.36.36.85.56,1.35.56Z"/>
        <path id="m86d2f21d50-9" data-name="m86d2f21d50" class="cls-8" d="M147.6,267.46c.51,0,.99-.2,1.35-.56.36-.36.56-.85.56-1.35s-.2-.99-.56-1.35c-.36-.36-.85-.56-1.35-.56s-.99.2-1.35.56c-.36.36-.56.85-.56,1.35s.2.99.56,1.35c.36.36.85.56,1.35.56Z"/>
        <path id="m86d2f21d50-10" data-name="m86d2f21d50" class="cls-8" d="M127.5,308.7c.51,0,.99-.2,1.35-.56.36-.36.56-.85.56-1.35s-.2-.99-.56-1.35c-.36-.36-.85-.56-1.35-.56s-.99.2-1.35.56c-.36.36-.56.85-.56,1.35s.2.99.56,1.35c.36.36.85.56,1.35.56Z"/>
        <path id="m86d2f21d50-11" data-name="m86d2f21d50" class="cls-8" d="M158.71,334.84c.51,0,.99-.2,1.35-.56.36-.36.56-.85.56-1.35s-.2-.99-.56-1.35c-.36-.36-.85-.56-1.35-.56s-.99.2-1.35.56c-.36.36-.56.85-.56,1.35s.2.99.56,1.35c.36.36.85.56,1.35.56Z"/>
        <path id="m86d2f21d50-12" data-name="m86d2f21d50" class="cls-8" d="M140.67,276.39c.51,0,.99-.2,1.35-.56.36-.36.56-.85.56-1.35s-.2-.99-.56-1.35c-.36-.36-.85-.56-1.35-.56s-.99.2-1.35.56c-.36.36-.56.85-.56,1.35s.2.99.56,1.35c.36.36.85.56,1.35.56Z"/>
        <path id="m86d2f21d50-13" data-name="m86d2f21d50" class="cls-8" d="M146.61,306.52c.51,0,.99-.2,1.35-.56.36-.36.56-.85.56-1.35s-.2-.99-.56-1.35c-.36-.36-.85-.56-1.35-.56s-.99.2-1.35.56c-.36.36-.56.85-.56,1.35s.2.99.56,1.35c.36.36.85.56,1.35.56Z"/>
        <path id="m86d2f21d50-14" data-name="m86d2f21d50" class="cls-8" d="M109.18,312.8c.51,0,.99-.2,1.35-.56.36-.36.56-.85.56-1.35s-.2-.99-.56-1.35c-.36-.36-.85-.56-1.35-.56s-.99.2-1.35.56c-.36.36-.56.85-.56,1.35s.2.99.56,1.35c.36.36.85.56,1.35.56Z"/>
        <path id="m86d2f21d50-15" data-name="m86d2f21d50" class="cls-8" d="M175.33,297.59c.51,0,.99-.2,1.35-.56.36-.36.56-.85.56-1.35s-.2-.99-.56-1.35c-.36-.36-.85-.56-1.35-.56s-.99.2-1.35.56c-.36.36-.56.85-.56,1.35s.2.99.56,1.35c.36.36.85.56,1.35.56Z"/>
        <path id="m86d2f21d50-16" data-name="m86d2f21d50" class="cls-8" d="M191.56,295.63c.51,0,.99-.2,1.35-.56.36-.36.56-.85.56-1.35s-.2-.99-.56-1.35c-.36-.36-.85-.56-1.35-.56s-.99.2-1.35.56c-.36.36-.56.85-.56,1.35s.2.99.56,1.35c.36.36.85.56,1.35.56Z"/>
        <path id="m86d2f21d50-17" data-name="m86d2f21d50" class="cls-8" d="M128.82,330.72c.51,0,.99-.2,1.35-.56.36-.36.56-.85.56-1.35s-.2-.99-.56-1.35c-.36-.36-.85-.56-1.35-.56s-.99.2-1.35.56c-.36.36-.56.85-.56,1.35s.2.99.56,1.35c.36.36.85.56,1.35.56Z"/>
        <path id="m86d2f21d50-18" data-name="m86d2f21d50" class="cls-8" d="M158.12,366.92c.51,0,.99-.2,1.35-.56.36-.36.56-.85.56-1.35s-.2-.99-.56-1.35c-.36-.36-.85-.56-1.35-.56s-.99.2-1.35.56c-.36.36-.56.85-.56,1.35s.2.99.56,1.35c.36.36.85.56,1.35.56Z"/>
        <path id="m86d2f21d50-19" data-name="m86d2f21d50" class="cls-8" d="M185.4,287.7c.51,0,.99-.2,1.35-.56.36-.36.56-.85.56-1.35s-.2-.99-.56-1.35c-.36-.36-.85-.56-1.35-.56s-.99.2-1.35.56c-.36.36-.56.85-.56,1.35s.2.99.56,1.35c.36.36.85.56,1.35.56Z"/>
        <path id="m86d2f21d50-20" data-name="m86d2f21d50" class="cls-8" d="M130.99,346.37c.51,0,.99-.2,1.35-.56.36-.36.56-.85.56-1.35s-.2-.99-.56-1.35c-.36-.36-.85-.56-1.35-.56s-.99.2-1.35.56c-.36.36-.56.85-.56,1.35s.2.99.56,1.35c.36.36.85.56,1.35.56Z"/>
        <path id="m86d2f21d50-21" data-name="m86d2f21d50" class="cls-8" d="M120.7,344.23c.51,0,.99-.2,1.35-.56.36-.36.56-.85.56-1.35s-.2-.99-.56-1.35c-.36-.36-.85-.56-1.35-.56s-.99.2-1.35.56c-.36.36-.56.85-.56,1.35s.2.99.56,1.35c.36.36.85.56,1.35.56Z"/>
        <path id="m86d2f21d50-22" data-name="m86d2f21d50" class="cls-8" d="M167.62,330.43c.51,0,.99-.2,1.35-.56.36-.36.56-.85.56-1.35s-.2-.99-.56-1.35c-.36-.36-.85-.56-1.35-.56s-.99.2-1.35.56c-.36.36-.56.85-.56,1.35s.2.99.56,1.35c.36.36.85.56,1.35.56Z"/>
        <path id="m86d2f21d50-23" data-name="m86d2f21d50" class="cls-8" d="M130.72,340.41c.51,0,.99-.2,1.35-.56.36-.36.56-.85.56-1.35s-.2-.99-.56-1.35c-.36-.36-.85-.56-1.35-.56s-.99.2-1.35.56c-.36.36-.56.85-.56,1.35s.2.99.56,1.35c.36.36.85.56,1.35.56Z"/>
        <path id="m86d2f21d50-24" data-name="m86d2f21d50" class="cls-8" d="M182.89,364.56c.51,0,.99-.2,1.35-.56.36-.36.56-.85.56-1.35s-.2-.99-.56-1.35c-.36-.36-.85-.56-1.35-.56s-.99.2-1.35.56c-.36.36-.56.85-.56,1.35s.2.99.56,1.35c.36.36.85.56,1.35.56Z"/>
        <path id="m86d2f21d50-25" data-name="m86d2f21d50" class="cls-8" d="M148.48,366.19c.51,0,.99-.2,1.35-.56.36-.36.56-.85.56-1.35s-.2-.99-.56-1.35c-.36-.36-.85-.56-1.35-.56s-.99.2-1.35.56c-.36.36-.56.85-.56,1.35s.2.99.56,1.35c.36.36.85.56,1.35.56Z"/>
        <path id="m86d2f21d50-26" data-name="m86d2f21d50" class="cls-8" d="M150.52,352.56c.51,0,.99-.2,1.35-.56.36-.36.56-.85.56-1.35s-.2-.99-.56-1.35c-.36-.36-.85-.56-1.35-.56s-.99.2-1.35.56c-.36.36-.56.85-.56,1.35s.2.99.56,1.35c.36.36.85.56,1.35.56Z"/>
        <path id="m86d2f21d50-27" data-name="m86d2f21d50" class="cls-8" d="M117.53,322.38c.51,0,.99-.2,1.35-.56.36-.36.56-.85.56-1.35s-.2-.99-.56-1.35c-.36-.36-.85-.56-1.35-.56s-.99.2-1.35.56c-.36.36-.56.85-.56,1.35s.2.99.56,1.35c.36.36.85.56,1.35.56Z"/>
        <path id="m86d2f21d50-28" data-name="m86d2f21d50" class="cls-8" d="M186.92,322.45c.51,0,.99-.2,1.35-.56.36-.36.56-.85.56-1.35s-.2-.99-.56-1.35c-.36-.36-.85-.56-1.35-.56s-.99.2-1.35.56c-.36.36-.56.85-.56,1.35s.2.99.56,1.35c.36.36.85.56,1.35.56Z"/>
        <path id="m86d2f21d50-29" data-name="m86d2f21d50" class="cls-8" d="M197.64,309.81c.51,0,.99-.2,1.35-.56.36-.36.56-.85.56-1.35s-.2-.99-.56-1.35c-.36-.36-.85-.56-1.35-.56s-.99.2-1.35.56c-.36.36-.56.85-.56,1.35s.2.99.56,1.35c.36.36.85.56,1.35.56Z"/>
        <path id="m86d2f21d50-30" data-name="m86d2f21d50" class="cls-8" d="M144.33,347.98c.51,0,.99-.2,1.35-.56.36-.36.56-.85.56-1.35s-.2-.99-.56-1.35c-.36-.36-.85-.56-1.35-.56s-.99.2-1.35.56c-.36.36-.56.85-.56,1.35s.2.99.56,1.35c.36.36.85.56,1.35.56Z"/>
        <path id="m86d2f21d50-31" data-name="m86d2f21d50" class="cls-8" d="M146.79,348.25c.51,0,.99-.2,1.35-.56.36-.36.56-.85.56-1.35s-.2-.99-.56-1.35c-.36-.36-.85-.56-1.35-.56s-.99.2-1.35.56c-.36.36-.56.85-.56,1.35s.2.99.56,1.35c.36.36.85.56,1.35.56Z"/>
        <path id="m86d2f21d50-32" data-name="m86d2f21d50" class="cls-8" d="M121.17,334.92c.51,0,.99-.2,1.35-.56.36-.36.56-.85.56-1.35s-.2-.99-.56-1.35c-.36-.36-.85-.56-1.35-.56s-.99.2-1.35.56c-.36.36-.56.85-.56,1.35s.2.99.56,1.35c.36.36.85.56,1.35.56Z"/>
        <path id="m86d2f21d50-33" data-name="m86d2f21d50" class="cls-8" d="M117.53,299.02c.51,0,.99-.2,1.35-.56.36-.36.56-.85.56-1.35s-.2-.99-.56-1.35c-.36-.36-.85-.56-1.35-.56s-.99.2-1.35.56c-.36.36-.56.85-.56,1.35s.2.99.56,1.35c.36.36.85.56,1.35.56Z"/>
        <path id="m86d2f21d50-34" data-name="m86d2f21d50" class="cls-8" d="M166.95,362.33c.51,0,.99-.2,1.35-.56.36-.36.56-.85.56-1.35s-.2-.99-.56-1.35c-.36-.36-.85-.56-1.35-.56s-.99.2-1.35.56c-.36.36-.56.85-.56,1.35s.2.99.56,1.35c.36.36.85.56,1.35.56Z"/>
        <path id="m86d2f21d50-35" data-name="m86d2f21d50" class="cls-8" d="M152.46,352.77c.51,0,.99-.2,1.35-.56.36-.36.56-.85.56-1.35s-.2-.99-.56-1.35c-.36-.36-.85-.56-1.35-.56s-.99.2-1.35.56c-.36.36-.56.85-.56,1.35s.2.99.56,1.35c.36.36.85.56,1.35.56Z"/>
        <path id="m86d2f21d50-36" data-name="m86d2f21d50" class="cls-8" d="M173.69,275.71c.51,0,.99-.2,1.35-.56.36-.36.56-.85.56-1.35s-.2-.99-.56-1.35c-.36-.36-.85-.56-1.35-.56s-.99.2-1.35.56c-.36.36-.56.85-.56,1.35s.2.99.56,1.35c.36.36.85.56,1.35.56Z"/>
        <path id="m86d2f21d50-37" data-name="m86d2f21d50" class="cls-8" d="M121.28,288.3c.51,0,.99-.2,1.35-.56.36-.36.56-.85.56-1.35s-.2-.99-.56-1.35c-.36-.36-.85-.56-1.35-.56s-.99.2-1.35.56c-.36.36-.56.85-.56,1.35s.2.99.56,1.35c.36.36.85.56,1.35.56Z"/>
        <path id="m86d2f21d50-38" data-name="m86d2f21d50" class="cls-8" d="M129.99,294.63c.51,0,.99-.2,1.35-.56.36-.36.56-.85.56-1.35s-.2-.99-.56-1.35c-.36-.36-.85-.56-1.35-.56s-.99.2-1.35.56c-.36.36-.56.85-.56,1.35s.2.99.56,1.35c.36.36.85.56,1.35.56Z"/>
        <path id="m86d2f21d50-39" data-name="m86d2f21d50" class="cls-8" d="M145.55,336.38c.51,0,.99-.2,1.35-.56.36-.36.56-.85.56-1.35s-.2-.99-.56-1.35c-.36-.36-.85-.56-1.35-.56s-.99.2-1.35.56c-.36.36-.56.85-.56,1.35s.2.99.56,1.35c.36.36.85.56,1.35.56Z"/>
        <path id="m86d2f21d50-40" data-name="m86d2f21d50" class="cls-8" d="M164.11,366.37c.51,0,.99-.2,1.35-.56.36-.36.56-.85.56-1.35s-.2-.99-.56-1.35c-.36-.36-.85-.56-1.35-.56s-.99.2-1.35.56c-.36.36-.56.85-.56,1.35s.2.99.56,1.35c.36.36.85.56,1.35.56Z"/>
        <path id="m86d2f21d50-41" data-name="m86d2f21d50" class="cls-8" d="M187.44,361.48c.51,0,.99-.2,1.35-.56.36-.36.56-.85.56-1.35s-.2-.99-.56-1.35c-.36-.36-.85-.56-1.35-.56s-.99.2-1.35.56c-.36.36-.56.85-.56,1.35s.2.99.56,1.35c.36.36.85.56,1.35.56Z"/>
        <path id="m86d2f21d50-42" data-name="m86d2f21d50" class="cls-8" d="M108.42,305.1c.51,0,.99-.2,1.35-.56.36-.36.56-.85.56-1.35s-.2-.99-.56-1.35c-.36-.36-.85-.56-1.35-.56s-.99.2-1.35.56c-.36.36-.56.85-.56,1.35s.2.99.56,1.35c.36.36.85.56,1.35.56Z"/>
        <path id="m86d2f21d50-43" data-name="m86d2f21d50" class="cls-8" d="M171.64,305.82c.51,0,.99-.2,1.35-.56.36-.36.56-.85.56-1.35s-.2-.99-.56-1.35c-.36-.36-.85-.56-1.35-.56s-.99.2-1.35.56c-.36.36-.56.85-.56,1.35s.2.99.56,1.35c.36.36.85.56,1.35.56Z"/>
        <path id="m86d2f21d50-44" data-name="m86d2f21d50" class="cls-8" d="M149.97,290.98c.51,0,.99-.2,1.35-.56.36-.36.56-.85.56-1.35s-.2-.99-.56-1.35c-.36-.36-.85-.56-1.35-.56s-.99.2-1.35.56c-.36.36-.56.85-.56,1.35s.2.99.56,1.35c.36.36.85.56,1.35.56Z"/>
        <path id="m86d2f21d50-45" data-name="m86d2f21d50" class="cls-8" d="M191.43,356.43c.51,0,.99-.2,1.35-.56.36-.36.56-.85.56-1.35s-.2-.99-.56-1.35c-.36-.36-.85-.56-1.35-.56s-.99.2-1.35.56c-.36.36-.56.85-.56,1.35s.2.99.56,1.35c.36.36.85.56,1.35.56Z"/>
        <path id="m86d2f21d50-46" data-name="m86d2f21d50" class="cls-8" d="M194.26,341.06c.51,0,.99-.2,1.35-.56.36-.36.56-.85.56-1.35s-.2-.99-.56-1.35c-.36-.36-.85-.56-1.35-.56s-.99.2-1.35.56c-.36.36-.56.85-.56,1.35s.2.99.56,1.35c.36.36.85.56,1.35.56Z"/>
        <path id="m86d2f21d50-47" data-name="m86d2f21d50" class="cls-8" d="M180.03,314.15c.51,0,.99-.2,1.35-.56.36-.36.56-.85.56-1.35s-.2-.99-.56-1.35c-.36-.36-.85-.56-1.35-.56s-.99.2-1.35.56c-.36.36-.56.85-.56,1.35s.2.99.56,1.35c.36.36.85.56,1.35.56Z"/>
        <path id="m86d2f21d50-48" data-name="m86d2f21d50" class="cls-8" d="M180.14,293.66c.51,0,.99-.2,1.35-.56.36-.36.56-.85.56-1.35s-.2-.99-.56-1.35c-.36-.36-.85-.56-1.35-.56s-.99.2-1.35.56c-.36.36-.56.85-.56,1.35s.2.99.56,1.35c.36.36.85.56,1.35.56Z"/>
        <path id="m86d2f21d50-49" data-name="m86d2f21d50" class="cls-8" d="M196.17,318.88c.51,0,.99-.2,1.35-.56.36-.36.56-.85.56-1.35s-.2-.99-.56-1.35c-.36-.36-.85-.56-1.35-.56s-.99.2-1.35.56c-.36.36-.56.85-.56,1.35s.2.99.56,1.35c.36.36.85.56,1.35.56Z"/>
        <path id="m86d2f21d50-50" data-name="m86d2f21d50" class="cls-8" d="M193.84,302.6c.51,0,.99-.2,1.35-.56.36-.36.56-.85.56-1.35s-.2-.99-.56-1.35c-.36-.36-.85-.56-1.35-.56s-.99.2-1.35.56c-.36.36-.56.85-.56,1.35s.2.99.56,1.35c.36.36.85.56,1.35.56Z"/>
        <path id="m86d2f21d50-51" data-name="m86d2f21d50" class="cls-8" d="M140.67,299.53c.51,0,.99-.2,1.35-.56.36-.36.56-.85.56-1.35s-.2-.99-.56-1.35c-.36-.36-.85-.56-1.35-.56s-.99.2-1.35.56c-.36.36-.56.85-.56,1.35s.2.99.56,1.35c.36.36.85.56,1.35.56Z"/>
        <path id="m86d2f21d50-52" data-name="m86d2f21d50" class="cls-8" d="M184.19,357.79c.51,0,.99-.2,1.35-.56.36-.36.56-.85.56-1.35s-.2-.99-.56-1.35c-.36-.36-.85-.56-1.35-.56s-.99.2-1.35.56c-.36.36-.56.85-.56,1.35s.2.99.56,1.35c.36.36.85.56,1.35.56Z"/>
        <path id="m86d2f21d50-53" data-name="m86d2f21d50" class="cls-8" d="M176.42,332.24c.51,0,.99-.2,1.35-.56.36-.36.56-.85.56-1.35s-.2-.99-.56-1.35c-.36-.36-.85-.56-1.35-.56s-.99.2-1.35.56c-.36.36-.56.85-.56,1.35s.2.99.56,1.35c.36.36.85.56,1.35.56Z"/>
        <path id="m86d2f21d50-54" data-name="m86d2f21d50" class="cls-8" d="M172.83,347.45c.51,0,.99-.2,1.35-.56.36-.36.56-.85.56-1.35s-.2-.99-.56-1.35c-.36-.36-.85-.56-1.35-.56s-.99.2-1.35.56c-.36.36-.56.85-.56,1.35s.2.99.56,1.35c.36.36.85.56,1.35.56Z"/>
        <path id="m86d2f21d50-55" data-name="m86d2f21d50" class="cls-8" d="M167.57,302.39c.51,0,.99-.2,1.35-.56.36-.36.56-.85.56-1.35s-.2-.99-.56-1.35c-.36-.36-.85-.56-1.35-.56s-.99.2-1.35.56c-.36.36-.56.85-.56,1.35s.2.99.56,1.35c.36.36.85.56,1.35.56Z"/>
        <path id="m86d2f21d50-56" data-name="m86d2f21d50" class="cls-8" d="M168.38,290.91c.51,0,.99-.2,1.35-.56.36-.36.56-.85.56-1.35s-.2-.99-.56-1.35c-.36-.36-.85-.56-1.35-.56s-.99.2-1.35.56c-.36.36-.56.85-.56,1.35s.2.99.56,1.35c.36.36.85.56,1.35.56Z"/>
        <path id="m86d2f21d50-57" data-name="m86d2f21d50" class="cls-8" d="M182.7,331.76c.51,0,.99-.2,1.35-.56.36-.36.56-.85.56-1.35s-.2-.99-.56-1.35c-.36-.36-.85-.56-1.35-.56s-.99.2-1.35.56c-.36.36-.56.85-.56,1.35s.2.99.56,1.35c.36.36.85.56,1.35.56Z"/>
        <path id="m86d2f21d50-58" data-name="m86d2f21d50" class="cls-8" d="M172.2,341.06c.51,0,.99-.2,1.35-.56.36-.36.56-.85.56-1.35s-.2-.99-.56-1.35c-.36-.36-.85-.56-1.35-.56s-.99.2-1.35.56c-.36.36-.56.85-.56,1.35s.2.99.56,1.35c.36.36.85.56,1.35.56Z"/>
        <path id="m86d2f21d50-59" data-name="m86d2f21d50" class="cls-8" d="M147.89,282.6c.51,0,.99-.2,1.35-.56.36-.36.56-.85.56-1.35s-.2-.99-.56-1.35c-.36-.36-.85-.56-1.35-.56s-.99.2-1.35.56c-.36.36-.56.85-.56,1.35s.2.99.56,1.35c.36.36.85.56,1.35.56Z"/>
        <path id="m86d2f21d50-60" data-name="m86d2f21d50" class="cls-8" d="M178.34,283.49c.51,0,.99-.2,1.35-.56.36-.36.56-.85.56-1.35s-.2-.99-.56-1.35c-.36-.36-.85-.56-1.35-.56s-.99.2-1.35.56c-.36.36-.56.85-.56,1.35s.2.99.56,1.35c.36.36.85.56,1.35.56Z"/>
        <path id="m86d2f21d50-61" data-name="m86d2f21d50" class="cls-8" d="M135.64,313.19c.51,0,.99-.2,1.35-.56.36-.36.56-.85.56-1.35s-.2-.99-.56-1.35c-.36-.36-.85-.56-1.35-.56s-.99.2-1.35.56c-.36.36-.56.85-.56,1.35s.2.99.56,1.35c.36.36.85.56,1.35.56Z"/>
        <path id="m86d2f21d50-62" data-name="m86d2f21d50" class="cls-8" d="M136.84,320.88c.51,0,.99-.2,1.35-.56.36-.36.56-.85.56-1.35s-.2-.99-.56-1.35c-.36-.36-.85-.56-1.35-.56s-.99.2-1.35.56c-.36.36-.56.85-.56,1.35s.2.99.56,1.35c.36.36.85.56,1.35.56Z"/>
        <path id="m86d2f21d50-63" data-name="m86d2f21d50" class="cls-8" d="M131.08,357.33c.51,0,.99-.2,1.35-.56.36-.36.56-.85.56-1.35s-.2-.99-.56-1.35c-.36-.36-.85-.56-1.35-.56s-.99.2-1.35.56c-.36.36-.56.85-.56,1.35s.2.99.56,1.35c.36.36.85.56,1.35.56Z"/>
        <path id="m86d2f21d50-64" data-name="m86d2f21d50" class="cls-8" d="M191.05,327.68c.51,0,.99-.2,1.35-.56.36-.36.56-.85.56-1.35s-.2-.99-.56-1.35c-.36-.36-.85-.56-1.35-.56s-.99.2-1.35.56c-.36.36-.56.85-.56,1.35s.2.99.56,1.35c.36.36.85.56,1.35.56Z"/>
        <path id="m86d2f21d50-65" data-name="m86d2f21d50" class="cls-8" d="M157.03,284.01c.51,0,.99-.2,1.35-.56.36-.36.56-.85.56-1.35s-.2-.99-.56-1.35c-.36-.36-.85-.56-1.35-.56s-.99.2-1.35.56c-.36.36-.56.85-.56,1.35s.2.99.56,1.35c.36.36.85.56,1.35.56Z"/>
        <path id="m86d2f21d50-66" data-name="m86d2f21d50" class="cls-8" d="M164.08,346.4c.51,0,.99-.2,1.35-.56.36-.36.56-.85.56-1.35s-.2-.99-.56-1.35c-.36-.36-.85-.56-1.35-.56s-.99.2-1.35.56c-.36.36-.56.85-.56,1.35s.2.99.56,1.35c.36.36.85.56,1.35.56Z"/>
        <path id="m86d2f21d50-67" data-name="m86d2f21d50" class="cls-8" d="M152.05,360.06c.51,0,.99-.2,1.35-.56.36-.36.56-.85.56-1.35s-.2-.99-.56-1.35c-.36-.36-.85-.56-1.35-.56s-.99.2-1.35.56c-.36.36-.56.85-.56,1.35s.2.99.56,1.35c.36.36.85.56,1.35.56Z"/>
        <path id="m86d2f21d50-68" data-name="m86d2f21d50" class="cls-8" d="M175.81,336.77c.51,0,.99-.2,1.35-.56.36-.36.56-.85.56-1.35s-.2-.99-.56-1.35c-.36-.36-.85-.56-1.35-.56s-.99.2-1.35.56c-.36.36-.56.85-.56,1.35s.2.99.56,1.35c.36.36.85.56,1.35.56Z"/>
        <path id="m86d2f21d50-69" data-name="m86d2f21d50" class="cls-8" d="M131.22,275.94c.51,0,.99-.2,1.35-.56.36-.36.56-.85.56-1.35s-.2-.99-.56-1.35c-.36-.36-.85-.56-1.35-.56s-.99.2-1.35.56c-.36.36-.56.85-.56,1.35s.2.99.56,1.35c.36.36.85.56,1.35.56Z"/>
        <path id="m86d2f21d50-70" data-name="m86d2f21d50" class="cls-8" d="M136.05,312.1c.51,0,.99-.2,1.35-.56.36-.36.56-.85.56-1.35s-.2-.99-.56-1.35c-.36-.36-.85-.56-1.35-.56s-.99.2-1.35.56c-.36.36-.56.85-.56,1.35s.2.99.56,1.35c.36.36.85.56,1.35.56Z"/>
        <path id="m86d2f21d50-71" data-name="m86d2f21d50" class="cls-8" d="M168.91,367.4c.51,0,.99-.2,1.35-.56.36-.36.56-.85.56-1.35s-.2-.99-.56-1.35c-.36-.36-.85-.56-1.35-.56s-.99.2-1.35.56c-.36.36-.56.85-.56,1.35s.2.99.56,1.35c.36.36.85.56,1.35.56Z"/>
        <path id="m86d2f21d50-72" data-name="m86d2f21d50" class="cls-8" d="M189.81,308.13c.51,0,.99-.2,1.35-.56.36-.36.56-.85.56-1.35s-.2-.99-.56-1.35c-.36-.36-.85-.56-1.35-.56s-.99.2-1.35.56c-.36.36-.56.85-.56,1.35s.2.99.56,1.35c.36.36.85.56,1.35.56Z"/>
        <path id="m86d2f21d50-73" data-name="m86d2f21d50" class="cls-8" d="M161.25,302.57c.51,0,.99-.2,1.35-.56.36-.36.56-.85.56-1.35s-.2-.99-.56-1.35c-.36-.36-.85-.56-1.35-.56s-.99.2-1.35.56c-.36.36-.56.85-.56,1.35s.2.99.56,1.35c.36.36.85.56,1.35.56Z"/>
        <path id="m86d2f21d50-74" data-name="m86d2f21d50" class="cls-8" d="M197.07,353.76c.51,0,.99-.2,1.35-.56.36-.36.56-.85.56-1.35s-.2-.99-.56-1.35c-.36-.36-.85-.56-1.35-.56s-.99.2-1.35.56c-.36.36-.56.85-.56,1.35s.2.99.56,1.35c.36.36.85.56,1.35.56Z"/>
        <path id="m86d2f21d50-75" data-name="m86d2f21d50" class="cls-8" d="M138.75,356.28c.51,0,.99-.2,1.35-.56.36-.36.56-.85.56-1.35s-.2-.99-.56-1.35c-.36-.36-.85-.56-1.35-.56s-.99.2-1.35.56c-.36.36-.56.85-.56,1.35s.2.99.56,1.35c.36.36.85.56,1.35.56Z"/>
        <path id="m86d2f21d50-76" data-name="m86d2f21d50" class="cls-8" d="M198.81,320.88c.51,0,.99-.2,1.35-.56.36-.36.56-.85.56-1.35s-.2-.99-.56-1.35c-.36-.36-.85-.56-1.35-.56s-.99.2-1.35.56c-.36.36-.56.85-.56,1.35s.2.99.56,1.35c.36.36.85.56,1.35.56Z"/>
        <path id="m86d2f21d50-77" data-name="m86d2f21d50" class="cls-8" d="M137.56,343c.51,0,.99-.2,1.35-.56.36-.36.56-.85.56-1.35s-.2-.99-.56-1.35c-.36-.36-.85-.56-1.35-.56s-.99.2-1.35.56c-.36.36-.56.85-.56,1.35s.2.99.56,1.35c.36.36.85.56,1.35.56Z"/>
        <path id="m86d2f21d50-78" data-name="m86d2f21d50" class="cls-8" d="M158.57,322.38c.51,0,.99-.2,1.35-.56.36-.36.56-.85.56-1.35s-.2-.99-.56-1.35c-.36-.36-.85-.56-1.35-.56s-.99.2-1.35.56c-.36.36-.56.85-.56,1.35s.2.99.56,1.35c.36.36.85.56,1.35.56Z"/>
      </g>
      <g id="PathCollection_2">
        <rect class="cls-2" x="53.4" y="215.92" width="202.58" height="202.58"/>
        <g>
          <path id="mf29ea05379" class="cls-7" d="M73.78,395.16l3.83-3.83M73.78,391.33l3.83,3.83"/>
          <path id="mf29ea05379-2" data-name="mf29ea05379" class="cls-7" d="M64.42,257.87l3.83-3.83M64.42,254.04l3.83,3.83"/>
          <path id="mf29ea05379-3" data-name="mf29ea05379" class="cls-7" d="M240.92,264.03l3.83-3.83M240.92,260.2l3.83,3.83"/>
          <path id="mf29ea05379-4" data-name="mf29ea05379" class="cls-7" d="M87.09,237.23l3.83-3.83M87.09,233.41l3.83,3.83"/>
          <path id="mf29ea05379-5" data-name="mf29ea05379" class="cls-7" d="M242.72,392.41l3.83-3.83M242.72,388.59l3.83,3.83"/>
          <path id="mf29ea05379-6" data-name="mf29ea05379" class="cls-7" d="M89.97,390.88l3.83-3.83M89.97,387.05l3.83,3.83"/>
          <path id="mf29ea05379-7" data-name="mf29ea05379" class="cls-7" d="M211.89,393.33l3.83-3.83M211.89,389.5l3.83,3.83"/>
          <path id="mf29ea05379-8" data-name="mf29ea05379" class="cls-7" d="M215.01,393.51l3.83-3.83M215.01,389.68l3.83,3.83"/>
          <path id="mf29ea05379-9" data-name="mf29ea05379" class="cls-7" d="M196.84,403.99l3.83-3.83M196.84,400.16l3.83,3.83"/>
          <path id="mf29ea05379-10" data-name="mf29ea05379" class="cls-7" d="M213.35,410.34l3.83-3.83M213.35,406.51l3.83,3.83"/>
          <path id="mf29ea05379-11" data-name="mf29ea05379" class="cls-7" d="M196.09,234.01l3.83-3.83M196.09,230.18l3.83,3.83"/>
          <path id="mf29ea05379-12" data-name="mf29ea05379" class="cls-7" d="M101.78,235.75l3.83-3.83M101.78,231.92l3.83,3.83"/>
          <path id="mf29ea05379-13" data-name="mf29ea05379" class="cls-7" d="M64.23,355.67l3.83-3.83M64.23,351.84l3.83,3.83"/>
          <path id="mf29ea05379-14" data-name="mf29ea05379" class="cls-7" d="M79.15,241.87l3.83-3.83M79.15,238.05l3.83,3.83"/>
          <path id="mf29ea05379-15" data-name="mf29ea05379" class="cls-7" d="M192.23,227.26l3.83-3.83M192.23,223.43l3.83,3.83"/>
          <path id="mf29ea05379-16" data-name="mf29ea05379" class="cls-7" d="M88.22,251.33l3.83-3.83M88.22,247.5l3.83,3.83"/>
          <path id="mf29ea05379-17" data-name="mf29ea05379" class="cls-7" d="M83.5,255.04l3.83-3.83M83.5,251.21l3.83,3.83"/>
          <path id="mf29ea05379-18" data-name="mf29ea05379" class="cls-7" d="M240.35,253.6l3.83-3.83M240.35,249.77l3.83,3.83"/>
          <path id="mf29ea05379-19" data-name="mf29ea05379" class="cls-7" d="M62.85,344.91l3.83-3.83M62.85,341.09l3.83,3.83"/>
          <path id="mf29ea05379-20" data-name="mf29ea05379" class="cls-7" d="M97.53,407.8l3.83-3.83M97.53,403.97l3.83,3.83"/>
          <path id="mf29ea05379-21" data-name="mf29ea05379" class="cls-7" d="M190.42,405.34l3.83-3.83M190.42,401.52l3.83,3.83"/>
          <path id="mf29ea05379-22" data-name="mf29ea05379" class="cls-7" d="M94.98,237.29l3.83-3.83M94.98,233.46l3.83,3.83"/>
        </g>
      </g>
      <g id="patch_3">
        <g>
          <g class="cls-9">
            <path class="cls-4" d="M154.69,372.46c14.65,0,28.71-5.82,39.07-16.18,10.36-10.36,16.18-24.41,16.18-39.07s-5.82-28.71-16.18-39.07c-10.36-10.36-24.41-16.18-39.07-16.18s-28.71,5.82-39.07,16.18c-10.36,10.36-16.18,24.41-16.18,39.07s5.82,28.71,16.18,39.07c10.36,10.36,24.41,16.18,39.07,16.18h0Z"/>
          </g>
          <rect class="cls-1" x="53.4" y="215.92" width="202.58" height="202.58"/>
        </g>
      </g>
      <g id="patch_4">
        <path class="cls-6" d="M53.4,418.5v-202.58"/>
      </g>
      <g id="patch_5">
        <path class="cls-6" d="M255.98,418.5v-202.58"/>
      </g>
      <g id="patch_6">
        <path class="cls-6" d="M53.4,418.5h202.58"/>
      </g>
      <g id="patch_7">
        <path class="cls-6" d="M53.4,215.92h202.58"/>
      </g>
      <rect class="cls-5" x="359.06" y="216.88" width="202.61" height="202.61"/>
      <path id="m034d2424b7" class="cls-8" d="M387.31,357.84c.67,0,1.32-.27,1.79-.74.48-.48.74-1.12.74-1.79s-.27-1.32-.74-1.79c-.48-.48-1.12-.74-1.79-.74s-1.32.27-1.79.74c-.48.48-.74,1.12-.74,1.79s.27,1.32.74,1.79c.48.48,1.12.74,1.79.74Z"/>
      <path id="m034d2424b7-2" data-name="m034d2424b7" class="cls-8" d="M360.99,419.84c.67,0,1.32-.27,1.79-.74.48-.48.74-1.12.74-1.79s-.27-1.32-.74-1.79c-.48-.48-1.12-.74-1.79-.74s-1.32.27-1.79.74c-.48.48-.74,1.12-.74,1.79s.27,1.32.74,1.79c.48.48,1.12.74,1.79.74Z"/>
      <path id="m034d2424b7-3" data-name="m034d2424b7" class="cls-8" d="M437.76,388.3c.67,0,1.32-.27,1.79-.74.48-.48.74-1.12.74-1.79s-.27-1.32-.74-1.79c-.48-.48-1.12-.74-1.79-.74s-1.32.27-1.79.74c-.48.48-.74,1.12-.74,1.79s.27,1.32.74,1.79c.48.48,1.12.74,1.79.74Z"/>
      <path id="m034d2424b7-4" data-name="m034d2424b7" class="cls-8" d="M413.82,392.24c.67,0,1.32-.27,1.79-.74.48-.48.74-1.12.74-1.79s-.27-1.32-.74-1.79c-.48-.48-1.12-.74-1.79-.74s-1.32.27-1.79.74c-.48.48-.74,1.12-.74,1.79s.27,1.32.74,1.79c.48.48,1.12.74,1.79.74Z"/>
      <path id="m034d2424b7-5" data-name="m034d2424b7" class="cls-8" d="M394.99,405.42c.67,0,1.32-.27,1.79-.74.48-.48.74-1.12.74-1.79s-.27-1.32-.74-1.79c-.48-.48-1.12-.74-1.79-.74s-1.32.27-1.79.74c-.48.48-.74,1.12-.74,1.79s.27,1.32.74,1.79c.48.48,1.12.74,1.79.74Z"/>
      <path id="m034d2424b7-6" data-name="m034d2424b7" class="cls-8" d="M376.52,389.17c.67,0,1.32-.27,1.79-.74.48-.48.74-1.12.74-1.79s-.27-1.32-.74-1.79c-.48-.48-1.12-.74-1.79-.74s-1.32.27-1.79.74c-.48.48-.74,1.12-.74,1.79s.27,1.32.74,1.79c.48.48,1.12.74,1.79.74Z"/>
      <path id="m034d2424b7-7" data-name="m034d2424b7" class="cls-8" d="M363.39,369.64c.67,0,1.32-.27,1.79-.74.48-.48.74-1.12.74-1.79s-.27-1.32-.74-1.79c-.48-.48-1.12-.74-1.79-.74s-1.32.27-1.79.74c-.48.48-.74,1.12-.74,1.79s.27,1.32.74,1.79c.48.48,1.12.74,1.79.74Z"/>
      <path id="m034d2424b7-8" data-name="m034d2424b7" class="cls-8" d="M366.74,412.2c.67,0,1.32-.27,1.79-.74.48-.48.74-1.12.74-1.79s-.27-1.32-.74-1.79c-.48-.48-1.12-.74-1.79-.74s-1.32.27-1.79.74c-.48.48-.74,1.12-.74,1.79s.27,1.32.74,1.79c.48.48,1.12.74,1.79.74Z"/>
      <path id="m034d2424b7-9" data-name="m034d2424b7" class="cls-8" d="M435.23,405.55c.67,0,1.32-.27,1.79-.74.48-.48.74-1.12.74-1.79s-.27-1.32-.74-1.79c-.48-.48-1.12-.74-1.79-.74s-1.32.27-1.79.74c-.48.48-.74,1.12-.74,1.79s.27,1.32.74,1.79c.48.48,1.12.74,1.79.74Z"/>
      <path id="m034d2424b7-10" data-name="m034d2424b7" class="cls-8" d="M382.47,333.59c.67,0,1.32-.27,1.79-.74.48-.48.74-1.12.74-1.79s-.27-1.32-.74-1.79c-.48-.48-1.12-.74-1.79-.74s-1.32.27-1.79.74c-.48.48-.74,1.12-.74,1.79s.27,1.32.74,1.79c.48.48,1.12.74,1.79.74Z"/>
      <path id="m034d2424b7-11" data-name="m034d2424b7" class="cls-8" d="M446.93,418.94c.67,0,1.32-.27,1.79-.74.48-.48.74-1.12.74-1.79s-.27-1.32-.74-1.79c-.48-.48-1.12-.74-1.79-.74s-1.32.27-1.79.74c-.48.48-.74,1.12-.74,1.79s.27,1.32.74,1.79c.48.48,1.12.74,1.79.74Z"/>
      <path id="m034d2424b7-12" data-name="m034d2424b7" class="cls-8" d="M408.91,371.94c.67,0,1.32-.27,1.79-.74.48-.48.74-1.12.74-1.79s-.27-1.32-.74-1.79c-.48-.48-1.12-.74-1.79-.74s-1.32.27-1.79.74c-.48.48-.74,1.12-.74,1.79s.27,1.32.74,1.79c.48.48,1.12.74,1.79.74Z"/>
      <path id="m034d2424b7-13" data-name="m034d2424b7" class="cls-8" d="M408.46,377.72c.67,0,1.32-.27,1.79-.74.48-.48.74-1.12.74-1.79s-.27-1.32-.74-1.79c-.48-.48-1.12-.74-1.79-.74s-1.32.27-1.79.74c-.48.48-.74,1.12-.74,1.79s.27,1.32.74,1.79c.48.48,1.12.74,1.79.74Z"/>
      <path id="m034d2424b7-14" data-name="m034d2424b7" class="cls-8" d="M376.85,334.74c.67,0,1.32-.27,1.79-.74.48-.48.74-1.12.74-1.79s-.27-1.32-.74-1.79c-.48-.48-1.12-.74-1.79-.74s-1.32.27-1.79.74c-.48.48-.74,1.12-.74,1.79s.27,1.32.74,1.79c.48.48,1.12.74,1.79.74Z"/>
      <path id="m034d2424b7-15" data-name="m034d2424b7" class="cls-8" d="M374.53,411.51c.67,0,1.32-.27,1.79-.74.48-.48.74-1.12.74-1.79s-.27-1.32-.74-1.79c-.48-.48-1.12-.74-1.79-.74s-1.32.27-1.79.74c-.48.48-.74,1.12-.74,1.79s.27,1.32.74,1.79c.48.48,1.12.74,1.79.74Z"/>
      <path id="m034d2424b7-16" data-name="m034d2424b7" class="cls-8" d="M494.84,416.23c.67,0,1.32-.27,1.79-.74.48-.48.74-1.12.74-1.79s-.27-1.32-.74-1.79c-.48-.48-1.12-.74-1.79-.74s-1.32.27-1.79.74c-.48.48-.74,1.12-.74,1.79s.27,1.32.74,1.79c.48.48,1.12.74,1.79.74Z"/>
      <path id="m034d2424b7-17" data-name="m034d2424b7" class="cls-8" d="M415.54,408.4c.67,0,1.32-.27,1.79-.74.48-.48.74-1.12.74-1.79s-.27-1.32-.74-1.79c-.48-.48-1.12-.74-1.79-.74s-1.32.27-1.79.74c-.48.48-.74,1.12-.74,1.79s.27,1.32.74,1.79c.48.48,1.12.74,1.79.74Z"/>
      <path id="m034d2424b7-18" data-name="m034d2424b7" class="cls-8" d="M371.24,381.61c.67,0,1.32-.27,1.79-.74.48-.48.74-1.12.74-1.79s-.27-1.32-.74-1.79c-.48-.48-1.12-.74-1.79-.74s-1.32.27-1.79.74c-.48.48-.74,1.12-.74,1.79s.27,1.32.74,1.79c.48.48,1.12.74,1.79.74Z"/>
      <path id="m034d2424b7-19" data-name="m034d2424b7" class="cls-8" d="M421.68,378.57c.67,0,1.32-.27,1.79-.74.48-.48.74-1.12.74-1.79s-.27-1.32-.74-1.79c-.48-.48-1.12-.74-1.79-.74s-1.32.27-1.79.74c-.48.48-.74,1.12-.74,1.79s.27,1.32.74,1.79c.48.48,1.12.74,1.79.74Z"/>
      <path id="m034d2424b7-20" data-name="m034d2424b7" class="cls-8" d="M388.43,413.35c.67,0,1.32-.27,1.79-.74.48-.48.74-1.12.74-1.79s-.27-1.32-.74-1.79c-.48-.48-1.12-.74-1.79-.74s-1.32.27-1.79.74c-.48.48-.74,1.12-.74,1.79s.27,1.32.74,1.79c.48.48,1.12.74,1.79.74Z"/>
      <path id="m034d2424b7-21" data-name="m034d2424b7" class="cls-8" d="M373.75,341.29c.67,0,1.32-.27,1.79-.74.48-.48.74-1.12.74-1.79s-.27-1.32-.74-1.79c-.48-.48-1.12-.74-1.79-.74s-1.32.27-1.79.74c-.48.48-.74,1.12-.74,1.79s.27,1.32.74,1.79c.48.48,1.12.74,1.79.74Z"/>
      <path id="m034d2424b7-22" data-name="m034d2424b7" class="cls-8" d="M390.55,367.47c.67,0,1.32-.27,1.79-.74.48-.48.74-1.12.74-1.79s-.27-1.32-.74-1.79c-.48-.48-1.12-.74-1.79-.74s-1.32.27-1.79.74c-.48.48-.74,1.12-.74,1.79s.27,1.32.74,1.79c.48.48,1.12.74,1.79.74Z"/>
      <path id="m034d2424b7-23" data-name="m034d2424b7" class="cls-8" d="M371.24,328.06c.67,0,1.32-.27,1.79-.74.48-.48.74-1.12.74-1.79s-.27-1.32-.74-1.79c-.48-.48-1.12-.74-1.79-.74s-1.32.27-1.79.74c-.48.48-.74,1.12-.74,1.79s.27,1.32.74,1.79c.48.48,1.12.74,1.79.74Z"/>
      <path id="m034d2424b7-24" data-name="m034d2424b7" class="cls-8" d="M365.29,381.61c.67,0,1.32-.27,1.79-.74.48-.48.74-1.12.74-1.79s-.27-1.32-.74-1.79c-.48-.48-1.12-.74-1.79-.74s-1.32.27-1.79.74c-.48.48-.74,1.12-.74,1.79s.27,1.32.74,1.79c.48.48,1.12.74,1.79.74Z"/>
      <path id="m034d2424b7-25" data-name="m034d2424b7" class="cls-8" d="M463.69,367.03c.67,0,1.32-.27,1.79-.74.48-.48.74-1.12.74-1.79s-.27-1.32-.74-1.79c-.48-.48-1.12-.74-1.79-.74s-1.32.27-1.79.74c-.48.48-.74,1.12-.74,1.79s.27,1.32.74,1.79c.48.48,1.12.74,1.79.74Z"/>
      <path id="m034d2424b7-26" data-name="m034d2424b7" class="cls-8" d="M390.87,332.2c.67,0,1.32-.27,1.79-.74.48-.48.74-1.12.74-1.79s-.27-1.32-.74-1.79c-.48-.48-1.12-.74-1.79-.74s-1.32.27-1.79.74c-.48.48-.74,1.12-.74,1.79s.27,1.32.74,1.79c.48.48,1.12.74,1.79.74Z"/>
      <path id="m034d2424b7-27" data-name="m034d2424b7" class="cls-8" d="M433.22,416.77c.67,0,1.32-.27,1.79-.74.48-.48.74-1.12.74-1.79s-.27-1.32-.74-1.79c-.48-.48-1.12-.74-1.79-.74s-1.32.27-1.79.74c-.48.48-.74,1.12-.74,1.79s.27,1.32.74,1.79c.48.48,1.12.74,1.79.74Z"/>
      <path id="m034d2424b7-28" data-name="m034d2424b7" class="cls-8" d="M413.3,413.9c.67,0,1.32-.27,1.79-.74.48-.48.74-1.12.74-1.79s-.27-1.32-.74-1.79c-.48-.48-1.12-.74-1.79-.74s-1.32.27-1.79.74c-.48.48-.74,1.12-.74,1.79s.27,1.32.74,1.79c.48.48,1.12.74,1.79.74Z"/>
      <path id="m034d2424b7-29" data-name="m034d2424b7" class="cls-8" d="M409.22,389.32c.67,0,1.32-.27,1.79-.74.48-.48.74-1.12.74-1.79s-.27-1.32-.74-1.79c-.48-.48-1.12-.74-1.79-.74s-1.32.27-1.79.74c-.48.48-.74,1.12-.74,1.79s.27,1.32.74,1.79c.48.48,1.12.74,1.79.74Z"/>
      <path id="m034d2424b7-30" data-name="m034d2424b7" class="cls-8" d="M370.21,414.34c.67,0,1.32-.27,1.79-.74.48-.48.74-1.12.74-1.79s-.27-1.32-.74-1.79c-.48-.48-1.12-.74-1.79-.74s-1.32.27-1.79.74c-.48.48-.74,1.12-.74,1.79s.27,1.32.74,1.79c.48.48,1.12.74,1.79.74Z"/>
      <path id="m034d2424b7-31" data-name="m034d2424b7" class="cls-8" d="M376.58,384.92c.67,0,1.32-.27,1.79-.74.48-.48.74-1.12.74-1.79s-.27-1.32-.74-1.79c-.48-.48-1.12-.74-1.79-.74s-1.32.27-1.79.74c-.48.48-.74,1.12-.74,1.79s.27,1.32.74,1.79c.48.48,1.12.74,1.79.74Z"/>
      <path id="m034d2424b7-32" data-name="m034d2424b7" class="cls-8" d="M404.82,383.16c.67,0,1.32-.27,1.79-.74.48-.48.74-1.12.74-1.79s-.27-1.32-.74-1.79c-.48-.48-1.12-.74-1.79-.74s-1.32.27-1.79.74c-.48.48-.74,1.12-.74,1.79s.27,1.32.74,1.79c.48.48,1.12.74,1.79.74Z"/>
      <path id="m034d2424b7-33" data-name="m034d2424b7" class="cls-8" d="M428.07,360.19c.67,0,1.32-.27,1.79-.74.48-.48.74-1.12.74-1.79s-.27-1.32-.74-1.79c-.48-.48-1.12-.74-1.79-.74s-1.32.27-1.79.74c-.48.48-.74,1.12-.74,1.79s.27,1.32.74,1.79c.48.48,1.12.74,1.79.74Z"/>
      <path id="m034d2424b7-34" data-name="m034d2424b7" class="cls-8" d="M461.58,395.12c.67,0,1.32-.27,1.79-.74.48-.48.74-1.12.74-1.79s-.27-1.32-.74-1.79c-.48-.48-1.12-.74-1.79-.74s-1.32.27-1.79.74c-.48.48-.74,1.12-.74,1.79s.27,1.32.74,1.79c.48.48,1.12.74,1.79.74Z"/>
      <path id="m034d2424b7-35" data-name="m034d2424b7" class="cls-8" d="M459.96,381.01c.67,0,1.32-.27,1.79-.74.48-.48.74-1.12.74-1.79s-.27-1.32-.74-1.79c-.48-.48-1.12-.74-1.79-.74s-1.32.27-1.79.74c-.48.48-.74,1.12-.74,1.79s.27,1.32.74,1.79c.48.48,1.12.74,1.79.74Z"/>
      <path id="m034d2424b7-36" data-name="m034d2424b7" class="cls-8" d="M362.35,361.97c.67,0,1.32-.27,1.79-.74.48-.48.74-1.12.74-1.79s-.27-1.32-.74-1.79c-.48-.48-1.12-.74-1.79-.74s-1.32.27-1.79.74c-.48.48-.74,1.12-.74,1.79s.27,1.32.74,1.79c.48.48,1.12.74,1.79.74Z"/>
      <path id="m034d2424b7-37" data-name="m034d2424b7" class="cls-8" d="M398.49,312.12c.67,0,1.32-.27,1.79-.74.48-.48.74-1.12.74-1.79s-.27-1.32-.74-1.79c-.48-.48-1.12-.74-1.79-.74s-1.32.27-1.79.74c-.48.48-.74,1.12-.74,1.79s.27,1.32.74,1.79c.48.48,1.12.74,1.79.74Z"/>
      <path id="m034d2424b7-38" data-name="m034d2424b7" class="cls-8" d="M375.3,374.09c.67,0,1.32-.27,1.79-.74.48-.48.74-1.12.74-1.79s-.27-1.32-.74-1.79c-.48-.48-1.12-.74-1.79-.74s-1.32.27-1.79.74c-.48.48-.74,1.12-.74,1.79s.27,1.32.74,1.79c.48.48,1.12.74,1.79.74Z"/>
      <path id="m034d2424b7-39" data-name="m034d2424b7" class="cls-8" d="M363.94,404.46c.67,0,1.32-.27,1.79-.74.48-.48.74-1.12.74-1.79s-.27-1.32-.74-1.79c-.48-.48-1.12-.74-1.79-.74s-1.32.27-1.79.74c-.48.48-.74,1.12-.74,1.79s.27,1.32.74,1.79c.48.48,1.12.74,1.79.74Z"/>
      <path id="m034d2424b7-40" data-name="m034d2424b7" class="cls-8" d="M373.35,417.78c.67,0,1.32-.27,1.79-.74.48-.48.74-1.12.74-1.79s-.27-1.32-.74-1.79c-.48-.48-1.12-.74-1.79-.74s-1.32.27-1.79.74c-.48.48-.74,1.12-.74,1.79s.27,1.32.74,1.79c.48.48,1.12.74,1.79.74Z"/>
      <path id="m034d2424b7-41" data-name="m034d2424b7" class="cls-8" d="M456.93,415.51c.67,0,1.32-.27,1.79-.74.48-.48.74-1.12.74-1.79s-.27-1.32-.74-1.79c-.48-.48-1.12-.74-1.79-.74s-1.32.27-1.79.74c-.48.48-.74,1.12-.74,1.79s.27,1.32.74,1.79c.48.48,1.12.74,1.79.74Z"/>
      <path id="m034d2424b7-42" data-name="m034d2424b7" class="cls-8" d="M468.3,415.51c.67,0,1.32-.27,1.79-.74.48-.48.74-1.12.74-1.79s-.27-1.32-.74-1.79c-.48-.48-1.12-.74-1.79-.74s-1.32.27-1.79.74c-.48.48-.74,1.12-.74,1.79s.27,1.32.74,1.79c.48.48,1.12.74,1.79.74Z"/>
      <path id="m034d2424b7-43" data-name="m034d2424b7" class="cls-8" d="M368.48,387.23c.67,0,1.32-.27,1.79-.74.48-.48.74-1.12.74-1.79s-.27-1.32-.74-1.79c-.48-.48-1.12-.74-1.79-.74s-1.32.27-1.79.74c-.48.48-.74,1.12-.74,1.79s.27,1.32.74,1.79c.48.48,1.12.74,1.79.74Z"/>
      <path id="m034d2424b7-44" data-name="m034d2424b7" class="cls-8" d="M376.47,368.07c.67,0,1.32-.27,1.79-.74.48-.48.74-1.12.74-1.79s-.27-1.32-.74-1.79c-.48-.48-1.12-.74-1.79-.74s-1.32.27-1.79.74c-.48.48-.74,1.12-.74,1.79s.27,1.32.74,1.79c.48.48,1.12.74,1.79.74Z"/>
      <path id="m034d2424b7-45" data-name="m034d2424b7" class="cls-8" d="M442.62,405.19c.67,0,1.32-.27,1.79-.74.48-.48.74-1.12.74-1.79s-.27-1.32-.74-1.79c-.48-.48-1.12-.74-1.79-.74s-1.32.27-1.79.74c-.48.48-.74,1.12-.74,1.79s.27,1.32.74,1.79c.48.48,1.12.74,1.79.74Z"/>
      <path id="m034d2424b7-46" data-name="m034d2424b7" class="cls-8" d="M374.85,351.2c.67,0,1.32-.27,1.79-.74.48-.48.74-1.12.74-1.79s-.27-1.32-.74-1.79c-.48-.48-1.12-.74-1.79-.74s-1.32.27-1.79.74c-.48.48-.74,1.12-.74,1.79s.27,1.32.74,1.79c.48.48,1.12.74,1.79.74Z"/>
      <path id="m034d2424b7-47" data-name="m034d2424b7" class="cls-8" d="M362.64,395.32c.67,0,1.32-.27,1.79-.74.48-.48.74-1.12.74-1.79s-.27-1.32-.74-1.79c-.48-.48-1.12-.74-1.79-.74s-1.32.27-1.79.74c-.48.48-.74,1.12-.74,1.79s.27,1.32.74,1.79c.48.48,1.12.74,1.79.74Z"/>
      <path id="m034d2424b7-48" data-name="m034d2424b7" class="cls-8" d="M422.06,419.86c.67,0,1.32-.27,1.79-.74.48-.48.74-1.12.74-1.79s-.27-1.32-.74-1.79c-.48-.48-1.12-.74-1.79-.74s-1.32.27-1.79.74c-.48.48-.74,1.12-.74,1.79s.27,1.32.74,1.79c.48.48,1.12.74,1.79.74Z"/>
      <path id="m034d2424b7-49" data-name="m034d2424b7" class="cls-8" d="M485.16,415.13c.67,0,1.32-.27,1.79-.74.48-.48.74-1.12.74-1.79s-.27-1.32-.74-1.79c-.48-.48-1.12-.74-1.79-.74s-1.32.27-1.79.74c-.48.48-.74,1.12-.74,1.79s.27,1.32.74,1.79c.48.48,1.12.74,1.79.74Z"/>
      <path id="m034d2424b7-50" data-name="m034d2424b7" class="cls-8" d="M400.64,419.31c.67,0,1.32-.27,1.79-.74.48-.48.74-1.12.74-1.79s-.27-1.32-.74-1.79c-.48-.48-1.12-.74-1.79-.74s-1.32.27-1.79.74c-.48.48-.74,1.12-.74,1.79s.27,1.32.74,1.79c.48.48,1.12.74,1.79.74Z"/>
      <path id="m034d2424b7-51" data-name="m034d2424b7" class="cls-8" d="M440.3,358.41c.67,0,1.32-.27,1.79-.74.48-.48.74-1.12.74-1.79s-.27-1.32-.74-1.79c-.48-.48-1.12-.74-1.79-.74s-1.32.27-1.79.74c-.48.48-.74,1.12-.74,1.79s.27,1.32.74,1.79c.48.48,1.12.74,1.79.74Z"/>
      <path id="m034d2424b7-52" data-name="m034d2424b7" class="cls-8" d="M366.59,355.3c.67,0,1.32-.27,1.79-.74.48-.48.74-1.12.74-1.79s-.27-1.32-.74-1.79c-.48-.48-1.12-.74-1.79-.74s-1.32.27-1.79.74c-.48.48-.74,1.12-.74,1.79s.27,1.32.74,1.79c.48.48,1.12.74,1.79.74Z"/>
      <path id="m034d2424b7-53" data-name="m034d2424b7" class="cls-8" d="M377.5,403.42c.67,0,1.32-.27,1.79-.74.48-.48.74-1.12.74-1.79s-.27-1.32-.74-1.79c-.48-.48-1.12-.74-1.79-.74s-1.32.27-1.79.74c-.48.48-.74,1.12-.74,1.79s.27,1.32.74,1.79c.48.48,1.12.74,1.79.74Z"/>
      <path id="m034d2424b7-54" data-name="m034d2424b7" class="cls-8" d="M416.53,414.64c.67,0,1.32-.27,1.79-.74.48-.48.74-1.12.74-1.79s-.27-1.32-.74-1.79c-.48-.48-1.12-.74-1.79-.74s-1.32.27-1.79.74c-.48.48-.74,1.12-.74,1.79s.27,1.32.74,1.79c.48.48,1.12.74,1.79.74Z"/>
      <path id="m034d2424b7-55" data-name="m034d2424b7" class="cls-8" d="M412.08,335.94c.67,0,1.32-.27,1.79-.74.48-.48.74-1.12.74-1.79s-.27-1.32-.74-1.79c-.48-.48-1.12-.74-1.79-.74s-1.32.27-1.79.74c-.48.48-.74,1.12-.74,1.79s.27,1.32.74,1.79c.48.48,1.12.74,1.79.74Z"/>
      <path id="m034d2424b7-56" data-name="m034d2424b7" class="cls-8" d="M366.17,418.43c.67,0,1.32-.27,1.79-.74.48-.48.74-1.12.74-1.79s-.27-1.32-.74-1.79c-.48-.48-1.12-.74-1.79-.74s-1.32.27-1.79.74c-.48.48-.74,1.12-.74,1.79s.27,1.32.74,1.79c.48.48,1.12.74,1.79.74Z"/>
      <path id="m034d2424b7-57" data-name="m034d2424b7" class="cls-8" d="M376.36,393.73c.67,0,1.32-.27,1.79-.74.48-.48.74-1.12.74-1.79s-.27-1.32-.74-1.79c-.48-.48-1.12-.74-1.79-.74s-1.32.27-1.79.74c-.48.48-.74,1.12-.74,1.79s.27,1.32.74,1.79c.48.48,1.12.74,1.79.74Z"/>
      <path id="m034d2424b7-58" data-name="m034d2424b7" class="cls-8" d="M426.22,347.61c.67,0,1.32-.27,1.79-.74.48-.48.74-1.12.74-1.79s-.27-1.32-.74-1.79c-.48-.48-1.12-.74-1.79-.74s-1.32.27-1.79.74c-.48.48-.74,1.12-.74,1.79s.27,1.32.74,1.79c.48.48,1.12.74,1.79.74Z"/>
      <path id="m034d2424b7-59" data-name="m034d2424b7" class="cls-8" d="M388.21,396.41c.67,0,1.32-.27,1.79-.74.48-.48.74-1.12.74-1.79s-.27-1.32-.74-1.79c-.48-.48-1.12-.74-1.79-.74s-1.32.27-1.79.74c-.48.48-.74,1.12-.74,1.79s.27,1.32.74,1.79c.48.48,1.12.74,1.79.74Z"/>
      <path id="m034d2424b7-60" data-name="m034d2424b7" class="cls-8" d="M385.3,420.68c.67,0,1.32-.27,1.79-.74.48-.48.74-1.12.74-1.79s-.27-1.32-.74-1.79c-.48-.48-1.12-.74-1.79-.74s-1.32.27-1.79.74c-.48.48-.74,1.12-.74,1.79s.27,1.32.74,1.79c.48.48,1.12.74,1.79.74Z"/>
      <path id="m034d2424b7-61" data-name="m034d2424b7" class="cls-8" d="M389.04,394.29c.67,0,1.32-.27,1.79-.74.48-.48.74-1.12.74-1.79s-.27-1.32-.74-1.79c-.48-.48-1.12-.74-1.79-.74s-1.32.27-1.79.74c-.48.48-.74,1.12-.74,1.79s.27,1.32.74,1.79c.48.48,1.12.74,1.79.74Z"/>
      <path id="m034d2424b7-62" data-name="m034d2424b7" class="cls-8" d="M409.42,386.75c.67,0,1.32-.27,1.79-.74.48-.48.74-1.12.74-1.79s-.27-1.32-.74-1.79c-.48-.48-1.12-.74-1.79-.74s-1.32.27-1.79.74c-.48.48-.74,1.12-.74,1.79s.27,1.32.74,1.79c.48.48,1.12.74,1.79.74Z"/>
      <path id="m034d2424b7-63" data-name="m034d2424b7" class="cls-8" d="M471.36,393.77c.67,0,1.32-.27,1.79-.74.48-.48.74-1.12.74-1.79s-.27-1.32-.74-1.79c-.48-.48-1.12-.74-1.79-.74s-1.32.27-1.79.74c-.48.48-.74,1.12-.74,1.79s.27,1.32.74,1.79c.48.48,1.12.74,1.79.74Z"/>
      <path id="m034d2424b7-64" data-name="m034d2424b7" class="cls-8" d="M385.66,321.91c.67,0,1.32-.27,1.79-.74.48-.48.74-1.12.74-1.79s-.27-1.32-.74-1.79c-.48-.48-1.12-.74-1.79-.74s-1.32.27-1.79.74c-.48.48-.74,1.12-.74,1.79s.27,1.32.74,1.79c.48.48,1.12.74,1.79.74Z"/>
      <path id="m034d2424b7-65" data-name="m034d2424b7" class="cls-8" d="M360.15,409.53c.67,0,1.32-.27,1.79-.74.48-.48.74-1.12.74-1.79s-.27-1.32-.74-1.79c-.48-.48-1.12-.74-1.79-.74s-1.32.27-1.79.74c-.48.48-.74,1.12-.74,1.79s.27,1.32.74,1.79c.48.48,1.12.74,1.79.74Z"/>
      <path id="m034d2424b7-66" data-name="m034d2424b7" class="cls-8" d="M475.23,406.58c.67,0,1.32-.27,1.79-.74.48-.48.74-1.12.74-1.79s-.27-1.32-.74-1.79c-.48-.48-1.12-.74-1.79-.74s-1.32.27-1.79.74c-.48.48-.74,1.12-.74,1.79s.27,1.32.74,1.79c.48.48,1.12.74,1.79.74Z"/>
      <path id="m034d2424b7-67" data-name="m034d2424b7" class="cls-8" d="M451.35,404.27c.67,0,1.32-.27,1.79-.74.48-.48.74-1.12.74-1.79s-.27-1.32-.74-1.79c-.48-.48-1.12-.74-1.79-.74s-1.32.27-1.79.74c-.48.48-.74,1.12-.74,1.79s.27,1.32.74,1.79c.48.48,1.12.74,1.79.74Z"/>
      <path id="m034d2424b7-68" data-name="m034d2424b7" class="cls-8" d="M363.21,374.29c.67,0,1.32-.27,1.79-.74.48-.48.74-1.12.74-1.79s-.27-1.32-.74-1.79c-.48-.48-1.12-.74-1.79-.74s-1.32.27-1.79.74c-.48.48-.74,1.12-.74,1.79s.27,1.32.74,1.79c.48.48,1.12.74,1.79.74Z"/>
      <path id="m034d2424b7-69" data-name="m034d2424b7" class="cls-8" d="M369.28,404.11c.67,0,1.32-.27,1.79-.74.48-.48.74-1.12.74-1.79s-.27-1.32-.74-1.79c-.48-.48-1.12-.74-1.79-.74s-1.32.27-1.79.74c-.48.48-.74,1.12-.74,1.79s.27,1.32.74,1.79c.48.48,1.12.74,1.79.74Z"/>
      <path id="m034d2424b7-70" data-name="m034d2424b7" class="cls-8" d="M401.35,346.95c.67,0,1.32-.27,1.79-.74.48-.48.74-1.12.74-1.79s-.27-1.32-.74-1.79c-.48-.48-1.12-.74-1.79-.74s-1.32.27-1.79.74c-.48.48-.74,1.12-.74,1.79s.27,1.32.74,1.79c.48.48,1.12.74,1.79.74Z"/>
      <rect class="cls-5" x="359.06" y="216.88" width="202.61" height="202.61"/>
      <g>
        <path id="m203aaa9d44" class="cls-7" d="M412.12,310.36l5.07-5.07M412.12,305.29l5.07,5.07"/>
        <path id="m203aaa9d44-2" data-name="m203aaa9d44" class="cls-7" d="M500.81,381.73l5.07-5.07M500.81,376.66l5.07,5.07"/>
        <path id="m203aaa9d44-3" data-name="m203aaa9d44" class="cls-7" d="M472.01,292.99l5.07-5.07M472.01,287.92l5.07,5.07"/>
        <path id="m203aaa9d44-4" data-name="m203aaa9d44" class="cls-7" d="M429.64,316.63l5.07-5.07M429.64,311.56l5.07,5.07"/>
        <path id="m203aaa9d44-5" data-name="m203aaa9d44" class="cls-7" d="M509.07,288.07l5.07-5.07M509.07,283l5.07,5.07"/>
        <path id="m203aaa9d44-6" data-name="m203aaa9d44" class="cls-7" d="M479.08,356.45l5.07-5.07M479.08,351.38l5.07,5.07"/>
        <path id="m203aaa9d44-7" data-name="m203aaa9d44" class="cls-7" d="M471.48,352.18l5.07-5.07M471.48,347.11l5.07,5.07"/>
        <path id="m203aaa9d44-8" data-name="m203aaa9d44" class="cls-7" d="M464.35,334.97l5.07-5.07M464.35,329.9l5.07,5.07"/>
        <path id="m203aaa9d44-9" data-name="m203aaa9d44" class="cls-7" d="M495.33,334.51l5.07-5.07M495.33,329.44l5.07,5.07"/>
        <path id="m203aaa9d44-10" data-name="m203aaa9d44" class="cls-7" d="M462.85,316.31l5.07-5.07M462.85,311.23l5.07,5.07"/>
        <path id="m203aaa9d44-11" data-name="m203aaa9d44" class="cls-7" d="M407.2,272.14l5.07-5.07M407.2,267.07l5.07,5.07"/>
        <path id="m203aaa9d44-12" data-name="m203aaa9d44" class="cls-7" d="M446.28,268.38l5.07-5.07M446.28,263.31l5.07,5.07"/>
        <path id="m203aaa9d44-13" data-name="m203aaa9d44" class="cls-7" d="M398.04,295.45l5.07-5.07M398.04,290.38l5.07,5.07"/>
      </g>
      <g id="patch_3-2" data-name="patch_3">
        <path class="cls-6" d="M359.06,419.49v-202.61"/>
      </g>
      <g id="patch_4-2" data-name="patch_4">
        <path class="cls-6" d="M561.68,419.49v-202.61"/>
      </g>
      <g id="patch_5-2" data-name="patch_5">
        <path class="cls-6" d="M359.06,419.49h202.61"/>
      </g>
      <g id="patch_6-2" data-name="patch_6">
        <path class="cls-6" d="M359.06,216.88h202.61"/>
      </g>
      <path d="M246.65,432.67v-.35c1.34,0,1.92-.2,1.92-.9v-7.07c0-.5-.29-.7-.9-.7h-1.22v-.28c1.36-.14,2.16-.5,3-1.02v9.08c0,.7.64.9,2,.9v.35h-4.8Z"/>
      <path d="M159.91,427.64c0,2.73-.99,5.22-3.49,5.22s-3.47-2.49-3.47-5.22.98-5.28,3.47-5.28,3.49,2.51,3.49,5.28ZM153.84,427.64c0,2.55.74,4.85,2.58,4.85s2.6-2.3,2.6-4.85-.76-4.9-2.6-4.9-2.58,2.31-2.58,4.9Z"/>
      <g>
        <path d="M57.22,427.35h8.17v.71h-8.17v-.71Z"/>
        <path d="M69.16,432.87v-.35c1.34,0,1.92-.2,1.92-.9v-7.07c0-.5-.29-.7-.9-.7h-1.22v-.28c1.36-.14,2.16-.5,3-1.02v9.08c0,.7.64.9,2,.9v.35h-4.8Z"/>
      </g>
      <path d="M40.8,228.87v-.35c1.34,0,1.92-.2,1.92-.9v-7.07c0-.5-.29-.7-.9-.7h-1.22v-.28c1.36-.14,2.16-.5,3-1.02v9.08c0,.7.64.9,2,.9v.35h-4.8Z"/>
      <path d="M45.86,311.94c0,2.73-.99,5.22-3.49,5.22s-3.47-2.49-3.47-5.22.98-5.28,3.47-5.28,3.49,2.51,3.49,5.28ZM39.8,311.94c0,2.55.74,4.85,2.58,4.85s2.6-2.3,2.6-4.85-.76-4.9-2.6-4.9-2.58,2.31-2.58,4.9Z"/>
      <g>
        <path d="M30.26,408.77h8.17v.71h-8.17v-.71Z"/>
        <path d="M42.2,414.29v-.35c1.34,0,1.92-.2,1.92-.9v-7.07c0-.5-.29-.7-.9-.7h-1.22v-.28c1.36-.14,2.16-.5,3-1.02v9.08c0,.7.64.9,2,.9v.35h-4.8Z"/>
      </g>
      <path d="M370.49,431.17c0,2.73-1,5.22-3.49,5.22s-3.47-2.49-3.47-5.22.98-5.28,3.47-5.28,3.49,2.51,3.49,5.28ZM364.43,431.17c0,2.55.74,4.85,2.58,4.85s2.61-2.3,2.61-4.85-.76-4.9-2.61-4.9-2.58,2.31-2.58,4.9Z"/>
      <path d="M351.6,405.79c0,2.73-1,5.22-3.49,5.22s-3.47-2.49-3.47-5.22.98-5.28,3.47-5.28,3.49,2.51,3.49,5.28ZM345.54,405.79c0,2.55.74,4.85,2.58,4.85s2.61-2.3,2.61-4.85-.76-4.9-2.61-4.9-2.58,2.31-2.58,4.9Z"/>
      <path d="M550.99,436.39v-.35c1.34,0,1.92-.2,1.92-.9v-7.07c0-.5-.29-.7-.9-.7h-1.22v-.28c1.36-.14,2.16-.5,3-1.02v9.08c0,.7.64.9,2,.9v.35h-4.8Z"/>
      <path d="M346.66,227.26v-.35c1.34,0,1.92-.2,1.92-.9v-7.07c0-.5-.29-.7-.9-.7h-1.22v-.28c1.36-.14,2.16-.5,3-1.02v9.08c0,.7.64.9,2,.9v.35h-4.8Z"/>
      <g>
        <path d="M341.41,316.89c0,2.73-1,5.22-3.49,5.22s-3.47-2.49-3.47-5.22.98-5.28,3.47-5.28,3.49,2.51,3.49,5.28ZM335.34,316.89c0,2.55.74,4.85,2.58,4.85s2.61-2.3,2.61-4.85-.76-4.9-2.61-4.9-2.58,2.31-2.58,4.9Z"/>
        <path d="M345.1,321.3c0,.42-.24.81-.77.81s-.77-.39-.77-.81.24-.78.77-.78.77.38.77.78Z"/>
        <path d="M353.19,312.61h-4.66l-.22,3.88c.6-.64,1.33-.94,2.39-.94,2.17,0,3.15,1.6,3.15,3.24,0,1.53-.98,3.33-3.15,3.33-2.02,0-3.15-1.12-3.15-2.34,0-.43.29-.63.6-.63.34,0,.64.21.64.6,0,.25-.04.53-.04.8,0,.6.24,1.16,1.79,1.16,1.67,0,2.4-1.61,2.4-2.94,0-1.46-.73-2.87-2.4-2.87-1.12,0-1.95.7-2.35,1.27l-.29-.13.32-5.21h5.18l-.21.77Z"/>
      </g>
      <g>
        <path d="M465.28,431.36c0,2.73-1,5.22-3.49,5.22s-3.47-2.49-3.47-5.22.98-5.28,3.47-5.28,3.49,2.51,3.49,5.28ZM459.22,431.36c0,2.55.74,4.85,2.58,4.85s2.61-2.3,2.61-4.85-.76-4.9-2.61-4.9-2.58,2.31-2.58,4.9Z"/>
        <path d="M468.98,435.77c0,.42-.24.81-.77.81s-.77-.39-.77-.81.24-.78.77-.78.77.38.77.78Z"/>
        <path d="M477.07,427.09h-4.66l-.22,3.88c.6-.64,1.33-.94,2.39-.94,2.17,0,3.15,1.6,3.15,3.24,0,1.53-.98,3.33-3.15,3.33-2.02,0-3.15-1.12-3.15-2.34,0-.43.29-.63.6-.63.34,0,.64.21.64.6,0,.25-.04.53-.04.8,0,.6.24,1.16,1.79,1.16,1.67,0,2.4-1.61,2.4-2.94,0-1.46-.73-2.87-2.4-2.87-1.12,0-1.95.7-2.35,1.27l-.29-.13.32-5.21h5.18l-.21.77Z"/>
      </g>
      <line class="cls-4" x1="359.06" y1="265.84" x2="529.48" y2="418.94"/>
      <g>
        <line class="cls-3" x1="219.57" y1="179.88" x2="404.73" y2="179.88"/>
        <path d="M397.89,184.68c-.15-.23-.08-.54.15-.69l6.45-4.11-6.45-4.11c-.23-.15-.3-.46-.15-.69s.46-.3.69-.15l7.11,4.53c.14.09.23.25.23.42s-.09.33-.23.42l-7.11,4.53c-.08.05-.18.08-.27.08-.17,0-.33-.08-.42-.23Z"/>
      </g>
      <path d="M121.88,179.85c0-.91.09-1.77.27-2.59s.41-1.59.69-2.3c.28-.71.59-1.36.93-1.95.34-.59.67-1.1,1.01-1.54s.64-.81.94-1.1c.29-.29.52-.49.68-.6.09-.07.18-.06.24.01.07.07.05.16-.04.25-.46.52-.9,1.1-1.32,1.76-.42.66-.79,1.39-1.11,2.19s-.58,1.68-.77,2.65c-.2.97-.3,2.03-.32,3.18-.01,1.06.06,2.03.21,2.92.16.89.36,1.69.6,2.4.24.71.51,1.34.8,1.89.29.55.57,1.01.82,1.39.26.38.48.67.67.88.19.21.31.34.35.38.11.11.13.21.07.29-.06.09-.14.1-.23.03-.33-.2-.74-.59-1.25-1.15-.51-.56-1.01-1.28-1.5-2.16-.49-.87-.91-1.89-1.25-3.04-.35-1.15-.51-2.42-.5-3.8Z"/>
      <path d="M138.67,180.07c-.05.28-.16.48-.33.58-.16.1-.34.15-.53.15s-.34-.05-.46-.15c-.12-.1-.19-.23-.21-.4-.03-.14-.01-.27.04-.41.05-.14.16-.23.31-.28.07-.12.07-.25.02-.39-.05-.14-.23-.2-.53-.2-.15,0-.33.07-.55.21-.22.14-.45.36-.69.66-.24.3-.49.67-.73,1.12s-.47.98-.67,1.59c-.2.61-.36,1.17-.48,1.68s-.17.95-.15,1.31c.01.37.1.65.25.86s.4.31.72.31c.3,0,.58-.07.85-.21.27-.14.52-.32.75-.53.23-.21.43-.43.6-.65s.31-.42.42-.58l.45.37c-.11.2-.27.44-.48.72-.21.28-.45.55-.73.81-.28.26-.57.48-.88.66-.31.18-.61.27-.91.27-.61,0-1.09-.18-1.43-.53-.35-.35-.52-.83-.52-1.42-.11.22-.27.44-.48.67-.21.23-.45.44-.72.63-.27.19-.57.34-.89.46-.32.12-.64.17-.97.17-.26,0-.48-.04-.68-.13-.2-.09-.37-.2-.51-.34-.14-.14-.25-.29-.33-.47-.07-.18-.11-.35-.11-.53,0-.77.28-1.16.83-1.16.27,0,.48.07.63.22.15.15.22.31.22.49,0,.19-.04.36-.12.52-.08.16-.2.25-.37.27-.04.2.04.33.23.39s.43.04.71-.04c.28-.08.56-.23.85-.44.29-.21.53-.48.7-.8.18-.33.36-.75.54-1.26s.35-1.03.5-1.56c.15-.52.28-1,.39-1.42.11-.43.18-.72.2-.88.01-.16,0-.33-.07-.5-.06-.17-.15-.33-.25-.47-.11-.14-.24-.26-.39-.36-.15-.09-.3-.14-.45-.14-.22,0-.43.06-.64.18-.21.12-.41.27-.59.44-.18.17-.35.34-.5.52-.15.18-.27.31-.37.41l-.35-.43c.15-.14.31-.31.49-.52.18-.21.37-.41.58-.61.21-.19.44-.36.68-.49s.52-.2.81-.2.54.07.77.21c.23.14.43.32.59.54.16.22.28.45.37.7s.12.48.1.7c.14-.15.3-.35.5-.59s.42-.48.67-.71c.25-.23.53-.43.82-.6.3-.17.62-.25.96-.25s.59.07.79.2c.2.13.36.29.47.48.11.19.18.39.2.6.03.21.03.39,0,.54Z"/>
      <path d="M146.31,192.13h-5.04v-.36c.52,0,.92-.03,1.18-.09.27-.06.46-.14.57-.23.12-.09.18-.19.19-.3,0-.11.01-.2.01-.29v-6.54c0-.12-.02-.22-.06-.3s-.13-.14-.26-.19c-.14-.05-.33-.08-.59-.09-.26-.01-.61-.02-1.05-.02v-.29c.38-.05.75-.12,1.11-.22.36-.1.68-.2.97-.3.33-.12.65-.26.94-.4v8.38c0,.07,0,.16.03.27s.09.2.22.29c.13.09.33.17.6.24s.67.1,1.19.1v.35Z"/>
      <path d="M152.09,186.36c-.1.35-.24.68-.43.98-.19.3-.39.56-.61.78-.22.22-.43.41-.64.55-.21.14-.38.23-.52.27-.04,0-.08-.03-.12-.08-.04-.05-.05-.09-.02-.12.12-.07.27-.18.44-.35.17-.16.33-.36.48-.58.15-.22.27-.47.36-.74.09-.27.11-.55.07-.83,0-.05-.06-.07-.17-.04-.12.03-.25.04-.41.03s-.32-.06-.5-.16c-.18-.1-.33-.31-.47-.62-.08-.18-.09-.37-.04-.59.05-.22.15-.41.29-.58s.33-.3.56-.39c.23-.09.48-.09.75,0,.47.15.79.47.95.97.16.49.17,1,.03,1.51Z"/>
      <path d="M166.79,180.07c-.05.28-.16.48-.33.58-.16.1-.34.15-.53.15s-.34-.05-.46-.15c-.12-.1-.19-.23-.21-.4-.03-.14-.01-.27.04-.41.05-.14.16-.23.31-.28.07-.12.07-.25.02-.39-.05-.14-.23-.2-.53-.2-.15,0-.33.07-.55.21-.22.14-.45.36-.69.66-.24.3-.49.67-.73,1.12s-.47.98-.67,1.59c-.2.61-.36,1.17-.48,1.68s-.17.95-.15,1.31c.01.37.1.65.25.86s.4.31.72.31c.3,0,.58-.07.85-.21.27-.14.52-.32.75-.53.23-.21.43-.43.6-.65s.31-.42.42-.58l.45.37c-.11.2-.27.44-.48.72-.21.28-.45.55-.73.81-.28.26-.57.48-.88.66-.31.18-.61.27-.91.27-.61,0-1.09-.18-1.43-.53-.35-.35-.52-.83-.52-1.42-.11.22-.27.44-.48.67-.21.23-.45.44-.72.63-.27.19-.57.34-.89.46-.32.12-.64.17-.97.17-.26,0-.48-.04-.68-.13-.2-.09-.37-.2-.51-.34-.14-.14-.25-.29-.33-.47-.07-.18-.11-.35-.11-.53,0-.77.28-1.16.83-1.16.27,0,.48.07.63.22.15.15.22.31.22.49,0,.19-.04.36-.12.52-.08.16-.2.25-.37.27-.04.2.04.33.23.39s.43.04.71-.04c.28-.08.56-.23.85-.44.29-.21.53-.48.7-.8.18-.33.36-.75.54-1.26s.35-1.03.5-1.56c.15-.52.28-1,.39-1.42.11-.43.18-.72.2-.88.01-.16,0-.33-.07-.5-.06-.17-.15-.33-.25-.47-.11-.14-.24-.26-.39-.36-.15-.09-.3-.14-.45-.14-.22,0-.43.06-.64.18-.21.12-.41.27-.59.44-.18.17-.35.34-.5.52-.15.18-.27.31-.37.41l-.35-.43c.15-.14.31-.31.49-.52.18-.21.37-.41.58-.61.21-.19.44-.36.68-.49s.52-.2.81-.2.54.07.77.21c.23.14.43.32.59.54.16.22.28.45.37.7s.12.48.1.7c.14-.15.3-.35.5-.59s.42-.48.67-.71c.25-.23.53-.43.82-.6.3-.17.62-.25.96-.25s.59.07.79.2c.2.13.36.29.47.48.11.19.18.39.2.6.03.21.03.39,0,.54Z"/>
      <path d="M174.59,189.63l-.62,2.5h-5.11c.06-.29.18-.6.36-.92.18-.33.39-.66.64-1,.25-.34.52-.68.81-1.03.29-.34.59-.68.88-1.02.23-.27.45-.53.66-.77.21-.25.38-.5.53-.75.15-.25.27-.51.35-.77s.13-.54.13-.85c0-.6-.15-1.08-.44-1.42-.3-.34-.72-.52-1.28-.52-.13,0-.29.02-.47.06s-.34.11-.51.2c-.16.09-.3.2-.4.33-.11.13-.16.28-.16.45,0,.11.02.2.05.26s.08.12.13.19c.05.06.09.14.13.22.04.08.05.19.05.34,0,.24-.08.42-.24.53s-.3.17-.44.17c-.25,0-.44-.09-.56-.27-.12-.18-.18-.39-.18-.64,0-.28.08-.55.24-.82.16-.27.36-.51.62-.72s.55-.38.88-.51c.33-.13.66-.2,1-.2.42,0,.81.06,1.15.19.35.13.64.3.89.51.25.21.44.47.57.75.13.29.2.6.2.92,0,.34-.06.66-.18.94-.12.28-.28.55-.47.8-.19.25-.41.48-.64.7-.23.22-.46.43-.67.64-.84.76-1.49,1.41-1.95,1.93-.46.53-.74.94-.83,1.24h2.66c.18,0,.35,0,.51-.03.16-.02.31-.08.47-.19s.31-.28.46-.52.31-.57.49-1.01l.3.1Z"/>
      <path d="M181.53,169.76c.16.11.39.31.68.6.29.29.6.66.94,1.1s.67.96,1.01,1.54c.34.59.65,1.24.93,1.95.28.71.51,1.48.69,2.3.18.82.28,1.68.28,2.59.01,1.38-.15,2.65-.5,3.8s-.76,2.17-1.25,3.04c-.49.87-.99,1.59-1.5,2.16s-.93.95-1.25,1.15c-.1.07-.17.06-.23-.03-.06-.09-.04-.19.07-.29.04-.04.16-.17.35-.38.19-.21.41-.5.67-.88.26-.38.53-.84.82-1.39.29-.55.56-1.18.8-1.89.24-.71.44-1.51.6-2.4.16-.89.23-1.86.21-2.92-.01-1.15-.12-2.21-.32-3.18-.2-.97-.46-1.85-.78-2.65-.33-.8-.7-1.53-1.12-2.19-.42-.66-.86-1.24-1.32-1.76-.08-.09-.09-.18-.03-.25.06-.07.15-.08.25-.01Z"/>
      <path d="M434.96,179.49c0-.91.09-1.77.27-2.59.18-.82.41-1.59.69-2.3.28-.71.59-1.36.92-1.95.34-.59.67-1.1,1.01-1.54.33-.44.64-.81.94-1.1.29-.29.52-.49.68-.6.09-.07.18-.06.24.01.07.07.05.16-.04.25-.46.52-.9,1.1-1.32,1.76-.42.66-.79,1.39-1.11,2.19-.32.8-.58,1.68-.77,2.65s-.3,2.03-.32,3.18c-.01,1.06.06,2.03.21,2.92.16.89.36,1.69.6,2.4.24.71.51,1.34.8,1.89.29.55.57,1.01.82,1.39.26.38.48.67.67.88.19.21.3.34.35.38.11.11.13.21.07.29-.06.09-.14.1-.23.03-.33-.2-.74-.59-1.25-1.15s-1.01-1.28-1.5-2.16c-.49-.87-.91-1.89-1.25-3.04-.35-1.15-.51-2.42-.5-3.8Z"/>
      <path d="M451.75,179.7c-.05.28-.16.48-.33.58-.16.1-.34.15-.53.15s-.34-.05-.46-.15c-.12-.1-.19-.23-.21-.4-.03-.14-.01-.27.04-.41.05-.14.16-.23.31-.28.07-.12.07-.25.02-.39-.05-.14-.23-.2-.53-.2-.15,0-.33.07-.55.21-.22.14-.45.36-.69.66-.24.3-.49.67-.73,1.12s-.47.98-.67,1.59c-.2.61-.36,1.17-.48,1.68s-.17.95-.15,1.31c.01.37.1.65.25.86s.4.31.72.31c.3,0,.58-.07.85-.21.27-.14.52-.32.75-.53.23-.21.43-.43.6-.65s.31-.42.42-.58l.45.37c-.11.2-.27.44-.48.72-.21.28-.46.55-.73.81-.28.26-.57.48-.88.66-.3.18-.61.27-.91.27-.61,0-1.09-.18-1.43-.53s-.52-.83-.52-1.42c-.11.22-.27.44-.48.67-.21.23-.45.44-.72.63-.27.19-.57.34-.88.46-.32.12-.64.17-.97.17-.26,0-.49-.04-.68-.13-.2-.09-.37-.2-.51-.34-.14-.14-.25-.29-.33-.47s-.11-.35-.11-.53c0-.77.28-1.16.83-1.16.27,0,.48.07.63.22.15.15.22.31.22.49,0,.19-.04.36-.12.52-.08.16-.2.25-.37.27-.04.2.04.33.23.39s.43.04.71-.04c.28-.08.56-.23.85-.44.29-.21.53-.48.7-.8.18-.33.36-.75.54-1.26.18-.52.35-1.03.5-1.56.15-.52.28-1,.39-1.42.11-.43.18-.72.2-.88.01-.16-.01-.33-.07-.5-.06-.17-.15-.33-.25-.47-.11-.14-.24-.26-.39-.36-.15-.09-.3-.14-.45-.14-.22,0-.43.06-.64.18s-.41.27-.59.44c-.18.17-.35.34-.5.52-.15.18-.27.31-.37.41l-.35-.43c.15-.14.31-.31.49-.52.18-.21.37-.41.58-.61.21-.19.44-.36.68-.49s.52-.2.81-.2.54.07.77.21c.23.14.43.32.59.54.16.22.29.45.37.7s.12.48.1.7c.14-.15.3-.35.5-.59.2-.24.42-.48.67-.71.25-.23.53-.43.82-.6.3-.17.62-.25.96-.25s.59.07.79.2c.2.13.36.29.47.48.11.19.18.39.2.6.03.21.03.39,0,.54Z"/>
      <path d="M459.4,191.76h-5.05v-.36c.52,0,.92-.03,1.18-.09.27-.06.46-.14.57-.23.12-.09.18-.19.19-.3,0-.11.01-.2.01-.29v-6.54c0-.12-.02-.22-.06-.3-.04-.08-.13-.14-.26-.19-.13-.05-.33-.08-.59-.09-.26-.01-.61-.02-1.05-.02v-.29c.38-.05.75-.12,1.11-.22s.68-.2.97-.3c.33-.12.65-.26.94-.4v8.38c0,.07,0,.16.03.27.02.1.09.2.22.29.13.09.33.17.6.24s.67.1,1.19.1v.35Z"/>
      <path d="M459.56,174.96l-.62,2.5h-5.11c.06-.29.18-.6.36-.92.18-.33.39-.66.64-1,.25-.34.52-.68.81-1.03.29-.34.59-.68.88-1.02.23-.27.45-.53.66-.77s.38-.5.53-.75c.15-.25.26-.51.35-.77.08-.26.13-.54.13-.85,0-.6-.15-1.08-.45-1.42-.3-.34-.72-.52-1.28-.52-.13,0-.29.02-.46.06-.18.04-.34.11-.51.2-.16.09-.3.2-.41.33-.11.13-.16.28-.16.45,0,.11.02.2.05.26.04.06.08.12.13.19.05.06.09.14.13.22s.05.19.05.34c0,.24-.08.42-.24.53-.16.11-.3.17-.44.17-.25,0-.44-.09-.56-.27-.12-.18-.18-.39-.18-.64,0-.28.08-.55.24-.82.16-.27.36-.51.62-.72s.55-.38.88-.51.66-.2,1-.2c.42,0,.81.06,1.15.19.35.13.64.3.89.51.25.21.44.47.57.75.13.29.2.6.2.92,0,.34-.06.66-.18.94-.12.28-.28.55-.47.8-.19.25-.41.48-.64.7-.23.22-.46.43-.67.64-.84.76-1.49,1.41-1.95,1.93-.46.53-.74.94-.83,1.24h2.66c.18,0,.35,0,.51-.03.16-.02.31-.08.47-.19.15-.11.31-.28.46-.52.15-.24.31-.57.49-1.01l.3.1Z"/>
      <path d="M466.92,185.99c-.1.35-.24.68-.43.98-.19.3-.39.56-.61.78s-.43.41-.64.55c-.21.14-.38.23-.52.27-.04,0-.08-.03-.12-.08-.04-.05-.05-.09-.02-.12.12-.07.27-.18.44-.35.17-.16.33-.36.48-.58.15-.22.27-.47.36-.74.09-.27.11-.55.07-.83,0-.05-.06-.07-.17-.04-.12.03-.25.04-.41.03s-.32-.06-.5-.16c-.18-.1-.33-.31-.47-.62-.08-.18-.1-.37-.04-.59.05-.22.15-.41.29-.58s.33-.3.56-.39c.23-.09.48-.09.75,0,.47.15.79.47.95.97.16.49.17,1,.03,1.51Z"/>
      <path d="M481.62,179.7c-.05.28-.16.48-.33.58-.16.1-.34.15-.53.15s-.34-.05-.46-.15c-.12-.1-.19-.23-.21-.4-.03-.14-.01-.27.04-.41.05-.14.16-.23.31-.28.07-.12.07-.25.02-.39-.05-.14-.23-.2-.53-.2-.15,0-.33.07-.55.21-.22.14-.45.36-.69.66-.24.3-.49.67-.73,1.12s-.47.98-.67,1.59c-.2.61-.36,1.17-.48,1.68s-.17.95-.15,1.31c.01.37.1.65.25.86s.4.31.72.31c.3,0,.58-.07.85-.21.27-.14.52-.32.75-.53.23-.21.43-.43.6-.65s.31-.42.42-.58l.45.37c-.11.2-.27.44-.48.72-.21.28-.46.55-.73.81-.28.26-.57.48-.88.66-.3.18-.61.27-.91.27-.61,0-1.09-.18-1.43-.53s-.52-.83-.52-1.42c-.11.22-.27.44-.48.67-.21.23-.45.44-.72.63-.27.19-.57.34-.88.46-.32.12-.64.17-.97.17-.26,0-.49-.04-.68-.13-.2-.09-.37-.2-.51-.34-.14-.14-.25-.29-.33-.47s-.11-.35-.11-.53c0-.77.28-1.16.83-1.16.27,0,.48.07.63.22.15.15.22.31.22.49,0,.19-.04.36-.12.52-.08.16-.2.25-.37.27-.04.2.04.33.23.39s.43.04.71-.04c.28-.08.56-.23.85-.44.29-.21.53-.48.7-.8.18-.33.36-.75.54-1.26.18-.52.35-1.03.5-1.56.15-.52.28-1,.39-1.42.11-.43.18-.72.2-.88.01-.16-.01-.33-.07-.5-.06-.17-.15-.33-.25-.47-.11-.14-.24-.26-.39-.36-.15-.09-.3-.14-.45-.14-.22,0-.43.06-.64.18s-.41.27-.59.44c-.18.17-.35.34-.5.52-.15.18-.27.31-.37.41l-.35-.43c.15-.14.31-.31.49-.52.18-.21.37-.41.58-.61.21-.19.44-.36.68-.49s.52-.2.81-.2.54.07.77.21c.23.14.43.32.59.54.16.22.29.45.37.7s.12.48.1.7c.14-.15.3-.35.5-.59.2-.24.42-.48.67-.71.25-.23.53-.43.82-.6.3-.17.62-.25.96-.25s.59.07.79.2c.2.13.36.29.47.48.11.19.18.39.2.6.03.21.03.39,0,.54Z"/>
      <path d="M489.42,189.26l-.62,2.5h-5.11c.06-.29.18-.6.36-.92.18-.33.39-.66.64-1,.25-.34.52-.68.81-1.03.29-.34.59-.68.88-1.02.23-.27.45-.53.66-.77s.38-.5.53-.75c.15-.25.26-.51.35-.77.08-.26.13-.54.13-.85,0-.6-.15-1.08-.45-1.42-.3-.34-.72-.52-1.28-.52-.13,0-.29.02-.46.06-.18.04-.34.11-.51.2-.16.09-.3.2-.41.33-.11.13-.16.28-.16.45,0,.11.02.2.05.26.04.06.08.12.13.19.05.06.09.14.13.22s.05.19.05.34c0,.24-.08.42-.24.53-.16.11-.3.17-.44.17-.25,0-.44-.09-.56-.27-.12-.18-.18-.39-.18-.64,0-.28.08-.55.24-.82.16-.27.36-.51.62-.72s.55-.38.88-.51.66-.2,1-.2c.42,0,.81.06,1.15.19.35.13.64.3.89.51.25.21.44.47.57.75.13.29.2.6.2.92,0,.34-.06.66-.18.94-.12.28-.28.55-.47.8-.19.25-.41.48-.64.7-.23.22-.46.43-.67.64-.84.76-1.49,1.41-1.95,1.93-.46.53-.74.94-.83,1.24h2.66c.18,0,.35,0,.51-.03.16-.02.31-.08.47-.19.15-.11.31-.28.46-.52.15-.24.31-.57.49-1.01l.3.1Z"/>
      <path d="M489.42,174.96l-.62,2.5h-5.11c.06-.29.18-.6.36-.92.18-.33.39-.66.64-1,.25-.34.52-.68.81-1.03.29-.34.59-.68.88-1.02.23-.27.45-.53.66-.77s.38-.5.53-.75c.15-.25.26-.51.35-.77.08-.26.13-.54.13-.85,0-.6-.15-1.08-.45-1.42-.3-.34-.72-.52-1.28-.52-.13,0-.29.02-.46.06-.18.04-.34.11-.51.2-.16.09-.3.2-.41.33-.11.13-.16.28-.16.45,0,.11.02.2.05.26.04.06.08.12.13.19.05.06.09.14.13.22s.05.19.05.34c0,.24-.08.42-.24.53-.16.11-.3.17-.44.17-.25,0-.44-.09-.56-.27-.12-.18-.18-.39-.18-.64,0-.28.08-.55.24-.82.16-.27.36-.51.62-.72s.55-.38.88-.51.66-.2,1-.2c.42,0,.81.06,1.15.19.35.13.64.3.89.51.25.21.44.47.57.75.13.29.2.6.2.92,0,.34-.06.66-.18.94-.12.28-.28.55-.47.8-.19.25-.41.48-.64.7-.23.22-.46.43-.67.64-.84.76-1.49,1.41-1.95,1.93-.46.53-.74.94-.83,1.24h2.66c.18,0,.35,0,.51-.03.16-.02.31-.08.47-.19.15-.11.31-.28.46-.52.15-.24.31-.57.49-1.01l.3.1Z"/>
      <path d="M496.37,169.4c.16.11.39.31.68.6.29.29.6.66.94,1.1s.67.96,1.01,1.54c.34.59.65,1.24.93,1.95.28.71.51,1.48.69,2.3.18.82.28,1.68.28,2.59.01,1.38-.15,2.65-.5,3.8s-.76,2.17-1.25,3.04c-.49.87-.99,1.59-1.5,2.16s-.93.95-1.25,1.15c-.1.07-.17.06-.23-.03-.06-.09-.04-.19.07-.29.04-.04.16-.17.35-.38.19-.21.41-.5.67-.88.26-.38.53-.84.82-1.39.29-.55.56-1.18.8-1.89.24-.71.44-1.51.6-2.4.16-.89.23-1.86.21-2.92-.01-1.15-.12-2.21-.32-3.18-.2-.97-.46-1.85-.78-2.65-.33-.8-.7-1.53-1.12-2.19-.42-.66-.86-1.24-1.32-1.76-.08-.09-.09-.18-.03-.25.06-.07.15-.08.25-.01Z"/>
      <path d="M323.55,158.12c-.16.56-.48,1.12-.94,1.68s-1,1.08-1.63,1.55c-.62.47-1.29.86-1.98,1.17-.7.31-1.37.5-2,.57.03.16.13.29.3.37.18.08.46.12.85.12.19,0,.33.04.41.11.08.07.12.15.1.24s-.06.16-.14.24c-.08.07-.19.11-.33.11h-4.8c-.15,0-.26-.04-.33-.11-.07-.07-.1-.15-.09-.24s.05-.16.13-.24c.08-.07.2-.11.35-.11.2.03.4.01.59-.04.16-.04.34-.11.52-.21.18-.1.34-.26.46-.48-.57-.16-1.1-.4-1.58-.7-.48-.31-.88-.68-1.2-1.13s-.54-.98-.65-1.59c-.12-.61-.09-1.31.07-2.1.18-.85.48-1.64.91-2.36.43-.72.94-1.34,1.55-1.87.6-.53,1.27-.96,2.01-1.28.74-.33,1.5-.52,2.27-.59-.03-.16-.13-.28-.29-.37-.17-.08-.45-.12-.84-.12-.19,0-.33-.04-.41-.11-.08-.08-.12-.16-.11-.26,0-.1.05-.18.13-.26.08-.08.2-.11.35-.11h4.78c.15,0,.26.04.33.11.07.08.1.16.09.26,0,.1-.05.18-.12.26-.08.08-.19.11-.34.11-.2-.01-.4,0-.59.04-.16.03-.33.09-.51.18-.18.1-.33.24-.45.45.75.16,1.37.46,1.88.88.51.42.89.93,1.16,1.53s.41,1.27.43,2.01c.02.74-.09,1.51-.34,2.31ZM318.26,152.07c-.54.08-1.04.26-1.5.54-.46.28-.87.62-1.25,1.02-.38.4-.72.85-1.01,1.34-.29.5-.54,1.01-.74,1.56-.16.43-.29.94-.39,1.5s-.1,1.13-.02,1.68c.08.55.27,1.05.56,1.5.29.45.74.78,1.35.99l2.99-10.13ZM321.78,157.5c.12-.5.2-1.03.23-1.59.03-.56,0-1.08-.11-1.59-.11-.5-.3-.94-.59-1.32s-.68-.65-1.2-.81l-3.01,10.19c.65-.11,1.24-.36,1.78-.76.54-.4,1-.85,1.4-1.35s.73-1.01.99-1.51.43-.93.51-1.25Z"/>
    </g>
  </g>
</svg>