<?xml version="1.0" encoding="UTF-8"?>
<svg xmlns="http://www.w3.org/2000/svg" version="1.1" viewBox="0 0 600 600">
  <defs>
    <style>
      .cls-1 {
        stroke: #000;
        stroke-width: 2px;
      }

      .cls-1, .cls-2, .cls-3 {
        fill: none;
      }

      .cls-4 {
        fill: #00c916;
      }

      .cls-5 {
        fill: #d233d2;
      }

      .cls-2 {
        stroke: #00c916;
      }

      .cls-3 {
        stroke: #d233d2;
      }
    </style>
  </defs>
  <!-- Generator: Adobe Illustrator 28.7.1, SVG Export Plug-In . SVG Version: 1.2.0 Build 142)  -->
  <g>
    <g id="_레이어_2" data-name="레이어_2">
      <g>
        <path class="cls-4" d="M166.56,339.19l-2.22,2.88h-9.61l.17-.52c.66,0,1.15-.07,1.47-.2.32-.13.56-.42.71-.86l3.06-9.19c.19-.58-.34-.87-1.62-.87l.18-.53h9.56l.17,2.91-.48.24c-.22-.57-.43-1.03-.65-1.37s-.46-.61-.73-.79c-.28-.18-.59-.29-.95-.35s-.78-.09-1.28-.09c-.47,0-.85.02-1.16.04s-.57.09-.78.16c-.21.08-.37.2-.5.35-.13.16-.23.36-.31.6l-1.33,3.98h1.46c.18,0,.41-.03.69-.08s.56-.16.86-.31c.29-.16.58-.37.85-.65s.5-.64.68-1.08h.47l-1.55,4.66h-.48c.17-.52.21-.92.1-1.2-.1-.28-.28-.47-.5-.59s-.47-.19-.73-.21c-.25-.02-.44-.03-.55-.03h-1.46l-1.43,4.29c-.1.33-.15.57-.1.73.03.16.14.28.3.33.16.06.39.09.67.09h.98c1.06,0,2.05-.21,2.97-.62.92-.41,1.82-1.07,2.71-1.96l.36.21h0Z"/>
        <path class="cls-4" d="M169.05,344.59c-.09.15-.22.31-.35.51s-.3.38-.47.54c-.17.17-.34.32-.53.44s-.34.18-.5.18c-.1,0-.21-.03-.28-.09-.09-.06-.16-.15-.2-.26-.05-.1-.08-.22-.09-.36,0-.14.02-.27.07-.41l1.23-3.25c.09-.22.13-.37.13-.47s-.02-.17-.05-.2c-.03-.03-.09-.03-.16-.02-.07.02-.13.04-.18.08-.1.05-.22.14-.32.24s-.21.22-.31.34-.19.23-.26.34c-.07.1-.12.18-.16.23l-.16-.16c.08-.15.19-.3.33-.48s.29-.34.46-.51c.16-.16.33-.29.49-.41.17-.11.33-.16.47-.16.09,0,.18.02.27.06.09.04.16.1.22.19s.09.21.09.35-.03.34-.12.56l-1.28,3.3s-.02.06-.03.12,0,.11,0,.17.03.11.06.16c.03.05.09.07.16.07.1,0,.22-.05.35-.16s.27-.24.4-.39c.13-.15.25-.29.35-.43.1-.15.18-.25.22-.32l.17.21h-.03ZM169.62,338.26c0,.05-.02.1-.04.17-.03.07-.07.14-.13.21-.06.07-.13.12-.22.17-.09.04-.19.07-.32.07-.05,0-.11,0-.18-.03s-.12-.06-.18-.1c-.05-.04-.1-.09-.14-.16-.03-.06-.06-.13-.06-.21,0-.17.06-.34.18-.48.12-.15.28-.22.46-.22s.32.06.44.18c.11.12.17.26.17.4h.02Z"/>
        <path class="cls-4" d="M176.46,344.55c-.29.52-.59.93-.9,1.24-.31.31-.61.47-.92.47-.22,0-.37-.06-.46-.18-.08-.12-.12-.27-.12-.43s.03-.32.07-.47.08-.27.1-.33l1.1-2.94s.02-.09.03-.16,0-.16,0-.24-.03-.16-.08-.22-.11-.09-.22-.09c-.11,0-.23.04-.35.12-.12.08-.28.26-.49.53-.21.28-.49.68-.84,1.22-.35.54-.82,1.27-1.4,2.18l-.44.9h-.82l1.35-3.66c.03-.06.05-.16.09-.3s.07-.28.09-.42c.02-.15.02-.27,0-.37s-.08-.16-.18-.16c-.04,0-.12.03-.22.1s-.22.17-.34.3-.26.28-.41.47c-.15.18-.28.37-.42.58l-.22-.13c.09-.14.2-.3.35-.51.15-.21.31-.41.49-.6.17-.2.35-.36.54-.5.18-.14.35-.21.51-.21.18,0,.3.05.39.15.08.1.13.22.15.38s0,.33-.03.53c-.03.2-.09.39-.15.59-.07.24-.15.49-.23.75-.08.23-.16.49-.26.79s-.2.6-.32.92c.39-.62.73-1.16,1.02-1.6.28-.45.54-.82.76-1.12.22-.3.41-.54.56-.72s.29-.32.42-.41.24-.16.34-.19.22-.05.34-.05c.19,0,.34.05.45.15.1.1.18.22.22.35s.05.28.04.43c0,.16-.03.28-.06.38l-1.15,3.07s-.02.05-.03.12c-.02.06-.03.13-.03.2s0,.13.04.18.08.09.16.09c.13,0,.26-.05.4-.16s.26-.24.37-.39c.11-.15.22-.29.31-.43.09-.15.16-.25.21-.32l.17.16v-.02Z"/>
        <path class="cls-5" d="M163.77,201.85l-2.17,2.81h-9.38l.17-.5c.64,0,1.12-.07,1.43-.2s.55-.41.68-.84l2.99-8.97c.19-.56-.34-.85-1.58-.85l.17-.52h9.33l.17,2.84-.47.24c-.21-.56-.42-1-.63-1.34-.2-.34-.44-.6-.72-.77-.27-.17-.58-.29-.92-.35-.35-.06-.77-.09-1.25-.09-.45,0-.83.02-1.13.04s-.56.09-.75.16c-.2.08-.37.2-.49.35-.13.15-.23.35-.31.59l-1.3,3.89h1.43c.18,0,.41-.03.67-.08.27-.05.55-.15.84-.31.29-.15.56-.37.83-.63.26-.27.49-.62.67-1.05h.46l-1.52,4.55h-.48c.17-.5.2-.9.1-1.17-.1-.27-.26-.46-.49-.58s-.46-.19-.71-.2-.43-.03-.54-.03h-1.43l-1.4,4.19c-.1.32-.14.56-.1.71.03.16.14.26.3.32s.38.09.66.09h.96c1.04,0,2.01-.2,2.9-.61.9-.41,1.78-1.04,2.64-1.91l.36.2h0Z"/>
        <path class="cls-5" d="M167.99,205.02c0,.52-.09,1.01-.27,1.46s-.42.85-.69,1.19-.59.61-.92.79c-.33.2-.67.29-.97.29-.22,0-.43-.04-.61-.14s-.33-.21-.46-.37-.22-.32-.29-.53c-.07-.2-.1-.42-.1-.64s.03-.49.1-.77.17-.56.29-.84.27-.55.45-.81.37-.5.58-.7.44-.36.67-.48.48-.18.73-.18c.17,0,.35.03.53.12.18.08.34.19.49.33s.26.32.35.54.14.45.14.73h0ZM167.32,204.66c0-.1-.02-.21-.04-.33-.03-.13-.07-.24-.14-.35-.06-.11-.15-.2-.26-.28s-.25-.12-.42-.12c-.22,0-.44.07-.62.21s-.37.32-.52.56c-.15.22-.3.48-.42.76s-.23.56-.31.84c-.09.27-.15.53-.19.78s-.07.44-.07.58c0,.11,0,.23.03.37.02.14.05.26.11.39.06.12.15.23.26.32s.27.13.48.13c.24,0,.45-.08.65-.22.2-.15.37-.34.53-.57s.29-.5.41-.79c.12-.29.21-.57.29-.86.08-.28.14-.55.17-.79.03-.25.06-.44.06-.59h0Z"/>
        <path class="cls-5" d="M174.37,203.34c-.26.6-.5,1.17-.71,1.72-.09.23-.18.48-.27.73s-.18.5-.26.73-.15.46-.2.67-.1.39-.13.55c-.02.06-.02.14-.02.22s.02.15.05.21c.03.05.08.09.14.1.06,0,.15-.03.25-.1.1-.09.24-.22.39-.41.15-.2.35-.47.57-.83l.18.1c-.26.44-.49.79-.7,1.03s-.4.43-.57.53-.32.15-.44.14c-.13,0-.23-.05-.32-.13-.09-.08-.15-.16-.18-.27-.03-.11-.05-.21-.04-.3.02-.19.07-.44.15-.73.09-.31.18-.62.29-.95s.21-.64.32-.94.19-.53.25-.7c-.42.75-.8,1.38-1.15,1.9-.35.51-.67.93-.95,1.26-.28.32-.52.56-.73.69s-.38.2-.51.2c-.09,0-.19-.02-.3-.06s-.2-.11-.27-.21-.12-.25-.12-.43.04-.41.15-.69l1.17-2.93c.08-.2.1-.35.08-.46s-.1-.15-.22-.13-.28.15-.48.34c-.2.2-.43.51-.69.94l-.19-.14c.08-.12.18-.27.3-.46.13-.19.27-.38.44-.56s.33-.34.5-.47c.18-.13.35-.2.52-.2.09,0,.19.03.27.09s.15.15.19.27.06.26.05.43c0,.17-.05.36-.14.56l-1.06,2.6c-.09.2-.13.38-.13.53s.02.26.07.35.12.12.21.12.2-.05.3-.15c.2-.2.39-.41.58-.64.2-.24.38-.49.56-.75.18-.26.36-.53.53-.79.17-.26.33-.52.49-.77.35-.59.68-1.2,1-1.81h.79,0Z"/>
        <path class="cls-5" d="M178.57,203.44l-.09.38h-1.2l-1.2,4.06c-.03.09,0,.18.03.26s.13.11.25.09.27-.13.47-.32c.2-.18.44-.5.72-.93l.2.12c-.09.14-.2.31-.33.5-.15.2-.3.38-.47.55s-.34.32-.51.44c-.18.12-.34.18-.5.18-.27,0-.45-.1-.53-.32-.08-.21-.06-.5.04-.85l1.18-3.77h-.99l.1-.38h.97l.64-2.15h.71l-.67,2.15h1.18Z"/>
        <polyline class="cls-1" points="50.13 188.29 50.13 352.27 259.19 352.27"/>
        <polyline class="cls-2" points="257.4 286.96 257.4 248.09 254.06 248.09 254.06 300.82 248.84 300.82 248.84 324.39 214.45 324.39 214.45 275.63 214.45 307.82 204.02 307.82 204.02 283.76 196.7 283.76 196.7 255.46 196.7 319.68 192.73 319.68 192.73 248.6 191.25 248.6 191.25 322.42 138.84 322.42 138.84 248.09 137.68 248.09 137.68 227.22 136.19 227.22 136.19 335.08 69.42 335.08 69.42 255.79 66.73 255.79 66.73 247.06 65.36 247.06 65.36 293.34 52.1 293.34 52.1 243.72"/>
        <polyline class="cls-3" points="257.57 256.73 257.57 243.21 253.46 243.21 253.46 211.13 253.46 259.12 248.67 259.12 248.67 276.06 214.11 276.06 214.11 204.21 214.11 293 203.89 293 203.89 255.85 196.06 255.85 196.06 204.21 196.06 272.55 192.68 272.55 192.68 247.4 191.35 247.4 191.35 205.06 191.35 272.64 138.97 272.64 138.97 247.32 137.68 247.32 137.68 204.21 136.27 204.21 136.27 292.67 69.04 292.67 69.04 247.38 66.21 247.38 66.21 204.21 66.21 258.61 52.48 258.61 52.48 198.75 50.56 198.75"/>
        <g>
          <path d="M29.1,200.29c-.62,0-1.12-.14-1.52-.42-.4-.28-.64-.67-.72-1.18.04-.11.11-.2.2-.26s.19-.09.3-.09c.16,0,.28.04.36.13s.15.24.19.46l.28,1.02-.37-.3c.18.1.35.17.52.22s.37.07.61.07c.59,0,1.05-.17,1.38-.52s.5-.84.5-1.47-.16-1.14-.48-1.45c-.32-.31-.74-.46-1.28-.46-.47,0-.9.08-1.28.24l-.28-.12.25-3.62h3.95v.86h-3.77l.23-.58-.23,3.25-.35-.11c.29-.15.58-.25.86-.31.28-.06.57-.09.89-.09.8,0,1.43.2,1.91.59.47.39.71.96.71,1.71,0,.5-.12.93-.36,1.29-.24.37-.57.65-.99.85-.42.2-.92.3-1.5.3Z"/>
          <path d="M35.47,200.29c-.44,0-.85-.13-1.23-.4-.38-.27-.69-.69-.92-1.28-.23-.58-.35-1.34-.35-2.26s.12-1.7.35-2.29c.23-.58.54-1.01.92-1.29.38-.27.79-.41,1.23-.41s.84.14,1.22.41c.38.27.69.7.93,1.29.24.59.36,1.35.36,2.29s-.12,1.68-.36,2.26c-.24.58-.55,1.01-.93,1.28-.38.27-.79.4-1.22.4ZM35.47,199.94c.19,0,.37-.06.54-.18.17-.12.33-.31.46-.59.14-.27.25-.64.33-1.1.09-.46.13-1.04.13-1.73s-.04-1.28-.13-1.75c-.09-.47-.2-.84-.33-1.11-.14-.27-.29-.47-.46-.59-.17-.12-.35-.18-.54-.18s-.37.06-.54.18c-.17.12-.33.32-.47.59-.14.28-.25.65-.33,1.12s-.12,1.05-.12,1.75.04,1.27.12,1.73.19.83.33,1.1c.14.27.3.47.47.59.17.12.35.18.54.18Z"/>
          <path d="M40.59,196.98c-.28,0-.54-.08-.79-.25-.25-.17-.45-.43-.61-.79-.16-.36-.24-.82-.24-1.38s.08-1.04.24-1.4c.16-.36.36-.62.61-.79.25-.17.51-.25.79-.25s.55.08.8.25.45.43.6.79.23.83.23,1.4-.08,1.02-.23,1.38-.36.62-.6.79c-.25.17-.52.25-.8.25ZM40.59,196.7c.16,0,.3-.06.43-.18.13-.12.24-.34.32-.65.08-.31.12-.74.12-1.3s-.04-1.01-.12-1.32c-.08-.31-.19-.53-.32-.65-.13-.12-.27-.18-.43-.18-.14,0-.28.06-.41.18s-.24.34-.32.65c-.08.31-.12.75-.12,1.32s.04,1,.12,1.31c.08.31.18.53.32.65.13.12.27.18.41.18ZM40.92,200.44l-.3-.2,5.49-7.99.3.2-5.49,7.99ZM46.47,200.23c-.29,0-.56-.08-.81-.25s-.45-.43-.61-.79c-.15-.36-.23-.82-.23-1.39s.08-1.04.23-1.39.36-.62.61-.78.52-.25.81-.25.54.08.79.25.45.43.6.78.23.82.23,1.39-.08,1.03-.23,1.39c-.15.36-.35.62-.6.79s-.51.25-.79.25ZM46.47,199.95c.14,0,.28-.06.41-.18s.24-.34.32-.65c.08-.31.12-.75.12-1.31s-.04-.99-.12-1.3c-.08-.31-.19-.53-.32-.65s-.27-.19-.41-.19c-.15,0-.29.06-.43.18s-.24.34-.32.65c-.08.31-.12.75-.12,1.31s.04,1,.12,1.31.19.52.32.65.27.18.43.18Z"/>
        </g>
        <g>
          <path d="M27.77,247.44v-.3l1.78-.17h.93l1.67.17v.3h-4.37ZM29.44,247.44c.02-.83.03-1.66.03-2.49v-4.5l-1.52.23v-.34l2.46-.6.16.12-.04,1.71v3.39c0,.4,0,.81.01,1.23s.01.84.02,1.25h-1.12Z"/>
          <path d="M35.92,247.61c-.44,0-.85-.13-1.23-.4-.38-.27-.69-.69-.92-1.28-.23-.58-.35-1.34-.35-2.26s.12-1.7.35-2.29c.23-.58.54-1.01.92-1.29.38-.27.79-.41,1.23-.41s.84.14,1.22.41c.38.27.69.7.93,1.29.24.59.36,1.35.36,2.29s-.12,1.68-.36,2.26c-.24.58-.55,1.01-.93,1.28-.38.27-.79.4-1.22.4ZM35.92,247.26c.19,0,.37-.06.54-.18.17-.12.33-.31.46-.59.14-.27.25-.64.33-1.1.09-.46.13-1.04.13-1.73s-.04-1.28-.13-1.75c-.09-.47-.2-.84-.33-1.11-.14-.27-.29-.47-.46-.59-.17-.12-.35-.18-.54-.18s-.37.06-.54.18c-.17.12-.33.32-.47.59-.14.28-.25.65-.33,1.12s-.12,1.05-.12,1.75.04,1.27.12,1.73.19.83.33,1.1c.14.27.3.47.47.59.17.12.35.18.54.18Z"/>
          <path d="M41.04,244.3c-.28,0-.54-.08-.79-.25-.25-.17-.45-.43-.61-.79-.16-.36-.24-.82-.24-1.38s.08-1.04.24-1.4c.16-.36.36-.62.61-.79.25-.17.51-.25.79-.25s.55.08.8.25.45.43.6.79.23.83.23,1.4-.08,1.02-.23,1.38-.36.62-.6.79c-.25.17-.52.25-.8.25ZM41.04,244.02c.16,0,.3-.06.43-.18.13-.12.24-.34.32-.65.08-.31.12-.74.12-1.3s-.04-1.01-.12-1.32c-.08-.31-.19-.53-.32-.65-.13-.12-.27-.18-.43-.18-.14,0-.28.06-.41.18s-.24.34-.32.65c-.08.31-.12.75-.12,1.32s.04,1,.12,1.31c.08.31.18.53.32.65.13.12.27.18.41.18ZM41.37,247.76l-.3-.2,5.49-7.99.3.2-5.49,7.99ZM46.92,247.55c-.29,0-.56-.08-.81-.25s-.45-.43-.61-.79c-.15-.36-.23-.82-.23-1.39s.08-1.04.23-1.39.36-.62.61-.78.52-.25.81-.25.54.08.79.25.45.43.6.78.23.82.23,1.39-.08,1.03-.23,1.39c-.15.36-.35.62-.6.79s-.51.25-.79.25ZM46.92,247.27c.14,0,.28-.06.41-.18s.24-.34.32-.65c.08-.31.12-.75.12-1.31s-.04-.99-.12-1.3c-.08-.31-.19-.53-.32-.65s-.27-.19-.41-.19c-.15,0-.29.06-.43.18s-.24.34-.32.65c-.08.31-.12.75-.12,1.31s.04,1,.12,1.31.19.52.32.65.27.18.43.18Z"/>
        </g>
        <g>
          <path d="M32.32,315.73v-.3l1.78-.17h.93l1.67.17v.3h-4.37ZM33.99,315.73c.02-.83.03-1.66.03-2.49v-4.5l-1.52.23v-.34l2.46-.6.16.12-.04,1.71v3.39c0,.4,0,.81.01,1.23s.01.84.02,1.25h-1.12Z"/>
          <path d="M39.55,312.59c-.28,0-.54-.08-.79-.25-.25-.17-.45-.43-.61-.79-.16-.36-.24-.82-.24-1.38s.08-1.04.24-1.4c.16-.36.36-.62.61-.79.25-.17.51-.25.79-.25s.55.08.8.25.45.43.6.79.23.83.23,1.4-.08,1.02-.23,1.38c-.15.36-.36.62-.6.79s-.52.25-.8.25ZM39.55,312.31c.16,0,.3-.06.43-.18.13-.12.24-.34.32-.65s.12-.74.12-1.3-.04-1.01-.12-1.32c-.08-.31-.19-.53-.32-.65-.13-.12-.27-.18-.43-.18-.14,0-.28.06-.41.18s-.24.34-.32.65c-.08.31-.12.75-.12,1.32s.04,1,.12,1.31c.08.31.18.53.32.65.13.12.27.18.41.18ZM39.88,316.04l-.3-.21,5.49-7.99.3.2-5.49,7.99ZM45.43,315.84c-.29,0-.56-.08-.81-.25s-.45-.43-.61-.79c-.15-.36-.23-.82-.23-1.39s.08-1.04.23-1.39c.15-.35.36-.62.61-.78s.52-.25.81-.25.54.08.79.25.45.43.6.78c.15.36.23.82.23,1.39s-.08,1.03-.23,1.39c-.15.36-.35.62-.6.79s-.51.25-.79.25ZM45.43,315.56c.14,0,.28-.06.41-.18s.24-.34.32-.65c.08-.31.12-.75.12-1.31s-.04-.99-.12-1.3c-.08-.31-.19-.53-.32-.65-.13-.12-.27-.19-.41-.19-.15,0-.29.06-.43.18s-.24.34-.32.65c-.08.31-.12.75-.12,1.31s.04,1.01.12,1.31.19.52.32.65.27.18.43.18Z"/>
        </g>
        <path d="M49.11,363.95c-.44,0-.85-.13-1.23-.4-.38-.27-.69-.69-.92-1.28-.23-.58-.35-1.33-.35-2.26s.12-1.7.35-2.29.54-1.01.92-1.29c.38-.27.79-.41,1.23-.41s.84.14,1.22.41c.38.27.69.7.93,1.29s.36,1.35.36,2.29-.12,1.68-.36,2.26c-.24.58-.55,1.01-.93,1.28-.38.27-.79.4-1.22.4ZM49.11,363.61c.19,0,.37-.06.54-.18.17-.12.33-.31.46-.59.14-.27.25-.64.33-1.1.09-.46.13-1.04.13-1.73s-.04-1.28-.13-1.75c-.09-.47-.2-.84-.33-1.11s-.29-.47-.46-.59c-.17-.12-.35-.18-.54-.18s-.37.06-.54.18c-.17.12-.33.32-.47.59s-.25.65-.33,1.12c-.08.47-.12,1.05-.12,1.75s.04,1.26.12,1.73c.08.46.19.83.33,1.1.14.27.3.47.47.59.17.12.35.18.54.18Z"/>
        <g>
          <path d="M93.6,363.27v-.66c.35-.37.69-.74,1.02-1.11.33-.37.63-.69.89-.97.37-.4.68-.77.92-1.11.24-.34.42-.67.54-.98.12-.31.18-.63.18-.95,0-.52-.13-.92-.4-1.2-.27-.28-.63-.42-1.1-.42-.19,0-.37.03-.56.08-.19.05-.39.14-.61.27l.46-.3-.28,1.07c-.05.24-.13.4-.23.48s-.22.13-.36.13c-.11,0-.2-.03-.29-.09-.09-.06-.15-.15-.19-.26.06-.37.2-.69.43-.94.23-.25.52-.45.86-.58.34-.13.71-.19,1.1-.19.75,0,1.31.18,1.68.54.37.36.56.84.56,1.45,0,.33-.08.66-.24.99-.16.33-.41.68-.76,1.06-.35.38-.82.83-1.41,1.35-.12.11-.28.25-.47.44-.19.18-.4.38-.63.6-.23.21-.46.44-.69.67l.11-.36v.17h4.39v.86h-4.93Z"/>
          <path d="M101.74,363.43c-.62,0-1.12-.14-1.52-.42-.4-.28-.64-.67-.72-1.18.04-.11.11-.2.2-.26s.19-.09.3-.09c.16,0,.28.04.36.13.08.09.15.24.19.46l.28,1.02-.37-.3c.18.1.35.17.52.22s.37.07.61.07c.59,0,1.05-.17,1.38-.52.33-.35.5-.84.5-1.47s-.16-1.15-.48-1.45-.74-.46-1.28-.46c-.47,0-.9.08-1.28.24l-.28-.12.25-3.62h3.95v.86h-3.77l.23-.58-.23,3.25-.35-.11c.29-.15.58-.25.86-.31s.57-.09.89-.09c.8,0,1.43.2,1.91.59.47.39.71.96.71,1.71,0,.5-.12.93-.36,1.29-.24.37-.57.65-.99.84-.42.2-.92.3-1.5.3Z"/>
          <path d="M108.11,363.43c-.44,0-.85-.13-1.23-.4-.38-.27-.69-.69-.92-1.28-.23-.58-.35-1.33-.35-2.26s.12-1.7.35-2.29.54-1.01.92-1.29c.38-.27.79-.41,1.23-.41s.84.14,1.22.41c.38.27.69.7.93,1.29s.36,1.35.36,2.29-.12,1.68-.36,2.26c-.24.58-.55,1.01-.93,1.28-.38.27-.79.4-1.22.4ZM108.11,363.09c.19,0,.37-.06.54-.18.17-.12.33-.31.46-.59.14-.27.25-.64.33-1.1.09-.46.13-1.04.13-1.73s-.04-1.28-.13-1.75c-.09-.47-.2-.84-.33-1.11s-.29-.47-.46-.59c-.17-.12-.35-.18-.54-.18s-.37.06-.54.18c-.17.12-.33.32-.47.59s-.25.65-.33,1.12c-.08.47-.12,1.05-.12,1.75s.04,1.26.12,1.73c.08.46.19.83.33,1.1.14.27.3.47.47.59.17.12.35.18.54.18Z"/>
        </g>
        <g>
          <path d="M148.57,363.43c-.62,0-1.12-.14-1.52-.42-.4-.28-.64-.67-.72-1.18.04-.11.11-.2.2-.26s.19-.09.3-.09c.16,0,.28.04.36.13.08.09.15.24.19.46l.28,1.02-.37-.3c.18.1.35.17.52.22s.37.07.61.07c.59,0,1.05-.17,1.38-.52.33-.35.5-.84.5-1.47s-.16-1.15-.48-1.45-.74-.46-1.28-.46c-.47,0-.9.08-1.28.24l-.28-.12.25-3.62h3.95v.86h-3.77l.23-.58-.23,3.25-.35-.11c.29-.15.58-.25.86-.31s.57-.09.89-.09c.8,0,1.43.2,1.91.59.47.39.71.96.71,1.71,0,.5-.12.93-.36,1.29-.24.37-.57.65-.99.84-.42.2-.92.3-1.5.3Z"/>
          <path d="M154.94,363.43c-.44,0-.85-.13-1.23-.4-.38-.27-.69-.69-.92-1.28-.23-.58-.35-1.33-.35-2.26s.12-1.7.35-2.29.54-1.01.92-1.29c.38-.27.79-.41,1.23-.41s.84.14,1.22.41c.38.27.69.7.93,1.29s.36,1.35.36,2.29-.12,1.68-.36,2.26c-.24.58-.55,1.01-.93,1.28-.38.27-.79.4-1.22.4ZM154.94,363.09c.19,0,.37-.06.54-.18.17-.12.33-.31.46-.59.14-.27.25-.64.33-1.1.09-.46.13-1.04.13-1.73s-.04-1.28-.13-1.75c-.09-.47-.2-.84-.33-1.11s-.29-.47-.46-.59c-.17-.12-.35-.18-.54-.18s-.37.06-.54.18c-.17.12-.33.32-.47.59s-.25.65-.33,1.12c-.08.47-.12,1.05-.12,1.75s.04,1.26.12,1.73c.08.46.19.83.33,1.1.14.27.3.47.47.59.17.12.35.18.54.18Z"/>
          <path d="M160.98,363.43c-.44,0-.85-.13-1.23-.4-.38-.27-.69-.69-.92-1.28-.23-.58-.35-1.33-.35-2.26s.12-1.7.35-2.29.54-1.01.92-1.29c.38-.27.79-.41,1.23-.41s.84.14,1.22.41c.38.27.69.7.93,1.29s.36,1.35.36,2.29-.12,1.68-.36,2.26c-.24.58-.55,1.01-.93,1.28-.38.27-.79.4-1.22.4ZM160.98,363.09c.19,0,.37-.06.54-.18.17-.12.33-.31.46-.59.14-.27.25-.64.33-1.1.09-.46.13-1.04.13-1.73s-.04-1.28-.13-1.75c-.09-.47-.2-.84-.33-1.11s-.29-.47-.46-.59c-.17-.12-.35-.18-.54-.18s-.37.06-.54.18c-.17.12-.33.32-.47.59s-.25.65-.33,1.12c-.08.47-.12,1.05-.12,1.75s.04,1.26.12,1.73c.08.46.19.83.33,1.1.14.27.3.47.47.59.17.12.35.18.54.18Z"/>
        </g>
        <g>
          <path d="M198.88,363.43l-.09-.08,3.55-6.99v.48l-.08-.15h-4.38v-.86h4.85v.55l-2.85,7.04h-1Z"/>
          <path d="M206.03,363.59c-.62,0-1.12-.14-1.52-.42-.4-.28-.64-.67-.72-1.18.04-.11.11-.2.2-.26s.19-.09.3-.09c.16,0,.28.04.36.13.08.09.15.24.19.46l.28,1.02-.37-.3c.18.1.35.17.52.22s.37.07.61.07c.59,0,1.05-.17,1.38-.52.33-.35.5-.84.5-1.47s-.16-1.15-.48-1.45-.74-.46-1.28-.46c-.47,0-.9.08-1.28.24l-.28-.12.25-3.62h3.95v.86h-3.77l.23-.58-.23,3.25-.35-.11c.29-.15.58-.25.86-.31s.57-.09.89-.09c.8,0,1.43.2,1.91.59.47.39.71.96.71,1.71,0,.5-.12.93-.36,1.29-.24.37-.57.65-.99.84-.42.2-.92.3-1.5.3Z"/>
          <path d="M212.4,363.59c-.44,0-.85-.13-1.23-.4-.38-.27-.69-.69-.92-1.28-.23-.58-.35-1.33-.35-2.26s.12-1.7.35-2.29.54-1.01.92-1.29c.38-.27.79-.41,1.23-.41s.84.14,1.22.41c.38.27.69.7.93,1.29s.36,1.35.36,2.29-.12,1.68-.36,2.26c-.24.58-.55,1.01-.93,1.28-.38.27-.79.4-1.22.4ZM212.4,363.25c.19,0,.37-.06.54-.18.17-.12.33-.31.46-.59.14-.27.25-.64.33-1.1.09-.46.13-1.04.13-1.73s-.04-1.28-.13-1.75c-.09-.47-.2-.84-.33-1.11s-.29-.47-.46-.59c-.17-.12-.35-.18-.54-.18s-.37.06-.54.18c-.17.12-.33.32-.47.59s-.25.65-.33,1.12c-.08.47-.12,1.05-.12,1.75s.04,1.26.12,1.73c.08.46.19.83.33,1.1.14.27.3.47.47.59.17.12.35.18.54.18Z"/>
        </g>
        <g>
          <path d="M248.08,363.43v-.3l1.78-.17h.93l1.67.17v.3h-4.37ZM249.75,363.43c.02-.83.03-1.66.03-2.49v-4.5l-1.52.23v-.34l2.46-.6.16.12-.04,1.71v3.39c0,.4,0,.81.01,1.23s.01.84.02,1.25h-1.12Z"/>
          <path d="M256.23,363.59c-.44,0-.85-.13-1.23-.4-.38-.27-.69-.69-.92-1.28-.23-.58-.35-1.33-.35-2.26s.12-1.7.35-2.29.54-1.01.92-1.29c.38-.27.79-.41,1.23-.41s.84.14,1.22.41c.38.27.69.7.93,1.29s.36,1.35.36,2.29-.12,1.68-.36,2.26c-.24.58-.55,1.01-.93,1.28-.38.27-.79.4-1.22.4ZM256.23,363.25c.19,0,.37-.06.54-.18.17-.12.33-.31.46-.59.14-.27.25-.64.33-1.1.09-.46.13-1.04.13-1.73s-.04-1.28-.13-1.75c-.09-.47-.2-.84-.33-1.11s-.29-.47-.46-.59c-.17-.12-.35-.18-.54-.18s-.37.06-.54.18c-.17.12-.33.32-.47.59s-.25.65-.33,1.12c-.08.47-.12,1.05-.12,1.75s.04,1.26.12,1.73c.08.46.19.83.33,1.1.14.27.3.47.47.59.17.12.35.18.54.18Z"/>
          <path d="M262.27,363.59c-.44,0-.85-.13-1.23-.4-.38-.27-.69-.69-.92-1.28-.23-.58-.35-1.33-.35-2.26s.12-1.7.35-2.29.54-1.01.92-1.29c.38-.27.79-.41,1.23-.41s.84.14,1.22.41c.38.27.69.7.93,1.29s.36,1.35.36,2.29-.12,1.68-.36,2.26c-.24.58-.55,1.01-.93,1.28-.38.27-.79.4-1.22.4ZM262.27,363.25c.19,0,.37-.06.54-.18.17-.12.33-.31.46-.59.14-.27.25-.64.33-1.1.09-.46.13-1.04.13-1.73s-.04-1.28-.13-1.75c-.09-.47-.2-.84-.33-1.11s-.29-.47-.46-.59c-.17-.12-.35-.18-.54-.18s-.37.06-.54.18c-.17.12-.33.32-.47.59s-.25.65-.33,1.12c-.08.47-.12,1.05-.12,1.75s.04,1.26.12,1.73c.08.46.19.83.33,1.1.14.27.3.47.47.59.17.12.35.18.54.18Z"/>
          <path d="M268.31,363.59c-.44,0-.85-.13-1.23-.4-.38-.27-.69-.69-.92-1.28-.23-.58-.35-1.33-.35-2.26s.12-1.7.35-2.29.54-1.01.92-1.29c.38-.27.79-.41,1.23-.41s.84.14,1.22.41c.38.27.69.7.93,1.29s.36,1.35.36,2.29-.12,1.68-.36,2.26c-.24.58-.55,1.01-.93,1.28-.38.27-.79.4-1.22.4ZM268.31,363.25c.19,0,.37-.06.54-.18.17-.12.33-.31.46-.59.14-.27.25-.64.33-1.1.09-.46.13-1.04.13-1.73s-.04-1.28-.13-1.75c-.09-.47-.2-.84-.33-1.11s-.29-.47-.46-.59c-.17-.12-.35-.18-.54-.18s-.37.06-.54.18c-.17.12-.33.32-.47.59s-.25.65-.33,1.12c-.08.47-.12,1.05-.12,1.75s.04,1.26.12,1.73c.08.46.19.83.33,1.1.14.27.3.47.47.59.17.12.35.18.54.18Z"/>
        </g>
      </g>
      <g>
        <path d="M144.89,418.69v-.43h2.16v.6h-.17l-1.99-.17ZM144.89,428.5v-.43l1.99-.18h.43l2.06.18v.43h-4.48ZM146.28,428.5c.02-.78.03-1.57.03-2.37,0-.79,0-1.59,0-2.38v-.74c0-.8,0-1.6,0-2.39,0-.79-.02-1.58-.03-2.37h1.53c0,.78-.02,1.57-.02,2.37,0,.79,0,1.59,0,2.39v.98c0,.69,0,1.42,0,2.18,0,.76.01,1.54.02,2.33h-1.53ZM147.05,424.33v-.48h1.47c.68,0,1.23-.11,1.65-.33.42-.22.73-.53.93-.92s.3-.85.3-1.35c0-.82-.21-1.44-.63-1.87-.42-.42-1.07-.64-1.95-.64h-1.78v-.49h1.86c1.33,0,2.32.27,2.95.8.63.53.94,1.26.94,2.2,0,.57-.15,1.09-.43,1.55-.29.47-.75.84-1.37,1.11s-1.44.41-2.44.41h-1.51Z"/>
        <path d="M153.85,418.69v-.43h4.37v.43l-2.02.17h-.36l-1.99-.17ZM153.85,428.5v-.43l1.99-.18h.18v.62h-2.17ZM155.24,428.5c.02-.78.03-1.57.03-2.35,0-.78,0-1.53,0-2.25v-.9c0-.8,0-1.6,0-2.39,0-.79-.02-1.58-.03-2.37h1.53c0,.78-.02,1.58-.02,2.38,0,.8,0,1.63,0,2.49v.83c0,.69,0,1.42,0,2.2,0,.78.01,1.56.02,2.35h-1.53ZM156.01,428.5v-.49h4.96l-.7.38.56-2.69h.63l-.07,2.8h-5.38Z"/>
        <path d="M162.12,428.5v-.43l1.39-.17h.25l1.51.17v.43h-3.15ZM163.13,428.5l3.43-10.32h.91l3.5,10.32h-1.48l-3.05-9.37h.29l-.06.2-2.93,9.17h-.62ZM164.66,425.04l.06-.45h4.31l.07.45h-4.44ZM167.78,428.5v-.43l1.88-.17h.5l1.85.17v.43h-4.23Z"/>
      </g>
      <g>
        <path d="M436.7,418.03v-.43h2.16v.6h-.17l-1.99-.17ZM436.7,427.85v-.43l1.99-.18h.43l2.06.18v.43h-4.48ZM438.09,427.85c.02-.78.03-1.57.04-2.37s0-1.59,0-2.38v-.74c0-.8,0-1.6,0-2.39,0-.79-.02-1.58-.04-2.37h1.53c0,.78-.02,1.57-.02,2.37,0,.79,0,1.59,0,2.39v.98c0,.69,0,1.42,0,2.18s.01,1.54.02,2.33h-1.53ZM438.86,423.67v-.48h1.47c.68,0,1.23-.11,1.65-.33.42-.22.73-.53.93-.92.2-.4.3-.85.3-1.35,0-.82-.21-1.44-.63-1.87s-1.07-.64-1.95-.64h-1.78v-.49h1.86c1.33,0,2.32.27,2.95.8s.95,1.26.95,2.2c0,.57-.15,1.09-.43,1.55s-.75.84-1.37,1.11c-.62.28-1.44.41-2.44.41h-1.51Z"/>
        <path d="M449.01,428.06c-.65,0-1.25-.15-1.79-.44-.54-.29-.97-.73-1.29-1.31-.32-.58-.48-1.28-.48-2.11s.17-1.55.5-2.12.78-1.01,1.32-1.3c.55-.29,1.13-.44,1.74-.44s1.23.15,1.77.44.99.73,1.32,1.3.5,1.28.5,2.12-.17,1.54-.5,2.11c-.33.58-.77,1.01-1.31,1.31-.54.29-1.14.44-1.79.44ZM449.01,427.61c.66,0,1.18-.29,1.55-.87.37-.58.56-1.42.56-2.53s-.19-1.96-.56-2.54c-.37-.58-.89-.88-1.55-.88s-1.17.29-1.54.88c-.37.58-.56,1.43-.56,2.54s.19,1.96.56,2.53c.37.58.89.87,1.54.87Z"/>
        <path d="M457.49,428.06c-.69,0-1.3-.15-1.83-.45-.53-.3-.95-.73-1.26-1.29-.31-.56-.46-1.24-.46-2.03,0-.85.17-1.57.53-2.16.35-.59.81-1.04,1.39-1.34.57-.31,1.19-.46,1.86-.46.44,0,.84.08,1.21.25.37.16.68.39.93.67.25.29.42.62.52,1-.1.36-.32.53-.66.53-.21,0-.39-.06-.53-.18-.14-.12-.22-.33-.26-.63l-.32-1.26.77.57c-.28-.18-.54-.3-.79-.38-.25-.07-.5-.11-.75-.11-.47,0-.89.13-1.26.4-.37.27-.67.65-.88,1.14-.21.5-.32,1.09-.32,1.79,0,1.01.25,1.79.74,2.35.49.55,1.13.83,1.91.83.41,0,.8-.08,1.16-.25s.68-.42.97-.76l.24.18c-.32.51-.71.91-1.16,1.18-.46.27-1.03.41-1.72.41Z"/>
        <path d="M462.39,427.85c0-.19.02-.41.02-.68,0-.27,0-.55.01-.85s0-.6,0-.9v-8l-1.19-.07v-.38l2.39-.45.21.13-.04,2.18v6.57c0,.3,0,.61,0,.91s0,.59.01.85c0,.27.01.49.02.68h-1.46ZM461.26,427.85v-.39l1.53-.15h.59l1.54.15v.39h-3.65ZM463.12,425.38v-.6h.06l2.11-2.11,2.14-2.13h.73l-5.04,4.84ZM467.08,427.85l-2.37-4.2.95-.9,2.62,4.61,1.06.1v.39h-2.27ZM465.5,420.96v-.42h3.47v.42l-1.62.14-.28.04-1.57-.18Z"/>
        <path d="M473.45,428.06c-.71,0-1.34-.14-1.89-.43-.55-.29-.98-.72-1.29-1.29-.31-.57-.47-1.28-.47-2.12s.16-1.49.49-2.07c.33-.58.76-1.02,1.3-1.34.54-.31,1.12-.47,1.75-.47s1.17.13,1.62.39c.44.26.78.61,1.01,1.06.23.44.34.95.34,1.52,0,.34-.03.62-.08.84h-5.81v-.45h3.92c.26,0,.44-.07.53-.21.09-.14.14-.36.14-.67,0-.61-.15-1.09-.45-1.46-.3-.37-.72-.55-1.26-.55-.38,0-.73.12-1.04.37-.31.25-.56.61-.75,1.09-.19.48-.28,1.07-.28,1.77,0,.76.11,1.38.34,1.87s.54.85.93,1.07c.39.22.84.34,1.36.34s.92-.09,1.28-.27c.36-.18.67-.43.95-.76l.24.18c-.3.5-.69.9-1.17,1.18-.48.28-1.05.42-1.7.42Z"/>
        <path d="M480.24,428.06c-.61,0-1.06-.16-1.36-.47-.3-.31-.45-.8-.45-1.45,0-.23,0-.44,0-.63s0-.41,0-.67v-3.77h-1.34v-.43l1.64-.13-.27.2.49-2.37h.9l-.04,2.42v5.42c0,.42.08.73.25.92s.39.29.69.29c.21,0,.38-.03.54-.1.15-.06.32-.16.51-.28l.21.25c-.2.26-.44.46-.73.59-.29.13-.64.2-1.05.2ZM479.13,421.07v-.53h2.63v.53h-2.63Z"/>
      </g>
    </g>
    <g id="_레이어_3" data-name="레이어_3">
      <path class="cls-4" d="M538.58,324.68l-2.22,2.88h-9.61l.17-.52c.66,0,1.15-.07,1.47-.2.32-.13.56-.42.71-.86l3.06-9.19c.19-.58-.34-.87-1.62-.87l.18-.53h9.56l.17,2.91-.48.24c-.22-.57-.43-1.03-.65-1.37s-.46-.61-.73-.79c-.28-.18-.59-.29-.95-.35s-.78-.09-1.28-.09c-.47,0-.85.02-1.16.04s-.57.09-.78.16c-.21.08-.37.2-.5.35-.13.16-.23.36-.31.6l-1.33,3.98h1.46c.18,0,.41-.03.69-.08s.56-.16.86-.31c.29-.16.58-.37.85-.65s.5-.64.68-1.08h.47l-1.55,4.66h-.48c.17-.52.21-.92.1-1.2-.1-.28-.28-.47-.5-.59s-.47-.19-.73-.21c-.25-.02-.44-.03-.55-.03h-1.46l-1.43,4.29c-.1.33-.15.57-.1.73.03.16.14.28.3.33.16.06.39.09.67.09h.98c1.06,0,2.05-.21,2.97-.62.92-.41,1.82-1.07,2.71-1.96l.36.21h0Z"/>
      <path class="cls-4" d="M541.06,330.09c-.09.15-.22.31-.35.51s-.3.38-.47.54c-.17.17-.34.32-.53.44s-.34.18-.5.18c-.1,0-.21-.03-.28-.09-.09-.06-.16-.15-.2-.26-.05-.1-.08-.22-.09-.36,0-.14.02-.27.07-.41l1.23-3.25c.09-.22.13-.37.13-.47s-.02-.17-.05-.2c-.03-.03-.09-.03-.16-.02-.07.02-.13.04-.18.08-.1.05-.22.14-.32.24s-.21.22-.31.34-.19.23-.26.34c-.07.1-.12.18-.16.23l-.16-.16c.08-.15.19-.3.33-.48s.29-.34.46-.51c.16-.16.33-.29.49-.41.17-.11.33-.16.47-.16.09,0,.18.02.27.06.09.04.16.1.22.19s.09.21.09.35-.03.34-.12.56l-1.28,3.3s-.02.06-.03.12,0,.11,0,.17.03.11.06.16c.03.05.09.07.16.07.1,0,.22-.05.35-.16s.27-.24.4-.39c.13-.15.25-.29.35-.43.1-.15.18-.25.22-.32l.17.21h-.03ZM541.63,323.76c0,.05-.02.1-.04.17-.03.07-.07.14-.13.21-.06.07-.13.12-.22.17-.09.04-.19.07-.32.07-.05,0-.11,0-.18-.03s-.12-.06-.18-.1c-.05-.04-.1-.09-.14-.16-.03-.06-.06-.13-.06-.21,0-.17.06-.34.18-.48.12-.15.28-.22.46-.22s.32.06.44.18c.11.12.17.26.17.4h.02Z"/>
      <path class="cls-4" d="M548.48,330.04c-.29.52-.59.93-.9,1.24-.31.31-.61.47-.92.47-.22,0-.37-.06-.46-.18-.08-.12-.12-.27-.12-.43s.03-.32.07-.47.08-.27.1-.33l1.1-2.94s.02-.09.03-.16,0-.16,0-.24-.03-.16-.08-.22-.11-.09-.22-.09c-.11,0-.23.04-.35.12-.12.08-.28.26-.49.53-.21.28-.49.68-.84,1.22-.35.54-.82,1.27-1.4,2.18l-.44.9h-.82l1.35-3.66c.03-.06.05-.16.09-.3s.07-.28.09-.42c.02-.15.02-.27,0-.37s-.08-.16-.18-.16c-.04,0-.12.03-.22.1s-.22.17-.34.3-.26.28-.41.47c-.15.18-.28.37-.42.58l-.22-.13c.09-.14.2-.3.35-.51.15-.21.31-.41.49-.6.17-.2.35-.36.54-.5.18-.14.35-.21.51-.21.18,0,.3.05.39.15.08.1.13.22.15.38s0,.33-.03.53c-.03.2-.09.39-.15.59-.07.24-.15.49-.23.75-.08.23-.16.49-.26.79s-.2.6-.32.92c.39-.62.73-1.16,1.02-1.6.28-.45.54-.82.76-1.12.22-.3.41-.54.56-.72s.29-.32.42-.41.24-.16.34-.19.22-.05.34-.05c.19,0,.34.05.45.15.1.1.18.22.22.35s.05.28.04.43c0,.16-.03.28-.06.38l-1.15,3.07s-.02.05-.03.12c-.02.06-.03.13-.03.2s0,.13.04.18.08.09.16.09c.13,0,.26-.05.4-.16s.26-.24.37-.39c.11-.15.22-.29.31-.43.09-.15.16-.25.21-.32l.17.16v-.02Z"/>
      <path class="cls-5" d="M538.1,278.69l-2.17,2.81h-9.38l.17-.5c.64,0,1.12-.07,1.43-.2s.55-.41.68-.84l2.99-8.97c.19-.56-.34-.85-1.58-.85l.17-.52h9.33l.17,2.84-.47.24c-.21-.56-.42-1-.63-1.34-.2-.34-.44-.6-.72-.77-.27-.17-.58-.29-.92-.35-.35-.06-.77-.09-1.25-.09-.45,0-.83.02-1.13.04s-.56.09-.75.16c-.2.08-.37.2-.49.35-.13.15-.23.35-.31.59l-1.3,3.89h1.43c.18,0,.41-.03.67-.08.27-.05.55-.15.84-.31.29-.15.56-.37.83-.63.26-.27.49-.62.67-1.05h.46l-1.52,4.55h-.48c.17-.5.2-.9.1-1.17-.1-.27-.26-.46-.49-.58s-.46-.19-.71-.2-.43-.03-.54-.03h-1.43l-1.4,4.19c-.1.32-.14.56-.1.71.03.16.14.26.3.32s.38.09.66.09h.96c1.04,0,2.01-.2,2.9-.61.9-.41,1.78-1.04,2.64-1.91l.36.2h0Z"/>
      <path class="cls-5" d="M542.32,281.86c0,.52-.09,1.01-.27,1.46s-.42.85-.69,1.19-.59.61-.92.79c-.33.2-.67.29-.97.29-.22,0-.43-.04-.61-.14s-.33-.21-.46-.37-.22-.32-.29-.53c-.07-.2-.1-.42-.1-.64s.03-.49.1-.77.17-.56.29-.84.27-.55.45-.81.37-.5.58-.7.44-.36.67-.48.48-.18.73-.18c.17,0,.35.03.53.12.18.08.34.19.49.33s.26.32.35.54.14.45.14.73h0ZM541.64,281.5c0-.1-.02-.21-.04-.33-.03-.13-.07-.24-.14-.35-.06-.11-.15-.2-.26-.28s-.25-.12-.42-.12c-.22,0-.44.07-.62.21s-.37.32-.52.56c-.15.22-.3.48-.42.76s-.23.56-.31.84c-.09.27-.15.53-.19.78s-.07.44-.07.58c0,.11,0,.23.03.37.02.14.05.26.11.39.06.12.15.23.26.32s.27.13.48.13c.24,0,.45-.08.65-.22.2-.15.37-.34.53-.57s.29-.5.41-.79c.12-.29.21-.57.29-.86.08-.28.14-.55.17-.79.03-.25.06-.44.06-.59h0Z"/>
      <path class="cls-5" d="M548.7,280.18c-.26.6-.5,1.17-.71,1.72-.09.23-.18.48-.27.73s-.18.5-.26.73-.15.46-.2.67-.1.39-.13.55c-.02.06-.02.14-.02.22s.02.15.05.21c.03.05.08.09.14.1.06,0,.15-.03.25-.1.1-.09.24-.22.39-.41.15-.2.35-.47.57-.83l.18.1c-.26.44-.49.79-.7,1.03s-.4.43-.57.53-.32.15-.44.14c-.13,0-.23-.05-.32-.13-.09-.08-.15-.16-.18-.27-.03-.11-.05-.21-.04-.3.02-.19.07-.44.15-.73.09-.31.18-.62.29-.95s.21-.64.32-.94.19-.53.25-.7c-.42.75-.8,1.38-1.15,1.9-.35.51-.67.93-.95,1.26-.28.32-.52.56-.73.69s-.38.2-.51.2c-.09,0-.19-.02-.3-.06s-.2-.11-.27-.21-.12-.25-.12-.43.04-.41.15-.69l1.17-2.93c.08-.2.1-.35.08-.46s-.1-.15-.22-.13-.28.15-.48.34c-.2.2-.43.51-.69.94l-.19-.14c.08-.12.18-.27.3-.46.13-.19.27-.38.44-.56s.33-.34.5-.47c.18-.13.35-.2.52-.2.09,0,.19.03.27.09s.15.15.19.27.06.26.05.43c0,.17-.05.36-.14.56l-1.06,2.6c-.09.2-.13.38-.13.53s.02.26.07.35.12.12.21.12.2-.05.3-.15c.2-.2.39-.41.58-.64.2-.24.38-.49.56-.75.18-.26.36-.53.53-.79.17-.26.33-.52.49-.77.35-.59.68-1.2,1-1.81h.79,0Z"/>
      <path class="cls-5" d="M552.89,280.29l-.09.38h-1.2l-1.2,4.06c-.03.09,0,.18.03.26s.13.11.25.09.27-.13.47-.32c.2-.18.44-.5.72-.93l.2.12c-.09.14-.2.31-.33.5-.15.2-.3.38-.47.55s-.34.32-.51.44c-.18.12-.34.18-.5.18-.27,0-.45-.1-.53-.32-.08-.21-.06-.5.04-.85l1.18-3.77h-.99l.1-.38h.97l.64-2.15h.71l-.67,2.15h1.18Z"/>
      <polyline class="cls-1" points="345.63 187.64 345.63 351.62 554.69 351.62"/>
      <g>
        <path d="M324.59,199.63c-.62,0-1.12-.14-1.52-.42-.4-.28-.64-.67-.72-1.18.04-.11.11-.2.2-.26s.19-.09.3-.09c.16,0,.28.04.36.13.08.09.15.24.19.46l.28,1.02-.37-.3c.18.1.35.17.52.22s.37.07.61.07c.59,0,1.05-.17,1.38-.52s.5-.84.5-1.47-.16-1.14-.48-1.45c-.32-.31-.75-.46-1.28-.46-.47,0-.9.08-1.28.24l-.28-.12.25-3.62h3.95v.86h-3.77l.23-.58-.23,3.25-.35-.11c.29-.15.58-.25.86-.31.28-.06.57-.09.89-.09.8,0,1.43.2,1.91.59.47.39.71.96.71,1.71,0,.5-.12.93-.36,1.29-.24.37-.57.65-.99.85-.42.2-.92.3-1.5.3Z"/>
        <path d="M330.97,199.63c-.44,0-.85-.13-1.23-.4-.38-.27-.69-.69-.92-1.28-.23-.58-.35-1.34-.35-2.26s.12-1.7.35-2.29c.23-.58.54-1.01.92-1.29.38-.27.79-.41,1.23-.41s.84.14,1.22.41c.38.27.69.7.93,1.29.24.59.36,1.35.36,2.29s-.12,1.68-.36,2.26c-.24.58-.55,1.01-.93,1.28-.38.27-.79.4-1.22.4ZM330.97,199.28c.19,0,.37-.06.54-.18.17-.12.33-.31.46-.59.14-.27.25-.64.33-1.1s.13-1.04.13-1.73-.04-1.28-.13-1.75-.2-.84-.33-1.11c-.14-.27-.29-.47-.46-.59s-.35-.18-.54-.18-.37.06-.54.18c-.17.12-.33.32-.47.59-.14.28-.25.65-.33,1.12s-.12,1.05-.12,1.75.04,1.27.12,1.73.19.83.33,1.1c.14.27.3.47.47.59.17.12.35.18.54.18Z"/>
        <path d="M336.08,196.32c-.28,0-.54-.08-.79-.25-.25-.17-.45-.43-.61-.79s-.24-.82-.24-1.38.08-1.04.24-1.4.36-.62.61-.79.51-.25.79-.25.55.08.8.25c.25.17.45.43.6.79s.23.83.23,1.4-.08,1.02-.23,1.38-.36.62-.6.79c-.25.17-.52.25-.8.25ZM336.08,196.04c.16,0,.3-.06.43-.18.13-.12.24-.34.32-.65.08-.31.12-.74.12-1.3s-.04-1.01-.12-1.32c-.08-.31-.19-.53-.32-.65-.13-.12-.27-.18-.43-.18-.14,0-.28.06-.41.18s-.24.34-.32.65c-.08.31-.12.75-.12,1.32s.04,1,.12,1.31c.08.31.18.53.32.65.13.12.27.18.41.18ZM336.42,199.78l-.3-.2,5.49-7.99.3.2-5.49,7.99ZM341.96,199.57c-.29,0-.56-.08-.81-.25-.25-.17-.45-.43-.61-.79-.15-.36-.23-.82-.23-1.39s.08-1.04.23-1.39.36-.62.61-.78c.25-.17.52-.25.81-.25s.54.08.79.25c.25.17.45.43.6.78.15.36.23.82.23,1.39s-.08,1.03-.23,1.39c-.15.36-.35.62-.6.79-.25.17-.51.25-.79.25ZM341.96,199.29c.14,0,.28-.06.41-.18s.24-.34.32-.65.12-.75.12-1.31-.04-.99-.12-1.3c-.08-.31-.19-.53-.32-.65s-.27-.19-.41-.19c-.15,0-.29.06-.43.18s-.24.34-.32.65c-.08.31-.12.75-.12,1.31s.04,1,.12,1.31c.08.31.19.52.32.65s.27.18.43.18Z"/>
      </g>
      <g>
        <path d="M323.27,246.79v-.3l1.78-.17h.93l1.67.17v.3h-4.37ZM324.94,246.79c.02-.83.03-1.66.03-2.49v-4.5l-1.52.23v-.34l2.46-.6.16.12-.04,1.71v3.39c0,.4,0,.81.01,1.23,0,.42.01.84.02,1.25h-1.12Z"/>
        <path d="M331.42,246.95c-.44,0-.85-.13-1.23-.4-.38-.27-.69-.69-.92-1.28-.23-.58-.35-1.34-.35-2.26s.12-1.7.35-2.29c.23-.58.54-1.01.92-1.29.38-.27.79-.41,1.23-.41s.84.14,1.22.41c.38.27.69.7.93,1.29.24.59.36,1.35.36,2.29s-.12,1.68-.36,2.26c-.24.58-.55,1.01-.93,1.28-.38.27-.79.4-1.22.4ZM331.42,246.6c.19,0,.37-.06.54-.18.17-.12.33-.31.46-.59.14-.27.25-.64.33-1.1s.13-1.04.13-1.73-.04-1.28-.13-1.75-.2-.84-.33-1.11c-.14-.27-.29-.47-.46-.59s-.35-.18-.54-.18-.37.06-.54.18c-.17.12-.33.32-.47.59-.14.28-.25.65-.33,1.12s-.12,1.05-.12,1.75.04,1.27.12,1.73.19.83.33,1.1c.14.27.3.47.47.59.17.12.35.18.54.18Z"/>
        <path d="M336.53,243.64c-.28,0-.54-.08-.79-.25-.25-.17-.45-.43-.61-.79s-.24-.82-.24-1.38.08-1.04.24-1.4.36-.62.61-.79.51-.25.79-.25.55.08.8.25c.25.17.45.43.6.79s.23.83.23,1.4-.08,1.02-.23,1.38-.36.62-.6.79c-.25.17-.52.25-.8.25ZM336.53,243.36c.16,0,.3-.06.43-.18.13-.12.24-.34.32-.65.08-.31.12-.74.12-1.3s-.04-1.01-.12-1.32c-.08-.31-.19-.53-.32-.65-.13-.12-.27-.18-.43-.18-.14,0-.28.06-.41.18s-.24.34-.32.65c-.08.31-.12.75-.12,1.32s.04,1,.12,1.31c.08.31.18.53.32.65.13.12.27.18.41.18ZM336.87,247.1l-.3-.2,5.49-7.99.3.2-5.49,7.99ZM342.41,246.9c-.29,0-.56-.08-.81-.25-.25-.17-.45-.43-.61-.79-.15-.36-.23-.82-.23-1.39s.08-1.04.23-1.39.36-.62.61-.78c.25-.17.52-.25.81-.25s.54.08.79.25c.25.17.45.43.6.78.15.36.23.82.23,1.39s-.08,1.03-.23,1.39c-.15.36-.35.62-.6.79-.25.17-.51.25-.79.25ZM342.41,246.62c.14,0,.28-.06.41-.18s.24-.34.32-.65.12-.75.12-1.31-.04-.99-.12-1.3c-.08-.31-.19-.53-.32-.65s-.27-.19-.41-.19c-.15,0-.29.06-.43.18s-.24.34-.32.65c-.08.31-.12.75-.12,1.31s.04,1,.12,1.31c.08.31.19.52.32.65s.27.18.43.18Z"/>
      </g>
      <g>
        <path d="M327.82,315.07v-.3l1.78-.17h.93l1.67.17v.3h-4.37ZM329.49,315.07c.02-.83.03-1.66.03-2.49v-4.5l-1.52.23v-.34l2.46-.6.16.12-.04,1.71v3.39c0,.4,0,.81.01,1.23,0,.42.01.84.02,1.25h-1.12Z"/>
        <path d="M335.04,311.93c-.28,0-.54-.08-.79-.25-.25-.17-.45-.43-.61-.79-.16-.36-.24-.82-.24-1.38s.08-1.04.24-1.4c.16-.36.36-.62.61-.79.25-.17.51-.25.79-.25s.55.08.8.25c.25.17.45.43.6.79s.23.83.23,1.4-.08,1.02-.23,1.38c-.15.36-.36.62-.6.79-.25.17-.51.25-.8.25ZM335.04,311.65c.16,0,.3-.06.43-.18s.24-.34.32-.65c.08-.31.12-.74.12-1.3s-.04-1.01-.12-1.32c-.08-.31-.19-.53-.32-.65s-.27-.18-.43-.18c-.14,0-.28.06-.42.18s-.24.34-.32.65-.12.75-.12,1.32.04,1,.12,1.31.18.53.32.65c.13.12.27.18.42.18ZM335.38,315.39l-.3-.21,5.49-7.99.3.2-5.49,7.99ZM340.92,315.18c-.29,0-.56-.08-.81-.25-.25-.17-.45-.43-.61-.79-.15-.36-.23-.82-.23-1.39s.08-1.04.23-1.39c.15-.35.36-.62.61-.78.25-.17.52-.25.81-.25s.54.08.79.25c.25.17.45.43.6.78.15.36.23.82.23,1.39s-.08,1.03-.23,1.39c-.15.36-.35.62-.6.79-.25.17-.51.25-.79.25ZM340.92,314.9c.14,0,.28-.06.42-.18s.24-.34.32-.65c.08-.31.12-.75.12-1.31s-.04-.99-.12-1.3c-.08-.31-.19-.53-.32-.65-.13-.12-.27-.19-.42-.19s-.29.06-.42.18-.24.34-.32.65c-.08.31-.12.75-.12,1.31s.04,1.01.12,1.31c.08.31.19.52.32.65s.27.18.42.18Z"/>
      </g>
      <path d="M344.6,363.3c-.44,0-.85-.13-1.23-.4s-.69-.69-.92-1.28c-.23-.58-.35-1.33-.35-2.26s.12-1.7.35-2.29.54-1.01.92-1.29.79-.41,1.23-.41.84.14,1.22.41.69.7.93,1.29c.24.58.36,1.35.36,2.29s-.12,1.68-.36,2.26c-.24.58-.54,1.01-.93,1.28s-.79.4-1.22.4ZM344.6,362.95c.19,0,.37-.06.54-.18.17-.12.33-.31.46-.59.14-.27.25-.64.33-1.1.09-.46.13-1.04.13-1.73s-.04-1.28-.13-1.75c-.09-.47-.2-.84-.33-1.11-.14-.27-.29-.47-.46-.59-.17-.12-.35-.18-.54-.18s-.37.06-.54.18c-.17.12-.33.32-.47.59-.14.28-.25.65-.33,1.12-.08.47-.12,1.05-.12,1.75s.04,1.26.12,1.73c.08.46.19.83.33,1.1.14.27.3.47.47.59.17.12.35.18.54.18Z"/>
      <g>
        <path d="M389.09,362.62v-.66c.35-.37.69-.74,1.02-1.11.33-.37.63-.69.89-.97.37-.4.68-.77.92-1.11s.42-.67.54-.98c.12-.31.18-.63.18-.95,0-.52-.13-.92-.4-1.2-.27-.28-.63-.42-1.1-.42-.19,0-.37.03-.56.08-.19.05-.39.14-.61.27l.46-.3-.28,1.07c-.05.24-.12.4-.23.48s-.22.13-.36.13c-.11,0-.21-.03-.29-.09-.09-.06-.15-.15-.19-.26.06-.37.2-.69.43-.94.23-.25.52-.45.86-.58.34-.13.71-.19,1.1-.19.75,0,1.31.18,1.68.54.37.36.56.84.56,1.45,0,.33-.08.66-.24.99-.16.33-.41.68-.76,1.06-.35.38-.82.83-1.41,1.35-.12.11-.28.25-.47.44-.19.18-.4.38-.63.6-.23.21-.46.44-.69.67l.11-.36v.17h4.39v.86h-4.93Z"/>
        <path d="M397.23,362.78c-.62,0-1.12-.14-1.52-.42-.4-.28-.64-.67-.72-1.18.04-.11.11-.2.2-.26s.19-.09.3-.09c.16,0,.28.04.36.13.08.09.15.24.19.46l.28,1.02-.37-.3c.18.1.35.17.52.22s.37.07.61.07c.59,0,1.05-.17,1.38-.52.33-.35.5-.84.5-1.47s-.16-1.15-.48-1.45-.75-.46-1.28-.46c-.47,0-.9.08-1.28.24l-.28-.12.25-3.62h3.95v.86h-3.77l.23-.58-.23,3.25-.35-.11c.29-.15.58-.25.86-.31s.57-.09.89-.09c.8,0,1.43.2,1.91.59.47.39.71.96.71,1.71,0,.5-.12.93-.36,1.29-.24.37-.57.65-.99.84s-.92.3-1.5.3Z"/>
        <path d="M403.61,362.78c-.44,0-.85-.13-1.23-.4s-.69-.69-.92-1.28c-.23-.58-.35-1.33-.35-2.26s.12-1.7.35-2.29.54-1.01.92-1.29.79-.41,1.23-.41.84.14,1.22.41.69.7.93,1.29c.24.58.36,1.35.36,2.29s-.12,1.68-.36,2.26c-.24.58-.54,1.01-.93,1.28s-.79.4-1.22.4ZM403.61,362.43c.19,0,.37-.06.54-.18.17-.12.33-.31.46-.59.14-.27.25-.64.33-1.1.09-.46.13-1.04.13-1.73s-.04-1.28-.13-1.75c-.09-.47-.2-.84-.33-1.11-.14-.27-.29-.47-.46-.59-.17-.12-.35-.18-.54-.18s-.37.06-.54.18c-.17.12-.33.32-.47.59-.14.28-.25.65-.33,1.12-.08.47-.12,1.05-.12,1.75s.04,1.26.12,1.73c.08.46.19.83.33,1.1.14.27.3.47.47.59.17.12.35.18.54.18Z"/>
      </g>
      <g>
        <path d="M444.06,362.78c-.62,0-1.12-.14-1.52-.42-.4-.28-.64-.67-.72-1.18.04-.11.11-.2.2-.26s.19-.09.3-.09c.16,0,.28.04.36.13.08.09.15.24.19.46l.28,1.02-.37-.3c.18.1.35.17.52.22s.37.07.61.07c.59,0,1.05-.17,1.38-.52.33-.35.5-.84.5-1.47s-.16-1.15-.48-1.45-.75-.46-1.28-.46c-.47,0-.9.08-1.28.24l-.28-.12.25-3.62h3.95v.86h-3.77l.23-.58-.23,3.25-.35-.11c.29-.15.58-.25.86-.31s.57-.09.89-.09c.8,0,1.43.2,1.91.59.47.39.71.96.71,1.71,0,.5-.12.93-.36,1.29-.24.37-.57.65-.99.84s-.92.3-1.5.3Z"/>
        <path d="M450.44,362.78c-.44,0-.85-.13-1.23-.4-.38-.27-.69-.69-.92-1.28-.23-.58-.35-1.33-.35-2.26s.12-1.7.35-2.29.54-1.01.92-1.29c.38-.27.79-.41,1.23-.41s.84.14,1.22.41c.38.27.69.7.93,1.29.24.58.36,1.35.36,2.29s-.12,1.68-.36,2.26c-.24.58-.55,1.01-.93,1.28-.38.27-.79.4-1.22.4ZM450.44,362.43c.19,0,.37-.06.54-.18.17-.12.33-.31.46-.59.14-.27.25-.64.33-1.1.09-.46.13-1.04.13-1.73s-.04-1.28-.13-1.75c-.09-.47-.2-.84-.33-1.11-.14-.27-.29-.47-.46-.59s-.35-.18-.54-.18-.37.06-.54.18c-.17.12-.33.32-.47.59-.14.28-.25.65-.33,1.12-.08.47-.12,1.05-.12,1.75s.04,1.26.12,1.73c.08.46.19.83.33,1.1.14.27.3.47.47.59.17.12.35.18.54.18Z"/>
        <path d="M456.48,362.78c-.44,0-.85-.13-1.23-.4-.38-.27-.69-.69-.92-1.28-.23-.58-.35-1.33-.35-2.26s.12-1.7.35-2.29.54-1.01.92-1.29c.38-.27.79-.41,1.23-.41s.84.14,1.22.41c.38.27.69.7.93,1.29.24.58.36,1.35.36,2.29s-.12,1.68-.36,2.26c-.24.58-.55,1.01-.93,1.28-.38.27-.79.4-1.22.4ZM456.48,362.43c.19,0,.37-.06.54-.18.17-.12.33-.31.46-.59.14-.27.25-.64.33-1.1.09-.46.13-1.04.13-1.73s-.04-1.28-.13-1.75c-.09-.47-.2-.84-.33-1.11-.14-.27-.29-.47-.46-.59s-.35-.18-.54-.18-.37.06-.54.18c-.17.12-.33.32-.47.59-.14.28-.25.65-.33,1.12-.08.47-.12,1.05-.12,1.75s.04,1.26.12,1.73c.08.46.19.83.33,1.1.14.27.3.47.47.59.17.12.35.18.54.18Z"/>
      </g>
      <g>
        <path d="M494.37,362.78l-.09-.08,3.55-6.99v.48l-.08-.15h-4.38v-.86h4.85v.55l-2.85,7.04h-1Z"/>
        <path d="M501.52,362.94c-.62,0-1.12-.14-1.52-.42-.39-.28-.63-.67-.72-1.18.04-.11.11-.2.2-.26s.19-.09.3-.09c.16,0,.28.04.36.13.08.09.15.24.19.46l.28,1.02-.37-.3c.18.1.35.17.52.22s.37.07.61.07c.59,0,1.05-.17,1.38-.52.33-.35.5-.84.5-1.47s-.16-1.15-.48-1.45-.74-.46-1.28-.46c-.47,0-.9.08-1.28.24l-.28-.12.25-3.62h3.95v.86h-3.77l.23-.58-.23,3.25-.36-.11c.29-.15.58-.25.86-.31s.57-.09.89-.09c.8,0,1.43.2,1.91.59.47.39.71.96.71,1.71,0,.5-.12.93-.36,1.29-.24.37-.57.65-.99.84-.42.2-.92.3-1.5.3Z"/>
        <path d="M507.9,362.94c-.44,0-.85-.13-1.23-.4-.38-.27-.69-.69-.92-1.28-.23-.58-.35-1.33-.35-2.26s.12-1.7.35-2.29.54-1.01.92-1.29c.38-.27.79-.41,1.23-.41s.84.14,1.22.41c.38.27.69.7.93,1.29.24.58.36,1.35.36,2.29s-.12,1.68-.36,2.26c-.24.58-.55,1.01-.93,1.28-.38.27-.79.4-1.22.4ZM507.9,362.59c.19,0,.37-.06.54-.18.17-.12.33-.31.46-.59.14-.27.25-.64.33-1.1.09-.46.13-1.04.13-1.73s-.04-1.28-.13-1.75c-.09-.47-.2-.84-.33-1.11-.14-.27-.29-.47-.46-.59s-.35-.18-.54-.18-.37.06-.54.18c-.17.12-.33.32-.47.59-.14.28-.25.65-.33,1.12-.08.47-.12,1.05-.12,1.75s.04,1.26.12,1.73c.08.46.19.83.33,1.1.14.27.3.47.47.59.17.12.35.18.54.18Z"/>
      </g>
      <g>
        <path d="M543.57,362.78v-.3l1.78-.17h.93l1.67.17v.3h-4.37ZM545.24,362.78c.02-.83.03-1.66.03-2.49v-4.5l-1.52.23v-.34l2.46-.6.16.12-.04,1.71v3.39c0,.4,0,.81.01,1.23,0,.42.01.84.02,1.25h-1.12Z"/>
        <path d="M551.73,362.94c-.44,0-.85-.13-1.23-.4-.38-.27-.69-.69-.92-1.28-.23-.58-.35-1.33-.35-2.26s.12-1.7.35-2.29.54-1.01.92-1.29c.38-.27.79-.41,1.23-.41s.84.14,1.22.41c.38.27.69.7.93,1.29.24.58.36,1.35.36,2.29s-.12,1.68-.36,2.26c-.24.58-.55,1.01-.93,1.28-.38.27-.79.4-1.22.4ZM551.73,362.59c.19,0,.37-.06.54-.18.17-.12.33-.31.46-.59.14-.27.25-.64.33-1.1.09-.46.13-1.04.13-1.73s-.04-1.28-.13-1.75c-.09-.47-.2-.84-.33-1.11-.14-.27-.29-.47-.46-.59s-.35-.18-.54-.18-.37.06-.54.18c-.17.12-.33.32-.47.59-.14.28-.25.65-.33,1.12-.08.47-.12,1.05-.12,1.75s.04,1.26.12,1.73c.08.46.19.83.33,1.1.14.27.3.47.47.59.17.12.35.18.54.18Z"/>
        <path d="M557.77,362.94c-.44,0-.85-.13-1.23-.4-.38-.27-.69-.69-.92-1.28-.23-.58-.35-1.33-.35-2.26s.12-1.7.35-2.29.54-1.01.92-1.29c.38-.27.79-.41,1.23-.41s.84.14,1.22.41c.38.27.69.7.93,1.29.24.58.36,1.35.36,2.29s-.12,1.68-.36,2.26c-.24.58-.55,1.01-.93,1.28-.38.27-.79.4-1.22.4ZM557.77,362.59c.19,0,.37-.06.54-.18.17-.12.33-.31.46-.59.14-.27.25-.64.33-1.1.09-.46.13-1.04.13-1.73s-.04-1.28-.13-1.75c-.09-.47-.2-.84-.33-1.11-.14-.27-.29-.47-.46-.59s-.35-.18-.54-.18-.37.06-.54.18c-.17.12-.33.32-.47.59-.14.28-.25.65-.33,1.12-.08.47-.12,1.05-.12,1.75s.04,1.26.12,1.73c.08.46.19.83.33,1.1.14.27.3.47.47.59.17.12.35.18.54.18Z"/>
        <path d="M563.81,362.94c-.44,0-.85-.13-1.23-.4s-.69-.69-.92-1.28c-.23-.58-.35-1.33-.35-2.26s.12-1.7.35-2.29.54-1.01.92-1.29.79-.41,1.23-.41.84.14,1.22.41.69.7.93,1.29c.24.58.36,1.35.36,2.29s-.12,1.68-.36,2.26c-.24.58-.54,1.01-.93,1.28s-.79.4-1.22.4ZM563.81,362.59c.19,0,.37-.06.54-.18.17-.12.33-.31.46-.59.14-.27.25-.64.33-1.1.09-.46.13-1.04.13-1.73s-.04-1.28-.13-1.75c-.09-.47-.2-.84-.33-1.11-.14-.27-.29-.47-.46-.59-.17-.12-.35-.18-.54-.18s-.37.06-.54.18c-.17.12-.33.32-.47.59-.14.28-.25.65-.33,1.12-.08.47-.12,1.05-.12,1.75s.04,1.26.12,1.73c.08.46.19.83.33,1.1.14.27.3.47.47.59.17.12.35.18.54.18Z"/>
      </g>
    </g>
    <g id="_레이어_4" data-name="레이어_4">
      <polyline class="cls-3" points="346.4 198.09 347.98 198.09 347.98 257.95 364.53 257.95 364.53 292.02 552.89 292.02"/>
      <polyline class="cls-2" points="346.4 243.14 347.6 243.14 347.6 292.68 364.92 292.68 364.92 334.42 552.89 334.42"/>
    </g>
  </g>
</svg>