<?xml version="1.0" encoding="UTF-8"?>
<svg xmlns="http://www.w3.org/2000/svg" version="1.1" viewBox="0 0 600 600">
  <defs>
    <style>
      .cls-1, .cls-2, .cls-3, .cls-4 {
        stroke-miterlimit: 10;
      }

      .cls-1, .cls-5, .cls-6, .cls-4 {
        fill: none;
      }

      .cls-1, .cls-3 {
        stroke: #231815;
      }

      .cls-2 {
        stroke: #e60012;
      }

      .cls-2, .cls-3, .cls-7 {
        fill: #d9d8ff;
      }

      .cls-8 {
        fill: #ffd6da;
      }

      .cls-6 {
        stroke: #000;
        stroke-linecap: square;
        stroke-width: .8px;
      }

      .cls-4 {
        stroke: #1d2088;
      }
    </style>
  </defs>
  <!-- Generator: Adobe Illustrator 28.7.1, SVG Export Plug-In . SVG Version: 1.2.0 Build 142)  -->
  <g>
    <g id="_레이어_1" data-name="레이어_1">
      <rect class="cls-5" x="50.22" y="188.74" width="202.58" height="202.58"/>
      <g id="patch_4">
        <path class="cls-6" d="M50.22,391.31v-202.58"/>
      </g>
      <g id="patch_5">
        <path class="cls-6" d="M252.8,391.31v-202.58"/>
      </g>
      <g id="patch_6">
        <path class="cls-6" d="M50.22,391.31h202.58"/>
      </g>
      <g id="patch_7">
        <path class="cls-6" d="M50.22,188.74h202.58"/>
      </g>
      <rect class="cls-8" x="350.78" y="188.28" width="202.61" height="202.61"/>
      <rect class="cls-5" x="350.78" y="188.27" width="202.61" height="202.61"/>
      <rect class="cls-5" x="350.78" y="188.27" width="202.61" height="202.61"/>
      <g id="patch_3">
        <path class="cls-6" d="M350.78,390.89v-202.61"/>
      </g>
      <g id="patch_4-2" data-name="patch_4">
        <path class="cls-6" d="M553.39,390.89v-202.61"/>
      </g>
      <g id="patch_5-2" data-name="patch_5">
        <path class="cls-6" d="M350.78,390.89h202.61"/>
      </g>
      <circle class="cls-3" cx="452.08" cy="289.42" r="79.17"/>
      <g id="patch_6-2" data-name="patch_6">
        <path class="cls-6" d="M350.78,188.28h202.61"/>
      </g>
    </g>
    <g id="_레이어_2" data-name="레이어_2">
      <line class="cls-1" x1="50.22" y1="188.74" x2="252.8" y2="391.31"/>
      <polygon class="cls-8" points="249.53 390.2 51.44 390.2 51.44 191.52 249.53 390.2"/>
      <polygon class="cls-7" points="52.85 190.08 250.95 190.08 250.95 388.76 52.85 190.08"/>
      <circle class="cls-4" cx="70.7" cy="201.32" r="5.62"/>
      <circle class="cls-4" cx="86.95" cy="212.57" r="5.62"/>
      <circle class="cls-4" cx="166.68" cy="232.8" r="5.62"/>
      <circle class="cls-4" cx="161.05" cy="257.4" r="5.62"/>
      <circle class="cls-4" cx="151.51" cy="275.65" r="5.62"/>
      <circle class="cls-4" cx="201.89" cy="197.14" r="5.62"/>
      <circle class="cls-4" cx="246.11" cy="208.39" r="5.62"/>
      <circle class="cls-4" cx="88.48" cy="381.01" r="5.62"/>
      <circle class="cls-4" cx="400.87" cy="251.97" r="5.62"/>
      <circle class="cls-4" cx="418.77" cy="300.69" r="5.62"/>
      <circle class="cls-4" cx="450.37" cy="307.34" r="5.62"/>
      <circle class="cls-4" cx="468.96" cy="320.45" r="5.62"/>
      <circle class="cls-4" cx="452.08" cy="275.65" r="5.62"/>
      <circle class="cls-4" cx="450.37" cy="251.97" r="5.62"/>
      <circle class="cls-4" cx="460.55" cy="256.67" r="5.62"/>
      <circle class="cls-4" cx="466.17" cy="231.63" r="5.62"/>
      <circle class="cls-4" cx="432.37" cy="215.78" r="5.62"/>
      <line class="cls-2" x1="71.26" y1="230.94" x2="77.62" y2="237.3"/>
      <line class="cls-2" x1="71.26" y1="237.3" x2="77.62" y2="230.94"/>
      <line class="cls-2" x1="99.03" y1="250.16" x2="105.39" y2="256.52"/>
      <line class="cls-2" x1="99.03" y1="256.52" x2="105.39" y2="250.16"/>
      <line class="cls-2" x1="130.55" y1="213.99" x2="136.91" y2="220.35"/>
      <line class="cls-2" x1="130.55" y1="220.35" x2="136.91" y2="213.99"/>
      <line class="cls-2" x1="73.9" y1="372.2" x2="80.26" y2="378.56"/>
      <line class="cls-2" x1="73.9" y1="378.56" x2="80.26" y2="372.2"/>
      <line class="cls-2" x1="76.5" y1="358.7" x2="82.86" y2="365.06"/>
      <line class="cls-2" x1="76.5" y1="365.06" x2="82.86" y2="358.7"/>
      <line class="cls-2" x1="59.28" y1="381.01" x2="65.64" y2="387.36"/>
      <line class="cls-2" x1="59.28" y1="387.36" x2="65.64" y2="381.01"/>
      <line class="cls-2" x1="200.87" y1="358.46" x2="207.22" y2="364.82"/>
      <line class="cls-2" x1="200.87" y1="364.82" x2="207.22" y2="358.46"/>
      <line class="cls-2" x1="221.9" y1="366.38" x2="228.26" y2="372.74"/>
      <line class="cls-2" x1="221.9" y1="372.74" x2="228.26" y2="366.38"/>
      <line class="cls-2" x1="165.58" y1="316.66" x2="171.93" y2="323.02"/>
      <line class="cls-2" x1="165.58" y1="323.02" x2="171.93" y2="316.66"/>
      <line class="cls-2" x1="148.33" y1="304.07" x2="154.69" y2="310.42"/>
      <line class="cls-2" x1="148.33" y1="310.42" x2="154.69" y2="304.07"/>
      <line class="cls-2" x1="117.81" y1="296.83" x2="124.17" y2="303.19"/>
      <line class="cls-2" x1="117.81" y1="303.19" x2="124.17" y2="296.83"/>
      <line class="cls-2" x1="382.3" y1="207.07" x2="388.66" y2="213.43"/>
      <line class="cls-2" x1="382.3" y1="213.43" x2="388.66" y2="207.07"/>
      <line class="cls-2" x1="368.87" y1="229.62" x2="375.22" y2="235.98"/>
      <line class="cls-2" x1="368.87" y1="235.98" x2="375.22" y2="229.62"/>
      <line class="cls-2" x1="366.62" y1="196.08" x2="372.97" y2="202.44"/>
      <line class="cls-2" x1="366.62" y1="202.44" x2="372.97" y2="196.08"/>
      <line class="cls-2" x1="499.17" y1="192.15" x2="505.53" y2="198.51"/>
      <line class="cls-2" x1="499.17" y1="198.51" x2="505.53" y2="192.15"/>
      <line class="cls-2" x1="545.34" y1="204.41" x2="551.7" y2="210.77"/>
      <line class="cls-2" x1="545.34" y1="210.77" x2="551.7" y2="204.41"/>
      <line class="cls-2" x1="522.29" y1="367.23" x2="528.65" y2="373.59"/>
      <line class="cls-2" x1="522.29" y1="373.59" x2="528.65" y2="367.23"/>
      <line class="cls-2" x1="501.52" y1="359.63" x2="507.88" y2="365.99"/>
      <line class="cls-2" x1="501.52" y1="365.99" x2="507.88" y2="359.63"/>
      <line class="cls-2" x1="374.26" y1="360.15" x2="380.62" y2="366.51"/>
      <line class="cls-2" x1="374.26" y1="366.51" x2="380.62" y2="360.15"/>
      <line class="cls-2" x1="371.08" y1="373.69" x2="377.44" y2="380.04"/>
      <line class="cls-2" x1="371.08" y1="380.04" x2="377.44" y2="373.69"/>
      <line class="cls-2" x1="356.7" y1="383.73" x2="363.06" y2="390.09"/>
      <line class="cls-2" x1="356.7" y1="390.09" x2="363.06" y2="383.73"/>
      <line class="cls-2" x1="383.38" y1="378.72" x2="389.74" y2="385.08"/>
      <line class="cls-2" x1="383.38" y1="385.08" x2="389.74" y2="378.72"/>
      <circle class="cls-1" cx="452.3" cy="288.84" r="79.17"/>
      <g>
        <path d="M137.37,427.47c-.87,0-1.67-.14-2.39-.41-.72-.27-1.35-.67-1.89-1.19-.54-.52-.95-1.16-1.24-1.91s-.43-1.61-.43-2.57.15-1.82.45-2.58c.3-.76.72-1.41,1.26-1.95.54-.54,1.17-.95,1.9-1.22.73-.28,1.51-.42,2.35-.42.67,0,1.27.07,1.79.22.52.14,1.04.37,1.55.68l.03,2.62h-.77l-.62-2.9.91.3v.56c-.44-.33-.86-.57-1.27-.7s-.87-.21-1.37-.21c-.85,0-1.62.21-2.29.63-.67.42-1.2,1.05-1.58,1.87-.38.83-.57,1.85-.57,3.06s.19,2.22.57,3.05c.38.83.9,1.45,1.56,1.87.66.42,1.41.63,2.26.63.5,0,.98-.07,1.42-.22.45-.14.9-.38,1.34-.71v.54l-.88.27.64-2.85h.75v2.61c-.53.32-1.08.55-1.64.7-.56.14-1.18.22-1.85.22Z"/>
        <path d="M144.68,427.44c-.64,0-1.17-.18-1.6-.54s-.64-.88-.64-1.55c0-.43.09-.8.28-1.14.19-.33.5-.63.94-.89.44-.26,1.02-.5,1.76-.71.44-.13.91-.26,1.41-.38s.97-.25,1.39-.35v.4c-.43.11-.86.22-1.29.34-.43.12-.82.25-1.16.38-.65.25-1.12.54-1.4.89-.28.35-.42.76-.42,1.24s.13.86.39,1.1c.26.25.6.37,1.03.37.22,0,.45-.04.67-.13.22-.08.48-.24.77-.47s.63-.55,1.02-.95l.16.78h-.43c-.32.35-.62.65-.91.89-.29.24-.59.42-.9.54-.31.12-.67.18-1.07.18ZM149,427.42c-.49,0-.86-.16-1.11-.48s-.4-.76-.44-1.31v-4.27c0-.6-.06-1.06-.19-1.38-.13-.32-.32-.54-.58-.67-.26-.13-.6-.19-1.02-.19-.3,0-.6.04-.9.12-.3.08-.64.22-1,.41l.78-.43-.24,1.26c-.03.33-.13.57-.28.7s-.34.21-.55.21c-.43,0-.69-.21-.78-.62.14-.67.5-1.2,1.1-1.58.59-.38,1.37-.58,2.34-.58s1.69.23,2.14.69c.46.46.69,1.2.69,2.22v4.02c0,.46.06.77.17.94.11.17.27.26.47.26.13,0,.25-.03.35-.1.11-.06.23-.18.37-.34l.26.22c-.17.31-.39.54-.65.68-.26.14-.57.22-.92.22Z"/>
        <path d="M154.3,427.44c-.54,0-1.03-.06-1.46-.17-.43-.11-.87-.28-1.3-.5l.02-1.95h.75l.42,2.08-.64-.05v-.58c.32.2.64.36.97.47.33.11.72.17,1.18.17.69,0,1.22-.14,1.57-.41.35-.27.53-.64.53-1.1,0-.38-.12-.7-.35-.94-.23-.25-.68-.47-1.34-.67l-.85-.3c-.65-.22-1.17-.53-1.56-.9-.39-.38-.58-.88-.58-1.5,0-.7.27-1.29.81-1.77s1.31-.71,2.31-.71c.5,0,.94.06,1.33.18s.78.3,1.2.54l-.06,1.76h-.69l-.45-1.94.54.13v.51c-.32-.23-.62-.4-.91-.5-.29-.1-.6-.14-.94-.14-.59,0-1.03.13-1.34.39-.31.26-.46.6-.46,1.02,0,.36.13.66.38.9.25.24.67.46,1.26.66l.83.29c.82.28,1.41.61,1.75,1.01.35.4.52.88.52,1.46,0,.49-.13.93-.39,1.32-.26.39-.64.69-1.14.91-.5.22-1.12.33-1.86.33Z"/>
        <path d="M163.31,427.44c-.81,0-1.53-.17-2.16-.5-.63-.33-1.12-.82-1.48-1.48-.36-.66-.54-1.46-.54-2.42s.19-1.71.56-2.37c.37-.66.87-1.17,1.49-1.53.62-.36,1.29-.54,2-.54s1.34.15,1.85.45c.51.3.89.7,1.15,1.21.26.51.39,1.08.39,1.74,0,.38-.03.7-.1.96h-6.64v-.51h4.48c.3,0,.5-.08.61-.24s.16-.42.16-.77c0-.69-.17-1.25-.51-1.67-.34-.42-.82-.63-1.44-.63-.44,0-.83.14-1.19.42-.36.28-.64.7-.86,1.25-.21.55-.32,1.22-.32,2.02,0,.86.13,1.58.39,2.14.26.56.62.97,1.06,1.22.45.26.96.38,1.55.38s1.05-.1,1.46-.3c.41-.2.77-.49,1.08-.86l.27.21c-.34.58-.79,1.02-1.34,1.34-.55.32-1.2.48-1.94.48Z"/>
        <path d="M172.7,427.2v-.45l2.64-.26h1.38l2.48.26v.45h-6.5ZM175.18,427.2c.03-1.24.05-2.47.05-3.7v-6.69l-2.26.34v-.51l3.65-.9.24.18-.06,2.54v5.04c0,.6,0,1.21.02,1.83.01.62.02,1.25.03,1.86h-1.66Z"/>
      </g>
      <g>
        <path d="M439.19,427.47c-.88,0-1.67-.14-2.39-.41-.72-.27-1.35-.67-1.89-1.19s-.95-1.16-1.24-1.91-.43-1.61-.43-2.57.15-1.82.45-2.58c.3-.76.72-1.41,1.26-1.95.54-.54,1.17-.95,1.9-1.22.73-.28,1.51-.42,2.35-.42.67,0,1.27.07,1.79.22.52.14,1.04.37,1.55.68l.03,2.62h-.77l-.62-2.9.91.3v.56c-.44-.33-.86-.57-1.27-.7-.41-.14-.87-.21-1.37-.21-.85,0-1.62.21-2.29.63-.67.42-1.2,1.05-1.58,1.87-.38.83-.57,1.85-.57,3.06s.19,2.22.57,3.05c.38.83.9,1.45,1.56,1.87.66.42,1.41.63,2.26.63.5,0,.98-.07,1.42-.22.45-.14.9-.38,1.34-.71v.54l-.88.27.64-2.85h.75v2.61c-.53.32-1.08.55-1.64.7-.56.14-1.18.22-1.85.22Z"/>
        <path d="M446.5,427.44c-.64,0-1.17-.18-1.6-.54s-.64-.88-.64-1.55c0-.43.09-.8.28-1.14.19-.33.5-.63.94-.89s1.02-.5,1.76-.71c.44-.13.91-.26,1.41-.38.5-.13.97-.25,1.39-.35v.4c-.43.11-.86.22-1.29.34-.43.12-.82.25-1.16.38-.65.25-1.12.54-1.4.89-.28.35-.42.76-.42,1.24s.13.86.39,1.1c.26.25.6.37,1.03.37.22,0,.45-.04.67-.13.22-.08.48-.24.77-.47s.63-.55,1.02-.95l.16.78h-.43c-.32.35-.62.65-.91.89-.29.24-.59.42-.9.54-.31.12-.67.18-1.07.18ZM450.82,427.43c-.49,0-.86-.16-1.11-.48-.25-.32-.4-.76-.44-1.31v-4.27c0-.6-.06-1.06-.19-1.38-.13-.32-.32-.54-.58-.67-.26-.13-.6-.19-1.02-.19-.3,0-.6.04-.9.12-.3.08-.64.22-1,.41l.78-.43-.24,1.26c-.03.33-.13.57-.28.7-.16.14-.34.21-.55.21-.43,0-.69-.21-.78-.62.14-.67.5-1.2,1.1-1.58.59-.38,1.37-.58,2.34-.58s1.69.23,2.14.69c.46.46.69,1.2.69,2.22v4.02c0,.46.06.77.17.94.11.17.27.26.47.26.13,0,.25-.03.35-.1.11-.06.23-.18.37-.34l.26.22c-.17.31-.39.54-.65.68-.26.14-.57.22-.92.22Z"/>
        <path d="M456.12,427.44c-.54,0-1.03-.06-1.46-.17-.43-.11-.87-.28-1.3-.5l.02-1.95h.75l.42,2.08-.64-.05v-.58c.32.2.64.36.97.47.33.11.72.17,1.18.17.69,0,1.22-.14,1.57-.41.35-.27.53-.64.53-1.1,0-.38-.12-.7-.35-.94-.24-.25-.68-.47-1.34-.67l-.85-.3c-.65-.22-1.17-.53-1.56-.9-.39-.38-.58-.88-.58-1.5,0-.7.27-1.29.81-1.77.54-.47,1.31-.71,2.31-.71.5,0,.94.06,1.33.18s.78.3,1.2.54l-.06,1.76h-.69l-.45-1.94.54.13v.51c-.32-.23-.62-.4-.91-.5-.29-.1-.6-.14-.94-.14-.59,0-1.04.13-1.34.39-.31.26-.46.6-.46,1.02,0,.36.13.66.38.9.25.24.67.46,1.26.66l.83.29c.82.28,1.41.61,1.75,1.01.35.4.52.88.52,1.46,0,.49-.13.93-.39,1.32-.26.39-.64.69-1.14.91s-1.12.33-1.86.33Z"/>
        <path d="M465.12,427.44c-.81,0-1.53-.17-2.16-.5-.63-.33-1.12-.82-1.48-1.48-.36-.66-.54-1.46-.54-2.42s.19-1.71.56-2.37c.37-.66.87-1.17,1.49-1.53.62-.36,1.29-.54,2-.54s1.34.15,1.85.45c.51.3.89.7,1.15,1.21.26.51.39,1.08.39,1.74,0,.38-.03.7-.1.96h-6.64v-.51h4.48c.3,0,.5-.08.61-.24s.16-.42.16-.77c0-.69-.17-1.25-.51-1.67-.34-.42-.82-.63-1.44-.63-.44,0-.83.14-1.19.42-.36.28-.64.7-.86,1.25-.21.55-.32,1.22-.32,2.02,0,.86.13,1.58.39,2.14.26.56.62.97,1.06,1.22.45.26.96.38,1.55.38s1.05-.1,1.46-.3c.41-.2.77-.49,1.08-.86l.27.21c-.34.58-.79,1.02-1.34,1.34-.55.32-1.2.48-1.94.48Z"/>
        <path d="M474.03,427.2v-.98c.52-.55,1.03-1.11,1.52-1.66.49-.55.93-1.03,1.33-1.45.55-.6,1.01-1.15,1.37-1.66.36-.51.62-.99.8-1.46.18-.46.26-.94.26-1.42,0-.77-.2-1.36-.59-1.78-.39-.42-.94-.63-1.63-.63-.28,0-.55.04-.83.11-.28.08-.58.21-.91.4l.69-.45-.42,1.58c-.07.35-.19.59-.34.72s-.33.19-.53.19c-.16,0-.3-.04-.43-.14s-.22-.22-.29-.39c.09-.55.3-1.02.64-1.4.34-.38.77-.66,1.28-.86.51-.19,1.06-.29,1.63-.29,1.11,0,1.94.27,2.5.8.55.53.83,1.25.83,2.16,0,.49-.12.98-.35,1.46s-.61,1.01-1.14,1.58c-.52.57-1.22,1.23-2.1,2-.18.16-.41.38-.7.65-.28.27-.59.57-.94.89-.34.32-.68.65-1.02.99l.16-.53.02.26h6.51v1.28h-7.33Z"/>
      </g>
    </g>
  </g>
</svg>