<?xml version="1.0" encoding="UTF-8"?>
<svg xmlns="http://www.w3.org/2000/svg" version="1.1" viewBox="0 0 600 600">
  <defs>
    <style>
      .cls-1 {
        stroke: #e60012;
      }

      .cls-1, .cls-2 {
        fill: #d9d8ff;
      }

      .cls-1, .cls-2, .cls-3 {
        stroke-miterlimit: 10;
      }

      .cls-4, .cls-5, .cls-3 {
        fill: none;
      }

      .cls-2 {
        stroke: #231815;
      }

      .cls-6 {
        fill: #ffd6da;
      }

      .cls-5 {
        stroke: #000;
        stroke-linecap: square;
        stroke-width: .8px;
      }

      .cls-3 {
        stroke: #1d2088;
      }
    </style>
  </defs>
  <!-- Generator: Adobe Illustrator 28.7.1, SVG Export Plug-In . SVG Version: 1.2.0 Build 142)  -->
  <g>
    <g id="_레이어_4" data-name="레이어_4">
      <rect class="cls-6" x="146.51" y="148.25" width="304.93" height="304.93"/>
    </g>
    <g id="_레이어_3" data-name="레이어_3">
      <path class="cls-2" d="M450.43,172.4c-16.08-10.79-30.93-15.78-40.64-18.26-11.7-2.98-25.86-6.59-43.59-2.65-4.57,1.01-14.74,3.72-25.62,10.9-4.6,3.03-9.67,7.09-31.22,35.93-4.64,6.21-13.13,17.71-22.19,33.38-5.07,8.78-8.77,16.18-8.44,25.52.17,4.98,1.23,10.17,2.36,13.55,0,0,2.21,8.75,5.89,16.49,5.14,10.81,13.16,18.35,26.7,31.61,15.15,14.85,11.88,12.13,34.16,33.77,7.2,7,15.53,15,27.88,22.77,6.91,4.35,14.49,8.26,23.56,7.46,4.31-.38,7.82-1.73,9.42-2.36,7.84-3.06,12.71-7.93,15.9-11.19,7.81-7.96,16.87-17.35,26.9-28.27"/>
      <path class="cls-2" d="M147.09,148.94c7.95,8.79,20.52,31.27,36.22,40.25,6.42,3.67,12.74,6.43,20.32,5.89,5.32-.38,9.18-2.24,13.84-4.71,15.01-7.95,28.18-15.06,44.76-30.33,3.04-2.8,7.27-6.87,12.07-12.07"/>
      <path class="cls-2" d="M165.79,452.47c6.44-6.4,12.35-11.01,16.79-14.14,4.95-3.49,7.58-5.32,11.49-6.77,4.58-1.7,10.28-2.64,21.94-1.03,14.28,1.97,16.46,4.86,31.32,7.9,9.9,2.03,17.54,2.51,24.54,2.94,5.06.32,7.89.32,32.79,0,13.99-.18,21.01-.27,22.38-.39,9.82-.89,17.87-2.75,33.97-6.48,13.34-3.09,16.57-4.28,23.36-3.93,2.99.16,10.29.61,18.46,4.32,4.47,2.03,5.95,3.56,19.93,12.86,3.3,2.2,6.01,3.97,7.76,5.1"/>
    </g>
    <g id="_레이어_1" data-name="레이어_1">
      <rect class="cls-4" x="146.51" y="148.25" width="304.93" height="304.92"/>
      <g id="patch_4">
        <path class="cls-5" d="M146.51,453.17V148.25"/>
      </g>
      <g id="patch_5">
        <path class="cls-5" d="M451.43,453.17V148.25"/>
      </g>
      <g id="patch_6">
        <path class="cls-5" d="M146.51,453.17h304.93"/>
      </g>
      <g id="patch_7">
        <path class="cls-5" d="M146.51,148.25h304.93"/>
      </g>
    </g>
    <g id="_레이어_2" data-name="레이어_2">
      <circle class="cls-3" cx="177.34" cy="167.19" r="8.47"/>
      <circle class="cls-3" cx="201.79" cy="184.13" r="8.47"/>
      <circle class="cls-3" cx="321.8" cy="214.57" r="8.47"/>
      <circle class="cls-3" cx="313.34" cy="251.61" r="8.47"/>
      <circle class="cls-3" cx="298.97" cy="279.07" r="8.47"/>
      <circle class="cls-3" cx="374.81" cy="160.9" r="8.47"/>
      <circle class="cls-3" cx="441.37" cy="177.84" r="8.47"/>
      <circle class="cls-3" cx="204.1" cy="437.66" r="8.47"/>
      <line class="cls-1" x1="178.19" y1="211.78" x2="187.76" y2="221.35"/>
      <line class="cls-1" x1="178.19" y1="221.35" x2="187.76" y2="211.78"/>
      <line class="cls-1" x1="219.98" y1="240.71" x2="229.55" y2="250.28"/>
      <line class="cls-1" x1="219.98" y1="250.28" x2="229.55" y2="240.71"/>
      <line class="cls-1" x1="267.43" y1="186.27" x2="277" y2="195.84"/>
      <line class="cls-1" x1="267.43" y1="195.84" x2="277" y2="186.27"/>
      <line class="cls-1" x1="182.16" y1="424.41" x2="191.73" y2="433.98"/>
      <line class="cls-1" x1="182.16" y1="433.98" x2="191.73" y2="424.41"/>
      <line class="cls-1" x1="186.06" y1="404.09" x2="195.63" y2="413.66"/>
      <line class="cls-1" x1="186.06" y1="413.66" x2="195.63" y2="404.09"/>
      <line class="cls-1" x1="160.15" y1="437.66" x2="169.72" y2="447.23"/>
      <line class="cls-1" x1="160.15" y1="447.23" x2="169.72" y2="437.66"/>
      <line class="cls-1" x1="373.27" y1="403.72" x2="382.84" y2="413.29"/>
      <line class="cls-1" x1="373.27" y1="413.29" x2="382.84" y2="403.72"/>
      <line class="cls-1" x1="404.93" y1="415.64" x2="414.5" y2="425.22"/>
      <line class="cls-1" x1="404.93" y1="425.22" x2="414.5" y2="415.64"/>
      <line class="cls-1" x1="320.15" y1="340.8" x2="329.72" y2="350.38"/>
      <line class="cls-1" x1="320.15" y1="350.38" x2="329.72" y2="340.8"/>
      <line class="cls-1" x1="294.18" y1="321.85" x2="303.76" y2="331.42"/>
      <line class="cls-1" x1="294.18" y1="331.42" x2="303.76" y2="321.85"/>
      <line class="cls-1" x1="248.25" y1="310.95" x2="257.82" y2="320.52"/>
      <line class="cls-1" x1="248.25" y1="320.52" x2="257.82" y2="310.95"/>
    </g>
  </g>
</svg>