<?xml version="1.0" encoding="UTF-8"?>
<svg xmlns="http://www.w3.org/2000/svg" version="1.1" viewBox="0 0 600 600">
  <defs>
    <style>
      .cls-1, .cls-2, .cls-3, .cls-4 {
        stroke-miterlimit: 10;
      }

      .cls-1, .cls-5, .cls-6, .cls-4 {
        fill: none;
      }

      .cls-1, .cls-3 {
        stroke: #231815;
      }

      .cls-2 {
        stroke: #e60012;
      }

      .cls-2, .cls-3 {
        fill: #d9d8ff;
      }

      .cls-7 {
        fill: #ffd6da;
      }

      .cls-6 {
        stroke: #000;
        stroke-linecap: square;
        stroke-width: .8px;
      }

      .cls-4 {
        stroke: #1d2088;
      }
    </style>
  </defs>
  <!-- Generator: Adobe Illustrator 28.7.1, SVG Export Plug-In . SVG Version: 1.2.0 Build 142)  -->
  <g>
    <g id="_레이어_1" data-name="레이어_1">
      <rect class="cls-7" x="149.99" y="158.52" width="291.13" height="291.13"/>
      <rect class="cls-5" x="149.99" y="158.52" width="291.13" height="291.13"/>
      <rect class="cls-5" x="149.99" y="158.52" width="291.13" height="291.13"/>
      <g id="patch_3">
        <path class="cls-6" d="M149.99,449.65V158.52"/>
      </g>
      <g id="patch_4">
        <path class="cls-6" d="M441.12,449.65V158.52"/>
      </g>
      <g id="patch_5">
        <path class="cls-6" d="M149.99,449.65h291.13"/>
      </g>
      <circle class="cls-3" cx="295.56" cy="303.86" r="113.76"/>
      <g id="patch_6">
        <path class="cls-6" d="M149.99,158.52h291.13"/>
      </g>
    </g>
    <g id="_레이어_2" data-name="레이어_2">
      <circle class="cls-4" cx="221.97" cy="250.05" r="8.08"/>
      <circle class="cls-4" cx="247.69" cy="320.05" r="8.08"/>
      <circle class="cls-4" cx="293.1" cy="329.61" r="8.08"/>
      <circle class="cls-4" cx="319.8" cy="348.44" r="8.08"/>
      <circle class="cls-4" cx="295.56" cy="284.07" r="8.08"/>
      <circle class="cls-4" cx="293.1" cy="250.05" r="8.08"/>
      <circle class="cls-4" cx="307.71" cy="256.8" r="8.08"/>
      <circle class="cls-4" cx="315.8" cy="220.81" r="8.08"/>
      <circle class="cls-4" cx="267.23" cy="201.16" r="8.08"/>
      <line class="cls-2" x1="195.29" y1="185.53" x2="204.42" y2="194.67"/>
      <line class="cls-2" x1="195.29" y1="194.67" x2="204.42" y2="185.53"/>
      <line class="cls-2" x1="175.98" y1="217.93" x2="185.12" y2="227.07"/>
      <line class="cls-2" x1="175.98" y1="227.07" x2="185.12" y2="217.93"/>
      <line class="cls-2" x1="172.75" y1="169.74" x2="181.89" y2="178.88"/>
      <line class="cls-2" x1="172.75" y1="178.88" x2="181.89" y2="169.74"/>
      <line class="cls-2" x1="363.21" y1="164.09" x2="372.35" y2="173.23"/>
      <line class="cls-2" x1="363.21" y1="173.23" x2="372.35" y2="164.09"/>
      <line class="cls-2" x1="429.56" y1="181.71" x2="438.7" y2="190.85"/>
      <line class="cls-2" x1="429.56" y1="190.85" x2="438.7" y2="181.71"/>
      <line class="cls-2" x1="396.43" y1="415.66" x2="405.57" y2="424.79"/>
      <line class="cls-2" x1="396.43" y1="424.79" x2="405.57" y2="415.66"/>
      <line class="cls-2" x1="366.59" y1="404.74" x2="375.72" y2="413.88"/>
      <line class="cls-2" x1="366.59" y1="413.88" x2="375.72" y2="404.74"/>
      <line class="cls-2" x1="183.74" y1="405.49" x2="192.87" y2="414.63"/>
      <line class="cls-2" x1="183.74" y1="414.63" x2="192.87" y2="405.49"/>
      <line class="cls-2" x1="179.17" y1="424.94" x2="188.3" y2="434.07"/>
      <line class="cls-2" x1="179.17" y1="434.07" x2="188.3" y2="424.94"/>
      <line class="cls-2" x1="158.5" y1="439.37" x2="167.64" y2="448.5"/>
      <line class="cls-2" x1="158.5" y1="448.5" x2="167.64" y2="439.37"/>
      <line class="cls-2" x1="196.83" y1="432.17" x2="205.97" y2="441.31"/>
      <line class="cls-2" x1="196.83" y1="441.31" x2="205.97" y2="432.17"/>
      <circle class="cls-1" cx="295.87" cy="303.02" r="113.76"/>
    </g>
  </g>
</svg>