<?xml version="1.0" encoding="UTF-8"?>
<svg xmlns="http://www.w3.org/2000/svg" version="1.1" viewBox="0 0 600 600">
  <defs>
    <style>
      .cls-1 {
        fill: #231815;
      }

      .cls-2, .cls-3 {
        stroke-miterlimit: 10;
      }

      .cls-2, .cls-3, .cls-4 {
        fill: none;
      }

      .cls-2, .cls-4 {
        stroke: #231815;
      }

      .cls-3 {
        stroke: #e60012;
      }

      .cls-4 {
        stroke-linejoin: round;
      }
    </style>
  </defs>
  <!-- Generator: Adobe Illustrator 28.7.1, SVG Export Plug-In . SVG Version: 1.2.0 Build 142)  -->
  <g>
    <g id="_레이어_1" data-name="레이어_1">
      <path d="M141.91,181.37c-.03.68-.21,1.45-.56,2.31-.34.85-.7,1.77-1.07,2.75-.26.68-.46,1.23-.62,1.63-.16.41-.28.73-.36.96-.09.23-.15.41-.19.53-.04.12-.08.24-.12.36-.04.12-.08.27-.14.44-.06.17-.14.42-.26.75-.13.36-.33.6-.61.75-.28.14-.54.19-.79.15-.25-.04-.44-.17-.57-.37-.13-.21-.09-.49.11-.86.3-.6.6-1.22.92-1.88.31-.65.62-1.31.91-1.96.29-.65.57-1.29.82-1.91.26-.62.48-1.18.68-1.68.13-.34.26-.72.41-1.12.14-.41.23-.79.28-1.15.04-.36.01-.67-.1-.92-.11-.25-.35-.4-.74-.44-.34-.03-.65.03-.93.18s-.54.37-.79.67c-.25.3-.5.66-.74,1.08-.24.42-.51.89-.79,1.42-.4.74-.76,1.52-1.08,2.34s-.59,1.51-.82,2.08c-.11.27-.27.44-.46.52-.19.08-.37.09-.54.04s-.31-.15-.43-.29-.15-.31-.11-.49c.07-.33.23-.73.47-1.22.24-.48.5-.98.79-1.48.28-.5.56-.99.83-1.45.27-.46.48-.84.62-1.14.14-.28.18-.57.11-.85-.07-.28-.23-.46-.47-.53-.26-.09-.48-.09-.68-.02-.2.07-.38.16-.54.28-.16.11-.31.23-.45.34s-.27.17-.4.17c-.16,0-.21-.12-.15-.36.06-.24.19-.51.41-.81.21-.3.49-.57.84-.82.35-.25.75-.37,1.21-.37.33,0,.57.06.74.19s.27.28.33.47c.06.19.08.38.07.58s-.02.36-.03.49c.07-.04.16-.12.28-.25s.23-.25.36-.4c.13-.14.27-.29.42-.44.15-.15.3-.27.46-.37.4-.27.81-.41,1.23-.41s.8.1,1.14.3c.34.2.62.49.82.88.21.38.3.83.27,1.34Z"/>
      <g>
        <path d="M81.32,192.29c-.66,0-1.3-.09-1.91-.27s-1.12-.4-1.53-.66l.1-2.46h.7l.59,2.75-.8-.38-.11-.53c.51.37.97.63,1.38.76s.89.2,1.45.2c.85,0,1.53-.19,2.04-.58.51-.39.76-.95.76-1.69,0-.38-.07-.71-.2-.99s-.36-.53-.68-.77c-.32-.23-.76-.46-1.31-.69l-.7-.29c-.97-.42-1.71-.9-2.21-1.45s-.75-1.25-.75-2.09c0-.69.17-1.27.5-1.73s.79-.81,1.38-1.04c.58-.23,1.23-.35,1.96-.35.62,0,1.17.08,1.64.23s.91.37,1.32.65l-.08,2.34h-.74l-.58-2.62.83.38.08.54c-.43-.34-.81-.58-1.15-.72-.34-.14-.74-.21-1.2-.21-.74,0-1.34.18-1.82.54s-.71.87-.71,1.54c0,.6.17,1.07.52,1.43s.83.67,1.45.94l.75.3c.8.34,1.43.68,1.9,1.02.47.34.8.72,1,1.13s.3.89.3,1.45c0,.67-.17,1.26-.51,1.75-.34.5-.82.88-1.45,1.15-.62.27-1.36.41-2.22.41Z"/>
        <path d="M88.15,192.02c.01-.27.02-.62.02-1.06,0-.44.01-.9.02-1.38s0-.9,0-1.25v-1.06c0-.54,0-1.02,0-1.42,0-.41-.02-.81-.04-1.2l-1.36-.08v-.4l2.66-.7.21.13.1,1.81v2.93c0,.35,0,.77,0,1.25,0,.48.01.94.02,1.38,0,.44.01.79.02,1.06h-1.65ZM86.88,192.02v-.45l1.73-.18h.66l1.68.18v.45h-4.06ZM93.44,192.02c.01-.27.02-.62.02-1.05,0-.43.01-.89.02-1.37,0-.48,0-.9,0-1.26v-1.89c0-.77-.12-1.31-.36-1.62-.24-.31-.57-.47-.98-.47-.39,0-.82.13-1.28.4-.46.27-.94.7-1.46,1.3l-.13-.62h.21c.5-.65,1.02-1.15,1.56-1.49.54-.34,1.11-.51,1.7-.51.71,0,1.27.24,1.66.71s.59,1.25.59,2.31v1.89c0,.36,0,.78,0,1.26s.01.94.02,1.37c0,.43.01.78.02,1.05h-1.62ZM92.2,192.02v-.45l1.68-.18h.69l1.65.18v.45h-4.02ZM98.69,192.02c.01-.27.02-.62.02-1.05,0-.43.01-.89.02-1.37s0-.9,0-1.26v-1.89c0-.79-.12-1.34-.36-1.64-.24-.3-.58-.46-1.03-.46-.39,0-.81.12-1.26.36-.44.24-.92.66-1.43,1.26l-.16-.66h.22c.5-.65,1.02-1.13,1.55-1.43.53-.3,1.09-.46,1.66-.46.77,0,1.35.24,1.74.71s.59,1.25.59,2.33v1.87c0,.36,0,.78,0,1.26s.01.94.02,1.37c0,.43.01.78.02,1.05h-1.63ZM97.46,192.02v-.45l1.66-.18h.69l1.66.18v.45h-4.02Z"/>
        <path d="M104.96,192.26c-.64,0-1.17-.18-1.6-.54-.43-.36-.64-.88-.64-1.55,0-.43.09-.81.28-1.14.19-.33.5-.63.94-.89.44-.26,1.02-.5,1.76-.71.44-.13.91-.26,1.41-.38s.97-.25,1.39-.35v.4c-.43.11-.86.22-1.29.34s-.82.25-1.16.38c-.65.25-1.12.54-1.4.89s-.42.76-.42,1.24.13.86.39,1.1c.26.25.6.37,1.03.37.22,0,.45-.04.67-.13.22-.09.48-.24.77-.47.29-.23.63-.55,1.02-.95l.16.78h-.43c-.32.35-.62.65-.91.89-.29.24-.59.42-.9.54-.31.12-.67.18-1.07.18ZM109.28,192.24c-.49,0-.86-.16-1.11-.48-.25-.32-.4-.76-.44-1.31v-4.27c0-.6-.06-1.06-.19-1.38-.13-.32-.32-.54-.58-.67-.26-.13-.6-.19-1.02-.19-.3,0-.6.04-.9.12-.3.08-.64.22-1,.41l.78-.43-.24,1.26c-.03.33-.13.57-.28.7-.15.14-.34.21-.55.21-.43,0-.69-.21-.78-.62.14-.67.5-1.2,1.1-1.58.59-.38,1.37-.58,2.34-.58s1.69.23,2.14.69.69,1.2.69,2.22v4.02c0,.46.06.77.17.94.11.17.27.26.47.26.13,0,.25-.03.35-.1.11-.06.23-.18.37-.34l.26.22c-.17.31-.39.54-.65.68-.26.14-.57.22-.92.22Z"/>
        <path d="M111.52,192.02v-.45l1.86-.18h.64l1.89.18v.45h-4.38ZM112.9,192.02c.01-.35.02-.74.02-1.16,0-.42.01-.85.02-1.29,0-.44,0-.85,0-1.23v-8.24l-1.36-.08v-.43l2.74-.51.24.14-.05,2.5v6.62c0,.38,0,.79,0,1.23,0,.44.01.87.02,1.29,0,.42.01.81.02,1.16h-1.66Z"/>
        <path d="M116.96,192.02v-.45l1.86-.18h.64l1.89.18v.45h-4.38ZM118.34,192.02c.01-.35.02-.74.02-1.16,0-.42.01-.85.02-1.29,0-.44,0-.85,0-1.23v-8.24l-1.36-.08v-.43l2.74-.51.24.14-.05,2.5v6.62c0,.38,0,.79,0,1.23,0,.44.01.87.02,1.29,0,.42.01.81.02,1.16h-1.66Z"/>
      </g>
      <g>
        <path d="M269.55,179.11v-.5h4.99v.5l-2.3.19h-.42l-2.27-.19ZM269.55,190.33v-.5l2.27-.21h.21l-.02.7h-2.46ZM271.13,190.33c.02-.9.03-1.79.04-2.68,0-.89,0-1.75,0-2.57v-1.02c0-.92,0-1.83,0-2.74s-.02-1.81-.04-2.7h1.74c-.01.9-.02,1.8-.02,2.72,0,.92,0,1.87,0,2.85v.94c0,.79,0,1.63,0,2.51,0,.89.01,1.78.02,2.69h-1.74ZM272.01,190.33l.02-.56h5.65l-.8.43.64-3.07h.72l-.08,3.2h-6.14Z"/>
        <path d="M281.84,190.57c-.64,0-1.17-.18-1.6-.54-.43-.36-.64-.88-.64-1.55,0-.43.09-.81.28-1.14.19-.33.5-.63.94-.89.44-.26,1.02-.5,1.76-.71.44-.13.91-.26,1.41-.38s.97-.25,1.39-.35v.4c-.43.11-.86.22-1.29.34s-.82.25-1.16.38c-.65.25-1.12.54-1.4.89s-.42.76-.42,1.24.13.86.39,1.1c.26.25.6.37,1.03.37.22,0,.45-.04.67-.13.22-.09.48-.24.77-.47.29-.23.63-.55,1.02-.95l.16.78h-.43c-.32.35-.62.65-.91.89-.29.24-.59.42-.9.54-.31.12-.67.18-1.07.18ZM286.16,190.55c-.49,0-.86-.16-1.11-.48-.25-.32-.4-.76-.44-1.31v-4.27c0-.6-.06-1.06-.19-1.38-.13-.32-.32-.54-.58-.67-.26-.13-.6-.19-1.02-.19-.3,0-.6.04-.9.12-.3.08-.64.22-1,.41l.78-.43-.24,1.26c-.03.33-.13.57-.28.7-.15.14-.34.21-.55.21-.43,0-.69-.21-.78-.62.14-.67.5-1.2,1.1-1.58.59-.38,1.37-.58,2.34-.58s1.69.23,2.14.69.69,1.2.69,2.22v4.02c0,.46.06.77.17.94.11.17.27.26.47.26.13,0,.25-.03.35-.1.11-.06.23-.18.37-.34l.26.22c-.17.31-.39.54-.65.68-.26.14-.57.22-.92.22Z"/>
        <path d="M289.76,190.33c.01-.27.02-.62.02-1.06,0-.44.01-.9.02-1.38s0-.9,0-1.25v-1.04c0-.55,0-1.03,0-1.44,0-.41-.02-.8-.04-1.18l-1.36-.1v-.4l2.66-.7.21.13.1,2.26v2.48c0,.35,0,.77,0,1.25,0,.48.01.94.02,1.38,0,.44.01.79.02,1.06h-1.65ZM288.49,190.33v-.45l1.74-.19h.88l1.79.19v.45h-4.42ZM291.36,185.22l-.4-.88h.32c.17-.53.4-.99.68-1.38.28-.39.6-.69.96-.9s.72-.32,1.1-.32c.32,0,.6.07.84.2.24.13.4.34.47.63,0,.29-.07.52-.22.7-.14.18-.37.27-.68.27-.21,0-.41-.06-.58-.18-.17-.12-.35-.28-.54-.5l-.37-.37.69.03c-.52.18-.97.48-1.34.9-.37.42-.68,1.02-.94,1.78Z"/>
        <path d="M299.12,194.49c-.83,0-1.5-.09-1.99-.28-.5-.19-.85-.44-1.07-.75-.22-.31-.33-.67-.33-1.08,0-.48.18-.9.54-1.26.36-.36.89-.68,1.59-.94l.08.13c-.38.31-.67.59-.85.86-.18.26-.27.58-.27.97,0,.58.21,1.01.62,1.31.41.3.99.45,1.74.45,1.1,0,1.93-.19,2.49-.57s.84-.86.84-1.45c0-.33-.12-.63-.37-.89s-.69-.39-1.34-.39h-1.92c-.3,0-.55,0-.76-.02-.21-.01-.4-.05-.58-.11v-.03c-.84-.22-1.26-.71-1.26-1.46,0-.35.11-.69.32-1.02.21-.33.58-.67,1.09-1.05v-.14l.35.18c-.26.28-.45.52-.57.72-.12.2-.18.43-.18.69,0,.28.09.5.28.66.19.16.5.24.94.24h2.35c.69,0,1.26.09,1.7.26.44.18.76.43.97.76s.31.72.31,1.17c0,.51-.18,1-.54,1.47-.36.47-.88.85-1.58,1.14-.7.29-1.55.44-2.57.44ZM299.36,187.48c-.68,0-1.27-.12-1.75-.37-.49-.25-.86-.58-1.11-1.01-.26-.43-.38-.92-.38-1.49,0-.86.29-1.56.86-2.09.57-.53,1.37-.79,2.39-.79.53,0,1,.07,1.42.22s.75.35,1.02.63l.05.05c.5.48.75,1.14.75,1.98,0,.57-.13,1.06-.38,1.49-.26.43-.63.76-1.11,1.01-.48.25-1.06.37-1.74.37ZM299.34,186.98c.56,0,1.01-.22,1.34-.65.33-.43.49-1.01.49-1.74s-.17-1.3-.5-1.74c-.33-.43-.76-.65-1.3-.65-.57,0-1.01.22-1.34.66-.33.44-.49,1.02-.49,1.74s.16,1.29.48,1.72c.32.43.76.65,1.31.65ZM301.29,182.77v-.26h.1l2.24-.74.27.18v.94l-2.61-.13Z"/>
        <path d="M309.1,190.57c-.81,0-1.53-.17-2.16-.5-.63-.33-1.12-.82-1.48-1.48-.36-.66-.54-1.46-.54-2.42s.19-1.71.56-2.37c.37-.66.87-1.17,1.49-1.53.62-.36,1.29-.54,2-.54s1.34.15,1.85.45c.51.3.89.7,1.15,1.21.26.51.39,1.09.39,1.74,0,.38-.03.7-.1.96h-6.64v-.51h4.48c.3,0,.5-.08.61-.24.11-.16.16-.42.16-.77,0-.69-.17-1.25-.51-1.67-.34-.42-.82-.63-1.44-.63-.44,0-.83.14-1.19.42-.36.28-.64.7-.86,1.25-.21.55-.32,1.22-.32,2.02,0,.86.13,1.58.39,2.14.26.56.62.97,1.06,1.22.45.26.96.38,1.55.38s1.05-.1,1.46-.3c.41-.2.77-.49,1.08-.86l.27.21c-.34.58-.79,1.02-1.34,1.34-.55.32-1.2.48-1.94.48Z"/>
      </g>
      <g>
        <path d="M446.95,179.38v-.5h4.86v.5l-2.29.19h-.38l-2.19-.19ZM452.18,190.69l-4.13-11.81h1.76l3.46,10.37h-.29l.06-.22,3.26-10.14h.75l-3.98,11.81h-.9ZM454.34,179.38v-.5h3.92v.48l-1.71.21h-.26l-1.95-.19Z"/>
        <path d="M460.02,190.84c-.64,0-1.17-.18-1.6-.54-.43-.36-.64-.88-.64-1.55,0-.43.09-.81.28-1.14.19-.33.5-.63.94-.89.44-.26,1.02-.5,1.76-.71.44-.13.91-.26,1.41-.38.5-.13.96-.25,1.39-.35v.4c-.43.11-.86.22-1.29.34-.43.12-.82.25-1.16.38-.65.25-1.12.54-1.4.89-.28.35-.42.76-.42,1.24s.13.86.39,1.1c.26.25.61.37,1.03.37.22,0,.45-.04.67-.13s.48-.24.77-.47c.29-.23.63-.55,1.02-.95l.16.78h-.43c-.32.35-.62.65-.91.89-.29.24-.59.42-.9.54s-.67.18-1.07.18ZM464.34,190.82c-.49,0-.86-.16-1.11-.48-.25-.32-.4-.76-.44-1.31v-4.27c0-.6-.06-1.06-.19-1.38-.13-.32-.32-.54-.58-.67-.26-.13-.6-.19-1.02-.19-.3,0-.6.04-.9.12s-.64.22-1,.41l.78-.43-.24,1.26c-.03.33-.12.57-.28.7-.15.14-.34.21-.55.21-.43,0-.69-.21-.78-.62.14-.67.5-1.2,1.1-1.58.59-.38,1.37-.58,2.34-.58s1.69.23,2.14.69c.46.46.69,1.2.69,2.22v4.02c0,.46.06.77.17.94.11.17.27.26.47.26.13,0,.25-.03.35-.1.11-.06.23-.18.37-.34l.26.22c-.17.31-.39.54-.65.68s-.57.22-.92.22Z"/>
        <path d="M467.94,190.6c.01-.27.02-.62.02-1.06,0-.44.01-.9.02-1.38,0-.48,0-.9,0-1.25v-1.04c0-.55,0-1.03,0-1.44,0-.41-.02-.8-.04-1.18l-1.36-.1v-.4l2.66-.7.21.13.1,2.26v2.48c0,.35,0,.77,0,1.25,0,.48.01.94.02,1.38,0,.44.01.79.02,1.06h-1.65ZM466.67,190.6v-.45l1.74-.19h.88l1.79.19v.45h-4.42ZM469.54,185.49l-.4-.88h.32c.17-.53.4-.99.68-1.38.28-.39.6-.69.96-.9s.72-.32,1.1-.32c.32,0,.6.07.84.2.24.13.4.34.47.63,0,.29-.07.52-.22.7-.14.18-.37.27-.68.27-.21,0-.41-.06-.58-.18-.17-.12-.35-.28-.54-.5l-.37-.37.69.03c-.52.18-.97.48-1.34.9-.37.42-.68,1.02-.94,1.78Z"/>
        <path d="M475.54,190.6c.01-.27.02-.62.03-1.06.01-.44.02-.9.02-1.38,0-.48,0-.9,0-1.25v-1.02c0-.54,0-1.03-.02-1.45s-.03-.83-.05-1.22l-1.38-.08v-.4l2.83-.69.21.13-.05,2.3v2.43c0,.35,0,.77,0,1.25,0,.48.01.94.02,1.38,0,.44.01.79.02,1.06h-1.66ZM474.27,190.6v-.45l1.74-.18h.64l1.71.18v.45h-4.1ZM476.26,180.12c-.28,0-.51-.09-.71-.27-.2-.18-.3-.42-.3-.7s.1-.52.3-.7c.2-.18.43-.27.71-.27s.52.09.72.27c.2.18.3.42.3.7s-.1.52-.3.7c-.2.18-.44.27-.72.27Z"/>
        <path d="M482.02,190.84c-.64,0-1.17-.18-1.6-.54-.43-.36-.64-.88-.64-1.55,0-.43.09-.81.28-1.14.19-.33.5-.63.94-.89s1.02-.5,1.76-.71c.44-.13.91-.26,1.41-.38.5-.13.97-.25,1.39-.35v.4c-.43.11-.86.22-1.29.34-.43.12-.82.25-1.16.38-.65.25-1.12.54-1.4.89-.28.35-.42.76-.42,1.24s.13.86.39,1.1c.26.25.6.37,1.03.37.22,0,.45-.04.67-.13.22-.09.48-.24.77-.47.29-.23.63-.55,1.02-.95l.16.78h-.43c-.32.35-.62.65-.91.89-.29.24-.59.42-.9.54-.31.12-.67.18-1.07.18ZM486.34,190.82c-.49,0-.86-.16-1.11-.48-.25-.32-.4-.76-.44-1.31v-4.27c0-.6-.06-1.06-.19-1.38-.13-.32-.32-.54-.58-.67-.26-.13-.6-.19-1.02-.19-.3,0-.6.04-.9.12-.3.08-.64.22-1,.41l.78-.43-.24,1.26c-.03.33-.13.57-.28.7-.16.14-.34.21-.55.21-.43,0-.69-.21-.78-.62.14-.67.5-1.2,1.1-1.58.59-.38,1.37-.58,2.34-.58s1.69.23,2.14.69c.46.46.69,1.2.69,2.22v4.02c0,.46.06.77.17.94.11.17.27.26.47.26.13,0,.25-.03.35-.1s.23-.18.37-.34l.26.22c-.17.31-.39.54-.65.68-.26.14-.57.22-.92.22Z"/>
        <path d="M488.69,190.6v-.45l1.28-.11c.01-.31.02-.65.02-1.02s0-.74,0-1.11c0-.37,0-.7,0-.98v-8.24l-1.36-.08v-.43l2.7-.51.24.14-.05,2.5v3.18l.03.16v5.7l-.24,1.44-2.64-.18ZM494.11,190.84c-.51,0-1.02-.13-1.51-.38s-.94-.67-1.34-1.25h-.18l.22-.37c.38.43.76.73,1.12.9.36.18.74.26,1.14.26.44,0,.84-.11,1.21-.34.37-.23.66-.61.89-1.14.22-.53.34-1.26.34-2.18,0-1.21-.22-2.09-.67-2.66s-1.02-.86-1.73-.86c-.25,0-.5.03-.75.1s-.52.2-.8.4-.59.48-.93.86l-.19-.46h.24c.44-.6.92-1.03,1.46-1.3s1.08-.41,1.64-.41c.66,0,1.25.18,1.75.53.51.35.91.85,1.2,1.5.29.65.44,1.42.44,2.33s-.15,1.63-.45,2.31c-.3.68-.71,1.21-1.25,1.59-.53.38-1.15.58-1.86.58Z"/>
        <path d="M498.91,190.6v-.45l1.86-.18h.64l1.89.18v.45h-4.38ZM500.29,190.6c.01-.35.02-.74.02-1.16,0-.42.01-.85.02-1.29,0-.44,0-.85,0-1.23v-8.24l-1.36-.08v-.43l2.74-.51.24.14-.05,2.5v6.62c0,.38,0,.79,0,1.23,0,.44.01.87.02,1.29,0,.42.01.81.02,1.16h-1.66Z"/>
        <path d="M508.72,190.84c-.81,0-1.53-.17-2.16-.5-.63-.33-1.12-.82-1.48-1.48-.36-.66-.54-1.46-.54-2.42s.19-1.71.56-2.37c.37-.66.87-1.17,1.49-1.53.62-.36,1.29-.54,2-.54s1.34.15,1.85.45c.51.3.89.7,1.15,1.21.26.51.39,1.09.39,1.74,0,.38-.03.7-.1.96h-6.64v-.51h4.48c.3,0,.5-.08.61-.24.11-.16.16-.42.16-.77,0-.69-.17-1.25-.51-1.67-.34-.42-.82-.63-1.44-.63-.44,0-.83.14-1.19.42-.36.28-.64.7-.86,1.25-.21.55-.32,1.22-.32,2.02,0,.86.13,1.58.39,2.14s.62.97,1.06,1.22c.45.26.96.38,1.55.38s1.05-.1,1.46-.3c.41-.2.77-.49,1.08-.86l.27.21c-.34.58-.79,1.02-1.34,1.34-.55.32-1.2.48-1.94.48Z"/>
      </g>
      <path d="M331.26,181.37c-.03.68-.21,1.45-.56,2.31-.34.85-.7,1.77-1.07,2.75-.26.68-.46,1.23-.62,1.63-.16.41-.28.73-.36.96-.09.23-.15.41-.19.53-.04.12-.08.24-.12.36-.04.12-.08.27-.14.44-.06.17-.14.42-.26.75-.13.36-.33.6-.61.75-.28.14-.54.19-.79.15-.25-.04-.44-.17-.57-.37-.13-.21-.09-.49.11-.86.3-.6.6-1.22.92-1.88.31-.65.62-1.31.91-1.96.29-.65.57-1.29.82-1.91.26-.62.48-1.18.68-1.68.13-.34.26-.72.41-1.12.14-.41.23-.79.28-1.15.04-.36.01-.67-.1-.92-.11-.25-.35-.4-.74-.44-.34-.03-.65.03-.93.18s-.54.37-.79.67c-.25.3-.5.66-.74,1.08-.24.42-.51.89-.79,1.42-.4.74-.76,1.52-1.08,2.34s-.59,1.51-.82,2.08c-.11.27-.27.44-.46.52-.19.08-.37.09-.54.04s-.31-.15-.43-.29-.15-.31-.11-.49c.07-.33.23-.73.47-1.22.24-.48.5-.98.79-1.48.28-.5.56-.99.83-1.45.27-.46.48-.84.62-1.14.14-.28.18-.57.11-.85-.07-.28-.23-.46-.47-.53-.26-.09-.48-.09-.68-.02-.2.07-.38.16-.54.28-.16.11-.31.23-.45.34s-.27.17-.4.17c-.16,0-.21-.12-.15-.36.06-.24.19-.51.41-.81.21-.3.49-.57.84-.82.35-.25.75-.37,1.21-.37.33,0,.57.06.74.19s.27.28.33.47c.06.19.08.38.07.58s-.02.36-.03.49c.07-.04.16-.12.28-.25s.23-.25.36-.4c.13-.14.27-.29.42-.44.15-.15.3-.27.46-.37.4-.27.81-.41,1.23-.41s.8.1,1.14.3c.34.2.62.49.82.88.21.38.3.83.27,1.34Z"/>
      <path d="M531.36,181.37c-.03.68-.21,1.45-.56,2.31-.34.85-.7,1.77-1.07,2.75-.26.68-.46,1.23-.62,1.63-.16.41-.28.73-.36.96-.09.23-.15.41-.19.53-.04.12-.08.24-.12.36-.04.12-.08.27-.14.44-.06.17-.14.42-.26.75-.13.36-.33.6-.61.75-.28.14-.54.19-.79.15-.25-.04-.44-.17-.57-.37-.13-.21-.09-.49.11-.86.3-.6.6-1.22.92-1.88.31-.65.62-1.31.91-1.96.29-.65.57-1.29.82-1.91.26-.62.48-1.18.68-1.68.13-.34.26-.72.41-1.12.14-.41.23-.79.28-1.15.04-.36.01-.67-.1-.92-.11-.25-.35-.4-.74-.44-.34-.03-.65.03-.93.18s-.54.37-.79.67c-.25.3-.5.66-.74,1.08-.24.42-.51.89-.79,1.42-.4.74-.76,1.52-1.08,2.34s-.59,1.51-.82,2.08c-.11.27-.27.44-.46.52-.19.08-.37.09-.54.04s-.31-.15-.43-.29-.15-.31-.11-.49c.07-.33.23-.73.47-1.22.24-.48.5-.98.79-1.48.28-.5.56-.99.83-1.45.27-.46.48-.84.62-1.14.14-.28.18-.57.11-.85-.07-.28-.23-.46-.47-.53-.26-.09-.48-.09-.68-.02-.2.07-.38.16-.54.28-.16.11-.31.23-.45.34s-.27.17-.4.17c-.16,0-.21-.12-.15-.36.06-.24.19-.51.41-.81.21-.3.49-.57.84-.82.35-.25.75-.37,1.21-.37.33,0,.57.06.74.19s.27.28.33.47c.06.19.08.38.07.58s-.02.36-.03.49c.07-.04.16-.12.28-.25s.23-.25.36-.4c.13-.14.27-.29.42-.44.15-.15.3-.27.46-.37.4-.27.81-.41,1.23-.41s.8.1,1.14.3c.34.2.62.49.82.88.21.38.3.83.27,1.34Z"/>
    </g>
    <g id="_레이어_2" data-name="레이어_2">
      <polyline class="cls-2" points="36.8 218.39 36.8 373.54 191.56 373.54"/>
      <polyline class="cls-2" points="225.45 218.39 225.45 373.54 380.22 373.54"/>
      <polyline class="cls-2" points="415.4 218.39 416.57 373.54 571.33 373.54"/>
    </g>
    <g id="_레이어_3" data-name="레이어_3">
      <path class="cls-3" d="M36.8,226.22c6.3,24.26,36.04,134.06,75.91,133.04,1.33-.03,3.47-.21,6.78-1.3,42.21-13.92,65.2-107.13,70.96-132.26"/>
      <path class="cls-3" d="M262.51,219.17c2.69,20.75,19.26,145.36,40.11,145.17,20.99-.19,35.31-126.75,37.57-147.33"/>
      <path class="cls-3" d="M572.36,224.91"/>
      <path class="cls-3" d="M452.49,322.67"/>
      <path class="cls-3" d="M415.45,224.85"/>
      <path class="cls-3" d="M416.54,224.42c6.3,24.26,36.04,134.06,75.91,133.04,1.33-.03,3.47-.21,6.78-1.3,42.21-13.92,65.2-107.13,70.96-132.26"/>
      <g>
        <path d="M82.7,379.85v-.5h4.67v.5l-2.14.19h-.42l-2.11-.19ZM87.22,391.17l-3.34-11.81h1.73l2.7,10.18h-.29l.08-.24,2.93-9.94h.88l3.01,10.24h-.29l.06-.26,2.62-9.98h.72l-3.26,11.81h-.9l-3.06-10.1h.3l-.08.24-2.93,9.86h-.9ZM89.23,379.85v-.5h4.61v.5l-2.05.19h-.59l-1.97-.19ZM95.55,379.85v-.5h3.87v.5l-1.76.19h-.35l-1.76-.19Z"/>
        <path d="M102.98,391.31c-.81,0-1.53-.17-2.16-.5-.63-.33-1.12-.82-1.48-1.48-.36-.66-.54-1.46-.54-2.42s.19-1.71.56-2.37c.37-.66.87-1.17,1.49-1.53.62-.36,1.29-.54,2-.54s1.34.15,1.85.45c.51.3.89.7,1.15,1.21.26.51.39,1.08.39,1.74,0,.38-.03.7-.1.96h-6.64v-.51h4.48c.3,0,.5-.08.61-.24s.16-.42.16-.77c0-.69-.17-1.25-.51-1.67-.34-.42-.82-.63-1.44-.63-.44,0-.83.14-1.19.42-.36.28-.64.7-.86,1.25-.21.55-.32,1.22-.32,2.02,0,.86.13,1.58.39,2.14.26.56.62.97,1.06,1.22.45.26.96.38,1.55.38s1.05-.1,1.46-.3c.41-.2.77-.49,1.08-.86l.27.21c-.34.58-.79,1.02-1.34,1.34-.55.32-1.2.48-1.94.48Z"/>
        <path d="M108.86,391.07c.01-.27.02-.62.03-1.06s.02-.9.02-1.38c0-.48,0-.9,0-1.25v-1.02c0-.54,0-1.03-.02-1.45-.01-.42-.03-.83-.05-1.22l-1.38-.08v-.4l2.83-.69.21.13-.05,2.3v2.43c0,.35,0,.77,0,1.25,0,.48.01.94.02,1.38,0,.44.01.79.02,1.06h-1.66ZM107.6,391.07v-.45l1.74-.18h.64l1.71.18v.45h-4.1ZM109.58,380.59c-.28,0-.51-.09-.71-.27s-.3-.42-.3-.7.1-.52.3-.7c.2-.18.43-.27.71-.27s.52.09.72.27c.2.18.3.42.3.7s-.1.52-.3.7-.44.27-.72.27Z"/>
        <path d="M116.32,395.23c-.83,0-1.5-.09-1.99-.28-.5-.19-.85-.44-1.07-.75-.22-.31-.33-.67-.33-1.08,0-.48.18-.9.54-1.26.36-.36.89-.68,1.59-.94l.08.13c-.38.31-.67.59-.85.86-.18.26-.27.58-.27.97,0,.58.21,1.01.62,1.31.41.3.99.45,1.74.45,1.1,0,1.93-.19,2.49-.57.56-.38.84-.86.84-1.45,0-.33-.12-.63-.37-.89-.25-.26-.69-.39-1.34-.39h-1.92c-.3,0-.55,0-.76-.02s-.4-.05-.58-.11v-.03c-.84-.22-1.26-.71-1.26-1.46,0-.35.11-.69.32-1.02s.58-.67,1.09-1.05v-.14l.35.18c-.26.28-.45.52-.57.72-.12.2-.18.43-.18.69,0,.28.09.5.28.66s.5.24.94.24h2.35c.69,0,1.26.09,1.7.26.44.18.76.43.97.76.21.33.31.72.31,1.17,0,.51-.18,1-.54,1.47-.36.47-.89.85-1.58,1.14-.7.29-1.55.44-2.57.44ZM116.56,388.22c-.68,0-1.27-.12-1.75-.37s-.86-.58-1.11-1.01-.38-.92-.38-1.49c0-.86.29-1.56.86-2.09.57-.53,1.37-.79,2.39-.79.53,0,1,.07,1.42.22s.75.35,1.02.63l.05.05c.5.48.75,1.14.75,1.98,0,.57-.13,1.06-.38,1.49-.26.43-.63.76-1.11,1.01s-1.06.37-1.74.37ZM116.54,387.73c.56,0,1.01-.22,1.34-.65.33-.43.49-1.01.49-1.74s-.17-1.3-.5-1.74c-.33-.43-.76-.65-1.3-.65-.57,0-1.01.22-1.34.66s-.49,1.02-.49,1.74.16,1.29.48,1.72c.32.43.76.65,1.31.65ZM118.5,383.52v-.26h.1l2.24-.74.27.18v.94l-2.61-.13Z"/>
        <path d="M123.23,391.07c.01-.27.02-.62.02-1.06s.01-.9.02-1.38c0-.48,0-.9,0-1.25v-8.24l-1.36-.08v-.43l2.7-.51.24.14-.05,2.5v3.57l.03.21v2.85c0,.35,0,.77,0,1.25,0,.48.01.94.02,1.38s.01.79.02,1.06h-1.66ZM121.97,391.07v-.45l1.73-.18h.67l1.65.18v.45h-4.05ZM128.69,391.07c.02-.27.03-.62.04-1.05,0-.43.01-.89.02-1.37,0-.48,0-.9,0-1.26v-1.95c0-.75-.13-1.27-.38-1.58-.26-.3-.6-.46-1.04-.46-.37,0-.8.12-1.28.35-.48.23-1,.67-1.55,1.3l-.34-.59h.43c.55-.69,1.11-1.2,1.66-1.51s1.13-.47,1.73-.47c.73,0,1.29.23,1.7.7.41.47.62,1.25.62,2.35v1.86c0,.36,0,.78,0,1.26s.01.94.02,1.37c.01.43.02.78.03,1.05h-1.68ZM127.46,391.07v-.45l1.7-.18h.66l1.71.18v.45h-4.06Z"/>
        <path d="M135.82,391.31c-.69,0-1.21-.18-1.55-.54s-.51-.91-.51-1.66c0-.27,0-.51,0-.72s0-.47,0-.77v-4.3h-1.54v-.5l1.87-.14-.3.22.56-2.7h1.02l-.05,2.77v6.19c0,.48.09.83.28,1.05.19.22.45.33.79.33.23,0,.44-.04.62-.11.18-.08.37-.18.58-.32l.24.29c-.22.3-.5.53-.83.68s-.73.23-1.2.23ZM134.56,383.33v-.61h3.01v.61h-3.01Z"/>
        <path d="M141.66,391.31c-.54,0-1.03-.06-1.46-.17-.43-.11-.87-.28-1.3-.5l.02-1.95h.75l.42,2.08-.64-.05v-.58c.32.2.64.36.97.47.33.11.72.17,1.18.17.69,0,1.22-.14,1.57-.41.35-.27.53-.64.53-1.1,0-.38-.12-.7-.35-.94-.23-.25-.68-.47-1.34-.67l-.85-.3c-.65-.22-1.17-.53-1.56-.9-.39-.38-.58-.88-.58-1.5,0-.7.27-1.29.81-1.77s1.31-.71,2.31-.71c.5,0,.94.06,1.33.18s.78.3,1.2.54l-.06,1.76h-.69l-.45-1.94.54.13v.51c-.32-.23-.62-.4-.91-.5-.29-.1-.6-.14-.94-.14-.59,0-1.03.13-1.34.39-.31.26-.46.6-.46,1.02,0,.36.13.66.38.9.25.24.67.46,1.26.66l.83.29c.82.28,1.41.61,1.75,1.01.35.4.52.88.52,1.46,0,.49-.13.93-.39,1.32-.26.39-.64.69-1.14.91-.5.22-1.12.33-1.86.33Z"/>
      </g>
      <g>
        <path d="M19.42,356.65h-.5v-4.94h.5l.19,2.3v.37l-.19,2.27ZM30.64,355.07c-.9-.03-1.8-.05-2.7-.05h-6.3c-.9,0-1.81.02-2.71.05v-1.76c.9.02,1.8.04,2.7.04.91,0,1.82,0,2.74,0h.83c.92,0,1.83,0,2.73,0,.9,0,1.81-.02,2.71-.04v1.76ZM30.64,356.65h-.5l-.21-2.27v-.37l.21-2.3h.5v4.94Z"/>
        <path d="M30.64,343.54c-.27-.01-.62-.02-1.05-.02-.43,0-.89-.01-1.37-.02-.48,0-.9,0-1.26,0h-1.95c-.75,0-1.27.12-1.58.37s-.46.59-.46,1.04c0,.35.12.77.36,1.26.24.49.67,1.01,1.29,1.57l-.58.11v-.18c-.73-.59-1.24-1.16-1.54-1.73-.3-.57-.46-1.13-.46-1.7,0-.71.24-1.27.71-1.68s1.25-.61,2.31-.61h1.89c.36,0,.78,0,1.26,0,.48,0,.94-.01,1.37-.02.43,0,.78-.02,1.05-.03v1.65ZM30.64,348.99c-.27,0-.62-.02-1.06-.02s-.9-.01-1.38-.02c-.48,0-.9,0-1.25,0h-1.04c-.54,0-1.02,0-1.43,0-.41,0-.81.02-1.19.04l-.1,1.36h-.4l-.7-2.66.13-.21,1.86-.1h2.88c.35,0,.77,0,1.25,0,.48,0,.94-.01,1.38-.02.44,0,.79-.01,1.06-.02v1.65ZM30.64,344.78h-.45l-.18-1.7v-.67l.18-1.68h.45v4.05ZM30.64,350.25h-.45l-.18-1.73v-.66l.18-1.68h.45v4.06Z"/>
        <path d="M26.73,339.57h-.88v-4.24h.88v4.24Z"/>
        <path d="M30.88,331.02c0,.54-.06,1.03-.17,1.46-.11.43-.28.87-.5,1.3l-1.95-.02v-.75l2.08-.42-.05.64h-.58c.2-.32.36-.64.47-.97.11-.33.17-.72.17-1.18,0-.69-.14-1.22-.41-1.57-.27-.35-.64-.53-1.1-.53-.38,0-.7.12-.94.35-.25.23-.47.68-.67,1.34l-.3.85c-.22.65-.53,1.17-.9,1.56-.38.39-.88.58-1.5.58-.7,0-1.29-.27-1.77-.81-.47-.54-.71-1.31-.71-2.31,0-.5.06-.94.18-1.33s.3-.78.54-1.2l1.76.06v.69l-1.94.45.13-.54h.51c-.23.32-.4.62-.5.91-.1.29-.14.6-.14.94,0,.59.13,1.04.39,1.34.26.31.6.46,1.02.46.36,0,.66-.12.9-.38.24-.25.46-.67.66-1.26l.29-.83c.28-.82.61-1.4,1.01-1.75.4-.35.88-.52,1.46-.52.49,0,.93.13,1.32.39s.69.64.91,1.14.33,1.12.33,1.86Z"/>
        <path d="M30.86,319.63c0,.49-.16.86-.48,1.11-.32.25-.76.4-1.31.44h-4.27c-.6,0-1.06.06-1.38.19-.32.13-.54.32-.67.58s-.19.6-.19,1.02c0,.3.04.6.12.9.08.3.22.64.41,1l-.43-.78,1.26.24c.33.03.57.13.7.28.14.15.21.34.21.55,0,.43-.21.69-.62.79-.67-.14-1.2-.5-1.58-1.1-.38-.59-.58-1.37-.58-2.34s.23-1.69.69-2.14,1.2-.69,2.22-.69h4.02c.46,0,.77-.06.94-.17s.26-.27.26-.47c0-.13-.03-.25-.1-.35-.06-.11-.18-.23-.34-.37l.22-.26c.31.17.54.39.68.65.14.26.22.57.22.92ZM30.88,323.95c0,.64-.18,1.17-.54,1.6s-.88.64-1.55.64c-.43,0-.8-.09-1.14-.28-.33-.19-.63-.5-.89-.94s-.5-1.02-.71-1.76c-.13-.44-.26-.91-.38-1.41s-.25-.96-.35-1.39h.4c.11.43.22.86.34,1.29.12.43.25.82.38,1.16.25.65.54,1.12.89,1.4.35.28.76.42,1.24.42s.86-.13,1.1-.39c.25-.26.37-.61.37-1.03,0-.22-.04-.45-.13-.67-.08-.22-.24-.48-.47-.77-.23-.29-.55-.63-.95-1.02l.78-.16v.43c.35.32.65.62.89.91.24.29.42.59.54.9.12.31.18.67.18,1.07Z"/>
        <path d="M30.64,305.49c-.27,0-.62-.02-1.05-.02-.43,0-.89,0-1.37-.02s-.9,0-1.26,0h-1.89c-.79,0-1.34.12-1.64.36s-.46.58-.46,1.03c0,.39.12.81.36,1.26.24.44.66.92,1.26,1.43l-.66.16v-.22c-.65-.5-1.13-1.02-1.43-1.55-.3-.53-.46-1.09-.46-1.66,0-.77.24-1.35.71-1.74s1.25-.59,2.33-.59h1.87c.36,0,.78,0,1.26,0,.48,0,.94,0,1.37-.02.43,0,.78-.01,1.05-.02v1.63ZM30.64,310.73c-.27,0-.62-.02-1.05-.02-.43,0-.89,0-1.37-.02s-.9,0-1.26,0h-1.89c-.77,0-1.31.12-1.62.36-.31.24-.47.57-.47.98,0,.39.13.82.4,1.28.27.46.7.94,1.3,1.46l-.62.13v-.21c-.65-.5-1.15-1.02-1.49-1.56-.34-.54-.51-1.11-.51-1.7,0-.71.24-1.27.71-1.66s1.25-.59,2.31-.59h1.89c.36,0,.78,0,1.26,0s.94-.01,1.37-.02c.43,0,.78-.01,1.05-.02v1.62ZM30.64,316.03c-.27-.01-.62-.02-1.06-.02-.44,0-.9-.01-1.38-.02-.48,0-.9,0-1.25,0h-1.06c-.54,0-1.02,0-1.42,0s-.8.02-1.2.04l-.08,1.36h-.4l-.7-2.66.13-.21,1.81-.1h2.93c.35,0,.77,0,1.25,0,.48,0,.94-.01,1.38-.02s.79-.01,1.06-.02v1.65ZM30.64,306.72h-.45l-.18-1.66v-.69l.18-1.66h.45v4.02ZM30.64,311.98h-.45l-.18-1.68v-.69l.18-1.65h.45v4.02ZM30.64,317.29h-.45l-.18-1.73v-.66l.18-1.68h.45v4.06Z"/>
        <path d="M30.88,296.4c0,.49-.11.97-.33,1.45s-.61.91-1.18,1.3v.21l-.38-.24c.41-.37.68-.73.83-1.08.15-.35.22-.73.22-1.16,0-.45-.12-.86-.35-1.22-.23-.37-.62-.66-1.15-.88-.53-.22-1.24-.33-2.11-.33-1.24,0-2.14.22-2.71.65-.57.43-.86,1.01-.86,1.72,0,.37.09.75.26,1.13.18.38.52.79,1.03,1.24l-.38.19v-.16c-.61-.42-1.05-.89-1.32-1.42-.27-.53-.41-1.08-.41-1.63,0-.66.18-1.24.53-1.74.35-.5.85-.9,1.5-1.2.65-.3,1.42-.45,2.33-.45s1.71.16,2.38.48c.67.32,1.19.75,1.55,1.3s.54,1.16.54,1.86ZM34.8,300.46c-.39-.01-.81-.02-1.25-.02s-.88-.01-1.32-.02-.85,0-1.22,0h-5.06c-.54,0-1.03,0-1.45,0-.42,0-.82.02-1.21.04l-.1,1.38h-.4l-.7-2.64.13-.21,1.33-.11.1-.02h5.74l.18.02h1.44c.36,0,.76,0,1.21,0,.44,0,.88-.01,1.33-.02.44,0,.86-.01,1.26-.02v1.63ZM34.8,301.78h-.45l-.16-1.78v-.8l.16-1.84h.45v4.42Z"/>
        <path d="M30.64,290.16c-.35-.01-.74-.02-1.16-.02-.42,0-.85-.01-1.29-.02-.44,0-.85,0-1.23,0h-8.24l-.08,1.36h-.43l-.51-2.74.14-.24,2.5.05h6.62c.38,0,.79,0,1.23,0,.44,0,.87-.01,1.29-.02.42,0,.81-.01,1.16-.02v1.66ZM30.64,291.54h-.45l-.18-1.86v-.64l.18-1.89h.45v4.38Z"/>
        <path d="M30.88,281.73c0,.81-.17,1.53-.5,2.16-.33.63-.82,1.12-1.48,1.48-.66.36-1.46.54-2.42.54s-1.71-.19-2.37-.56c-.66-.37-1.17-.87-1.53-1.49-.36-.62-.54-1.29-.54-2s.15-1.34.45-1.85c.3-.51.7-.89,1.21-1.15.51-.26,1.08-.39,1.74-.39.38,0,.7.03.96.1v6.64h-.51v-4.48c0-.3-.08-.5-.24-.61s-.42-.16-.77-.16c-.69,0-1.25.17-1.67.51-.42.34-.63.82-.63,1.44,0,.44.14.83.42,1.19.28.36.7.64,1.25.86.55.21,1.22.32,2.02.32.86,0,1.58-.13,2.14-.39.56-.26.97-.62,1.22-1.06.26-.45.38-.96.38-1.55s-.1-1.05-.3-1.46c-.2-.41-.49-.77-.86-1.08l.21-.27c.58.34,1.02.79,1.34,1.34.32.55.48,1.2.48,1.94Z"/>
        <path d="M21.87,264.91l-2.85.59.48-.83v5.74h-.58v-6.14l2.94-.1v.74ZM30.64,271.3c-.9-.02-1.8-.03-2.7-.04-.91,0-1.81,0-2.72,0h-.85c-.92,0-1.83,0-2.73,0s-1.81.02-2.71.04v-1.74c.9.01,1.81.02,2.73.02.92,0,1.88,0,2.87,0h.38c1.06,0,2.05,0,2.98,0,.93,0,1.85-.01,2.75-.02v1.74ZM19.42,272.88h-.5v-2.46h.69v.19l-.19,2.27ZM26.59,266.67l-1.78.22h-.34l-1.73-.22v-.61h3.84v.61ZM24.96,270.42h-.54v-3.87h.54v3.87ZM30.64,270.42h-.56v-6.03l.45.83-2.88-.61v-.72l2.99.08v6.45ZM30.64,272.88h-.5l-.21-2.27v-.19h.7v2.46Z"/>
        <path d="M25.53,259.7l-.88.4v-.32c-.53-.17-.99-.4-1.38-.68-.39-.28-.69-.6-.9-.96-.21-.36-.32-.72-.32-1.1,0-.32.07-.6.2-.84.13-.24.34-.4.63-.47.29,0,.52.07.7.22s.27.37.27.68c0,.21-.06.41-.18.58-.12.17-.28.35-.5.54l-.37.37.03-.69c.18.52.48.97.9,1.34.42.37,1.02.68,1.78.94ZM30.64,261.3c-.27-.01-.62-.02-1.06-.02-.44,0-.9-.01-1.38-.02-.48,0-.9,0-1.25,0h-1.04c-.55,0-1.04,0-1.44,0s-.8.02-1.18.04l-.1,1.36h-.4l-.7-2.66.13-.21,2.26-.1h2.48c.35,0,.77,0,1.25,0,.48,0,.94-.01,1.38-.02s.79-.01,1.06-.02v1.65ZM30.64,262.56h-.45l-.19-1.74v-.88l.19-1.79h.45v4.42Z"/>
        <path d="M25.53,252.13l-.88.4v-.32c-.53-.17-.99-.4-1.38-.68-.39-.28-.69-.6-.9-.96-.21-.36-.32-.72-.32-1.1,0-.32.07-.6.2-.84.13-.24.34-.4.63-.47.29,0,.52.07.7.22s.27.37.27.68c0,.21-.06.41-.18.58-.12.17-.28.35-.5.54l-.37.37.03-.69c.18.52.48.97.9,1.34.42.37,1.02.68,1.78.94ZM30.64,253.73c-.27-.01-.62-.02-1.06-.02-.44,0-.9-.01-1.38-.02-.48,0-.9,0-1.25,0h-1.04c-.55,0-1.04,0-1.44,0s-.8.02-1.18.04l-.1,1.36h-.4l-.7-2.66.13-.21,2.26-.1h2.48c.35,0,.77,0,1.25,0,.48,0,.94-.01,1.38-.02s.79-.01,1.06-.02v1.65ZM30.64,254.99h-.45l-.19-1.74v-.88l.19-1.79h.45v4.42Z"/>
        <path d="M30.88,243.55c0,.75-.17,1.43-.5,2.05s-.83,1.11-1.5,1.48c-.66.37-1.47.55-2.42.55s-1.77-.19-2.42-.58c-.66-.38-1.15-.89-1.49-1.51s-.5-1.29-.5-1.99.17-1.4.5-2.02.83-1.13,1.49-1.51c.66-.38,1.46-.58,2.42-.58s1.75.19,2.42.57,1.16.88,1.5,1.5.5,1.3.5,2.05ZM30.36,243.55c0-.76-.33-1.35-.99-1.78s-1.63-.64-2.9-.64-2.24.21-2.9.64c-.67.43-1,1.02-1,1.78s.33,1.33,1,1.76c.67.43,1.63.64,2.9.64s2.24-.21,2.9-.64c.66-.43.99-1.01.99-1.76Z"/>
        <path d="M25.53,235.2l-.88.4v-.32c-.53-.17-.99-.4-1.38-.68-.39-.28-.69-.6-.9-.96-.21-.36-.32-.72-.32-1.1,0-.32.07-.6.2-.84.13-.24.34-.4.63-.47.29,0,.52.07.7.22s.27.37.27.68c0,.21-.06.41-.18.58-.12.17-.28.35-.5.54l-.37.37.03-.69c.18.52.48.97.9,1.34.42.37,1.02.68,1.78.94ZM30.64,236.8c-.27-.01-.62-.02-1.06-.02-.44,0-.9-.01-1.38-.02-.48,0-.9,0-1.25,0h-1.04c-.55,0-1.04,0-1.44,0s-.8.02-1.18.04l-.1,1.36h-.4l-.7-2.66.13-.21,2.26-.1h2.48c.35,0,.77,0,1.25,0,.48,0,.94-.01,1.38-.02s.79-.01,1.06-.02v1.65ZM30.64,238.06h-.45l-.19-1.74v-.88l.19-1.79h.45v4.42Z"/>
      </g>
      <g>
        <path d="M207.3,356.65h-.5v-4.94h.5l.19,2.3v.37l-.19,2.27ZM218.52,355.07c-.9-.03-1.8-.05-2.7-.05h-6.3c-.9,0-1.81.02-2.71.05v-1.76c.9.02,1.8.04,2.7.04.91,0,1.82,0,2.74,0h.83c.92,0,1.83,0,2.73,0,.9,0,1.81-.02,2.71-.04v1.76ZM218.52,356.65h-.5l-.21-2.27v-.37l.21-2.3h.5v4.94Z"/>
        <path d="M218.52,343.54c-.27-.01-.62-.02-1.05-.02-.43,0-.89-.01-1.37-.02-.48,0-.9,0-1.26,0h-1.95c-.75,0-1.27.12-1.58.37s-.46.59-.46,1.04c0,.35.12.77.36,1.26.24.49.67,1.01,1.29,1.57l-.58.11v-.18c-.73-.59-1.24-1.16-1.54-1.73-.3-.57-.46-1.13-.46-1.7,0-.71.24-1.27.71-1.68s1.25-.61,2.31-.61h1.89c.36,0,.78,0,1.26,0,.48,0,.94-.01,1.37-.02.43,0,.78-.02,1.05-.03v1.65ZM218.52,348.99c-.27,0-.62-.02-1.06-.02s-.9-.01-1.38-.02c-.48,0-.9,0-1.25,0h-1.04c-.54,0-1.02,0-1.43,0-.41,0-.81.02-1.19.04l-.1,1.36h-.4l-.7-2.66.13-.21,1.86-.1h2.88c.35,0,.77,0,1.25,0,.48,0,.94-.01,1.38-.02.44,0,.79-.01,1.06-.02v1.65ZM218.52,344.78h-.45l-.18-1.7v-.67l.18-1.68h.45v4.05ZM218.52,350.25h-.45l-.18-1.73v-.66l.18-1.68h.45v4.06Z"/>
        <path d="M214.61,339.57h-.88v-4.24h.88v4.24Z"/>
        <path d="M218.76,331.02c0,.54-.06,1.03-.17,1.46-.11.43-.28.87-.5,1.3l-1.95-.02v-.75l2.08-.42-.05.64h-.58c.2-.32.36-.64.47-.97.11-.33.17-.72.17-1.18,0-.69-.14-1.22-.41-1.57-.27-.35-.64-.53-1.1-.53-.38,0-.7.12-.94.35-.25.23-.47.68-.67,1.34l-.3.85c-.22.65-.53,1.17-.9,1.56-.38.39-.88.58-1.5.58-.7,0-1.29-.27-1.77-.81-.47-.54-.71-1.31-.71-2.31,0-.5.06-.94.18-1.33s.3-.78.54-1.2l1.76.06v.69l-1.94.45.13-.54h.51c-.23.32-.4.62-.5.91-.1.29-.14.6-.14.94,0,.59.13,1.04.39,1.34.26.31.6.46,1.02.46.36,0,.66-.12.9-.38.24-.25.46-.67.66-1.26l.29-.83c.28-.82.61-1.4,1.01-1.75.4-.35.88-.52,1.46-.52.49,0,.93.13,1.32.39s.69.64.91,1.14.33,1.12.33,1.86Z"/>
        <path d="M218.74,319.63c0,.49-.16.86-.48,1.11-.32.25-.76.4-1.31.44h-4.27c-.6,0-1.06.06-1.38.19-.32.13-.54.32-.67.58s-.19.6-.19,1.02c0,.3.04.6.12.9.08.3.22.64.41,1l-.43-.78,1.26.24c.33.03.57.13.7.28.14.15.21.34.21.55,0,.43-.21.69-.62.79-.67-.14-1.2-.5-1.58-1.1-.38-.59-.58-1.37-.58-2.34s.23-1.69.69-2.14,1.2-.69,2.22-.69h4.02c.46,0,.77-.06.94-.17s.26-.27.26-.47c0-.13-.03-.25-.1-.35-.06-.11-.18-.23-.34-.37l.22-.26c.31.17.54.39.68.65.14.26.22.57.22.92ZM218.76,323.95c0,.64-.18,1.17-.54,1.6s-.88.64-1.55.64c-.43,0-.8-.09-1.14-.28-.33-.19-.63-.5-.89-.94s-.5-1.02-.71-1.76c-.13-.44-.26-.91-.38-1.41s-.25-.96-.35-1.39h.4c.11.43.22.86.34,1.29.12.43.25.82.38,1.16.25.65.54,1.12.89,1.4.35.28.76.42,1.24.42s.86-.13,1.1-.39c.25-.26.37-.61.37-1.03,0-.22-.04-.45-.13-.67-.08-.22-.24-.48-.47-.77-.23-.29-.55-.63-.95-1.02l.78-.16v.43c.35.32.65.62.89.91.24.29.42.59.54.9.12.31.18.67.18,1.07Z"/>
        <path d="M218.52,305.49c-.27,0-.62-.02-1.05-.02-.43,0-.89,0-1.37-.02s-.9,0-1.26,0h-1.89c-.79,0-1.34.12-1.64.36s-.46.58-.46,1.03c0,.39.12.81.36,1.26.24.44.66.92,1.26,1.43l-.66.16v-.22c-.65-.5-1.13-1.02-1.43-1.55-.3-.53-.46-1.09-.46-1.66,0-.77.24-1.35.71-1.74s1.25-.59,2.33-.59h1.87c.36,0,.78,0,1.26,0,.48,0,.94,0,1.37-.02.43,0,.78-.01,1.05-.02v1.63ZM218.52,310.73c-.27,0-.62-.02-1.05-.02-.43,0-.89,0-1.37-.02s-.9,0-1.26,0h-1.89c-.77,0-1.31.12-1.62.36-.31.24-.47.57-.47.98,0,.39.13.82.4,1.28.27.46.7.94,1.3,1.46l-.62.13v-.21c-.65-.5-1.15-1.02-1.49-1.56-.34-.54-.51-1.11-.51-1.7,0-.71.24-1.27.71-1.66s1.25-.59,2.31-.59h1.89c.36,0,.78,0,1.26,0s.94-.01,1.37-.02c.43,0,.78-.01,1.05-.02v1.62ZM218.52,316.03c-.27-.01-.62-.02-1.06-.02-.44,0-.9-.01-1.38-.02-.48,0-.9,0-1.25,0h-1.06c-.54,0-1.02,0-1.42,0s-.8.02-1.2.04l-.08,1.36h-.4l-.7-2.66.13-.21,1.81-.1h2.93c.35,0,.77,0,1.25,0,.48,0,.94-.01,1.38-.02s.79-.01,1.06-.02v1.65ZM218.52,306.72h-.45l-.18-1.66v-.69l.18-1.66h.45v4.02ZM218.52,311.98h-.45l-.18-1.68v-.69l.18-1.65h.45v4.02ZM218.52,317.29h-.45l-.18-1.73v-.66l.18-1.68h.45v4.06Z"/>
        <path d="M218.76,296.4c0,.49-.11.97-.33,1.45s-.61.91-1.18,1.3v.21l-.38-.24c.41-.37.68-.73.83-1.08.15-.35.22-.73.22-1.16,0-.45-.12-.86-.35-1.22-.23-.37-.62-.66-1.15-.88-.53-.22-1.24-.33-2.11-.33-1.24,0-2.14.22-2.71.65-.57.43-.86,1.01-.86,1.72,0,.37.09.75.26,1.13.18.38.52.79,1.03,1.24l-.38.19v-.16c-.61-.42-1.05-.89-1.32-1.42-.27-.53-.41-1.08-.41-1.63,0-.66.18-1.24.53-1.74.35-.5.85-.9,1.5-1.2.65-.3,1.42-.45,2.33-.45s1.71.16,2.38.48c.67.32,1.19.75,1.55,1.3s.54,1.16.54,1.86ZM222.68,300.46c-.39-.01-.81-.02-1.25-.02s-.88-.01-1.32-.02-.85,0-1.22,0h-5.06c-.54,0-1.03,0-1.45,0-.42,0-.82.02-1.21.04l-.1,1.38h-.4l-.7-2.64.13-.21,1.33-.11.1-.02h5.74l.18.02h1.44c.36,0,.76,0,1.21,0,.44,0,.88-.01,1.33-.02.44,0,.86-.01,1.26-.02v1.63ZM222.68,301.78h-.45l-.16-1.78v-.8l.16-1.84h.45v4.42Z"/>
        <path d="M218.52,290.16c-.35-.01-.74-.02-1.16-.02-.42,0-.85-.01-1.29-.02-.44,0-.85,0-1.23,0h-8.24l-.08,1.36h-.43l-.51-2.74.14-.24,2.5.05h6.62c.38,0,.79,0,1.23,0,.44,0,.87-.01,1.29-.02.42,0,.81-.01,1.16-.02v1.66ZM218.52,291.54h-.45l-.18-1.86v-.64l.18-1.89h.45v4.38Z"/>
        <path d="M218.76,281.73c0,.81-.17,1.53-.5,2.16-.33.63-.82,1.12-1.48,1.48-.66.36-1.46.54-2.42.54s-1.71-.19-2.37-.56c-.66-.37-1.17-.87-1.53-1.49-.36-.62-.54-1.29-.54-2s.15-1.34.45-1.85c.3-.51.7-.89,1.21-1.15.51-.26,1.08-.39,1.74-.39.38,0,.7.03.96.1v6.64h-.51v-4.48c0-.3-.08-.5-.24-.61s-.42-.16-.77-.16c-.69,0-1.25.17-1.67.51-.42.34-.63.82-.63,1.44,0,.44.14.83.42,1.19.28.36.7.64,1.25.86.55.21,1.22.32,2.02.32.86,0,1.58-.13,2.14-.39.56-.26.97-.62,1.22-1.06.26-.45.38-.96.38-1.55s-.1-1.05-.3-1.46c-.2-.41-.49-.77-.86-1.08l.21-.27c.58.34,1.02.79,1.34,1.34.32.55.48,1.2.48,1.94Z"/>
        <path d="M209.75,264.91l-2.85.59.48-.83v5.74h-.58v-6.14l2.94-.1v.74ZM218.52,271.3c-.9-.02-1.8-.03-2.7-.04-.91,0-1.81,0-2.72,0h-.85c-.92,0-1.83,0-2.73,0s-1.81.02-2.71.04v-1.74c.9.01,1.81.02,2.73.02.92,0,1.88,0,2.87,0h.38c1.06,0,2.05,0,2.98,0,.93,0,1.85-.01,2.75-.02v1.74ZM207.3,272.88h-.5v-2.46h.69v.19l-.19,2.27ZM214.47,266.67l-1.78.22h-.34l-1.73-.22v-.61h3.84v.61ZM212.84,270.42h-.54v-3.87h.54v3.87ZM218.52,270.42h-.56v-6.03l.45.83-2.88-.61v-.72l2.99.08v6.45ZM218.52,272.88h-.5l-.21-2.27v-.19h.7v2.46Z"/>
        <path d="M213.42,259.7l-.88.4v-.32c-.53-.17-.99-.4-1.38-.68-.39-.28-.69-.6-.9-.96-.21-.36-.32-.72-.32-1.1,0-.32.07-.6.2-.84.13-.24.34-.4.63-.47.29,0,.52.07.7.22s.27.37.27.68c0,.21-.06.41-.18.58-.12.17-.28.35-.5.54l-.37.37.03-.69c.18.52.48.97.9,1.34.42.37,1.02.68,1.78.94ZM218.52,261.3c-.27-.01-.62-.02-1.06-.02-.44,0-.9-.01-1.38-.02-.48,0-.9,0-1.25,0h-1.04c-.55,0-1.04,0-1.44,0s-.8.02-1.18.04l-.1,1.36h-.4l-.7-2.66.13-.21,2.26-.1h2.48c.35,0,.77,0,1.25,0,.48,0,.94-.01,1.38-.02s.79-.01,1.06-.02v1.65ZM218.52,262.56h-.45l-.19-1.74v-.88l.19-1.79h.45v4.42Z"/>
        <path d="M213.42,252.13l-.88.4v-.32c-.53-.17-.99-.4-1.38-.68-.39-.28-.69-.6-.9-.96-.21-.36-.32-.72-.32-1.1,0-.32.07-.6.2-.84.13-.24.34-.4.63-.47.29,0,.52.07.7.22s.27.37.27.68c0,.21-.06.41-.18.58-.12.17-.28.35-.5.54l-.37.37.03-.69c.18.52.48.97.9,1.34.42.37,1.02.68,1.78.94ZM218.52,253.73c-.27-.01-.62-.02-1.06-.02-.44,0-.9-.01-1.38-.02-.48,0-.9,0-1.25,0h-1.04c-.55,0-1.04,0-1.44,0s-.8.02-1.18.04l-.1,1.36h-.4l-.7-2.66.13-.21,2.26-.1h2.48c.35,0,.77,0,1.25,0,.48,0,.94-.01,1.38-.02s.79-.01,1.06-.02v1.65ZM218.52,254.99h-.45l-.19-1.74v-.88l.19-1.79h.45v4.42Z"/>
        <path d="M218.76,243.55c0,.75-.17,1.43-.5,2.05s-.83,1.11-1.5,1.48c-.66.37-1.47.55-2.42.55s-1.77-.19-2.42-.58c-.66-.38-1.15-.89-1.49-1.51s-.5-1.29-.5-1.99.17-1.4.5-2.02.83-1.13,1.49-1.51c.66-.38,1.46-.58,2.42-.58s1.75.19,2.42.57,1.16.88,1.5,1.5.5,1.3.5,2.05ZM218.25,243.55c0-.76-.33-1.35-.99-1.78s-1.63-.64-2.9-.64-2.24.21-2.9.64c-.67.43-1,1.02-1,1.78s.33,1.33,1,1.76c.67.43,1.63.64,2.9.64s2.24-.21,2.9-.64c.66-.43.99-1.01.99-1.76Z"/>
        <path d="M213.42,235.2l-.88.4v-.32c-.53-.17-.99-.4-1.38-.68-.39-.28-.69-.6-.9-.96-.21-.36-.32-.72-.32-1.1,0-.32.07-.6.2-.84.13-.24.34-.4.63-.47.29,0,.52.07.7.22s.27.37.27.68c0,.21-.06.41-.18.58-.12.17-.28.35-.5.54l-.37.37.03-.69c.18.52.48.97.9,1.34.42.37,1.02.68,1.78.94ZM218.52,236.8c-.27-.01-.62-.02-1.06-.02-.44,0-.9-.01-1.38-.02-.48,0-.9,0-1.25,0h-1.04c-.55,0-1.04,0-1.44,0s-.8.02-1.18.04l-.1,1.36h-.4l-.7-2.66.13-.21,2.26-.1h2.48c.35,0,.77,0,1.25,0,.48,0,.94-.01,1.38-.02s.79-.01,1.06-.02v1.65ZM218.52,238.06h-.45l-.19-1.74v-.88l.19-1.79h.45v4.42Z"/>
      </g>
      <g>
        <path d="M399.11,358.45h-.5v-4.94h.5l.19,2.3v.37l-.19,2.27ZM410.33,356.87c-.9-.03-1.8-.05-2.7-.05h-6.3c-.9,0-1.81.02-2.71.05v-1.76c.9.02,1.8.04,2.7.04.91,0,1.82,0,2.74,0h.83c.92,0,1.83,0,2.73,0,.9,0,1.81-.02,2.71-.04v1.76ZM410.33,358.45h-.5l-.21-2.27v-.37l.21-2.3h.5v4.94Z"/>
        <path d="M410.33,345.33c-.27-.01-.62-.02-1.05-.02-.43,0-.89-.01-1.37-.02-.48,0-.9,0-1.26,0h-1.95c-.75,0-1.27.12-1.58.37s-.46.59-.46,1.04c0,.35.12.77.36,1.26.24.49.67,1.01,1.29,1.57l-.58.11v-.18c-.73-.59-1.24-1.16-1.54-1.73-.3-.57-.46-1.13-.46-1.7,0-.71.24-1.27.71-1.68s1.25-.61,2.31-.61h1.89c.36,0,.78,0,1.26,0,.48,0,.94-.01,1.37-.02.43,0,.78-.02,1.05-.03v1.65ZM410.33,350.79c-.27,0-.62-.02-1.06-.02s-.9-.01-1.38-.02c-.48,0-.9,0-1.25,0h-1.04c-.54,0-1.02,0-1.43,0-.41,0-.81.02-1.19.04l-.1,1.36h-.4l-.7-2.66.13-.21,1.86-.1h2.88c.35,0,.77,0,1.25,0,.48,0,.94-.01,1.38-.02.44,0,.79-.01,1.06-.02v1.65ZM410.33,346.58h-.45l-.18-1.7v-.67l.18-1.68h.45v4.05ZM410.33,352.05h-.45l-.18-1.73v-.66l.18-1.68h.45v4.06Z"/>
        <path d="M406.43,341.36h-.88v-4.24h.88v4.24Z"/>
        <path d="M410.57,332.82c0,.54-.06,1.03-.17,1.46-.11.43-.28.87-.5,1.3l-1.95-.02v-.75l2.08-.42-.05.64h-.58c.2-.32.36-.64.47-.97.11-.33.17-.72.17-1.18,0-.69-.14-1.22-.41-1.57-.27-.35-.64-.53-1.1-.53-.38,0-.7.12-.94.35-.25.23-.47.68-.67,1.34l-.3.85c-.22.65-.53,1.17-.9,1.56-.38.39-.88.58-1.5.58-.7,0-1.29-.27-1.77-.81-.47-.54-.71-1.31-.71-2.31,0-.5.06-.94.18-1.33s.3-.78.54-1.2l1.76.06v.69l-1.94.45.13-.54h.51c-.23.32-.4.62-.5.91-.1.29-.14.6-.14.94,0,.59.13,1.04.39,1.34.26.31.6.46,1.02.46.36,0,.66-.12.9-.38.24-.25.46-.67.66-1.26l.29-.83c.28-.82.61-1.4,1.01-1.75.4-.35.88-.52,1.46-.52.49,0,.93.13,1.32.39s.69.64.91,1.14.33,1.12.33,1.86Z"/>
        <path d="M410.55,321.43c0,.49-.16.86-.48,1.11-.32.25-.76.4-1.31.44h-4.27c-.6,0-1.06.06-1.38.19-.32.13-.54.32-.67.58s-.19.6-.19,1.02c0,.3.04.6.12.9.08.3.22.64.41,1l-.43-.78,1.26.24c.33.03.57.13.7.28.14.15.21.34.21.55,0,.43-.21.69-.62.79-.67-.14-1.2-.5-1.58-1.1-.38-.59-.58-1.37-.58-2.34s.23-1.69.69-2.14,1.2-.69,2.22-.69h4.02c.46,0,.77-.06.94-.17s.26-.27.26-.47c0-.13-.03-.25-.1-.35-.06-.11-.18-.23-.34-.37l.22-.26c.31.17.54.39.68.65.14.26.22.57.22.92ZM410.57,325.75c0,.64-.18,1.17-.54,1.6s-.88.64-1.55.64c-.43,0-.8-.09-1.14-.28-.33-.19-.63-.5-.89-.94s-.5-1.02-.71-1.76c-.13-.44-.26-.91-.38-1.41s-.25-.96-.35-1.39h.4c.11.43.22.86.34,1.29.12.43.25.82.38,1.16.25.65.54,1.12.89,1.4.35.28.76.42,1.24.42s.86-.13,1.1-.39c.25-.26.37-.61.37-1.03,0-.22-.04-.45-.13-.67-.08-.22-.24-.48-.47-.77-.23-.29-.55-.63-.95-1.02l.78-.16v.43c.35.32.65.62.89.91.24.29.42.59.54.9.12.31.18.67.18,1.07Z"/>
        <path d="M410.33,307.28c-.27,0-.62-.02-1.05-.02-.43,0-.89,0-1.37-.02s-.9,0-1.26,0h-1.89c-.79,0-1.34.12-1.64.36s-.46.58-.46,1.03c0,.39.12.81.36,1.26.24.44.66.92,1.26,1.43l-.66.16v-.22c-.65-.5-1.13-1.02-1.43-1.55-.3-.53-.46-1.09-.46-1.66,0-.77.24-1.35.71-1.74s1.25-.59,2.33-.59h1.87c.36,0,.78,0,1.26,0,.48,0,.94,0,1.37-.02.43,0,.78-.01,1.05-.02v1.63ZM410.33,312.53c-.27,0-.62-.02-1.05-.02-.43,0-.89,0-1.37-.02s-.9,0-1.26,0h-1.89c-.77,0-1.31.12-1.62.36-.31.24-.47.57-.47.98,0,.39.13.82.4,1.28.27.46.7.94,1.3,1.46l-.62.13v-.21c-.65-.5-1.15-1.02-1.49-1.56-.34-.54-.51-1.11-.51-1.7,0-.71.24-1.27.71-1.66s1.25-.59,2.31-.59h1.89c.36,0,.78,0,1.26,0s.94-.01,1.37-.02c.43,0,.78-.01,1.05-.02v1.62ZM410.33,317.83c-.27-.01-.62-.02-1.06-.02-.44,0-.9-.01-1.38-.02-.48,0-.9,0-1.25,0h-1.06c-.54,0-1.02,0-1.42,0s-.8.02-1.2.04l-.08,1.36h-.4l-.7-2.66.13-.21,1.81-.1h2.93c.35,0,.77,0,1.25,0,.48,0,.94-.01,1.38-.02s.79-.01,1.06-.02v1.65ZM410.33,308.52h-.45l-.18-1.66v-.69l.18-1.66h.45v4.02ZM410.33,313.78h-.45l-.18-1.68v-.69l.18-1.65h.45v4.02ZM410.33,319.09h-.45l-.18-1.73v-.66l.18-1.68h.45v4.06Z"/>
        <path d="M410.57,298.2c0,.49-.11.97-.33,1.45s-.61.91-1.18,1.3v.21l-.38-.24c.41-.37.68-.73.83-1.08.15-.35.22-.73.22-1.16,0-.45-.12-.86-.35-1.22-.23-.37-.62-.66-1.15-.88-.53-.22-1.24-.33-2.11-.33-1.24,0-2.14.22-2.71.65-.57.43-.86,1.01-.86,1.72,0,.37.09.75.26,1.13.18.38.52.79,1.03,1.24l-.38.19v-.16c-.61-.42-1.05-.89-1.32-1.42-.27-.53-.41-1.08-.41-1.63,0-.66.18-1.24.53-1.74.35-.5.85-.9,1.5-1.2.65-.3,1.42-.45,2.33-.45s1.71.16,2.38.48c.67.32,1.19.75,1.55,1.3s.54,1.16.54,1.86ZM414.49,302.26c-.39,0-.81-.02-1.25-.02-.44,0-.88-.01-1.32-.02s-.85,0-1.22,0h-5.06c-.54,0-1.03,0-1.45,0-.42,0-.82.02-1.21.04l-.1,1.38h-.4l-.7-2.64.13-.21,1.33-.11.1-.02h5.74l.18.02h1.44c.36,0,.76,0,1.21,0,.44,0,.88-.01,1.33-.02.44,0,.86-.01,1.26-.02v1.63ZM414.49,303.57h-.45l-.16-1.78v-.8l.16-1.84h.45v4.42Z"/>
        <path d="M410.33,291.96c-.35-.01-.74-.02-1.16-.02-.42,0-.85-.01-1.29-.02-.44,0-.85,0-1.23,0h-8.24l-.08,1.36h-.43l-.51-2.74.14-.24,2.5.05h6.62c.38,0,.79,0,1.23,0,.44,0,.87-.01,1.29-.02.42,0,.81-.01,1.16-.02v1.66ZM410.33,293.33h-.45l-.18-1.86v-.64l.18-1.89h.45v4.38Z"/>
        <path d="M410.57,283.52c0,.81-.17,1.53-.5,2.16-.33.63-.82,1.12-1.48,1.48-.66.36-1.46.54-2.42.54s-1.71-.19-2.37-.56c-.66-.37-1.17-.87-1.53-1.49-.36-.62-.54-1.29-.54-2s.15-1.34.45-1.85c.3-.51.7-.89,1.21-1.15.51-.26,1.08-.39,1.74-.39.38,0,.7.03.96.1v6.64h-.51v-4.48c0-.3-.08-.5-.24-.61s-.42-.16-.77-.16c-.69,0-1.25.17-1.67.51-.42.34-.63.82-.63,1.44,0,.44.14.83.42,1.19.28.36.7.64,1.25.86.55.21,1.22.32,2.02.32.86,0,1.58-.13,2.14-.39.56-.26.97-.62,1.22-1.06.26-.45.38-.96.38-1.55s-.1-1.05-.3-1.46c-.2-.41-.49-.77-.86-1.08l.21-.27c.58.34,1.02.79,1.34,1.34.32.55.48,1.2.48,1.94Z"/>
        <path d="M401.56,266.71l-2.85.59.48-.83v5.74h-.58v-6.14l2.94-.1v.74ZM410.33,273.09c-.9-.02-1.8-.03-2.7-.04-.91,0-1.81,0-2.72,0h-.85c-.92,0-1.83,0-2.73,0s-1.81.02-2.71.04v-1.74c.9.01,1.81.02,2.73.02.92,0,1.88,0,2.87,0h.38c1.06,0,2.05,0,2.98,0,.93,0,1.85-.01,2.75-.02v1.74ZM399.11,274.68h-.5v-2.46h.69v.19l-.19,2.27ZM406.28,268.47l-1.78.22h-.34l-1.73-.22v-.61h3.84v.61ZM404.65,272.21h-.54v-3.87h.54v3.87ZM410.33,272.21h-.56v-6.03l.45.83-2.88-.61v-.72l2.99.08v6.45ZM410.33,274.68h-.5l-.21-2.27v-.19h.7v2.46Z"/>
        <path d="M405.23,261.49l-.88.4v-.32c-.53-.17-.99-.4-1.38-.68-.39-.28-.69-.6-.9-.96-.21-.36-.32-.72-.32-1.1,0-.32.07-.6.2-.84.13-.24.34-.4.63-.47.29,0,.52.07.7.22s.27.37.27.68c0,.21-.06.41-.18.58-.12.17-.28.35-.5.54l-.37.37.03-.69c.18.52.48.97.9,1.34.42.37,1.02.68,1.78.94ZM410.33,263.09c-.27-.01-.62-.02-1.06-.02-.44,0-.9-.01-1.38-.02-.48,0-.9,0-1.25,0h-1.04c-.55,0-1.04,0-1.44,0s-.8.02-1.18.04l-.1,1.36h-.4l-.7-2.66.13-.21,2.26-.1h2.48c.35,0,.77,0,1.25,0,.48,0,.94-.01,1.38-.02s.79-.01,1.06-.02v1.65ZM410.33,264.36h-.45l-.19-1.74v-.88l.19-1.79h.45v4.42Z"/>
        <path d="M405.23,253.92l-.88.4v-.32c-.53-.17-.99-.4-1.38-.68-.39-.28-.69-.6-.9-.96-.21-.36-.32-.72-.32-1.1,0-.32.07-.6.2-.84.13-.24.34-.4.63-.47.29,0,.52.07.7.22s.27.37.27.68c0,.21-.06.41-.18.58-.12.17-.28.35-.5.54l-.37.37.03-.69c.18.52.48.97.9,1.34.42.37,1.02.68,1.78.94ZM410.33,255.52c-.27-.01-.62-.02-1.06-.02-.44,0-.9-.01-1.38-.02-.48,0-.9,0-1.25,0h-1.04c-.55,0-1.04,0-1.44,0s-.8.02-1.18.04l-.1,1.36h-.4l-.7-2.66.13-.21,2.26-.1h2.48c.35,0,.77,0,1.25,0,.48,0,.94-.01,1.38-.02s.79-.01,1.06-.02v1.65ZM410.33,256.79h-.45l-.19-1.74v-.88l.19-1.79h.45v4.42Z"/>
        <path d="M410.57,245.35c0,.75-.17,1.43-.5,2.05s-.83,1.11-1.5,1.48c-.66.37-1.47.55-2.42.55s-1.77-.19-2.42-.58c-.66-.38-1.15-.89-1.49-1.51s-.5-1.29-.5-1.99.17-1.4.5-2.02.83-1.13,1.49-1.51c.66-.38,1.46-.58,2.42-.58s1.75.19,2.42.57,1.16.88,1.5,1.5.5,1.3.5,2.05ZM410.06,245.35c0-.76-.33-1.35-.99-1.78s-1.63-.64-2.9-.64-2.24.21-2.9.64c-.67.43-1,1.02-1,1.78s.33,1.33,1,1.76c.67.43,1.63.64,2.9.64s2.24-.21,2.9-.64c.66-.43.99-1.01.99-1.76Z"/>
        <path d="M405.23,237l-.88.4v-.32c-.53-.17-.99-.4-1.38-.68-.39-.28-.69-.6-.9-.96-.21-.36-.32-.72-.32-1.1,0-.32.07-.6.2-.84.13-.24.34-.4.63-.47.29,0,.52.07.7.22s.27.37.27.68c0,.21-.06.41-.18.58-.12.17-.28.35-.5.54l-.37.37.03-.69c.18.52.48.97.9,1.34.42.37,1.02.68,1.78.94ZM410.33,238.6c-.27-.01-.62-.02-1.06-.02-.44,0-.9-.01-1.38-.02-.48,0-.9,0-1.25,0h-1.04c-.55,0-1.04,0-1.44,0s-.8.02-1.18.04l-.1,1.36h-.4l-.7-2.66.13-.21,2.26-.1h2.48c.35,0,.77,0,1.25,0,.48,0,.94-.01,1.38-.02s.79-.01,1.06-.02v1.65ZM410.33,239.86h-.45l-.19-1.74v-.88l.19-1.79h.45v4.42Z"/>
      </g>
      <g>
        <path d="M273.58,379.85v-.5h4.67v.5l-2.14.19h-.42l-2.11-.19ZM278.09,391.17l-3.34-11.81h1.73l2.7,10.18h-.29l.08-.24,2.93-9.94h.88l3.01,10.24h-.29l.06-.26,2.62-9.98h.72l-3.26,11.81h-.9l-3.06-10.1h.3l-.08.24-2.93,9.86h-.9ZM280.11,379.85v-.5h4.61v.5l-2.05.19h-.59l-1.97-.19ZM286.43,379.85v-.5h3.87v.5l-1.76.19h-.35l-1.76-.19Z"/>
        <path d="M293.85,391.31c-.81,0-1.53-.17-2.16-.5-.63-.33-1.12-.82-1.48-1.48-.36-.66-.54-1.46-.54-2.42s.19-1.71.56-2.37c.37-.66.87-1.17,1.49-1.53.62-.36,1.29-.54,2-.54s1.34.15,1.85.45c.51.3.89.7,1.15,1.21.26.51.39,1.08.39,1.74,0,.38-.03.7-.1.96h-6.64v-.51h4.48c.3,0,.5-.08.61-.24s.16-.42.16-.77c0-.69-.17-1.25-.51-1.67-.34-.42-.82-.63-1.44-.63-.44,0-.83.14-1.19.42-.36.28-.64.7-.86,1.25-.21.55-.32,1.22-.32,2.02,0,.86.13,1.58.39,2.14.26.56.62.97,1.06,1.22.45.26.96.38,1.55.38s1.05-.1,1.46-.3c.41-.2.77-.49,1.08-.86l.27.21c-.34.58-.79,1.02-1.34,1.34-.55.32-1.2.48-1.94.48Z"/>
        <path d="M299.74,391.07c.01-.27.02-.62.03-1.06s.02-.9.02-1.38c0-.48,0-.9,0-1.25v-1.02c0-.54,0-1.03-.02-1.45-.01-.42-.03-.83-.05-1.22l-1.38-.08v-.4l2.83-.69.21.13-.05,2.3v2.43c0,.35,0,.77,0,1.25,0,.48.01.94.02,1.38,0,.44.01.79.02,1.06h-1.66ZM298.48,391.07v-.45l1.74-.18h.64l1.71.18v.45h-4.1ZM300.46,380.59c-.28,0-.51-.09-.71-.27s-.3-.42-.3-.7.1-.52.3-.7c.2-.18.43-.27.71-.27s.52.09.72.27c.2.18.3.42.3.7s-.1.52-.3.7c-.2.18-.44.27-.72.27Z"/>
        <path d="M307.2,395.23c-.83,0-1.5-.09-1.99-.28s-.85-.44-1.07-.75-.33-.67-.33-1.08c0-.48.18-.9.54-1.26.36-.36.89-.68,1.59-.94l.08.13c-.38.31-.67.59-.85.86-.18.26-.27.58-.27.97,0,.58.21,1.01.62,1.31.41.3.99.45,1.74.45,1.1,0,1.93-.19,2.49-.57.56-.38.84-.86.84-1.45,0-.33-.12-.63-.37-.89-.25-.26-.69-.39-1.34-.39h-1.92c-.3,0-.55,0-.76-.02s-.4-.05-.58-.11v-.03c-.84-.22-1.26-.71-1.26-1.46,0-.35.11-.69.32-1.02.21-.33.58-.67,1.09-1.05v-.14l.35.18c-.26.28-.45.52-.57.72-.12.2-.18.43-.18.69,0,.28.09.5.28.66s.5.24.94.24h2.35c.69,0,1.26.09,1.7.26.44.18.76.43.97.76.21.33.31.72.31,1.17,0,.51-.18,1-.54,1.47-.36.47-.88.85-1.58,1.14-.7.29-1.55.44-2.57.44ZM307.44,388.22c-.68,0-1.27-.12-1.75-.37s-.86-.58-1.11-1.01-.38-.92-.38-1.49c0-.86.29-1.56.86-2.09.57-.53,1.37-.79,2.39-.79.53,0,1,.07,1.42.22.41.14.75.35,1.02.63l.05.05c.5.48.75,1.14.75,1.98,0,.57-.13,1.06-.38,1.49s-.63.76-1.11,1.01-1.06.37-1.74.37ZM307.42,387.73c.57,0,1.01-.22,1.34-.65.33-.43.49-1.01.49-1.74s-.17-1.3-.5-1.74c-.33-.43-.76-.65-1.3-.65-.57,0-1.01.22-1.34.66s-.49,1.02-.49,1.74.16,1.29.48,1.72c.32.43.76.65,1.31.65ZM309.37,383.52v-.26h.1l2.24-.74.27.18v.94l-2.61-.13Z"/>
        <path d="M314.11,391.07c.01-.27.02-.62.02-1.06,0-.44.01-.9.02-1.38,0-.48,0-.9,0-1.25v-8.24l-1.36-.08v-.43l2.7-.51.24.14-.05,2.5v3.57l.03.21v2.85c0,.35,0,.77,0,1.25,0,.48.01.94.02,1.38,0,.44.01.79.02,1.06h-1.66ZM312.85,391.07v-.45l1.73-.18h.67l1.65.18v.45h-4.05ZM319.57,391.07c.02-.27.03-.62.04-1.05,0-.43,0-.89.02-1.37,0-.48,0-.9,0-1.26v-1.95c0-.75-.13-1.27-.38-1.58s-.6-.46-1.04-.46c-.37,0-.8.12-1.28.35-.48.23-1,.67-1.55,1.3l-.34-.59h.43c.55-.69,1.11-1.2,1.66-1.51s1.13-.47,1.73-.47c.73,0,1.29.23,1.7.7.41.47.62,1.25.62,2.35v1.86c0,.36,0,.78,0,1.26,0,.48.01.94.02,1.37.01.43.02.78.03,1.05h-1.68ZM318.33,391.07v-.45l1.7-.18h.66l1.71.18v.45h-4.06Z"/>
        <path d="M326.7,391.31c-.69,0-1.21-.18-1.55-.54-.34-.36-.51-.91-.51-1.66,0-.27,0-.51,0-.72,0-.21,0-.47,0-.77v-4.3h-1.54v-.5l1.87-.14-.3.22.56-2.7h1.02l-.05,2.77v6.19c0,.48.09.83.28,1.05.19.22.45.33.79.33.23,0,.44-.04.62-.11.18-.08.37-.18.58-.32l.24.29c-.22.3-.5.53-.83.68-.33.15-.73.23-1.2.23ZM325.44,383.33v-.61h3.01v.61h-3.01Z"/>
        <path d="M332.54,391.31c-.54,0-1.03-.06-1.46-.17-.43-.11-.87-.28-1.3-.5l.02-1.95h.75l.42,2.08-.64-.05v-.58c.32.2.64.36.97.47s.72.17,1.18.17c.69,0,1.22-.14,1.57-.41.35-.27.53-.64.53-1.1,0-.38-.12-.7-.35-.94-.23-.25-.68-.47-1.34-.67l-.85-.3c-.65-.22-1.17-.53-1.56-.9-.39-.38-.58-.88-.58-1.5,0-.7.27-1.29.81-1.77.54-.47,1.31-.71,2.31-.71.5,0,.94.06,1.33.18s.78.3,1.2.54l-.06,1.76h-.69l-.45-1.94.54.13v.51c-.32-.23-.62-.4-.91-.5-.29-.1-.6-.14-.94-.14-.59,0-1.03.13-1.34.39-.31.26-.46.6-.46,1.02,0,.36.12.66.38.9.25.24.67.46,1.26.66l.83.29c.82.28,1.41.61,1.75,1.01.35.4.52.88.52,1.46,0,.49-.13.93-.39,1.32s-.64.69-1.14.91c-.5.22-1.12.33-1.86.33Z"/>
      </g>
      <g>
        <path d="M465.51,379.85v-.5h4.67v.5l-2.14.19h-.42l-2.11-.19ZM470.02,391.17l-3.34-11.81h1.73l2.7,10.18h-.29l.08-.24,2.93-9.94h.88l3.01,10.24h-.29l.06-.26,2.62-9.98h.72l-3.26,11.81h-.9l-3.06-10.1h.3l-.08.24-2.93,9.86h-.9ZM472.04,379.85v-.5h4.61v.5l-2.05.19h-.59l-1.97-.19ZM478.36,379.85v-.5h3.87v.5l-1.76.19h-.35l-1.76-.19Z"/>
        <path d="M485.78,391.31c-.81,0-1.53-.17-2.16-.5-.63-.33-1.12-.82-1.48-1.48-.36-.66-.54-1.46-.54-2.42s.19-1.71.56-2.37c.37-.66.87-1.17,1.49-1.53.62-.36,1.29-.54,2-.54s1.34.15,1.85.45c.51.3.89.7,1.15,1.21.26.51.39,1.08.39,1.74,0,.38-.03.7-.1.96h-6.64v-.51h4.48c.3,0,.5-.08.61-.24s.16-.42.16-.77c0-.69-.17-1.25-.51-1.67-.34-.42-.82-.63-1.44-.63-.44,0-.83.14-1.19.42-.36.28-.64.7-.86,1.25-.21.55-.32,1.22-.32,2.02,0,.86.13,1.58.39,2.14.26.56.62.97,1.06,1.22s.96.38,1.55.38,1.05-.1,1.46-.3c.41-.2.77-.49,1.08-.86l.27.21c-.34.58-.79,1.02-1.34,1.34-.55.32-1.2.48-1.94.48Z"/>
        <path d="M491.67,391.07c0-.27.02-.62.03-1.06s.02-.9.02-1.38c0-.48,0-.9,0-1.25v-1.02c0-.54,0-1.03-.02-1.45-.01-.42-.03-.83-.05-1.22l-1.38-.08v-.4l2.83-.69.21.13-.05,2.3v2.43c0,.35,0,.77,0,1.25,0,.48,0,.94.02,1.38,0,.44.01.79.02,1.06h-1.66ZM490.41,391.07v-.45l1.74-.18h.64l1.71.18v.45h-4.1ZM492.39,380.59c-.28,0-.51-.09-.71-.27s-.3-.42-.3-.7.1-.52.3-.7c.2-.18.43-.27.71-.27s.52.09.72.27c.2.18.3.42.3.7s-.1.52-.3.7c-.2.18-.44.27-.72.27Z"/>
        <path d="M499.13,395.23c-.83,0-1.5-.09-1.99-.28-.5-.19-.85-.44-1.07-.75-.22-.31-.33-.67-.33-1.08,0-.48.18-.9.54-1.26.36-.36.89-.68,1.59-.94l.08.13c-.38.31-.67.59-.85.86-.18.26-.27.58-.27.97,0,.58.21,1.01.62,1.31.41.3.99.45,1.74.45,1.1,0,1.93-.19,2.49-.57.56-.38.84-.86.84-1.45,0-.33-.12-.63-.37-.89-.25-.26-.69-.39-1.34-.39h-1.92c-.3,0-.55,0-.76-.02s-.4-.05-.58-.11v-.03c-.84-.22-1.26-.71-1.26-1.46,0-.35.11-.69.32-1.02.21-.33.58-.67,1.09-1.05v-.14l.35.18c-.26.28-.45.52-.57.72s-.18.43-.18.69c0,.28.09.5.28.66s.5.24.94.24h2.35c.69,0,1.26.09,1.7.26s.76.43.97.76c.21.33.31.72.31,1.17,0,.51-.18,1-.54,1.47-.36.47-.89.85-1.58,1.14-.7.29-1.55.44-2.57.44ZM499.37,388.22c-.68,0-1.27-.12-1.75-.37s-.86-.58-1.11-1.01-.38-.92-.38-1.49c0-.86.29-1.56.86-2.09.57-.53,1.37-.79,2.39-.79.53,0,1,.07,1.42.22.41.14.75.35,1.02.63l.05.05c.5.48.75,1.14.75,1.98,0,.57-.13,1.06-.38,1.49-.26.43-.63.76-1.11,1.01s-1.06.37-1.74.37ZM499.35,387.73c.56,0,1.01-.22,1.34-.65.33-.43.49-1.01.49-1.74s-.17-1.3-.5-1.74c-.33-.43-.76-.65-1.3-.65-.57,0-1.01.22-1.34.66s-.49,1.02-.49,1.74.16,1.29.48,1.72c.32.43.76.65,1.31.65ZM501.3,383.52v-.26h.1l2.24-.74.27.18v.94l-2.61-.13Z"/>
        <path d="M506.04,391.07c.01-.27.02-.62.02-1.06,0-.44.01-.9.02-1.38,0-.48,0-.9,0-1.25v-8.24l-1.36-.08v-.43l2.7-.51.24.14-.05,2.5v3.57l.03.21v2.85c0,.35,0,.77,0,1.25,0,.48.01.94.02,1.38,0,.44.01.79.02,1.06h-1.66ZM504.78,391.07v-.45l1.73-.18h.67l1.65.18v.45h-4.05ZM511.5,391.07c.02-.27.04-.62.04-1.05,0-.43.01-.89.02-1.37,0-.48,0-.9,0-1.26v-1.95c0-.75-.13-1.27-.38-1.58-.26-.3-.6-.46-1.04-.46-.37,0-.8.12-1.28.35-.48.23-1,.67-1.55,1.3l-.34-.59h.43c.55-.69,1.11-1.2,1.66-1.51s1.13-.47,1.73-.47c.73,0,1.29.23,1.7.7.41.47.62,1.25.62,2.35v1.86c0,.36,0,.78,0,1.26,0,.48.01.94.02,1.37.01.43.02.78.03,1.05h-1.68ZM510.26,391.07v-.45l1.7-.18h.66l1.71.18v.45h-4.06Z"/>
        <path d="M518.63,391.31c-.69,0-1.21-.18-1.55-.54-.34-.36-.51-.91-.51-1.66,0-.27,0-.51,0-.72,0-.21,0-.47,0-.77v-4.3h-1.54v-.5l1.87-.14-.3.22.56-2.7h1.02l-.05,2.77v6.19c0,.48.09.83.28,1.05.19.22.45.33.79.33.23,0,.44-.04.62-.11.18-.08.37-.18.58-.32l.24.29c-.22.3-.5.53-.83.68-.33.15-.73.23-1.2.23ZM517.37,383.33v-.61h3.01v.61h-3.01Z"/>
        <path d="M524.47,391.31c-.54,0-1.03-.06-1.46-.17-.43-.11-.87-.28-1.3-.5l.02-1.95h.75l.42,2.08-.64-.05v-.58c.32.2.64.36.97.47.33.11.72.17,1.18.17.69,0,1.22-.14,1.57-.41.35-.27.53-.64.53-1.1,0-.38-.12-.7-.35-.94-.24-.25-.68-.47-1.34-.67l-.85-.3c-.65-.22-1.17-.53-1.56-.9-.39-.38-.58-.88-.58-1.5,0-.7.27-1.29.81-1.77.54-.47,1.31-.71,2.31-.71.5,0,.94.06,1.33.18s.78.3,1.2.54l-.06,1.76h-.69l-.45-1.94.54.13v.51c-.32-.23-.62-.4-.91-.5-.29-.1-.6-.14-.94-.14-.59,0-1.04.13-1.34.39-.31.26-.46.6-.46,1.02,0,.36.13.66.38.9.25.24.67.46,1.26.66l.83.29c.82.28,1.41.61,1.75,1.01.35.4.52.88.52,1.46,0,.49-.13.93-.39,1.32-.26.39-.64.69-1.14.91s-1.12.33-1.86.33Z"/>
      </g>
    </g>
    <g id="_레이어_4" data-name="레이어_4">
      <g>
        <polyline class="cls-2" points="40.62 237.79 46.55 237.79 46.55 256.58 51.87 256.58 51.87 273.52 57.59 273.52 57.59 289.17 63.9 289.17 63.9 303.21 69.18 303.21 69.18 315.63 75.79 315.63 75.79 326.24 81.17 326.24 81.17 335.9 86.84 335.9 86.84 343.73 92.86 343.73 92.86 350.04 98.23 350.04"/>
        <polygon class="cls-1" points="96.77 355.03 105.4 350.04 96.77 345.05 96.77 355.03"/>
      </g>
      <g>
        <polyline class="cls-4" points="264.4 218.39 334.36 260.6 273.07 279.83 329.23 290.68 276.4 299.26 325.57 304.61 279.92 309.3 324.79 313.02 280.77 315.76 324.01 318.2 307.77 321.41"/>
        <polygon class="cls-1" points="308.23 316.24 300.73 322.8 310.16 326.02 308.23 316.24"/>
      </g>
      <g>
        <polyline class="cls-4" points="420.64 238.2 435.32 238.2 435.32 283.8 450.92 283.8 450.92 319.03 461.03 319.03 461.03 335.39 466.77 335.39 466.77 343.03 472.64 343.03 472.64 349.15 481.38 349.15"/>
        <polygon class="cls-1" points="479.92 354.13 488.55 349.15 479.92 344.16 479.92 354.13"/>
      </g>
    </g>
  </g>
</svg>