<?xml version="1.0" encoding="UTF-8"?>
<svg xmlns="http://www.w3.org/2000/svg" version="1.1" viewBox="0 0 600 600">
  <defs>
    <style>
      .cls-1, .cls-2 {
        fill: #231815;
      }

      .cls-3 {
        fill: none;
      }

      .cls-3, .cls-2 {
        stroke: #231815;
        stroke-miterlimit: 10;
      }
    </style>
  </defs>
  <!-- Generator: Adobe Illustrator 28.7.1, SVG Export Plug-In . SVG Version: 1.2.0 Build 142)  -->
  <g>
    <g id="_레이어_2" data-name="레이어_2">
      <polyline class="cls-3" points="155.95 131.07 155.95 438.35 462.46 438.35"/>
    </g>
    <g id="_레이어_3" data-name="레이어_3">
      <g>
        <path d="M398.76,448.9v-.5h4.67v.5l-2.14.19h-.42l-2.11-.19ZM403.27,460.21l-3.34-11.81h1.73l2.7,10.18h-.29l.08-.24,2.93-9.94h.88l3.01,10.24h-.29l.06-.26,2.62-9.98h.72l-3.26,11.81h-.9l-3.06-10.1h.3l-.08.24-2.93,9.86h-.9ZM405.29,448.9v-.5h4.61v.5l-2.05.19h-.59l-1.97-.19ZM411.61,448.9v-.5h3.87v.5l-1.76.19h-.35l-1.76-.19Z"/>
        <path d="M419.03,460.35c-.81,0-1.53-.17-2.16-.5-.63-.33-1.12-.82-1.48-1.48-.36-.66-.54-1.46-.54-2.42s.19-1.71.56-2.37c.37-.66.87-1.17,1.49-1.53.62-.36,1.29-.54,2-.54s1.34.15,1.85.45c.51.3.89.7,1.15,1.21.26.51.39,1.08.39,1.74,0,.38-.03.7-.1.96h-6.64v-.51h4.48c.3,0,.5-.08.61-.24s.16-.42.16-.77c0-.69-.17-1.25-.51-1.67-.34-.42-.82-.63-1.44-.63-.44,0-.83.14-1.19.42-.36.28-.64.7-.86,1.25-.21.55-.32,1.22-.32,2.02,0,.86.13,1.58.39,2.14.26.56.62.97,1.06,1.22s.96.38,1.55.38,1.05-.1,1.46-.3c.41-.2.77-.49,1.08-.86l.27.21c-.34.58-.79,1.02-1.34,1.34-.55.32-1.2.48-1.94.48Z"/>
        <path d="M424.92,460.11c0-.27.02-.62.03-1.06s.02-.9.02-1.38c0-.48,0-.9,0-1.25v-1.02c0-.54,0-1.03-.02-1.45-.01-.42-.03-.83-.05-1.22l-1.38-.08v-.4l2.83-.69.21.13-.05,2.3v2.43c0,.35,0,.77,0,1.25,0,.48,0,.94.02,1.38,0,.44.01.79.02,1.06h-1.66ZM423.66,460.11v-.45l1.74-.18h.64l1.71.18v.45h-4.1ZM425.64,449.63c-.28,0-.51-.09-.71-.27s-.3-.42-.3-.7.1-.52.3-.7c.2-.18.43-.27.71-.27s.52.09.72.27c.2.18.3.42.3.7s-.1.52-.3.7c-.2.18-.44.27-.72.27Z"/>
        <path d="M432.38,464.27c-.83,0-1.5-.09-1.99-.28-.5-.19-.85-.44-1.07-.75-.22-.31-.33-.67-.33-1.08,0-.48.18-.9.54-1.26.36-.36.89-.68,1.59-.94l.08.13c-.38.31-.67.59-.85.86-.18.26-.27.58-.27.97,0,.58.21,1.01.62,1.31.41.3.99.45,1.74.45,1.1,0,1.93-.19,2.49-.57.56-.38.84-.86.84-1.45,0-.33-.12-.63-.37-.89-.25-.26-.69-.39-1.34-.39h-1.92c-.3,0-.55,0-.76-.02s-.4-.05-.58-.11v-.03c-.84-.22-1.26-.71-1.26-1.46,0-.35.11-.69.32-1.02.21-.33.58-.67,1.09-1.05v-.14l.35.18c-.26.28-.45.52-.57.72s-.18.43-.18.69c0,.28.09.5.28.66s.5.24.94.24h2.35c.69,0,1.26.09,1.7.26s.76.43.97.76c.21.33.31.72.31,1.17,0,.51-.18,1-.54,1.47-.36.47-.89.85-1.58,1.14-.7.29-1.55.44-2.57.44ZM432.62,457.27c-.68,0-1.27-.12-1.75-.37s-.86-.58-1.11-1.01-.38-.92-.38-1.49c0-.86.29-1.56.86-2.09.57-.53,1.37-.79,2.39-.79.53,0,1,.07,1.42.22.41.14.75.35,1.02.63l.05.05c.5.48.75,1.14.75,1.98,0,.57-.13,1.06-.38,1.49-.26.43-.63.76-1.11,1.01s-1.06.37-1.74.37ZM432.6,456.77c.56,0,1.01-.22,1.34-.65.33-.43.49-1.01.49-1.74s-.17-1.3-.5-1.74c-.33-.43-.76-.65-1.3-.65-.57,0-1.01.22-1.34.66s-.49,1.02-.49,1.74.16,1.29.48,1.72c.32.43.76.65,1.31.65ZM434.55,452.56v-.26h.1l2.24-.74.27.18v.94l-2.61-.13Z"/>
        <path d="M439.29,460.11c.01-.27.02-.62.02-1.06,0-.44.01-.9.02-1.38,0-.48,0-.9,0-1.25v-8.24l-1.36-.08v-.43l2.7-.51.24.14-.05,2.5v3.57l.03.21v2.85c0,.35,0,.77,0,1.25,0,.48.01.94.02,1.38,0,.44.01.79.02,1.06h-1.66ZM438.02,460.11v-.45l1.73-.18h.67l1.65.18v.45h-4.05ZM444.74,460.11c.02-.27.04-.62.04-1.05,0-.43.01-.89.02-1.37,0-.48,0-.9,0-1.26v-1.95c0-.75-.13-1.27-.38-1.58-.26-.3-.6-.46-1.04-.46-.37,0-.8.12-1.28.35-.48.23-1,.67-1.55,1.3l-.34-.59h.43c.55-.69,1.11-1.2,1.66-1.51s1.13-.47,1.73-.47c.73,0,1.29.23,1.7.7.41.47.62,1.25.62,2.35v1.86c0,.36,0,.78,0,1.26,0,.48.01.94.02,1.37.01.43.02.78.03,1.05h-1.68ZM443.51,460.11v-.45l1.7-.18h.66l1.71.18v.45h-4.06Z"/>
        <path d="M451.88,460.35c-.69,0-1.21-.18-1.55-.54-.34-.36-.51-.91-.51-1.66,0-.27,0-.51,0-.72,0-.21,0-.47,0-.77v-4.3h-1.54v-.5l1.87-.14-.3.22.56-2.7h1.02l-.05,2.77v6.19c0,.48.09.83.28,1.05.19.22.45.33.79.33.23,0,.44-.04.62-.11.18-.08.37-.18.58-.32l.24.29c-.22.3-.5.53-.83.68-.33.15-.73.23-1.2.23ZM450.62,452.37v-.61h3.01v.61h-3.01Z"/>
        <path d="M457.72,460.35c-.54,0-1.03-.06-1.46-.17-.43-.11-.87-.28-1.3-.5l.02-1.95h.75l.42,2.08-.64-.05v-.58c.32.2.64.36.97.47.33.11.72.17,1.18.17.69,0,1.22-.14,1.57-.41.35-.27.53-.64.53-1.1,0-.38-.12-.7-.35-.94-.24-.25-.68-.47-1.34-.67l-.85-.3c-.65-.22-1.17-.53-1.56-.9-.39-.38-.58-.88-.58-1.5,0-.7.27-1.29.81-1.77.54-.47,1.31-.71,2.31-.71.5,0,.94.06,1.33.18s.78.3,1.2.54l-.06,1.76h-.69l-.45-1.94.54.13v.51c-.32-.23-.62-.4-.91-.5-.29-.1-.6-.14-.94-.14-.59,0-1.04.13-1.34.39-.31.26-.46.6-.46,1.02,0,.36.13.66.38.9.25.24.67.46,1.26.66l.83.29c.82.28,1.41.61,1.75,1.01.35.4.52.88.52,1.46,0,.49-.13.93-.39,1.32-.26.39-.64.69-1.14.91s-1.12.33-1.86.33Z"/>
      </g>
      <g>
        <path d="M132.53,256.42h-.5v-4.94h.5l.19,2.3v.37l-.19,2.27ZM143.74,254.83c-.9-.03-1.8-.05-2.7-.05h-6.3c-.9,0-1.81.02-2.71.05v-1.76c.9.02,1.8.04,2.7.04.91,0,1.82,0,2.74,0h.83c.92,0,1.83,0,2.73,0,.9,0,1.81-.02,2.71-.04v1.76ZM143.74,256.42h-.5l-.21-2.27v-.37l.21-2.3h.5v4.94Z"/>
        <path d="M143.74,243.3c-.27,0-.62-.02-1.05-.02-.43,0-.89-.01-1.37-.02-.48,0-.9,0-1.26,0h-1.95c-.75,0-1.27.12-1.58.37s-.46.59-.46,1.04c0,.35.12.77.36,1.26.24.49.67,1.01,1.29,1.57l-.58.11v-.18c-.73-.59-1.24-1.16-1.54-1.73-.3-.57-.46-1.13-.46-1.7,0-.71.24-1.27.71-1.68s1.25-.61,2.31-.61h1.89c.36,0,.78,0,1.26,0,.48,0,.94-.01,1.37-.02.43-.01.78-.02,1.05-.03v1.65ZM143.74,248.75c-.27,0-.62-.02-1.06-.02-.44,0-.9-.01-1.38-.02-.48,0-.9,0-1.25,0h-1.04c-.54,0-1.02,0-1.43,0-.41,0-.81.02-1.19.04l-.1,1.36h-.4l-.7-2.66.13-.21,1.86-.1h2.88c.35,0,.77,0,1.25,0,.48,0,.94-.01,1.38-.02.44,0,.79-.01,1.06-.02v1.65ZM143.74,244.54h-.45l-.18-1.7v-.67l.18-1.68h.45v4.05ZM143.74,250.02h-.45l-.18-1.73v-.66l.18-1.68h.45v4.06Z"/>
        <path d="M139.84,239.33h-.88v-4.24h.88v4.24Z"/>
        <path d="M143.98,230.79c0,.54-.06,1.03-.17,1.46-.11.43-.28.87-.5,1.3l-1.95-.02v-.75l2.08-.42-.05.64h-.58c.2-.32.36-.64.47-.97s.17-.72.17-1.18c0-.69-.14-1.22-.41-1.57-.27-.35-.64-.53-1.1-.53-.38,0-.7.12-.94.35-.25.23-.47.68-.67,1.34l-.3.85c-.22.65-.53,1.17-.9,1.56-.38.39-.88.58-1.5.58-.7,0-1.29-.27-1.77-.81-.47-.54-.71-1.31-.71-2.31,0-.5.06-.94.18-1.33.12-.38.3-.78.54-1.2l1.76.06v.69l-1.94.45.13-.54h.51c-.23.32-.4.62-.5.91-.1.29-.14.6-.14.94,0,.59.13,1.04.39,1.34.26.31.6.46,1.02.46.36,0,.66-.12.9-.38.24-.25.46-.67.66-1.26l.29-.83c.28-.82.61-1.41,1.01-1.75s.88-.52,1.46-.52c.49,0,.93.13,1.32.39.39.26.69.64.91,1.14.22.5.33,1.12.33,1.86Z"/>
        <path d="M143.97,219.39c0,.49-.16.86-.48,1.11-.32.25-.76.4-1.31.44h-4.27c-.6,0-1.06.06-1.38.19-.32.13-.54.32-.67.58-.13.26-.19.6-.19,1.02,0,.3.04.6.12.9.08.3.22.64.41,1l-.43-.78,1.26.24c.33.03.57.12.7.28.14.16.21.34.21.55,0,.43-.21.69-.62.78-.67-.14-1.2-.5-1.58-1.1-.38-.59-.58-1.37-.58-2.34s.23-1.69.69-2.14c.46-.46,1.2-.69,2.22-.69h4.02c.46,0,.77-.06.94-.17.17-.11.26-.27.26-.47,0-.13-.03-.25-.1-.35s-.18-.23-.34-.37l.22-.26c.31.17.54.39.68.65.14.26.22.57.22.92ZM143.98,223.71c0,.64-.18,1.17-.54,1.6-.36.43-.88.64-1.55.64-.43,0-.81-.09-1.14-.28-.33-.19-.63-.5-.89-.94s-.5-1.02-.71-1.76c-.13-.44-.26-.91-.38-1.41-.13-.5-.25-.96-.35-1.39h.4c.11.43.22.86.34,1.29.12.43.25.82.38,1.16.25.65.54,1.12.89,1.4s.76.42,1.24.42.86-.13,1.1-.39c.25-.26.37-.61.37-1.03,0-.22-.04-.45-.13-.67-.09-.22-.24-.48-.47-.77-.23-.29-.55-.63-.95-1.02l.78-.16v.43c.35.32.65.62.89.91.24.29.42.59.54.9s.18.67.18,1.07Z"/>
        <path d="M143.74,205.25c-.27-.01-.62-.02-1.05-.02-.43,0-.89-.01-1.37-.02-.48,0-.9,0-1.26,0h-1.89c-.79,0-1.34.12-1.64.36-.3.24-.46.58-.46,1.03,0,.39.12.81.36,1.26.24.44.66.92,1.26,1.43l-.66.16v-.22c-.65-.5-1.13-1.02-1.43-1.55-.3-.53-.46-1.09-.46-1.66,0-.77.24-1.35.71-1.74.47-.39,1.25-.59,2.33-.59h1.87c.36,0,.78,0,1.26,0,.48,0,.94-.01,1.37-.02.43,0,.78-.01,1.05-.02v1.63ZM143.74,210.5c-.27-.01-.62-.02-1.05-.02-.43,0-.89-.01-1.37-.02-.48,0-.9,0-1.26,0h-1.89c-.77,0-1.31.12-1.62.36-.31.24-.47.57-.47.98s.13.82.4,1.28c.27.46.7.94,1.3,1.46l-.62.13v-.21c-.65-.5-1.15-1.02-1.49-1.56-.34-.54-.51-1.11-.51-1.7,0-.71.24-1.27.71-1.66s1.25-.59,2.31-.59h1.89c.36,0,.78,0,1.26,0,.48,0,.94,0,1.37-.02.43,0,.78-.01,1.05-.02v1.62ZM143.74,215.79c-.27,0-.62-.02-1.06-.02-.44,0-.9-.01-1.38-.02-.48,0-.9,0-1.25,0h-1.06c-.54,0-1.02,0-1.42,0-.41,0-.81.02-1.2.04l-.08,1.36h-.4l-.7-2.66.13-.21,1.81-.1h2.93c.35,0,.77,0,1.25,0,.48,0,.94-.01,1.38-.02.44,0,.79-.01,1.06-.02v1.65ZM143.74,206.48h-.45l-.18-1.66v-.69l.18-1.66h.45v4.02ZM143.74,211.74h-.45l-.18-1.68v-.69l.18-1.65h.45v4.02ZM143.74,217.06h-.45l-.18-1.73v-.66l.18-1.68h.45v4.06Z"/>
        <path d="M143.98,196.16c0,.49-.11.97-.33,1.45-.22.47-.61.91-1.18,1.3v.21l-.38-.24c.41-.37.68-.73.83-1.08.15-.35.22-.73.22-1.16,0-.45-.12-.86-.35-1.22-.23-.37-.62-.66-1.15-.88-.53-.22-1.24-.33-2.11-.33-1.24,0-2.14.22-2.71.65-.57.43-.86,1-.86,1.72,0,.37.09.75.26,1.13.18.38.52.79,1.03,1.24l-.38.19v-.16c-.61-.42-1.05-.89-1.32-1.42-.27-.53-.41-1.08-.41-1.63,0-.66.18-1.24.53-1.74.35-.5.85-.9,1.5-1.2s1.42-.45,2.33-.45,1.71.16,2.38.48c.67.32,1.19.75,1.55,1.3.36.54.54,1.16.54,1.86ZM147.9,200.23c-.4-.01-.81-.02-1.25-.02-.44,0-.88-.01-1.32-.02-.44,0-.85,0-1.22,0h-5.06c-.54,0-1.03,0-1.45,0-.42,0-.82.02-1.21.04l-.1,1.38h-.4l-.7-2.64.13-.21,1.33-.11.1-.02h5.74l.18.02h1.44c.36,0,.77,0,1.21,0,.44,0,.89,0,1.33-.02.44,0,.86-.01,1.26-.02v1.63ZM147.9,201.54h-.45l-.16-1.78v-.8l.16-1.84h.45v4.42Z"/>
        <path d="M143.74,189.92c-.35-.01-.74-.02-1.16-.02-.42,0-.85,0-1.29-.02-.44,0-.85,0-1.23,0h-8.24l-.08,1.36h-.43l-.51-2.74.14-.24,2.5.05h6.62c.38,0,.79,0,1.23,0,.44,0,.87-.01,1.29-.02.42,0,.81-.01,1.16-.02v1.66ZM143.74,191.3h-.45l-.18-1.86v-.64l.18-1.89h.45v4.38Z"/>
        <path d="M143.98,181.49c0,.81-.17,1.53-.5,2.16-.33.63-.82,1.12-1.48,1.48-.66.36-1.46.54-2.42.54s-1.71-.19-2.37-.56c-.66-.37-1.17-.87-1.53-1.49-.36-.62-.54-1.29-.54-2s.15-1.34.45-1.85c.3-.51.7-.89,1.21-1.15.51-.26,1.09-.39,1.74-.39.38,0,.7.03.96.1v6.64h-.51v-4.48c0-.3-.08-.5-.24-.61-.16-.11-.42-.16-.77-.16-.69,0-1.25.17-1.67.51-.42.34-.63.82-.63,1.44,0,.44.14.83.42,1.19.28.36.7.64,1.25.86.55.21,1.22.32,2.02.32.86,0,1.58-.13,2.14-.39s.97-.62,1.22-1.06c.26-.45.38-.96.38-1.55s-.1-1.05-.3-1.46c-.2-.41-.49-.77-.86-1.08l.21-.27c.58.34,1.02.79,1.34,1.34.32.55.48,1.2.48,1.94Z"/>
        <path d="M134.97,164.67l-2.85.59.48-.83v5.74h-.58v-6.14l2.94-.1v.74ZM143.74,171.06c-.9-.02-1.8-.03-2.7-.04-.91,0-1.81,0-2.72,0h-.85c-.92,0-1.83,0-2.73,0-.9,0-1.81.02-2.71.04v-1.74c.9.01,1.81.02,2.73.02.92,0,1.88,0,2.87,0h.38c1.06,0,2.05,0,2.98,0,.93,0,1.85-.01,2.75-.02v1.74ZM132.53,172.64h-.5v-2.46h.69v.19l-.19,2.27ZM139.69,166.43l-1.78.22h-.34l-1.73-.22v-.61h3.84v.61ZM138.06,170.18h-.54v-3.87h.54v3.87ZM143.74,170.18h-.56v-6.03l.45.83-2.88-.61v-.72l2.99.08v6.45ZM143.74,172.64h-.5l-.21-2.27v-.19h.7v2.46Z"/>
        <path d="M138.64,159.46l-.88.4v-.32c-.53-.17-.99-.4-1.38-.68-.39-.28-.69-.6-.9-.96-.21-.36-.32-.72-.32-1.1,0-.32.07-.6.2-.84.13-.24.34-.4.63-.47.29,0,.52.07.7.22.18.14.27.37.27.68,0,.21-.06.41-.18.58-.12.17-.28.35-.5.54l-.37.37.03-.69c.18.52.48.97.9,1.34.42.37,1.02.68,1.78.94ZM143.74,161.06c-.27,0-.62-.02-1.06-.02-.44,0-.9-.01-1.38-.02-.48,0-.9,0-1.25,0h-1.04c-.55,0-1.03,0-1.44,0-.41,0-.8.02-1.18.04l-.1,1.36h-.4l-.7-2.66.13-.21,2.26-.1h2.48c.35,0,.77,0,1.25,0,.48,0,.94-.01,1.38-.02.44,0,.79-.01,1.06-.02v1.65ZM143.74,162.32h-.45l-.19-1.74v-.88l.19-1.79h.45v4.42Z"/>
        <path d="M138.64,151.89l-.88.4v-.32c-.53-.17-.99-.4-1.38-.68-.39-.28-.69-.6-.9-.96-.21-.36-.32-.72-.32-1.1,0-.32.07-.6.2-.84.13-.24.34-.4.63-.47.29,0,.52.07.7.22.18.14.27.37.27.68,0,.21-.06.41-.18.58-.12.17-.28.35-.5.54l-.37.37.03-.69c.18.52.48.97.9,1.34.42.37,1.02.68,1.78.94ZM143.74,153.49c-.27,0-.62-.02-1.06-.02-.44,0-.9-.01-1.38-.02-.48,0-.9,0-1.25,0h-1.04c-.55,0-1.03,0-1.44,0-.41,0-.8.02-1.18.04l-.1,1.36h-.4l-.7-2.66.13-.21,2.26-.1h2.48c.35,0,.77,0,1.25,0,.48,0,.94-.01,1.38-.02.44,0,.79-.01,1.06-.02v1.65ZM143.74,154.75h-.45l-.19-1.74v-.88l.19-1.79h.45v4.42Z"/>
        <path d="M143.98,143.31c0,.75-.17,1.43-.5,2.05-.34.62-.83,1.11-1.5,1.48-.66.37-1.47.55-2.42.55s-1.77-.19-2.42-.58c-.66-.38-1.15-.89-1.49-1.51s-.5-1.29-.5-1.99.17-1.4.5-2.02.83-1.13,1.49-1.51c.66-.38,1.46-.58,2.42-.58s1.75.19,2.42.57c.66.38,1.16.88,1.5,1.5.34.62.5,1.3.5,2.05ZM143.47,143.31c0-.76-.33-1.35-.99-1.78-.66-.43-1.63-.64-2.9-.64s-2.24.21-2.9.64-1,1.02-1,1.78.33,1.33,1,1.76,1.63.64,2.9.64,2.23-.21,2.9-.64c.66-.43.99-1.01.99-1.76Z"/>
        <path d="M138.64,134.96l-.88.4v-.32c-.53-.17-.99-.4-1.38-.68-.39-.28-.69-.6-.9-.96-.21-.36-.32-.72-.32-1.1,0-.32.07-.6.2-.84.13-.24.34-.4.63-.47.29,0,.52.07.7.22.18.14.27.37.27.68,0,.21-.06.41-.18.58-.12.17-.28.35-.5.54l-.37.37.03-.69c.18.52.48.97.9,1.34.42.37,1.02.68,1.78.94ZM143.74,136.56c-.27,0-.62-.02-1.06-.02-.44,0-.9-.01-1.38-.02-.48,0-.9,0-1.25,0h-1.04c-.55,0-1.03,0-1.44,0-.41,0-.8.02-1.18.04l-.1,1.36h-.4l-.7-2.66.13-.21,2.26-.1h2.48c.35,0,.77,0,1.25,0,.48,0,.94-.01,1.38-.02.44,0,.79-.01,1.06-.02v1.65ZM143.74,137.83h-.45l-.19-1.74v-.88l.19-1.79h.45v4.42Z"/>
      </g>
    </g>
    <g id="_레이어_4" data-name="레이어_4">
      <path class="cls-3" d="M162.4,286.52s37.37,3.13,39.91,0,4.11-24.46,5.28-29.54,2.35-12.33,3.52-12.52,1.37.59,1.76,1.96,2.74,7.43,2.74,7.43c0,0,.98,2.93,2.15,1.96s5.67-11.38,5.67-11.38l4.7-21.1s2.15-.98,3.33,0,3.52,6.46,3.52,6.46l3.72,23.28,3.33,18.59s4.11,6.65,5.87,8.41,4.5,4.11,10.57,4.7c6.07.59,10.57,2.93,11.54,5.48s6.65,27.59,5.87,29.74,1.96,59.67,2.93,62.8,4.5,26.61,7.63,29.15,5.87,3.91,6.85,2.54,5.87-24.65,6.26-30.72,5.67-85.5,5.87-96.26c.2-10.76,2.93-31.7,4.7-37.17s5.71-17.41,9.7-18.78,6.93.98,8.3,2.74,2.15,5.28,4.11,9.2c1.96,3.91,5.28,18,6.26,19.57s1.57,8.61,1.57,11.35,1.76,15.46,1.76,17.22,1.76,39.52,3.33,40.11,5.48-1.76,5.48-1.76c0,0,3.52-7.52,4.5-11s2.74-12.87,5.48-18.74,3.33-10.96,6.26-13.89,6.85-7.87,7.83-9.41,2.15-28.15,3.13-29.72,2.15-12.52,1.96-17.61.98-39.13,1.37-41.87,2.54-27.59,3.33-29.35,2.93-5.28,4.7-6.07,4.5-.78,6.07,0,4.89,4.7,5.09,6.07,1.76,7.24,2.93,11.93c1.17,4.7,4.7,29.54,4.5,31.3s1.37,4.89,1.76,7.04,1.37,2.15,1.57,5.87c.2,3.72,1.57,12.72,1.57,12.72,0,0,2.35,19.96,1.76,21.91s1.17,10.96.98,12.13,1.17,5.87,1.17,7.83.39,9.39.98,11.15,1.17,5.48,2.93,6.46,9.78,1.17,12.52,1.17,12.13.2,13.11-.78,2.15-1.17,3.13-5.09c.98-3.91,3.91-57.33,3.91-57.33"/>
      <circle class="cls-2" cx="221.24" cy="222.1" r="3.67"/>
      <circle class="cls-2" cx="237.83" cy="223.62" r="3.67"/>
      <circle class="cls-2" cx="311.44" cy="228.41" r="3.67"/>
      <circle class="cls-2" cx="330.27" cy="228.41" r="3.67"/>
      <circle class="cls-2" cx="379.58" cy="160.19" r="3.67"/>
      <circle class="cls-2" cx="405.27" cy="159.28" r="3.67"/>
      <g>
        <line class="cls-1" x1="221.24" y1="222.1" x2="207.01" y2="241.62"/>
        <g>
          <line class="cls-3" x1="221.24" y1="222.1" x2="211.24" y2="235.82"/>
          <polygon class="cls-1" points="208.07 231.7 207.01 241.62 216.13 237.58 208.07 231.7"/>
        </g>
      </g>
      <g>
        <line class="cls-1" x1="237.83" y1="223.62" x2="247.41" y2="259.32"/>
        <g>
          <line class="cls-3" x1="237.83" y1="223.62" x2="245.55" y2="252.39"/>
          <polygon class="cls-1" points="240.36 252.28 247.41 259.32 249.99 249.69 240.36 252.28"/>
        </g>
      </g>
      <g>
        <line class="cls-1" x1="311.44" y1="228.41" x2="294.27" y2="301.43"/>
        <g>
          <line class="cls-3" x1="311.44" y1="228.41" x2="295.91" y2="294.45"/>
          <polygon class="cls-1" points="291.39 291.88 294.27 301.43 301.1 294.17 291.39 291.88"/>
        </g>
      </g>
      <g>
        <line class="cls-1" x1="330.27" y1="228.41" x2="347.68" y2="263.82"/>
        <g>
          <line class="cls-3" x1="330.27" y1="228.41" x2="344.52" y2="257.38"/>
          <polygon class="cls-1" points="339.4 258.27 347.68 263.82 348.35 253.87 339.4 258.27"/>
        </g>
      </g>
      <g>
        <line class="cls-1" x1="379.58" y1="161.89" x2="371.95" y2="221.17"/>
        <g>
          <line class="cls-3" x1="379.58" y1="161.89" x2="372.86" y2="214.05"/>
          <polygon class="cls-1" points="368.1 211.97 371.95 221.17 377.99 213.24 368.1 211.97"/>
        </g>
      </g>
      <g>
        <line class="cls-1" x1="405.27" y1="159.28" x2="415.18" y2="204.54"/>
        <g>
          <line class="cls-3" x1="405.27" y1="159.28" x2="413.65" y2="197.53"/>
          <polygon class="cls-1" points="408.47 197.17 415.18 204.54 418.21 195.04 408.47 197.17"/>
        </g>
      </g>
    </g>
  </g>
</svg>