<?xml version="1.0" encoding="UTF-8"?>
<svg xmlns="http://www.w3.org/2000/svg" version="1.1" viewBox="0 0 600 600">
  <defs>
    <style>
      .cls-1, .cls-2 {
        fill: none;
        stroke: #231815;
        stroke-miterlimit: 10;
      }

      .cls-2 {
        stroke-width: 2px;
      }
    </style>
  </defs>
  <!-- Generator: Adobe Illustrator 28.7.1, SVG Export Plug-In . SVG Version: 1.2.0 Build 142)  -->
  <g>
    <g id="_레이어_1" data-name="레이어_1">
      <path d="M120.51,349.86c-.06.32-.18.54-.37.65-.18.12-.38.17-.6.17s-.39-.06-.52-.17c-.13-.11-.21-.26-.24-.45-.03-.15-.02-.31.05-.46.06-.15.18-.26.34-.32.08-.14.08-.28.02-.44-.06-.15-.26-.23-.6-.23-.17,0-.38.08-.62.24-.25.16-.51.41-.78.75-.28.34-.55.76-.83,1.27s-.53,1.11-.76,1.8c-.23.69-.41,1.32-.54,1.9s-.19,1.07-.17,1.49c.02.41.11.74.29.97s.45.35.82.35c.34,0,.66-.08.97-.24.31-.16.59-.36.85-.6.26-.24.49-.48.68-.74s.35-.47.47-.65l.51.41c-.12.23-.3.5-.54.82-.24.31-.51.62-.83.91-.31.3-.64.54-.99.75-.34.2-.69.3-1.02.3-.69,0-1.23-.2-1.62-.6-.39-.4-.59-.93-.59-1.61-.12.24-.3.5-.54.76-.24.26-.51.5-.82.71-.31.21-.64.39-1,.52-.36.13-.72.2-1.09.2-.29,0-.55-.05-.77-.15-.22-.1-.41-.23-.57-.38-.16-.15-.28-.33-.37-.53-.08-.2-.13-.4-.13-.6,0-.87.31-1.31.94-1.31.31,0,.54.08.71.25.17.17.25.35.25.55,0,.21-.05.41-.14.59-.09.18-.23.28-.41.31-.05.23.04.37.26.44s.49.05.8-.05c.31-.09.64-.26.97-.49.33-.24.59-.54.79-.91.2-.37.4-.84.61-1.42s.39-1.17.56-1.76c.17-.59.31-1.13.44-1.61.12-.48.2-.82.23-1,.02-.18-.01-.37-.08-.56-.07-.19-.16-.37-.29-.53-.12-.16-.27-.29-.44-.4-.17-.11-.34-.16-.51-.16-.24,0-.49.07-.72.21-.24.14-.46.3-.67.49-.21.19-.39.39-.56.59-.17.2-.31.35-.41.46l-.39-.48c.17-.15.35-.35.55-.59.2-.24.42-.47.65-.68.24-.22.49-.4.77-.55s.58-.22.92-.22.61.08.87.24c.26.16.48.36.67.61.18.25.32.51.41.79s.13.55.11.79c.15-.17.34-.39.56-.67s.47-.54.76-.8c.28-.26.59-.49.93-.68.34-.19.7-.29,1.08-.29s.67.07.9.22c.23.15.41.33.53.54.12.21.2.44.23.67.03.24.03.44,0,.61Z"/>
      <path d="M129.14,363.48h-5.7v-.41c.59,0,1.03-.03,1.33-.1.3-.07.52-.15.65-.26.13-.1.2-.22.21-.34,0-.12.02-.23.02-.32v-7.38c0-.14-.02-.25-.07-.34s-.14-.16-.3-.21c-.15-.05-.38-.09-.67-.1-.29-.02-.69-.02-1.19-.02v-.33c.43-.05.84-.13,1.25-.24.41-.11.77-.22,1.1-.34.38-.14.73-.29,1.07-.46v9.46c0,.08,0,.18.03.3s.1.23.24.33c.14.11.37.2.68.27s.76.11,1.35.11v.39Z"/>
      <path d="M323.21,347.73c-.06.32-.18.54-.37.65-.18.12-.38.17-.6.17s-.39-.06-.52-.17c-.13-.11-.21-.26-.24-.45-.03-.15-.02-.31.05-.46.06-.15.18-.26.34-.32.08-.14.08-.28.02-.44-.06-.15-.26-.23-.6-.23-.17,0-.38.08-.62.24-.25.16-.51.41-.78.75-.28.34-.55.76-.83,1.27s-.53,1.11-.76,1.8c-.23.69-.41,1.32-.54,1.9s-.19,1.07-.17,1.49c.02.41.11.74.29.97s.45.35.82.35c.34,0,.66-.08.97-.24.31-.16.59-.36.85-.6.26-.24.49-.48.68-.74s.35-.47.47-.65l.51.41c-.12.23-.3.5-.54.82-.24.31-.51.62-.83.91-.31.3-.64.54-.99.75-.34.2-.69.3-1.02.3-.69,0-1.23-.2-1.62-.6-.39-.4-.59-.93-.59-1.61-.12.24-.3.5-.54.76-.24.26-.51.5-.82.71-.31.21-.64.39-1,.52-.36.13-.72.2-1.09.2-.29,0-.55-.05-.77-.15-.22-.1-.41-.23-.57-.38-.16-.15-.28-.33-.37-.53-.08-.2-.13-.4-.13-.6,0-.87.31-1.31.94-1.31.31,0,.54.08.71.25.17.17.25.35.25.55,0,.21-.05.41-.14.59-.09.18-.23.28-.41.31-.05.23.04.37.26.44s.49.05.8-.05c.31-.09.64-.26.97-.49.33-.24.59-.54.79-.91.2-.37.4-.84.61-1.42s.39-1.17.56-1.76c.17-.59.31-1.13.44-1.61.12-.48.2-.82.23-1,.02-.18-.01-.37-.08-.56-.07-.19-.16-.37-.29-.53-.12-.16-.27-.29-.44-.4-.17-.11-.34-.16-.51-.16-.24,0-.49.07-.72.21-.24.14-.46.3-.67.49-.21.19-.39.39-.56.59-.17.2-.31.35-.41.46l-.39-.48c.17-.15.35-.35.55-.59.2-.24.42-.47.65-.68.24-.22.49-.4.77-.55s.58-.22.92-.22.61.08.87.24c.26.16.48.36.67.61.18.25.32.51.41.79s.13.55.11.79c.15-.17.34-.39.56-.67s.47-.54.76-.8c.28-.26.59-.49.93-.68.34-.19.7-.29,1.08-.29s.67.07.9.22c.23.15.41.33.53.54.12.21.2.44.23.67.03.24.03.44,0,.61Z"/>
      <path d="M331.84,361.34h-5.7v-.41c.59,0,1.03-.03,1.33-.1.3-.07.52-.15.65-.26.13-.1.2-.22.21-.34,0-.12.02-.23.02-.32v-7.38c0-.14-.02-.25-.07-.34s-.14-.16-.3-.21c-.15-.05-.38-.09-.67-.1-.29-.02-.69-.02-1.19-.02v-.33c.43-.05.84-.13,1.25-.24.41-.11.77-.22,1.1-.34.38-.14.73-.29,1.07-.46v9.46c0,.08,0,.18.03.3s.1.23.24.33c.14.11.37.2.68.27s.76.11,1.35.11v.39Z"/>
      <path d="M513.67,349.08c-.06.32-.18.54-.37.65-.18.12-.38.17-.6.17s-.39-.06-.52-.17c-.13-.11-.21-.26-.24-.45-.03-.15-.02-.31.05-.46.06-.15.18-.26.34-.32.08-.14.08-.28.02-.44-.06-.15-.26-.23-.6-.23-.17,0-.38.08-.62.24-.25.16-.51.41-.78.75-.28.34-.55.76-.83,1.27s-.53,1.11-.76,1.8c-.23.69-.41,1.32-.54,1.9s-.19,1.07-.17,1.49c.02.41.11.74.29.97s.45.35.82.35c.34,0,.66-.08.97-.24.31-.16.59-.36.85-.6.26-.24.49-.48.68-.74s.35-.47.47-.65l.51.41c-.12.23-.3.5-.54.82-.24.31-.51.62-.83.91-.31.3-.64.54-.99.75-.34.2-.69.3-1.02.3-.69,0-1.23-.2-1.62-.6-.39-.4-.59-.93-.59-1.61-.12.24-.3.5-.54.76-.24.26-.51.5-.82.71-.31.21-.64.39-1,.52-.36.13-.72.2-1.09.2-.29,0-.55-.05-.77-.15-.22-.1-.41-.23-.57-.38-.16-.15-.28-.33-.37-.53-.08-.2-.13-.4-.13-.6,0-.87.31-1.31.94-1.31.31,0,.54.08.71.25.17.17.25.35.25.55,0,.21-.05.41-.14.59-.09.18-.23.28-.41.31-.05.23.04.37.26.44s.49.05.8-.05c.31-.09.64-.26.97-.49.33-.24.59-.54.79-.91.2-.37.4-.84.61-1.42s.39-1.17.56-1.76c.17-.59.31-1.13.44-1.61.12-.48.2-.82.23-1,.02-.18-.01-.37-.08-.56-.07-.19-.16-.37-.29-.53-.12-.16-.27-.29-.44-.4-.17-.11-.34-.16-.51-.16-.24,0-.49.07-.72.21-.24.14-.46.3-.67.49-.21.19-.39.39-.56.59-.17.2-.31.35-.41.46l-.39-.48c.17-.15.35-.35.55-.59.2-.24.42-.47.65-.68.24-.22.49-.4.77-.55s.58-.22.92-.22.61.08.87.24c.26.16.48.36.67.61.18.25.32.51.41.79s.13.55.11.79c.15-.17.34-.39.56-.67s.47-.54.76-.8c.28-.26.59-.49.93-.68.34-.19.7-.29,1.08-.29s.67.07.9.22c.23.15.41.33.53.54.12.21.2.44.23.67.03.24.03.44,0,.61Z"/>
      <path d="M522.3,362.7h-5.7v-.41c.59,0,1.03-.03,1.33-.1.3-.07.52-.15.65-.26.13-.1.2-.22.21-.34,0-.12.02-.23.02-.32v-7.38c0-.14-.02-.25-.07-.34s-.14-.16-.3-.21c-.15-.05-.38-.09-.67-.1-.29-.02-.69-.02-1.19-.02v-.33c.43-.05.84-.13,1.25-.24.41-.11.77-.22,1.1-.34.38-.14.73-.29,1.07-.46v9.46c0,.08,0,.18.03.3s.1.23.24.33c.14.11.37.2.68.27s.76.11,1.35.11v.39Z"/>
      <path d="M30.17,278.17c-.06.32-.18.54-.37.65-.18.12-.38.17-.6.17s-.39-.06-.52-.17c-.13-.11-.21-.26-.24-.45-.03-.15-.02-.31.05-.46.06-.15.18-.26.34-.32.08-.14.08-.28.02-.44-.06-.15-.26-.23-.6-.23-.17,0-.38.08-.62.24-.25.16-.51.41-.78.75-.28.34-.55.76-.83,1.27s-.53,1.11-.76,1.8c-.23.69-.41,1.32-.54,1.9s-.19,1.07-.17,1.49c.02.41.11.74.29.97s.45.35.82.35c.34,0,.66-.08.97-.24.31-.16.59-.36.85-.6.26-.24.49-.48.68-.74s.35-.47.47-.65l.51.41c-.12.23-.3.5-.54.82-.24.31-.51.62-.83.91-.31.3-.64.54-.99.75-.34.2-.69.3-1.02.3-.69,0-1.23-.2-1.62-.6-.39-.4-.59-.93-.59-1.61-.12.24-.3.5-.54.76-.24.26-.51.5-.82.71-.31.21-.64.39-1,.52-.36.13-.72.2-1.09.2-.29,0-.55-.05-.77-.15-.22-.1-.41-.23-.57-.38-.16-.15-.28-.33-.37-.53-.08-.2-.13-.4-.13-.6,0-.87.31-1.31.94-1.31.31,0,.54.08.71.25.17.17.25.35.25.55,0,.21-.05.41-.14.59-.09.18-.23.28-.41.31-.05.23.04.37.26.44s.49.05.8-.05c.31-.09.64-.26.97-.49.33-.24.59-.54.79-.91.2-.37.4-.84.61-1.42s.39-1.17.56-1.76c.17-.59.31-1.13.44-1.61.12-.48.2-.82.23-1,.02-.18-.01-.37-.08-.56-.07-.19-.16-.37-.29-.53-.12-.16-.27-.29-.44-.4-.17-.11-.34-.16-.51-.16-.24,0-.49.07-.72.21-.24.14-.46.3-.67.49-.21.19-.39.39-.56.59-.17.2-.31.35-.41.46l-.39-.48c.17-.15.35-.35.55-.59.2-.24.42-.47.65-.68.24-.22.49-.4.77-.55s.58-.22.92-.22.61.08.87.24c.26.16.48.36.67.61.18.25.32.51.41.79s.13.55.11.79c.15-.17.34-.39.56-.67s.47-.54.76-.8c.28-.26.59-.49.93-.68.34-.19.7-.29,1.08-.29s.67.07.9.22c.23.15.41.33.53.54.12.21.2.44.23.67.03.24.03.44,0,.61Z"/>
      <path d="M38.98,288.96l-.7,2.82h-5.77c.07-.33.21-.67.41-1.04.2-.37.44-.74.72-1.13.28-.38.58-.77.91-1.16.33-.39.66-.77,1-1.15.26-.3.51-.6.75-.88.23-.28.43-.56.6-.84.17-.28.3-.57.4-.87s.14-.62.14-.96c0-.68-.17-1.22-.5-1.61-.34-.39-.82-.58-1.45-.58-.15,0-.33.02-.53.07s-.39.12-.57.22c-.18.1-.34.22-.46.37-.12.15-.18.32-.18.5,0,.13.02.22.06.29s.09.14.15.21c.06.07.1.15.14.24.04.09.06.22.06.39,0,.27-.09.47-.27.6s-.34.19-.5.19c-.28,0-.5-.1-.63-.3-.14-.2-.21-.44-.21-.73,0-.32.09-.63.27-.93.18-.3.41-.58.7-.81s.62-.43.99-.58c.37-.15.75-.22,1.13-.22.48,0,.91.07,1.3.21.39.14.73.33,1.01.58.28.24.49.53.65.85.15.33.23.67.23,1.04,0,.39-.07.74-.21,1.06-.14.32-.31.62-.53.9-.22.28-.46.54-.72.79-.26.25-.52.49-.76.72-.94.86-1.68,1.59-2.2,2.18-.52.59-.84,1.06-.94,1.4h3c.2,0,.39,0,.57-.03.18-.02.35-.09.53-.21s.35-.32.52-.58.36-.65.55-1.14l.34.11Z"/>
      <path d="M236.05,278.17c-.06.32-.18.54-.37.65-.18.12-.38.17-.6.17s-.39-.06-.52-.17c-.13-.11-.21-.26-.24-.45-.03-.15-.02-.31.05-.46.06-.15.18-.26.34-.32.08-.14.08-.28.02-.44-.06-.15-.26-.23-.6-.23-.17,0-.38.08-.62.24-.25.16-.51.41-.78.75-.28.34-.55.76-.83,1.27s-.53,1.11-.76,1.8c-.23.69-.41,1.32-.54,1.9s-.19,1.07-.17,1.49c.02.41.11.74.29.97s.45.35.82.35c.34,0,.66-.08.97-.24.31-.16.59-.36.85-.6.26-.24.49-.48.68-.74s.35-.47.47-.65l.51.41c-.12.23-.3.5-.54.82-.24.31-.51.62-.83.91-.31.3-.64.54-.99.75-.34.2-.69.3-1.02.3-.69,0-1.23-.2-1.62-.6-.39-.4-.59-.93-.59-1.61-.12.24-.3.5-.54.76-.24.26-.51.5-.82.71-.31.21-.64.39-1,.52-.36.13-.72.2-1.09.2-.29,0-.55-.05-.77-.15-.22-.1-.41-.23-.57-.38-.16-.15-.28-.33-.37-.53-.08-.2-.13-.4-.13-.6,0-.87.31-1.31.94-1.31.31,0,.54.08.71.25.17.17.25.35.25.55,0,.21-.05.41-.14.59-.09.18-.23.28-.41.31-.05.23.04.37.26.44s.49.05.8-.05c.31-.09.64-.26.97-.49.33-.24.59-.54.79-.91.2-.37.4-.84.61-1.42s.39-1.17.56-1.76c.17-.59.31-1.13.44-1.61.12-.48.2-.82.23-1,.02-.18-.01-.37-.08-.56-.07-.19-.16-.37-.29-.53-.12-.16-.27-.29-.44-.4-.17-.11-.34-.16-.51-.16-.24,0-.49.07-.72.21-.24.14-.46.3-.67.49-.21.19-.39.39-.56.59-.17.2-.31.35-.41.46l-.39-.48c.17-.15.35-.35.55-.59.2-.24.42-.47.65-.68.24-.22.49-.4.77-.55s.58-.22.92-.22.61.08.87.24c.26.16.48.36.67.61.18.25.32.51.41.79s.13.55.11.79c.15-.17.34-.39.56-.67s.47-.54.76-.8c.28-.26.59-.49.93-.68.34-.19.7-.29,1.08-.29s.67.07.9.22c.23.15.41.33.53.54.12.21.2.44.23.67.03.24.03.44,0,.61Z"/>
      <path d="M244.86,288.96l-.7,2.82h-5.77c.07-.33.21-.67.41-1.04.2-.37.44-.74.72-1.13.28-.38.58-.77.91-1.16.33-.39.66-.77,1-1.15.26-.3.51-.6.75-.88.23-.28.43-.56.6-.84.17-.28.3-.57.4-.87s.14-.62.14-.96c0-.68-.17-1.22-.5-1.61-.34-.39-.82-.58-1.45-.58-.15,0-.33.02-.53.07s-.39.12-.57.22c-.18.1-.34.22-.46.37-.12.15-.18.32-.18.5,0,.13.02.22.06.29s.09.14.15.21c.06.07.1.15.14.24.04.09.06.22.06.39,0,.27-.09.47-.27.6s-.34.19-.5.19c-.28,0-.5-.1-.63-.3-.14-.2-.21-.44-.21-.73,0-.32.09-.63.27-.93.18-.3.41-.58.7-.81s.62-.43.99-.58c.37-.15.75-.22,1.13-.22.48,0,.91.07,1.3.21.39.14.73.33,1.01.58.28.24.49.53.65.85.15.33.23.67.23,1.04,0,.39-.07.74-.21,1.06-.14.32-.31.62-.53.9-.22.28-.46.54-.72.79-.26.25-.52.49-.76.72-.94.86-1.68,1.59-2.2,2.18-.52.59-.84,1.06-.94,1.4h3c.2,0,.39,0,.57-.03.18-.02.35-.09.53-.21s.35-.32.52-.58.36-.65.55-1.14l.34.11Z"/>
      <path d="M425.03,277.12c-.06.32-.18.54-.37.65-.18.12-.38.17-.6.17s-.39-.06-.52-.17c-.13-.11-.21-.26-.24-.45-.03-.15-.02-.31.05-.46.06-.15.18-.26.34-.32.08-.14.08-.28.02-.44-.06-.15-.26-.23-.6-.23-.17,0-.38.08-.62.24-.25.16-.51.41-.78.75-.28.34-.55.76-.83,1.27s-.53,1.11-.76,1.8c-.23.69-.41,1.32-.54,1.9s-.19,1.07-.17,1.49c.02.41.11.74.29.97s.45.35.82.35c.34,0,.66-.08.97-.24.31-.16.59-.36.85-.6.26-.24.49-.48.68-.74s.35-.47.47-.65l.51.41c-.12.23-.3.5-.54.82-.24.31-.51.62-.83.91-.31.3-.64.54-.99.75-.34.2-.69.3-1.02.3-.69,0-1.23-.2-1.62-.6-.39-.4-.59-.93-.59-1.61-.12.24-.3.5-.54.76-.24.26-.51.5-.82.71-.31.21-.64.39-1,.52-.36.13-.72.2-1.09.2-.29,0-.55-.05-.77-.15-.22-.1-.41-.23-.57-.38-.16-.15-.28-.33-.37-.53-.08-.2-.13-.4-.13-.6,0-.87.31-1.31.94-1.31.31,0,.54.08.71.25.17.17.25.35.25.55,0,.21-.05.41-.14.59-.09.18-.23.28-.41.31-.05.23.04.37.26.44s.49.05.8-.05c.31-.09.64-.26.97-.49.33-.24.59-.54.79-.91.2-.37.4-.84.61-1.42s.39-1.17.56-1.76c.17-.59.31-1.13.44-1.61.12-.48.2-.82.23-1,.02-.18-.01-.37-.08-.56-.07-.19-.16-.37-.29-.53-.12-.16-.27-.29-.44-.4-.17-.11-.34-.16-.51-.16-.24,0-.49.07-.72.21-.24.14-.46.3-.67.49-.21.19-.39.39-.56.59-.17.2-.31.35-.41.46l-.39-.48c.17-.15.35-.35.55-.59.2-.24.42-.47.65-.68.24-.22.49-.4.77-.55s.58-.22.92-.22.61.08.87.24c.26.16.48.36.67.61.18.25.32.51.41.79s.13.55.11.79c.15-.17.34-.39.56-.67s.47-.54.76-.8c.28-.26.59-.49.93-.68.34-.19.7-.29,1.08-.29s.67.07.9.22c.23.15.41.33.53.54.12.21.2.44.23.67.03.24.03.44,0,.61Z"/>
      <path d="M433.84,287.91l-.7,2.82h-5.77c.07-.33.21-.67.41-1.04.2-.37.44-.74.72-1.13.28-.38.58-.77.91-1.16.33-.39.66-.77,1-1.15.26-.3.51-.6.75-.88.23-.28.43-.56.6-.84.17-.28.3-.57.4-.87s.14-.62.14-.96c0-.68-.17-1.22-.5-1.61-.34-.39-.82-.58-1.45-.58-.15,0-.33.02-.53.07s-.39.12-.57.22c-.18.1-.34.22-.46.37-.12.15-.18.32-.18.5,0,.13.02.22.06.29s.09.14.15.21c.06.07.1.15.14.24.04.09.06.22.06.39,0,.27-.09.47-.27.6s-.34.19-.5.19c-.28,0-.5-.1-.63-.3-.14-.2-.21-.44-.21-.73,0-.32.09-.63.27-.93.18-.3.41-.58.7-.81s.62-.43.99-.58c.37-.15.75-.22,1.13-.22.48,0,.91.07,1.3.21.39.14.73.33,1.01.58.28.24.49.53.65.85.15.33.23.67.23,1.04,0,.39-.07.74-.21,1.06-.14.32-.31.62-.53.9-.22.28-.46.54-.72.79-.26.25-.52.49-.76.72-.94.86-1.68,1.59-2.2,2.18-.52.59-.84,1.06-.94,1.4h3c.2,0,.39,0,.57-.03.18-.02.35-.09.53-.21s.35-.32.52-.58.36-.65.55-1.14l.34.11Z"/>
      <path d="M267.77,324.47c-.12.18-.26.38-.44.61-.18.23-.37.45-.57.66s-.42.39-.64.53c-.22.15-.44.22-.66.22-.23,0-.41-.06-.51-.19s-.18-.27-.2-.44c-.03-.17-.03-.33-.01-.49.02-.16.04-.28.07-.34l1.41-3.69c.11-.27.16-.48.15-.63,0-.15-.03-.25-.08-.32-.05-.07-.11-.11-.19-.12s-.14-.01-.18-.01c-.15,0-.32.09-.53.28-.21.19-.44.43-.68.74-.24.31-.5.66-.77,1.08-.27.41-.53.84-.78,1.29-.25.45-.5.91-.73,1.38-.23.47-.44.91-.61,1.33h-1.03l2.53-8.78c.07-.23,0-.41-.2-.52-.2-.11-.49-.15-.87-.12l.04-.29c.29-.06.59-.12.89-.19.25-.06.53-.13.82-.21s.56-.17.79-.26l-2.61,8.56c.21-.31.42-.65.64-1.01.22-.36.44-.72.67-1.07.23-.36.46-.7.7-1.02.23-.33.47-.61.71-.86.24-.25.48-.45.71-.6.23-.15.46-.23.69-.23.13,0,.26.03.4.09.14.06.26.16.36.29s.16.29.18.49c.02.2-.01.42-.11.69l-1.38,3.62c-.13.33-.17.58-.12.73.05.16.16.21.34.18.18-.04.41-.19.69-.45.28-.26.59-.64.92-1.13l.19.19Z"/>
      <path d="M272.88,329.81h-3.63v-.26c.38,0,.66-.02.85-.06.19-.04.33-.1.41-.17.08-.07.13-.14.14-.22,0-.08,0-.15,0-.21v-4.7c0-.09-.01-.16-.04-.22-.03-.06-.09-.1-.19-.14-.1-.03-.24-.06-.43-.07-.19-.01-.44-.01-.76-.01v-.21c.27-.03.54-.09.8-.15.26-.07.49-.14.7-.22.24-.09.47-.19.68-.29v6.03c0,.05,0,.12.02.19s.06.14.16.21c.09.07.23.13.43.17.2.05.48.07.86.07"/>
      <path d="M570,324.67c-.13.2-.3.43-.5.7-.2.27-.42.52-.65.76-.23.24-.48.44-.73.61-.26.17-.51.25-.75.25-.27,0-.46-.07-.58-.22-.12-.14-.2-.31-.23-.5-.03-.19-.04-.37-.02-.56s.05-.31.08-.39l1.6-4.2c.12-.31.18-.55.17-.72s-.04-.29-.09-.37-.13-.12-.22-.13c-.09-.01-.16-.02-.2-.02-.17,0-.37.11-.61.32s-.5.49-.77.84c-.28.35-.57.76-.87,1.22-.31.47-.6.96-.89,1.47-.29.52-.57,1.04-.83,1.57-.27.53-.5,1.04-.7,1.52h-1.17l2.88-9.99c.08-.27,0-.46-.22-.59-.23-.13-.56-.17-.99-.14l.05-.33c.33-.07.67-.14,1.02-.22.29-.07.6-.15.93-.24.33-.09.63-.19.9-.29l-2.97,9.74c.23-.35.48-.74.72-1.15.25-.41.51-.82.77-1.22s.52-.79.79-1.16c.27-.37.54-.7.81-.98.27-.28.54-.51.81-.68.27-.17.53-.26.78-.26.14,0,.3.04.46.11s.3.18.41.33c.11.15.18.34.21.56.03.22-.01.48-.12.78l-1.57,4.12c-.14.38-.19.65-.13.83.06.18.18.24.38.2.2-.04.46-.21.78-.51.32-.29.67-.72,1.05-1.29l.22.22Z"/>
      <path d="M575.73,328.7l-.51,2.05h-4.19c.05-.24.15-.49.3-.75s.32-.54.53-.82c.2-.28.42-.56.66-.84s.48-.56.72-.83c.19-.22.37-.43.54-.64.17-.2.31-.41.44-.61.12-.21.22-.42.29-.63s.11-.45.11-.7c0-.5-.12-.88-.36-1.17s-.59-.42-1.05-.42c-.11,0-.24.02-.38.05s-.28.09-.41.16c-.13.07-.24.16-.33.27-.09.11-.13.23-.13.37,0,.09.01.16.04.21.03.05.06.1.11.15.04.05.08.11.1.18.03.07.05.16.05.28,0,.2-.07.34-.19.43s-.25.14-.36.14c-.21,0-.36-.07-.46-.22-.1-.14-.15-.32-.15-.53,0-.23.06-.45.19-.67.13-.22.3-.42.51-.59.21-.17.45-.31.72-.42.27-.11.54-.16.82-.16.34,0,.66.05.94.15.28.1.53.24.73.42.2.18.36.38.47.62s.17.49.17.75c0,.28-.05.54-.15.77s-.23.45-.39.65c-.16.2-.33.39-.53.57-.19.18-.37.35-.55.52-.68.63-1.22,1.15-1.6,1.58-.38.43-.61.77-.68,1.01h2.18c.15,0,.29,0,.42-.02.13-.02.25-.07.38-.15.13-.09.25-.23.38-.42.12-.19.26-.47.4-.83l.24.08Z"/>
    </g>
    <g id="_레이어_2" data-name="레이어_2">
      <polyline class="cls-1" points="45.2 230.55 45.2 339.27 195.75 339.27"/>
      <polyline class="cls-1" points="249.66 230.55 249.66 339.27 400.22 339.27"/>
      <polyline class="cls-1" points="440.26 230.55 440.26 339.27 590.81 339.27"/>
      <line class="cls-2" x1="59.05" y1="311.87" x2="167.76" y2="243.81"/>
      <line class="cls-2" x1="113.4" y1="230.55" x2="188.09" y2="325.13"/>
      <line class="cls-2" x1="264.85" y1="311.87" x2="372.39" y2="243.81"/>
      <line class="cls-2" x1="508.84" y1="230.55" x2="584.2" y2="324.69"/>
      <line class="cls-1" x1="73.7" y1="262.37" x2="84.53" y2="262.37"/>
      <line class="cls-1" x1="176.34" y1="273.64" x2="187.17" y2="273.64"/>
      <line class="cls-1" x1="285.43" y1="262.26" x2="296.26" y2="262.26"/>
      <line class="cls-1" x1="478.79" y1="255.3" x2="489.62" y2="255.3"/>
      <line class="cls-1" x1="532.67" y1="231.29" x2="543.5" y2="231.29"/>
      <line class="cls-1" x1="538.09" y1="226.43" x2="538.09" y2="235.41"/>
      <line class="cls-1" x1="326.42" y1="304.43" x2="337.25" y2="304.43"/>
      <line class="cls-1" x1="331.84" y1="299.57" x2="331.84" y2="308.55"/>
      <line class="cls-1" x1="121.4" y1="303.62" x2="132.22" y2="303.62"/>
      <line class="cls-1" x1="126.81" y1="298.76" x2="126.81" y2="307.74"/>
      <line class="cls-1" x1="132.22" y1="233.06" x2="143.05" y2="233.06"/>
      <line class="cls-1" x1="137.64" y1="228.2" x2="137.64" y2="237.18"/>
    </g>
  </g>
</svg>