<?xml version="1.0" encoding="UTF-8"?>
<svg xmlns="http://www.w3.org/2000/svg" version="1.1" viewBox="0 0 600 600">
  <defs>
    <style>
      .cls-1, .cls-2, .cls-3, .cls-4, .cls-5 {
        stroke-miterlimit: 10;
      }

      .cls-1, .cls-3, .cls-5 {
        fill: none;
      }

      .cls-1, .cls-4, .cls-5 {
        stroke: #000;
      }

      .cls-2, .cls-3 {
        stroke: #231815;
      }

      .cls-5 {
        stroke-width: 2px;
      }
    </style>
  </defs>
  <!-- Generator: Adobe Illustrator 28.7.1, SVG Export Plug-In . SVG Version: 1.2.0 Build 142)  -->
  <g>
    <g id="_레이어_1" data-name="레이어_1">
      <path d="M79.09,424.68c0-.79.08-1.54.24-2.26.16-.71.36-1.38.6-2,.24-.62.51-1.19.81-1.7.3-.51.59-.96.88-1.35.29-.38.56-.7.82-.96.25-.25.45-.43.59-.52.08-.06.15-.06.21,0,.06.07.05.14-.04.22-.4.45-.79.96-1.15,1.53s-.69,1.21-.97,1.9c-.28.7-.5,1.47-.67,2.31-.17.84-.26,1.77-.28,2.77-.01.92.05,1.77.19,2.54.14.77.31,1.47.52,2.09.21.62.45,1.17.7,1.65.25.48.49.88.72,1.21.22.33.42.59.58.77s.27.29.3.33c.09.09.12.18.06.26-.05.08-.12.09-.2.03-.28-.18-.65-.51-1.09-1-.44-.49-.88-1.12-1.3-1.88-.43-.76-.79-1.65-1.09-2.65s-.45-2.11-.43-3.31Z"/>
      <path d="M91.53,428.5c-.04.14-.09.3-.15.49-.06.18-.14.37-.23.56s-.18.38-.28.56-.18.33-.27.45c-.21.27-.47.49-.76.65-.3.17-.6.25-.92.25-.35,0-.66-.08-.92-.25-.26-.17-.48-.38-.66-.64-.18-.26-.32-.56-.43-.89-.11-.33-.21-.66-.29-.99-.11.08-.23.17-.37.27-.14.09-.29.2-.44.3l-.44.3c-.14.09-.27.18-.37.25-.15.09-.28.14-.38.13-.1,0-.17-.04-.19-.11-.03-.06-.03-.14,0-.23.04-.09.12-.17.25-.26.12-.08.25-.18.41-.3.15-.12.31-.24.48-.37.17-.13.33-.26.49-.39.16-.13.3-.25.43-.35-.02-.31-.04-.64-.06-1s-.03-.71-.03-1.04c0-.51.03-1.03.08-1.57.05-.54.13-1.07.22-1.59.06-.28.16-.64.31-1.07.15-.43.33-.85.56-1.26s.48-.76.76-1.05c.28-.3.6-.44.94-.44.45,0,.82.17,1.11.51.29.34.43.87.43,1.59,0,.27-.02.58-.07.91-.05.34-.12.7-.21,1.07-.11.38-.26.78-.45,1.19-.2.41-.42.83-.68,1.25-.26.42-.55.83-.86,1.22s-.65.76-1,1.09c.01.2.05.48.12.83s.17.69.29,1.03c.12.34.29.63.49.88.2.25.44.37.73.37.19,0,.38-.07.58-.22s.36-.32.51-.52c.2-.28.37-.58.5-.88.13-.3.24-.59.34-.88.05-.13.1-.25.15-.35.05-.1.11-.15.17-.15.07,0,.13.04.19.12.05.08.04.25-.04.52ZM87.43,426.37c0,.2,0,.43.02.69.34-.43.67-.89.97-1.38.3-.5.56-1.02.78-1.56.22-.54.39-1.1.51-1.68.12-.58.19-1.16.19-1.74,0-.35-.04-.66-.12-.92-.08-.26-.24-.4-.48-.43-.21,0-.41.14-.59.42-.18.28-.35.62-.5,1.02-.15.4-.27.82-.38,1.27-.11.44-.19.83-.25,1.16-.05.28-.08.62-.11,1.02-.02.4-.04.91-.04,1.53v.6Z"/>
      <path d="M107.69,425.05h-11.72v-.69h11.72v.69Z"/>
      <path d="M120.62,431.21h-6.63v-.46c.69,0,1.2-.04,1.55-.12s.6-.17.75-.29.24-.25.25-.38c.01-.14.02-.26.02-.36v-8.29c0-.15-.03-.28-.08-.38-.05-.1-.17-.18-.34-.24-.18-.06-.44-.1-.78-.12-.34-.02-.8-.03-1.38-.03v-.37c.5-.06.98-.15,1.45-.27s.9-.25,1.28-.38c.44-.15.85-.32,1.24-.51v10.63c0,.09.01.21.04.34.02.13.12.25.28.37s.43.22.79.3c.36.08.88.12,1.57.12v.44Z"/>
      <path d="M124.52,415.89c.14.09.34.27.59.52.25.25.53.57.82.96.29.38.58.83.88,1.35.3.51.56,1.08.81,1.7.24.62.44,1.29.6,2,.16.72.24,1.47.24,2.26.01,1.21-.13,2.31-.43,3.31s-.67,1.89-1.09,2.65c-.43.76-.86,1.39-1.3,1.88-.44.49-.81.82-1.09,1-.08.06-.15.05-.2-.03-.05-.08-.03-.16.06-.26.04-.04.14-.14.3-.33s.36-.44.59-.77c.22-.33.46-.74.72-1.21.25-.48.49-1.03.7-1.65s.39-1.32.52-2.09c.14-.77.2-1.62.19-2.54-.01-1-.1-1.93-.28-2.77-.17-.84-.4-1.62-.68-2.31-.28-.7-.61-1.33-.98-1.9s-.75-1.08-1.15-1.53c-.07-.08-.08-.16-.03-.22.05-.06.13-.07.22,0Z"/>
      <path d="M341.85,427.67c-.04.14-.09.3-.15.49-.06.18-.14.37-.23.56s-.18.38-.28.56-.18.33-.27.45c-.21.27-.47.49-.76.65-.3.17-.6.25-.92.25-.35,0-.66-.08-.92-.25-.26-.17-.48-.38-.66-.64-.18-.26-.32-.56-.43-.89-.11-.33-.21-.66-.29-.99-.11.08-.23.17-.37.27-.14.09-.29.2-.44.3l-.44.3c-.14.09-.27.18-.37.25-.15.09-.28.14-.38.13-.1,0-.17-.04-.19-.11-.03-.06-.03-.14,0-.23.04-.09.12-.17.25-.26.12-.08.25-.18.41-.3.15-.12.31-.24.48-.37.17-.13.33-.26.49-.39.16-.13.3-.25.43-.35-.02-.31-.04-.64-.06-1s-.03-.71-.03-1.04c0-.51.03-1.03.08-1.57.05-.54.13-1.07.22-1.59.06-.28.16-.64.31-1.07.15-.43.33-.85.56-1.26s.48-.76.76-1.05c.28-.3.6-.44.94-.44.45,0,.82.17,1.11.51.29.34.43.87.43,1.59,0,.27-.02.58-.07.91-.05.34-.12.7-.21,1.07-.11.38-.26.78-.45,1.19-.2.41-.42.83-.68,1.25-.26.42-.55.83-.86,1.22s-.65.76-1,1.09c.01.2.05.48.12.83s.17.69.29,1.03c.12.34.29.63.49.88.2.25.44.37.73.37.19,0,.38-.07.58-.22s.36-.32.51-.52c.2-.28.37-.58.5-.88.13-.3.24-.59.34-.88.05-.13.1-.25.15-.35.05-.1.11-.15.17-.15.07,0,.13.04.19.12.05.08.04.25-.04.52ZM337.75,425.55c0,.2,0,.43.02.69.34-.43.67-.89.97-1.38.3-.5.56-1.02.78-1.56.22-.54.39-1.1.51-1.68.12-.58.19-1.16.19-1.74,0-.35-.04-.66-.12-.92-.08-.26-.24-.4-.48-.43-.21,0-.41.14-.59.42-.18.28-.35.62-.5,1.02-.15.4-.27.82-.38,1.27-.11.44-.19.83-.25,1.16-.05.28-.08.62-.11,1.02-.02.4-.04.91-.04,1.53v.6Z"/>
      <g>
        <path d="M33.89,430.63v-.45l1.86-.18h.64l1.89.18v.45h-4.38ZM35.27,430.63c.01-.35.02-.74.02-1.16,0-.42.01-.85.02-1.29,0-.44,0-.85,0-1.23v-8.24l-1.36-.08v-.43l2.74-.51.24.14-.05,2.5v6.62c0,.38,0,.79,0,1.23,0,.44.01.87.02,1.29,0,.42.01.81.02,1.16h-1.66Z"/>
        <path d="M41.72,430.87c-.64,0-1.17-.18-1.6-.54s-.64-.88-.64-1.55c0-.43.09-.8.28-1.14.19-.33.5-.63.94-.89.44-.26,1.02-.5,1.76-.71.44-.13.91-.26,1.41-.38s.97-.25,1.39-.35v.4c-.43.11-.86.22-1.29.34-.43.12-.82.25-1.16.38-.65.25-1.12.54-1.4.89-.28.35-.42.76-.42,1.24s.13.86.39,1.1c.26.25.6.37,1.03.37.22,0,.45-.04.67-.13.22-.08.48-.24.77-.47s.63-.55,1.02-.95l.16.78h-.43c-.32.35-.62.65-.91.89-.29.24-.59.42-.9.54-.31.12-.67.18-1.07.18ZM46.04,430.86c-.49,0-.86-.16-1.11-.48s-.4-.76-.44-1.31v-4.27c0-.6-.06-1.06-.19-1.38-.13-.32-.32-.54-.58-.67-.26-.13-.6-.19-1.02-.19-.3,0-.6.04-.9.12-.3.08-.64.22-1,.41l.78-.43-.24,1.26c-.03.33-.13.57-.28.7s-.34.21-.55.21c-.43,0-.69-.21-.78-.62.14-.67.5-1.2,1.1-1.58.59-.38,1.37-.58,2.34-.58s1.69.23,2.14.69c.46.46.69,1.2.69,2.22v4.02c0,.46.06.77.17.94.11.17.27.26.47.26.13,0,.25-.03.35-.1.11-.06.23-.18.37-.34l.26.22c-.17.31-.39.54-.65.68-.26.14-.57.22-.92.22Z"/>
        <path d="M48.88,434.97c-.37,0-.71-.08-1.02-.25-.3-.17-.47-.4-.5-.7.04-.25.16-.43.36-.54s.42-.18.66-.18.45.06.65.18.39.28.57.48l.46.48-.53.29-.3-.27c.52-.17.98-.51,1.38-1.01.39-.5.75-1.15,1.06-1.95l.46-1.15.1-.26,1.41-3.92,1.33-3.89h.64l-3.39,9.07c-.32.86-.66,1.56-1.01,2.1-.35.53-.72.92-1.1,1.16-.38.24-.79.36-1.22.36ZM47.38,422.73v-.45h4.14v.45l-1.68.18h-.86l-1.6-.18ZM51.92,431.55l-3.76-9.26h1.71l2.66,7.23.1.19-.7,1.84ZM53.22,422.73v-.45h3.25v.45l-1.31.16h-.24l-1.7-.16Z"/>
        <path d="M61.08,430.87c-.81,0-1.53-.17-2.16-.5-.63-.33-1.12-.82-1.48-1.48-.36-.66-.54-1.46-.54-2.42s.19-1.71.56-2.37c.37-.66.87-1.17,1.49-1.53.62-.36,1.29-.54,2-.54s1.34.15,1.85.45c.51.3.89.7,1.15,1.21.26.51.39,1.08.39,1.74,0,.38-.03.7-.1.96h-6.64v-.51h4.48c.3,0,.5-.08.61-.24s.16-.42.16-.77c0-.69-.17-1.25-.51-1.67-.34-.42-.82-.63-1.44-.63-.44,0-.83.14-1.19.42-.36.28-.64.7-.86,1.25-.21.55-.32,1.22-.32,2.02,0,.86.13,1.58.39,2.14.26.56.62.97,1.06,1.22.45.26.96.38,1.55.38s1.05-.1,1.46-.3c.41-.2.77-.49,1.08-.86l.27.21c-.34.58-.79,1.02-1.34,1.34-.55.32-1.2.48-1.94.48Z"/>
        <path d="M66.93,430.63c.01-.27.02-.62.02-1.06,0-.44.01-.9.02-1.38,0-.48,0-.9,0-1.25v-1.04c0-.55,0-1.04,0-1.44s-.02-.8-.04-1.18l-1.36-.1v-.4l2.66-.7.21.13.1,2.26v2.48c0,.35,0,.77,0,1.25,0,.48.01.94.02,1.38s.01.79.02,1.06h-1.65ZM65.67,430.63v-.45l1.74-.19h.88l1.79.19v.45h-4.42ZM68.53,425.53l-.4-.88h.32c.17-.53.4-.99.68-1.38.28-.39.6-.69.96-.9.36-.21.72-.32,1.1-.32.32,0,.6.07.84.2.24.13.4.34.47.63,0,.29-.07.52-.22.7s-.37.27-.68.27c-.21,0-.41-.06-.58-.18-.17-.12-.35-.28-.54-.5l-.37-.37.69.03c-.52.18-.97.48-1.34.9-.37.42-.68,1.02-.94,1.78Z"/>
      </g>
      <g>
        <path d="M289.88,430.63v-.45l1.86-.18h.64l1.89.18v.45h-4.38ZM291.25,430.63c.01-.35.02-.74.02-1.16,0-.42,0-.85.02-1.29,0-.44,0-.85,0-1.23v-8.24l-1.36-.08v-.43l2.74-.51.24.14-.05,2.5v6.62c0,.38,0,.79,0,1.23,0,.44.01.87.02,1.29,0,.42.01.81.02,1.16h-1.66Z"/>
        <path d="M297.7,430.87c-.64,0-1.17-.18-1.6-.54s-.64-.88-.64-1.55c0-.43.09-.8.28-1.14.19-.33.5-.63.94-.89s1.02-.5,1.76-.71c.44-.13.91-.26,1.41-.38.5-.13.96-.25,1.39-.35v.4c-.43.11-.86.22-1.29.34-.43.12-.82.25-1.16.38-.65.25-1.12.54-1.4.89-.28.35-.42.76-.42,1.24s.13.86.39,1.1c.26.25.61.37,1.03.37.22,0,.45-.04.67-.13.22-.08.48-.24.77-.47s.63-.55,1.02-.95l.16.78h-.43c-.32.35-.62.65-.91.89-.29.24-.59.42-.9.54-.31.12-.67.18-1.07.18ZM302.02,430.86c-.49,0-.86-.16-1.11-.48-.25-.32-.4-.76-.44-1.31v-4.27c0-.6-.06-1.06-.19-1.38-.13-.32-.32-.54-.58-.67-.26-.13-.6-.19-1.02-.19-.3,0-.6.04-.9.12-.3.08-.64.22-1,.41l.78-.43-.24,1.26c-.03.33-.12.57-.28.7-.16.14-.34.21-.55.21-.43,0-.69-.21-.78-.62.14-.67.5-1.2,1.1-1.58.59-.38,1.37-.58,2.34-.58s1.69.23,2.14.69c.46.46.69,1.2.69,2.22v4.02c0,.46.06.77.17.94s.27.26.47.26c.13,0,.25-.03.35-.1.11-.06.23-.18.37-.34l.26.22c-.17.31-.39.54-.65.68-.26.14-.57.22-.92.22Z"/>
        <path d="M304.87,434.97c-.37,0-.71-.08-1.02-.25-.3-.17-.47-.4-.5-.7.04-.25.16-.43.36-.54s.42-.18.66-.18.45.06.65.18c.2.12.39.28.57.48l.46.48-.53.29-.3-.27c.52-.17.98-.51,1.38-1.01.39-.5.75-1.15,1.06-1.95l.46-1.15.1-.26,1.41-3.92,1.33-3.89h.64l-3.39,9.07c-.32.86-.66,1.56-1.01,2.1-.35.53-.72.92-1.1,1.16-.38.24-.79.36-1.22.36ZM303.37,422.73v-.45h4.14v.45l-1.68.18h-.86l-1.6-.18ZM307.91,431.54l-3.76-9.26h1.71l2.66,7.23.1.19-.7,1.84ZM309.21,422.73v-.45h3.25v.45l-1.31.16h-.24l-1.7-.16Z"/>
        <path d="M317.06,430.87c-.81,0-1.53-.17-2.16-.5-.63-.33-1.12-.82-1.48-1.48-.36-.66-.54-1.46-.54-2.42s.19-1.71.56-2.37c.37-.66.87-1.17,1.49-1.53.62-.36,1.29-.54,2-.54s1.34.15,1.85.45c.51.3.89.7,1.15,1.21.26.51.39,1.08.39,1.74,0,.38-.03.7-.1.96h-6.64v-.51h4.48c.3,0,.5-.08.61-.24.11-.16.16-.42.16-.77,0-.69-.17-1.25-.51-1.67-.34-.42-.82-.63-1.44-.63-.44,0-.83.14-1.19.42-.36.28-.64.7-.86,1.25-.21.55-.32,1.22-.32,2.02,0,.86.13,1.58.39,2.14.26.56.62.97,1.06,1.22s.96.38,1.55.38,1.05-.1,1.46-.3c.41-.2.77-.49,1.08-.86l.27.21c-.34.58-.79,1.02-1.34,1.34-.55.32-1.2.48-1.94.48Z"/>
        <path d="M322.92,430.63c0-.27.02-.62.02-1.06,0-.44.01-.9.02-1.38,0-.48,0-.9,0-1.25v-1.04c0-.55,0-1.04,0-1.44,0-.41-.02-.8-.04-1.18l-1.36-.1v-.4l2.66-.7.21.13.1,2.26v2.48c0,.35,0,.77,0,1.25,0,.48.01.94.02,1.38,0,.44.01.79.02,1.06h-1.65ZM321.65,430.63v-.45l1.74-.19h.88l1.79.19v.45h-4.42ZM324.52,425.53l-.4-.88h.32c.17-.53.4-.99.68-1.38.28-.39.6-.69.96-.9.36-.21.72-.32,1.1-.32.32,0,.6.07.84.2.24.13.4.34.47.63,0,.29-.07.52-.22.7-.14.18-.37.27-.68.27-.21,0-.41-.06-.58-.18s-.35-.28-.54-.5l-.37-.37.69.03c-.52.18-.97.48-1.34.9-.37.42-.68,1.02-.94,1.78Z"/>
      </g>
      <g>
        <path d="M473.36,430.63v-.45l1.86-.18h.64l1.89.18v.45h-4.38ZM474.73,430.63c.01-.35.02-.74.02-1.16,0-.42,0-.85.02-1.29,0-.44,0-.85,0-1.23v-8.24l-1.36-.08v-.43l2.74-.51.24.14-.05,2.5v6.62c0,.38,0,.79,0,1.23,0,.44.01.87.02,1.29,0,.42.01.81.02,1.16h-1.66Z"/>
        <path d="M481.18,430.87c-.64,0-1.17-.18-1.6-.54s-.64-.88-.64-1.55c0-.43.09-.8.28-1.14.19-.33.5-.63.94-.89s1.02-.5,1.76-.71c.44-.13.91-.26,1.41-.38.5-.13.96-.25,1.39-.35v.4c-.43.11-.86.22-1.29.34-.43.12-.82.25-1.16.38-.65.25-1.12.54-1.4.89-.28.35-.42.76-.42,1.24s.13.86.39,1.1c.26.25.61.37,1.03.37.22,0,.45-.04.67-.13.22-.08.48-.24.77-.47s.63-.55,1.02-.95l.16.78h-.43c-.32.35-.62.65-.91.89-.29.24-.59.42-.9.54-.31.12-.67.18-1.07.18ZM485.5,430.86c-.49,0-.86-.16-1.11-.48-.25-.32-.4-.76-.44-1.31v-4.27c0-.6-.06-1.06-.19-1.38-.13-.32-.32-.54-.58-.67-.26-.13-.6-.19-1.02-.19-.3,0-.6.04-.9.12-.3.08-.64.22-1,.41l.78-.43-.24,1.26c-.03.33-.12.57-.28.7-.16.14-.34.21-.55.21-.43,0-.69-.21-.78-.62.14-.67.5-1.2,1.1-1.58.59-.38,1.37-.58,2.34-.58s1.69.23,2.14.69c.46.46.69,1.2.69,2.22v4.02c0,.46.06.77.17.94s.27.26.47.26c.13,0,.25-.03.35-.1.11-.06.23-.18.37-.34l.26.22c-.17.31-.39.54-.65.68-.26.14-.57.22-.92.22Z"/>
        <path d="M488.35,434.97c-.37,0-.71-.08-1.02-.25-.3-.17-.47-.4-.5-.7.04-.25.16-.43.36-.54s.42-.18.66-.18.45.06.65.18c.2.12.39.28.57.48l.46.48-.53.29-.3-.27c.52-.17.98-.51,1.38-1.01.39-.5.75-1.15,1.06-1.95l.46-1.15.1-.26,1.41-3.92,1.33-3.89h.64l-3.39,9.07c-.32.86-.66,1.56-1.01,2.1-.35.53-.72.92-1.1,1.16-.38.24-.79.36-1.22.36ZM486.85,422.73v-.45h4.14v.45l-1.68.18h-.86l-1.6-.18ZM491.39,431.55l-3.76-9.26h1.71l2.66,7.23.1.19-.7,1.84ZM492.69,422.73v-.45h3.25v.45l-1.31.16h-.24l-1.7-.16Z"/>
        <path d="M500.54,430.87c-.81,0-1.53-.17-2.16-.5-.63-.33-1.12-.82-1.48-1.48-.36-.66-.54-1.46-.54-2.42s.19-1.71.56-2.37c.37-.66.87-1.17,1.49-1.53.62-.36,1.29-.54,2-.54s1.34.15,1.85.45c.51.3.89.7,1.15,1.21.26.51.39,1.08.39,1.74,0,.38-.03.7-.1.96h-6.64v-.51h4.48c.3,0,.5-.08.61-.24.11-.16.16-.42.16-.77,0-.69-.17-1.25-.51-1.67-.34-.42-.82-.63-1.44-.63-.44,0-.83.14-1.19.42-.36.28-.64.7-.86,1.25-.21.55-.32,1.22-.32,2.02,0,.86.13,1.58.39,2.14.26.56.62.97,1.06,1.22s.96.38,1.55.38,1.05-.1,1.46-.3c.41-.2.77-.49,1.08-.86l.27.21c-.34.58-.79,1.02-1.34,1.34-.55.32-1.2.48-1.94.48Z"/>
        <path d="M506.4,430.63c0-.27.02-.62.02-1.06,0-.44.01-.9.02-1.38,0-.48,0-.9,0-1.25v-1.04c0-.55,0-1.04,0-1.44,0-.41-.02-.8-.04-1.18l-1.36-.1v-.4l2.66-.7.21.13.1,2.26v2.48c0,.35,0,.77,0,1.25,0,.48.01.94.02,1.38,0,.44.01.79.02,1.06h-1.65ZM505.13,430.63v-.45l1.74-.19h.88l1.79.19v.45h-4.42ZM508,425.53l-.4-.88h.32c.17-.53.4-.99.68-1.38.28-.39.6-.69.96-.9.36-.21.72-.32,1.1-.32.32,0,.6.07.84.2.24.13.4.34.47.63,0,.29-.07.52-.22.7-.14.18-.37.27-.68.27-.21,0-.41-.06-.58-.18s-.35-.28-.54-.5l-.37-.37.69.03c-.52.18-.97.48-1.34.9-.37.42-.68,1.02-.94,1.78Z"/>
      </g>
      <path d="M319.95,361.71c-.46,1.6-.96,2.91-1.51,3.95-.55,1.04-1.12,1.85-1.71,2.43-.59.58-1.18.96-1.76,1.14-.58.18-1.13.19-1.64.05-.69-.21-1.16-.6-1.42-1.17-.26-.57-.38-1.23-.37-1.99.01-.75.12-1.55.33-2.39.21-.84.44-1.64.7-2.39.18-.53.4-1.07.66-1.62.26-.54.54-1.07.86-1.57.31-.5.65-.96,1.01-1.37.36-.42.74-.76,1.14-1.03.4-.27.8-.46,1.23-.55s.85-.07,1.3.07c.42.14.75.43.99.86.25.43.42.94.52,1.54.1.6.12,1.25.06,1.96-.06.71-.19,1.41-.38,2.09ZM313.89,362.08c-.13.34-.24.64-.32.9-.08.27-.18.56-.28.9s-.19.66-.27.98c-.1.38-.18.77-.22,1.19-.05.42-.05.81,0,1.18.04.37.13.69.27.95.14.27.36.43.64.5.4.1.79.06,1.16-.15s.71-.49,1.02-.86c.31-.37.59-.79.83-1.26.24-.47.44-.92.59-1.34.13-.32.26-.67.39-1.02.13-.36.25-.68.36-.97.11-.29.2-.53.26-.72.06-.19.09-.28.08-.28h-4.5ZM319.05,358.64c.05-.52.06-.94.04-1.27-.03-.32-.08-.58-.16-.77-.08-.19-.18-.32-.3-.4-.12-.08-.26-.13-.4-.16-.34-.06-.64-.03-.91.11-.27.14-.51.33-.74.57-.23.25-.44.53-.64.84s-.4.61-.59.9c-.16.23-.31.52-.48.86-.16.34-.31.66-.43.97s-.26.69-.42,1.13h4.5c.1-.4.19-.75.24-1.03.06-.29.11-.59.17-.92.05-.32.09-.6.12-.84Z"/>
      <path d="M524.18,285.54c-.46,1.6-.96,2.91-1.51,3.95-.55,1.04-1.12,1.85-1.71,2.43-.59.58-1.18.96-1.76,1.14-.58.18-1.13.19-1.64.05-.69-.21-1.16-.6-1.42-1.17-.26-.57-.38-1.23-.37-1.99.01-.75.12-1.55.33-2.39.21-.84.44-1.64.7-2.39.18-.53.4-1.07.66-1.62.26-.54.54-1.07.86-1.57.31-.5.65-.96,1.01-1.37.36-.42.74-.76,1.14-1.03.4-.27.8-.46,1.23-.55s.85-.07,1.3.07c.42.14.75.43.99.86.25.43.42.94.52,1.54.1.6.12,1.25.06,1.96-.06.71-.19,1.41-.38,2.09ZM518.12,285.91c-.13.34-.24.64-.32.9-.08.27-.18.56-.28.9s-.19.66-.27.98c-.1.38-.18.77-.22,1.19-.05.42-.05.81,0,1.18.04.37.13.69.27.95.14.27.36.43.64.5.4.1.79.06,1.16-.15s.71-.49,1.02-.86c.31-.37.59-.79.83-1.26.24-.47.44-.92.59-1.34.13-.32.26-.67.39-1.02.13-.36.25-.68.36-.97.11-.29.2-.53.26-.72.06-.19.09-.28.08-.28h-4.5ZM523.28,282.46c.05-.52.06-.94.04-1.27-.03-.32-.08-.58-.16-.77-.08-.19-.18-.32-.3-.4-.12-.08-.26-.13-.4-.16-.34-.06-.64-.03-.91.11-.27.14-.51.33-.74.57-.23.25-.44.53-.64.84s-.4.61-.59.9c-.16.23-.31.52-.48.86-.16.34-.31.66-.43.97s-.26.69-.42,1.13h4.5c.1-.4.19-.75.24-1.03.06-.29.11-.59.17-.92.05-.32.09-.6.12-.84Z"/>
      <path d="M129.11,305.12c-.28,0-.55.04-.82.12-.27.08-.51.18-.73.3-.22.12-.42.25-.59.4-.17.14-.3.28-.38.42l-7.27,10.94h-.47l.18-9.35-6.22,9.32h-.43l.24-11.14c0-.16,0-.3-.04-.42-.03-.12-.1-.22-.21-.31-.11-.08-.27-.15-.48-.2-.21-.05-.49-.07-.86-.07l.18-.54h5.29l-.18.54c-.49,0-.88.04-1.16.13-.27.09-.48.19-.61.31-.13.12-.21.24-.25.36-.03.12-.05.22-.05.29l-.27,8.25,5.05-7.49c.04-.34.05-.62.02-.86-.02-.24-.09-.43-.21-.57-.12-.14-.28-.25-.49-.32-.21-.07-.5-.1-.86-.1l.18-.54h5.25l-.18.54c-.49,0-.88.05-1.16.15-.28.1-.49.22-.62.34-.13.13-.22.25-.25.38s-.06.21-.06.26l-.22,8.27,5.2-7.62c.14-.2.23-.41.27-.62.04-.21.03-.4-.04-.58-.07-.17-.2-.32-.4-.42-.2-.11-.47-.16-.82-.16l.18-.54h4.49l-.18.54Z"/>
      <path d="M130.16,304.31c0-.55.05-1.08.16-1.58.11-.5.24-.97.41-1.4.16-.43.35-.83.55-1.19.2-.36.4-.67.59-.94s.38-.49.55-.67c.17-.18.31-.3.4-.37.06-.04.1-.04.14,0,.04.05.03.1-.02.16-.27.31-.53.67-.78,1.07-.25.4-.47.85-.65,1.34-.19.49-.34,1.03-.46,1.62-.12.59-.18,1.24-.19,1.94,0,.65.03,1.24.13,1.78.09.54.21,1.03.35,1.47.14.44.3.82.47,1.16.17.34.33.62.49.85.15.23.28.41.4.54.11.13.18.21.2.23.06.07.08.13.04.18-.04.05-.08.06-.14.02-.19-.12-.44-.36-.74-.7-.3-.34-.59-.78-.88-1.32s-.53-1.15-.74-1.86c-.2-.7-.3-1.48-.29-2.32Z"/>
      <path d="M139.57,306.67c-.02.1-.06.21-.1.34-.04.13-.1.26-.16.39-.06.13-.12.26-.19.39-.06.13-.12.23-.18.32-.14.19-.32.34-.52.46s-.41.17-.62.17c-.24,0-.45-.06-.62-.17s-.32-.26-.44-.45c-.12-.18-.22-.39-.29-.62-.08-.23-.14-.46-.2-.7-.07.06-.16.12-.25.19-.1.07-.2.14-.3.21l-.3.21c-.1.07-.18.12-.25.17-.1.07-.19.1-.26.09-.07,0-.11-.03-.13-.07s-.02-.1,0-.16c.02-.06.08-.12.17-.18.08-.06.17-.13.28-.21s.21-.17.32-.26c.11-.09.22-.18.33-.27.11-.09.21-.17.29-.25-.02-.21-.03-.45-.04-.7-.01-.25-.02-.49-.02-.73,0-.36.02-.72.05-1.1s.09-.75.15-1.11c.04-.2.11-.45.21-.75.1-.3.23-.6.38-.88.15-.29.32-.53.52-.74.19-.21.4-.31.64-.31.3,0,.55.12.75.36.2.24.29.61.29,1.11,0,.19-.02.4-.05.64-.03.24-.08.49-.14.75-.07.27-.17.54-.31.83-.13.29-.29.58-.46.88s-.37.58-.58.86-.44.53-.68.76c0,.14.04.33.08.58.05.24.11.49.2.72s.19.44.33.62c.14.17.3.26.49.26.13,0,.26-.05.39-.16.13-.1.25-.23.34-.37.14-.2.25-.4.34-.62.09-.21.16-.42.23-.61.03-.09.07-.17.1-.24.04-.07.07-.11.11-.11.05,0,.09.03.13.08.04.05.03.18-.03.37ZM136.8,305.18c0,.14,0,.3.01.48.23-.3.45-.62.65-.97.2-.35.38-.71.53-1.09.15-.38.26-.77.35-1.18.08-.41.13-.81.13-1.22,0-.25-.03-.46-.08-.65-.06-.18-.16-.28-.32-.3-.14,0-.28.1-.4.29-.12.19-.24.43-.34.71-.1.28-.19.58-.26.89s-.13.58-.17.81c-.03.2-.06.44-.07.71s-.02.64-.02,1.07v.42Z"/>
      <path d="M143.21,298.15c.1.07.23.19.4.37.17.18.36.4.55.67.2.27.39.58.59.94.2.36.38.76.55,1.19s.3.9.41,1.4c.11.5.16,1.03.16,1.58,0,.84-.09,1.62-.29,2.32-.2.7-.45,1.32-.74,1.86-.29.53-.58.97-.88,1.32s-.55.58-.74.7c-.06.04-.1.04-.14-.02-.04-.05-.02-.11.04-.18.02-.02.09-.1.2-.23.11-.13.24-.31.4-.54s.31-.52.49-.85c.17-.33.33-.72.47-1.16.14-.43.26-.92.35-1.47.09-.54.13-1.14.13-1.78,0-.7-.07-1.35-.19-1.94-.12-.59-.27-1.13-.46-1.62s-.41-.93-.66-1.34c-.25-.4-.51-.76-.78-1.07-.05-.06-.05-.11-.02-.16.04-.04.09-.05.15,0Z"/>
      <path d="M463.07,327.77c-.28,0-.55.04-.82.12-.27.08-.51.18-.73.3-.22.12-.42.25-.59.4-.17.14-.3.28-.38.42l-7.27,10.94h-.47l.18-9.35-6.22,9.32h-.43l.24-11.14c0-.16,0-.3-.04-.42-.03-.12-.1-.22-.21-.31-.11-.08-.27-.15-.48-.2-.21-.05-.49-.07-.86-.07l.18-.54h5.29l-.18.54c-.49,0-.88.04-1.16.13-.27.09-.48.19-.61.31-.13.12-.21.24-.25.36-.03.12-.05.22-.05.29l-.27,8.25,5.05-7.49c.04-.34.05-.62.02-.86-.02-.24-.09-.43-.21-.57-.12-.14-.28-.25-.49-.32-.21-.07-.5-.1-.86-.1l.18-.54h5.25l-.18.54c-.49,0-.88.05-1.16.15-.28.1-.49.22-.62.34-.13.13-.22.25-.25.38s-.06.21-.06.26l-.22,8.27,5.2-7.62c.14-.2.23-.41.27-.62.04-.21.03-.4-.04-.58-.07-.17-.2-.32-.4-.42-.2-.11-.47-.16-.82-.16l.18-.54h4.49l-.18.54Z"/>
      <path d="M464.13,326.96c0-.55.05-1.08.16-1.58.11-.5.24-.97.41-1.4.16-.43.35-.83.55-1.19.2-.36.4-.67.59-.94s.38-.49.55-.67c.17-.18.31-.3.4-.37.06-.04.1-.04.14,0,.04.05.03.1-.02.16-.27.31-.53.67-.78,1.07-.25.4-.47.85-.65,1.34-.19.49-.34,1.03-.46,1.62-.12.59-.18,1.24-.19,1.94,0,.65.03,1.24.13,1.78.09.54.21,1.03.35,1.47.14.44.3.82.47,1.16.17.34.33.62.49.85.15.23.28.41.4.54.11.13.18.21.2.23.06.07.08.13.04.18-.04.05-.08.06-.14.02-.19-.12-.44-.36-.74-.7-.3-.34-.59-.78-.88-1.32s-.53-1.15-.74-1.86c-.2-.7-.3-1.48-.29-2.32Z"/>
      <path d="M473.54,329.32c-.02.1-.06.21-.1.34-.04.13-.1.26-.16.39-.06.13-.12.26-.19.39-.06.13-.12.23-.18.32-.14.19-.32.34-.52.46s-.41.17-.62.17c-.24,0-.45-.06-.62-.17s-.32-.26-.44-.45c-.12-.18-.22-.39-.29-.62-.08-.23-.14-.46-.2-.7-.07.06-.16.12-.25.19-.1.07-.2.14-.3.21l-.3.21c-.1.07-.18.12-.25.17-.1.07-.19.1-.26.09-.07,0-.11-.03-.13-.07s-.02-.1,0-.16c.02-.06.08-.12.17-.18.08-.06.17-.13.28-.21s.21-.17.32-.26c.11-.09.22-.18.33-.27.11-.09.21-.17.29-.25-.02-.21-.03-.45-.04-.7-.01-.25-.02-.49-.02-.73,0-.36.02-.72.05-1.1s.09-.75.15-1.11c.04-.2.11-.45.21-.75.1-.3.23-.6.38-.88.15-.29.32-.53.52-.74.19-.21.4-.31.64-.31.3,0,.55.12.75.36.2.24.29.61.29,1.11,0,.19-.02.4-.05.64-.03.24-.08.49-.14.75-.07.27-.17.54-.31.83-.13.29-.29.58-.46.88s-.37.58-.58.86-.44.53-.68.76c0,.14.04.33.08.58.05.24.11.49.2.72s.19.44.33.62c.14.17.3.26.49.26.13,0,.26-.05.39-.16.13-.1.25-.23.34-.37.14-.2.25-.4.34-.62.09-.21.16-.42.23-.61.03-.09.07-.17.1-.24.04-.07.07-.11.11-.11.05,0,.09.03.13.08.04.05.03.18-.03.37ZM470.76,327.83c0,.14,0,.3.01.48.23-.3.45-.62.65-.97.2-.35.38-.71.53-1.09.15-.38.26-.77.35-1.18.08-.41.13-.81.13-1.22,0-.25-.03-.46-.08-.65-.06-.18-.16-.28-.32-.3-.14,0-.28.1-.4.29-.12.19-.24.43-.34.71-.1.28-.19.58-.26.89s-.13.58-.17.81c-.03.2-.06.44-.07.71s-.02.64-.02,1.07v.42Z"/>
      <path d="M485.92,327.22h-3.7v3.89h-.53v-3.89h-3.68v-.48h3.68v-3.84h.53v3.84h3.7v.48Z"/>
      <path d="M495.64,331.22h-4.49v-.32c.46,0,.81-.03,1.05-.08.24-.05.41-.12.51-.2s.16-.17.17-.27c0-.1.01-.18.01-.26v-5.81c0-.11-.02-.2-.05-.27-.04-.07-.11-.13-.23-.17-.12-.04-.3-.07-.53-.08-.23-.01-.54-.02-.94-.02v-.26c.34-.04.66-.11.98-.19.32-.09.61-.18.86-.27.3-.11.58-.23.84-.36v7.45c0,.07,0,.15.02.24.02.09.08.18.19.26.11.08.29.15.53.21.24.06.6.09,1.06.09v.31Z"/>
      <path d="M499.06,320.8c.1.07.23.19.4.37.17.18.36.4.55.67.2.27.39.58.59.94.2.36.38.76.55,1.19s.3.9.41,1.4c.11.5.16,1.03.16,1.58,0,.84-.09,1.62-.29,2.32-.2.7-.45,1.32-.74,1.86-.29.53-.58.97-.88,1.32s-.55.58-.74.7c-.06.04-.1.04-.14-.02-.04-.05-.02-.11.04-.18.02-.02.09-.1.2-.23.11-.13.24-.31.4-.54s.31-.52.49-.85c.17-.33.33-.72.47-1.16.14-.43.26-.92.35-1.47.09-.54.13-1.14.13-1.78,0-.7-.07-1.35-.19-1.94-.12-.59-.27-1.13-.46-1.62s-.41-.93-.66-1.34c-.25-.4-.51-.76-.78-1.07-.05-.06-.05-.11-.02-.16.04-.04.09-.05.15,0Z"/>
      <path d="M520.18,424.68c0-.81.08-1.58.24-2.31.16-.73.37-1.41.62-2.04s.52-1.21.82-1.74c.3-.52.6-.98.9-1.38.3-.39.57-.72.83-.98.26-.26.46-.44.61-.53.08-.06.16-.06.22,0,.06.07.05.14-.04.23-.41.46-.8.98-1.18,1.57s-.7,1.23-.99,1.94c-.28.71-.51,1.5-.69,2.36-.18.86-.27,1.81-.28,2.83-.01.94.05,1.81.19,2.6.14.79.32,1.5.53,2.13.22.63.45,1.19.71,1.68.26.49.5.9.73,1.24s.43.6.6.79.27.3.31.34c.1.1.12.18.06.26-.05.08-.12.09-.21.03-.29-.18-.66-.52-1.11-1.02-.45-.5-.9-1.14-1.33-1.92-.43-.78-.81-1.68-1.11-2.7-.31-1.03-.46-2.15-.44-3.38Z"/>
      <path d="M532.87,428.58c-.04.15-.09.31-.15.5-.07.19-.14.38-.24.57-.09.19-.18.38-.28.57-.1.19-.19.34-.27.46-.22.28-.48.5-.78.67s-.62.26-.94.26c-.36,0-.68-.09-.94-.25-.27-.17-.49-.39-.67-.65-.18-.26-.33-.57-.44-.9-.11-.34-.21-.67-.3-1.01-.11.08-.24.17-.38.27-.14.1-.3.2-.45.31l-.45.31c-.14.1-.27.18-.38.25-.16.1-.29.14-.39.13-.1,0-.17-.04-.2-.11-.03-.07-.03-.15,0-.24.04-.09.12-.18.25-.26.12-.08.26-.19.42-.31.16-.12.32-.25.49-.38.17-.13.33-.26.5-.4.16-.13.31-.25.44-.36-.02-.31-.05-.65-.06-1.02-.02-.37-.03-.72-.03-1.06,0-.52.03-1.05.08-1.6.05-.55.13-1.09.23-1.62.06-.29.17-.65.32-1.09.15-.44.34-.87.57-1.28.23-.42.49-.77.78-1.08.29-.3.61-.45.96-.45.46,0,.84.17,1.13.52.3.34.44.88.44,1.62,0,.28-.02.59-.07.93-.05.34-.12.71-.22,1.1-.11.39-.26.79-.46,1.21s-.43.85-.7,1.28-.56.84-.88,1.25-.66.78-1.02,1.11c.01.21.05.49.13.84.07.36.17.71.3,1.05.13.34.29.64.5.9.2.25.45.38.74.38.19,0,.39-.08.59-.23.2-.15.37-.33.52-.53.2-.29.37-.59.51-.9s.25-.61.34-.9c.05-.13.1-.25.15-.35.05-.1.11-.15.17-.15.07,0,.14.04.19.12.05.08.04.26-.05.53ZM528.69,426.41c0,.2,0,.44.02.71.35-.43.68-.9.99-1.41.31-.51.57-1.04.8-1.59.22-.56.4-1.13.52-1.72.13-.59.19-1.18.19-1.77,0-.36-.04-.67-.13-.94-.09-.26-.25-.41-.49-.43-.22,0-.42.14-.61.43-.19.28-.36.63-.51,1.04-.15.41-.28.84-.39,1.29-.11.45-.19.85-.25,1.18-.05.29-.09.64-.11,1.04-.02.41-.04.93-.04,1.57v.62Z"/>
      <path d="M549.35,425.06h-5.58v5.66h-.8v-5.66h-5.56v-.71h5.56v-5.59h.8v5.59h5.58v.71Z"/>
      <path d="M562.57,431.35h-6.77v-.47c.7,0,1.23-.04,1.58-.12.36-.08.61-.18.77-.3s.24-.25.25-.39c.01-.14.02-.26.02-.37v-8.47c0-.16-.03-.29-.08-.39s-.17-.18-.35-.24-.45-.1-.8-.12c-.35-.02-.82-.03-1.41-.03v-.38c.51-.06,1-.15,1.48-.28.48-.13.92-.26,1.3-.39.45-.16.87-.33,1.27-.52v10.85c0,.1.01.21.04.34.02.13.12.26.29.38s.44.22.81.31c.37.09.9.13,1.6.13v.45Z"/>
      <path d="M566.55,415.71c.14.1.35.28.61.53.26.26.54.58.83.98.3.39.59.85.9,1.38s.58,1.1.82,1.74.45,1.31.62,2.04c.16.73.24,1.5.24,2.31.01,1.23-.14,2.36-.44,3.38-.31,1.03-.68,1.93-1.11,2.7-.43.78-.88,1.42-1.33,1.92-.45.5-.82.84-1.11,1.02-.09.06-.15.05-.21-.03-.05-.08-.03-.17.06-.26.04-.04.14-.15.31-.34s.37-.45.6-.79.47-.75.73-1.24c.26-.49.5-1.05.71-1.68s.4-1.34.53-2.13.2-1.65.19-2.6c-.01-1.02-.11-1.97-.28-2.83-.18-.86-.41-1.65-.7-2.36-.29-.71-.62-1.36-1-1.94-.37-.58-.77-1.11-1.18-1.57-.07-.08-.08-.16-.03-.23s.13-.07.23,0Z"/>
      <path d="M357.42,354.21h-4.16v-.51h.36c.17,0,.32-.02.46-.06.14-.04.23-.12.27-.22.04-.1-.03-.26-.21-.48l-2.03-2.48-1.94,2.32c-.12.15-.15.27-.1.39s.15.21.29.29c.14.08.29.14.46.18.17.04.31.06.42.06v.51h-3.8v-.51c.4,0,.76-.06,1.08-.18.32-.12.6-.33.84-.62l2.39-2.88-2.99-3.42c-.21-.23-.41-.39-.61-.47-.2-.08-.47-.13-.82-.14v-.51h4.18v.51c-.31,0-.55.03-.71.08-.16.05-.27.12-.33.19s-.09.15-.07.24c.01.09.04.16.09.24l2.04,2.35,2.08-2.39c.06-.07.09-.15.08-.23,0-.08-.05-.15-.13-.23-.09-.07-.22-.13-.4-.18-.18-.05-.41-.07-.69-.07v-.51h3.6v.51c-.11,0-.24,0-.38,0-.15,0-.3.03-.46.07-.16.04-.33.11-.51.21-.17.1-.34.24-.5.43l-2.35,2.77,2.71,3.33c.22.26.45.48.71.63.25.16.62.24,1.1.25v.51Z"/>
      <path d="M360.75,341.3c0-.55.05-1.08.16-1.58.11-.5.24-.97.41-1.4s.35-.83.55-1.19.4-.67.59-.94.38-.49.55-.67c.17-.18.31-.3.4-.37.06-.04.1-.04.14,0,.04.05.03.1-.02.16-.27.31-.53.67-.78,1.07-.25.4-.47.85-.65,1.34s-.34,1.03-.46,1.62c-.12.59-.18,1.24-.19,1.94,0,.65.03,1.24.13,1.78.09.54.21,1.03.35,1.47.14.44.3.82.47,1.16.17.34.33.62.49.85.15.23.28.41.4.54.11.13.18.21.2.23.06.07.08.13.04.18-.04.05-.08.06-.14.02-.19-.12-.44-.36-.74-.7s-.59-.78-.88-1.32-.53-1.15-.74-1.86-.3-1.48-.29-2.32Z"/>
      <path d="M370.16,343.66c-.02.1-.06.21-.1.34-.04.13-.1.26-.16.39-.06.13-.12.26-.19.39-.06.13-.12.23-.18.32-.14.19-.32.34-.52.46s-.41.17-.62.17c-.24,0-.45-.06-.62-.17s-.32-.26-.44-.45c-.12-.18-.22-.39-.29-.62-.08-.23-.14-.46-.2-.7-.07.06-.16.12-.25.19-.1.07-.2.14-.3.21l-.3.21c-.1.07-.18.12-.25.17-.1.07-.19.1-.26.09-.07,0-.11-.03-.13-.07s-.02-.1,0-.16c.02-.06.08-.12.17-.18.08-.06.17-.13.28-.21s.21-.17.32-.26.22-.18.33-.27c.11-.09.21-.17.29-.25-.02-.21-.03-.45-.04-.7s-.02-.49-.02-.73c0-.36.02-.72.05-1.1.04-.38.09-.75.15-1.11.04-.2.11-.45.21-.75.1-.3.23-.6.38-.88.15-.29.32-.53.52-.74.19-.21.4-.31.64-.31.3,0,.55.12.75.36.2.24.29.61.29,1.11,0,.19-.02.4-.05.64-.03.24-.08.49-.14.75-.07.27-.17.54-.31.83-.13.29-.29.58-.46.88s-.37.58-.58.86c-.21.28-.44.53-.68.76,0,.14.04.33.08.58.05.24.11.49.2.72s.19.44.33.62c.14.17.3.26.49.26.13,0,.26-.05.39-.16.13-.1.25-.23.34-.37.14-.2.25-.4.34-.62.09-.21.16-.42.23-.61.03-.09.07-.17.1-.24.04-.07.07-.11.11-.11.05,0,.09.03.13.08.04.05.03.18-.03.37ZM367.39,342.17c0,.14,0,.3.01.48.23-.3.45-.62.65-.97.2-.35.38-.71.53-1.09.15-.38.26-.77.35-1.18.08-.41.13-.81.13-1.22,0-.25-.03-.46-.09-.65-.06-.18-.16-.28-.32-.3-.14,0-.28.1-.4.29-.12.19-.24.43-.34.71-.1.28-.19.58-.26.89s-.13.58-.17.81c-.03.2-.06.44-.07.71-.02.28-.02.64-.02,1.07v.42Z"/>
      <path d="M373.8,335.14c.1.07.23.19.4.37.17.18.36.4.55.67s.39.58.59.94.38.76.55,1.19c.16.43.3.9.41,1.4.11.5.16,1.03.16,1.58,0,.84-.09,1.62-.29,2.32s-.45,1.32-.74,1.86c-.29.53-.58.97-.88,1.32s-.55.58-.74.7c-.06.04-.1.04-.14-.02-.04-.05-.02-.11.04-.18.02-.02.09-.1.2-.23.11-.13.24-.31.4-.54.15-.23.31-.52.49-.85.17-.33.33-.72.47-1.16.14-.43.26-.92.35-1.47.09-.54.13-1.14.13-1.78,0-.7-.07-1.35-.19-1.94-.12-.59-.27-1.13-.46-1.62-.19-.49-.41-.93-.66-1.34-.25-.4-.51-.76-.78-1.07-.05-.06-.05-.11-.02-.16.04-.04.09-.05.15,0Z"/>
      <path d="M264.62,346.63c0,.19-.06.34-.18.45-.12.11-.24.17-.37.17-.26,0-.44-.09-.53-.27-.09-.18-.18-.37-.27-.58-.08-.21-.2-.4-.34-.58s-.4-.27-.76-.27c-.14,0-.3.02-.49.07-.18.05-.36.13-.52.24-.17.11-.3.27-.42.47-.11.2-.17.46-.17.78,0,.27.08.51.25.7.17.2.37.38.61.56.24.18.51.35.8.53.29.18.56.38.8.6.24.22.45.48.61.76.17.28.25.63.25,1.03,0,.3-.07.58-.21.87s-.34.54-.59.77c-.25.23-.53.42-.86.56-.32.14-.67.21-1.04.21-.39,0-.76-.05-1.1-.15s-.64-.23-.9-.39c-.26-.16-.46-.34-.61-.53-.15-.19-.22-.38-.22-.56,0-.24.06-.42.17-.56s.27-.2.47-.2c.18,0,.31.05.39.14.08.09.15.22.2.36.05.15.11.31.16.48.05.17.14.33.26.48.12.15.28.27.5.36.21.09.51.14.89.14.3,0,.54-.05.74-.14.2-.09.36-.22.48-.36s.2-.31.26-.49c.05-.18.08-.35.08-.51,0-.37-.08-.67-.24-.91-.16-.24-.36-.46-.61-.66s-.51-.37-.79-.53c-.28-.16-.54-.34-.79-.53-.25-.19-.45-.42-.61-.68-.16-.26-.24-.58-.24-.96,0-.33.08-.64.23-.92.15-.28.36-.53.61-.73.25-.2.55-.36.88-.48.33-.12.68-.18,1.05-.18.21,0,.45.04.7.11s.49.17.71.29c.22.12.4.28.55.45.15.18.22.37.22.57Z"/>
      <path d="M266.93,340.83c0-.54.05-1.06.16-1.55.11-.49.24-.95.4-1.38.16-.43.34-.81.53-1.17s.39-.66.58-.92c.19-.26.37-.48.54-.66.17-.17.3-.29.39-.36.05-.04.1-.04.14,0,.04.05.03.1-.02.15-.27.31-.52.66-.77,1.05-.24.39-.46.83-.64,1.31-.18.48-.33,1.01-.45,1.59-.11.58-.17,1.22-.18,1.9,0,.63.03,1.22.12,1.75.09.53.21,1.01.35,1.44.14.43.3.8.46,1.13.17.33.33.61.48.83.15.23.28.4.39.53.11.13.18.2.2.23.06.06.08.12.04.18-.04.05-.08.06-.14.02-.19-.12-.43-.35-.72-.69-.29-.34-.58-.77-.86-1.29-.28-.52-.52-1.13-.72-1.82-.2-.69-.3-1.45-.29-2.28Z"/>
      <path d="M276.15,343.14c-.02.1-.06.21-.1.33-.04.13-.09.25-.15.38-.06.13-.12.26-.18.38-.06.13-.12.23-.18.31-.14.18-.31.34-.51.45s-.4.17-.61.17c-.24,0-.44-.06-.61-.17-.17-.11-.32-.26-.43-.44s-.21-.38-.29-.61c-.07-.23-.14-.45-.19-.68-.07.06-.15.12-.25.18s-.19.13-.29.21l-.29.21c-.09.06-.18.12-.25.17-.1.07-.19.1-.25.09-.07,0-.11-.03-.13-.07s-.02-.1,0-.16c.02-.06.08-.12.16-.18.08-.06.17-.13.27-.21s.21-.17.32-.26c.11-.09.22-.18.32-.27.11-.09.2-.17.29-.24-.02-.21-.03-.44-.04-.69s-.02-.48-.02-.71c0-.35.02-.71.05-1.08.04-.37.09-.73.15-1.09.04-.19.11-.44.21-.74s.22-.58.37-.86c.15-.28.32-.52.5-.72.19-.2.4-.3.62-.3.3,0,.54.12.74.35s.29.6.29,1.09c0,.19-.02.4-.05.63-.03.23-.08.48-.14.74-.07.26-.17.53-.3.82-.13.28-.28.57-.45.86-.17.29-.36.57-.57.84-.21.27-.43.52-.66.75,0,.14.03.33.08.57.05.24.11.48.19.71.08.23.19.43.32.6s.29.26.48.26c.12,0,.25-.05.38-.15.13-.1.24-.22.34-.36.13-.19.24-.4.33-.6.09-.21.16-.41.22-.6.03-.09.06-.17.1-.24.03-.07.07-.1.11-.1.05,0,.09.03.12.08.03.05.03.17-.03.36ZM273.43,341.68c0,.14,0,.3.01.47.23-.29.44-.61.64-.95.2-.34.37-.7.52-1.07.15-.37.26-.76.34-1.16.08-.4.12-.8.12-1.19,0-.24-.03-.45-.08-.63-.06-.18-.16-.28-.32-.29-.14,0-.27.1-.39.29-.12.19-.23.42-.33.7-.1.28-.18.57-.25.87-.07.3-.12.57-.16.8-.03.19-.05.43-.07.7-.02.27-.02.62-.02,1.05v.41Z"/>
      <path d="M279.94,334.8c.09.07.22.18.39.36.17.17.35.39.54.66s.39.57.58.92c.2.35.37.74.54,1.17.16.43.29.88.4,1.38.11.49.16,1.01.16,1.55,0,.83-.09,1.59-.29,2.28-.2.69-.44,1.3-.72,1.82-.28.52-.57.95-.86,1.29-.29.34-.53.57-.72.69-.05.04-.1.03-.13-.02-.04-.05-.02-.11.04-.18.02-.02.09-.1.2-.23.11-.13.24-.3.39-.53.15-.23.31-.51.48-.83.17-.33.32-.71.46-1.13.14-.43.26-.9.35-1.44.09-.53.13-1.11.12-1.75,0-.69-.07-1.32-.18-1.9-.11-.58-.27-1.11-.45-1.59-.19-.48-.4-.91-.65-1.31s-.5-.74-.76-1.05c-.05-.06-.05-.11-.02-.15.04-.04.08-.05.15,0Z"/>
      <line class="cls-2" x1="232.09" y1="361.35" x2="244.48" y2="361.35"/>
      <line class="cls-2" x1="238.71" y1="355.41" x2="238.71" y2="367.61"/>
    </g>
    <g id="_레이어_3" data-name="레이어_3">
      <g>
        <line class="cls-1" x1="112.6" y1="362.88" x2="216.73" y2="362.88"/>
        <polygon points="213.92 366.58 215.49 362.88 213.92 359.17 222.7 362.88 213.92 366.58"/>
      </g>
      <g>
        <line class="cls-1" x1="150.11" y1="429.3" x2="219.16" y2="369.62"/>
        <polygon points="219.45 374.26 218.22 370.43 214.61 368.66 223.67 365.72 219.45 374.26"/>
      </g>
      <g>
        <line class="cls-1" x1="150.11" y1="311.52" x2="217.71" y2="355.98"/>
        <polygon points="213.33 357.53 216.68 355.3 217.4 351.34 222.7 359.26 213.33 357.53"/>
      </g>
      <g>
        <line class="cls-1" x1="150.11" y1="260.46" x2="217.54" y2="350.18"/>
        <polygon points="212.9 350.16 216.8 349.2 218.82 345.71 221.13 354.96 212.9 350.16"/>
      </g>
      <g>
        <line class="cls-1" x1="252.04" y1="362.4" x2="282.9" y2="362.4"/>
        <polygon points="280.09 366.1 281.66 362.4 280.09 358.69 288.87 362.4 280.09 366.1"/>
      </g>
      <g>
        <line class="cls-1" x1="343.02" y1="362.4" x2="369.24" y2="362.4"/>
        <polygon points="366.43 366.1 368 362.4 366.43 358.69 375.21 362.4 366.43 366.1"/>
      </g>
      <g>
        <line class="cls-1" x1="381.76" y1="358.28" x2="427.28" y2="279.9"/>
        <polygon points="429.08 284.19 426.66 280.97 422.67 280.47 430.28 274.74 429.08 284.19"/>
      </g>
      <g>
        <line class="cls-1" x1="383.52" y1="360.63" x2="488.88" y2="290.76"/>
        <polygon points="488.59 295.39 487.85 291.44 484.5 289.22 493.86 287.46 488.59 295.39"/>
      </g>
      <g>
        <line class="cls-1" x1="384.5" y1="362.4" x2="433.7" y2="362.4"/>
        <polygon points="430.9 366.1 432.47 362.4 430.9 358.69 439.67 362.4 430.9 366.1"/>
      </g>
      <g>
        <line class="cls-1" x1="383.52" y1="365.13" x2="436.67" y2="396.16"/>
        <polygon points="432.38 397.95 435.6 395.54 436.11 391.55 441.83 399.17 432.38 397.95"/>
      </g>
      <rect class="cls-3" x="226.48" y="349.48" width="25.57" height="25.57"/>
      <circle class="cls-4" cx="379.69" cy="362.4" r="4.22"/>
    </g>
    <g id="_레이어_2" data-name="레이어_2">
      <circle class="cls-5" cx="86.03" cy="362.88" r="26.58"/>
      <circle class="cls-5" cx="315.44" cy="362.4" r="26.58"/>
      <circle class="cls-5" cx="520.43" cy="285.91" r="26.58"/>
    </g>
  </g>
</svg>