<?xml version="1.0" encoding="UTF-8"?>
<svg xmlns="http://www.w3.org/2000/svg" version="1.1" viewBox="0 0 600 600">
  <defs>
    <style>
      .cls-1, .cls-2, .cls-3, .cls-4, .cls-5 {
        stroke-miterlimit: 10;
      }

      .cls-1, .cls-3, .cls-5 {
        fill: none;
      }

      .cls-1, .cls-4, .cls-5 {
        stroke: #000;
      }

      .cls-2, .cls-3 {
        stroke: #231815;
      }

      .cls-5 {
        stroke-width: 2px;
      }
    </style>
  </defs>
  <!-- Generator: Adobe Illustrator 28.7.1, SVG Export Plug-In . SVG Version: 1.2.0 Build 142)  -->
  <g>
    <g id="_레이어_1" data-name="레이어_1">
      <path d="M50.34,367.13c0-.64.06-1.24.19-1.82.13-.58.29-1.11.49-1.61.2-.5.41-.96.65-1.37.24-.41.47-.77.71-1.08.23-.31.45-.57.66-.77.2-.2.36-.34.48-.42.07-.05.12-.04.17,0,.05.05.04.11-.03.18-.32.36-.63.77-.93,1.23s-.55.97-.78,1.53c-.22.56-.41,1.18-.54,1.86-.14.68-.21,1.42-.22,2.23,0,.74.04,1.42.15,2.05.11.62.25,1.18.42,1.68.17.5.36.94.56,1.33.2.39.4.71.58.98.18.27.34.47.47.62s.21.24.24.26c.08.08.09.14.05.21-.04.06-.1.07-.16.02-.23-.14-.52-.41-.88-.81-.36-.39-.71-.9-1.05-1.51-.34-.61-.64-1.32-.88-2.13s-.36-1.7-.35-2.67Z"/>
      <path d="M60.35,370.21c-.03.11-.07.25-.12.39-.05.15-.11.3-.19.45s-.14.3-.22.45-.15.27-.21.36c-.17.22-.38.39-.61.53-.24.13-.49.2-.74.2-.29,0-.53-.07-.74-.2-.21-.13-.39-.3-.53-.51-.14-.21-.26-.45-.35-.71-.09-.27-.17-.53-.24-.8-.09.07-.19.14-.3.21-.11.08-.23.16-.36.24l-.36.24c-.11.08-.21.14-.3.2-.12.08-.23.11-.31.11-.08,0-.13-.03-.16-.09-.02-.05-.02-.11,0-.19.03-.07.1-.14.2-.21.09-.07.2-.15.33-.24.12-.1.25-.19.38-.3.13-.1.26-.21.39-.31.13-.1.24-.2.35-.29-.02-.25-.04-.52-.05-.81s-.02-.57-.02-.83c0-.41.02-.83.06-1.26.04-.43.1-.86.18-1.28.05-.23.13-.52.25-.86.12-.35.27-.68.45-1.01s.39-.61.61-.85c.23-.24.48-.36.76-.36.36,0,.66.14.89.41.23.27.35.7.35,1.28,0,.22-.02.46-.06.74-.04.27-.09.56-.17.86-.09.3-.21.62-.36.96-.16.33-.34.67-.55,1.01-.21.34-.44.67-.69.99s-.52.61-.81.88c0,.16.04.38.1.66s.14.56.24.83c.1.27.23.51.39.71.16.2.36.3.58.3.15,0,.31-.06.46-.18s.29-.26.41-.42c.16-.23.29-.46.4-.71.1-.24.2-.48.27-.71.04-.1.08-.2.12-.28.04-.08.09-.12.14-.12.06,0,.11.03.15.09.04.06.03.2-.03.42ZM57.05,368.49c0,.16,0,.35.01.56.28-.34.54-.71.78-1.11.24-.4.45-.82.63-1.26.18-.44.31-.89.41-1.35.1-.47.15-.93.15-1.4,0-.29-.03-.53-.1-.74-.07-.21-.2-.32-.39-.34-.17,0-.33.11-.48.33-.15.22-.28.5-.4.82-.12.32-.22.66-.31,1.02-.09.36-.15.67-.2.93-.04.23-.07.5-.09.82-.02.32-.03.73-.03,1.23v.48Z"/>
      <path d="M73.36,367.43h-9.43v-.56h9.43v.56Z"/>
      <path d="M83.76,372.39h-5.34v-.37c.55,0,.97-.03,1.25-.09s.48-.14.61-.24.19-.2.2-.31c0-.11.01-.21.01-.29v-6.67c0-.12-.02-.23-.06-.31-.04-.08-.14-.14-.28-.19-.14-.05-.35-.08-.63-.09-.28-.01-.65-.02-1.11-.02v-.3c.4-.05.79-.12,1.17-.22s.72-.2,1.03-.31c.35-.12.69-.26,1-.41v8.56c0,.08,0,.17.03.27.02.1.09.2.23.3s.35.18.64.24c.29.07.71.1,1.26.1v.36Z"/>
      <path d="M86.9,360.06c.11.08.27.22.48.42.2.2.42.46.66.77.23.31.47.67.71,1.08.24.41.45.87.65,1.37.2.5.36,1.04.49,1.61.13.58.19,1.18.19,1.82,0,.97-.11,1.86-.35,2.67s-.54,1.52-.88,2.13c-.34.61-.69,1.12-1.05,1.51-.36.39-.65.66-.88.81-.07.05-.12.04-.16-.02-.04-.06-.03-.13.05-.21.03-.03.11-.12.24-.26s.29-.35.47-.62c.18-.27.37-.59.58-.98.2-.39.39-.83.56-1.33s.31-1.06.42-1.68c.11-.62.16-1.3.15-2.05,0-.81-.08-1.55-.22-2.23-.14-.68-.32-1.3-.55-1.86-.23-.56-.49-1.07-.78-1.53s-.6-.87-.93-1.23c-.06-.07-.06-.13-.02-.18.04-.05.1-.05.18,0Z"/>
      <path d="M261.81,369.54c-.03.11-.07.25-.12.39-.05.15-.11.3-.19.45s-.14.3-.22.45-.15.27-.21.36c-.17.22-.38.39-.61.53-.24.13-.49.2-.74.2-.29,0-.53-.07-.74-.2-.21-.13-.39-.3-.53-.51-.14-.21-.26-.45-.35-.71-.09-.27-.17-.53-.24-.8-.09.07-.19.14-.3.21-.11.08-.23.16-.36.24l-.36.24c-.11.08-.21.14-.3.2-.12.08-.23.11-.31.11-.08,0-.13-.03-.16-.09-.02-.05-.02-.11,0-.19.03-.07.1-.14.2-.21.09-.07.2-.15.33-.24.12-.1.25-.19.38-.3.13-.1.26-.21.39-.31.13-.1.24-.2.35-.29-.02-.25-.04-.52-.05-.81s-.02-.57-.02-.83c0-.41.02-.83.06-1.26.04-.43.1-.86.18-1.28.05-.23.13-.52.25-.86.12-.35.27-.68.45-1.01s.39-.61.61-.85c.23-.24.48-.36.76-.36.36,0,.66.14.89.41.23.27.35.7.35,1.28,0,.22-.02.46-.06.74-.04.27-.09.56-.17.86-.09.3-.21.62-.36.96-.16.33-.34.67-.55,1.01-.21.34-.44.67-.69.99s-.52.61-.81.88c0,.16.04.38.1.66s.14.56.24.83c.1.27.23.51.39.71.16.2.36.3.58.3.15,0,.31-.06.46-.18s.29-.26.41-.42c.16-.23.29-.46.4-.71.1-.24.2-.48.27-.71.04-.1.08-.2.12-.28.04-.08.09-.12.14-.12.06,0,.11.03.15.09.04.06.03.2-.03.42ZM258.51,367.83c0,.16,0,.35.01.56.28-.34.54-.71.78-1.11.24-.4.45-.82.63-1.26.18-.44.31-.89.41-1.35.1-.47.15-.93.15-1.4,0-.29-.03-.53-.1-.74-.07-.21-.2-.32-.39-.34-.17,0-.33.11-.48.33-.15.22-.28.5-.4.82-.12.32-.22.66-.31,1.02-.09.36-.15.67-.2.93-.04.23-.07.5-.09.82-.02.32-.03.73-.03,1.23v.48Z"/>
      <g>
        <path d="M13.96,371.92v-.36l1.49-.14h.52l1.52.14v.36h-3.53ZM15.07,371.92c0-.28.01-.59.02-.93s0-.68.01-1.04c0-.35,0-.68,0-.99v-6.63l-1.09-.06v-.35l2.2-.41.19.12-.04,2.01v5.33c0,.31,0,.64,0,.99,0,.35,0,.7.01,1.04,0,.34.01.65.02.93h-1.34Z"/>
        <path d="M20.26,372.12c-.52,0-.94-.15-1.29-.44-.34-.29-.52-.71-.52-1.25,0-.34.08-.65.23-.91.15-.27.4-.5.75-.71.35-.21.82-.4,1.42-.57.35-.1.73-.21,1.13-.31.4-.1.78-.2,1.12-.28v.32c-.34.09-.69.18-1.04.28-.35.1-.66.2-.93.3-.52.2-.9.44-1.13.71s-.34.61-.34,1,.1.69.32.89.49.3.83.3c.18,0,.36-.03.54-.1.18-.07.39-.19.62-.38.23-.18.51-.44.82-.77l.13.63h-.35c-.26.28-.5.52-.73.71s-.47.34-.72.44-.54.15-.86.15ZM23.74,372.1c-.4,0-.69-.13-.9-.39s-.32-.61-.35-1.06v-3.44c0-.48-.05-.85-.15-1.11s-.26-.44-.47-.54c-.21-.1-.48-.15-.82-.15-.24,0-.48.03-.73.1s-.51.17-.8.33l.63-.35-.19,1.02c-.03.27-.1.46-.23.57-.12.11-.27.17-.44.17-.34,0-.55-.17-.63-.5.11-.54.41-.97.88-1.27.48-.31,1.11-.46,1.89-.46s1.36.18,1.73.55c.37.37.55.97.55,1.79v3.23c0,.37.04.62.13.76.09.14.22.21.38.21.1,0,.2-.03.28-.08.09-.05.18-.14.3-.27l.21.18c-.14.25-.31.43-.52.55-.21.12-.46.17-.74.17Z"/>
        <path d="M26.03,375.41c-.3,0-.57-.07-.82-.2s-.38-.32-.41-.56c.03-.2.13-.34.29-.44.16-.09.34-.14.53-.14s.36.05.52.14c.16.09.31.22.46.39l.37.39-.42.23-.24-.22c.42-.14.79-.41,1.11-.81.32-.4.6-.93.85-1.57l.37-.93.08-.21,1.13-3.16,1.07-3.13h.52l-2.73,7.3c-.26.7-.53,1.26-.81,1.69-.28.43-.58.74-.88.93-.3.19-.63.29-.98.29ZM24.82,365.56v-.36h3.33v.36l-1.35.14h-.7l-1.29-.14ZM28.48,372.66l-3.03-7.46h1.38l2.14,5.82.08.15-.57,1.48ZM29.52,365.56v-.36h2.61v.36l-1.06.13h-.19l-1.36-.13Z"/>
        <path d="M35.84,372.12c-.65,0-1.23-.13-1.74-.4-.51-.27-.9-.66-1.19-1.19-.29-.53-.43-1.18-.43-1.95s.15-1.37.45-1.91c.3-.53.7-.94,1.2-1.23.5-.29,1.03-.43,1.61-.43s1.08.12,1.49.36c.41.24.72.57.93.97.21.41.32.87.32,1.4,0,.31-.03.57-.08.77h-5.34v-.41h3.61c.24,0,.4-.06.49-.19.09-.13.13-.33.13-.62,0-.56-.14-1.01-.41-1.35-.27-.34-.66-.51-1.16-.51-.35,0-.67.11-.96.34s-.52.56-.69,1c-.17.44-.26.99-.26,1.63,0,.7.1,1.27.32,1.72.21.45.5.78.86.98.36.21.78.31,1.25.31s.85-.08,1.18-.25.62-.39.87-.7l.22.17c-.27.46-.63.82-1.08,1.08-.44.26-.96.39-1.56.39Z"/>
        <path d="M40.55,371.92c0-.21.02-.5.02-.85,0-.35,0-.72.01-1.11,0-.39,0-.72,0-1v-.84c0-.45,0-.83,0-1.16,0-.33-.02-.64-.03-.95l-1.09-.08v-.32l2.14-.57.17.1.08,1.82h0v2c0,.28,0,.62,0,1,0,.39,0,.75.01,1.11,0,.35.01.63.02.85h-1.33ZM39.54,371.92v-.36l1.4-.15h.71l1.44.15v.36h-3.55ZM41.84,367.82l-.32-.71h.26c.14-.43.32-.8.55-1.11s.48-.56.77-.73c.29-.17.58-.26.88-.26.26,0,.48.05.68.16.19.11.32.28.38.51,0,.23-.06.42-.17.57-.12.15-.3.22-.55.22-.17,0-.33-.05-.46-.14-.14-.09-.28-.23-.44-.4l-.3-.3.55.03c-.42.15-.78.39-1.08.73-.3.34-.55.82-.75,1.44Z"/>
      </g>
      <g>
        <path d="M219.98,371.92v-.36l1.49-.14h.52l1.52.14v.36h-3.53ZM221.09,371.92c0-.28.01-.59.02-.93s0-.68.01-1.04c0-.35,0-.68,0-.99v-6.63l-1.09-.06v-.35l2.2-.41.19.12-.04,2.01v5.33c0,.31,0,.64,0,.99,0,.35,0,.7.01,1.04,0,.34.01.65.02.93h-1.34Z"/>
        <path d="M226.28,372.12c-.52,0-.94-.15-1.29-.44-.34-.29-.52-.71-.52-1.25,0-.34.08-.65.23-.91.15-.27.4-.5.75-.71.35-.21.82-.4,1.42-.57.35-.1.73-.21,1.13-.31.4-.1.78-.2,1.12-.28v.32c-.34.09-.69.18-1.04.28-.35.1-.66.2-.93.3-.52.2-.9.44-1.13.71s-.34.61-.34,1,.1.69.32.89.49.3.83.3c.18,0,.36-.03.54-.1.18-.07.39-.19.62-.38.23-.18.51-.44.82-.77l.13.63h-.35c-.26.28-.5.52-.73.71s-.47.34-.72.44-.54.15-.86.15ZM229.76,372.1c-.4,0-.69-.13-.9-.39s-.32-.61-.35-1.06v-3.44c0-.48-.05-.85-.15-1.11s-.26-.44-.47-.54c-.21-.1-.48-.15-.82-.15-.24,0-.48.03-.73.1s-.51.17-.8.33l.63-.35-.19,1.02c-.03.27-.1.46-.23.57-.12.11-.27.17-.44.17-.34,0-.55-.17-.63-.5.11-.54.41-.97.88-1.27.48-.31,1.11-.46,1.89-.46s1.36.18,1.73.55c.37.37.55.97.55,1.79v3.23c0,.37.04.62.13.76.09.14.22.21.38.21.1,0,.2-.03.28-.08.09-.05.18-.14.3-.27l.21.18c-.14.25-.31.43-.52.55-.21.12-.46.17-.74.17Z"/>
        <path d="M232.05,375.41c-.3,0-.57-.07-.82-.2s-.38-.32-.41-.56c.03-.2.13-.34.29-.44.16-.09.34-.14.53-.14s.36.05.52.14c.16.09.31.22.46.39l.37.39-.42.23-.24-.22c.42-.14.79-.41,1.11-.81.32-.4.6-.93.85-1.57l.37-.93.08-.21,1.13-3.16,1.07-3.13h.52l-2.73,7.3c-.26.7-.53,1.26-.81,1.69-.28.43-.58.74-.88.93-.3.19-.63.29-.98.29ZM230.84,365.56v-.36h3.33v.36l-1.35.14h-.7l-1.29-.14ZM234.5,372.66l-3.03-7.46h1.38l2.14,5.82.08.15-.57,1.48ZM235.54,365.56v-.36h2.61v.36l-1.06.13h-.19l-1.36-.13Z"/>
        <path d="M241.86,372.12c-.65,0-1.23-.13-1.74-.4-.51-.27-.9-.66-1.19-1.19-.29-.53-.43-1.18-.43-1.95s.15-1.37.45-1.91c.3-.53.7-.94,1.2-1.23.5-.29,1.03-.43,1.61-.43s1.08.12,1.49.36c.41.24.72.57.93.97.21.41.32.87.32,1.4,0,.31-.03.57-.08.77h-5.34v-.41h3.61c.24,0,.4-.06.49-.19.09-.13.13-.33.13-.62,0-.56-.14-1.01-.41-1.35-.27-.34-.66-.51-1.16-.51-.35,0-.67.11-.96.34s-.52.56-.69,1c-.17.44-.26.99-.26,1.63,0,.7.1,1.27.32,1.72.21.45.5.78.86.98.36.21.78.31,1.25.31s.85-.08,1.18-.25.62-.39.87-.7l.22.17c-.27.46-.63.82-1.08,1.08-.44.26-.96.39-1.56.39Z"/>
        <path d="M246.57,371.92c0-.21.02-.5.02-.85,0-.35,0-.72.01-1.11,0-.39,0-.72,0-1v-.84c0-.45,0-.83,0-1.16,0-.33-.02-.64-.03-.95l-1.09-.08v-.32l2.14-.57.17.1.08,1.82h0v2c0,.28,0,.62,0,1,0,.39,0,.75.01,1.11,0,.35.01.63.02.85h-1.33ZM245.56,371.92v-.36l1.4-.15h.71l1.44.15v.36h-3.55ZM247.86,367.81l-.32-.71h.26c.14-.43.32-.8.55-1.11s.48-.56.77-.73c.29-.17.58-.26.88-.26.26,0,.48.05.68.16.19.11.32.28.38.51,0,.23-.06.42-.17.57-.12.15-.3.22-.55.22-.17,0-.33-.05-.46-.14-.14-.09-.28-.23-.44-.4l-.3-.3.55.03c-.42.15-.78.39-1.08.73-.3.34-.55.82-.75,1.44Z"/>
      </g>
      <g>
        <path d="M367.65,371.92v-.36l1.49-.14h.51l1.52.14v.36h-3.53ZM368.75,371.92c0-.28.02-.59.02-.93s0-.68.01-1.04c0-.35,0-.68,0-.99v-6.63l-1.09-.06v-.35l2.2-.41.19.12-.04,2.01v5.33c0,.31,0,.64,0,.99,0,.35,0,.7.01,1.04,0,.34.01.65.02.93h-1.34Z"/>
        <path d="M373.94,372.12c-.51,0-.94-.15-1.29-.44-.34-.29-.52-.71-.52-1.25,0-.34.08-.65.23-.91.15-.27.4-.5.75-.71.35-.21.82-.4,1.42-.57.35-.1.73-.21,1.13-.31.4-.1.78-.2,1.12-.28v.32c-.34.09-.69.18-1.04.28s-.66.2-.93.3c-.52.2-.9.44-1.13.71s-.34.61-.34,1,.1.69.32.89c.21.2.49.3.83.3.18,0,.36-.03.54-.1.18-.07.39-.19.62-.38.23-.18.51-.44.82-.77l.13.63h-.35c-.26.28-.5.52-.73.71s-.47.34-.72.44c-.25.1-.54.15-.86.15ZM377.42,372.1c-.39,0-.69-.13-.89-.39-.2-.26-.32-.61-.35-1.06v-3.44c0-.48-.05-.85-.15-1.11-.1-.26-.26-.44-.47-.54-.21-.1-.48-.15-.82-.15-.24,0-.48.03-.73.1-.24.06-.51.17-.8.33l.63-.35-.19,1.02c-.03.27-.1.46-.23.57-.12.11-.27.17-.44.17-.34,0-.55-.17-.63-.5.11-.54.41-.97.88-1.27.48-.31,1.11-.46,1.89-.46s1.36.18,1.73.55.55.97.55,1.79v3.23c0,.37.04.62.13.76.09.14.22.21.38.21.1,0,.2-.03.28-.08.09-.05.18-.14.3-.27l.21.18c-.14.25-.31.43-.52.55-.21.12-.46.17-.74.17Z"/>
        <path d="M379.71,375.41c-.3,0-.57-.07-.82-.2-.25-.13-.38-.32-.41-.56.04-.2.13-.34.29-.44s.34-.14.53-.14.36.05.52.14.31.22.46.39l.37.39-.42.23-.25-.22c.42-.14.79-.41,1.11-.81.32-.4.6-.93.85-1.57l.37-.93.08-.21,1.13-3.16,1.07-3.13h.51l-2.73,7.3c-.26.7-.53,1.26-.81,1.69-.28.43-.58.74-.88.93-.3.19-.63.29-.99.29ZM378.5,365.56v-.36h3.33v.36l-1.35.14h-.7l-1.29-.14ZM382.16,372.66l-3.03-7.46h1.38l2.14,5.82.08.15-.57,1.48ZM383.2,365.56v-.36h2.61v.36l-1.06.13h-.19l-1.37-.13Z"/>
        <path d="M389.52,372.12c-.65,0-1.23-.13-1.74-.4s-.9-.66-1.19-1.19c-.29-.53-.43-1.18-.43-1.95s.15-1.37.45-1.91.7-.94,1.2-1.23,1.04-.43,1.61-.43,1.08.12,1.49.36c.41.24.72.57.93.97.21.41.32.87.32,1.4,0,.31-.03.57-.08.77h-5.34v-.41h3.61c.24,0,.4-.06.49-.19s.13-.33.13-.62c0-.56-.14-1.01-.41-1.35-.28-.34-.66-.51-1.16-.51-.35,0-.67.11-.96.34-.29.23-.52.56-.69,1-.17.44-.26.99-.26,1.63,0,.7.1,1.27.32,1.72.21.45.5.78.86.98.36.21.78.31,1.25.31s.85-.08,1.18-.25c.33-.16.62-.39.87-.7l.22.17c-.27.46-.63.82-1.08,1.08s-.96.39-1.56.39Z"/>
        <path d="M394.24,371.92c0-.21.01-.5.02-.85,0-.35,0-.72.01-1.11,0-.39,0-.72,0-1v-.84c0-.45,0-.83,0-1.16,0-.33-.01-.64-.03-.95l-1.09-.08v-.32l2.14-.57.17.1.08,1.82h0v2c0,.28,0,.62,0,1,0,.39,0,.75.01,1.11,0,.35.01.63.02.85h-1.33ZM393.22,371.92v-.36l1.4-.15h.71l1.44.15v.36h-3.55ZM395.53,367.82l-.32-.71h.26c.14-.43.32-.8.55-1.11s.49-.56.77-.73c.29-.17.58-.26.88-.26.26,0,.48.05.68.16s.32.28.38.51c0,.23-.06.42-.17.57-.12.15-.3.22-.55.22-.17,0-.33-.05-.46-.14-.14-.09-.28-.23-.44-.4l-.3-.3.55.03c-.42.15-.78.39-1.08.73-.3.34-.55.82-.75,1.44Z"/>
      </g>
      <path d="M244.18,316.45c-.37,1.28-.77,2.34-1.21,3.18-.44.84-.9,1.49-1.38,1.96-.48.47-.95.78-1.42.92-.47.14-.91.15-1.32.04-.55-.17-.94-.48-1.14-.94-.21-.46-.31-.99-.3-1.6.01-.61.1-1.25.27-1.93.17-.68.35-1.32.56-1.93.15-.43.32-.86.53-1.3.21-.44.44-.86.69-1.26.25-.4.52-.77.82-1.11.29-.33.6-.61.92-.83.32-.22.65-.37.99-.45s.69-.06,1.04.06c.33.11.6.34.8.69.2.34.34.76.42,1.24.08.48.09,1.01.05,1.57-.05.57-.15,1.13-.31,1.68ZM239.31,316.75c-.1.27-.19.51-.26.73-.07.21-.14.45-.23.72s-.16.53-.22.79c-.08.3-.14.62-.18.95-.04.33-.04.65,0,.95.03.3.1.55.22.77.11.21.29.35.52.4.32.08.63.04.93-.12s.57-.39.82-.69c.25-.3.47-.63.67-1.01.19-.38.35-.74.48-1.08.1-.26.21-.54.31-.82.1-.29.2-.55.29-.78.09-.23.16-.43.21-.58.05-.15.07-.23.06-.23h-3.62ZM243.46,313.98c.04-.42.05-.76.03-1.02-.02-.26-.06-.47-.13-.62-.06-.15-.14-.26-.24-.32-.1-.06-.21-.1-.32-.13-.27-.05-.51-.02-.73.09-.21.11-.41.26-.6.46-.18.2-.36.42-.52.67s-.32.49-.48.72c-.13.19-.25.42-.38.69-.13.27-.25.53-.35.78s-.21.55-.34.91h3.62c.08-.32.15-.6.2-.83.05-.23.09-.48.13-.74.04-.26.07-.49.09-.67Z"/>
      <path d="M408.55,255.15c-.37,1.28-.77,2.34-1.21,3.18-.44.84-.9,1.49-1.38,1.96-.48.47-.95.78-1.42.92-.47.14-.91.15-1.32.04-.55-.17-.94-.48-1.14-.94-.21-.46-.31-.99-.3-1.6.01-.61.1-1.25.27-1.93.17-.68.35-1.32.56-1.93.15-.43.32-.86.53-1.3.21-.44.44-.86.69-1.26.25-.4.52-.77.82-1.11.29-.33.6-.61.92-.83.32-.22.65-.37.99-.45s.69-.06,1.04.06c.33.11.6.34.8.69.2.34.34.76.42,1.24.08.48.09,1.01.05,1.57-.05.57-.15,1.13-.31,1.68ZM403.67,255.45c-.1.27-.19.51-.26.73-.07.21-.14.45-.23.72s-.16.53-.22.79c-.08.3-.14.62-.18.95-.04.33-.04.65,0,.95.03.3.1.55.22.77.11.21.29.35.52.4.32.08.63.04.93-.12s.57-.39.82-.69c.25-.3.47-.63.67-1.01.19-.38.35-.74.48-1.08.1-.26.21-.54.31-.82.1-.29.2-.55.29-.78.09-.23.16-.43.21-.58.05-.15.07-.23.06-.23h-3.62ZM407.83,252.67c.04-.42.05-.76.03-1.02-.02-.26-.06-.47-.13-.62-.06-.15-.14-.26-.24-.32-.1-.06-.21-.1-.32-.13-.27-.05-.51-.02-.73.09-.21.11-.41.26-.6.46-.18.2-.36.42-.52.67s-.32.49-.48.72c-.13.19-.25.42-.38.69-.13.27-.25.53-.35.78s-.21.55-.34.91h3.62c.08-.32.15-.6.2-.83.05-.23.09-.48.13-.74.04-.26.07-.49.09-.67Z"/>
      <path d="M90.59,270.91c-.22,0-.44.03-.66.1-.22.06-.41.14-.59.24-.18.1-.34.2-.48.32-.14.12-.24.23-.31.33l-5.85,8.81h-.38l.15-7.53-5,7.5h-.35l.19-8.97c0-.13,0-.24-.03-.34-.03-.1-.08-.18-.17-.25-.09-.07-.22-.12-.38-.16-.17-.04-.4-.06-.69-.06l.15-.44h4.25l-.15.44c-.4,0-.71.03-.93.1-.22.07-.38.15-.49.25-.1.1-.17.19-.2.29-.03.1-.04.17-.04.23l-.22,6.64,4.06-6.03c.03-.27.04-.5.02-.69-.02-.19-.08-.34-.17-.46-.09-.12-.23-.2-.4-.25-.17-.05-.4-.08-.69-.08l.15-.44h4.22l-.15.44c-.4,0-.71.04-.94.12-.23.08-.39.17-.5.28-.11.1-.18.2-.2.31s-.05.17-.05.21l-.18,6.65,4.18-6.13c.11-.16.19-.33.22-.5.03-.17.02-.33-.03-.47-.06-.14-.16-.25-.32-.34-.16-.09-.38-.13-.66-.13l.15-.44h3.61l-.15.44Z"/>
      <path d="M91.44,270.26c0-.45.04-.87.13-1.27.09-.4.2-.78.33-1.13.13-.35.28-.67.44-.96.16-.29.32-.54.48-.76s.31-.4.44-.54c.14-.14.25-.24.32-.29.05-.03.08-.03.12,0,.03.04.03.08-.02.13-.22.25-.43.54-.63.86-.2.32-.38.68-.53,1.08-.15.39-.27.83-.37,1.3-.09.48-.14,1-.15,1.56,0,.52.03,1,.1,1.43.07.44.17.83.28,1.18.12.35.24.66.38.93.14.27.27.5.39.69.12.19.23.33.32.43.09.1.14.17.16.19.05.05.06.1.03.14-.03.04-.07.05-.11.02-.15-.1-.35-.29-.59-.56-.24-.28-.48-.63-.71-1.06s-.43-.93-.59-1.49c-.16-.57-.24-1.19-.24-1.87Z"/>
      <path d="M99.02,272.15c-.02.08-.05.17-.08.27-.04.1-.08.21-.13.31-.05.11-.1.21-.15.32-.05.1-.1.19-.14.25-.12.15-.25.27-.42.37s-.33.14-.5.14c-.19,0-.36-.05-.5-.14s-.26-.21-.36-.36c-.1-.15-.18-.31-.24-.5-.06-.19-.11-.37-.16-.56-.06.05-.13.1-.2.15-.08.05-.16.11-.24.17l-.24.17c-.08.05-.14.1-.2.14-.08.05-.15.08-.21.08-.06,0-.09-.02-.11-.06s-.01-.08,0-.13c.02-.05.06-.1.14-.14.06-.05.14-.1.22-.17s.17-.14.26-.21c.09-.07.18-.15.27-.22.09-.07.17-.14.24-.2-.01-.17-.02-.36-.03-.56,0-.2-.01-.4-.01-.58,0-.29.01-.58.04-.89s.07-.6.12-.89c.03-.16.09-.36.17-.6.08-.24.18-.48.3-.71.12-.23.26-.43.42-.6.15-.17.33-.25.51-.25.24,0,.45.1.6.29.16.19.24.49.24.9,0,.15-.01.33-.04.52-.03.19-.06.39-.12.61-.06.21-.14.44-.25.67-.11.23-.23.47-.37.71s-.3.47-.47.69-.35.43-.55.62c0,.11.03.27.07.47.04.2.09.39.16.58s.16.36.27.5c.11.14.24.21.4.21.1,0,.21-.04.31-.13.11-.08.2-.18.28-.29.11-.16.2-.33.27-.5.07-.17.13-.33.18-.49.03-.07.05-.14.08-.19.03-.06.06-.09.09-.09.04,0,.07.02.1.07.03.04.02.14-.02.29ZM96.79,270.95c0,.11,0,.24,0,.39.19-.24.36-.5.53-.78.16-.28.31-.57.42-.88.12-.31.21-.62.28-.95.07-.33.1-.65.1-.98,0-.2-.02-.37-.07-.52-.05-.15-.13-.23-.26-.24-.12,0-.22.08-.32.23-.1.16-.19.35-.27.58-.08.23-.15.46-.21.71s-.1.47-.14.66c-.03.16-.05.35-.06.58s-.02.51-.02.86v.34Z"/>
      <path d="M101.95,265.3c.08.05.19.15.32.29.14.14.29.32.44.54.16.22.32.47.48.76.16.29.31.61.44.96s.24.73.33,1.13c.09.4.13.83.13,1.27,0,.68-.07,1.3-.24,1.87-.16.57-.36,1.06-.59,1.49-.23.43-.47.78-.71,1.06s-.44.46-.59.56c-.05.03-.08.03-.11-.02-.03-.04-.02-.09.03-.14.02-.02.07-.08.16-.19.09-.1.2-.25.32-.43s.25-.42.39-.69c.14-.27.27-.58.38-.93.12-.35.21-.74.28-1.18.07-.44.11-.91.1-1.43,0-.57-.06-1.09-.15-1.56-.09-.48-.22-.91-.37-1.3s-.33-.75-.53-1.08c-.2-.32-.41-.61-.63-.86-.04-.05-.04-.09-.01-.13.03-.04.07-.04.12,0Z"/>
      <path d="M359.37,289.14c-.22,0-.44.03-.66.1-.22.06-.41.14-.59.24-.18.1-.34.2-.48.32-.14.12-.24.23-.31.33l-5.85,8.81h-.38l.15-7.53-5,7.5h-.35l.19-8.97c0-.13,0-.24-.03-.34-.03-.1-.08-.18-.17-.25-.09-.07-.22-.12-.38-.16-.17-.04-.4-.06-.69-.06l.15-.44h4.25l-.15.44c-.4,0-.71.03-.93.1-.22.07-.38.15-.49.25-.1.1-.17.19-.2.29-.03.1-.04.17-.04.23l-.22,6.64,4.06-6.03c.03-.27.04-.5.02-.69-.02-.19-.08-.34-.17-.46-.09-.12-.23-.2-.4-.25-.17-.05-.4-.08-.69-.08l.15-.44h4.22l-.15.44c-.4,0-.71.04-.94.12-.23.08-.39.17-.5.28-.11.1-.18.2-.2.31s-.05.17-.05.21l-.18,6.65,4.18-6.13c.11-.16.19-.33.22-.5.03-.17.02-.33-.03-.47-.06-.14-.16-.25-.32-.34-.16-.09-.38-.13-.66-.13l.15-.44h3.61l-.15.44Z"/>
      <path d="M360.22,288.49c0-.45.04-.87.13-1.27.09-.4.2-.78.33-1.13.13-.35.28-.67.44-.96.16-.29.32-.54.48-.76s.31-.4.44-.54c.14-.14.25-.24.32-.29.05-.03.08-.03.12,0,.03.04.03.08-.02.13-.22.25-.43.54-.63.86-.2.32-.38.68-.53,1.08-.15.39-.27.83-.37,1.3-.09.48-.14,1-.15,1.56,0,.52.03,1,.1,1.43.07.44.17.83.28,1.18.12.35.24.66.38.93.14.27.27.5.39.69.12.19.23.33.32.43.09.1.14.17.16.19.05.05.06.1.03.14-.03.04-.07.05-.11.02-.15-.1-.35-.29-.59-.56-.24-.28-.48-.63-.71-1.06s-.43-.93-.59-1.49c-.16-.57-.24-1.19-.24-1.87Z"/>
      <path d="M367.79,290.39c-.02.08-.05.17-.08.27-.04.1-.08.21-.13.31-.05.11-.1.21-.15.32-.05.1-.1.19-.14.25-.12.15-.25.27-.42.37s-.33.14-.5.14c-.19,0-.36-.05-.5-.14s-.26-.21-.36-.36c-.1-.15-.18-.31-.24-.5-.06-.19-.11-.37-.16-.56-.06.05-.13.1-.2.15-.08.05-.16.11-.24.17l-.24.17c-.08.05-.14.1-.2.14-.08.05-.15.08-.21.08-.06,0-.09-.02-.11-.06s-.01-.08,0-.13c.02-.05.06-.1.14-.14.06-.05.14-.1.22-.17s.17-.14.26-.21c.09-.07.18-.15.27-.22.09-.07.17-.14.24-.2-.01-.17-.02-.36-.03-.56,0-.2-.01-.4-.01-.58,0-.29.01-.58.04-.89s.07-.6.12-.89c.03-.16.09-.36.17-.6.08-.24.18-.48.3-.71.12-.23.26-.43.42-.6.15-.17.33-.25.51-.25.24,0,.45.1.6.29.16.19.24.49.24.9,0,.15-.01.33-.04.52-.03.19-.06.39-.12.61-.06.21-.14.44-.25.67-.11.23-.23.47-.37.71s-.3.47-.47.69-.35.43-.55.62c0,.11.03.27.07.47.04.2.09.39.16.58s.16.36.27.5c.11.14.24.21.4.21.1,0,.21-.04.31-.13.11-.08.2-.18.28-.29.11-.16.2-.33.27-.5.07-.17.13-.33.18-.49.03-.07.05-.14.08-.19.03-.06.06-.09.09-.09.04,0,.07.02.1.07.03.04.02.14-.02.29ZM365.56,289.19c0,.11,0,.24,0,.39.19-.24.36-.5.53-.78.16-.28.31-.57.42-.88.12-.31.21-.62.28-.95.07-.33.1-.65.1-.98,0-.2-.02-.37-.07-.52-.05-.15-.13-.23-.26-.24-.12,0-.22.08-.32.23-.1.16-.19.35-.27.58-.08.23-.15.46-.21.71s-.1.47-.14.66c-.03.16-.05.35-.06.58s-.02.51-.02.86v.34Z"/>
      <path d="M377.76,288.7h-2.97v3.13h-.42v-3.13h-2.97v-.39h2.97v-3.09h.42v3.09h2.97v.39Z"/>
      <path d="M385.58,291.92h-3.61v-.26c.37,0,.66-.02.85-.07.19-.04.33-.1.41-.16s.13-.14.14-.21c0-.08,0-.15,0-.21v-4.68c0-.09-.01-.16-.04-.21-.03-.06-.09-.1-.19-.13-.1-.03-.24-.06-.42-.06-.19-.01-.44-.02-.75-.02v-.21c.27-.03.53-.08.79-.15.26-.07.49-.14.7-.21.24-.09.46-.18.68-.29v6c0,.05,0,.12.02.19.01.07.06.14.15.21.09.07.23.12.43.17.2.05.48.07.85.07v.25Z"/>
      <path d="M388.33,283.53c.08.05.19.15.32.29.14.14.29.32.44.54.16.22.32.47.48.76.16.29.31.61.44.96s.24.73.33,1.13c.09.4.13.83.13,1.27,0,.68-.07,1.3-.24,1.87-.16.57-.36,1.06-.59,1.49-.23.43-.47.78-.71,1.06s-.44.46-.59.56c-.05.03-.08.03-.11-.02-.03-.04-.02-.09.03-.14.02-.02.07-.08.16-.19.09-.1.2-.25.32-.43s.25-.42.39-.69c.14-.27.27-.58.38-.93.12-.35.21-.74.28-1.18.07-.44.11-.91.1-1.43,0-.57-.06-1.09-.15-1.56-.09-.48-.22-.91-.37-1.3s-.33-.75-.53-1.08c-.2-.32-.41-.61-.63-.86-.04-.05-.04-.09-.01-.13.03-.04.07-.04.12,0Z"/>
      <path d="M405.33,367.13c0-.65.07-1.27.2-1.86.13-.59.3-1.14.5-1.65s.42-.98.66-1.4c.24-.42.48-.79.72-1.11.24-.32.46-.58.67-.79.21-.21.37-.35.49-.43.07-.05.13-.05.17,0,.05.05.04.11-.03.18-.33.37-.65.79-.95,1.26s-.57.99-.79,1.56c-.23.57-.41,1.21-.55,1.9-.14.69-.22,1.45-.23,2.28,0,.76.04,1.45.15,2.09.11.64.25,1.21.43,1.72.17.51.37.96.58,1.35.21.39.41.73.59,1s.34.48.48.63.22.24.25.27c.08.08.1.15.05.21-.04.06-.1.07-.17.02-.23-.15-.53-.42-.9-.82-.36-.4-.72-.92-1.07-1.54-.35-.63-.65-1.35-.9-2.18-.25-.83-.37-1.73-.36-2.72Z"/>
      <path d="M415.54,370.27c-.03.12-.07.25-.12.4-.05.15-.12.3-.19.46-.07.15-.15.31-.23.46-.08.15-.15.27-.22.37-.17.22-.38.4-.63.54s-.5.21-.76.21c-.29,0-.54-.07-.76-.2-.21-.13-.39-.31-.54-.52-.15-.21-.26-.46-.36-.73-.09-.27-.17-.54-.24-.81-.09.07-.19.14-.31.22-.12.08-.24.16-.36.25l-.36.25c-.12.08-.22.15-.31.2-.13.08-.23.11-.31.11-.08,0-.14-.03-.16-.09-.02-.05-.02-.12,0-.19.03-.07.1-.14.2-.21.1-.07.21-.15.34-.25.13-.1.26-.2.39-.31.14-.11.27-.21.4-.32.13-.11.25-.2.36-.29-.02-.25-.04-.53-.05-.82-.01-.3-.02-.58-.02-.85,0-.42.02-.85.07-1.29.04-.44.1-.88.18-1.3.05-.23.13-.53.26-.88.12-.35.27-.7.46-1.03.18-.34.39-.62.63-.87.23-.24.49-.36.77-.36.37,0,.67.14.91.42.24.28.36.71.36,1.3,0,.22-.02.47-.06.75-.04.28-.1.57-.17.88-.09.31-.21.64-.37.98s-.35.68-.56,1.03-.45.68-.71,1.01-.53.62-.82.9c0,.17.04.39.1.68.06.29.14.57.24.85.1.28.24.52.4.72.16.2.36.31.6.31.16,0,.31-.06.47-.18.16-.12.3-.26.41-.43.16-.23.3-.47.41-.72s.2-.49.28-.72c.04-.11.08-.2.12-.28.04-.08.09-.12.14-.12.06,0,.11.03.15.1.04.06.03.21-.04.43ZM412.18,368.52c0,.16,0,.35.01.57.28-.35.55-.73.79-1.14.25-.41.46-.83.64-1.28.18-.45.32-.91.42-1.38.1-.48.15-.95.15-1.43,0-.29-.03-.54-.1-.76-.07-.21-.2-.33-.39-.35-.17,0-.34.12-.49.34-.15.23-.29.51-.41.84-.12.33-.23.68-.31,1.04-.09.36-.16.68-.2.95-.04.23-.07.51-.09.84-.02.33-.03.75-.03,1.26v.5Z"/>
      <path d="M428.81,367.44h-4.49v4.56h-.64v-4.56h-4.47v-.57h4.47v-4.5h.64v4.5h4.49v.57Z"/>
      <path d="M439.45,372.5h-5.45v-.38c.56,0,.99-.03,1.27-.09.29-.06.49-.14.62-.24s.19-.2.2-.31c.01-.11.02-.21.02-.3v-6.81c0-.13-.02-.23-.07-.31s-.14-.15-.28-.2-.36-.08-.64-.1c-.28-.01-.66-.02-1.14-.02v-.31c.41-.05.81-.12,1.19-.23.39-.1.74-.21,1.05-.31.36-.13.7-.27,1.02-.42v8.74c0,.08,0,.17.03.28.02.11.1.21.23.31s.35.18.65.25c.3.07.73.1,1.29.1v.36Z"/>
      <path d="M442.65,359.91c.12.08.28.22.49.43.21.21.43.47.67.79.24.32.48.68.72,1.11s.46.89.66,1.4.36,1.06.5,1.65c.13.59.2,1.21.2,1.86,0,.99-.11,1.9-.36,2.72-.25.83-.55,1.55-.9,2.18-.35.63-.71,1.14-1.07,1.54-.36.4-.66.68-.9.82-.07.05-.12.04-.17-.02-.04-.06-.03-.13.05-.21.03-.03.11-.12.25-.27s.3-.36.48-.63.38-.6.59-1c.21-.39.4-.84.58-1.35s.32-1.08.43-1.72.16-1.33.15-2.09c0-.82-.08-1.58-.23-2.28-.14-.69-.33-1.33-.56-1.9-.23-.57-.5-1.09-.8-1.56-.3-.47-.62-.89-.95-1.26-.06-.07-.07-.13-.02-.18s.1-.06.18,0Z"/>
      <path d="M274.34,310.42h-3.35v-.41h.29c.14,0,.26-.02.37-.05.11-.03.18-.09.22-.17.03-.08-.02-.21-.17-.39l-1.63-1.99-1.56,1.86c-.1.12-.12.22-.08.31s.12.17.23.23c.11.06.24.11.37.15.14.03.25.05.33.05v.41h-3.06v-.41c.32,0,.61-.05.87-.15.26-.1.48-.26.68-.5l1.92-2.31-2.4-2.75c-.17-.18-.33-.31-.49-.38-.16-.07-.38-.11-.66-.12v-.41h3.36v.41c-.25,0-.44.02-.57.06-.13.04-.21.1-.26.15s-.07.12-.06.19c.01.07.03.13.07.19l1.65,1.89,1.68-1.92c.05-.06.07-.12.06-.18,0-.06-.04-.12-.11-.18-.07-.06-.17-.11-.32-.15-.15-.04-.33-.06-.55-.06v-.41h2.9v.41c-.09,0-.19,0-.31,0-.12,0-.24.02-.37.06-.13.03-.27.09-.41.17-.14.08-.27.19-.4.35l-1.89,2.23,2.18,2.68c.17.21.36.38.57.51.2.13.5.19.89.2v.41Z"/>
      <path d="M277.02,300.03c0-.45.04-.87.13-1.27.09-.4.2-.78.33-1.13s.28-.67.44-.96.32-.54.48-.76.31-.4.44-.54c.14-.14.25-.24.32-.29.04-.03.08-.03.12,0,.03.04.03.08-.02.13-.22.25-.43.54-.63.86-.2.32-.38.68-.53,1.08s-.27.83-.37,1.3c-.09.48-.14,1-.15,1.56,0,.52.03,1,.1,1.43.07.44.17.83.29,1.18.12.35.24.66.38.93.14.27.27.5.39.69.12.19.23.33.32.43.09.1.15.17.16.19.05.05.06.1.03.14-.03.04-.07.05-.11.02-.15-.1-.35-.29-.59-.56s-.48-.63-.71-1.06-.43-.93-.59-1.49-.24-1.19-.24-1.87Z"/>
      <path d="M284.59,301.92c-.02.08-.05.17-.08.27-.04.1-.08.21-.13.31-.05.11-.1.21-.15.32-.05.1-.1.19-.14.25-.12.15-.25.27-.42.37s-.33.14-.5.14c-.19,0-.36-.05-.5-.14s-.26-.21-.36-.36c-.1-.15-.18-.31-.24-.5-.06-.19-.12-.37-.16-.56-.06.05-.13.1-.2.15-.08.05-.16.11-.24.17l-.24.17c-.08.05-.15.1-.2.14-.08.05-.15.08-.21.08-.06,0-.09-.02-.11-.06s-.01-.08,0-.13c.02-.05.06-.1.13-.14.06-.05.14-.1.22-.17s.17-.14.26-.21.18-.15.27-.22c.09-.07.17-.14.24-.2-.01-.17-.02-.36-.03-.56s-.01-.4-.01-.58c0-.29.01-.58.04-.89.03-.3.07-.6.12-.89.03-.16.09-.36.17-.6.08-.24.18-.48.3-.71.12-.23.26-.43.42-.6.15-.17.33-.25.51-.25.24,0,.45.1.6.29.16.19.24.49.24.9,0,.15-.01.33-.04.52-.03.19-.06.39-.12.61-.06.21-.14.44-.25.67-.11.23-.23.47-.37.71s-.3.47-.47.69c-.17.22-.35.43-.55.62,0,.11.03.27.07.47.04.2.09.39.16.58s.16.36.27.5c.11.14.24.21.4.21.1,0,.21-.04.31-.13.11-.08.2-.18.28-.29.11-.16.2-.33.27-.5.07-.17.13-.33.18-.49.03-.07.05-.14.08-.19.03-.06.06-.09.09-.09.04,0,.07.02.1.07.03.04.02.14-.02.29ZM282.36,300.72c0,.11,0,.24,0,.39.19-.24.36-.5.53-.78.16-.28.31-.57.42-.88.12-.31.21-.62.28-.95.07-.33.1-.65.1-.98,0-.2-.02-.37-.07-.52-.04-.15-.13-.23-.26-.24-.12,0-.22.08-.32.23-.1.16-.19.35-.27.58-.08.23-.15.46-.21.71s-.1.47-.13.66c-.03.16-.05.35-.06.58-.01.22-.02.51-.02.86v.34Z"/>
      <path d="M287.52,295.07c.08.05.18.15.32.29.14.14.29.32.44.54s.32.47.48.76.31.61.44.96c.13.35.24.73.33,1.13.09.4.13.83.13,1.27,0,.68-.07,1.3-.24,1.87s-.36,1.06-.59,1.49c-.23.43-.47.78-.71,1.06s-.44.46-.59.56c-.05.03-.08.03-.11-.02-.03-.04-.02-.09.03-.14.02-.02.07-.08.16-.19.09-.1.2-.25.32-.43.12-.19.25-.42.39-.69.14-.27.27-.58.38-.93.12-.35.21-.74.29-1.18.07-.44.11-.91.1-1.43,0-.57-.06-1.09-.15-1.56-.09-.48-.22-.91-.37-1.3-.15-.39-.33-.75-.53-1.08-.2-.32-.41-.61-.63-.86-.04-.05-.04-.09-.01-.13.03-.04.07-.04.12,0Z"/>
      <path d="M199.66,304.32c0,.15-.05.27-.14.36-.1.09-.2.14-.3.14-.21,0-.35-.07-.43-.21-.08-.14-.15-.3-.21-.46-.07-.17-.16-.32-.27-.46s-.32-.21-.61-.21c-.11,0-.25.02-.39.06-.15.04-.29.1-.42.19-.13.09-.25.22-.34.38-.09.16-.14.37-.14.63,0,.22.07.41.2.56.13.16.3.31.49.45.19.14.41.29.64.43.23.14.45.3.64.48.19.18.36.39.49.61.13.23.2.5.2.83,0,.24-.06.47-.17.7s-.27.43-.47.62c-.2.19-.43.33-.69.45-.26.11-.54.17-.83.17-.31,0-.61-.04-.88-.12s-.52-.19-.73-.31c-.21-.13-.37-.27-.49-.43-.12-.16-.18-.31-.18-.45,0-.19.04-.34.14-.45s.22-.16.38-.16c.14,0,.25.04.31.11.07.08.12.17.16.29.04.12.09.25.13.38.04.14.11.27.21.39.09.12.23.22.4.29.17.08.41.11.71.11.24,0,.44-.04.6-.11.16-.08.29-.17.39-.29s.16-.25.21-.39c.04-.14.06-.28.06-.41,0-.29-.06-.54-.19-.73-.13-.19-.29-.37-.49-.53s-.41-.3-.64-.43c-.22-.13-.44-.27-.64-.43-.2-.16-.36-.34-.49-.55-.13-.21-.19-.47-.19-.77,0-.27.06-.51.19-.74.12-.23.29-.42.49-.58.2-.16.44-.29.71-.39.27-.09.55-.14.84-.14.17,0,.36.03.56.09s.39.14.57.24c.18.1.32.22.44.36.12.14.18.29.18.46Z"/>
      <path d="M201.52,299.65c0-.44.04-.85.13-1.25.09-.4.19-.76.32-1.11.13-.34.27-.66.43-.94s.31-.53.47-.74c.15-.21.3-.39.44-.53.14-.14.24-.24.32-.29.04-.03.08-.03.11,0,.03.04.03.08-.02.12-.21.25-.42.53-.62.85-.2.32-.37.67-.52,1.05-.15.39-.27.81-.36,1.28-.09.47-.14.98-.15,1.53,0,.51.03.98.1,1.41.07.43.17.81.28,1.16.11.34.24.65.37.91.14.26.26.49.38.67.12.18.22.32.31.43.09.1.14.16.16.18.05.05.06.1.03.14-.03.04-.06.05-.11.01-.15-.1-.35-.28-.58-.55-.24-.27-.47-.62-.7-1.04-.23-.42-.42-.91-.58-1.46-.16-.55-.24-1.17-.23-1.83Z"/>
      <path d="M208.93,301.51c-.02.08-.05.17-.08.27-.03.1-.08.2-.12.31-.05.1-.1.21-.15.31-.05.1-.1.18-.14.25-.11.15-.25.27-.41.36s-.32.14-.49.14c-.19,0-.35-.05-.49-.14-.14-.09-.26-.21-.35-.35s-.17-.31-.23-.49c-.06-.18-.11-.37-.16-.55-.06.05-.12.09-.2.15s-.15.11-.24.17l-.24.17c-.08.05-.14.1-.2.14-.08.05-.15.08-.2.07-.05,0-.09-.02-.1-.06s-.01-.08,0-.13c.02-.05.06-.1.13-.14.06-.05.14-.1.22-.17s.17-.13.26-.21c.09-.07.17-.14.26-.22.09-.07.16-.14.23-.2-.01-.17-.02-.35-.03-.55s-.01-.39-.01-.57c0-.28.01-.57.04-.87.03-.3.07-.59.12-.88.03-.16.09-.35.17-.59s.18-.47.3-.7c.12-.23.26-.42.41-.58.15-.16.32-.25.5-.25.24,0,.44.09.59.28s.23.48.23.88c0,.15-.01.32-.04.51-.03.19-.06.38-.11.59-.06.21-.14.43-.24.66-.1.23-.23.46-.36.69-.14.23-.29.46-.46.68-.17.22-.35.42-.53.6,0,.11.03.26.07.46.04.19.09.38.16.57.07.19.15.35.26.49s.24.21.39.21c.1,0,.2-.04.31-.12.1-.08.19-.18.27-.29.11-.16.2-.32.26-.48.07-.17.13-.33.18-.48.03-.07.05-.14.08-.19.03-.06.06-.08.09-.08.04,0,.07.02.1.06.03.04.02.14-.02.29ZM206.75,300.34c0,.11,0,.24,0,.38.18-.23.35-.49.52-.76.16-.27.3-.56.42-.86.12-.3.21-.61.27-.93.07-.32.1-.64.1-.96,0-.2-.02-.37-.07-.51-.04-.14-.13-.22-.26-.23-.11,0-.22.08-.32.23-.1.15-.19.34-.26.56-.08.22-.15.46-.2.7-.06.24-.1.46-.13.64-.03.16-.04.34-.06.56-.01.22-.02.5-.02.85v.33Z"/>
      <path d="M211.98,294.79c.08.05.18.15.32.29.14.14.28.32.43.53s.31.46.47.74c.16.28.3.6.43.94.13.34.24.71.32,1.11.09.39.13.81.13,1.25,0,.67-.07,1.28-.23,1.83-.16.56-.35,1.04-.58,1.46-.23.42-.46.77-.7,1.04-.24.27-.43.46-.58.55-.04.03-.08.03-.11-.01-.03-.04-.02-.09.03-.14.02-.02.07-.08.16-.18.09-.1.19-.24.31-.43.12-.18.25-.41.38-.67.14-.26.26-.57.37-.91.11-.34.21-.73.28-1.16.07-.43.11-.9.1-1.41,0-.55-.06-1.07-.15-1.53-.09-.47-.21-.89-.36-1.28-.15-.39-.33-.74-.52-1.05s-.4-.6-.61-.85c-.04-.05-.04-.09-.01-.12.03-.04.07-.04.12,0Z"/>
      <line class="cls-2" x1="173.47" y1="316.16" x2="183.44" y2="316.16"/>
      <line class="cls-2" x1="178.8" y1="311.39" x2="178.8" y2="321.2"/>
      <path d="M58.58,317.95c-.37,1.28-.77,2.34-1.21,3.18-.44.84-.9,1.49-1.38,1.96-.48.47-.95.78-1.42.92-.47.14-.91.15-1.32.04-.55-.17-.94-.48-1.14-.94-.21-.46-.31-.99-.3-1.6.01-.61.1-1.25.27-1.93.17-.68.35-1.32.56-1.93.15-.43.32-.86.53-1.3.21-.44.44-.86.69-1.26.25-.4.52-.77.82-1.11.29-.33.6-.61.92-.83.32-.22.65-.37.99-.45s.69-.06,1.04.06c.33.11.6.34.8.69.2.34.34.76.42,1.24.08.48.09,1.01.05,1.57-.05.57-.15,1.13-.31,1.68ZM53.7,318.25c-.1.27-.19.51-.26.73-.07.21-.14.45-.23.72s-.16.53-.22.79c-.08.3-.14.62-.18.95-.04.33-.04.65,0,.95.03.3.1.55.22.77.11.21.29.35.52.4.32.08.63.04.93-.12s.57-.39.82-.69c.25-.3.47-.63.67-1.01.19-.38.35-.74.48-1.08.1-.26.21-.54.31-.82.1-.29.2-.55.29-.78.09-.23.16-.43.21-.58.05-.15.07-.23.06-.23h-3.62ZM57.86,315.48c.04-.42.05-.76.03-1.02-.02-.26-.06-.47-.13-.62-.06-.15-.14-.26-.24-.32-.1-.06-.21-.1-.32-.13-.27-.05-.51-.02-.73.09-.21.11-.41.26-.6.46-.18.2-.36.42-.52.67s-.32.49-.48.72c-.13.19-.25.42-.38.69-.13.27-.25.53-.35.78s-.21.55-.34.91h3.62c.08-.32.15-.6.2-.83.05-.23.09-.48.13-.74.04-.26.07-.49.09-.67Z"/>
      <path d="M88.13,298.57c0-.44.04-.85.13-1.25.09-.4.19-.76.32-1.11.13-.34.27-.66.43-.94.16-.28.31-.53.47-.74s.3-.39.44-.53c.14-.14.24-.24.32-.29.04-.03.08-.03.11,0,.03.04.03.08-.02.12-.21.25-.42.53-.61.85-.2.32-.37.67-.52,1.05-.15.39-.27.81-.36,1.28-.09.47-.14.98-.15,1.53,0,.51.03.98.1,1.41.07.43.17.81.28,1.16.11.34.24.65.37.91.14.26.26.49.38.67.12.18.22.32.31.43.09.1.14.16.16.18.05.05.06.1.03.14s-.06.05-.11.01c-.15-.1-.35-.28-.58-.55-.24-.27-.47-.62-.7-1.04-.23-.42-.42-.91-.58-1.46-.16-.55-.24-1.17-.23-1.83Z"/>
      <path d="M95.55,300.43c-.02.08-.05.17-.08.27-.03.1-.08.2-.12.31-.05.1-.1.21-.15.31-.05.1-.1.18-.14.25-.11.15-.25.27-.41.36-.16.09-.32.14-.49.14-.19,0-.35-.05-.49-.14-.14-.09-.26-.21-.35-.35s-.17-.31-.23-.49c-.06-.18-.11-.37-.16-.55-.06.05-.12.09-.2.15-.08.05-.15.11-.24.17l-.24.17c-.08.05-.14.1-.2.14-.08.05-.15.08-.2.07-.05,0-.09-.02-.1-.06-.02-.04-.01-.08,0-.13.02-.05.06-.1.13-.14.06-.05.14-.1.22-.17.08-.07.17-.13.26-.21.09-.07.17-.14.26-.22.09-.07.16-.14.23-.2-.01-.17-.02-.35-.03-.55,0-.2-.01-.39-.01-.57,0-.28.01-.57.04-.87s.07-.59.12-.88c.03-.16.09-.35.17-.59s.18-.47.3-.7.26-.42.41-.58.32-.25.5-.25c.24,0,.44.09.59.28s.23.48.23.88c0,.15-.01.32-.04.51-.03.19-.06.38-.11.59-.06.21-.14.43-.24.66-.1.23-.23.46-.36.69-.14.23-.29.46-.46.68-.17.22-.35.42-.53.6,0,.11.03.26.07.46s.09.38.16.57c.07.19.15.35.26.49s.24.21.39.21c.1,0,.2-.04.31-.12.1-.08.19-.18.27-.29.11-.16.2-.32.27-.48.07-.17.13-.33.18-.48.03-.07.05-.14.08-.19.03-.06.06-.08.09-.08.04,0,.07.02.1.06.03.04.02.14-.02.29ZM93.36,299.26c0,.11,0,.24,0,.38.18-.23.35-.49.52-.76.16-.27.3-.56.42-.86.12-.3.21-.61.27-.93.07-.32.1-.64.1-.96,0-.2-.02-.37-.07-.51-.04-.14-.13-.22-.26-.23-.11,0-.22.08-.32.23-.1.15-.19.34-.26.56-.08.22-.15.46-.2.7-.06.24-.1.46-.13.64-.03.16-.04.34-.06.56-.01.22-.02.5-.02.85v.33Z"/>
      <path d="M105.49,298.78h-6.25v-.38h6.25v.38Z"/>
      <path d="M113.15,301.93h-3.54v-.25c.37,0,.64-.02.83-.06s.32-.1.4-.16c.08-.07.13-.14.13-.21,0-.08,0-.14,0-.2v-4.58c0-.08-.01-.15-.04-.21-.03-.06-.09-.1-.18-.13-.09-.03-.23-.05-.42-.06-.18,0-.43-.01-.74-.01v-.21c.26-.03.52-.08.78-.15s.48-.14.68-.21c.23-.08.45-.18.66-.28v5.88c0,.05,0,.11.02.19s.06.14.15.21c.09.07.23.12.42.17.19.05.47.07.84.07v.24Z"/>
      <path d="M115.67,293.72c.08.05.18.15.32.29.14.14.28.32.44.53.15.21.31.46.47.74.16.28.3.6.43.94.13.34.24.71.32,1.11.09.39.13.81.13,1.25,0,.67-.07,1.28-.23,1.83-.16.56-.35,1.04-.58,1.46-.23.42-.46.77-.7,1.04-.24.27-.43.46-.58.55-.04.03-.08.03-.11-.01-.03-.04-.02-.09.03-.14.02-.02.07-.08.16-.18.09-.1.19-.24.31-.43.12-.18.25-.41.38-.67.14-.26.26-.57.37-.91.11-.34.21-.73.28-1.16.07-.43.11-.9.1-1.41,0-.55-.06-1.07-.15-1.53s-.21-.89-.36-1.28c-.15-.39-.32-.74-.52-1.05-.2-.32-.4-.6-.61-.85-.04-.05-.04-.09-.01-.12.03-.04.07-.04.12,0Z"/>
      <path d="M86.41,308.07h-3.35v-.41h.29c.14,0,.26-.02.37-.05.11-.03.18-.09.22-.17.03-.08-.02-.21-.17-.39l-1.63-1.99-1.56,1.86c-.1.12-.12.22-.08.31s.12.17.23.23c.11.06.24.11.37.15.14.03.25.05.33.05v.41h-3.06v-.41c.32,0,.61-.05.87-.15.26-.1.48-.26.68-.5l1.92-2.31-2.4-2.75c-.17-.18-.33-.31-.49-.38-.16-.07-.38-.11-.66-.12v-.41h3.36v.41c-.25,0-.44.02-.57.06-.13.04-.21.1-.26.15s-.07.12-.06.19c.01.07.03.13.07.19l1.65,1.89,1.68-1.92c.05-.06.07-.12.06-.18,0-.06-.04-.12-.11-.18-.07-.06-.17-.11-.32-.15-.15-.04-.33-.06-.55-.06v-.41h2.9v.41c-.09,0-.19,0-.31,0-.12,0-.24.02-.37.06-.13.03-.27.09-.41.17-.14.08-.27.19-.4.35l-1.89,2.23,2.18,2.68c.17.21.36.38.57.51.2.13.5.19.89.2v.41Z"/>
      <path d="M423.93,319.51c3.22,0,3.22-5,0-5s-3.22,5,0,5h0Z"/>
      <path d="M434.85,319.51c3.22,0,3.22-5,0-5s-3.22,5,0,5h0Z"/>
      <path d="M446.77,319.51c3.22,0,3.22-5,0-5s-3.22,5,0,5h0Z"/>
      <g>
        <line class="cls-1" x1="460.78" y1="317.16" x2="484.66" y2="317.16"/>
        <polygon points="481.85 320.86 483.42 317.16 481.85 313.45 490.63 317.16 481.85 320.86"/>
      </g>
      <path d="M511.29,314.96c0,.24-.07.48-.21.71-.14.24-.33.46-.57.68s-.5.43-.79.63c-.29.2-.58.38-.88.55-.3.17-.58.31-.85.43-.27.12-.5.22-.7.28,0,.04-.02.15-.03.32s.02.35.07.53.16.35.32.5c.15.15.39.22.7.22.23,0,.46-.06.7-.17.24-.12.46-.25.67-.41s.39-.32.56-.49.29-.3.39-.4l.2.2c-.11.15-.26.33-.47.54-.2.21-.44.41-.7.61s-.54.36-.82.49-.57.18-.83.17c-.28-.02-.52-.08-.72-.19-.21-.11-.38-.25-.53-.43-.14-.18-.25-.38-.33-.61-.08-.23-.11-.47-.11-.73,0-.53.12-1.06.36-1.59s.55-1,.92-1.41c.37-.42.78-.75,1.23-1.01.45-.26.88-.39,1.28-.39.32,0,.58.09.8.26.21.17.32.42.32.73ZM510.7,314.95c0-.06-.01-.13-.03-.21-.02-.08-.07-.14-.13-.21-.06-.06-.14-.12-.24-.16-.1-.04-.22-.07-.36-.07-.28,0-.57.11-.87.33-.29.22-.56.51-.81.85s-.46.73-.63,1.15c-.17.42-.27.83-.31,1.23.14-.05.33-.13.55-.23s.46-.22.71-.36c.25-.14.5-.29.75-.46s.48-.35.68-.55c.21-.2.37-.41.49-.63.12-.22.19-.45.19-.69Z"/>
      <path d="M526.39,314.11h-8.81v-.52h8.81v.52ZM526.39,317h-8.81v-.52h8.81v.52Z"/>
      <path d="M534.98,315.27c0-.59.06-1.16.18-1.7.12-.54.27-1.04.45-1.51.18-.47.38-.89.61-1.28.22-.39.44-.72.66-1.01.22-.29.42-.53.61-.72.19-.19.34-.32.45-.39.06-.04.12-.04.16,0,.04.05.04.1-.03.17-.3.34-.59.72-.87,1.15s-.52.91-.73,1.43-.38,1.1-.51,1.74c-.13.64-.2,1.33-.21,2.09,0,.69.04,1.33.14,1.91.1.58.23,1.11.39,1.57.16.47.33.88.53,1.24.19.36.37.66.54.91.17.25.32.44.44.58.12.14.2.22.23.25.07.07.09.13.05.19-.04.06-.09.06-.15.02-.21-.13-.49-.38-.82-.75-.33-.37-.66-.84-.98-1.41s-.59-1.24-.82-1.99-.33-1.59-.33-2.49Z"/>
      <path d="M552.15,311.64l-.81,1.11h-3.27l.07-.2c.13,0,.24,0,.32-.03.09-.02.16-.05.22-.08.06-.03.11-.07.14-.12.03-.04.06-.09.07-.14l1.12-3.37c.03-.07.04-.13.04-.18,0-.05-.02-.08-.06-.11s-.09-.04-.17-.05c-.08,0-.18-.01-.31-.01l.06-.19h1.85l-.06.19c-.14,0-.26,0-.35.03-.09.02-.17.04-.23.07-.06.03-.11.07-.14.11-.03.04-.06.09-.07.14l-1.12,3.37c-.04.12-.03.21.04.26.07.05.23.08.48.08.18,0,.35-.02.51-.04s.33-.08.49-.16c.17-.07.33-.17.51-.29.17-.12.36-.27.55-.45l.12.06Z"/>
      <path d="M565.54,315.55h-8.81v-.52h8.81v.52Z"/>
      <path d="M575.71,314.22c-.34.87-.64,1.67-.92,2.39-.12.31-.23.62-.35.92-.12.3-.22.58-.33.83-.1.25-.19.47-.25.66s-.11.32-.14.39c-.04.13-.13.34-.27.63-.13.29-.31.58-.54.88-.23.3-.51.56-.84.78-.33.22-.72.33-1.17.33-.36,0-.65-.03-.85-.1-.2-.07-.36-.15-.45-.24s-.16-.2-.18-.31c-.02-.11-.03-.21-.03-.29,0-.18.06-.31.17-.39s.22-.12.32-.12c.08,0,.18.05.29.14.12.09.17.2.17.31,0,.14-.02.24-.06.29-.04.05-.08.09-.13.14,0,.07.04.13.11.17s.16.07.26.09.21.03.33.03c.12,0,.22,0,.31-.02.17-.03.33-.1.5-.23.16-.13.32-.28.46-.47.14-.18.27-.38.39-.6s.22-.43.31-.63c.09-.2.16-.38.23-.55.06-.16.11-.29.13-.38-.2.21-.42.39-.67.52-.25.13-.54.2-.88.2-.17,0-.35-.02-.53-.07-.19-.04-.34-.13-.47-.25-.13-.12-.21-.29-.23-.5-.03-.21.04-.49.19-.83.31-.68.55-1.23.73-1.67.17-.44.29-.74.35-.91.03-.08.04-.17.04-.27s-.02-.19-.05-.26-.08-.11-.15-.11c-.07,0-.16.05-.27.17-.12.12-.23.25-.35.37-.12.12-.23.24-.33.35-.12.12-.23.25-.33.36l-.2-.28c.06-.08.16-.2.29-.37.13-.16.28-.33.44-.5.17-.17.34-.32.51-.44s.35-.19.52-.19c.12,0,.24.03.33.1s.17.15.23.25c.06.1.09.22.11.34.01.12,0,.25-.06.37l-1.12,3.04c-.09.23-.08.43.03.59.11.17.26.26.47.3.2.04.43,0,.68-.13s.48-.35.68-.69c.2-.33.4-.73.6-1.21s.37-.94.52-1.38c.18-.51.35-1.05.52-1.6h.93Z"/>
      <path d="M578.19,308.66c.11.07.25.2.45.39.19.19.4.43.61.72.22.29.44.63.66,1.01.22.39.42.81.61,1.28.18.47.33.97.45,1.51.12.54.18,1.1.18,1.7,0,.91-.1,1.74-.33,2.49-.23.75-.5,1.42-.82,1.99s-.65,1.04-.98,1.41c-.33.37-.61.62-.82.75-.06.04-.11.04-.15-.02-.04-.06-.02-.12.05-.19.03-.03.1-.11.23-.25.12-.14.27-.33.44-.58.17-.25.35-.55.54-.91.19-.36.37-.77.53-1.24.16-.47.29-.99.39-1.57s.15-1.22.14-1.91c0-.75-.08-1.45-.21-2.09-.13-.63-.3-1.21-.51-1.74-.21-.52-.46-1-.73-1.43s-.56-.82-.87-1.15c-.05-.06-.06-.12-.02-.17s.1-.05.17,0Z"/>
      <path d="M586.47,312.14l-.41,1.64h-3.35c.04-.19.12-.39.24-.6.12-.21.26-.43.42-.65s.34-.45.53-.67.38-.45.58-.67c.15-.18.3-.35.43-.51.14-.16.25-.32.35-.49.1-.17.17-.33.23-.5.06-.17.08-.36.08-.56,0-.4-.1-.71-.29-.93s-.47-.34-.84-.34c-.09,0-.19.01-.3.04-.12.03-.23.07-.33.13-.11.06-.19.13-.26.22-.07.08-.11.18-.11.29,0,.07.01.13.04.17s.05.08.08.12c.03.04.06.09.08.14s.04.13.04.22c0,.16-.05.28-.15.35-.1.07-.2.11-.29.11-.17,0-.29-.06-.37-.17-.08-.12-.12-.26-.12-.42,0-.18.05-.36.15-.54s.24-.33.41-.47c.17-.14.36-.25.57-.33.21-.08.43-.13.66-.13.28,0,.53.04.76.12.23.08.42.19.58.33.16.14.29.3.38.49.09.19.13.39.13.6,0,.23-.04.43-.12.62-.08.19-.18.36-.31.52-.13.16-.27.31-.42.46s-.3.28-.44.42c-.55.5-.97.92-1.28,1.27s-.49.62-.54.81h1.74c.12,0,.23,0,.33-.02.1-.01.21-.05.3-.12.1-.07.2-.18.3-.34.1-.16.21-.38.32-.66l.19.06Z"/>
      <path d="M546.24,320.21h-3.35v-.41h.29c.14,0,.26-.02.37-.05.11-.03.18-.09.22-.17.03-.08-.02-.21-.17-.39l-1.63-1.99-1.56,1.86c-.1.12-.12.22-.08.31s.12.17.23.23c.11.06.24.11.37.15.14.03.25.05.33.05v.41h-3.06v-.41c.32,0,.61-.05.87-.15.26-.1.48-.26.68-.5l1.92-2.31-2.4-2.75c-.17-.18-.33-.31-.49-.38-.16-.07-.38-.11-.66-.12v-.41h3.36v.41c-.25,0-.44.02-.57.06-.13.04-.21.1-.26.15s-.07.12-.06.19c.01.07.03.13.07.19l1.65,1.89,1.68-1.92c.05-.06.07-.12.06-.18,0-.06-.04-.12-.11-.18-.07-.06-.17-.11-.32-.15-.15-.04-.33-.06-.55-.06v-.41h2.9v.41c-.09,0-.19,0-.31,0-.12,0-.24.02-.37.06-.13.03-.27.09-.41.17-.14.08-.27.19-.4.35l-1.89,2.23,2.18,2.68c.17.21.36.38.57.51.2.13.5.19.89.2v.41Z"/>
      <path d="M545.68,310.64c0-.32.03-.62.09-.91.06-.29.14-.56.24-.81s.2-.48.31-.69.23-.39.34-.54.22-.28.32-.39c.1-.1.18-.17.23-.21.03-.02.06-.02.08,0,.02.03.02.06-.01.09-.16.18-.31.39-.45.62-.14.23-.27.49-.38.77s-.2.59-.26.93c-.07.34-.1.71-.11,1.12,0,.37.02.71.07,1.03.05.31.12.59.2.84.08.25.17.47.27.66.1.19.19.36.28.49.09.13.16.24.23.31.06.07.1.12.12.13.04.04.04.07.02.1-.02.03-.05.03-.08.01-.11-.07-.25-.21-.42-.4s-.34-.45-.51-.76-.31-.66-.42-1.07-.17-.85-.17-1.34Z"/>
      <path d="M553.18,307.1c.06.04.13.11.23.21.1.1.2.23.32.39s.23.34.34.54.22.44.31.69c.09.25.17.52.23.81.06.29.09.59.09.91,0,.49-.05.93-.17,1.34s-.26.76-.42,1.07c-.17.31-.33.56-.51.76s-.31.33-.42.4c-.03.02-.06.02-.08-.01-.02-.03-.01-.07.02-.1.01-.01.05-.06.12-.13.06-.07.14-.18.23-.31.09-.13.18-.3.28-.49.1-.19.19-.41.27-.66.08-.25.15-.53.2-.84.05-.31.08-.65.07-1.03,0-.4-.04-.78-.11-1.12-.07-.34-.15-.65-.27-.93-.11-.28-.24-.54-.38-.77-.14-.23-.29-.44-.45-.62-.03-.03-.03-.06-.01-.09.02-.03.05-.03.09,0Z"/>
    </g>
    <g id="_레이어_3" data-name="레이어_3">
      <g>
        <line class="cls-1" x1="77.31" y1="317.39" x2="159.94" y2="317.39"/>
        <polygon points="157.14 321.1 158.71 317.39 157.14 313.69 165.91 317.39 157.14 321.1"/>
      </g>
      <g>
        <line class="cls-1" x1="107.5" y1="370.85" x2="162.18" y2="323.58"/>
        <polygon points="162.48 328.22 161.25 324.39 157.64 322.62 166.7 319.68 162.48 328.22"/>
      </g>
      <g>
        <line class="cls-1" x1="107.5" y1="276.06" x2="160.93" y2="311.2"/>
        <polygon points="156.54 312.75 159.89 310.52 160.61 306.56 165.91 314.48 156.54 312.75"/>
      </g>
      <g>
        <line class="cls-1" x1="107.5" y1="234.96" x2="161.07" y2="306.25"/>
        <polygon points="156.42 306.23 160.33 305.26 162.34 301.78 164.65 311.02 156.42 306.23"/>
      </g>
      <g>
        <line class="cls-1" x1="189.53" y1="317.01" x2="213.2" y2="317.01"/>
        <polygon points="210.39 320.71 211.96 317.01 210.39 313.3 219.17 317.01 210.39 320.71"/>
      </g>
      <g>
        <line class="cls-1" x1="262.75" y1="317.01" x2="282.69" y2="317.01"/>
        <polygon points="279.88 320.71 281.45 317.01 279.88 313.3 288.65 317.01 279.88 320.71"/>
      </g>
      <g>
        <line class="cls-1" x1="293.93" y1="313.69" x2="329.98" y2="251.62"/>
        <polygon points="331.77 255.91 329.36 252.69 325.37 252.19 332.98 246.46 331.77 255.91"/>
      </g>
      <g>
        <line class="cls-1" x1="295.35" y1="315.58" x2="379.17" y2="259.99"/>
        <polygon points="378.88 264.63 378.14 260.68 374.78 258.46 384.15 256.69 378.88 264.63"/>
      </g>
      <g>
        <line class="cls-1" x1="296.13" y1="317.01" x2="334.57" y2="317.01"/>
        <polygon points="331.76 320.71 333.33 317.01 331.76 313.3 340.54 317.01 331.76 320.71"/>
      </g>
      <g>
        <line class="cls-1" x1="295.35" y1="319.21" x2="337.12" y2="343.59"/>
        <polygon points="332.82 345.38 336.05 342.97 336.56 338.98 342.27 346.6 332.82 345.38"/>
      </g>
      <rect class="cls-3" x="168.96" y="306.61" width="20.57" height="20.57"/>
      <circle class="cls-4" cx="292.26" cy="317.01" r="3.4"/>
    </g>
    <g id="_레이어_2" data-name="레이어_2">
      <circle class="cls-5" cx="55.92" cy="317.39" r="21.39"/>
      <circle class="cls-5" cx="240.56" cy="317.01" r="21.39"/>
      <circle class="cls-5" cx="405.53" cy="255.45" r="21.39"/>
    </g>
  </g>
</svg>