<?xml version="1.0" encoding="UTF-8"?>
<svg xmlns="http://www.w3.org/2000/svg" version="1.1" viewBox="0 0 600 600">
  <defs>
    <style>
      .cls-1 {
        fill: #231815;
      }

      .cls-2, .cls-3 {
        fill: none;
        stroke: #231815;
        stroke-miterlimit: 10;
      }

      .cls-3 {
        stroke-width: 3px;
      }
    </style>
  </defs>
  <!-- Generator: Adobe Illustrator 28.7.1, SVG Export Plug-In . SVG Version: 1.2.0 Build 142)  -->
  <g>
    <g id="_레이어_1" data-name="레이어_1">
      <path d="M147.44,153.01c-.05.28-.16.47-.32.57-.16.1-.33.15-.52.15s-.34-.05-.45-.15c-.11-.1-.18-.23-.21-.39-.03-.13-.01-.27.04-.4.05-.13.15-.23.3-.28.07-.12.07-.25.02-.38-.05-.13-.23-.2-.52-.2-.15,0-.33.07-.54.21-.21.14-.44.36-.68.65-.24.29-.48.66-.72,1.11s-.46.97-.66,1.57c-.2.6-.36,1.16-.47,1.66s-.16.94-.15,1.3c.01.36.1.64.25.85s.39.3.71.3c.29,0,.58-.07.84-.21.27-.14.52-.31.74-.52.23-.21.43-.42.59-.64s.3-.41.41-.57l.44.36c-.11.2-.26.44-.47.71-.21.27-.45.54-.72.8-.27.26-.56.48-.86.65-.3.18-.6.26-.89.26-.6,0-1.07-.17-1.42-.52-.34-.35-.51-.82-.51-1.4-.11.21-.26.44-.47.66-.21.23-.45.44-.71.62-.27.19-.56.34-.87.45-.31.11-.63.17-.95.17-.25,0-.48-.04-.67-.13-.19-.09-.36-.2-.5-.33-.14-.13-.25-.29-.32-.46-.07-.17-.11-.35-.11-.52,0-.76.27-1.14.82-1.14.27,0,.48.07.62.22.15.15.22.31.22.48,0,.19-.04.36-.12.51-.08.15-.2.24-.36.27-.04.2.04.33.23.38s.43.04.7-.04c.27-.08.56-.22.84-.43.29-.21.52-.47.69-.79.17-.32.35-.74.53-1.24s.34-1.02.49-1.54c.15-.51.27-.98.38-1.4.11-.42.17-.71.2-.87.01-.16,0-.32-.07-.49-.06-.17-.14-.32-.25-.46-.11-.14-.23-.26-.38-.35-.15-.09-.29-.14-.44-.14-.21,0-.43.06-.63.18-.21.12-.4.26-.58.43-.18.17-.35.34-.49.51-.15.17-.27.31-.36.4l-.34-.42c.15-.13.31-.3.48-.51.17-.21.36-.41.57-.6.21-.19.43-.35.67-.48s.51-.2.8-.2.54.07.76.21c.23.14.42.32.58.53.16.21.28.44.36.69s.11.48.1.69c.13-.15.3-.34.49-.58s.41-.47.66-.7c.25-.23.52-.42.81-.59.29-.17.61-.25.94-.25s.58.07.78.2c.2.13.35.29.46.47.11.18.17.38.2.59.03.21.03.38,0,.53Z"/>
      <path d="M154.99,164.91h-4.98v-.36c.51,0,.9-.03,1.16-.09.26-.06.45-.14.57-.23.12-.09.18-.19.19-.3,0-.11.01-.2.01-.28v-6.45c0-.12-.02-.22-.06-.3s-.13-.14-.26-.19c-.13-.05-.33-.08-.59-.09-.26-.01-.6-.02-1.04-.02v-.29c.37-.05.74-.12,1.09-.21.36-.1.67-.2.96-.3.33-.12.64-.25.93-.4v8.27c0,.07,0,.16.03.26s.09.2.21.29c.12.09.32.17.59.23s.66.1,1.18.1v.34Z"/>
      <path d="M147.36,228.53c-.05.28-.16.47-.32.57-.16.1-.33.15-.52.15s-.34-.05-.45-.15c-.11-.1-.18-.23-.21-.39-.03-.13-.01-.27.04-.4.05-.13.15-.23.3-.28.07-.12.07-.25.02-.38-.05-.13-.23-.2-.52-.2-.15,0-.33.07-.54.21-.21.14-.44.36-.68.65-.24.29-.48.66-.72,1.11s-.46.97-.66,1.57c-.2.6-.36,1.16-.47,1.66s-.16.94-.15,1.3c.01.36.1.64.25.85s.39.3.71.3c.29,0,.58-.07.84-.21.27-.14.52-.31.74-.52.23-.21.43-.42.59-.64s.3-.41.41-.57l.44.36c-.11.2-.26.44-.47.71-.21.27-.45.54-.72.8-.27.26-.56.48-.86.65-.3.18-.6.26-.89.26-.6,0-1.07-.17-1.42-.52-.34-.35-.51-.82-.51-1.4-.11.21-.26.44-.47.66-.21.23-.45.44-.71.62-.27.19-.56.34-.87.45-.31.11-.63.17-.95.17-.25,0-.48-.04-.67-.13-.19-.09-.36-.2-.5-.33-.14-.13-.25-.29-.32-.46-.07-.17-.11-.35-.11-.52,0-.76.27-1.14.82-1.14.27,0,.48.07.62.22.15.15.22.31.22.48,0,.19-.04.36-.12.51-.08.15-.2.24-.36.27-.04.2.04.33.23.38s.43.04.7-.04c.27-.08.56-.22.84-.43.29-.21.52-.47.69-.79.17-.32.35-.74.53-1.24s.34-1.02.49-1.54c.15-.51.27-.98.38-1.4.11-.42.17-.71.2-.87.01-.16,0-.32-.07-.49-.06-.17-.14-.32-.25-.46-.11-.14-.23-.26-.38-.35-.15-.09-.29-.14-.44-.14-.21,0-.43.06-.63.18-.21.12-.4.26-.58.43-.18.17-.35.34-.49.51-.15.17-.27.31-.36.4l-.34-.42c.15-.13.31-.3.48-.51.17-.21.36-.41.57-.6.21-.19.43-.35.67-.48s.51-.2.8-.2.54.07.76.21c.23.14.42.32.58.53.16.21.28.44.36.69s.11.48.1.69c.13-.15.3-.34.49-.58s.41-.47.66-.7c.25-.23.52-.42.81-.59.29-.17.61-.25.94-.25s.58.07.78.2c.2.13.35.29.46.47.11.18.17.38.2.59.03.21.03.38,0,.53Z"/>
      <path d="M155.07,237.96l-.61,2.47h-5.05c.06-.28.18-.59.36-.91.18-.32.39-.65.63-.99.24-.34.51-.67.8-1.01.29-.34.58-.68.87-1.01.23-.27.45-.52.65-.76.2-.24.38-.49.53-.74.15-.25.26-.5.35-.76s.13-.54.13-.84c0-.6-.15-1.07-.44-1.41-.29-.34-.71-.51-1.27-.51-.13,0-.29.02-.46.06s-.34.11-.5.19c-.16.09-.29.2-.4.32-.11.13-.16.28-.16.44,0,.11.02.2.05.26s.08.12.13.19c.05.06.09.14.13.21.04.08.05.19.05.34,0,.24-.08.41-.23.52s-.3.17-.43.17c-.25,0-.43-.09-.55-.26-.12-.17-.18-.39-.18-.63,0-.28.08-.55.23-.81.16-.27.36-.5.61-.71s.54-.37.87-.5c.32-.13.65-.19.99-.19.42,0,.8.06,1.14.19.34.12.63.29.88.5.24.21.43.46.57.74.13.29.2.59.2.91,0,.34-.06.65-.18.93-.12.28-.28.54-.47.79-.19.24-.4.47-.63.69-.23.22-.45.43-.67.63-.83.75-1.47,1.39-1.92,1.91-.46.52-.73.93-.82,1.22h2.62c.18,0,.34,0,.5-.03.16-.02.31-.08.46-.19s.3-.28.45-.51.31-.57.48-1l.29.1"/>
      <path d="M143.51,88.93v-.44l2.6-.25h1.35l2.44.25v.44h-6.39ZM145.95,88.93c.03-1.22.05-2.43.05-3.63v-6.58l-2.22.33v-.5l3.59-.88.24.17-.06,2.5v4.96c0,.59,0,1.19.02,1.8.01.61.02,1.22.03,1.83h-1.64Z"/>
      <path d="M205.71,180.62v-.44l2.6-.25h1.35l2.44.25v.44h-6.39ZM208.14,180.62c.03-1.22.05-2.43.05-3.63v-6.58l-2.22.33v-.5l3.59-.88.24.17-.06,2.5v4.96c0,.59,0,1.19.02,1.8.01.61.02,1.22.03,1.83h-1.64Z"/>
      <path d="M205.36,231.08v-.44l2.6-.25h1.35l2.44.25v.44h-6.39ZM207.8,231.08c.03-1.22.05-2.43.05-3.63v-6.58l-2.22.33v-.5l3.59-.88.24.17-.06,2.5v4.96c0,.59,0,1.19.02,1.8.01.61.02,1.22.03,1.83h-1.64Z"/>
      <g>
        <path d="M198.84,133.22v-.44l2.6-.25h1.35l2.44.25v.44h-6.39ZM201.28,133.22c.03-1.22.05-2.43.05-3.63v-6.58l-2.22.33v-.5l3.59-.88.24.17-.06,2.5v4.96c0,.59,0,1.19.02,1.8.01.61.02,1.22.03,1.83h-1.64Z"/>
        <path d="M208.91,133.45c-.3,0-.56-.1-.75-.31s-.3-.46-.3-.74.1-.54.3-.75c.2-.2.45-.31.75-.31s.56.1.76.31c.2.2.31.45.31.75s-.1.53-.31.74-.46.31-.76.31Z"/>
        <path d="M215.44,133.45c-.9,0-1.64-.2-2.22-.61-.58-.41-.93-.99-1.05-1.73.06-.17.16-.29.29-.38.13-.08.28-.13.43-.13.23,0,.41.07.53.2.12.13.21.35.28.67l.41,1.49-.54-.44c.26.15.51.25.76.32.24.07.54.1.9.1.86,0,1.53-.25,2.01-.76.48-.51.72-1.22.72-2.15s-.23-1.67-.7-2.12c-.47-.45-1.09-.68-1.86-.68-.69,0-1.32.12-1.87.35l-.41-.17.36-5.29h5.77v1.26h-5.51l.33-.85-.33,4.75-.52-.16c.43-.22.85-.37,1.25-.46.4-.08.84-.13,1.3-.13,1.16,0,2.09.29,2.78.86.69.57,1.04,1.4,1.04,2.49,0,.72-.17,1.35-.52,1.89-.35.54-.83.95-1.45,1.23-.62.29-1.35.43-2.19.43Z"/>
      </g>
      <g>
        <path d="M399.49,165.28c-.7,0-1.37-.13-2-.4s-1.19-.66-1.68-1.17c-.49-.51-.87-1.14-1.14-1.89-.27-.74-.41-1.6-.41-2.56s.14-1.79.41-2.54c.27-.75.65-1.38,1.14-1.9.49-.51,1.05-.91,1.68-1.18.63-.27,1.29-.41,2-.41s1.38.13,2.01.4c.62.27,1.18.66,1.67,1.17s.87,1.14,1.14,1.89c.27.74.41,1.6.41,2.56s-.14,1.8-.41,2.55c-.27.74-.65,1.38-1.14,1.9s-1.04.91-1.67,1.18c-.62.27-1.29.4-2.01.4ZM399.49,164.73c.58,0,1.08-.14,1.52-.42s.8-.68,1.09-1.18c.29-.5.51-1.09.65-1.75s.22-1.37.22-2.12-.07-1.46-.22-2.12-.36-1.23-.65-1.74c-.29-.5-.65-.9-1.09-1.18s-.94-.42-1.52-.42-1.08.14-1.52.42c-.43.28-.8.68-1.09,1.18-.29.5-.51,1.08-.66,1.74s-.22,1.36-.22,2.12.07,1.46.22,2.12.37,1.24.66,1.75c.29.5.66.9,1.09,1.18.44.28.94.42,1.52.42Z"/>
        <path d="M406.09,153.98v-.49h2.42v.68h-.19l-2.23-.19ZM406.09,165.01v-.49l2.23-.2h.38l2.25.2v.49h-4.86ZM407.65,165.01c.02-.88.03-1.77.04-2.66,0-.89,0-1.78,0-2.67v-.83c0-.9,0-1.8,0-2.68,0-.89-.02-1.77-.04-2.67h1.71c-.03.88-.05,1.78-.05,2.7,0,.92,0,1.92,0,3v.35c0,.95,0,1.88,0,2.78,0,.9.02,1.8.05,2.69h-1.71ZM415.04,165.18c-.57,0-.99-.09-1.26-.27-.27-.18-.45-.49-.53-.9l-.72-2.58c-.11-.44-.24-.79-.39-1.05-.16-.26-.37-.45-.63-.57-.26-.12-.62-.18-1.09-.18h-1.89v-.52h2.27c.59,0,1.08-.12,1.49-.35.4-.23.71-.55.92-.94s.32-.84.32-1.34c0-.76-.23-1.35-.68-1.78-.45-.43-1.14-.65-2.08-.65h-2.25v-.55h2.55c1.28,0,2.27.26,2.96.77.7.51,1.05,1.24,1.05,2.19,0,.51-.13.99-.4,1.42-.27.44-.68.79-1.23,1.08s-1.26.45-2.12.5v-.16c.65.04,1.16.15,1.53.31.37.17.65.41.84.73.19.32.35.73.48,1.22l.91,3.19-.77-.38,2.17.14v.49c-.2.04-.41.08-.64.12-.23.04-.5.05-.81.05Z"/>
      </g>
      <path d="M421.69,158.99c0-.99.1-1.94.3-2.84s.45-1.74.76-2.52c.3-.78.64-1.49,1.01-2.14.37-.65.74-1.21,1.1-1.69s.7-.88,1.02-1.2c.32-.32.57-.54.75-.66.1-.07.19-.07.27.01.07.08.06.17-.04.28-.5.56-.99,1.21-1.45,1.93-.46.72-.86,1.52-1.21,2.39s-.63,1.84-.85,2.9c-.22,1.06-.33,2.22-.35,3.48-.01,1.16.06,2.22.23,3.19.17.97.39,1.85.66,2.63.27.78.56,1.47.88,2.07.32.6.62,1.11.9,1.52.28.42.53.74.73.97.21.23.33.37.38.41.12.12.14.23.08.32-.07.1-.15.11-.26.03-.36-.22-.81-.64-1.37-1.26-.56-.62-1.1-1.4-1.64-2.36-.53-.96-.99-2.07-1.37-3.33-.38-1.26-.56-2.65-.55-4.16Z"/>
      <path d="M440.07,159.23c-.06.31-.18.52-.36.63-.18.11-.37.17-.58.17s-.38-.06-.5-.17c-.13-.11-.2-.26-.23-.43-.03-.15-.01-.3.04-.45.06-.15.17-.25.33-.31.07-.13.08-.27.02-.42-.06-.15-.25-.22-.58-.22-.16,0-.36.08-.6.23-.24.16-.49.4-.76.73-.27.33-.53.74-.8,1.23s-.51,1.07-.73,1.74c-.22.67-.4,1.28-.52,1.84s-.18,1.04-.17,1.44c.01.4.11.71.28.94s.43.33.79.33c.33,0,.64-.08.94-.23.3-.16.57-.35.82-.58.25-.23.47-.47.66-.71s.34-.46.46-.63l.49.4c-.12.22-.29.49-.52.79-.23.3-.5.6-.8.89-.3.29-.62.53-.96.72-.33.2-.66.29-.99.29-.67,0-1.19-.19-1.57-.58-.38-.39-.57-.9-.57-1.56-.12.24-.29.48-.52.73-.23.25-.49.48-.79.69-.3.21-.62.38-.97.5-.35.13-.7.19-1.06.19-.28,0-.53-.05-.75-.14-.22-.1-.4-.22-.56-.37-.16-.15-.28-.32-.36-.51-.08-.19-.12-.39-.12-.58,0-.85.3-1.27.91-1.27.3,0,.53.08.69.24.16.16.24.34.24.53,0,.21-.04.4-.13.57-.09.17-.22.27-.4.3-.04.22.04.36.26.42s.48.04.78-.04c.3-.09.62-.25.94-.48.32-.23.58-.52.77-.88.19-.36.39-.82.59-1.38s.38-1.13.55-1.7c.16-.57.3-1.09.42-1.56.12-.47.19-.79.22-.97.01-.18-.01-.36-.08-.55-.07-.19-.16-.36-.28-.51-.12-.16-.26-.29-.42-.39-.16-.1-.33-.16-.49-.16-.24,0-.47.07-.7.2-.23.13-.45.29-.65.48-.2.19-.38.38-.55.57-.16.19-.3.34-.4.45l-.38-.47c.16-.15.34-.34.53-.57.19-.23.4-.45.63-.66.23-.21.48-.39.75-.53s.56-.22.89-.22.59.08.85.23c.25.16.47.35.65.59.18.24.31.49.4.77s.13.53.11.77c.15-.16.33-.38.55-.65s.46-.53.73-.78c.27-.25.58-.47.9-.66.33-.19.68-.28,1.05-.28s.65.07.87.22c.22.14.39.32.51.52.12.2.19.42.22.65.03.23.03.43,0,.59Z"/>
      <path d="M448.43,172.43h-5.52v-.4c.57,0,1-.03,1.29-.1.29-.07.5-.15.63-.25.13-.1.2-.21.21-.33,0-.12.01-.22.01-.31v-7.15c0-.13-.02-.24-.07-.33s-.14-.16-.29-.21c-.15-.05-.36-.08-.65-.1-.29-.02-.67-.02-1.15-.02v-.32c.41-.05.82-.13,1.21-.24.39-.11.75-.22,1.06-.33.36-.13.71-.28,1.03-.44v9.17c0,.08,0,.18.03.29s.1.22.24.32c.14.1.36.19.66.26s.74.11,1.31.11v.38Z"/>
      <path d="M454.75,166.11c-.1.39-.26.74-.47,1.07-.21.33-.43.61-.67.86-.24.24-.47.45-.7.6-.23.16-.42.26-.57.3-.04,0-.09-.03-.13-.09-.04-.06-.05-.1-.02-.13.13-.07.29-.2.48-.38.19-.18.36-.39.52-.63.16-.25.29-.52.39-.81.1-.3.12-.6.08-.91,0-.06-.06-.07-.19-.04-.13.03-.28.04-.45.03s-.35-.07-.55-.18c-.19-.11-.36-.34-.51-.68-.09-.19-.1-.41-.04-.65.06-.24.17-.45.32-.63s.36-.33.61-.42c.25-.1.53-.1.82-.01.52.16.86.52,1.04,1.06.17.54.18,1.09.03,1.66Z"/>
      <path d="M470.84,159.23c-.06.31-.18.52-.36.63-.18.11-.37.17-.58.17s-.38-.06-.5-.17c-.13-.11-.2-.26-.23-.43-.03-.15-.01-.3.04-.45.06-.15.17-.25.33-.31.07-.13.08-.27.02-.42-.06-.15-.25-.22-.58-.22-.16,0-.36.08-.6.23-.24.16-.49.4-.76.73-.27.33-.53.74-.8,1.23s-.51,1.07-.73,1.74c-.22.67-.4,1.28-.52,1.84s-.18,1.04-.17,1.44c.01.4.11.71.28.94s.43.33.79.33c.33,0,.64-.08.94-.23.3-.16.57-.35.82-.58.25-.23.47-.47.66-.71s.34-.46.46-.63l.49.4c-.12.22-.29.49-.52.79-.23.3-.5.6-.8.89-.3.29-.62.53-.96.72-.33.2-.66.29-.99.29-.67,0-1.19-.19-1.57-.58-.38-.39-.57-.9-.57-1.56-.12.24-.29.48-.52.73-.23.25-.49.48-.79.69-.3.21-.62.38-.97.5-.35.13-.7.19-1.06.19-.28,0-.53-.05-.75-.14-.22-.1-.4-.22-.56-.37-.16-.15-.28-.32-.36-.51-.08-.19-.12-.39-.12-.58,0-.85.3-1.27.91-1.27.3,0,.53.08.69.24.16.16.24.34.24.53,0,.21-.04.4-.13.57-.09.17-.22.27-.4.3-.04.22.04.36.26.42s.48.04.78-.04c.3-.09.62-.25.94-.48.32-.23.58-.52.77-.88.19-.36.39-.82.59-1.38s.38-1.13.55-1.7c.16-.57.3-1.09.42-1.56.12-.47.19-.79.22-.97.01-.18-.01-.36-.08-.55-.07-.19-.16-.36-.28-.51-.12-.16-.26-.29-.42-.39-.16-.1-.33-.16-.49-.16-.24,0-.47.07-.7.2-.23.13-.45.29-.65.48-.2.19-.38.38-.55.57-.16.19-.3.34-.4.45l-.38-.47c.16-.15.34-.34.53-.57.19-.23.4-.45.63-.66.23-.21.48-.39.75-.53s.56-.22.89-.22.59.08.85.23c.25.16.47.35.65.59.18.24.31.49.4.77s.13.53.11.77c.15-.16.33-.38.55-.65s.46-.53.73-.78c.27-.25.58-.47.9-.66.33-.19.68-.28,1.05-.28s.65.07.87.22c.22.14.39.32.51.52.12.2.19.42.22.65.03.23.03.43,0,.59Z"/>
      <path d="M479.38,169.69l-.68,2.74h-5.6c.07-.32.2-.65.4-1.01.2-.36.43-.72.7-1.09.27-.37.57-.75.89-1.12.32-.38.64-.75.97-1.12.26-.3.5-.58.72-.85.23-.27.42-.54.58-.82.16-.28.29-.56.38-.84s.14-.6.14-.93c0-.66-.16-1.18-.49-1.56-.32-.38-.79-.57-1.4-.57-.15,0-.32.02-.51.07s-.38.12-.55.21c-.18.1-.32.22-.44.36-.12.14-.18.31-.18.49,0,.12.02.22.06.28s.09.13.14.21c.05.07.1.15.14.24.04.09.06.21.06.37,0,.27-.09.46-.26.58s-.33.18-.48.18c-.28,0-.48-.1-.61-.29-.13-.19-.2-.43-.2-.7,0-.31.09-.61.26-.9.17-.3.4-.56.68-.79s.6-.41.96-.56c.36-.14.73-.21,1.1-.21.46,0,.88.07,1.26.21.38.14.7.32.97.56.27.23.48.51.63.83.15.32.22.65.22,1.01,0,.38-.07.72-.2,1.03-.13.31-.31.6-.52.87-.21.27-.45.53-.7.76-.26.24-.5.47-.74.7-.92.84-1.63,1.54-2.13,2.12-.51.58-.81,1.03-.91,1.35h2.91c.2,0,.38,0,.55-.03.17-.02.34-.09.51-.21s.33-.31.5-.57.34-.63.53-1.11l.32.11Z"/>
      <path d="M483.88,147.95c.18.12.43.34.75.66.32.32.66.72,1.02,1.2s.73,1.05,1.1,1.69c.37.65.71,1.36,1.01,2.14.3.78.56,1.62.76,2.52.2.9.3,1.84.3,2.84.01,1.51-.17,2.9-.55,4.16s-.83,2.37-1.37,3.33c-.53.96-1.08,1.74-1.64,2.36s-1.01,1.04-1.37,1.26c-.1.07-.19.06-.26-.03-.07-.1-.04-.2.08-.32.04-.04.17-.18.38-.41.21-.23.45-.55.74-.97.28-.42.58-.92.9-1.52.32-.6.61-1.29.88-2.07.27-.78.49-1.65.66-2.63.17-.97.25-2.04.23-3.19-.01-1.26-.13-2.42-.35-3.48-.22-1.06-.5-2.03-.86-2.9-.36-.88-.77-1.67-1.23-2.39-.46-.72-.94-1.36-1.45-1.93-.09-.1-.1-.2-.03-.28.07-.08.16-.08.28-.01Z"/>
      <polyline class="cls-2" points="290.72 171.46 309.13 171.46 309.13 145.93 326.63 145.93"/>
      <path d="M153.13,428.24c-.05.28-.16.47-.32.57-.16.1-.33.15-.52.15s-.34-.05-.45-.15c-.11-.1-.18-.23-.21-.39-.03-.13-.01-.27.04-.4.05-.13.15-.23.3-.28.07-.12.07-.25.02-.38-.05-.13-.23-.2-.52-.2-.15,0-.33.07-.54.21-.21.14-.44.36-.68.65-.24.29-.48.66-.72,1.11s-.46.97-.66,1.57c-.2.6-.36,1.16-.47,1.66s-.16.94-.15,1.3c.01.36.1.64.25.85s.39.3.71.3c.29,0,.58-.07.84-.21.27-.14.52-.31.74-.52.23-.21.43-.42.59-.64s.3-.41.41-.57l.44.36c-.11.2-.26.44-.47.71-.21.27-.45.54-.72.8-.27.26-.56.48-.86.65-.3.18-.6.26-.89.26-.6,0-1.07-.17-1.42-.52-.34-.35-.51-.82-.51-1.4-.11.21-.26.44-.47.66-.21.23-.45.44-.71.62-.27.19-.56.34-.87.45-.31.11-.63.17-.95.17-.25,0-.48-.04-.67-.13-.19-.09-.36-.2-.5-.33-.14-.13-.25-.29-.32-.46-.07-.17-.11-.35-.11-.52,0-.76.27-1.14.82-1.14.27,0,.48.07.62.22.15.15.22.31.22.48,0,.19-.04.36-.12.51-.08.15-.2.24-.36.27-.04.2.04.33.23.38s.43.04.7-.04c.27-.08.56-.22.84-.43.29-.21.52-.47.69-.79.17-.32.35-.74.53-1.24s.34-1.02.49-1.54c.15-.51.27-.98.38-1.4.11-.42.17-.71.2-.87.01-.16,0-.32-.07-.49-.06-.17-.14-.32-.25-.46-.11-.14-.23-.26-.38-.35-.15-.09-.29-.14-.44-.14-.21,0-.43.06-.63.18-.21.12-.4.26-.58.43-.18.17-.35.34-.49.51-.15.17-.27.31-.36.4l-.34-.42c.15-.13.31-.3.48-.51.17-.21.36-.41.57-.6.21-.19.43-.35.67-.48s.51-.2.8-.2.54.07.76.21c.23.14.42.32.58.53.16.21.28.44.36.69s.11.48.1.69c.13-.15.3-.34.49-.58s.41-.47.66-.7c.25-.23.52-.42.81-.59.29-.17.61-.25.94-.25s.58.07.78.2c.2.13.35.29.46.47.11.18.17.38.2.59.03.21.03.38,0,.53Z"/>
      <path d="M160.67,440.14h-4.98v-.36c.51,0,.9-.03,1.16-.09.26-.06.45-.14.57-.23.12-.09.18-.19.19-.3,0-.11.01-.2.01-.28v-6.45c0-.12-.02-.22-.06-.3s-.13-.14-.26-.19c-.13-.05-.33-.08-.59-.09-.26-.01-.6-.02-1.04-.02v-.29c.37-.05.74-.12,1.09-.21.36-.1.67-.2.96-.3.33-.12.64-.25.93-.4v8.27c0,.07,0,.16.03.26s.09.2.21.29c.12.09.32.17.59.23s.66.1,1.18.1v.34Z"/>
      <path d="M153.05,503.76c-.05.28-.16.47-.32.57-.16.1-.33.15-.52.15s-.34-.05-.45-.15c-.11-.1-.18-.23-.21-.39-.03-.13-.01-.27.04-.4.05-.13.15-.23.3-.28.07-.12.07-.25.02-.38-.05-.13-.23-.2-.52-.2-.15,0-.33.07-.54.21-.21.14-.44.36-.68.65-.24.29-.48.66-.72,1.11s-.46.97-.66,1.57c-.2.6-.36,1.16-.47,1.66s-.16.94-.15,1.3c.01.36.1.64.25.85s.39.3.71.3c.29,0,.58-.07.84-.21.27-.14.52-.31.74-.52.23-.21.43-.42.59-.64s.3-.41.41-.57l.44.36c-.11.2-.26.44-.47.71-.21.27-.45.54-.72.8-.27.26-.56.48-.86.65-.3.18-.6.26-.89.26-.6,0-1.07-.17-1.42-.52-.34-.35-.51-.82-.51-1.4-.11.21-.26.44-.47.66-.21.23-.45.44-.71.62-.27.19-.56.34-.87.45-.31.11-.63.17-.95.17-.25,0-.48-.04-.67-.13-.19-.09-.36-.2-.5-.33-.14-.13-.25-.29-.32-.46-.07-.17-.11-.35-.11-.52,0-.76.27-1.14.82-1.14.27,0,.48.07.62.22.15.15.22.31.22.48,0,.19-.04.36-.12.51-.08.15-.2.24-.36.27-.04.2.04.33.23.38s.43.04.7-.04c.27-.08.56-.22.84-.43.29-.21.52-.47.69-.79.17-.32.35-.74.53-1.24s.34-1.02.49-1.54c.15-.51.27-.98.38-1.4.11-.42.17-.71.2-.87.01-.16,0-.32-.07-.49-.06-.17-.14-.32-.25-.46-.11-.14-.23-.26-.38-.35-.15-.09-.29-.14-.44-.14-.21,0-.43.06-.63.18-.21.12-.4.26-.58.43-.18.17-.35.34-.49.51-.15.17-.27.31-.36.4l-.34-.42c.15-.13.31-.3.48-.51.17-.21.36-.41.57-.6.21-.19.43-.35.67-.48s.51-.2.8-.2.54.07.76.21c.23.14.42.32.58.53.16.21.28.44.36.69s.11.48.1.69c.13-.15.3-.34.49-.58s.41-.47.66-.7c.25-.23.52-.42.81-.59.29-.17.61-.25.94-.25s.58.07.78.2c.2.13.35.29.46.47.11.18.17.38.2.59.03.21.03.38,0,.53Z"/>
      <path d="M160.75,513.19l-.61,2.47h-5.05c.06-.28.18-.59.36-.91.18-.32.39-.65.63-.99.24-.34.51-.67.8-1.01.29-.34.58-.68.87-1.01.23-.27.45-.52.65-.76.2-.24.38-.49.53-.74.15-.25.26-.5.35-.76s.13-.54.13-.84c0-.6-.15-1.07-.44-1.41-.29-.34-.71-.51-1.27-.51-.13,0-.29.02-.46.06s-.34.11-.5.19c-.16.09-.29.2-.4.32-.11.13-.16.28-.16.44,0,.11.02.2.05.26s.08.12.13.19c.05.06.09.14.13.21.04.08.05.19.05.34,0,.24-.08.41-.23.52s-.3.17-.43.17c-.25,0-.43-.09-.55-.26-.12-.17-.18-.39-.18-.63,0-.28.08-.55.23-.81.16-.27.36-.5.61-.71s.54-.37.87-.5c.32-.13.65-.19.99-.19.42,0,.8.06,1.14.19.34.12.63.29.88.5.24.21.43.46.57.74.13.29.2.59.2.91,0,.34-.06.65-.18.93-.12.28-.28.54-.47.79-.19.24-.4.47-.63.69-.23.22-.45.43-.67.63-.83.75-1.47,1.39-1.92,1.91-.46.52-.73.93-.82,1.22h2.62c.18,0,.34,0,.5-.03.16-.02.31-.08.46-.19s.3-.28.45-.51.31-.57.48-1l.29.1"/>
      <path d="M149.19,364.16v-.44l2.6-.25h1.35l2.44.25v.44h-6.39ZM151.63,364.16c.03-1.22.05-2.43.05-3.63v-6.58l-2.22.33v-.5l3.59-.88.24.17-.06,2.5v4.96c0,.59,0,1.19.02,1.8.01.61.02,1.22.03,1.83h-1.64Z"/>
      <path d="M211.39,455.85v-.44l2.6-.25h1.35l2.44.25v.44h-6.39ZM213.83,455.85c.03-1.22.05-2.43.05-3.63v-6.58l-2.22.33v-.5l3.59-.88.24.17-.06,2.5v4.96c0,.59,0,1.19.02,1.8.01.61.02,1.22.03,1.83h-1.64Z"/>
      <path d="M211.05,506.31v-.44l2.6-.25h1.35l2.44.25v.44h-6.39ZM213.49,506.31c.03-1.22.05-2.43.05-3.63v-6.58l-2.22.33v-.5l3.59-.88.24.17-.06,2.5v4.96c0,.59,0,1.19.02,1.8.01.61.02,1.22.03,1.83h-1.64Z"/>
      <g>
        <path d="M198.49,404.84v-.87h4.17v.87h-4.17Z"/>
        <path d="M204.69,408.68v-.44l2.6-.25h1.35l2.44.25v.44h-6.39ZM207.13,408.68c.03-1.22.05-2.43.05-3.63v-6.58l-2.22.33v-.5l3.59-.88.24.17-.06,2.5v4.96c0,.59,0,1.19.02,1.8.01.61.02,1.22.03,1.83h-1.64Z"/>
        <path d="M214.76,408.92c-.3,0-.56-.11-.75-.32-.2-.21-.3-.46-.3-.74s.1-.54.3-.75c.2-.2.45-.31.75-.31s.56.1.76.31c.2.21.31.45.31.75s-.1.53-.31.74c-.2.21-.46.32-.76.32Z"/>
        <path d="M221.28,408.92c-.9,0-1.64-.21-2.22-.61-.58-.41-.93-.99-1.05-1.73.06-.17.16-.29.29-.38.13-.08.28-.13.43-.13.23,0,.41.07.53.2.12.13.21.35.28.67l.41,1.49-.54-.44c.26.15.51.25.76.32.24.07.54.1.9.1.86,0,1.53-.25,2.01-.76.48-.51.72-1.22.72-2.15s-.23-1.67-.7-2.12c-.47-.45-1.09-.68-1.86-.68-.69,0-1.32.12-1.87.35l-.41-.17.36-5.29h5.77v1.26h-5.51l.33-.85-.33,4.75-.52-.16c.43-.22.85-.37,1.25-.46.4-.08.84-.13,1.3-.13,1.16,0,2.09.29,2.78.86.69.57,1.04,1.4,1.04,2.49,0,.72-.17,1.35-.52,1.89s-.83.95-1.45,1.24c-.62.29-1.35.43-2.19.43Z"/>
      </g>
      <g>
        <path d="M402.12,440.24v-.49l1.56-.19h.28l1.7.19v.49h-3.54ZM403.25,440.24l3.85-11.59h1.02l3.93,11.59h-1.67l-3.43-10.52h.33l-.06.22-3.29,10.3h-.69ZM404.97,436.35l.06-.5h4.85l.08.5h-4.99ZM408.48,440.24v-.49l2.11-.19h.57l2.08.19v.49h-4.75Z"/>
        <path d="M422.98,440.33l-7.06-10.35-.03-.03-.42-.63-1.48-.11v-.49h2.99l6.53,9.64-.28.09-.03-4.69v-5.05h.6v11.61h-.8ZM414,440.24v-.49l1.65-.21h.38l2.06.21v.49h-4.09ZM415.51,440.24v-11.12h.57l.09,6.37v4.75h-.66ZM421.23,429.21v-.49h4.09v.49l-1.65.19h-.35l-2.09-.19Z"/>
        <path d="M426.63,429.21v-.49h2.42v.68h-.19l-2.23-.19ZM426.63,440.24v-.49l2.23-.21h.19v.69h-2.42ZM428.19,440.24c.02-.88.03-1.78.04-2.69,0-.91,0-1.89,0-2.94v-.46c0-.93,0-1.85,0-2.75,0-.9-.02-1.79-.04-2.68h1.71c-.01.88-.02,1.77-.02,2.67,0,.9,0,1.82,0,2.75v.46c0,1.04,0,2.01,0,2.93,0,.91.01,1.81.02,2.71h-1.71ZM429.05,440.24v-.54h2.01c1.44,0,2.53-.46,3.27-1.39.75-.93,1.12-2.21,1.12-3.83s-.37-2.99-1.1-3.88c-.73-.89-1.78-1.33-3.15-1.33h-2.16v-.55h2.36c1.21,0,2.24.23,3.1.68.86.46,1.52,1.11,1.97,1.97s.68,1.89.68,3.11-.24,2.21-.72,3.07c-.48.86-1.16,1.52-2.06,1.99s-1.97.7-3.22.7h-2.12Z"/>
      </g>
      <path d="M441.55,434.22c0-.99.1-1.94.3-2.84s.45-1.74.76-2.52c.3-.78.64-1.49,1.01-2.14.37-.65.74-1.21,1.1-1.69s.7-.88,1.02-1.2c.32-.32.57-.54.75-.66.1-.07.19-.07.27.01.07.08.06.17-.04.28-.5.56-.99,1.21-1.45,1.93-.46.72-.86,1.52-1.21,2.39s-.63,1.84-.85,2.9c-.22,1.06-.33,2.22-.35,3.48-.01,1.16.06,2.22.23,3.19.17.97.39,1.85.66,2.63.27.78.56,1.47.88,2.07.32.6.62,1.11.9,1.52.28.42.53.74.73.97.21.23.33.37.38.41.12.12.14.23.08.32-.07.1-.15.11-.26.03-.36-.22-.81-.64-1.37-1.26-.56-.62-1.1-1.4-1.64-2.36-.53-.96-.99-2.07-1.37-3.33-.38-1.26-.56-2.65-.55-4.16Z"/>
      <path d="M459.93,434.46c-.06.31-.18.52-.36.63-.18.11-.37.17-.58.17s-.38-.06-.5-.17c-.13-.11-.2-.26-.23-.43-.03-.15-.01-.3.04-.45.06-.15.17-.25.33-.31.07-.13.08-.27.02-.42-.06-.15-.25-.22-.58-.22-.16,0-.36.08-.6.23-.24.16-.49.4-.76.73-.27.33-.53.74-.8,1.23s-.51,1.07-.73,1.74c-.22.67-.4,1.28-.52,1.84s-.18,1.04-.17,1.44c.01.4.11.71.28.94s.43.33.79.33c.33,0,.64-.08.94-.23.3-.16.57-.35.82-.58.25-.23.47-.47.66-.71s.34-.46.46-.63l.49.4c-.12.22-.29.49-.52.79-.23.3-.5.6-.8.89-.3.29-.62.53-.96.72-.33.2-.66.29-.99.29-.67,0-1.19-.19-1.57-.58-.38-.39-.57-.9-.57-1.56-.12.24-.29.48-.52.73-.23.25-.49.48-.79.69-.3.21-.62.38-.97.5-.35.13-.7.19-1.06.19-.28,0-.53-.05-.75-.14-.22-.1-.4-.22-.56-.37-.16-.15-.28-.32-.36-.51-.08-.19-.12-.39-.12-.58,0-.85.3-1.27.91-1.27.3,0,.53.08.69.24.16.16.24.34.24.53,0,.21-.04.4-.13.57-.09.17-.22.27-.4.3-.04.22.04.36.26.42s.48.04.78-.04c.3-.09.62-.25.94-.48.32-.23.58-.52.77-.88.19-.36.39-.82.59-1.38s.38-1.13.55-1.7c.16-.57.3-1.09.42-1.56.12-.47.19-.79.22-.97.01-.18-.01-.36-.08-.55-.07-.19-.16-.36-.28-.51-.12-.16-.26-.29-.42-.39-.16-.1-.33-.16-.49-.16-.24,0-.47.07-.7.2-.23.13-.45.29-.65.48-.2.19-.38.38-.55.57-.16.19-.3.34-.4.45l-.38-.47c.16-.15.34-.34.53-.57.19-.23.4-.45.63-.66.23-.21.48-.39.75-.53s.56-.22.89-.22.59.08.85.23c.25.16.47.35.65.59.18.24.31.49.4.77s.13.53.11.77c.15-.16.33-.38.55-.65s.46-.53.73-.78c.27-.25.58-.47.9-.66.33-.19.68-.28,1.05-.28s.65.07.87.22c.22.14.39.32.51.52.12.2.19.42.22.65.03.23.03.43,0,.59Z"/>
      <path d="M468.29,447.66h-5.52v-.4c.57,0,1-.03,1.29-.1.29-.07.5-.15.63-.25.13-.1.2-.21.21-.33,0-.12.01-.22.01-.31v-7.15c0-.13-.02-.24-.07-.33s-.14-.16-.29-.21c-.15-.05-.36-.08-.65-.1-.29-.02-.67-.02-1.15-.02v-.32c.41-.05.82-.13,1.21-.24.39-.11.75-.22,1.06-.33.36-.13.71-.28,1.03-.44v9.17c0,.08,0,.18.03.29s.1.22.24.32c.14.1.36.19.66.26s.74.11,1.31.11v.38Z"/>
      <path d="M474.61,441.34c-.1.39-.26.74-.47,1.07-.21.33-.43.61-.67.86-.24.24-.47.45-.7.6-.23.16-.42.26-.57.3-.04,0-.09-.03-.13-.09-.04-.06-.05-.1-.02-.13.13-.07.29-.2.48-.38.19-.18.36-.39.52-.63.16-.25.29-.52.39-.81.1-.3.12-.6.08-.91,0-.06-.06-.07-.19-.04-.13.03-.28.04-.45.03s-.35-.07-.55-.18c-.19-.11-.36-.34-.51-.68-.09-.19-.1-.41-.04-.65.06-.24.17-.45.32-.63s.36-.33.61-.42c.25-.1.53-.1.82-.01.52.16.86.52,1.04,1.06.17.54.18,1.09.03,1.66Z"/>
      <path d="M490.7,434.46c-.06.31-.18.52-.36.63-.18.11-.37.17-.58.17s-.38-.06-.5-.17c-.13-.11-.2-.26-.23-.43-.03-.15-.01-.3.04-.45.06-.15.17-.25.33-.31.07-.13.08-.27.02-.42-.06-.15-.25-.22-.58-.22-.16,0-.36.08-.6.23-.24.16-.49.4-.76.73-.27.33-.53.74-.8,1.23s-.51,1.07-.73,1.74c-.22.67-.4,1.28-.52,1.84s-.18,1.04-.17,1.44c.01.4.11.71.28.94s.43.33.79.33c.33,0,.64-.08.94-.23.3-.16.57-.35.82-.58.25-.23.47-.47.66-.71s.34-.46.46-.63l.49.4c-.12.22-.29.49-.52.79-.23.3-.5.6-.8.89-.3.29-.62.53-.96.72-.33.2-.66.29-.99.29-.67,0-1.19-.19-1.57-.58-.38-.39-.57-.9-.57-1.56-.12.24-.29.48-.52.73-.23.25-.49.48-.79.69-.3.21-.62.38-.97.5-.35.13-.7.19-1.06.19-.28,0-.53-.05-.75-.14-.22-.1-.4-.22-.56-.37-.16-.15-.28-.32-.36-.51-.08-.19-.12-.39-.12-.58,0-.85.3-1.27.91-1.27.3,0,.53.08.69.24.16.16.24.34.24.53,0,.21-.04.4-.13.57-.09.17-.22.27-.4.3-.04.22.04.36.26.42s.48.04.78-.04c.3-.09.62-.25.94-.48.32-.23.58-.52.77-.88.19-.36.39-.82.59-1.38s.38-1.13.55-1.7c.16-.57.3-1.09.42-1.56.12-.47.19-.79.22-.97.01-.18-.01-.36-.08-.55-.07-.19-.16-.36-.28-.51-.12-.16-.26-.29-.42-.39-.16-.1-.33-.16-.49-.16-.24,0-.47.07-.7.2-.23.13-.45.29-.65.48-.2.19-.38.38-.55.57-.16.19-.3.34-.4.45l-.38-.47c.16-.15.34-.34.53-.57.19-.23.4-.45.63-.66.23-.21.48-.39.75-.53s.56-.22.89-.22.59.08.85.23c.25.16.47.35.65.59.18.24.31.49.4.77s.13.53.11.77c.15-.16.33-.38.55-.65s.46-.53.73-.78c.27-.25.58-.47.9-.66.33-.19.68-.28,1.05-.28s.65.07.87.22c.22.14.39.32.51.52.12.2.19.42.22.65.03.23.03.43,0,.59Z"/>
      <path d="M499.24,444.92l-.68,2.74h-5.6c.07-.32.2-.65.4-1.01.2-.36.43-.72.7-1.09.27-.37.57-.75.89-1.12.32-.38.64-.75.97-1.12.26-.3.5-.58.72-.85.23-.27.42-.54.58-.82.16-.28.29-.56.38-.84s.14-.6.14-.93c0-.66-.16-1.18-.49-1.56-.32-.38-.79-.57-1.4-.57-.15,0-.32.02-.51.07s-.38.12-.55.21c-.18.1-.32.22-.44.36-.12.14-.18.31-.18.49,0,.12.02.22.06.28s.09.13.14.21c.05.07.1.15.14.24.04.09.06.21.06.37,0,.27-.09.46-.26.58s-.33.18-.48.18c-.28,0-.48-.1-.61-.29-.13-.19-.2-.43-.2-.7,0-.31.09-.61.26-.9.17-.3.4-.56.68-.79s.6-.41.96-.56c.36-.14.73-.21,1.1-.21.46,0,.88.07,1.26.21.38.14.7.32.97.56.27.23.48.51.63.83.15.32.22.65.22,1.01,0,.38-.07.72-.2,1.03-.13.31-.31.6-.52.87-.21.27-.45.53-.7.76-.26.24-.5.47-.74.7-.92.84-1.63,1.54-2.13,2.12-.51.58-.81,1.03-.91,1.35h2.91c.2,0,.38,0,.55-.03.17-.02.34-.09.51-.21s.33-.31.5-.57.34-.63.53-1.11l.32.11Z"/>
      <path d="M503.74,423.18c.18.12.43.34.75.66.32.32.66.72,1.02,1.2s.73,1.05,1.1,1.69c.37.65.71,1.36,1.01,2.14.3.78.56,1.62.76,2.52.2.9.3,1.84.3,2.84.01,1.51-.17,2.9-.55,4.16s-.83,2.37-1.37,3.33c-.53.96-1.08,1.74-1.64,2.36s-1.01,1.04-1.37,1.26c-.1.07-.19.06-.26-.03-.07-.1-.04-.2.08-.32.04-.04.17-.18.38-.41.21-.23.45-.55.74-.97.28-.42.58-.92.9-1.52.32-.6.61-1.29.88-2.07.27-.78.49-1.65.66-2.63.17-.97.25-2.04.23-3.19-.01-1.26-.13-2.42-.35-3.48-.22-1.06-.5-2.03-.86-2.9-.36-.88-.77-1.67-1.23-2.39-.46-.72-.94-1.36-1.45-1.93-.09-.1-.1-.2-.03-.28.07-.08.16-.08.28-.01Z"/>
      <polyline class="cls-2" points="296.41 446.69 314.82 446.69 314.82 421.16 332.31 421.16"/>
    </g>
    <g id="_레이어_2" data-name="레이어_2">
      <circle class="cls-3" cx="146.01" cy="83.35" r="24.78"/>
      <circle class="cls-3" cx="146.01" cy="159.38" r="24.78"/>
      <circle class="cls-3" cx="146.01" cy="233.58" r="24.78"/>
      <circle class="cls-3" cx="307.54" cy="159.38" r="24.78"/>
      <g>
        <line class="cls-2" x1="170.79" y1="83.35" x2="274.07" y2="145.57"/>
        <polygon class="cls-1" points="270.88 147.04 281.66 150.14 273.87 142.06 270.88 147.04"/>
      </g>
      <g>
        <line class="cls-2" x1="170.76" y1="158.07" x2="270.98" y2="158.07"/>
        <polygon class="cls-1" points="269 160.97 279.84 158.07 269 155.16 269 160.97"/>
      </g>
      <g>
        <line class="cls-2" x1="170.79" y1="233.58" x2="274.09" y2="170.93"/>
        <polygon class="cls-1" points="273.9 174.44 281.66 166.33 270.89 169.47 273.9 174.44"/>
      </g>
      <g>
        <line class="cls-2" x1="334.21" y1="159.38" x2="375.11" y2="158.3"/>
        <polygon class="cls-1" points="373.21 161.26 383.97 158.07 373.05 155.45 373.21 161.26"/>
      </g>
      <circle class="cls-3" cx="151.7" cy="358.58" r="24.78"/>
      <circle class="cls-3" cx="151.7" cy="434.61" r="24.78"/>
      <circle class="cls-3" cx="151.7" cy="508.81" r="24.78"/>
      <circle class="cls-3" cx="313.22" cy="434.61" r="24.78"/>
      <g>
        <line class="cls-2" x1="176.48" y1="358.58" x2="279.76" y2="420.8"/>
        <polygon class="cls-1" points="276.56 422.27 287.35 425.37 279.56 417.29 276.56 422.27"/>
      </g>
      <g>
        <line class="cls-2" x1="176.44" y1="433.3" x2="276.66" y2="433.3"/>
        <polygon class="cls-1" points="274.68 436.2 285.52 433.3 274.68 430.39 274.68 436.2"/>
      </g>
      <g>
        <line class="cls-2" x1="176.48" y1="508.81" x2="279.77" y2="446.15"/>
        <polygon class="cls-1" points="279.58 449.67 287.35 441.56 276.57 444.7 279.58 449.67"/>
      </g>
      <g>
        <line class="cls-2" x1="339.9" y1="434.61" x2="380.8" y2="433.53"/>
        <polygon class="cls-1" points="378.89 436.49 389.65 433.3 378.74 430.68 378.89 436.49"/>
      </g>
    </g>
  </g>
</svg>