<?xml version="1.0" encoding="UTF-8"?>
<svg xmlns="http://www.w3.org/2000/svg" version="1.1" viewBox="0 0 600 600">
  <defs>
    <style>
      .cls-1 {
        fill: #231815;
      }

      .cls-2, .cls-3 {
        fill: none;
        stroke: #231815;
        stroke-miterlimit: 10;
      }

      .cls-3 {
        stroke-width: 3px;
      }

      .cls-4 {
        font-family: HCRBatang, 'HCR Batang';
        font-size: 18.05px;
      }
    </style>
  </defs>
  <!-- Generator: Adobe Illustrator 28.7.1, SVG Export Plug-In . SVG Version: 1.2.0 Build 142)  -->
  <g>
    <g id="_레이어_1" data-name="레이어_1">
      <path d="M187.37,243.58v-.44l2.6-.25h1.35l2.44.25v.44h-6.39ZM189.81,243.58c.03-1.22.05-2.43.05-3.63v-6.58l-2.22.33v-.5l3.59-.88.24.17-.06,2.5v4.96c0,.59,0,1.19.02,1.8.01.61.02,1.22.03,1.83h-1.64Z"/>
      <path d="M249.57,335.26v-.44l2.6-.25h1.35l2.44.25v.44h-6.39ZM252.01,335.26c.03-1.22.05-2.43.05-3.63v-6.58l-2.22.33v-.5l3.59-.88.24.17-.06,2.5v4.96c0,.59,0,1.19.02,1.8.01.61.02,1.22.03,1.83h-1.64Z"/>
      <path d="M249.23,385.73v-.44l2.6-.25h1.35l2.44.25v.44h-6.39ZM251.67,385.73c.03-1.22.05-2.43.05-3.63v-6.58l-2.22.33v-.5l3.59-.88.24.17-.06,2.5v4.96c0,.59,0,1.19.02,1.8.01.61.02,1.22.03,1.83h-1.64Z"/>
      <g>
        <path d="M242.71,287.86v-.44l2.6-.25h1.35l2.44.25v.44h-6.39ZM245.15,287.86c.03-1.22.05-2.43.05-3.63v-6.58l-2.22.33v-.5l3.59-.88.24.17-.06,2.5v4.96c0,.59,0,1.19.02,1.8.01.61.02,1.22.03,1.83h-1.64Z"/>
        <path d="M252.77,288.1c-.3,0-.56-.1-.75-.31s-.3-.46-.3-.74.1-.54.3-.75c.2-.2.45-.31.75-.31s.56.1.76.31c.2.2.31.45.31.75s-.1.53-.31.74-.46.31-.76.31Z"/>
        <path d="M259.3,288.1c-.9,0-1.64-.2-2.22-.61-.58-.41-.93-.99-1.05-1.73.06-.17.16-.29.29-.38.13-.08.28-.13.43-.13.23,0,.41.07.53.2.12.13.21.35.28.67l.41,1.49-.54-.44c.26.15.51.25.76.32.24.07.54.1.9.1.86,0,1.53-.25,2.01-.76.48-.51.72-1.22.72-2.15s-.23-1.67-.7-2.12c-.47-.45-1.09-.68-1.86-.68-.69,0-1.32.12-1.87.35l-.41-.17.36-5.29h5.77v1.26h-5.51l.33-.85-.33,4.75-.52-.16c.43-.22.85-.37,1.25-.46.4-.08.84-.13,1.3-.13,1.16,0,2.09.29,2.78.86.69.57,1.04,1.4,1.04,2.49,0,.72-.17,1.35-.52,1.89-.35.54-.83.95-1.45,1.23-.62.29-1.35.43-2.19.43Z"/>
      </g>
      <polyline class="cls-2" points="334.59 326.1 353 326.1 353 300.57 370.49 300.57"/>
      <text class="cls-4" transform="translate(357.84 224.42)"><tspan x="0" y="0"> </tspan></text>
      <path d="M181.83,318.39c-.14.21-.32.46-.53.74-.21.28-.44.55-.69.8s-.51.47-.78.64c-.27.18-.53.26-.79.26-.28,0-.49-.08-.62-.23-.13-.15-.21-.33-.25-.53s-.04-.4-.02-.59.05-.33.09-.41l1.69-4.44c.13-.33.19-.58.18-.76s-.04-.31-.1-.39c-.06-.08-.13-.13-.23-.14-.09-.01-.16-.02-.21-.02-.18,0-.39.11-.64.33-.25.22-.53.52-.82.89s-.6.8-.93,1.3c-.32.49-.64,1.01-.94,1.56-.31.55-.6,1.1-.88,1.67s-.53,1.1-.74,1.6h-1.23l3.05-10.58c.08-.28,0-.49-.24-.63-.24-.13-.59-.19-1.05-.15l.05-.35c.35-.07.71-.15,1.08-.23.31-.07.63-.16.99-.26s.67-.2.95-.31l-3.14,10.31c.25-.38.5-.78.77-1.21s.54-.86.81-1.29.56-.84.84-1.23.57-.74.86-1.04c.29-.3.57-.54.85-.72.28-.18.56-.27.83-.27.15,0,.31.04.49.11.17.08.31.19.43.35.12.16.19.35.22.59.03.23-.01.51-.13.83l-1.66,4.36c-.15.4-.2.69-.14.88.06.19.19.26.41.21s.49-.23.83-.54c.34-.31.71-.77,1.11-1.36l.23.23Z"/>
      <path d="M187.97,324.82h-4.37v-.31c.45,0,.79-.03,1.02-.08.23-.05.4-.12.5-.2.1-.08.16-.17.16-.26s.01-.18.01-.25v-5.67c0-.1-.02-.19-.05-.26-.04-.07-.11-.12-.23-.16-.12-.04-.29-.07-.51-.08-.23-.01-.53-.02-.91-.02v-.25c.33-.04.65-.1.96-.19.31-.08.59-.17.84-.26.29-.1.56-.22.82-.35v7.26c0,.06,0,.14.02.23s.08.17.19.25c.11.08.28.15.52.21.24.06.58.08,1.04.08v.3Z"/>
      <path d="M206.36,303.78h-16.12v-.56h16.12v.56Z"/>
      <path d="M199.01,318.39c-.14.21-.32.46-.53.74-.21.28-.44.55-.69.8s-.51.47-.78.64c-.27.18-.53.26-.79.26-.28,0-.49-.08-.62-.23-.13-.15-.21-.33-.25-.53s-.04-.4-.02-.59.05-.33.09-.41l1.69-4.44c.13-.33.19-.58.18-.76s-.04-.31-.1-.39c-.06-.08-.13-.13-.23-.14-.09-.01-.16-.02-.21-.02-.18,0-.39.11-.64.33-.25.22-.53.52-.82.89s-.6.8-.93,1.3c-.32.49-.64,1.01-.94,1.56-.31.55-.6,1.1-.88,1.67s-.53,1.1-.74,1.6h-1.23l3.05-10.58c.08-.28,0-.49-.24-.63-.24-.13-.59-.19-1.05-.15l.05-.35c.35-.07.71-.15,1.08-.23.31-.07.63-.16.99-.26s.67-.2.95-.31l-3.14,10.31c.25-.38.5-.78.77-1.21s.54-.86.81-1.29.56-.84.84-1.23.57-.74.86-1.04c.29-.3.57-.54.85-.72.28-.18.56-.27.83-.27.15,0,.31.04.49.11.17.08.31.19.43.35.12.16.19.35.22.59.03.23-.01.51-.13.83l-1.66,4.36c-.15.4-.2.69-.14.88.06.19.19.26.41.21s.49-.23.83-.54c.34-.31.71-.77,1.11-1.36l.23.23Z"/>
      <path d="M205.3,322.66l-.54,2.17h-4.43c.05-.25.16-.52.32-.8.16-.28.34-.57.56-.87.21-.29.45-.59.7-.89.25-.3.51-.59.77-.88.2-.23.39-.46.57-.67.18-.21.33-.43.46-.65.13-.22.23-.44.3-.67.07-.23.11-.47.11-.74,0-.52-.13-.94-.39-1.23-.26-.3-.63-.45-1.11-.45-.12,0-.25.02-.4.05-.15.04-.3.09-.44.17-.14.08-.26.17-.35.28-.09.11-.14.24-.14.39,0,.1.02.17.05.22.03.05.07.11.11.16.04.06.08.12.11.19s.05.17.05.3c0,.21-.07.36-.21.46-.14.1-.26.15-.38.15-.22,0-.38-.08-.49-.23-.1-.15-.16-.34-.16-.56,0-.24.07-.48.2-.71.14-.23.32-.44.54-.62.22-.18.48-.33.76-.44.29-.11.58-.17.87-.17.37,0,.7.05,1,.16s.56.26.77.44c.21.19.38.4.5.65.12.25.18.52.18.8,0,.3-.05.57-.16.82-.1.25-.24.48-.41.69s-.35.42-.56.6c-.2.19-.4.37-.58.55-.73.66-1.29,1.22-1.69,1.68-.4.46-.64.81-.72,1.07h2.3c.16,0,.3,0,.44-.02s.27-.07.4-.16.26-.24.4-.45c.13-.21.27-.5.42-.88l.26.08Z"/>
      <path d="M193.65,379.24h-16.12v-.56h16.12v.56Z"/>
      <path d="M186.3,393.85c-.14.21-.32.46-.53.74-.21.28-.44.55-.69.8s-.51.47-.78.64c-.27.18-.53.26-.79.26-.28,0-.49-.08-.62-.23-.13-.15-.21-.33-.25-.53s-.04-.4-.02-.59.05-.33.09-.41l1.69-4.44c.13-.33.19-.58.18-.76s-.04-.31-.1-.39c-.06-.08-.13-.13-.23-.14-.09-.01-.16-.02-.21-.02-.18,0-.39.11-.64.33-.25.22-.53.52-.82.89s-.6.8-.93,1.3c-.32.49-.64,1.01-.94,1.56-.31.55-.6,1.1-.88,1.67s-.53,1.1-.74,1.6h-1.23l3.05-10.58c.08-.28,0-.49-.24-.63-.24-.13-.59-.19-1.05-.15l.05-.35c.35-.07.71-.15,1.08-.23.31-.07.63-.16.99-.26s.67-.2.95-.31l-3.14,10.31c.25-.38.5-.78.77-1.21s.54-.86.81-1.29.56-.84.84-1.23.57-.74.86-1.04c.29-.3.57-.54.85-.72.28-.18.56-.27.83-.27.15,0,.31.04.49.11.17.08.31.19.43.35.12.16.19.35.22.59.03.23-.01.51-.13.83l-1.66,4.36c-.15.4-.2.69-.14.88.06.19.19.26.41.21s.49-.23.83-.54c.34-.31.71-.77,1.11-1.36l.23.23Z"/>
      <path d="M192.45,400.28h-4.37v-.31c.45,0,.79-.03,1.02-.08.23-.05.4-.12.5-.2.1-.08.16-.17.16-.26s.01-.18.01-.25v-5.67c0-.1-.02-.19-.05-.26-.04-.07-.11-.12-.23-.16-.12-.04-.29-.07-.51-.08-.23-.01-.53-.02-.91-.02v-.25c.33-.04.65-.1.96-.19.31-.08.59-.17.84-.26.29-.1.56-.22.82-.35v7.26c0,.06,0,.14.02.23s.08.17.19.25c.11.08.28.15.52.21.24.06.58.08,1.04.08v.3Z"/>
      <path d="M203.71,393.85c-.14.21-.32.46-.53.74-.21.28-.44.55-.69.8s-.51.47-.78.64c-.27.18-.53.26-.79.26-.28,0-.49-.08-.62-.23-.13-.15-.21-.33-.25-.53s-.04-.4-.02-.59.05-.33.09-.41l1.69-4.44c.13-.33.19-.58.18-.76s-.04-.31-.1-.39c-.06-.08-.13-.13-.23-.14-.09-.01-.16-.02-.21-.02-.18,0-.39.11-.64.33-.25.22-.53.52-.82.89s-.6.8-.93,1.3c-.32.49-.64,1.01-.94,1.56-.31.55-.6,1.1-.88,1.67s-.53,1.1-.74,1.6h-1.23l3.05-10.58c.08-.28,0-.49-.24-.63-.24-.13-.59-.19-1.05-.15l.05-.35c.35-.07.71-.15,1.08-.23.31-.07.63-.16.99-.26s.67-.2.95-.31l-3.14,10.31c.25-.38.5-.78.77-1.21s.54-.86.81-1.29.56-.84.84-1.23.57-.74.86-1.04c.29-.3.57-.54.85-.72.28-.18.56-.27.83-.27.15,0,.31.04.49.11.17.08.31.19.43.35.12.16.19.35.22.59.03.23-.01.51-.13.83l-1.66,4.36c-.15.4-.2.69-.14.88.06.19.19.26.41.21s.49-.23.83-.54c.34-.31.71-.77,1.11-1.36l.23.23Z"/>
      <path d="M210,398.11l-.54,2.17h-4.43c.05-.25.16-.52.32-.8.16-.28.34-.57.56-.87.21-.29.45-.59.7-.89.25-.3.51-.59.77-.88.2-.23.39-.46.57-.67.18-.21.33-.43.46-.65.13-.22.23-.44.3-.67.07-.23.11-.47.11-.74,0-.52-.13-.94-.39-1.23-.26-.3-.63-.45-1.11-.45-.12,0-.25.02-.4.05-.15.04-.3.09-.44.17-.14.08-.26.17-.35.28-.09.11-.14.24-.14.39,0,.1.02.17.05.22.03.05.07.11.11.16.04.06.08.12.11.19s.05.17.05.3c0,.21-.07.36-.21.46-.14.1-.26.15-.38.15-.22,0-.38-.08-.49-.23-.1-.15-.16-.34-.16-.56,0-.24.07-.48.2-.71.14-.23.32-.44.54-.62.22-.18.48-.33.76-.44.29-.11.58-.17.87-.17.37,0,.7.05,1,.16s.56.26.77.44c.21.19.38.4.5.65.12.25.18.52.18.8,0,.3-.05.57-.16.82-.1.25-.24.48-.41.69s-.35.42-.56.6c-.2.19-.4.37-.58.55-.73.66-1.29,1.22-1.69,1.68-.4.46-.64.81-.72,1.07h2.3c.16,0,.3,0,.44-.02s.27-.07.4-.16.26-.24.4-.45c.13-.21.27-.5.42-.88l.26.08Z"/>
      <path d="M453.3,306.35c0,.2-.08.36-.23.48-.15.12-.29.18-.42.18-.12,0-.22-.02-.3-.06-.08-.04-.17-.09-.25-.14-.08-.05-.17-.1-.26-.15s-.2-.07-.33-.07c-.28,0-.53.1-.73.29-.21.19-.39.45-.56.77-.17.32-.32.7-.45,1.13s-.27.89-.4,1.39h1.99l-.11.53h-1.97c-.28,1.14-.58,2.22-.88,3.24-.13.45-.27.9-.42,1.36-.15.46-.3.9-.45,1.32-.15.42-.31.82-.48,1.19s-.32.68-.48.94c-.48.79-.97,1.4-1.46,1.83-.49.43-.99.65-1.51.65-.24,0-.4-.08-.5-.23-.1-.15-.15-.35-.15-.58,0-.2.09-.33.27-.41.18-.07.39-.11.63-.13.23-.02.46-.02.69-.02.22,0,.38-.02.48-.08.26-.15.47-.32.63-.49.16-.18.3-.43.41-.76.12-.33.24-.77.35-1.31.12-.55.27-1.27.46-2.18.07-.34.18-.76.32-1.25.14-.49.28-.97.42-1.43.17-.54.34-1.1.53-1.67h-1.69l.11-.53h1.8c.16-.49.38-1.01.64-1.55.26-.54.57-1.04.92-1.5.35-.46.72-.84,1.13-1.14.41-.3.84-.46,1.3-.46.36,0,.61.1.74.29.13.19.19.38.19.56Z"/>
    </g>
    <g id="_레이어_2" data-name="레이어_2">
      <circle class="cls-3" cx="189.88" cy="237.99" r="24.78"/>
      <circle class="cls-3" cx="189.88" cy="314.02" r="24.78"/>
      <circle class="cls-3" cx="189.88" cy="388.23" r="24.78"/>
      <circle class="cls-3" cx="351.4" cy="314.02" r="24.78"/>
      <g>
        <line class="cls-2" x1="214.65" y1="237.99" x2="317.94" y2="300.22"/>
        <polygon class="cls-1" points="314.74 301.68 325.52 304.79 317.74 296.7 314.74 301.68"/>
      </g>
      <g>
        <line class="cls-2" x1="214.62" y1="312.71" x2="314.84" y2="312.71"/>
        <polygon class="cls-1" points="312.86 315.62 323.7 312.71 312.86 309.81 312.86 315.62"/>
      </g>
      <g>
        <line class="cls-2" x1="214.65" y1="388.23" x2="317.95" y2="325.57"/>
        <polygon class="cls-1" points="317.76 329.08 325.52 320.97 314.75 324.11 317.76 329.08"/>
      </g>
      <g>
        <line class="cls-2" x1="378.07" y1="314.02" x2="418.97" y2="312.94"/>
        <polygon class="cls-1" points="417.07 315.9 427.83 312.71 416.92 310.09 417.07 315.9"/>
      </g>
    </g>
  </g>
</svg>