<?xml version="1.0" encoding="UTF-8"?>
<svg xmlns="http://www.w3.org/2000/svg" version="1.1" viewBox="0 0 600 600">
  <defs>
    <style>
      .cls-1 {
        fill: #231815;
      }

      .cls-2, .cls-3 {
        stroke: #231815;
      }

      .cls-2, .cls-3, .cls-4, .cls-5 {
        fill: none;
        stroke-miterlimit: 10;
      }

      .cls-6 {
        fill: #e60012;
      }

      .cls-3 {
        stroke-width: 3px;
      }

      .cls-4 {
        stroke: #e60012;
      }

      .cls-7 {
        font-family: HCRBatang, 'HCR Batang';
        font-size: 18.05px;
      }

      .cls-8 {
        fill: #1d2088;
      }

      .cls-5 {
        stroke: #1d2088;
      }
    </style>
  </defs>
  <!-- Generator: Adobe Illustrator 28.7.1, SVG Export Plug-In . SVG Version: 1.2.0 Build 142)  -->
  <g>
    <g id="_레이어_1" data-name="레이어_1">
      <path d="M287.05,238.15v-.44l2.6-.25h1.35l2.44.25v.44h-6.39ZM289.49,238.15c.03-1.22.05-2.43.05-3.63v-6.58l-2.22.33v-.5l3.59-.88.24.17-.06,2.5v4.96c0,.59,0,1.19.02,1.8.01.61.02,1.22.03,1.83h-1.64Z"/>
      <path d="M349.25,329.84v-.44l2.6-.25h1.35l2.44.25v.44h-6.39ZM351.68,329.84c.03-1.22.05-2.43.05-3.63v-6.58l-2.22.33v-.5l3.59-.88.24.17-.06,2.5v4.96c0,.59,0,1.19.02,1.8.01.61.02,1.22.03,1.83h-1.64Z"/>
      <path d="M348.9,380.3v-.44l2.6-.25h1.35l2.44.25v.44h-6.39ZM351.34,380.3c.03-1.22.05-2.43.05-3.63v-6.58l-2.22.33v-.5l3.59-.88.24.17-.06,2.5v4.96c0,.59,0,1.19.02,1.8s.02,1.22.03,1.83h-1.64Z"/>
      <g>
        <path d="M342.38,282.44v-.44l2.6-.25h1.35l2.44.25v.44h-6.39ZM344.82,282.44c.03-1.22.05-2.43.05-3.63v-6.58l-2.22.33v-.5l3.59-.88.24.17-.06,2.5v4.96c0,.59,0,1.19.02,1.8.01.61.02,1.22.03,1.83h-1.64Z"/>
        <path d="M352.45,282.67c-.3,0-.56-.1-.75-.31s-.3-.46-.3-.74.1-.54.3-.75c.2-.2.45-.31.75-.31s.56.1.76.31c.2.2.31.45.31.75s-.1.53-.31.74c-.21.21-.46.31-.76.31Z"/>
        <path d="M358.98,282.67c-.9,0-1.64-.2-2.22-.61-.58-.41-.93-.99-1.05-1.73.06-.17.16-.29.29-.38.13-.08.28-.13.43-.13.23,0,.41.07.53.2.12.13.21.35.28.67l.41,1.49-.54-.44c.26.15.51.25.76.32.24.07.54.1.9.1.86,0,1.53-.25,2.01-.76.48-.51.72-1.22.72-2.15s-.23-1.67-.7-2.12c-.47-.45-1.09-.68-1.86-.68-.69,0-1.32.12-1.87.35l-.41-.17.36-5.29h5.77v1.26h-5.5l.33-.85-.33,4.75-.52-.16c.43-.22.85-.37,1.25-.46.4-.08.84-.13,1.3-.13,1.16,0,2.09.29,2.78.86.69.57,1.04,1.4,1.04,2.49,0,.72-.17,1.35-.52,1.89-.35.54-.83.95-1.45,1.23-.62.29-1.35.43-2.19.43Z"/>
      </g>
      <polyline class="cls-2" points="434.26 320.68 452.67 320.68 452.67 295.15 470.17 295.15"/>
      <text class="cls-7" transform="translate(457.52 218.99)"><tspan x="0" y="0"> </tspan></text>
      <path d="M552.97,300.93c0,.2-.08.36-.23.48-.15.12-.29.18-.42.18-.12,0-.22-.02-.3-.06-.08-.04-.17-.09-.25-.14-.08-.05-.17-.1-.26-.15s-.2-.07-.33-.07c-.28,0-.53.1-.73.29-.21.19-.39.45-.56.77-.17.32-.32.7-.45,1.13s-.27.89-.4,1.39h1.99l-.11.53h-1.97c-.28,1.14-.58,2.22-.88,3.24-.13.45-.27.9-.42,1.36-.15.46-.3.9-.45,1.32-.15.42-.31.82-.48,1.19s-.32.68-.48.94c-.48.79-.97,1.4-1.46,1.83-.49.43-.99.65-1.51.65-.24,0-.4-.08-.5-.23-.1-.15-.15-.35-.15-.58,0-.2.09-.33.27-.41.18-.07.39-.11.63-.13.23-.02.46-.02.69-.02.22,0,.38-.02.48-.08.26-.15.47-.32.63-.49.16-.18.3-.43.41-.76.12-.33.24-.77.35-1.31.12-.55.27-1.27.46-2.18.07-.34.18-.76.32-1.25.14-.49.28-.97.42-1.43.17-.54.34-1.1.53-1.67h-1.69l.11-.53h1.8c.16-.49.38-1.01.64-1.55.26-.54.57-1.04.92-1.5.35-.46.72-.84,1.13-1.14.41-.3.84-.46,1.3-.46.36,0,.61.1.74.29.13.19.19.38.19.56Z"/>
      <path d="M125.58,238.41v-.44l2.6-.25h1.35l2.44.25v.44h-6.39ZM128.02,238.41c.03-1.22.05-2.43.05-3.63v-6.58l-2.22.33v-.5l3.59-.88.24.17-.06,2.5v4.96c0,.59,0,1.19.02,1.8.01.61.02,1.22.03,1.83h-1.64Z"/>
      <polyline class="cls-2" points="271.6 321.36 290.01 321.36 290.01 295.83 307.51 295.83"/>
      <polyline class="cls-2" points="271.6 395.57 290.01 395.57 290.01 370.04 307.51 370.04"/>
      <path d="M131.49,311.91c-.14.21-.32.46-.53.74s-.44.55-.69.8-.51.47-.78.64c-.27.18-.54.26-.8.26-.28,0-.49-.08-.62-.23-.13-.15-.21-.33-.25-.53-.04-.2-.04-.4-.02-.59.02-.19.05-.33.09-.42l1.7-4.45c.13-.33.19-.58.19-.76s-.04-.31-.1-.39c-.06-.08-.14-.13-.23-.14s-.17-.02-.21-.02c-.18,0-.39.11-.65.34-.25.22-.53.52-.82.89s-.6.8-.93,1.3c-.32.5-.64,1.02-.95,1.56s-.6,1.11-.88,1.67c-.28.57-.53,1.1-.74,1.61h-1.24l3.06-10.61c.08-.28,0-.49-.24-.63-.24-.13-.59-.19-1.05-.15l.05-.35c.35-.07.71-.15,1.08-.23.31-.07.64-.16.99-.26.35-.1.67-.2.96-.31l-3.15,10.34c.25-.38.5-.78.77-1.22.27-.43.54-.87.81-1.29s.56-.84.84-1.23c.28-.39.57-.74.86-1.04.29-.3.57-.54.86-.72.28-.18.56-.27.83-.27.15,0,.32.04.49.11s.32.19.43.35c.12.16.19.36.22.59s-.01.51-.13.83l-1.66,4.37c-.15.4-.2.69-.14.88.06.19.19.26.41.21.21-.05.49-.23.83-.54.34-.31.71-.77,1.11-1.37l.23.23Z"/>
      <path d="M137.66,318.58h-4.39v-.32c.45,0,.8-.03,1.03-.08.23-.05.4-.12.5-.2s.16-.17.16-.26c0-.09.01-.18.01-.25v-5.68c0-.11-.02-.19-.05-.26-.04-.07-.11-.12-.23-.16-.12-.04-.29-.07-.52-.08-.23-.01-.53-.02-.92-.02v-.25c.33-.04.65-.1.96-.19.31-.08.59-.17.84-.26.29-.1.56-.22.82-.35v7.28c0,.06,0,.14.02.23s.08.17.19.25.28.15.52.21c.24.06.58.08,1.04.08v.3Z"/>
      <path d="M132.67,385.93c-.14.21-.32.46-.53.74s-.44.55-.69.8-.51.47-.78.64c-.27.18-.54.26-.8.26-.28,0-.49-.08-.62-.23-.13-.15-.21-.33-.25-.53-.04-.2-.04-.4-.02-.59.02-.19.05-.33.09-.42l1.7-4.45c.13-.33.19-.58.19-.76s-.04-.31-.1-.39c-.06-.08-.14-.13-.23-.14s-.17-.02-.21-.02c-.18,0-.39.11-.65.34-.25.22-.53.52-.82.89s-.6.8-.93,1.3c-.32.5-.64,1.02-.95,1.56s-.6,1.11-.88,1.67c-.28.57-.53,1.1-.74,1.61h-1.24l3.06-10.61c.08-.28,0-.49-.24-.63-.24-.13-.59-.19-1.05-.15l.05-.35c.35-.07.71-.15,1.08-.23.31-.07.64-.16.99-.26.35-.1.67-.2.96-.31l-3.15,10.34c.25-.38.5-.78.77-1.22.27-.43.54-.87.81-1.29s.56-.84.84-1.23c.28-.39.57-.74.86-1.04.29-.3.57-.54.86-.72.28-.18.56-.27.83-.27.15,0,.32.04.49.11s.32.19.43.35c.12.16.19.36.22.59s-.01.51-.13.83l-1.66,4.37c-.15.4-.2.69-.14.88.06.19.19.26.41.21.21-.05.49-.23.83-.54.34-.31.71-.77,1.11-1.37l.23.23Z"/>
      <path d="M138.76,390.42l-.54,2.17h-4.44c.05-.25.16-.52.32-.8s.34-.57.56-.87c.21-.29.45-.59.7-.89.25-.3.51-.59.77-.89.2-.23.39-.46.57-.67.18-.21.33-.43.46-.65.13-.22.23-.44.31-.67.07-.23.11-.47.11-.74,0-.53-.13-.94-.39-1.24-.26-.3-.63-.45-1.11-.45-.12,0-.25.02-.4.05-.15.04-.3.09-.44.17-.14.08-.26.17-.35.29s-.14.24-.14.39c0,.1.02.17.05.22s.07.11.11.16.08.12.11.19c.03.07.05.17.05.3,0,.21-.07.36-.21.46-.14.1-.26.15-.38.15-.22,0-.38-.08-.49-.23-.11-.15-.16-.34-.16-.56,0-.24.07-.48.21-.72.14-.23.32-.44.54-.62.22-.18.48-.33.76-.44.29-.11.58-.17.87-.17.37,0,.7.05,1,.16.3.11.56.26.77.44.21.19.38.41.5.66.12.25.18.52.18.8,0,.3-.05.57-.16.82s-.24.48-.41.69c-.17.21-.35.42-.56.61-.2.19-.4.37-.59.55-.73.66-1.29,1.22-1.69,1.68-.4.46-.64.82-.72,1.07h2.31c.16,0,.3,0,.44-.02.14-.02.27-.07.4-.16.13-.09.27-.24.4-.45.13-.21.27-.5.42-.88l.26.08Z"/>
      <g>
        <path class="cls-8" d="M203.11,253.44v-.88h4.24v.88h-4.24Z"/>
        <path class="cls-8" d="M209.42,257.34v-.45l2.64-.26h1.38l2.48.26v.45h-6.5ZM211.9,257.34c.03-1.24.05-2.47.05-3.7v-6.69l-2.26.34v-.51l3.65-.9.24.18-.06,2.54v5.04c0,.6,0,1.21.02,1.83.01.62.02,1.25.03,1.86h-1.66Z"/>
        <path class="cls-8" d="M219.66,257.58c-.31,0-.57-.11-.77-.32s-.3-.46-.3-.75.1-.55.3-.76.46-.31.77-.31.57.1.78.31.31.46.31.76-.1.54-.31.75-.47.32-.78.32Z"/>
        <path class="cls-8" d="M226.3,257.58c-.92,0-1.67-.21-2.26-.62-.59-.42-.94-1-1.07-1.76.06-.17.16-.3.3-.38.13-.08.28-.13.44-.13.23,0,.41.07.54.2.12.13.22.36.28.68l.42,1.52-.54-.45c.27.15.52.26.77.33.25.07.55.1.91.1.87,0,1.56-.26,2.05-.78.49-.52.74-1.25.74-2.18s-.24-1.7-.71-2.16c-.48-.46-1.11-.69-1.9-.69-.7,0-1.34.12-1.9.35l-.42-.18.37-5.38h5.87v1.28h-5.6l.34-.86-.34,4.83-.53-.16c.44-.22.86-.38,1.27-.46.41-.08.85-.13,1.32-.13,1.18,0,2.13.29,2.83.87.7.58,1.06,1.43,1.06,2.54,0,.74-.18,1.38-.53,1.92-.35.54-.84.96-1.47,1.26-.63.29-1.37.44-2.22.44Z"/>
      </g>
      <path class="cls-8" d="M216.49,302.93v-.45l2.64-.26h1.38l2.48.26v.45h-6.5ZM218.97,302.93c.03-1.24.05-2.47.05-3.7v-6.69l-2.26.34v-.51l3.65-.9.24.18-.06,2.54v5.04c0,.6,0,1.21.02,1.83.01.62.02,1.25.03,1.86h-1.66Z"/>
      <g>
        <path class="cls-8" d="M208.78,361.16v-.88h4.24v.88h-4.24Z"/>
        <path class="cls-8" d="M215.08,365.06v-.45l2.64-.26h1.38l2.48.26v.45h-6.5ZM217.56,365.06c.03-1.24.05-2.47.05-3.7v-6.69l-2.26.34v-.51l3.65-.9.24.18-.06,2.54v5.04c0,.6,0,1.21.02,1.83.01.62.02,1.25.03,1.86h-1.66Z"/>
      </g>
      <g>
        <path class="cls-6" d="M147.87,271.96v-.88h4.24v.88h-4.24Z"/>
        <path class="cls-6" d="M154.17,275.86v-.45l2.64-.26h1.38l2.48.26v.45h-6.5ZM156.65,275.86c.03-1.24.05-2.47.05-3.7v-6.69l-2.26.34v-.51l3.65-.9.24.18-.06,2.54v5.04c0,.6,0,1.21.02,1.83.01.62.02,1.25.03,1.86h-1.66Z"/>
        <path class="cls-6" d="M164.41,276.1c-.31,0-.57-.11-.77-.32s-.3-.46-.3-.75.1-.55.3-.76.46-.31.77-.31.57.1.78.31.31.46.31.76-.1.54-.31.75-.47.32-.78.32Z"/>
        <path class="cls-6" d="M171.05,276.1c-.92,0-1.67-.21-2.26-.62-.59-.42-.94-1-1.07-1.76.06-.17.16-.3.3-.38.13-.08.28-.13.44-.13.23,0,.41.07.54.2.12.13.22.36.28.68l.42,1.52-.54-.45c.27.15.52.26.77.33.25.07.55.1.91.1.87,0,1.56-.26,2.05-.78.49-.52.74-1.25.74-2.18s-.24-1.7-.71-2.16c-.48-.46-1.11-.69-1.9-.69-.7,0-1.34.12-1.9.35l-.42-.18.37-5.38h5.87v1.28h-5.6l.34-.86-.34,4.83-.53-.16c.44-.22.86-.38,1.27-.46.41-.08.85-.13,1.32-.13,1.18,0,2.13.29,2.83.87.7.58,1.06,1.43,1.06,2.54,0,.74-.18,1.38-.53,1.92-.35.54-.84.96-1.47,1.26-.63.29-1.37.44-2.22.44Z"/>
      </g>
      <g>
        <path class="cls-6" d="M159.43,332.01v-.88h4.24v.88h-4.24Z"/>
        <path class="cls-6" d="M165.73,335.91v-.45l2.64-.26h1.38l2.48.26v.45h-6.5ZM168.21,335.91c.03-1.24.05-2.47.05-3.7v-6.69l-2.26.34v-.51l3.65-.9.24.18-.06,2.54v5.04c0,.6,0,1.21.02,1.83.01.62.02,1.25.03,1.86h-1.66Z"/>
      </g>
      <path class="cls-6" d="M166.53,399.87v-.45l2.64-.26h1.38l2.48.26v.45h-6.5ZM169.01,399.87c.03-1.24.05-2.47.05-3.7v-6.69l-2.26.34v-.51l3.65-.9.24.18-.06,2.54v5.04c0,.6,0,1.21.02,1.83s.02,1.25.03,1.86h-1.66Z"/>
    </g>
    <g id="_레이어_2" data-name="레이어_2">
      <circle class="cls-3" cx="289.55" cy="232.57" r="24.78"/>
      <circle class="cls-3" cx="289.55" cy="308.6" r="24.78"/>
      <circle class="cls-3" cx="289.55" cy="382.8" r="24.78"/>
      <circle class="cls-3" cx="452.22" cy="307.94" r="24.78"/>
      <g>
        <line class="cls-2" x1="314.33" y1="232.57" x2="417.61" y2="294.79"/>
        <polygon class="cls-1" points="414.42 296.26 425.2 299.36 417.42 291.28 414.42 296.26"/>
      </g>
      <g>
        <line class="cls-2" x1="314.3" y1="307.29" x2="414.52" y2="307.29"/>
        <polygon class="cls-1" points="412.54 310.19 423.38 307.29 412.54 304.38 412.54 310.19"/>
      </g>
      <g>
        <line class="cls-2" x1="314.33" y1="382.8" x2="417.63" y2="320.14"/>
        <polygon class="cls-1" points="417.44 323.66 425.2 315.55 414.43 318.69 417.44 323.66"/>
      </g>
      <g>
        <line class="cls-2" x1="477.75" y1="308.6" x2="518.65" y2="307.52"/>
        <polygon class="cls-1" points="516.75 310.48 527.51 307.29 516.59 304.67 516.75 310.48"/>
      </g>
      <path class="cls-3" d="M152.86,232.82c0-13.68-11.09-24.78-24.78-24.78s-24.78,11.09-24.78,24.78,11.09,24.78,24.78,24.78,24.78-11.09,24.78-24.78"/>
      <path class="cls-3" d="M152.86,308.85c0-13.68-11.09-24.78-24.78-24.78s-24.78,11.09-24.78,24.78,11.09,24.78,24.78,24.78,24.78-11.09,24.78-24.78"/>
      <g>
        <line class="cls-8" x1="152.64" y1="232.17" x2="263.51" y2="298.97"/>
        <g>
          <line class="cls-5" x1="152.64" y1="232.17" x2="255.92" y2="294.39"/>
          <polygon class="cls-8" points="252.72 295.86 263.51 298.97 255.72 290.88 252.72 295.86"/>
        </g>
      </g>
      <g>
        <line class="cls-8" x1="152.6" y1="306.89" x2="261.68" y2="306.89"/>
        <g>
          <line class="cls-5" x1="152.6" y1="306.89" x2="252.82" y2="306.89"/>
          <polygon class="cls-8" points="250.84 309.8 261.68 306.89 250.84 303.98 250.84 309.8"/>
        </g>
      </g>
      <g>
        <line class="cls-8" x1="152.64" y1="382.41" x2="263.51" y2="315.15"/>
        <g>
          <line class="cls-5" x1="152.64" y1="382.41" x2="255.93" y2="319.75"/>
          <polygon class="cls-8" points="255.74 323.26 263.51 315.15 252.73 318.29 255.74 323.26"/>
        </g>
      </g>
      <g>
        <line class="cls-4" x1="153.52" y1="306.89" x2="254.26" y2="372.43"/>
        <polygon class="cls-6" points="251.01 373.78 261.68 377.26 254.18 368.91 251.01 373.78"/>
      </g>
      <g>
        <line class="cls-4" x1="152.86" y1="232.82" x2="256.18" y2="363.1"/>
        <polygon class="cls-6" points="252.67 363.35 261.68 370.04 257.22 359.74 252.67 363.35"/>
      </g>
      <path class="cls-3" d="M152.04,384.88c0-13.68-11.09-24.78-24.78-24.78s-24.78,11.09-24.78,24.78,11.09,24.78,24.78,24.78,24.78-11.09,24.78-24.78"/>
      <g>
        <line class="cls-4" x1="153.06" y1="382.8" x2="253.28" y2="382.8"/>
        <polygon class="cls-6" points="251.3 385.71 262.14 382.8 251.3 379.9 251.3 385.71"/>
      </g>
    </g>
  </g>
</svg>