<?xml version="1.0" encoding="UTF-8"?>
<svg xmlns="http://www.w3.org/2000/svg" version="1.1" viewBox="0 0 600 600">
  <defs>
    <style>
      .cls-1 {
        fill: #231815;
      }

      .cls-2, .cls-3, .cls-4, .cls-5, .cls-6 {
        fill: none;
      }

      .cls-2, .cls-4 {
        stroke: #231815;
      }

      .cls-2, .cls-4, .cls-5, .cls-6 {
        stroke-miterlimit: 10;
      }

      .cls-7 {
        fill: #e60012;
      }

      .cls-4 {
        stroke-width: 3px;
      }

      .cls-5 {
        stroke: #e60012;
      }

      .cls-8 {
        fill: #1d2088;
      }

      .cls-6 {
        stroke: #1d2088;
      }
    </style>
  </defs>
  <!-- Generator: Adobe Illustrator 28.7.1, SVG Export Plug-In . SVG Version: 1.2.0 Build 142)  -->
  <g>
    <g id="_레이어_1" data-name="레이어_1">
      <path d="M340.26,243.1v-.4l2.37-.23h1.24l2.23.23v.4h-5.84ZM342.5,243.1c.03-1.11.04-2.22.04-3.32v-6.02l-2.03.3v-.46l3.28-.81.22.16-.06,2.29v4.53c0,.54,0,1.09.01,1.65,0,.56.02,1.12.03,1.68h-1.5Z"/>
      <path d="M397.17,326.99v-.4l2.38-.23h1.24l2.23.23v.4h-5.84ZM399.41,326.99c.03-1.11.04-2.22.04-3.33v-6.02l-2.03.3v-.46l3.28-.81.22.16-.06,2.29v4.53c0,.54,0,1.09.02,1.65,0,.56.02,1.12.03,1.68h-1.5Z"/>
      <path d="M396.86,373.17v-.4l2.38-.23h1.24l2.23.23v.4h-5.84ZM399.09,373.17c.03-1.11.04-2.22.04-3.33v-6.02l-2.03.3v-.46l3.28-.81.22.16-.06,2.29v4.53c0,.54,0,1.09.02,1.65,0,.56.02,1.12.03,1.68h-1.5Z"/>
      <g>
        <path d="M390.9,283.62v-.4l2.37-.23h1.24l2.23.23v.4h-5.84ZM393.13,283.62c.03-1.11.04-2.22.04-3.32v-6.02l-2.03.3v-.46l3.28-.81.22.16-.06,2.29v4.53c0,.54,0,1.09.01,1.65,0,.56.02,1.12.03,1.68h-1.5Z"/>
        <path d="M400.11,283.83c-.28,0-.51-.1-.69-.29-.18-.19-.27-.42-.27-.68s.09-.5.27-.68c.18-.19.41-.28.69-.28s.51.09.7.28.28.42.28.68-.09.48-.28.68c-.19.19-.42.29-.7.29Z"/>
        <path d="M406.08,283.83c-.83,0-1.5-.19-2.03-.56-.53-.37-.85-.9-.96-1.58.06-.15.15-.27.27-.35.12-.08.25-.11.4-.11.21,0,.37.06.48.18.11.12.19.32.25.61l.37,1.37-.49-.4c.24.13.47.23.69.29.22.06.49.09.82.09.79,0,1.4-.23,1.84-.7.44-.47.66-1.12.66-1.96s-.21-1.53-.64-1.94-1-.62-1.71-.62c-.63,0-1.21.11-1.71.32l-.38-.16.33-4.84h5.28v1.15h-5.04l.3-.78-.3,4.35-.47-.14c.39-.2.77-.34,1.14-.42.37-.08.77-.12,1.19-.12,1.07,0,1.92.26,2.55.78.63.52.95,1.28.95,2.28,0,.66-.16,1.24-.48,1.73-.32.49-.76.87-1.32,1.13-.57.26-1.23.4-2,.4Z"/>
      </g>
      <polyline class="cls-2" points="474.96 318.61 491.81 318.61 491.81 295.25 507.82 295.25"/>
      <path d="M583.59,300.54c0,.18-.07.33-.21.44-.14.11-.27.16-.39.16-.11,0-.2-.02-.27-.06-.08-.04-.15-.08-.23-.13-.08-.05-.15-.09-.23-.14s-.18-.06-.3-.06c-.26,0-.48.09-.67.26-.19.18-.36.41-.51.71-.15.29-.29.64-.41,1.04s-.24.82-.36,1.27h1.82l-.1.48h-1.81c-.26,1.04-.53,2.03-.81,2.97-.12.41-.24.82-.38,1.24-.13.42-.27.82-.41,1.21-.14.39-.29.75-.44,1.09s-.3.63-.44.86c-.44.72-.89,1.28-1.33,1.68-.45.4-.91.6-1.38.6-.22,0-.37-.07-.46-.21-.09-.14-.14-.32-.14-.53,0-.18.08-.31.25-.37.17-.06.36-.1.57-.12.21-.02.42-.02.63-.02.2,0,.35-.02.44-.07.24-.14.43-.29.57-.45.14-.16.27-.39.38-.69.11-.3.22-.7.32-1.2.11-.5.25-1.16.42-1.99.06-.31.16-.69.29-1.15.13-.45.26-.89.39-1.31.15-.49.31-1.01.48-1.53h-1.55l.1-.48h1.65c.15-.45.35-.92.59-1.42.24-.5.52-.96.84-1.37.32-.42.66-.77,1.03-1.04.37-.28.77-.42,1.19-.42.33,0,.56.09.68.27.12.18.18.35.18.51Z"/>
      <polyline class="cls-2" points="326.13 319.24 342.97 319.24 342.97 295.87 358.98 295.87"/>
      <polyline class="cls-2" points="326.13 387.14 342.97 387.14 342.97 363.77 358.98 363.77"/>
      <g>
        <path class="cls-8" d="M263.46,257.09v-.81h3.88v.81h-3.88Z"/>
        <path class="cls-8" d="M269.23,260.66v-.41l2.42-.23h1.26l2.27.23v.41h-5.94ZM271.5,260.66c.03-1.13.04-2.26.04-3.38v-6.12l-2.06.31v-.47l3.34-.82.22.16-.06,2.33v4.61c0,.55,0,1.11.01,1.68s.02,1.14.03,1.71h-1.52Z"/>
        <path class="cls-8" d="M278.6,260.88c-.28,0-.52-.1-.7-.29-.19-.2-.28-.42-.28-.69s.09-.51.28-.7c.19-.19.42-.29.7-.29s.52.1.71.29c.19.19.29.42.29.7s-.1.49-.29.69c-.19.2-.43.29-.71.29Z"/>
        <path class="cls-8" d="M284.67,260.88c-.84,0-1.53-.19-2.06-.57-.54-.38-.86-.92-.98-1.61.06-.16.15-.27.27-.35s.26-.12.4-.12c.21,0,.38.06.49.18.11.12.2.33.26.62l.38,1.39-.5-.41c.24.14.48.24.7.3.22.06.5.1.83.1.8,0,1.42-.24,1.87-.71.45-.47.67-1.14.67-2s-.22-1.56-.65-1.98c-.43-.42-1.01-.63-1.73-.63-.64,0-1.23.11-1.74.32l-.38-.16.34-4.92h5.37v1.17h-5.12l.31-.79-.31,4.42-.48-.15c.4-.21.79-.35,1.16-.42.38-.08.78-.12,1.21-.12,1.08,0,1.95.27,2.59.8.64.53.97,1.31.97,2.32,0,.67-.16,1.26-.48,1.76-.32.5-.77.88-1.35,1.15-.58.27-1.25.4-2.03.4Z"/>
      </g>
      <path class="cls-8" d="M275.7,302.37v-.41l2.42-.23h1.26l2.27.23v.41h-5.94ZM277.97,302.37c.03-1.13.04-2.26.04-3.38v-6.12l-2.06.31v-.47l3.34-.82.22.16-.06,2.33v4.61c0,.55,0,1.11.01,1.68s.02,1.14.03,1.71h-1.52Z"/>
      <g>
        <path class="cls-8" d="M268.64,355.65v-.8h3.88v.8h-3.88Z"/>
        <path class="cls-8" d="M274.41,359.22v-.41l2.42-.23h1.26l2.27.23v.41h-5.94ZM276.68,359.22c.03-1.13.04-2.26.04-3.38v-6.12l-2.06.31v-.47l3.34-.82.22.16-.06,2.33v4.61c0,.55,0,1.11.01,1.68,0,.57.02,1.14.03,1.71h-1.52Z"/>
      </g>
      <g>
        <path class="cls-7" d="M212.91,274.03v-.81h3.88v.81h-3.88Z"/>
        <path class="cls-7" d="M218.68,277.6v-.41l2.42-.23h1.26l2.27.23v.41h-5.94ZM220.95,277.6c.03-1.13.04-2.26.04-3.38v-6.12l-2.06.31v-.47l3.34-.82.22.16-.06,2.33v4.61c0,.55,0,1.11.01,1.68s.02,1.14.03,1.71h-1.52Z"/>
        <path class="cls-7" d="M228.05,277.82c-.28,0-.52-.1-.7-.29-.19-.2-.28-.42-.28-.69s.09-.51.28-.7c.19-.19.42-.29.7-.29s.52.1.71.29c.19.19.29.42.29.7s-.1.49-.29.69c-.19.2-.43.29-.71.29Z"/>
        <path class="cls-7" d="M234.12,277.82c-.84,0-1.53-.19-2.06-.57-.54-.38-.86-.92-.98-1.61.06-.16.15-.27.27-.35s.26-.12.4-.12c.21,0,.38.06.49.18.11.12.2.33.26.62l.38,1.39-.5-.41c.24.14.48.24.7.3.22.06.5.1.83.1.8,0,1.42-.24,1.87-.71.45-.47.67-1.14.67-2s-.22-1.56-.65-1.98c-.43-.42-1.01-.63-1.73-.63-.64,0-1.23.11-1.74.32l-.38-.16.34-4.92h5.37v1.17h-5.12l.31-.79-.31,4.42-.48-.15c.4-.21.79-.35,1.16-.42.38-.08.78-.12,1.21-.12,1.08,0,1.95.27,2.59.8.64.53.97,1.31.97,2.32,0,.67-.16,1.26-.48,1.76-.32.5-.77.88-1.35,1.15-.58.27-1.25.4-2.03.4Z"/>
      </g>
      <g>
        <path class="cls-7" d="M223.49,328.98v-.8h3.88v.8h-3.88Z"/>
        <path class="cls-7" d="M229.26,332.55v-.41l2.42-.23h1.26l2.27.23v.41h-5.94ZM231.53,332.55c.03-1.13.04-2.26.04-3.38v-6.12l-2.06.31v-.47l3.34-.82.22.16-.06,2.33v4.61c0,.55,0,1.11.01,1.68,0,.57.02,1.14.03,1.71h-1.52Z"/>
      </g>
      <path class="cls-7" d="M229.98,391.07v-.41l2.42-.23h1.26l2.27.23v.41h-5.94ZM232.25,391.07c.03-1.13.04-2.26.04-3.38v-6.12l-2.06.31v-.47l3.34-.82.22.16-.06,2.33v4.61c0,.55,0,1.11.01,1.68,0,.57.02,1.14.03,1.71h-1.52Z"/>
      <path d="M44.59,243.48v-.4l2.37-.23h1.24l2.23.23v.4h-5.84ZM46.82,243.48c.03-1.11.04-2.22.04-3.32v-6.02l-2.03.3v-.46l3.28-.81.22.16-.06,2.29v4.53c0,.54,0,1.09.01,1.65,0,.56.02,1.12.03,1.68h-1.5Z"/>
      <line class="cls-2" x1="195.58" y1="296.81" x2="211.59" y2="296.81"/>
      <polyline class="cls-2" points="178.73 320.17 195.58 320.17 195.58 296.81"/>
      <line class="cls-2" x1="195.01" y1="365.97" x2="211.02" y2="365.97"/>
      <polyline class="cls-2" points="178.17 389.34 195.01 389.34 195.01 365.97"/>
      <path d="M192.48,241.23v-.4l2.37-.23h1.24l2.23.23v.4h-5.84ZM194.71,241.23c.03-1.11.04-2.22.04-3.32v-6.02l-2.03.3v-.46l3.28-.81.22.16-.06,2.29v4.53c0,.54,0,1.09.01,1.65,0,.56.02,1.12.03,1.68h-1.5Z"/>
      <path d="M49.04,303.03c-.05.28-.16.47-.32.57-.16.1-.33.15-.52.15s-.34-.05-.45-.15c-.11-.1-.18-.23-.21-.39-.03-.13-.01-.27.04-.4.05-.13.15-.23.3-.28.07-.12.07-.25.02-.38-.05-.13-.23-.2-.52-.2-.15,0-.33.07-.54.21-.21.14-.44.36-.68.65-.24.29-.48.66-.72,1.11s-.46.97-.66,1.57c-.2.6-.36,1.16-.47,1.66s-.16.94-.15,1.3c.01.36.1.64.25.85s.39.3.71.3c.29,0,.58-.07.84-.21.27-.14.52-.31.74-.52.23-.21.43-.42.59-.64s.3-.41.41-.57l.44.36c-.11.2-.26.44-.47.71-.21.27-.45.54-.72.8-.27.26-.56.48-.86.65-.3.18-.6.26-.89.26-.6,0-1.07-.17-1.42-.52-.34-.35-.51-.82-.51-1.4-.11.21-.26.44-.47.66-.21.23-.45.44-.71.62-.27.19-.56.34-.87.45-.31.11-.63.17-.95.17-.25,0-.48-.04-.67-.13-.19-.09-.36-.2-.5-.33-.14-.13-.25-.29-.32-.46-.07-.17-.11-.35-.11-.52,0-.76.27-1.14.82-1.14.27,0,.48.07.62.22.15.15.22.31.22.48,0,.19-.04.36-.12.51-.08.15-.2.24-.36.27-.04.2.04.33.23.38s.43.04.7-.04c.27-.08.56-.22.84-.43.29-.21.52-.47.69-.79.17-.32.35-.74.53-1.24s.34-1.02.49-1.54c.15-.51.27-.98.38-1.4.11-.42.17-.71.2-.87.01-.16,0-.32-.07-.49-.06-.17-.14-.32-.25-.46-.11-.14-.23-.26-.38-.35-.15-.09-.29-.14-.44-.14-.21,0-.43.06-.63.18-.21.12-.4.26-.58.43-.18.17-.35.34-.49.51-.15.17-.27.31-.36.4l-.34-.42c.15-.13.31-.3.48-.51.17-.21.36-.41.57-.6.21-.19.43-.35.67-.48s.51-.2.8-.2.54.07.76.21c.23.14.42.32.58.53.16.21.28.44.36.69s.11.48.1.69c.13-.15.3-.34.49-.58s.41-.47.66-.7c.25-.23.52-.42.81-.59.29-.17.61-.25.94-.25s.58.07.78.2c.2.13.35.29.46.47.11.18.17.38.2.59.03.21.03.38,0,.53Z"/>
      <path d="M56.58,314.93h-4.98v-.36c.51,0,.9-.03,1.16-.09.26-.06.45-.14.57-.23.12-.09.18-.19.19-.3,0-.11.01-.2.01-.28v-6.45c0-.12-.02-.22-.06-.3s-.13-.14-.26-.19c-.13-.05-.33-.08-.59-.09-.26-.01-.6-.02-1.04-.02v-.29c.37-.05.74-.12,1.09-.21.36-.1.67-.2.96-.3.33-.12.64-.25.93-.4v8.27c0,.07,0,.16.03.26s.09.2.21.29c.12.09.32.17.59.23s.66.1,1.18.1v.34Z"/>
      <path d="M48.96,372.88c-.05.28-.16.47-.32.57-.16.1-.33.15-.52.15s-.34-.05-.45-.15c-.11-.1-.18-.23-.21-.39-.03-.13-.01-.27.04-.4.05-.13.15-.23.3-.28.07-.12.07-.25.02-.38-.05-.13-.23-.2-.52-.2-.15,0-.33.07-.54.21-.21.14-.44.36-.68.65-.24.29-.48.66-.72,1.11s-.46.97-.66,1.57c-.2.6-.36,1.16-.47,1.66s-.16.94-.15,1.3c.01.36.1.64.25.85s.39.3.71.3c.29,0,.58-.07.84-.21.27-.14.52-.31.74-.52.23-.21.43-.42.59-.64s.3-.41.41-.57l.44.36c-.11.2-.26.44-.47.71-.21.27-.45.54-.72.8-.27.26-.56.48-.86.65-.3.18-.6.26-.89.26-.6,0-1.07-.17-1.42-.52-.34-.35-.51-.82-.51-1.4-.11.21-.26.44-.47.66-.21.23-.45.44-.71.62-.27.19-.56.34-.87.45-.31.11-.63.17-.95.17-.25,0-.48-.04-.67-.13-.19-.09-.36-.2-.5-.33-.14-.13-.25-.29-.32-.46-.07-.17-.11-.35-.11-.52,0-.76.27-1.14.82-1.14.27,0,.48.07.62.22.15.15.22.31.22.48,0,.19-.04.36-.12.51-.08.15-.2.24-.36.27-.04.2.04.33.23.38s.43.04.7-.04c.27-.08.56-.22.84-.43.29-.21.52-.47.69-.79.17-.32.35-.74.53-1.24s.34-1.02.49-1.54c.15-.51.27-.98.38-1.4.11-.42.17-.71.2-.87.01-.16,0-.32-.07-.49-.06-.17-.14-.32-.25-.46-.11-.14-.23-.26-.38-.35-.15-.09-.29-.14-.44-.14-.21,0-.43.06-.63.18-.21.12-.4.26-.58.43-.18.17-.35.34-.49.51-.15.17-.27.31-.36.4l-.34-.42c.15-.13.31-.3.48-.51.17-.21.36-.41.57-.6.21-.19.43-.35.67-.48s.51-.2.8-.2.54.07.76.21c.23.14.42.32.58.53.16.21.28.44.36.69s.11.48.1.69c.13-.15.3-.34.49-.58s.41-.47.66-.7c.25-.23.52-.42.81-.59.29-.17.61-.25.94-.25s.58.07.78.2c.2.13.35.29.46.47.11.18.17.38.2.59.03.21.03.38,0,.53Z"/>
      <path d="M56.66,382.31l-.61,2.47h-5.05c.06-.28.18-.59.36-.91.18-.32.39-.65.63-.99.24-.34.51-.67.8-1.01.29-.34.58-.68.87-1.01.23-.27.45-.52.65-.76.2-.24.38-.49.53-.74.15-.25.26-.5.35-.76s.13-.54.13-.84c0-.6-.15-1.07-.44-1.41-.29-.34-.71-.51-1.27-.51-.13,0-.29.02-.46.06s-.34.11-.5.19c-.16.09-.29.2-.4.32-.11.13-.16.28-.16.44,0,.11.02.2.05.26s.08.12.13.19c.05.06.09.14.13.21.04.08.05.19.05.34,0,.24-.08.41-.23.52s-.3.17-.43.17c-.25,0-.43-.09-.55-.26-.12-.17-.18-.39-.18-.63,0-.28.08-.55.23-.81.16-.27.36-.5.61-.71s.54-.37.87-.5c.32-.13.65-.19.99-.19.42,0,.8.06,1.14.19.34.12.63.29.88.5.24.21.43.46.57.74.13.29.2.59.2.91,0,.34-.06.65-.18.93-.12.28-.28.54-.47.79-.19.24-.4.47-.63.69-.23.22-.45.43-.67.63-.83.75-1.47,1.39-1.92,1.91-.46.52-.73.93-.82,1.22h2.62c.18,0,.34,0,.5-.03.16-.02.31-.08.46-.19s.3-.28.45-.51.31-.57.48-1l.29.1"/>
      <path class="cls-7" d="M120.38,389.44c-.2,0-.39.03-.57.08-.19.06-.36.12-.51.21-.16.08-.29.18-.42.28-.12.1-.21.2-.27.29l-5.1,7.68h-.33l.13-6.57-4.36,6.54h-.3l.17-7.82c0-.11,0-.21-.03-.29-.02-.09-.07-.16-.15-.22-.08-.06-.19-.11-.33-.14-.14-.03-.35-.05-.6-.05l.13-.38h3.71l-.13.38c-.35,0-.62.03-.81.09-.19.06-.34.13-.43.22-.09.08-.15.17-.17.25-.02.09-.04.15-.04.2l-.19,5.79,3.54-5.26c.03-.24.03-.44.02-.6-.02-.16-.07-.3-.15-.4-.08-.1-.2-.18-.35-.22-.15-.05-.35-.07-.61-.07l.13-.38h3.69l-.13.38c-.35,0-.62.04-.82.11-.2.07-.34.15-.44.24-.09.09-.15.18-.18.27-.03.09-.04.15-.04.18l-.16,5.8,3.65-5.35c.1-.14.16-.29.19-.44.03-.15.02-.28-.03-.41-.05-.12-.14-.22-.28-.3-.14-.08-.33-.11-.58-.11l.13-.38h3.15l-.13.38Z"/>
      <path class="cls-7" d="M122.08,400.95h-3.15v-.23c.33,0,.57-.02.74-.06.17-.04.29-.09.36-.14.07-.06.11-.12.12-.19s0-.13,0-.18v-4.08c0-.08-.01-.14-.04-.19s-.08-.09-.16-.12c-.08-.03-.21-.05-.37-.06-.16,0-.38-.01-.66-.01v-.18c.24-.03.47-.07.69-.14s.43-.12.61-.19c.21-.08.4-.16.59-.25v5.23s0,.1.02.17.06.12.13.18.2.11.38.15.42.06.75.06v.22Z"/>
      <path class="cls-7" d="M124.74,392.09h-.34v-5.07h-2.71v-.32h5.75v.32h-2.7v5.07Z"/>
      <path class="cls-7" d="M139.21,397.96h-3.88l.13-.38c.08,0,.19,0,.34-.02.15-.01.29-.04.44-.07.14-.03.26-.09.35-.17.09-.08.12-.18.08-.3l-.97-3.09-2.66,2.63c-.15.15-.24.29-.27.42-.03.13-.01.24.06.32s.18.16.33.2c.15.05.33.07.53.07l-.13.38h-3.32l.13-.38c.39,0,.76-.08,1.12-.25.36-.17.68-.39.97-.67l3.12-3.06-1.13-3.77c-.03-.08-.06-.14-.09-.19-.03-.05-.09-.09-.18-.12-.08-.03-.2-.05-.36-.06-.16-.01-.37-.01-.63,0l.13-.38h3.63l-.13.38c-.49,0-.81.04-.96.13-.15.08-.19.24-.13.46l.83,2.7,2.38-2.39c.1-.1.19-.21.25-.32.07-.11.09-.21.07-.29-.02-.08-.09-.15-.22-.21-.13-.05-.34-.08-.63-.08l.13-.38h3.06l-.13.38c-.23,0-.43.01-.6.04-.17.03-.32.06-.45.11-.13.05-.25.11-.35.18-.1.07-.2.15-.29.25l-3.1,3.08,1.16,3.64c.05.17.13.31.23.42.1.11.21.2.34.26.13.06.27.11.42.13.15.02.32.03.48.03l-.13.38Z"/>
      <path class="cls-8" d="M126.15,245.79c-.2,0-.39.03-.57.08-.19.06-.36.12-.51.21-.16.08-.29.18-.42.28-.12.1-.21.2-.27.29l-5.1,7.68h-.33l.13-6.57-4.36,6.54h-.3l.17-7.82c0-.11,0-.21-.03-.29-.02-.09-.07-.16-.15-.22-.08-.06-.19-.11-.33-.14-.14-.03-.35-.05-.6-.05l.13-.38h3.71l-.13.38c-.35,0-.62.03-.81.09-.19.06-.34.13-.43.22-.09.08-.15.17-.17.25-.02.09-.04.15-.04.2l-.19,5.79,3.54-5.26c.03-.24.03-.44.02-.6-.02-.16-.07-.3-.15-.4-.08-.1-.2-.18-.35-.22-.15-.05-.35-.07-.61-.07l.13-.38h3.69l-.13.38c-.35,0-.62.04-.82.11-.2.07-.34.15-.44.24-.09.09-.15.18-.18.27-.03.09-.04.15-.04.18l-.16,5.8,3.65-5.35c.1-.14.16-.29.19-.44.03-.15.02-.28-.03-.41-.05-.12-.14-.22-.28-.3-.14-.08-.33-.11-.58-.11l.13-.38h3.15l-.13.38Z"/>
      <path class="cls-8" d="M128.11,255.74l-.39,1.56h-3.19c.04-.18.12-.37.23-.58.11-.2.25-.41.4-.62.15-.21.32-.43.51-.64.18-.21.37-.43.55-.64.15-.17.28-.33.41-.48.13-.15.24-.31.33-.47.09-.16.17-.32.22-.48.05-.16.08-.34.08-.53,0-.38-.09-.67-.28-.89-.19-.22-.45-.32-.8-.32-.08,0-.18.01-.29.04-.11.03-.21.07-.32.12-.1.06-.19.12-.25.21-.07.08-.1.17-.1.28,0,.07.01.12.03.16.02.04.05.08.08.12.03.04.06.09.08.14s.03.12.03.21c0,.15-.05.26-.15.33-.1.07-.19.1-.27.1-.16,0-.27-.06-.35-.17-.08-.11-.11-.24-.11-.4,0-.17.05-.35.15-.51.1-.17.23-.32.39-.45s.34-.24.55-.32c.21-.08.41-.12.63-.12.26,0,.5.04.72.12.22.08.4.18.56.32.15.13.27.29.36.47.08.18.13.37.13.58,0,.21-.04.41-.11.59-.08.18-.17.34-.29.5-.12.15-.25.3-.4.44-.15.14-.29.27-.42.4-.52.48-.93.88-1.22,1.21-.29.33-.46.59-.52.77h1.66c.11,0,.22,0,.32-.02s.2-.05.29-.12c.1-.07.19-.17.29-.32s.2-.36.3-.63l.19.06Z"/>
      <path class="cls-8" d="M130.51,248.45h-.34v-5.07h-2.71v-.32h5.75v.32h-2.7v5.07Z"/>
      <path class="cls-8" d="M145.14,254.31h-3.88l.13-.38c.08,0,.19,0,.34-.02.15-.01.29-.04.44-.07.14-.03.26-.09.35-.17.09-.08.12-.18.08-.3l-.97-3.09-2.66,2.63c-.15.15-.24.29-.27.42-.03.13-.01.24.06.32s.18.16.33.2c.15.05.33.07.53.07l-.13.38h-3.32l.13-.38c.39,0,.76-.08,1.12-.25.36-.17.68-.39.97-.67l3.12-3.06-1.13-3.77c-.03-.08-.06-.14-.09-.19-.03-.05-.09-.09-.18-.12-.08-.03-.2-.05-.36-.06-.16-.01-.37-.01-.63,0l.13-.38h3.63l-.13.38c-.49,0-.81.04-.96.13-.15.08-.19.24-.13.46l.83,2.7,2.38-2.39c.1-.1.19-.21.25-.32.07-.11.09-.21.07-.29-.02-.08-.09-.15-.22-.21-.13-.05-.34-.08-.63-.08l.13-.38h3.06l-.13.38c-.23,0-.43.01-.6.04-.17.03-.32.06-.45.11-.13.05-.25.11-.35.18-.1.07-.2.15-.29.25l-3.1,3.08,1.16,3.64c.05.17.13.31.23.42.1.11.21.2.34.26.13.06.27.11.42.13.15.02.32.03.48.03l-.13.38Z"/>
    </g>
    <g id="_레이어_2" data-name="레이어_2">
      <circle class="cls-4" cx="342.56" cy="237.99" r="22.67"/>
      <circle class="cls-4" cx="342.56" cy="307.55" r="22.67"/>
      <circle class="cls-4" cx="342.56" cy="375.45" r="22.67"/>
      <circle class="cls-4" cx="491.39" cy="306.96" r="22.67"/>
      <g>
        <line class="cls-2" x1="365.23" y1="237.99" x2="459.08" y2="294.53"/>
        <polygon class="cls-1" points="455.89 296 466.67 299.11 458.89 291.02 455.89 296"/>
      </g>
      <g>
        <line class="cls-2" x1="365.2" y1="306.36" x2="456.14" y2="306.36"/>
        <polygon class="cls-1" points="454.16 309.26 465 306.36 454.16 303.45 454.16 309.26"/>
      </g>
      <g>
        <line class="cls-2" x1="365.23" y1="375.45" x2="459.1" y2="318.51"/>
        <polygon class="cls-1" points="458.91 322.02 466.67 313.92 455.9 317.06 458.91 322.02"/>
      </g>
      <g>
        <line class="cls-2" x1="514.76" y1="307.55" x2="551.43" y2="306.59"/>
        <polygon class="cls-1" points="549.52 309.55 560.28 306.36 549.37 303.74 549.52 309.55"/>
      </g>
      <path class="cls-4" d="M217.48,238.22c0-12.52-10.15-22.67-22.67-22.67s-22.67,10.15-22.67,22.67,10.15,22.67,22.67,22.67,22.67-10.15,22.67-22.67"/>
      <path class="cls-4" d="M217.48,307.79c0-12.52-10.15-22.67-22.67-22.67s-22.67,10.15-22.67,22.67,10.15,22.67,22.67,22.67,22.67-10.15,22.67-22.67"/>
      <g>
        <line class="cls-8" x1="217.28" y1="237.62" x2="318.72" y2="298.74"/>
        <g>
          <line class="cls-6" x1="217.28" y1="237.62" x2="311.13" y2="294.17"/>
          <polygon class="cls-8" points="307.94 295.64 318.72 298.74 310.93 290.66 307.94 295.64"/>
        </g>
      </g>
      <g>
        <line class="cls-8" x1="217.24" y1="305.99" x2="317.05" y2="305.99"/>
        <g>
          <line class="cls-6" x1="217.24" y1="305.99" x2="308.19" y2="305.99"/>
          <polygon class="cls-8" points="306.21 308.9 317.05 305.99 306.21 303.09 306.21 308.9"/>
        </g>
      </g>
      <g>
        <line class="cls-8" x1="217.28" y1="375.09" x2="318.72" y2="313.55"/>
        <g>
          <line class="cls-6" x1="217.28" y1="375.09" x2="311.15" y2="318.15"/>
          <polygon class="cls-8" points="310.96 321.66 318.72 313.55 307.95 316.69 310.96 321.66"/>
        </g>
      </g>
      <g>
        <line class="cls-5" x1="218.09" y1="305.99" x2="309.63" y2="365.55"/>
        <polygon class="cls-7" points="306.38 366.91 317.05 370.38 309.55 362.04 306.38 366.91"/>
      </g>
      <g>
        <line class="cls-5" x1="217.48" y1="238.22" x2="311.55" y2="356.83"/>
        <polygon class="cls-7" points="308.04 357.08 317.05 363.77 312.59 353.47 308.04 357.08"/>
      </g>
      <path class="cls-4" d="M216.73,377.36c0-12.52-10.15-22.67-22.67-22.67s-22.67,10.15-22.67,22.67,10.15,22.67,22.67,22.67,22.67-10.15,22.67-22.67"/>
      <g>
        <line class="cls-5" x1="217.67" y1="375.45" x2="308.61" y2="375.45"/>
        <polygon class="cls-7" points="306.63 378.36 317.47 375.45 306.63 372.55 306.63 378.36"/>
      </g>
      <path class="cls-4" d="M69.55,238.37c0-12.52-10.15-22.67-22.67-22.67s-22.67,10.15-22.67,22.67,10.15,22.67,22.67,22.67,22.67-10.15,22.67-22.67"/>
      <path class="cls-4" d="M69.55,307.94c0-12.52-10.15-22.67-22.67-22.67s-22.67,10.15-22.67,22.67,10.15,22.67,22.67,22.67,22.67-10.15,22.67-22.67"/>
      <g>
        <line class="cls-8" x1="69.34" y1="237.77" x2="170.79" y2="298.89"/>
        <g>
          <line class="cls-6" x1="69.34" y1="237.77" x2="163.2" y2="294.32"/>
          <polygon class="cls-8" points="160 295.78 170.79 298.89 163 290.81 160 295.78"/>
        </g>
      </g>
      <g>
        <line class="cls-8" x1="69.31" y1="306.14" x2="169.12" y2="306.14"/>
        <g>
          <line class="cls-6" x1="69.31" y1="306.14" x2="160.26" y2="306.14"/>
          <polygon class="cls-8" points="158.28 309.05 169.12 306.14 158.28 303.23 158.28 309.05"/>
        </g>
      </g>
      <g>
        <line class="cls-8" x1="69.34" y1="375.24" x2="170.79" y2="313.7"/>
        <g>
          <line class="cls-6" x1="69.34" y1="375.24" x2="163.21" y2="318.29"/>
          <polygon class="cls-8" points="163.03 321.81 170.79 313.7 160.01 316.84 163.03 321.81"/>
        </g>
      </g>
      <g>
        <line class="cls-5" x1="70.15" y1="306.14" x2="161.69" y2="365.7"/>
        <polygon class="cls-7" points="158.45 367.05 169.12 370.53 161.62 362.18 158.45 367.05"/>
      </g>
      <g>
        <line class="cls-5" x1="69.55" y1="238.37" x2="163.62" y2="356.98"/>
        <polygon class="cls-7" points="160.11 357.23 169.12 363.92 164.66 353.62 160.11 357.23"/>
      </g>
      <path class="cls-4" d="M68.8,377.51c0-12.52-10.15-22.67-22.67-22.67s-22.67,10.15-22.67,22.67,10.15,22.67,22.67,22.67,22.67-10.15,22.67-22.67"/>
      <g>
        <line class="cls-5" x1="69.73" y1="375.6" x2="160.68" y2="375.6"/>
        <polygon class="cls-7" points="158.7 378.51 169.54 375.6 158.7 372.7 158.7 378.51"/>
      </g>
      <path class="cls-4" d="M47.61,328.51"/>
      <path class="cls-4" d="M22.83,309.4"/>
      <path class="cls-3" d="M303.89,468.53"/>
      <path class="cls-3" d="M305.71,476.79"/>
    </g>
  </g>
</svg>