<?xml version="1.0" encoding="UTF-8"?>
<svg xmlns="http://www.w3.org/2000/svg" version="1.1" viewBox="0 0 600 600">
  <defs>
    <style>
      .cls-1, .cls-2, .cls-3 {
        stroke: #231815;
        stroke-miterlimit: 10;
      }

      .cls-1, .cls-3 {
        fill: none;
      }

      .cls-2 {
        fill: #d9d9ff;
      }

      .cls-3 {
        stroke-width: .5px;
      }
    </style>
  </defs>
  <!-- Generator: Adobe Illustrator 28.7.1, SVG Export Plug-In . SVG Version: 1.2.0 Build 142)  -->
  <g>
    <g id="_레이어_1" data-name="레이어_1">
      <g>
        <path d="M80.87,385.32l.13-3.12h9.76l.13,3.12h-.74l-.66-3.12.78.58h-8.82l.8-.58-.66,3.12h-.74ZM83.23,393.91v-.5l2.4-.21h.46l2.43.21v.5h-5.3ZM85.01,393.91c.02-.9.03-1.8.04-2.7,0-.91,0-1.81,0-2.72v-.85c0-.92,0-1.83,0-2.73,0-.9-.02-1.81-.04-2.71h1.73c-.01.9-.02,1.8-.02,2.7,0,.91,0,1.82,0,2.74v.83c0,.92,0,1.83,0,2.73,0,.9.01,1.81.02,2.71h-1.73Z"/>
        <path d="M93.41,394.15c-.64,0-1.17-.18-1.6-.54s-.64-.88-.64-1.55c0-.43.09-.8.28-1.14.19-.33.5-.63.94-.89.44-.26,1.02-.5,1.76-.71.44-.13.91-.26,1.41-.38s.97-.25,1.39-.35v.4c-.43.11-.86.22-1.29.34-.43.12-.82.25-1.16.38-.65.25-1.12.54-1.4.89-.28.35-.42.76-.42,1.24s.13.86.39,1.1c.26.25.6.37,1.03.37.22,0,.45-.04.67-.13.22-.08.48-.24.77-.47s.63-.55,1.02-.95l.16.78h-.43c-.32.35-.62.65-.91.89-.29.24-.59.42-.9.54-.31.12-.67.18-1.07.18ZM97.73,394.13c-.49,0-.86-.16-1.11-.48s-.4-.76-.44-1.31v-4.27c0-.6-.06-1.06-.19-1.38-.13-.32-.32-.54-.58-.67-.26-.13-.6-.19-1.02-.19-.3,0-.6.04-.9.12-.3.08-.64.22-1,.41l.78-.43-.24,1.26c-.03.33-.13.57-.28.7s-.34.21-.55.21c-.43,0-.69-.21-.78-.62.14-.67.5-1.2,1.1-1.58.59-.38,1.37-.58,2.34-.58s1.69.23,2.14.69c.46.46.69,1.2.69,2.22v4.02c0,.46.06.77.17.94.11.17.27.26.47.26.13,0,.25-.03.35-.1.11-.06.23-.18.37-.34l.26.22c-.17.31-.39.54-.65.68-.26.14-.57.22-.92.22Z"/>
        <path d="M101.33,393.91c.01-.27.02-.62.02-1.06,0-.44.01-.9.02-1.38,0-.48,0-.9,0-1.25v-1.04c0-.55,0-1.04,0-1.44s-.02-.8-.04-1.18l-1.36-.1v-.4l2.66-.7.21.13.1,2.26v2.48c0,.35,0,.77,0,1.25,0,.48.01.94.02,1.38s.01.79.02,1.06h-1.65ZM100.07,393.91v-.45l1.74-.19h.88l1.79.19v.45h-4.42ZM102.93,388.81l-.4-.88h.32c.17-.53.4-.99.68-1.38.28-.39.6-.69.96-.9.36-.21.72-.32,1.1-.32.32,0,.6.07.84.2.24.13.4.34.47.63,0,.29-.07.52-.22.7s-.37.27-.68.27c-.21,0-.41-.06-.58-.18-.17-.12-.35-.28-.54-.5l-.37-.37.69.03c-.52.18-.97.48-1.34.9-.37.42-.68,1.02-.94,1.78Z"/>
        <path d="M110.69,398.07c-.83,0-1.5-.09-1.99-.28-.5-.19-.85-.44-1.07-.75-.22-.31-.33-.67-.33-1.08,0-.48.18-.9.54-1.26.36-.36.89-.68,1.59-.94l.08.13c-.38.31-.67.59-.85.86-.18.26-.27.58-.27.97,0,.58.21,1.01.62,1.31.41.3.99.45,1.74.45,1.1,0,1.93-.19,2.49-.57.56-.38.84-.86.84-1.45,0-.33-.12-.63-.37-.89-.25-.26-.69-.39-1.34-.39h-1.92c-.3,0-.55,0-.76-.02s-.4-.05-.58-.11v-.03c-.84-.22-1.26-.71-1.26-1.46,0-.35.11-.69.32-1.02s.58-.67,1.09-1.05v-.14l.35.18c-.26.28-.45.52-.57.72-.12.2-.18.43-.18.69,0,.28.09.5.28.66s.5.24.94.24h2.35c.69,0,1.26.09,1.7.26.44.18.76.43.97.76.21.33.31.72.31,1.17,0,.51-.18,1-.54,1.47-.36.47-.89.85-1.58,1.14-.7.29-1.55.44-2.57.44ZM110.93,391.06c-.68,0-1.27-.12-1.75-.37s-.86-.58-1.11-1.01-.38-.92-.38-1.49c0-.86.29-1.56.86-2.09.57-.53,1.37-.79,2.39-.79.53,0,1,.07,1.42.22s.75.35,1.02.63l.05.05c.5.48.75,1.14.75,1.98,0,.57-.13,1.06-.38,1.49-.26.43-.63.76-1.11,1.01s-1.06.37-1.74.37ZM110.91,390.57c.56,0,1.01-.22,1.34-.65.33-.43.49-1.01.49-1.74s-.17-1.3-.5-1.74c-.33-.43-.76-.65-1.3-.65-.57,0-1.01.22-1.34.66s-.49,1.02-.49,1.74.16,1.29.48,1.72c.32.43.76.65,1.31.65ZM112.86,386.36v-.26h.1l2.24-.74.27.18v.94l-2.61-.13Z"/>
        <path d="M120.67,394.15c-.81,0-1.53-.17-2.16-.5-.63-.33-1.12-.82-1.48-1.48-.36-.66-.54-1.46-.54-2.42s.19-1.71.56-2.37c.37-.66.87-1.17,1.49-1.53.62-.36,1.29-.54,2-.54s1.34.15,1.85.45c.51.3.89.7,1.15,1.21.26.51.39,1.08.39,1.74,0,.38-.03.7-.1.96h-6.64v-.51h4.48c.3,0,.5-.08.61-.24s.16-.42.16-.77c0-.69-.17-1.25-.51-1.67-.34-.42-.82-.63-1.44-.63-.44,0-.83.14-1.19.42-.36.28-.64.7-.86,1.25-.21.55-.32,1.22-.32,2.02,0,.86.13,1.58.39,2.14.26.56.62.97,1.06,1.22.45.26.96.38,1.55.38s1.05-.1,1.46-.3c.41-.2.77-.49,1.08-.86l.27.21c-.34.58-.79,1.02-1.34,1.34-.55.32-1.2.48-1.94.48Z"/>
        <path d="M128.43,394.15c-.69,0-1.21-.18-1.55-.54s-.51-.91-.51-1.66c0-.27,0-.51,0-.72s0-.47,0-.77v-4.3h-1.54v-.5l1.87-.14-.3.22.56-2.7h1.02l-.05,2.77v6.19c0,.48.09.83.28,1.05.19.22.45.33.79.33.23,0,.44-.04.62-.11.18-.08.37-.18.58-.32l.24.29c-.22.3-.5.53-.83.68s-.73.23-1.2.23ZM127.17,386.17v-.61h3.01v.61h-3.01Z"/>
      </g>
      <g>
        <path d="M252.1,394.15c-1.15,0-2.03-.24-2.63-.73s-.9-1.13-.9-1.93c0-.69.27-1.29.8-1.79.53-.5,1.3-.95,2.3-1.34v-.11l.32.24c-.75.45-1.28.9-1.59,1.34s-.47.98-.47,1.58c0,.65.21,1.18.62,1.6.41.42.97.62,1.67.62s1.26-.2,1.66-.6c.4-.4.6-.89.6-1.48,0-.37-.09-.72-.27-1.05-.18-.33-.48-.64-.9-.95-.42-.31-1-.62-1.72-.94-.93-.41-1.61-.89-2.04-1.44-.43-.55-.65-1.18-.65-1.87,0-.6.15-1.11.45-1.54.3-.43.7-.77,1.22-1.02s1.08-.37,1.71-.37c.68,0,1.26.11,1.72.34.46.22.82.53,1.06.92.24.39.36.83.36,1.34s-.21,1.04-.62,1.54c-.41.51-1.15.97-2.23,1.38v.08l-.27-.22c.68-.47,1.17-.91,1.45-1.34.28-.42.42-.91.42-1.48,0-.37-.07-.71-.22-1.02s-.37-.56-.65-.74c-.28-.19-.63-.28-1.05-.28-.34,0-.66.08-.97.24s-.55.39-.74.68c-.19.29-.28.64-.28,1.05,0,.34.07.67.22.98.14.32.4.62.77.93.37.3.89.6,1.56.89,1.1.47,1.89.98,2.38,1.54.49.56.73,1.22.73,1.99,0,.6-.16,1.12-.47,1.56-.32.44-.75.79-1.32,1.03s-1.23.37-2,.37Z"/>
        <path d="M262.73,398.07c0-.39.02-.81.02-1.25,0-.44.01-.88.02-1.32,0-.44,0-.85,0-1.22v-5.06c0-.54,0-1.03,0-1.45,0-.42-.02-.82-.04-1.21l-1.38-.1v-.4l2.64-.7.21.13.11,1.33.02.1v5.74l-.02.18v1.44c0,.36,0,.76,0,1.21,0,.44.01.88.02,1.33,0,.44.01.86.02,1.26h-1.63ZM261.42,398.07v-.45l1.78-.16h.8l1.84.16v.45h-4.42ZM266.79,394.15c-.49,0-.97-.11-1.45-.33s-.91-.61-1.3-1.18h-.21l.24-.38c.37.41.73.68,1.08.83.35.15.73.22,1.16.22s.86-.12,1.22-.35c.37-.23.66-.62.88-1.15s.33-1.24.33-2.11c0-1.24-.22-2.14-.65-2.71-.43-.57-1.01-.86-1.72-.86-.37,0-.75.09-1.13.26-.38.18-.79.52-1.24,1.03l-.19-.38h.16c.42-.61.89-1.05,1.42-1.32.53-.27,1.08-.41,1.63-.41.66,0,1.24.18,1.74.53.5.35.9.85,1.2,1.5.3.65.45,1.42.45,2.33s-.16,1.71-.48,2.38c-.32.67-.75,1.19-1.3,1.55s-1.16.54-1.86.54Z"/>
        <path d="M276.1,394.15c-.81,0-1.53-.17-2.16-.5-.63-.33-1.12-.82-1.48-1.48-.36-.66-.54-1.46-.54-2.42s.19-1.71.56-2.37c.37-.66.87-1.17,1.49-1.53.62-.36,1.29-.54,2-.54s1.34.15,1.85.45c.51.3.89.7,1.15,1.21.26.51.39,1.08.39,1.74,0,.38-.03.7-.1.96h-6.64v-.51h4.48c.3,0,.5-.08.61-.24s.16-.42.16-.77c0-.69-.17-1.25-.51-1.67-.34-.42-.82-.63-1.44-.63-.44,0-.83.14-1.19.42-.36.28-.64.7-.86,1.25-.21.55-.32,1.22-.32,2.02,0,.86.13,1.58.39,2.14.26.56.62.97,1.06,1.22s.96.38,1.55.38,1.05-.1,1.46-.3c.41-.2.77-.49,1.08-.86l.27.21c-.34.58-.79,1.02-1.34,1.34-.55.32-1.2.48-1.94.48Z"/>
        <path d="M281.96,393.91c.01-.27.02-.62.02-1.06,0-.44,0-.9.02-1.38,0-.48,0-.9,0-1.25v-1.04c0-.55,0-1.04,0-1.44,0-.41-.02-.8-.04-1.18l-1.36-.1v-.4l2.66-.7.21.13.1,2.26v2.48c0,.35,0,.77,0,1.25,0,.48,0,.94.02,1.38,0,.44.01.79.02,1.06h-1.65ZM280.7,393.91v-.45l1.74-.19h.88l1.79.19v.45h-4.42ZM283.56,388.81l-.4-.88h.32c.17-.53.4-.99.68-1.38.28-.39.6-.69.96-.9.36-.21.72-.32,1.1-.32.32,0,.6.07.84.2.24.13.4.34.47.63,0,.29-.07.52-.22.7-.14.18-.37.27-.68.27-.21,0-.41-.06-.58-.18s-.35-.28-.54-.5l-.37-.37.69.03c-.52.18-.97.48-1.34.9-.37.42-.68,1.02-.94,1.78Z"/>
        <path d="M292.12,394.15c-.79,0-1.49-.17-2.1-.51-.61-.34-1.09-.83-1.44-1.47-.35-.64-.53-1.41-.53-2.32,0-.97.2-1.79.6-2.46.4-.67.93-1.18,1.58-1.54.66-.35,1.36-.53,2.12-.53.5,0,.96.09,1.38.28.42.19.78.44,1.06.77s.49.71.59,1.14c-.12.41-.37.61-.75.61-.25,0-.45-.07-.6-.21-.16-.14-.25-.38-.3-.72l-.37-1.44.88.66c-.32-.2-.62-.35-.9-.43-.28-.09-.57-.13-.86-.13-.53,0-1.01.15-1.44.46-.43.3-.76.74-1.01,1.3s-.37,1.25-.37,2.05c0,1.15.28,2.04.84,2.68.56.63,1.29.95,2.18.95.47,0,.91-.1,1.32-.29.41-.19.78-.48,1.11-.86l.27.21c-.36.59-.81,1.04-1.33,1.34-.52.31-1.18.46-1.97.46Z"/>
        <path d="M300.92,394.15c-.81,0-1.53-.17-2.16-.5-.63-.33-1.12-.82-1.48-1.48-.36-.66-.54-1.46-.54-2.42s.19-1.71.56-2.37c.37-.66.87-1.17,1.49-1.53.62-.36,1.29-.54,2-.54s1.34.15,1.85.45c.51.3.89.7,1.15,1.21.26.51.39,1.08.39,1.74,0,.38-.03.7-.1.96h-6.64v-.51h4.48c.3,0,.5-.08.61-.24s.16-.42.16-.77c0-.69-.17-1.25-.51-1.67-.34-.42-.82-.63-1.44-.63-.44,0-.83.14-1.19.42-.36.28-.64.7-.86,1.25-.21.55-.32,1.22-.32,2.02,0,.86.13,1.58.39,2.14.26.56.62.97,1.06,1.22.45.26.96.38,1.55.38s1.05-.1,1.46-.3c.41-.2.77-.49,1.08-.86l.27.21c-.34.58-.79,1.02-1.34,1.34-.55.32-1.2.48-1.94.48Z"/>
        <path d="M306.71,398.07c0-.39.02-.81.02-1.25,0-.44.01-.88.02-1.32,0-.44,0-.85,0-1.22v-5.06c0-.54,0-1.03,0-1.45,0-.42-.02-.82-.04-1.21l-1.38-.1v-.4l2.64-.7.21.13.11,1.33.02.1v5.74l-.02.18v1.44c0,.36,0,.76,0,1.21,0,.44.01.88.02,1.33,0,.44.01.86.02,1.26h-1.63ZM305.4,398.07v-.45l1.78-.16h.8l1.84.16v.45h-4.42ZM310.78,394.15c-.49,0-.97-.11-1.45-.33s-.91-.61-1.3-1.18h-.21l.24-.38c.37.41.73.68,1.08.83.35.15.73.22,1.16.22s.86-.12,1.22-.35c.37-.23.66-.62.88-1.15s.33-1.24.33-2.11c0-1.24-.22-2.14-.65-2.71-.43-.57-1.01-.86-1.72-.86-.37,0-.75.09-1.13.26-.38.18-.79.52-1.24,1.03l-.19-.38h.16c.42-.61.89-1.05,1.42-1.32.53-.27,1.08-.41,1.63-.41.66,0,1.24.18,1.74.53.5.35.9.85,1.2,1.5.3.65.45,1.42.45,2.33s-.16,1.71-.48,2.38c-.32.67-.75,1.19-1.3,1.55s-1.16.54-1.86.54Z"/>
        <path d="M318.9,394.15c-.69,0-1.21-.18-1.55-.54-.34-.36-.51-.91-.51-1.66,0-.27,0-.51,0-.72,0-.21,0-.47,0-.77v-4.3h-1.54v-.5l1.87-.14-.3.22.56-2.7h1.02l-.05,2.77v6.19c0,.48.09.83.28,1.05.19.22.45.33.79.33.23,0,.44-.04.62-.11.18-.08.37-.18.58-.32l.24.29c-.22.3-.5.53-.83.68-.33.15-.73.23-1.2.23ZM317.64,386.17v-.61h3.01v.61h-3.01Z"/>
        <path d="M323,393.91c.01-.27.02-.62.02-1.06,0-.44,0-.9.02-1.38,0-.48,0-.9,0-1.25v-1.04c0-.55,0-1.04,0-1.44,0-.41-.02-.8-.04-1.18l-1.36-.1v-.4l2.66-.7.21.13.1,2.26v2.48c0,.35,0,.77,0,1.25,0,.48,0,.94.02,1.38,0,.44.01.79.02,1.06h-1.65ZM321.74,393.91v-.45l1.74-.19h.88l1.79.19v.45h-4.42ZM324.6,388.81l-.4-.88h.32c.17-.53.4-.99.68-1.38.28-.39.6-.69.96-.9.36-.21.72-.32,1.1-.32.32,0,.6.07.84.2.24.13.4.34.47.63,0,.29-.07.52-.22.7-.14.18-.37.27-.68.27-.21,0-.41-.06-.58-.18s-.35-.28-.54-.5l-.37-.37.69.03c-.52.18-.97.48-1.34.9-.37.42-.68,1.02-.94,1.78Z"/>
        <path d="M333.17,394.15c-.75,0-1.43-.17-2.05-.5-.62-.34-1.11-.83-1.48-1.5-.37-.66-.55-1.47-.55-2.42s.19-1.77.58-2.42c.38-.66.89-1.15,1.51-1.49s1.29-.5,1.99-.5,1.4.17,2.02.5,1.13.83,1.51,1.49c.38.66.58,1.46.58,2.42s-.19,1.75-.57,2.42c-.38.66-.88,1.16-1.5,1.5-.62.34-1.3.5-2.05.5ZM333.17,393.64c.76,0,1.35-.33,1.78-.99s.64-1.63.64-2.9-.21-2.24-.64-2.9c-.43-.67-1.02-1-1.78-1s-1.33.33-1.76,1c-.43.67-.64,1.63-.64,2.9s.21,2.24.64,2.9,1.01.99,1.76.99Z"/>
        <path d="M339.93,393.91c.01-.27.02-.62.02-1.06,0-.44,0-.9.02-1.38,0-.48,0-.9,0-1.25v-1.04c0-.54,0-1.02,0-1.43,0-.41-.02-.81-.04-1.19l-1.36-.1v-.4l2.66-.7.21.13.1,1.86v2.88c0,.35,0,.77,0,1.25,0,.48,0,.94.02,1.38,0,.44.01.79.02,1.06h-1.65ZM338.66,393.91v-.45l1.73-.18h.66l1.68.18v.45h-4.06ZM345.38,393.91c.01-.27.02-.62.02-1.05,0-.43.01-.89.02-1.37,0-.48,0-.9,0-1.26v-1.95c0-.75-.12-1.27-.37-1.58s-.59-.46-1.04-.46c-.35,0-.77.12-1.26.36-.49.24-1.01.67-1.57,1.29l-.11-.58h.18c.59-.73,1.16-1.24,1.73-1.54.57-.3,1.13-.46,1.7-.46.71,0,1.27.24,1.68.71s.61,1.25.61,2.31v1.89c0,.36,0,.78,0,1.26,0,.48.01.94.02,1.37,0,.43.02.78.03,1.05h-1.65ZM344.13,393.91v-.45l1.7-.18h.67l1.68.18v.45h-4.05Z"/>
        <path d="M352.31,394.15c-.54,0-1.03-.06-1.46-.17-.43-.11-.87-.28-1.3-.5l.02-1.95h.75l.42,2.08-.64-.05v-.58c.32.2.64.36.97.47.33.11.72.17,1.18.17.69,0,1.22-.14,1.57-.41.35-.27.53-.64.53-1.1,0-.38-.12-.7-.35-.94-.24-.25-.68-.47-1.34-.67l-.85-.3c-.65-.22-1.17-.53-1.56-.9-.39-.38-.58-.88-.58-1.5,0-.7.27-1.29.81-1.77.54-.47,1.31-.71,2.31-.71.5,0,.94.06,1.33.18s.78.3,1.2.54l-.06,1.76h-.69l-.45-1.94.54.13v.51c-.32-.23-.62-.4-.91-.5-.29-.1-.6-.14-.94-.14-.59,0-1.04.13-1.34.39-.31.26-.46.6-.46,1.02,0,.36.13.66.38.9.25.24.67.46,1.26.66l.83.29c.82.28,1.41.61,1.75,1.01.35.4.52.88.52,1.46,0,.49-.13.93-.39,1.32-.26.39-.64.69-1.14.91s-1.12.33-1.86.33Z"/>
      </g>
      <g>
        <path d="M438.49,393.91v-.45l2.64-.26h1.38l2.48.26v.45h-6.5ZM440.97,393.91c.03-1.24.05-2.47.05-3.7v-6.69l-2.26.34v-.51l3.65-.9.24.18-.06,2.54v5.04c0,.6,0,1.21.02,1.83s.02,1.25.03,1.86h-1.66Z"/>
        <path d="M450.68,394.15c-1.21,0-2.15-.41-2.82-1.24-.68-.83-1.02-1.96-1.02-3.42,0-.88.16-1.73.49-2.54.33-.8.79-1.53,1.41-2.18s1.35-1.18,2.22-1.59,1.83-.69,2.91-.82l.1.38c-1.22.26-2.23.7-3.06,1.34-.82.64-1.44,1.41-1.86,2.31s-.62,1.89-.62,2.97c0,.97.1,1.77.29,2.4.19.63.46,1.1.81,1.4.35.3.74.46,1.19.46.59,0,1.07-.26,1.46-.77.38-.51.58-1.29.58-2.34,0-.92-.18-1.62-.54-2.1-.36-.48-.88-.73-1.54-.73-.43,0-.84.09-1.23.28-.4.19-.78.5-1.17.95l-.3-.21h.11c.82-1.16,1.87-1.74,3.15-1.74.98,0,1.74.32,2.29.96.54.64.82,1.48.82,2.53,0,.71-.16,1.35-.47,1.9-.32.55-.75.99-1.3,1.3-.55.31-1.18.47-1.88.47Z"/>
        <path d="M461.1,398.07c.01-.39.02-.81.02-1.25,0-.44.01-.88.02-1.32,0-.44,0-.85,0-1.22v-5.06c0-.54,0-1.03,0-1.45,0-.42-.02-.82-.04-1.21l-1.38-.1v-.4l2.64-.7.21.13.11,1.33.02.1v5.74l-.02.18v1.44c0,.36,0,.76,0,1.21,0,.44.01.88.02,1.33,0,.44.01.86.02,1.26h-1.63ZM459.79,398.07v-.45l1.78-.16h.8l1.84.16v.45h-4.42ZM465.16,394.15c-.49,0-.97-.11-1.45-.33s-.91-.61-1.3-1.18h-.21l.24-.38c.37.41.73.68,1.08.83.35.15.73.22,1.16.22.45,0,.86-.12,1.22-.35.37-.23.66-.62.88-1.15.22-.53.33-1.24.33-2.11,0-1.24-.22-2.14-.65-2.71s-1.01-.86-1.72-.86c-.37,0-.75.09-1.13.26-.38.18-.79.52-1.24,1.03l-.19-.38h.16c.42-.61.89-1.05,1.42-1.32.53-.27,1.08-.41,1.63-.41.66,0,1.24.18,1.74.53.5.35.9.85,1.2,1.5.3.65.45,1.42.45,2.33s-.16,1.71-.48,2.38c-.32.67-.75,1.19-1.3,1.55s-1.16.54-1.86.54Z"/>
        <path d="M474.47,394.15c-.81,0-1.53-.17-2.16-.5-.63-.33-1.12-.82-1.48-1.48-.36-.66-.54-1.46-.54-2.42s.19-1.71.56-2.37c.37-.66.87-1.17,1.49-1.53.62-.36,1.29-.54,2-.54s1.34.15,1.85.45c.51.3.89.7,1.15,1.21.26.51.39,1.08.39,1.74,0,.38-.03.7-.1.96h-6.64v-.51h4.48c.3,0,.5-.08.61-.24s.16-.42.16-.77c0-.69-.17-1.25-.51-1.67-.34-.42-.82-.63-1.44-.63-.44,0-.83.14-1.19.42-.36.28-.64.7-.86,1.25-.21.55-.32,1.22-.32,2.02,0,.86.13,1.58.39,2.14.26.56.62.97,1.06,1.22s.96.38,1.55.38,1.05-.1,1.46-.3c.41-.2.77-.49,1.08-.86l.27.21c-.34.58-.79,1.02-1.34,1.34-.55.32-1.2.48-1.94.48Z"/>
        <path d="M480.33,393.91c.01-.27.02-.62.02-1.06,0-.44.01-.9.02-1.38,0-.48,0-.9,0-1.25v-1.04c0-.55,0-1.04,0-1.44,0-.41-.02-.8-.04-1.18l-1.36-.1v-.4l2.66-.7.21.13.1,2.26v2.48c0,.35,0,.77,0,1.25,0,.48.01.94.02,1.38,0,.44.01.79.02,1.06h-1.65ZM479.07,393.91v-.45l1.74-.19h.88l1.79.19v.45h-4.42ZM481.93,388.81l-.4-.88h.32c.17-.53.4-.99.68-1.38.28-.39.6-.69.96-.9.36-.21.72-.32,1.1-.32.32,0,.6.07.84.2.24.13.4.34.47.63,0,.29-.07.52-.22.7-.14.18-.37.27-.68.27-.21,0-.41-.06-.58-.18-.17-.12-.35-.28-.54-.5l-.37-.37.69.03c-.52.18-.97.48-1.34.9-.37.42-.68,1.02-.94,1.78Z"/>
        <path d="M490.49,394.15c-.79,0-1.49-.17-2.1-.51-.61-.34-1.09-.83-1.44-1.47-.35-.64-.53-1.41-.53-2.32,0-.97.2-1.79.6-2.46.4-.67.93-1.18,1.58-1.54.66-.35,1.36-.53,2.12-.53.5,0,.96.09,1.38.28.42.19.78.44,1.06.77.29.33.49.71.59,1.14-.12.41-.37.61-.75.61-.25,0-.45-.07-.6-.21s-.25-.38-.3-.72l-.37-1.44.88.66c-.32-.2-.62-.35-.9-.43-.28-.09-.57-.13-.86-.13-.53,0-1.01.15-1.44.46-.43.3-.76.74-1.01,1.3-.25.57-.37,1.25-.37,2.05,0,1.15.28,2.04.84,2.68.56.63,1.29.95,2.18.95.47,0,.91-.1,1.32-.29.41-.19.78-.48,1.11-.86l.27.21c-.36.59-.81,1.04-1.33,1.34-.52.31-1.18.46-1.97.46Z"/>
        <path d="M499.29,394.15c-.81,0-1.53-.17-2.16-.5-.63-.33-1.12-.82-1.48-1.48-.36-.66-.54-1.46-.54-2.42s.19-1.71.56-2.37c.37-.66.87-1.17,1.49-1.53.62-.36,1.29-.54,2-.54s1.34.15,1.85.45c.51.3.89.7,1.15,1.21.26.51.39,1.08.39,1.74,0,.38-.03.7-.1.96h-6.64v-.51h4.48c.3,0,.5-.08.61-.24s.16-.42.16-.77c0-.69-.17-1.25-.51-1.67-.34-.42-.82-.63-1.44-.63-.44,0-.83.14-1.19.42-.36.28-.64.7-.86,1.25-.21.55-.32,1.22-.32,2.02,0,.86.13,1.58.39,2.14.26.56.62.97,1.06,1.22.45.26.96.38,1.55.38s1.05-.1,1.46-.3c.41-.2.77-.49,1.08-.86l.27.21c-.34.58-.79,1.02-1.34,1.34-.55.32-1.2.48-1.94.48Z"/>
        <path d="M505.08,398.07c.01-.39.02-.81.02-1.25,0-.44.01-.88.02-1.32,0-.44,0-.85,0-1.22v-5.06c0-.54,0-1.03,0-1.45,0-.42-.02-.82-.04-1.21l-1.38-.1v-.4l2.64-.7.21.13.11,1.33.02.1v5.74l-.02.18v1.44c0,.36,0,.76,0,1.21,0,.44.01.88.02,1.33,0,.44.01.86.02,1.26h-1.63ZM503.77,398.07v-.45l1.78-.16h.8l1.84.16v.45h-4.42ZM509.15,394.15c-.49,0-.97-.11-1.45-.33s-.91-.61-1.3-1.18h-.21l.24-.38c.37.41.73.68,1.08.83.35.15.73.22,1.16.22.45,0,.86-.12,1.22-.35.37-.23.66-.62.88-1.15.22-.53.33-1.24.33-2.11,0-1.24-.22-2.14-.65-2.71s-1.01-.86-1.72-.86c-.37,0-.75.09-1.13.26-.38.18-.79.52-1.24,1.03l-.19-.38h.16c.42-.61.89-1.05,1.42-1.32.53-.27,1.08-.41,1.63-.41.66,0,1.24.18,1.74.53.5.35.9.85,1.2,1.5.3.65.45,1.42.45,2.33s-.16,1.71-.48,2.38c-.32.67-.75,1.19-1.3,1.55s-1.16.54-1.86.54Z"/>
        <path d="M517.27,394.15c-.69,0-1.21-.18-1.55-.54-.34-.36-.51-.91-.51-1.66,0-.27,0-.51,0-.72,0-.21,0-.47,0-.77v-4.3h-1.54v-.5l1.87-.14-.3.22.56-2.7h1.02l-.05,2.77v6.19c0,.48.09.83.28,1.05.19.22.45.33.79.33.23,0,.44-.04.62-.11.18-.08.37-.18.58-.32l.24.29c-.22.3-.5.53-.83.68-.33.15-.73.23-1.2.23ZM516.01,386.17v-.61h3.01v.61h-3.01Z"/>
        <path d="M521.37,393.91c.01-.27.02-.62.02-1.06,0-.44,0-.9.02-1.38,0-.48,0-.9,0-1.25v-1.04c0-.55,0-1.04,0-1.44,0-.41-.02-.8-.04-1.18l-1.36-.1v-.4l2.66-.7.21.13.1,2.26v2.48c0,.35,0,.77,0,1.25,0,.48,0,.94.02,1.38,0,.44.01.79.02,1.06h-1.65ZM520.11,393.91v-.45l1.74-.19h.88l1.79.19v.45h-4.42ZM522.97,388.81l-.4-.88h.32c.17-.53.4-.99.68-1.38.28-.39.6-.69.96-.9.36-.21.72-.32,1.1-.32.32,0,.6.07.84.2.24.13.4.34.47.63,0,.29-.07.52-.22.7-.14.18-.37.27-.68.27-.21,0-.41-.06-.58-.18s-.35-.28-.54-.5l-.37-.37.69.03c-.52.18-.97.48-1.34.9-.37.42-.68,1.02-.94,1.78Z"/>
        <path d="M531.54,394.15c-.75,0-1.43-.17-2.05-.5-.62-.34-1.11-.83-1.48-1.5-.37-.66-.55-1.47-.55-2.42s.19-1.77.58-2.42c.38-.66.89-1.15,1.51-1.49s1.29-.5,1.99-.5,1.4.17,2.02.5,1.13.83,1.51,1.49c.38.66.58,1.46.58,2.42s-.19,1.75-.57,2.42c-.38.66-.88,1.16-1.5,1.5-.62.34-1.3.5-2.05.5ZM531.54,393.64c.76,0,1.35-.33,1.78-.99s.64-1.63.64-2.9-.21-2.24-.64-2.9c-.43-.67-1.02-1-1.78-1s-1.33.33-1.76,1c-.43.67-.64,1.63-.64,2.9s.21,2.24.64,2.9,1.01.99,1.76.99Z"/>
        <path d="M538.3,393.91c.01-.27.02-.62.02-1.06,0-.44,0-.9.02-1.38,0-.48,0-.9,0-1.25v-1.04c0-.54,0-1.02,0-1.43,0-.41-.02-.81-.04-1.19l-1.36-.1v-.4l2.66-.7.21.13.1,1.86v2.88c0,.35,0,.77,0,1.25,0,.48,0,.94.02,1.38,0,.44.01.79.02,1.06h-1.65ZM537.03,393.91v-.45l1.73-.18h.66l1.68.18v.45h-4.06ZM543.75,393.91c.01-.27.02-.62.02-1.05,0-.43.01-.89.02-1.37,0-.48,0-.9,0-1.26v-1.95c0-.75-.12-1.27-.37-1.58s-.59-.46-1.04-.46c-.35,0-.77.12-1.26.36-.49.24-1.01.67-1.57,1.29l-.11-.58h.18c.59-.73,1.16-1.24,1.73-1.54.57-.3,1.13-.46,1.7-.46.71,0,1.27.24,1.68.71s.61,1.25.61,2.31v1.89c0,.36,0,.78,0,1.26,0,.48.01.94.02,1.37,0,.43.02.78.03,1.05h-1.65ZM542.5,393.91v-.45l1.7-.18h.67l1.68.18v.45h-4.05Z"/>
        <path d="M550.68,394.15c-.54,0-1.03-.06-1.46-.17-.43-.11-.87-.28-1.3-.5l.02-1.95h.75l.42,2.08-.64-.05v-.58c.32.2.64.36.97.47s.72.17,1.18.17c.69,0,1.22-.14,1.57-.41.35-.27.53-.64.53-1.1,0-.38-.12-.7-.35-.94-.23-.25-.68-.47-1.34-.67l-.85-.3c-.65-.22-1.17-.53-1.56-.9-.39-.38-.58-.88-.58-1.5,0-.7.27-1.29.81-1.77.54-.47,1.31-.71,2.31-.71.5,0,.94.06,1.33.18s.78.3,1.2.54l-.06,1.76h-.69l-.45-1.94.54.13v.51c-.32-.23-.62-.4-.91-.5-.29-.1-.6-.14-.94-.14-.59,0-1.03.13-1.34.39-.31.26-.46.6-.46,1.02,0,.36.12.66.38.9.25.24.67.46,1.26.66l.83.29c.82.28,1.41.61,1.75,1.01.35.4.52.88.52,1.46,0,.49-.13.93-.39,1.32s-.64.69-1.14.91c-.5.22-1.12.33-1.86.33Z"/>
      </g>
    </g>
    <g id="_레이어_2" data-name="레이어_2">
      <circle class="cls-2" cx="104.02" cy="293.28" r="34.7"/>
      <circle class="cls-2" cx="299.98" cy="293.28" r="34.7"/>
      <circle class="cls-2" cx="495.24" cy="293.28" r="34.7"/>
      <line class="cls-1" x1="19.41" y1="292.74" x2="190.41" y2="292.74"/>
      <line class="cls-1" x1="103.54" y1="215.46" x2="103.54" y2="371.98"/>
      <line class="cls-1" x1="215.85" y1="292.74" x2="386.85" y2="292.74"/>
      <line class="cls-1" x1="299.98" y1="215.46" x2="299.98" y2="371.98"/>
      <line class="cls-1" x1="411.11" y1="292.74" x2="582.11" y2="292.74"/>
      <line class="cls-1" x1="495.24" y1="215.46" x2="495.24" y2="371.98"/>
      <line class="cls-1" x1="84.52" y1="279.73" x2="93.17" y2="279.73"/>
      <line class="cls-1" x1="89.07" y1="275.23" x2="89.07" y2="284.47"/>
      <line class="cls-1" x1="114.52" y1="279.73" x2="123.17" y2="279.73"/>
      <line class="cls-1" x1="119.07" y1="275.23" x2="119.07" y2="284.47"/>
      <line class="cls-1" x1="84.52" y1="307.61" x2="93.17" y2="307.61"/>
      <line class="cls-1" x1="89.07" y1="303.11" x2="89.07" y2="312.35"/>
      <line class="cls-1" x1="114.74" y1="307.49" x2="123.39" y2="307.49"/>
      <line class="cls-1" x1="119.29" y1="302.99" x2="119.29" y2="312.23"/>
      <line class="cls-1" x1="280.03" y1="279.63" x2="288.69" y2="279.63"/>
      <line class="cls-1" x1="284.58" y1="275.13" x2="284.58" y2="284.37"/>
      <line class="cls-1" x1="280.03" y1="307.74" x2="288.69" y2="307.74"/>
      <line class="cls-1" x1="284.58" y1="303.24" x2="284.58" y2="312.48"/>
      <line class="cls-1" x1="310.32" y1="279.63" x2="318.98" y2="279.63"/>
      <line class="cls-1" x1="314.87" y1="275.13" x2="314.87" y2="284.37"/>
      <line class="cls-1" x1="310.54" y1="307.74" x2="319.2" y2="307.74"/>
      <line class="cls-1" x1="315.09" y1="303.24" x2="315.09" y2="312.48"/>
      <line class="cls-1" x1="476.02" y1="279.73" x2="484.67" y2="279.73"/>
      <line class="cls-1" x1="480.57" y1="275.23" x2="480.57" y2="284.47"/>
      <line class="cls-1" x1="476.02" y1="307.41" x2="484.67" y2="307.41"/>
      <line class="cls-1" x1="480.57" y1="302.91" x2="480.57" y2="312.16"/>
      <line class="cls-1" x1="506.44" y1="279.61" x2="515.1" y2="279.61"/>
      <line class="cls-1" x1="510.99" y1="275.11" x2="510.99" y2="284.35"/>
      <line class="cls-1" x1="506.05" y1="307.41" x2="514.71" y2="307.41"/>
      <line class="cls-1" x1="510.6" y1="302.91" x2="510.6" y2="312.16"/>
      <line class="cls-1" x1="52.06" y1="342.57" x2="60.72" y2="342.57"/>
      <line class="cls-1" x1="147.41" y1="341.91" x2="156.07" y2="341.91"/>
      <line class="cls-1" x1="146.76" y1="246.96" x2="155.42" y2="246.96"/>
      <line class="cls-1" x1="51.54" y1="246.96" x2="60.2" y2="246.96"/>
      <line class="cls-1" x1="248.26" y1="342.37" x2="256.92" y2="342.37"/>
      <line class="cls-1" x1="343.61" y1="341.72" x2="352.26" y2="341.72"/>
      <line class="cls-1" x1="342.95" y1="246.76" x2="351.61" y2="246.76"/>
      <line class="cls-1" x1="247.74" y1="246.76" x2="256.39" y2="246.76"/>
      <line class="cls-1" x1="444.19" y1="342.28" x2="452.84" y2="342.28"/>
      <line class="cls-1" x1="539.53" y1="341.63" x2="548.19" y2="341.63"/>
      <line class="cls-1" x1="538.88" y1="246.68" x2="547.54" y2="246.68"/>
      <line class="cls-1" x1="443.66" y1="246.68" x2="452.32" y2="246.68"/>
      <path class="cls-3" d="M244.35,298.74"/>
      <line class="cls-3" x1="305.26" y1="238.22" x2="244.35" y2="298.74"/>
      <line class="cls-3" x1="245.39" y1="288.96" x2="305.26" y2="349.09"/>
      <line class="cls-3" x1="294.43" y1="348.43" x2="355.48" y2="287.91"/>
      <line class="cls-3" x1="293.26" y1="237.04" x2="353.39" y2="297.57"/>
      <line class="cls-3" x1="450.17" y1="317.39" x2="476.02" y2="244.35"/>
      <line class="cls-3" x1="471.83" y1="245.78" x2="559.74" y2="284.35"/>
      <line class="cls-3" x1="547.09" y1="275.11" x2="506.44" y2="345.43"/>
      <line class="cls-3" x1="518.91" y1="343.09" x2="437.13" y2="304.61"/>
      <line class="cls-3" x1="441.7" y1="282.43" x2="514.71" y2="244.35"/>
      <line class="cls-3" x1="516.83" y1="230.65" x2="435.04" y2="298.09"/>
      <line class="cls-3" x1="447.99" y1="264.37" x2="473.52" y2="340.87"/>
      <line class="cls-3" x1="437.13" y1="282.83" x2="501.7" y2="351.17"/>
      <line class="cls-3" x1="482.52" y1="353.78" x2="551.52" y2="289.48"/>
      <line class="cls-3" x1="474.3" y1="347.26" x2="552.04" y2="300"/>
      <line class="cls-3" x1="536.52" y1="321.63" x2="523.87" y2="250.61"/>
      <line class="cls-3" x1="504.43" y1="244.35" x2="553.35" y2="316.09"/>
      <line class="cls-3" x1="461.49" y1="254.49" x2="461.49" y2="334.61"/>
      <line class="cls-3" x1="530.2" y1="336.57" x2="530.2" y2="254.88"/>
      <line class="cls-3" x1="538.88" y1="258.99" x2="451.41" y2="258.99"/>
      <line class="cls-3" x1="451.41" y1="327.98" x2="535.64" y2="327.98"/>
    </g>
  </g>
</svg>