<?xml version="1.0" encoding="UTF-8"?>
<svg xmlns="http://www.w3.org/2000/svg" version="1.1" viewBox="0 0 600 600">
  <defs>
    <style>
      .cls-1 {
        stroke: #231815;
      }

      .cls-1, .cls-2, .cls-3, .cls-4 {
        fill: none;
        stroke-miterlimit: 10;
      }

      .cls-2 {
        stroke: lime;
      }

      .cls-2, .cls-3, .cls-4 {
        stroke-width: 2px;
      }

      .cls-5 {
        fill: #e60012;
      }

      .cls-6 {
        fill: #fff;
      }

      .cls-3 {
        stroke: #e60012;
      }

      .cls-7 {
        fill: #1d2088;
      }

      .cls-8 {
        fill: lime;
      }

      .cls-4 {
        stroke: #404aff;
      }
    </style>
  </defs>
  <!-- Generator: Adobe Illustrator 28.7.1, SVG Export Plug-In . SVG Version: 1.2.0 Build 142)  -->
  <g>
    <g id="_레이어_5" data-name="레이어_5">
      <line class="cls-1" x1="146.02" y1="308.98" x2="425.74" y2="308.98"/>
      <line class="cls-1" x1="285.88" y1="199.61" x2="285.88" y2="419.26"/>
      <g>
        <path class="cls-5" d="M381.36,261.82c-.67,0-1.17-.18-1.49-.53s-.48-.89-.48-1.6c0-.26,0-.48,0-.69,0-.2,0-.45,0-.74v-4.35h-1.6v-.48l1.94-.16-.32.24.48-2.69h.88l-.06,2.74v6.13c0,.5.09.86.28,1.09.19.22.46.34.81.34.24,0,.44-.03.62-.1s.38-.17.59-.3l.24.27c-.22.27-.49.47-.8.62s-.68.22-1.1.22ZM380.06,253.91v-.59h2.96v.59h-2.96Z"/>
        <path class="cls-5" d="M386.49,261.82c-.64,0-1.17-.18-1.58-.54-.42-.36-.62-.87-.62-1.54,0-.42.09-.79.27-1.11.18-.33.48-.62.9-.87.42-.26.98-.48,1.69-.69.45-.14.92-.27,1.41-.4.49-.13.95-.24,1.38-.34v.4c-.43.11-.86.22-1.3.34s-.84.25-1.2.39c-.68.25-1.17.54-1.45.88-.28.34-.42.74-.42,1.18,0,.49.14.86.41,1.12.27.26.63.38,1.08.38.25,0,.49-.05.72-.14.23-.1.5-.26.8-.5.3-.23.65-.55,1.06-.96l.14.75h-.38c-.33.35-.64.65-.94.9-.29.25-.59.43-.9.55s-.66.18-1.06.18ZM390.76,261.8c-.48,0-.84-.16-1.08-.49-.24-.33-.38-.77-.41-1.34v-4.14c0-.6-.06-1.06-.19-1.38s-.33-.55-.59-.68-.61-.19-1.04-.19c-.31,0-.62.05-.93.14-.31.09-.64.23-.99.42l.69-.43-.26,1.26c-.04.29-.13.49-.26.61-.13.12-.3.18-.5.18-.38,0-.62-.19-.7-.58.16-.65.53-1.16,1.1-1.54.58-.37,1.31-.56,2.21-.56s1.62.22,2.07.66c.45.44.68,1.16.68,2.15v3.95c0,.5.06.84.18,1.02.12.18.28.26.5.26.14,0,.26-.03.37-.09.11-.06.22-.16.35-.3l.26.24c-.17.28-.38.48-.62.62-.24.13-.51.2-.82.2Z"/>
        <path class="cls-5" d="M394.35,261.58c0-.26.02-.6.02-1.04,0-.44.01-.89.02-1.37,0-.47,0-.89,0-1.26v-.96c0-.55,0-1.05,0-1.47,0-.43-.02-.84-.04-1.23l-1.41-.06v-.42l2.46-.64.21.13.1,1.87v2.78c0,.36,0,.78,0,1.26,0,.48.01.93.02,1.37,0,.44.01.78.02,1.04h-1.41ZM393.04,261.58v-.45l1.73-.18h.53l1.66.18v.45h-3.92ZM399.79,261.58c.01-.26.02-.6.02-1.03,0-.43.01-.89.02-1.36,0-.47,0-.9,0-1.27v-1.84c0-.79-.13-1.34-.39-1.66-.26-.31-.62-.47-1.08-.47-.36,0-.79.12-1.3.35-.5.23-1.05.68-1.63,1.33l-.13-.54h.16c.58-.71,1.15-1.23,1.73-1.54.58-.31,1.15-.46,1.71-.46.69,0,1.24.23,1.63.7.39.46.59,1.24.59,2.33v1.81c0,.37,0,.8,0,1.27,0,.47,0,.93.02,1.36,0,.43.01.78.02,1.03h-1.39ZM398.48,261.58v-.45l1.71-.18h.53l1.68.18v.45h-3.92Z"/>
        <path class="cls-5" d="M404.94,261.58c.01-.26.02-.6.02-1.04,0-.44,0-.89.02-1.37,0-.47,0-.89,0-1.26v-8.24l-1.41-.06v-.43l2.5-.48.24.14-.05,2.48v3.66l.03.21v2.72c0,.36,0,.78,0,1.26,0,.48.01.93.02,1.37,0,.44.01.78.02,1.04h-1.41ZM403.61,261.58v-.45l1.74-.18h.53l1.65.18v.45h-3.92ZM410.38,261.58c0-.26.02-.6.02-1.03,0-.43.01-.89.02-1.36,0-.47,0-.9,0-1.27v-1.84c0-.79-.13-1.34-.39-1.66-.26-.31-.63-.47-1.1-.47-.37,0-.81.12-1.3.35-.49.23-1.03.67-1.62,1.31l-.3-.54h.35c.57-.69,1.13-1.2,1.7-1.51s1.14-.47,1.73-.47c.7,0,1.25.23,1.65.7.39.46.59,1.25.59,2.34v1.79c0,.37,0,.8,0,1.27,0,.47.01.93.02,1.36.01.43.02.78.03,1.03h-1.42ZM409.08,261.58v-.45l1.73-.18h.51l1.68.18v.45h-3.92Z"/>
      </g>
      <g>
        <path class="cls-8" d="M391.28,205.43v-.45l1.86-.18h.51l1.89.18v.45h-4.26ZM392.72,205.43c.01-.33.02-.71.02-1.13,0-.42,0-.85.02-1.3,0-.44,0-.86,0-1.24v-8.24l-1.41-.06v-.43l2.53-.48.24.14-.05,2.48v6.59c0,.38,0,.8,0,1.24,0,.44.01.87.02,1.3,0,.42.01.8.02,1.13h-1.41Z"/>
        <path class="cls-8" d="M398.08,205.43c.01-.26.02-.6.03-1.04.01-.44.02-.89.02-1.37,0-.47,0-.89,0-1.26v-.96c0-.54,0-1.03-.02-1.47-.01-.44-.03-.85-.05-1.25l-1.42-.06v-.42l2.64-.62.19.13-.05,2.24v2.42c0,.36,0,.78,0,1.26,0,.48.01.93.02,1.37.01.44.02.78.03,1.04h-1.42ZM396.75,205.43v-.45l1.76-.18h.5l1.7.18v.45h-3.95ZM398.67,194.95c-.26,0-.48-.08-.66-.25-.18-.17-.27-.38-.27-.65s.09-.49.27-.66c.18-.17.4-.26.66-.26s.46.09.65.26c.19.17.28.39.28.66s-.09.48-.28.65c-.19.17-.4.25-.65.25Z"/>
        <path class="cls-8" d="M403.36,205.43c0-.26.02-.6.02-1.04,0-.44.01-.89.02-1.37,0-.47,0-.89,0-1.26v-.96c0-.55,0-1.05,0-1.47,0-.43-.02-.84-.04-1.23l-1.41-.06v-.42l2.46-.64.21.13.1,1.87v2.78c0,.36,0,.78,0,1.26,0,.48.01.93.02,1.37,0,.44.01.78.02,1.04h-1.41ZM402.05,205.43v-.45l1.73-.18h.53l1.66.18v.45h-3.92ZM408.8,205.43c.01-.26.02-.6.02-1.03,0-.43.01-.89.02-1.36,0-.47,0-.9,0-1.27v-1.84c0-.79-.13-1.34-.39-1.66-.26-.31-.62-.47-1.08-.47-.36,0-.79.12-1.3.35-.5.23-1.05.68-1.63,1.33l-.13-.54h.16c.58-.71,1.15-1.23,1.73-1.54.58-.31,1.15-.46,1.71-.46.69,0,1.24.23,1.63.7.39.46.59,1.24.59,2.33v1.81c0,.37,0,.8,0,1.27,0,.47,0,.93.02,1.36,0,.43.01.78.02,1.03h-1.39ZM407.49,205.43v-.45l1.71-.18h.53l1.68.18v.45h-3.92Z"/>
        <path class="cls-8" d="M416.8,205.67c-.78,0-1.48-.16-2.1-.48-.62-.32-1.1-.81-1.46-1.46-.35-.65-.53-1.46-.53-2.42,0-.9.18-1.67.55-2.33.37-.66.85-1.16,1.45-1.52.6-.36,1.25-.54,1.95-.54s1.29.15,1.78.44c.5.29.88.69,1.14,1.19.26.5.39,1.07.39,1.7,0,.38-.04.7-.11.96h-6.53v-.5h4.64c.29,0,.48-.07.58-.22.1-.15.14-.38.14-.7,0-.68-.18-1.25-.54-1.69-.36-.44-.87-.66-1.52-.66-.47,0-.9.15-1.28.44s-.69.71-.91,1.26-.34,1.21-.34,1.98c0,.86.13,1.57.39,2.13s.62.96,1.08,1.22c.46.26.98.39,1.57.39s1.06-.1,1.48-.3c.42-.2.8-.49,1.13-.87l.26.22c-.35.53-.79.96-1.33,1.27-.53.31-1.16.47-1.89.47Z"/>
        <path class="cls-8" d="M423.71,205.67c-.64,0-1.17-.18-1.58-.54-.42-.36-.62-.87-.62-1.54,0-.42.09-.79.27-1.11.18-.33.48-.62.9-.87.42-.26.98-.48,1.69-.69.45-.14.92-.27,1.41-.4.49-.13.95-.24,1.38-.34v.4c-.43.11-.86.22-1.3.34s-.84.25-1.2.39c-.68.25-1.17.54-1.45.88-.28.34-.42.74-.42,1.18,0,.49.14.86.41,1.12.27.26.63.38,1.08.38.25,0,.49-.05.72-.14.23-.1.5-.26.8-.5.3-.23.65-.55,1.06-.96l.14.75h-.38c-.33.35-.64.65-.94.9-.29.25-.59.43-.9.55s-.66.18-1.06.18ZM427.98,205.65c-.48,0-.84-.16-1.08-.49-.24-.33-.38-.77-.41-1.34v-4.14c0-.6-.06-1.06-.19-1.38s-.33-.55-.59-.68-.61-.19-1.04-.19c-.31,0-.62.05-.93.14-.31.09-.64.23-.99.42l.69-.43-.26,1.26c-.04.29-.13.49-.26.61-.13.12-.3.18-.5.18-.38,0-.62-.19-.7-.58.16-.65.53-1.16,1.1-1.54.58-.37,1.31-.56,2.21-.56s1.62.22,2.07.66c.45.44.68,1.16.68,2.15v3.95c0,.5.06.84.18,1.02.12.18.28.26.5.26.14,0,.26-.03.37-.09.11-.06.22-.16.35-.3l.26.24c-.17.28-.38.48-.62.62-.24.13-.51.2-.82.2Z"/>
        <path class="cls-8" d="M431.57,205.43c0-.26.02-.6.02-1.04,0-.44.01-.89.02-1.37,0-.47,0-.89,0-1.26v-.96c0-.55,0-1.05,0-1.47,0-.43-.02-.84-.04-1.23l-1.41-.06v-.42l2.46-.64.21.13.1,2.26v2.4c0,.36,0,.78,0,1.26,0,.48.01.93.02,1.37,0,.44.01.78.02,1.04h-1.41ZM430.24,205.43v-.45l1.78-.19h.66l1.81.19v.45h-4.24ZM432.91,200.32l-.34-.83h.29c.16-.52.38-.97.67-1.35.29-.38.61-.67.97-.89s.72-.32,1.1-.32c.31,0,.58.06.82.18s.39.3.46.54c-.01.29-.08.51-.21.67s-.34.24-.62.24c-.2,0-.38-.05-.54-.15-.16-.1-.33-.25-.51-.46l-.37-.35.72.03c-.55.15-1.03.44-1.42.87s-.73,1.04-1.02,1.82Z"/>
      </g>
      <g>
        <path class="cls-7" d="M297.03,353.7c-.51,0-.98-.06-1.39-.17-.42-.11-.84-.27-1.28-.47v-1.9h.7l.38,2.02-.59-.03v-.58c.3.2.61.36.94.46.33.11.73.16,1.2.16.7,0,1.23-.14,1.59-.43s.54-.66.54-1.1c0-.39-.12-.72-.36-.97-.24-.25-.69-.48-1.34-.68l-.83-.3c-.65-.24-1.17-.54-1.54-.9-.38-.37-.57-.85-.57-1.45,0-.67.26-1.24.78-1.7.52-.46,1.26-.69,2.22-.69.48,0,.91.06,1.29.18.38.12.76.3,1.16.54l-.05,1.71h-.64l-.38-1.87.5.1v.51c-.32-.22-.63-.39-.93-.49s-.61-.15-.94-.15c-.61,0-1.07.13-1.38.4-.31.27-.46.61-.46,1.04,0,.38.13.7.38.94.26.24.67.46,1.25.66l.82.29c.81.28,1.39.61,1.73.99.34.38.51.85.51,1.41,0,.46-.13.88-.38,1.26-.25.38-.62.68-1.1.9-.48.22-1.09.33-1.82.33Z"/>
        <path class="cls-7" d="M303.07,353.46c.01-.26.02-.6.03-1.04s.02-.89.02-1.37c0-.47,0-.89,0-1.26v-.96c0-.54,0-1.04-.02-1.47-.01-.44-.03-.85-.05-1.25l-1.42-.06v-.42l2.64-.62.19.13-.05,2.24v2.42c0,.36,0,.78,0,1.26,0,.47.01.93.02,1.37s.02.78.03,1.04h-1.42ZM301.74,353.46v-.45l1.76-.18h.5l1.7.18v.45h-3.95ZM303.66,342.98c-.26,0-.48-.08-.66-.25-.18-.17-.27-.38-.27-.65s.09-.49.27-.66c.18-.17.4-.26.66-.26s.46.08.65.26.28.39.28.66-.09.48-.28.65c-.19.17-.4.25-.65.25Z"/>
        <path class="cls-7" d="M310.35,357.62c-.8,0-1.44-.09-1.93-.28s-.84-.44-1.06-.75c-.22-.31-.34-.67-.34-1.08,0-.5.18-.93.54-1.28.36-.35.89-.67,1.59-.94l.08.14c-.42.31-.72.6-.91.86-.19.27-.29.6-.29.99,0,.58.21,1.01.62,1.31.41.3.99.45,1.74.45,1.12,0,1.96-.2,2.53-.58.57-.39.85-.87.85-1.45,0-.36-.13-.67-.38-.94-.26-.26-.72-.39-1.39-.39h-1.97c-.25,0-.46,0-.66-.02-.19-.01-.37-.04-.54-.1v-.05c-.82-.2-1.23-.67-1.23-1.41,0-.34.1-.67.31-.98s.55-.65,1.03-1.02v-.14l.37.19c-.28.29-.48.53-.62.74-.13.2-.2.44-.2.7s.1.5.29.67c.19.17.51.26.94.26h2.34c.65,0,1.19.08,1.61.25.42.17.73.41.94.73.2.32.3.7.3,1.15,0,.49-.17.96-.52,1.42-.35.45-.86.82-1.54,1.11-.68.29-1.51.43-2.49.43ZM310.54,350.67c-.64,0-1.19-.12-1.66-.36-.47-.24-.83-.57-1.08-1-.25-.43-.38-.92-.38-1.49,0-.86.28-1.56.84-2.08.56-.52,1.33-.78,2.3-.78.49,0,.93.07,1.33.21s.72.34.98.61l.05.03c.51.49.77,1.16.77,2.02,0,.57-.13,1.06-.38,1.49-.26.43-.62.76-1.09,1-.47.24-1.02.36-1.66.36ZM310.54,350.19c.58,0,1.04-.22,1.39-.66.35-.44.53-1.01.53-1.73s-.18-1.29-.53-1.72c-.35-.43-.81-.65-1.38-.65s-1.04.22-1.38.66-.52,1.01-.52,1.73.17,1.29.51,1.72c.34.43.8.65,1.38.65ZM312.38,345.99v-.27h.1l2.22-.69.27.18v.86l-2.59-.08Z"/>
        <path class="cls-7" d="M317.4,353.46c0-.26.02-.6.02-1.04,0-.44.01-.89.02-1.37,0-.47,0-.89,0-1.26v-.96c0-.55,0-1.05,0-1.47,0-.43-.02-.84-.04-1.23l-1.41-.06v-.42l2.46-.64.21.13.1,1.87v2.78c0,.36,0,.78,0,1.26,0,.47.01.93.02,1.37,0,.44.01.78.02,1.04h-1.41ZM316.09,353.46v-.45l1.73-.18h.53l1.66.18v.45h-3.92ZM322.84,353.46c.01-.26.02-.6.02-1.03,0-.43.01-.89.02-1.36,0-.47,0-.9,0-1.27v-1.84c0-.79-.13-1.34-.39-1.66-.26-.31-.62-.47-1.08-.47-.36,0-.79.12-1.3.35-.5.23-1.05.68-1.63,1.33l-.13-.54h.16c.58-.71,1.15-1.23,1.73-1.54s1.15-.46,1.71-.46c.69,0,1.24.23,1.63.7.39.46.59,1.24.59,2.33v1.81c0,.37,0,.8,0,1.27,0,.47,0,.93.02,1.36,0,.43.01.78.02,1.03h-1.39ZM321.53,353.46v-.45l1.71-.18h.53l1.68.18v.45h-3.92Z"/>
      </g>
    </g>
    <g id="_레이어_2" data-name="레이어_2">
      <path class="cls-6" d="M426.3,308.98H146.59h279.72Z"/>
      <polyline class="cls-6" points="286.45 419.26 286.45 199.61 286.48 420.5"/>
    </g>
    <g id="_레이어_3" data-name="레이어_3">
      <line class="cls-2" x1="188.65" y1="419.26" x2="384.3" y2="199.61"/>
      <polyline class="cls-4" points="425.1 229.64 285.7 229.64 285.7 388.48 146.59 388.48"/>
      <path class="cls-4" d="M146.39,384.79"/>
    </g>
    <g id="_레이어_4" data-name="레이어_4">
      <path class="cls-3" d="M147.43,384.04c19.17.5,46.73-1.68,73.96-16.43,15.46-8.38,20.98-15.48,64.5-58.34,45.19-44.5,53.58-50.96,64.37-56.97,27.08-15.07,54.02-18.74,72.78-19.43"/>
    </g>
  </g>
</svg>