<?xml version="1.0" encoding="UTF-8"?>
<svg xmlns="http://www.w3.org/2000/svg" version="1.1" viewBox="0 0 600 600">
  <defs>
    <style>
      .cls-1 {
        fill: #231815;
      }

      .cls-2 {
        stroke: #231815;
      }

      .cls-2, .cls-3, .cls-4, .cls-5, .cls-6 {
        fill: none;
        stroke-miterlimit: 10;
      }

      .cls-7 {
        fill: #e60012;
      }

      .cls-3 {
        stroke: #009a3e;
      }

      .cls-4 {
        stroke: #000;
        stroke-width: 2px;
      }

      .cls-5 {
        stroke: #e60012;
      }

      .cls-8 {
        fill: #009a3e;
      }

      .cls-9 {
        fill: #1d2088;
      }

      .cls-6 {
        stroke: #1d2088;
      }
    </style>
  </defs>
  <!-- Generator: Adobe Illustrator 28.7.1, SVG Export Plug-In . SVG Version: 1.2.0 Build 142)  -->
  <g>
    <g id="_레이어_1" data-name="레이어_1">
      <path d="M62.21,273.01c-.05.28-.16.47-.32.57-.16.1-.33.15-.52.15s-.34-.05-.45-.15c-.11-.1-.18-.23-.21-.39-.03-.13-.01-.27.04-.4.05-.13.15-.23.3-.28.07-.12.07-.25.02-.38-.05-.13-.23-.2-.52-.2-.15,0-.33.07-.54.21-.21.14-.44.36-.68.65-.24.29-.48.66-.72,1.11s-.46.97-.66,1.57c-.2.6-.36,1.16-.47,1.66s-.16.94-.15,1.3c.01.36.1.64.25.85s.39.3.71.3c.29,0,.58-.07.84-.21.27-.14.52-.31.74-.52.23-.21.43-.42.59-.64s.3-.41.41-.57l.44.36c-.11.2-.26.44-.47.71-.21.27-.45.54-.72.8-.27.26-.56.48-.86.65-.3.18-.6.26-.89.26-.6,0-1.07-.17-1.42-.52-.34-.35-.51-.82-.51-1.4-.11.21-.26.44-.47.66-.21.23-.45.44-.71.62-.27.19-.56.34-.87.45-.31.11-.63.17-.95.17-.25,0-.48-.04-.67-.13-.19-.09-.36-.2-.5-.33-.14-.13-.25-.29-.32-.46-.07-.17-.11-.35-.11-.52,0-.76.27-1.14.82-1.14.27,0,.48.07.62.22.15.15.22.31.22.48,0,.19-.04.36-.12.51-.08.15-.2.24-.36.27-.04.2.04.33.23.38s.43.04.7-.04c.27-.08.56-.22.84-.43.29-.21.52-.47.69-.79.17-.32.35-.74.53-1.24s.34-1.02.49-1.54c.15-.51.27-.98.38-1.4.11-.42.17-.71.2-.87.01-.16,0-.32-.07-.49-.06-.17-.14-.32-.25-.46-.11-.14-.23-.26-.38-.35-.15-.09-.29-.14-.44-.14-.21,0-.43.06-.63.18-.21.12-.4.26-.58.43-.18.17-.35.34-.49.51-.15.17-.27.31-.36.4l-.34-.42c.15-.13.31-.3.48-.51.17-.21.36-.41.57-.6.21-.19.43-.35.67-.48s.51-.2.8-.2.54.07.76.21c.23.14.42.32.58.53.16.21.28.44.36.69s.11.48.1.69c.13-.15.3-.34.49-.58s.41-.47.66-.7c.25-.23.52-.42.81-.59.29-.17.61-.25.94-.25s.58.07.78.2c.2.13.35.29.46.47.11.18.17.38.2.59.03.21.03.38,0,.53Z"/>
      <path d="M69.76,284.91h-4.98v-.36c.51,0,.9-.03,1.16-.09.26-.06.45-.14.57-.23.12-.09.18-.19.19-.3,0-.11.01-.2.01-.28v-6.45c0-.12-.02-.22-.06-.3s-.13-.14-.26-.19c-.13-.05-.33-.08-.59-.09-.26-.01-.6-.02-1.04-.02v-.29c.37-.05.74-.12,1.09-.21.36-.1.67-.2.96-.3.33-.12.64-.25.93-.4v8.27c0,.07,0,.16.03.26s.09.2.21.29c.12.09.32.17.59.23s.66.1,1.18.1v.34Z"/>
      <path d="M61.77,337.77c-.05.28-.16.47-.32.57-.16.1-.33.15-.52.15s-.34-.05-.45-.15c-.11-.1-.18-.23-.21-.39-.03-.13-.01-.27.04-.4.05-.13.15-.23.3-.28.07-.12.07-.25.02-.38-.05-.13-.23-.2-.52-.2-.15,0-.33.07-.54.21-.21.14-.44.36-.68.65-.24.29-.48.66-.72,1.11s-.46.97-.66,1.57c-.2.6-.36,1.16-.47,1.66s-.16.94-.15,1.3c.01.36.1.64.25.85s.39.3.71.3c.29,0,.58-.07.84-.21.27-.14.52-.31.74-.52.23-.21.43-.42.59-.64s.3-.41.41-.57l.44.36c-.11.2-.26.44-.47.71-.21.27-.45.54-.72.8-.27.26-.56.48-.86.65-.3.18-.6.26-.89.26-.6,0-1.07-.17-1.42-.52-.34-.35-.51-.82-.51-1.4-.11.21-.26.44-.47.66-.21.23-.45.44-.71.62-.27.19-.56.34-.87.45-.31.11-.63.17-.95.17-.25,0-.48-.04-.67-.13-.19-.09-.36-.2-.5-.33-.14-.13-.25-.29-.32-.46-.07-.17-.11-.35-.11-.52,0-.76.27-1.14.82-1.14.27,0,.48.07.62.22.15.15.22.31.22.48,0,.19-.04.36-.12.51-.08.15-.2.24-.36.27-.04.2.04.33.23.38s.43.04.7-.04c.27-.08.56-.22.84-.43.29-.21.52-.47.69-.79.17-.32.35-.74.53-1.24s.34-1.02.49-1.54c.15-.51.27-.98.38-1.4.11-.42.17-.71.2-.87.01-.16,0-.32-.07-.49-.06-.17-.14-.32-.25-.46-.11-.14-.23-.26-.38-.35-.15-.09-.29-.14-.44-.14-.21,0-.43.06-.63.18-.21.12-.4.26-.58.43-.18.17-.35.34-.49.51-.15.17-.27.31-.36.4l-.34-.42c.15-.13.31-.3.48-.51.17-.21.36-.41.57-.6.21-.19.43-.35.67-.48s.51-.2.8-.2.54.07.76.21c.23.14.42.32.58.53.16.21.28.44.36.69s.11.48.1.69c.13-.15.3-.34.49-.58s.41-.47.66-.7c.25-.23.52-.42.81-.59.29-.17.61-.25.94-.25s.58.07.78.2c.2.13.35.29.46.47.11.18.17.38.2.59.03.21.03.38,0,.53Z"/>
      <path d="M69.47,347.2l-.61,2.47h-5.05c.06-.28.18-.59.36-.91.18-.32.39-.65.63-.99.24-.34.51-.67.8-1.01.29-.34.58-.68.87-1.01.23-.27.45-.52.65-.76.2-.24.38-.49.53-.74.15-.25.26-.5.35-.76s.13-.54.13-.84c0-.6-.15-1.07-.44-1.41-.29-.34-.71-.51-1.27-.51-.13,0-.29.02-.46.06s-.34.11-.5.19c-.16.09-.29.2-.4.32-.11.13-.16.28-.16.44,0,.11.02.2.05.26s.08.12.13.19c.05.06.09.14.13.21.04.08.05.19.05.34,0,.24-.08.41-.23.52s-.3.17-.43.17c-.25,0-.43-.09-.55-.26-.12-.17-.18-.39-.18-.63,0-.28.08-.55.23-.81.16-.27.36-.5.61-.71s.54-.37.87-.5c.32-.13.65-.19.99-.19.42,0,.8.06,1.14.19.34.12.63.29.88.5.24.21.43.46.57.74.13.29.2.59.2.91,0,.34-.06.65-.18.93-.12.28-.28.54-.47.79-.19.24-.4.47-.63.69-.23.22-.45.43-.67.63-.83.75-1.47,1.39-1.92,1.91-.46.52-.73.93-.82,1.22h2.62c.18,0,.34,0,.5-.03.16-.02.31-.08.46-.19s.3-.28.45-.51.31-.57.48-1l.29.1"/>
      <path d="M63.17,424.18c-.05.27-.16.46-.31.55s-.32.15-.51.15-.33-.05-.44-.15-.18-.22-.2-.38c-.03-.13-.01-.26.04-.39.05-.13.15-.22.29-.27.06-.12.07-.24.02-.37s-.22-.19-.51-.19c-.14,0-.32.07-.53.21s-.43.35-.66.63c-.23.29-.47.64-.7,1.07-.23.43-.45.94-.64,1.52-.19.58-.35,1.12-.46,1.61-.11.49-.16.91-.15,1.26.01.35.09.62.24.82s.38.29.69.29c.29,0,.56-.07.82-.2s.5-.3.72-.51.41-.41.57-.62c.16-.21.29-.4.4-.55l.43.35c-.1.19-.26.42-.46.69-.2.27-.44.52-.7.78-.27.25-.55.46-.84.63-.29.17-.58.26-.87.26-.58,0-1.04-.17-1.37-.51-.33-.34-.5-.79-.5-1.36-.1.21-.26.42-.46.64-.2.22-.43.42-.69.6-.26.18-.54.33-.85.44-.31.11-.61.17-.92.17-.25,0-.46-.04-.65-.13-.19-.08-.35-.19-.49-.32-.14-.13-.24-.28-.31-.45-.07-.17-.11-.34-.11-.51,0-.74.27-1.11.8-1.11.26,0,.46.07.6.21.14.14.21.3.21.47,0,.18-.04.35-.12.5-.08.15-.19.24-.35.26-.04.2.04.32.22.37.19.05.42.04.68-.04.27-.08.54-.22.82-.42.28-.2.5-.46.67-.77.17-.31.34-.71.52-1.21.17-.49.33-.99.48-1.49.14-.5.27-.95.37-1.36.1-.41.17-.69.19-.85.01-.16,0-.31-.07-.48-.06-.16-.14-.31-.24-.45-.1-.14-.23-.25-.37-.34s-.29-.14-.43-.14c-.21,0-.41.06-.61.17-.2.12-.39.26-.56.42s-.33.33-.48.5c-.14.17-.26.3-.35.39l-.33-.41c.14-.13.3-.29.47-.5.17-.2.35-.39.56-.58.2-.19.42-.34.65-.47s.49-.19.78-.19.52.07.74.2c.22.14.41.31.56.52.16.21.27.43.35.67.08.24.11.46.1.67.13-.14.29-.33.48-.56.19-.23.4-.46.64-.68s.5-.41.79-.57c.29-.16.59-.24.92-.24s.56.06.76.19.34.28.45.46c.1.18.17.37.19.57s.03.37,0,.52Z"/>
      <path d="M65.7,435.79c-.08.23-.1.4-.08.5.03.1.08.15.15.17.07.01.15,0,.24-.04s.15-.07.19-.1c.08-.04.16-.11.26-.2s.19-.19.28-.29c.09-.11.17-.21.25-.32.07-.11.13-.2.17-.28l.22.15c-.03.06-.08.16-.17.3-.09.14-.2.29-.33.44-.13.16-.27.31-.43.46-.16.15-.31.27-.46.37-.16.09-.31.15-.46.17-.15.02-.29-.03-.41-.15-.15-.15-.22-.35-.23-.61s.06-.64.19-1.16c-.1.18-.23.38-.39.6s-.33.43-.53.63c-.2.2-.41.36-.64.5-.23.13-.47.2-.72.2-.28,0-.5-.05-.68-.16-.18-.11-.32-.24-.42-.41-.1-.16-.18-.35-.22-.55-.04-.2-.06-.39-.06-.57,0-.3.05-.63.14-.98.09-.35.23-.69.4-1.03.17-.34.37-.66.61-.97s.48-.58.75-.82c.27-.24.55-.42.84-.57.29-.14.59-.21.89-.21.09,0,.2.01.31.03s.22.07.32.14c.1.07.2.18.29.31.09.14.17.33.24.57l.93-3.06c.05-.18.05-.31-.01-.39-.06-.08-.15-.14-.27-.17-.12-.03-.26-.04-.41-.03-.15,0-.28,0-.39,0l.03-.37c.28-.03.56-.06.84-.11.24-.04.5-.1.78-.17.28-.07.54-.17.78-.29l-2.79,8.47ZM65.94,432.46c0-.1,0-.22-.01-.37,0-.15-.04-.29-.09-.42-.05-.13-.13-.25-.24-.35-.11-.1-.26-.15-.47-.15-.28,0-.54.08-.76.24-.22.16-.42.35-.59.57-.17.22-.32.44-.44.66s-.22.4-.3.52c-.25.4-.45.83-.59,1.29s-.21.87-.21,1.22c0,.08.01.18.03.29.02.12.06.23.1.34s.11.21.19.29c.08.08.18.12.3.12.2,0,.41-.08.65-.25.23-.16.46-.38.69-.63.23-.26.45-.55.66-.87.21-.32.4-.64.56-.95s.29-.6.38-.88c.09-.28.14-.5.14-.67Z"/>
      <path d="M205.11,339.68c-.46,1.6-.96,2.91-1.51,3.95-.55,1.04-1.12,1.85-1.71,2.43-.59.58-1.18.96-1.76,1.14-.58.18-1.13.19-1.64.05-.69-.21-1.16-.6-1.42-1.17-.26-.57-.38-1.23-.37-1.99.01-.75.12-1.55.33-2.39.21-.84.44-1.64.7-2.39.18-.53.4-1.07.66-1.62.26-.54.54-1.07.86-1.57.31-.5.65-.96,1.01-1.37.36-.42.74-.76,1.14-1.03.4-.27.8-.46,1.23-.55s.85-.07,1.3.07c.42.14.75.43.99.86.25.43.42.94.52,1.54.1.6.12,1.25.06,1.96-.06.71-.19,1.41-.38,2.09ZM199.05,340.05c-.13.34-.24.64-.32.9-.08.27-.18.56-.28.9s-.19.66-.27.98c-.1.38-.18.77-.22,1.19-.05.42-.05.81,0,1.18.04.37.13.69.27.95.14.27.36.43.64.5.4.1.79.06,1.16-.15s.71-.49,1.02-.86c.31-.37.59-.79.83-1.26.24-.47.44-.92.59-1.34.13-.32.26-.67.39-1.02.13-.36.25-.68.36-.97.11-.29.2-.53.26-.72.06-.19.09-.28.08-.28h-4.5ZM204.21,336.6c.05-.52.06-.94.04-1.27-.03-.32-.08-.58-.16-.77-.08-.19-.18-.32-.3-.4-.12-.08-.26-.13-.4-.16-.34-.06-.64-.03-.91.11-.27.14-.51.33-.74.57-.23.25-.44.53-.64.84s-.4.61-.59.9c-.16.23-.31.52-.48.86-.16.34-.31.66-.43.97s-.26.69-.42,1.13h4.5c.1-.4.19-.75.24-1.03.06-.29.11-.59.17-.92.05-.32.09-.6.12-.84Z"/>
      <path d="M562.95,280.29c-.16.23-.35.5-.58.82-.23.31-.49.6-.76.88-.27.28-.56.51-.86.71-.3.19-.59.29-.88.29-.31,0-.54-.08-.68-.25-.14-.17-.23-.36-.27-.58-.04-.22-.05-.44-.02-.65s.06-.37.1-.46l1.87-4.9c.14-.36.21-.64.2-.84,0-.19-.04-.34-.11-.43-.07-.09-.15-.14-.25-.16s-.18-.02-.23-.02c-.19,0-.43.12-.71.37-.28.25-.58.57-.91.98-.32.41-.67.89-1.02,1.43-.36.54-.7,1.12-1.04,1.72-.34.6-.66,1.22-.97,1.84-.31.62-.58,1.21-.82,1.77h-1.36l3.37-11.68c.09-.31,0-.54-.26-.69-.27-.15-.65-.2-1.16-.17l.06-.39c.39-.08.79-.16,1.19-.25.34-.08.7-.17,1.09-.28s.74-.22,1.05-.34l-3.47,11.39c.27-.41.56-.86.85-1.34.29-.48.59-.95.9-1.43.3-.47.61-.92.93-1.36.31-.43.63-.82.94-1.15.32-.33.63-.59.94-.8.31-.2.62-.3.92-.3.17,0,.35.04.54.13.19.08.35.21.48.39.13.17.21.39.24.65.03.26-.02.56-.15.91l-1.83,4.82c-.17.44-.22.76-.16.97s.21.29.45.23c.23-.05.54-.25.92-.59.38-.34.79-.84,1.23-1.5l.25.25Z"/>
      <path d="M567.25,275.64c0-.87.09-1.7.26-2.48.17-.79.4-1.52.66-2.2.27-.68.56-1.3.89-1.87s.65-1.06.96-1.48c.32-.42.62-.77.9-1.05s.5-.47.65-.57c.09-.07.17-.06.23,0,.06.07.05.15-.04.24-.44.49-.86,1.05-1.27,1.68-.4.63-.76,1.33-1.06,2.09-.31.77-.55,1.61-.74,2.54-.19.93-.29,1.94-.3,3.05-.01,1.01.06,1.94.2,2.79.15.85.34,1.62.57,2.3.23.68.49,1.29.77,1.81.28.53.54.97.79,1.33s.46.65.64.85.29.32.33.36c.1.1.13.2.07.28-.06.08-.13.09-.22.03-.31-.19-.71-.56-1.2-1.1-.49-.54-.96-1.23-1.43-2.06s-.87-1.81-1.2-2.91c-.33-1.1-.49-2.32-.48-3.64Z"/>
      <path d="M583.32,275.85c-.05.27-.16.46-.31.55s-.32.15-.51.15-.33-.05-.44-.15-.18-.22-.2-.38c-.03-.13-.01-.26.04-.39.05-.13.15-.22.29-.27.06-.12.07-.24.02-.37s-.22-.19-.51-.19c-.14,0-.32.07-.53.21s-.43.35-.66.63c-.23.29-.47.64-.7,1.07-.23.43-.45.94-.64,1.52-.19.58-.35,1.12-.46,1.61-.11.49-.16.91-.15,1.26.01.35.09.62.24.82s.38.29.69.29c.29,0,.56-.07.82-.2s.5-.3.72-.51.41-.41.57-.62c.16-.21.29-.4.4-.55l.43.35c-.1.19-.26.42-.46.69-.2.27-.44.52-.7.78-.27.25-.55.46-.84.63-.29.17-.58.26-.87.26-.58,0-1.04-.17-1.37-.51-.33-.34-.5-.79-.5-1.36-.1.21-.26.42-.46.64-.2.22-.43.42-.69.6-.26.18-.54.33-.85.44-.31.11-.61.17-.92.17-.25,0-.46-.04-.65-.13-.19-.08-.35-.19-.49-.32-.14-.13-.24-.28-.31-.45-.07-.17-.11-.34-.11-.51,0-.74.27-1.11.8-1.11.26,0,.46.07.6.21.14.14.21.3.21.47,0,.18-.04.35-.12.5-.08.15-.19.24-.35.26-.04.2.04.32.22.37.19.05.42.04.68-.04.27-.08.54-.22.82-.42.28-.2.5-.46.67-.77.17-.31.34-.71.52-1.21.17-.49.33-.99.48-1.49.14-.5.27-.95.37-1.36.1-.41.17-.69.19-.85.01-.16,0-.31-.07-.48-.06-.16-.14-.31-.24-.45-.1-.14-.23-.25-.37-.34s-.29-.14-.43-.14c-.21,0-.41.06-.61.17-.2.12-.39.26-.56.42s-.33.33-.48.5c-.14.17-.26.3-.35.39l-.33-.41c.14-.13.3-.29.47-.5.17-.2.35-.39.56-.58.2-.19.42-.34.65-.47s.49-.19.78-.19.52.07.74.2c.22.14.41.31.56.52.16.21.27.43.35.67.08.24.11.46.1.67.13-.14.29-.33.48-.56.19-.23.4-.46.64-.68s.5-.41.79-.57c.29-.16.59-.24.92-.24s.56.06.76.19.34.28.45.46c.1.18.17.37.19.57s.03.37,0,.52Z"/>
      <path d="M587.59,265.99c.16.1.37.29.65.57.28.28.58.63.9,1.05.32.42.64.92.96,1.48.32.56.62,1.19.89,1.87s.49,1.41.66,2.2.26,1.61.26,2.48c.01,1.32-.15,2.54-.48,3.64-.33,1.1-.73,2.07-1.2,2.91-.47.84-.94,1.52-1.43,2.06-.49.54-.89.91-1.2,1.1-.09.06-.17.05-.22-.03-.06-.08-.04-.18.07-.28.04-.04.15-.16.33-.36s.4-.48.64-.85.51-.81.79-1.33c.28-.53.54-1.13.77-1.81.23-.68.43-1.45.57-2.3.15-.85.22-1.78.2-2.79-.01-1.1-.11-2.12-.3-3.05-.19-.93-.44-1.77-.75-2.54-.31-.76-.67-1.46-1.07-2.09-.4-.63-.82-1.19-1.27-1.68-.08-.09-.09-.17-.03-.24s.14-.08.24,0Z"/>
      <path d="M107.08,478.45c-.04.16-.09.33-.17.54-.07.2-.16.41-.25.61-.1.21-.2.41-.3.61-.1.2-.2.37-.29.5-.23.3-.51.54-.84.72-.32.18-.66.27-1.01.27-.39,0-.73-.09-1.01-.27s-.53-.42-.72-.7c-.19-.29-.35-.61-.48-.97s-.23-.73-.32-1.09c-.12.09-.25.19-.41.29s-.32.21-.49.33l-.49.33c-.16.1-.29.19-.41.27-.17.1-.31.15-.42.15-.11,0-.18-.04-.21-.12-.03-.07-.03-.16,0-.25.04-.1.13-.19.27-.28.13-.09.28-.2.45-.33s.34-.27.53-.41.36-.29.54-.43.33-.27.48-.39c-.03-.34-.05-.7-.07-1.1-.02-.4-.03-.78-.03-1.14,0-.56.03-1.13.09-1.72.06-.59.14-1.17.24-1.74.06-.31.18-.7.34-1.18.16-.47.37-.93.61-1.38.25-.45.53-.83.84-1.16.31-.32.66-.49,1.03-.49.49,0,.9.19,1.22.56.32.37.48.95.48,1.74,0,.3-.03.63-.08,1-.05.37-.13.76-.23,1.18-.12.42-.28.85-.5,1.31-.21.46-.46.91-.75,1.37s-.6.91-.94,1.34c-.34.44-.71.83-1.1,1.2.01.22.06.52.14.91.08.38.19.76.32,1.13.14.37.31.69.54.96.22.27.49.41.8.41.21,0,.42-.08.63-.24.21-.16.4-.35.55-.57.22-.31.4-.63.55-.96.14-.33.27-.65.37-.96.05-.14.11-.27.17-.38s.12-.17.19-.17c.08,0,.15.04.2.13.06.08.04.28-.05.57ZM102.58,476.12c0,.22,0,.47.02.76.38-.47.73-.97,1.06-1.52s.62-1.12.86-1.71.43-1.21.56-1.85c.14-.63.2-1.27.2-1.91,0-.39-.05-.73-.14-1.01s-.27-.44-.53-.47c-.23,0-.45.15-.65.46-.2.3-.38.68-.55,1.12-.16.44-.3.91-.42,1.39-.12.49-.21.91-.27,1.27-.05.31-.09.68-.12,1.12-.03.44-.04,1-.04,1.68v.66Z"/>
      <path d="M124.98,475.14h-12.87v-.76h12.87v.76ZM124.98,479.37h-12.87v-.76h12.87v.76Z"/>
      <path d="M380.49,480.84l-2.52,3.37h-10.32l.2-.6c.4,0,.74-.03,1.02-.1.28-.07.5-.15.69-.25.18-.1.33-.22.43-.36.1-.14.18-.28.23-.42l3.42-10.26c.07-.22.11-.4.1-.54s-.07-.25-.18-.33-.3-.13-.54-.16c-.24-.03-.57-.04-.97-.04l.19-.58h5.84l-.2.58c-.44,0-.81.03-1.11.08-.3.05-.54.13-.73.22-.19.1-.33.21-.43.34-.1.13-.18.27-.23.43l-3.42,10.26c-.13.38-.08.65.15.81s.73.24,1.51.24c.56,0,1.1-.05,1.61-.14.52-.09,1.04-.25,1.55-.48.52-.23,1.05-.53,1.59-.9.54-.37,1.12-.83,1.73-1.37l.38.19Z"/>
      <path d="M331.37,473.72l-12,6.07,11.88,6.25-.39.68-12.19-6.44s-.08-.04-.16-.07c-.08-.03-.16-.07-.23-.12-.08-.05-.15-.09-.21-.15-.07-.05-.1-.1-.1-.14,0-.05.03-.1.09-.16.06-.05.12-.1.18-.14.07-.04.13-.07.2-.11.06-.03.1-.05.12-.05l12.44-6.33.37.68Z"/>
      <path d="M205.11,405.67c-.46,1.6-.96,2.91-1.51,3.95-.55,1.04-1.12,1.85-1.71,2.43-.59.58-1.18.96-1.76,1.14-.58.18-1.13.19-1.64.05-.69-.21-1.16-.6-1.42-1.17-.26-.57-.38-1.23-.37-1.99.01-.75.12-1.55.33-2.39.21-.84.44-1.64.7-2.39.18-.53.4-1.07.66-1.62.26-.54.54-1.07.86-1.57.31-.5.65-.96,1.01-1.37.36-.42.74-.76,1.14-1.03.4-.27.8-.46,1.23-.55s.85-.07,1.3.07c.42.14.75.43.99.86.25.43.42.94.52,1.54.1.6.12,1.25.06,1.96-.06.71-.19,1.41-.38,2.09ZM199.05,406.04c-.13.34-.24.64-.32.9-.08.27-.18.56-.28.9s-.19.66-.27.98c-.1.38-.18.77-.22,1.19-.05.42-.05.81,0,1.18.04.37.13.69.27.95.14.27.36.43.64.5.4.1.79.06,1.16-.15s.71-.49,1.02-.86c.31-.37.59-.79.83-1.26.24-.47.44-.92.59-1.34.13-.32.26-.67.39-1.02.13-.36.25-.68.36-.97.11-.29.2-.53.26-.72.06-.19.09-.28.08-.28h-4.5ZM204.21,402.59c.05-.52.06-.94.04-1.27-.03-.32-.08-.58-.16-.77-.08-.19-.18-.32-.3-.4-.12-.08-.26-.13-.4-.16-.34-.06-.64-.03-.91.11-.27.14-.51.33-.74.57-.23.25-.44.53-.64.84s-.4.61-.59.9c-.16.23-.31.52-.48.86-.16.34-.31.66-.43.97s-.26.69-.42,1.13h4.5c.1-.4.19-.75.24-1.03.06-.29.11-.59.17-.92.05-.32.09-.6.12-.84Z"/>
      <path d="M205.11,275.5c-.46,1.6-.96,2.91-1.51,3.95-.55,1.04-1.12,1.85-1.71,2.43-.59.58-1.18.96-1.76,1.14-.58.18-1.13.19-1.64.05-.69-.21-1.16-.6-1.42-1.17-.26-.57-.38-1.23-.37-1.99.01-.75.12-1.55.33-2.39.21-.84.44-1.64.7-2.39.18-.53.4-1.07.66-1.62.26-.54.54-1.07.86-1.57.31-.5.65-.96,1.01-1.37.36-.42.74-.76,1.14-1.03.4-.27.8-.46,1.23-.55s.85-.07,1.3.07c.42.14.75.43.99.86.25.43.42.94.52,1.54.1.6.12,1.25.06,1.96-.06.71-.19,1.41-.38,2.09ZM199.05,275.87c-.13.34-.24.64-.32.9-.08.27-.18.56-.28.9s-.19.66-.27.98c-.1.38-.18.77-.22,1.19-.05.42-.05.81,0,1.18.04.37.13.69.27.95.14.27.36.43.64.5.4.1.79.06,1.16-.15s.71-.49,1.02-.86c.31-.37.59-.79.83-1.26.24-.47.44-.92.59-1.34.13-.32.26-.67.39-1.02.13-.36.25-.68.36-.97.11-.29.2-.53.26-.72.06-.19.09-.28.08-.28h-4.5ZM204.21,272.42c.05-.52.06-.94.04-1.27-.03-.32-.08-.58-.16-.77-.08-.19-.18-.32-.3-.4-.12-.08-.26-.13-.4-.16-.34-.06-.64-.03-.91.11-.27.14-.51.33-.74.57-.23.25-.44.53-.64.84s-.4.61-.59.9c-.16.23-.31.52-.48.86-.16.34-.31.66-.43.97s-.26.69-.42,1.13h4.5c.1-.4.19-.75.24-1.03.06-.29.11-.59.17-.92.05-.32.09-.6.12-.84Z"/>
      <path d="M346.1,275.87c-.46,1.6-.96,2.91-1.51,3.95-.55,1.04-1.12,1.85-1.71,2.43-.59.58-1.18.96-1.76,1.14-.58.18-1.13.19-1.64.05-.69-.21-1.16-.6-1.42-1.17-.26-.57-.38-1.23-.37-1.99.01-.75.12-1.55.33-2.39.21-.84.44-1.64.7-2.39.18-.53.4-1.07.66-1.62.26-.54.54-1.07.86-1.57.31-.5.65-.96,1.01-1.37.36-.42.74-.76,1.14-1.03.4-.27.8-.46,1.23-.55s.85-.07,1.3.07c.42.14.75.43.99.86.25.43.42.94.52,1.54.1.6.12,1.25.06,1.96-.06.71-.19,1.41-.38,2.09ZM340.04,276.24c-.13.34-.24.64-.32.9-.08.27-.18.56-.28.9s-.19.66-.27.98c-.1.38-.18.77-.22,1.19-.05.42-.05.81,0,1.18.04.37.13.69.27.95.14.27.36.43.64.5.4.1.79.06,1.16-.15s.71-.49,1.02-.86c.31-.37.59-.79.83-1.26.24-.47.44-.92.59-1.34.13-.32.26-.67.39-1.02.13-.36.25-.68.36-.97.11-.29.2-.53.26-.72.06-.19.09-.28.08-.28h-4.5ZM345.2,272.8c.05-.52.06-.94.04-1.27-.03-.32-.08-.58-.16-.77-.08-.19-.18-.32-.3-.4-.12-.08-.26-.13-.4-.16-.34-.06-.64-.03-.91.11-.27.14-.51.33-.74.57-.23.25-.44.53-.64.84s-.4.61-.59.9c-.16.23-.31.52-.48.86-.16.34-.31.66-.43.97s-.26.69-.42,1.13h4.5c.1-.4.19-.75.24-1.03.06-.29.11-.59.17-.92.05-.32.09-.6.12-.84Z"/>
      <path d="M346.22,340.88c-.46,1.6-.96,2.91-1.51,3.95-.55,1.04-1.12,1.85-1.71,2.43-.59.58-1.18.96-1.76,1.14-.58.18-1.13.19-1.64.05-.69-.21-1.16-.6-1.42-1.17-.26-.57-.38-1.23-.37-1.99.01-.75.12-1.55.33-2.39.21-.84.44-1.64.7-2.39.18-.53.4-1.07.66-1.62.26-.54.54-1.07.86-1.57.31-.5.65-.96,1.01-1.37.36-.42.74-.76,1.14-1.03.4-.27.8-.46,1.23-.55s.85-.07,1.3.07c.42.14.75.43.99.86.25.43.42.94.52,1.54.1.6.12,1.25.06,1.96-.06.71-.19,1.41-.38,2.09ZM340.16,341.25c-.13.34-.24.64-.32.9-.08.27-.18.56-.28.9s-.19.66-.27.98c-.1.38-.18.77-.22,1.19-.05.42-.05.81,0,1.18.04.37.13.69.27.95.14.27.36.43.64.5.4.1.79.06,1.16-.15s.71-.49,1.02-.86c.31-.37.59-.79.83-1.26.24-.47.44-.92.59-1.34.13-.32.26-.67.39-1.02.13-.36.25-.68.36-.97.11-.29.2-.53.26-.72.06-.19.09-.28.08-.28h-4.5ZM345.32,337.8c.05-.52.06-.94.04-1.27-.03-.32-.08-.58-.16-.77-.08-.19-.18-.32-.3-.4-.12-.08-.26-.13-.4-.16-.34-.06-.64-.03-.91.11-.27.14-.51.33-.74.57-.23.25-.44.53-.64.84s-.4.61-.59.9c-.16.23-.31.52-.48.86-.16.34-.31.66-.43.97s-.26.69-.42,1.13h4.5c.1-.4.19-.75.24-1.03.06-.29.11-.59.17-.92.05-.32.09-.6.12-.84Z"/>
      <path d="M486.71,275.12c-.46,1.6-.96,2.91-1.51,3.95-.55,1.04-1.12,1.85-1.71,2.43-.59.58-1.18.96-1.76,1.14-.58.18-1.13.19-1.64.05-.69-.21-1.16-.6-1.42-1.17-.26-.57-.38-1.23-.37-1.99.01-.75.12-1.55.33-2.39.21-.84.44-1.64.7-2.39.18-.53.4-1.07.66-1.62.26-.54.54-1.07.86-1.57.31-.5.65-.96,1.01-1.37.36-.42.74-.76,1.14-1.03.4-.27.8-.46,1.23-.55s.85-.07,1.3.07c.42.14.75.43.99.86.25.43.42.94.52,1.54.1.6.12,1.25.06,1.96-.06.71-.19,1.41-.38,2.09ZM480.65,275.49c-.13.34-.24.64-.32.9-.08.27-.18.56-.28.9s-.19.66-.27.98c-.1.38-.18.77-.22,1.19-.05.42-.05.81,0,1.18.04.37.13.69.27.95.14.27.36.43.64.5.4.1.79.06,1.16-.15s.71-.49,1.02-.86c.31-.37.59-.79.83-1.26.24-.47.44-.92.59-1.34.13-.32.26-.67.39-1.02.13-.36.25-.68.36-.97.11-.29.2-.53.26-.72.06-.19.09-.28.08-.28h-4.5ZM485.82,272.04c.05-.52.06-.94.04-1.27-.03-.32-.08-.58-.16-.77-.08-.19-.18-.32-.3-.4-.12-.08-.26-.13-.4-.16-.34-.06-.64-.03-.91.11-.27.14-.51.33-.74.57-.23.25-.44.53-.64.84s-.4.61-.59.9c-.16.23-.31.52-.48.86-.16.34-.31.66-.43.97s-.26.69-.42,1.13h4.5c.1-.4.19-.75.24-1.03.06-.29.11-.59.17-.92.05-.32.09-.6.12-.84Z"/>
      <path d="M362.51,473.72l-12,6.07,11.88,6.25-.39.68-12.19-6.44s-.08-.04-.16-.07c-.08-.03-.16-.07-.23-.12-.08-.05-.15-.09-.21-.15-.07-.05-.1-.1-.1-.14,0-.05.03-.1.09-.16.06-.05.12-.1.18-.14.07-.04.13-.07.2-.11.06-.03.1-.05.12-.05l12.44-6.33.37.68Z"/>
      <path d="M344.12,481.03c-.04.16-.09.33-.17.54-.07.2-.16.41-.25.61-.1.21-.2.41-.3.61-.1.2-.2.37-.29.5-.23.3-.51.54-.84.72-.32.18-.66.27-1.01.27-.39,0-.73-.09-1.01-.27s-.53-.42-.72-.7c-.19-.29-.35-.61-.48-.97s-.23-.73-.32-1.09c-.12.09-.25.19-.41.29s-.32.21-.49.33l-.49.33c-.16.1-.29.19-.41.27-.17.1-.31.15-.42.15-.11,0-.18-.04-.21-.12-.03-.07-.03-.16,0-.25.04-.1.13-.19.27-.28.13-.09.28-.2.45-.33s.34-.27.53-.41.36-.29.54-.43.33-.27.48-.39c-.03-.34-.05-.7-.07-1.1-.02-.4-.03-.78-.03-1.14,0-.56.03-1.13.09-1.72.06-.59.14-1.17.24-1.74.06-.31.18-.7.34-1.18.16-.47.37-.93.61-1.38.25-.45.53-.83.84-1.16.31-.32.66-.49,1.03-.49.49,0,.9.19,1.22.56.32.37.48.95.48,1.74,0,.3-.03.63-.08,1-.05.37-.13.76-.23,1.18-.12.42-.28.85-.5,1.31-.21.46-.46.91-.75,1.37s-.6.91-.94,1.34c-.34.44-.71.83-1.1,1.2.01.22.06.52.14.91.08.38.19.76.32,1.13.14.37.31.69.54.96.22.27.49.41.8.41.21,0,.42-.08.63-.24.21-.16.4-.35.55-.57.22-.31.4-.63.55-.96.14-.33.27-.65.37-.96.05-.14.11-.27.17-.38s.12-.17.19-.17c.08,0,.15.04.2.13.06.08.04.28-.05.57ZM339.62,478.69c0,.22,0,.47.02.76.38-.47.73-.97,1.06-1.52s.62-1.12.86-1.71.43-1.21.56-1.85c.14-.63.2-1.27.2-1.91,0-.39-.05-.73-.14-1.01s-.27-.44-.53-.47c-.23,0-.45.15-.65.46-.2.3-.38.68-.55,1.12-.16.44-.3.91-.42,1.39-.12.49-.21.91-.27,1.27-.05.31-.09.68-.12,1.12-.03.44-.04,1-.04,1.68v.66Z"/>
      <path d="M518.82,480.53c-.04.16-.09.33-.17.54-.07.2-.16.41-.25.61-.1.21-.2.41-.3.61-.1.2-.2.37-.29.5-.23.3-.51.54-.84.72-.32.18-.66.27-1.01.27-.39,0-.73-.09-1.01-.27s-.53-.42-.72-.7c-.19-.29-.35-.61-.48-.97s-.23-.73-.32-1.09c-.12.09-.25.19-.41.29s-.32.21-.49.33l-.49.33c-.16.1-.29.19-.41.27-.17.1-.31.15-.42.15-.11,0-.18-.04-.21-.12-.03-.07-.03-.16,0-.25.04-.1.13-.19.27-.28.13-.09.28-.2.45-.33s.34-.27.53-.41.36-.29.54-.43.33-.27.48-.39c-.03-.34-.05-.7-.07-1.1-.02-.4-.03-.78-.03-1.14,0-.56.03-1.13.09-1.72.06-.59.14-1.17.24-1.74.06-.31.18-.7.34-1.18.16-.47.37-.93.61-1.38.25-.45.53-.83.84-1.16.31-.32.66-.49,1.03-.49.49,0,.9.19,1.22.56.32.37.48.95.48,1.74,0,.3-.03.63-.08,1-.05.37-.13.76-.23,1.18-.12.42-.28.85-.5,1.31-.21.46-.46.91-.75,1.37s-.6.91-.94,1.34c-.34.44-.71.83-1.1,1.2.01.22.06.52.14.91.08.38.19.76.32,1.13.14.37.31.69.54.96.22.27.49.41.8.41.21,0,.42-.08.63-.24.21-.16.4-.35.55-.57.22-.31.4-.63.55-.96.14-.33.27-.65.37-.96.05-.14.11-.27.17-.38s.12-.17.19-.17c.08,0,.15.04.2.13.06.08.04.28-.05.57ZM514.32,478.2c0,.22,0,.47.02.76.38-.47.73-.97,1.06-1.52s.62-1.12.86-1.71.43-1.21.56-1.85c.14-.63.2-1.27.2-1.91,0-.39-.05-.73-.14-1.01s-.27-.44-.53-.47c-.23,0-.45.15-.65.46-.2.3-.38.68-.55,1.12-.16.44-.3.91-.42,1.39-.12.49-.21.91-.27,1.27-.05.31-.09.68-.12,1.12-.03.44-.04,1-.04,1.68v.66Z"/>
      <path d="M535.94,475.49h-12.87v-.76h12.87v.76ZM535.94,479.71h-12.87v-.76h12.87v.76Z"/>
      <path d="M553.48,478.28l-2.52,3.37h-10.32l.2-.6c.4,0,.74-.03,1.02-.1.28-.07.5-.15.69-.25.18-.1.33-.22.43-.36.1-.14.18-.28.23-.42l3.42-10.26c.07-.22.11-.4.1-.54s-.07-.25-.18-.33-.3-.13-.54-.16c-.24-.03-.57-.04-.97-.04l.19-.58h5.84l-.2.58c-.44,0-.81.03-1.11.08-.3.05-.54.13-.73.22-.19.1-.33.21-.43.34-.1.13-.18.27-.23.43l-3.42,10.26c-.13.38-.08.65.15.81s.73.24,1.51.24c.56,0,1.1-.05,1.61-.14.52-.09,1.04-.25,1.55-.48.52-.23,1.05-.53,1.59-.9.54-.37,1.12-.83,1.73-1.37l.38.19Z"/>
      <path d="M138.04,474.82c0,1.22-.11,2.22-.33,2.99-.22.78-.5,1.39-.83,1.83-.33.44-.7.75-1.09.91-.4.17-.77.25-1.11.25s-.72-.1-1.12-.3c-.4-.2-.77-.53-1.12-.98s-.63-1.06-.87-1.81-.35-1.68-.35-2.8c0-.34.03-.72.09-1.12.06-.41.15-.81.27-1.21.12-.4.28-.79.46-1.16.18-.38.4-.71.65-.99.25-.29.53-.52.85-.69.32-.17.67-.26,1.07-.26.49,0,.94.16,1.36.48.42.32.78.73,1.09,1.23.31.51.55,1.08.72,1.72s.26,1.28.26,1.91ZM136.6,474.8c0-.6-.03-1.19-.1-1.77-.07-.58-.18-1.09-.34-1.55-.16-.46-.36-.83-.61-1.11-.25-.28-.55-.42-.91-.42-.41,0-.74.14-.99.43-.26.29-.45.67-.59,1.14-.14.47-.23,1.01-.28,1.61-.05.6-.07,1.22-.07,1.86s.02,1.22.07,1.86c.05.63.15,1.21.3,1.72.15.51.36.94.62,1.27s.62.5,1.05.5.75-.12.99-.35c.24-.23.43-.58.55-1.04.12-.46.21-1.03.24-1.72.04-.69.05-1.5.05-2.43Z"/>
      <path d="M64.3,215.24h-6.03v-.44c.62,0,1.1-.04,1.41-.11.32-.07.54-.16.68-.27.14-.1.21-.22.22-.34.01-.12.02-.23.02-.34v-7.53c0-.16-.02-.28-.07-.38s-.15-.17-.31-.22c-.16-.05-.4-.09-.71-.1s-.73-.02-1.25-.02v-.33c.46-.05.9-.13,1.34-.25.43-.11.81-.23,1.15-.36.4-.15.77-.3,1.12-.47v9.69c0,.09.01.2.03.31.02.12.11.23.26.34.15.11.39.2.72.27.33.07.8.11,1.43.11v.42Z"/>
      <path d="M311.81,477.07c0,1.22-.11,2.22-.33,2.99-.22.78-.5,1.39-.83,1.83-.33.44-.7.75-1.09.91-.4.17-.77.25-1.11.25s-.72-.1-1.12-.3c-.4-.2-.77-.53-1.12-.98s-.63-1.06-.87-1.81-.35-1.68-.35-2.8c0-.34.03-.72.09-1.12.06-.41.15-.81.27-1.21.12-.4.28-.79.46-1.16.18-.38.4-.71.65-.99.25-.29.53-.52.85-.69.32-.17.67-.26,1.07-.26.49,0,.94.16,1.36.48.42.32.78.73,1.09,1.23.31.51.55,1.08.72,1.72s.26,1.28.26,1.91ZM310.37,477.04c0-.6-.03-1.19-.1-1.77-.07-.58-.18-1.09-.34-1.55-.16-.46-.36-.83-.61-1.11-.25-.28-.55-.42-.91-.42-.41,0-.74.14-.99.43-.26.29-.45.67-.59,1.14-.14.47-.23,1.01-.28,1.61-.05.6-.07,1.22-.07,1.86s.02,1.22.07,1.86c.05.63.15,1.21.3,1.72.15.51.36.94.62,1.27s.62.5,1.05.5.75-.12.99-.35c.24-.23.43-.58.55-1.04.12-.46.21-1.03.24-1.72.04-.69.05-1.5.05-2.43Z"/>
      <path d="M203.79,215.68h-6.03v-.44c.62,0,1.1-.04,1.41-.11.32-.07.54-.16.68-.27.14-.1.21-.22.22-.34.01-.12.02-.23.02-.34v-7.53c0-.16-.02-.28-.07-.38s-.15-.17-.31-.22c-.16-.05-.4-.09-.71-.1s-.73-.02-1.25-.02v-.33c.46-.05.9-.13,1.34-.25.43-.11.81-.23,1.15-.36.4-.15.77-.3,1.12-.47v9.69c0,.09.01.2.03.31.02.12.11.23.26.34.15.11.39.2.72.27.33.07.8.11,1.43.11v.42Z"/>
      <path d="M345.12,214.72h-6.03v-.44c.62,0,1.1-.04,1.41-.11.32-.07.54-.16.68-.27.14-.1.21-.22.22-.34.01-.12.02-.23.02-.34v-7.53c0-.16-.02-.28-.07-.38s-.15-.17-.31-.22c-.16-.05-.4-.09-.71-.1s-.73-.02-1.25-.02v-.33c.46-.05.9-.13,1.34-.25.43-.11.81-.23,1.15-.36.4-.15.77-.3,1.12-.47v9.69c0,.09.01.2.03.31.02.12.11.23.26.34.15.11.39.2.72.27.33.07.8.11,1.43.11v.42Z"/>
      <g>
        <path d="M189.2,472.64v-.48h4.75v.48l-2.24.18h-.32l-2.19-.18ZM189.2,483.81v-.48l2.19-.19h.32l2.24.19v.48h-4.75ZM190.83,483.81c.02-.9.03-1.79.03-2.69v-6.28c0-.9-.01-1.79-.03-2.68h1.49c-.01.89-.02,1.78-.02,2.68s0,1.81,0,2.71v.38c0,1.14,0,2.18,0,3.12s.01,1.86.02,2.75h-1.49ZM191.59,478.03v-.53h7.22v.53h-7.22ZM196.42,472.64v-.48h4.75v.48l-2.19.18h-.34l-2.22-.18ZM196.42,483.81v-.48l2.22-.19h.34l2.19.19v.48h-4.75ZM198.03,483.81c.02-.9.03-1.81.04-2.74,0-.93,0-1.98,0-3.13v-.38c0-.91,0-1.81,0-2.71,0-.9-.02-1.79-.04-2.68h1.5c-.02.89-.03,1.78-.04,2.68s0,1.81,0,2.71v.86c0,.91,0,1.81,0,2.7,0,.9.02,1.79.04,2.69h-1.5Z"/>
        <path d="M204.02,483.81c.01-.26.02-.6.03-1.04s.02-.89.02-1.37,0-.89,0-1.26v-.96c0-.54,0-1.03-.02-1.47s-.03-.85-.05-1.25l-1.42-.06v-.42l2.64-.62.19.13-.05,2.24v2.42c0,.36,0,.78,0,1.26s.01.93.02,1.37c.01.44.02.78.03,1.04h-1.42ZM202.69,483.81v-.45l1.76-.18h.5l1.7.18v.45h-3.95ZM204.61,473.33c-.26,0-.47-.08-.66-.25-.18-.17-.27-.38-.27-.65s.09-.49.27-.66c.18-.17.4-.26.66-.26s.46.09.65.26c.19.17.28.39.28.66s-.09.48-.28.65c-.19.17-.4.25-.65.25Z"/>
        <path d="M211.59,484.05c-.67,0-1.27-.18-1.8-.54-.53-.36-.94-.86-1.25-1.5-.3-.64-.46-1.38-.46-2.22,0-.92.17-1.71.5-2.38.33-.67.78-1.18,1.34-1.54.57-.36,1.19-.54,1.89-.54.47,0,.93.12,1.37.34.44.23.86.61,1.24,1.14h.14l-.19.43c-.38-.42-.75-.72-1.1-.9-.35-.19-.72-.28-1.11-.28-.49,0-.94.12-1.34.38s-.73.65-.97,1.19c-.24.54-.36,1.25-.36,2.13,0,.81.11,1.48.34,2,.22.52.53.91.92,1.16.39.25.82.38,1.3.38.44,0,.84-.09,1.2-.28.36-.19.73-.5,1.09-.95l.21.45h-.16c-.35.52-.77.91-1.25,1.17-.48.26-1,.38-1.55.38ZM214.23,483.97l-.06-1.58v-5.47l.03-.14v-4.85l-1.46-.08v-.43l2.54-.48.22.14-.05,2.43v9.76l1.5.1v.45l-2.74.16Z"/>
        <path d="M221.65,484.05c-.67,0-1.27-.18-1.8-.54-.53-.36-.94-.86-1.25-1.5-.3-.64-.46-1.38-.46-2.22,0-.92.17-1.71.5-2.38.33-.67.78-1.18,1.34-1.54.57-.36,1.19-.54,1.89-.54.47,0,.93.12,1.37.34.44.23.86.61,1.24,1.14h.14l-.19.43c-.38-.42-.75-.72-1.1-.9-.35-.19-.72-.28-1.11-.28-.49,0-.94.12-1.34.38s-.73.65-.97,1.19c-.24.54-.36,1.25-.36,2.13,0,.81.11,1.48.34,2,.22.52.53.91.92,1.16.39.25.82.38,1.3.38.44,0,.84-.09,1.2-.28.36-.19.73-.5,1.09-.95l.21.45h-.16c-.35.52-.77.91-1.25,1.17-.48.26-1,.38-1.55.38ZM224.29,483.97l-.06-1.58v-5.47l.03-.14v-4.85l-1.46-.08v-.43l2.54-.48.22.14-.05,2.43v9.76l1.5.1v.45l-2.74.16Z"/>
        <path d="M232.29,484.05c-.78,0-1.48-.16-2.1-.48-.62-.32-1.1-.8-1.46-1.46-.35-.65-.53-1.46-.53-2.42,0-.9.18-1.67.55-2.33.37-.66.85-1.16,1.45-1.52.6-.36,1.25-.54,1.95-.54s1.29.15,1.78.44c.5.29.87.69,1.14,1.19.26.5.39,1.07.39,1.7,0,.38-.04.7-.11.96h-6.53v-.5h4.64c.29,0,.48-.07.58-.22.1-.15.14-.38.14-.7,0-.68-.18-1.25-.54-1.69-.36-.44-.87-.66-1.52-.66-.47,0-.9.15-1.28.44-.38.29-.69.71-.91,1.26-.22.55-.34,1.21-.34,1.98,0,.86.13,1.57.39,2.13.26.55.62.96,1.08,1.22.46.26.98.39,1.57.39s1.06-.1,1.48-.3c.42-.2.8-.49,1.13-.87l.26.22c-.35.53-.79.96-1.33,1.27s-1.16.47-1.89.47Z"/>
        <path d="M238.18,483.81c.01-.26.02-.6.02-1.04s.01-.89.02-1.37,0-.89,0-1.26v-.96c0-.55,0-1.04,0-1.47s-.02-.84-.04-1.23l-1.41-.06v-.42l2.46-.64.21.13.1,1.87v2.78c0,.36,0,.78,0,1.26s.01.93.02,1.37c0,.44.01.78.02,1.04h-1.41ZM236.87,483.81v-.45l1.73-.18h.53l1.66.18v.45h-3.92ZM243.62,483.81c.01-.26.02-.6.02-1.03,0-.43.01-.88.02-1.36s0-.9,0-1.27v-1.84c0-.79-.13-1.34-.39-1.66-.26-.31-.62-.47-1.08-.47-.36,0-.79.12-1.3.35-.5.24-1.05.68-1.63,1.33l-.13-.54h.16c.58-.71,1.15-1.23,1.73-1.54.58-.31,1.15-.46,1.71-.46.69,0,1.24.23,1.63.7s.59,1.24.59,2.33v1.81c0,.37,0,.8,0,1.27s.01.93.02,1.36c0,.43.01.78.02,1.03h-1.39ZM242.31,483.81v-.45l1.71-.18h.53l1.68.18v.45h-3.92Z"/>
        <path d="M251.43,483.81v-.45l1.86-.18h.51l1.89.18v.45h-4.26ZM252.87,483.81c.01-.33.02-.71.02-1.13,0-.42.01-.85.02-1.3s0-.86,0-1.24v-8.24l-1.41-.06v-.43l2.53-.48.24.14-.05,2.48v6.59c0,.38,0,.8,0,1.24,0,.44.01.88.02,1.3,0,.42.01.8.02,1.13h-1.41Z"/>
        <path d="M259.17,484.05c-.64,0-1.17-.18-1.58-.54s-.62-.88-.62-1.54c0-.42.09-.79.27-1.11.18-.33.48-.62.9-.87s.98-.49,1.69-.69c.45-.14.92-.27,1.41-.4s.95-.24,1.38-.34v.4c-.43.11-.86.22-1.3.34-.44.12-.84.25-1.2.39-.68.25-1.17.54-1.45.88-.28.34-.42.74-.42,1.18,0,.49.14.86.41,1.12s.63.38,1.08.38c.25,0,.49-.05.72-.14.23-.1.5-.26.8-.5.3-.24.65-.55,1.06-.96l.14.75h-.38c-.33.35-.64.65-.94.9s-.59.43-.9.55c-.31.12-.66.18-1.06.18ZM263.44,484.03c-.48,0-.84-.16-1.08-.49-.24-.33-.38-.77-.41-1.34v-4.14c0-.6-.06-1.06-.19-1.38s-.33-.55-.59-.68-.61-.19-1.04-.19c-.31,0-.62.05-.93.14-.31.09-.64.23-.99.42l.69-.43-.26,1.26c-.04.29-.13.49-.26.61-.13.12-.3.18-.5.18-.38,0-.62-.19-.7-.58.16-.65.53-1.16,1.1-1.54.58-.37,1.31-.56,2.21-.56s1.62.22,2.07.66c.45.44.68,1.16.68,2.15v3.95c0,.5.06.84.18,1.02.12.18.28.26.5.26.14,0,.26-.03.37-.09.11-.06.22-.16.35-.3l.26.24c-.17.28-.38.48-.62.62-.24.13-.52.2-.82.2Z"/>
        <path d="M266.11,488.15c-.35,0-.67-.08-.96-.23-.29-.15-.45-.37-.48-.63.04-.22.15-.39.33-.5.18-.11.38-.16.6-.16s.41.05.6.16c.19.11.37.25.55.43l.46.45-.51.26-.32-.27c.53-.15,1.01-.47,1.42-.98.41-.5.77-1.15,1.06-1.94l.46-1.17.06-.21,1.42-3.94,1.34-3.87h.62l-3.36,9.01c-.32.84-.65,1.53-1,2.06-.35.53-.71.92-1.09,1.16s-.79.37-1.22.37ZM264.71,476v-.45h3.97v.45l-1.71.16h-.67l-1.58-.16ZM269.19,484.63l-3.65-9.07h1.46l2.7,7.31.1.21-.61,1.55ZM270.43,476v-.45h3.23v.45l-1.31.14h-.24l-1.68-.14Z"/>
        <path d="M278.23,484.05c-.78,0-1.48-.16-2.1-.48-.62-.32-1.1-.8-1.46-1.46-.35-.65-.53-1.46-.53-2.42,0-.9.18-1.67.55-2.33.37-.66.85-1.16,1.45-1.52.6-.36,1.25-.54,1.95-.54s1.29.15,1.78.44c.5.29.87.69,1.14,1.19.26.5.39,1.07.39,1.7,0,.38-.04.7-.11.96h-6.53v-.5h4.64c.29,0,.48-.07.58-.22.1-.15.14-.38.14-.7,0-.68-.18-1.25-.54-1.69-.36-.44-.87-.66-1.52-.66-.47,0-.9.15-1.28.44-.38.29-.69.71-.91,1.26-.22.55-.34,1.21-.34,1.98,0,.86.13,1.57.39,2.13.26.55.62.96,1.08,1.22.46.26.98.39,1.57.39s1.06-.1,1.48-.3c.42-.2.8-.49,1.13-.87l.26.22c-.35.53-.79.96-1.33,1.27s-1.16.47-1.89.47Z"/>
        <path d="M284.11,483.81c.01-.26.02-.6.02-1.04s.01-.89.02-1.37,0-.89,0-1.26v-.96c0-.55,0-1.04,0-1.47s-.02-.84-.04-1.23l-1.41-.06v-.42l2.46-.64.21.13.1,2.26v2.4c0,.36,0,.78,0,1.26s.01.93.02,1.37c0,.44.01.78.02,1.04h-1.41ZM282.78,483.81v-.45l1.78-.19h.66l1.81.19v.45h-4.24ZM285.46,478.71l-.34-.83h.29c.16-.52.38-.97.67-1.35.29-.38.61-.67.97-.89.36-.21.72-.32,1.1-.32.31,0,.58.06.82.18.23.12.39.3.46.54-.01.29-.08.51-.21.67-.13.16-.34.24-.62.24-.2,0-.38-.05-.54-.15s-.33-.25-.51-.46l-.37-.35.72.03c-.55.15-1.03.44-1.42.87-.39.43-.73,1.04-1.02,1.82Z"/>
        <path d="M292.98,484.05c-.51,0-.98-.06-1.39-.17-.42-.11-.84-.27-1.28-.47v-1.9h.7l.38,2.02-.59-.03v-.58c.3.2.61.36.94.46.33.11.73.16,1.2.16.7,0,1.23-.14,1.59-.43.36-.29.54-.66.54-1.1,0-.39-.12-.72-.36-.97-.24-.25-.69-.48-1.34-.68l-.83-.3c-.65-.23-1.17-.54-1.54-.9-.38-.37-.57-.85-.57-1.45,0-.67.26-1.24.78-1.7.52-.46,1.26-.69,2.22-.69.48,0,.91.06,1.29.18.38.12.77.3,1.16.54l-.05,1.71h-.64l-.38-1.87.5.1v.51c-.32-.22-.63-.39-.93-.49-.3-.1-.61-.15-.94-.15-.61,0-1.07.13-1.38.4-.31.27-.46.61-.46,1.04,0,.38.13.7.38.94.26.24.67.46,1.25.66l.82.29c.81.28,1.39.61,1.73.99.34.38.51.85.51,1.41,0,.46-.13.88-.38,1.26-.25.38-.62.68-1.1.9s-1.09.33-1.82.33Z"/>
      </g>
      <g>
        <path d="M415.08,481.96c-.7,0-1.36-.17-1.96-.5-.6-.33-1.09-.82-1.46-1.46s-.56-1.45-.56-2.41.19-1.76.58-2.41c.38-.65.88-1.13,1.49-1.46.61-.33,1.25-.5,1.92-.5s1.34.16,1.95.49c.61.33,1.1.81,1.48,1.46.38.65.57,1.46.57,2.42s-.19,1.77-.56,2.42c-.37.65-.86,1.14-1.46,1.46s-1.26.49-1.98.49ZM415.08,481.46c.8,0,1.43-.33,1.88-.99.45-.66.68-1.62.68-2.86s-.23-2.19-.68-2.86c-.45-.67-1.08-1.01-1.88-1.01s-1.41.34-1.87,1.01c-.46.67-.69,1.63-.69,2.86s.23,2.2.69,2.86c.46.66,1.08.99,1.87.99Z"/>
        <path d="M424.01,481.96c-.76,0-1.34-.24-1.76-.71s-.62-1.31-.61-2.5l.05-4.77.35.27-1.68-.22v-.42l2.51-.26.16.19-.06,2.1v3.12c0,.85.14,1.45.41,1.79.27.34.67.51,1.19.51s.98-.14,1.44-.43c.46-.29.88-.68,1.26-1.18l.37.62h-.42c-.42.56-.89,1.01-1.42,1.36-.53.35-1.13.53-1.79.53ZM427.13,481.86l-.05-1.97v-.03l.02-5.68-1.3-.14v-.42l2.48-.27.16.19-.06,2.1v5.52l1.22.13v.43l-2.46.14Z"/>
        <path d="M434.05,481.96c-.67,0-1.17-.18-1.49-.53-.32-.35-.48-.88-.48-1.6,0-.26,0-.49,0-.69,0-.2,0-.45,0-.74v-4.35h-1.6v-.48l1.94-.16-.32.24.48-2.69h.88l-.06,2.74v6.13c0,.5.09.86.28,1.09.19.22.46.34.81.34.23,0,.44-.03.62-.1.18-.07.38-.17.59-.3l.24.27c-.22.27-.49.47-.8.62-.31.14-.68.22-1.1.22ZM432.76,474.05v-.59h2.96v.59h-2.96Z"/>
        <path d="M438.13,485.88c.01-.36.02-.76.02-1.19,0-.43.01-.87.02-1.31,0-.44,0-.85,0-1.22v-5.02c0-.54,0-1.04,0-1.48,0-.44-.02-.86-.04-1.26l-1.42-.06v-.42l2.46-.64.21.13.1,1.36.03.08v5.62l-.03.16v1.54c0,.36,0,.77,0,1.21,0,.44,0,.88.02,1.32,0,.44.01.84.02,1.2h-1.39ZM436.79,485.88v-.45l1.78-.16h.59l1.9.16v.45h-4.27ZM442.01,481.96c-.48,0-.96-.11-1.44-.32-.48-.21-.92-.6-1.33-1.15h-.21l.22-.45c.41.44.79.74,1.16.9.37.17.77.25,1.21.25.47,0,.89-.12,1.27-.36.38-.24.68-.63.91-1.17.23-.54.34-1.25.34-2.12,0-1.22-.23-2.12-.68-2.7s-1.04-.88-1.77-.88c-.41,0-.81.1-1.2.29-.39.19-.83.56-1.31,1.1l-.16-.43h.18c.42-.61.89-1.04,1.42-1.3.53-.26,1.06-.39,1.59-.39.65,0,1.23.18,1.73.53.5.35.9.85,1.18,1.49.29.64.43,1.4.43,2.27,0,.92-.15,1.71-.46,2.38-.3.67-.72,1.18-1.26,1.54s-1.15.54-1.83.54Z"/>
        <path d="M450.49,481.96c-.76,0-1.34-.24-1.76-.71s-.62-1.31-.61-2.5l.05-4.77.35.27-1.68-.22v-.42l2.51-.26.16.19-.06,2.1v3.12c0,.85.14,1.45.41,1.79.27.34.67.51,1.19.51s.98-.14,1.44-.43c.46-.29.88-.68,1.26-1.18l.37.62h-.42c-.42.56-.89,1.01-1.42,1.36-.53.35-1.13.53-1.79.53ZM453.61,481.86l-.05-1.97v-.03l.02-5.68-1.3-.14v-.42l2.48-.27.16.19-.06,2.1v5.52l1.22.13v.43l-2.46.14Z"/>
        <path d="M460.53,481.96c-.67,0-1.17-.18-1.49-.53-.32-.35-.48-.88-.48-1.6,0-.26,0-.49,0-.69,0-.2,0-.45,0-.74v-4.35h-1.6v-.48l1.94-.16-.32.24.48-2.69h.88l-.06,2.74v6.13c0,.5.09.86.28,1.09.19.22.46.34.81.34.23,0,.44-.03.62-.1.18-.07.38-.17.59-.3l.24.27c-.22.27-.49.47-.8.62-.31.14-.68.22-1.1.22ZM459.24,474.05v-.59h2.96v.59h-2.96Z"/>
        <path d="M467.29,481.72v-.45l1.86-.18h.51l1.89.18v.45h-4.26ZM468.73,481.72c.01-.33.02-.71.02-1.13,0-.42.01-.85.02-1.3,0-.44,0-.86,0-1.24v-8.24l-1.41-.06v-.43l2.53-.48.24.14-.05,2.48v6.59c0,.38,0,.8,0,1.24,0,.44.01.88.02,1.3,0,.42.01.8.02,1.13h-1.41Z"/>
        <path d="M475.03,481.96c-.64,0-1.17-.18-1.58-.54s-.62-.88-.62-1.54c0-.42.09-.79.27-1.11s.48-.62.9-.87c.42-.26.98-.49,1.69-.69.45-.14.92-.27,1.41-.4.49-.13.95-.24,1.38-.34v.4c-.43.11-.86.22-1.3.34s-.84.25-1.2.39c-.68.25-1.17.54-1.45.88-.28.34-.42.74-.42,1.18,0,.49.14.86.41,1.12.27.26.63.38,1.08.38.25,0,.49-.05.72-.14.24-.1.5-.26.8-.5.3-.24.65-.55,1.06-.96l.14.75h-.38c-.33.35-.64.65-.94.9-.29.25-.59.43-.9.55-.31.12-.66.18-1.06.18ZM479.3,481.94c-.48,0-.84-.16-1.08-.49-.24-.33-.38-.77-.41-1.34v-4.14c0-.6-.06-1.06-.19-1.38s-.33-.55-.59-.68-.61-.19-1.04-.19c-.31,0-.62.05-.93.14-.31.09-.64.23-.99.42l.69-.43-.26,1.26c-.04.29-.13.49-.26.61-.13.12-.3.18-.5.18-.38,0-.62-.19-.7-.58.16-.65.53-1.16,1.1-1.54.58-.37,1.31-.56,2.21-.56s1.62.22,2.07.66.68,1.16.68,2.15v3.95c0,.5.06.84.18,1.02.12.18.28.26.5.26.14,0,.26-.03.37-.09s.22-.16.35-.3l.26.24c-.17.28-.38.48-.62.62-.24.13-.51.2-.82.2Z"/>
        <path d="M481.97,486.05c-.35,0-.67-.08-.96-.23-.29-.15-.45-.37-.48-.63.04-.22.15-.39.33-.5s.38-.16.6-.16.41.05.6.16c.19.11.37.25.55.43l.46.45-.51.26-.32-.27c.53-.15,1-.47,1.42-.98.41-.5.77-1.15,1.06-1.94l.46-1.17.06-.21,1.42-3.94,1.34-3.87h.62l-3.36,9.01c-.32.84-.65,1.53-1,2.06-.35.53-.71.92-1.09,1.16-.38.25-.79.37-1.22.37ZM480.57,473.91v-.45h3.97v.45l-1.71.16h-.67l-1.58-.16ZM485.05,482.54l-3.65-9.07h1.46l2.7,7.31.1.21-.61,1.55ZM486.29,473.91v-.45h3.23v.45l-1.31.14h-.24l-1.68-.14Z"/>
        <path d="M494.09,481.96c-.78,0-1.48-.16-2.1-.48-.62-.32-1.1-.8-1.46-1.46-.35-.65-.53-1.46-.53-2.42,0-.9.18-1.67.55-2.33.37-.66.85-1.16,1.45-1.52s1.25-.54,1.95-.54,1.29.15,1.78.44c.5.29.87.69,1.14,1.19.26.5.39,1.07.39,1.7,0,.38-.04.7-.11.96h-6.53v-.5h4.64c.29,0,.48-.07.58-.22.1-.15.14-.38.14-.7,0-.68-.18-1.25-.54-1.69-.36-.44-.87-.66-1.52-.66-.47,0-.9.15-1.28.44-.38.29-.69.71-.91,1.26-.22.55-.34,1.21-.34,1.98,0,.86.13,1.57.39,2.13s.62.96,1.08,1.22c.46.26.98.39,1.57.39s1.06-.1,1.48-.3c.42-.2.8-.49,1.13-.87l.26.22c-.35.53-.79.96-1.33,1.27s-1.16.47-1.89.47Z"/>
        <path d="M499.97,481.72c.01-.26.02-.6.02-1.04,0-.44.01-.89.02-1.37,0-.47,0-.89,0-1.26v-.96c0-.55,0-1.04,0-1.47,0-.43-.02-.84-.04-1.23l-1.41-.06v-.42l2.46-.64.21.13.1,2.26v2.4c0,.36,0,.78,0,1.26,0,.47.01.93.02,1.37,0,.44.01.78.02,1.04h-1.41ZM498.65,481.72v-.45l1.78-.19h.66l1.81.19v.45h-4.24ZM501.32,476.62l-.34-.83h.29c.16-.52.38-.97.67-1.35.29-.38.61-.67.97-.89.36-.21.72-.32,1.1-.32.31,0,.58.06.82.18.23.12.39.3.46.54-.01.29-.08.51-.21.67-.13.16-.34.24-.62.24-.2,0-.38-.05-.54-.15s-.33-.25-.51-.46l-.37-.35.72.03c-.55.15-1.03.44-1.42.87s-.73,1.04-1.02,1.82Z"/>
      </g>
      <g>
        <path d="M8.01,480.81c.01-.26.02-.6.03-1.04s.02-.89.02-1.37,0-.89,0-1.26v-.96c0-.54,0-1.03-.02-1.47s-.03-.85-.05-1.25l-1.42-.06v-.42l2.64-.62.19.13-.05,2.24v2.42c0,.36,0,.78,0,1.26s.01.93.02,1.37c.01.44.02.78.03,1.04h-1.42ZM6.69,480.81v-.45l1.76-.18h.5l1.7.18v.45h-3.95ZM8.61,470.33c-.26,0-.47-.08-.66-.25-.18-.17-.27-.38-.27-.65s.09-.49.27-.66c.18-.17.4-.26.66-.26s.46.09.65.26c.19.17.28.39.28.66s-.09.48-.28.65c-.19.17-.4.25-.65.25Z"/>
        <path d="M13.29,480.81c.01-.26.02-.6.02-1.04s.01-.89.02-1.37,0-.89,0-1.26v-.96c0-.55,0-1.04,0-1.47s-.02-.84-.04-1.23l-1.41-.06v-.42l2.46-.64.21.13.1,1.87v2.78c0,.36,0,.78,0,1.26s.01.93.02,1.37c0,.44.01.78.02,1.04h-1.41ZM11.98,480.81v-.45l1.73-.18h.53l1.66.18v.45h-3.92ZM18.73,480.81c.01-.26.02-.6.02-1.03,0-.43.01-.88.02-1.36s0-.9,0-1.27v-1.84c0-.79-.13-1.34-.39-1.66-.26-.31-.62-.47-1.08-.47-.36,0-.79.12-1.3.35-.5.24-1.05.68-1.63,1.33l-.13-.54h.16c.58-.71,1.15-1.23,1.73-1.54.58-.31,1.15-.46,1.71-.46.69,0,1.24.23,1.63.7s.59,1.24.59,2.33v1.81c0,.37,0,.8,0,1.27s.01.93.02,1.36c0,.43.01.78.02,1.03h-1.39ZM17.42,480.81v-.45l1.71-.18h.53l1.68.18v.45h-3.92Z"/>
        <path d="M23.68,484.97c.01-.36.02-.76.02-1.19,0-.43.01-.87.02-1.31,0-.44,0-.85,0-1.22v-5.02c0-.54,0-1.04,0-1.48,0-.44-.02-.86-.04-1.26l-1.42-.06v-.42l2.46-.64.21.13.1,1.36.03.08v5.62l-.03.16v1.54c0,.36,0,.77,0,1.21s.01.88.02,1.32c0,.44.01.84.02,1.2h-1.39ZM22.33,484.97v-.45l1.78-.16h.59l1.9.16v.45h-4.27ZM27.55,481.05c-.48,0-.96-.11-1.44-.32s-.92-.6-1.33-1.15h-.21l.22-.45c.41.44.79.74,1.16.9.37.17.77.25,1.21.25.47,0,.89-.12,1.27-.36.38-.24.68-.63.91-1.17.23-.54.34-1.25.34-2.12,0-1.22-.23-2.12-.68-2.7-.45-.59-1.04-.88-1.77-.88-.41,0-.81.1-1.2.29-.4.19-.83.56-1.31,1.1l-.16-.43h.18c.42-.61.89-1.04,1.42-1.3.53-.26,1.06-.39,1.59-.39.65,0,1.23.18,1.73.53.5.35.9.85,1.18,1.49.29.64.43,1.4.43,2.27,0,.92-.15,1.71-.46,2.38-.3.67-.73,1.18-1.26,1.54-.54.36-1.15.54-1.83.54Z"/>
        <path d="M36.03,481.05c-.76,0-1.34-.24-1.76-.71s-.62-1.31-.61-2.5l.05-4.77.35.27-1.68-.22v-.42l2.51-.26.16.19-.06,2.1v3.12c0,.85.14,1.45.41,1.79.27.34.67.51,1.19.51s.98-.14,1.44-.43.88-.68,1.26-1.18l.37.62h-.42c-.42.56-.89,1.01-1.42,1.36-.53.35-1.13.53-1.79.53ZM39.15,480.95l-.05-1.97v-.03l.02-5.68-1.3-.14v-.42l2.48-.27.16.19-.06,2.1v5.52l1.22.13v.43l-2.46.14Z"/>
        <path d="M46.08,481.05c-.67,0-1.17-.18-1.49-.53-.32-.35-.48-.88-.48-1.6,0-.26,0-.49,0-.69,0-.2,0-.45,0-.74v-4.35h-1.6v-.48l1.94-.16-.32.24.48-2.69h.88l-.06,2.74v6.13c0,.5.09.86.28,1.09.19.22.46.34.81.34.23,0,.44-.03.62-.1.18-.07.38-.17.59-.3l.24.27c-.22.27-.49.47-.8.62-.31.14-.68.22-1.1.22ZM44.78,473.14v-.59h2.96v.59h-2.96Z"/>
        <path d="M52.83,480.81v-.45l1.86-.18h.51l1.89.18v.45h-4.26ZM54.27,480.81c.01-.33.02-.71.02-1.13,0-.42.01-.85.02-1.3s0-.86,0-1.24v-8.24l-1.41-.06v-.43l2.53-.48.24.14-.05,2.48v6.59c0,.38,0,.8,0,1.24,0,.44.01.88.02,1.3,0,.42.01.8.02,1.13h-1.41Z"/>
        <path d="M60.57,481.05c-.64,0-1.17-.18-1.58-.54s-.62-.88-.62-1.54c0-.42.09-.79.27-1.11.18-.33.48-.62.9-.87s.98-.49,1.69-.69c.45-.14.92-.27,1.41-.4s.95-.24,1.38-.34v.4c-.43.11-.86.22-1.3.34-.44.12-.84.25-1.2.39-.68.25-1.17.54-1.45.88-.28.34-.42.74-.42,1.18,0,.49.14.86.41,1.12s.63.38,1.08.38c.25,0,.49-.05.72-.14.23-.1.5-.26.8-.5.3-.24.65-.55,1.06-.96l.14.75h-.38c-.33.35-.64.65-.94.9s-.59.43-.9.55c-.31.12-.66.18-1.06.18ZM64.85,481.03c-.48,0-.84-.16-1.08-.49-.24-.33-.38-.77-.41-1.34v-4.14c0-.6-.06-1.06-.19-1.38s-.33-.55-.59-.68-.61-.19-1.04-.19c-.31,0-.62.05-.93.14-.31.09-.64.23-.99.42l.69-.43-.26,1.26c-.04.29-.13.49-.26.61-.13.12-.3.18-.5.18-.38,0-.62-.19-.7-.58.16-.65.53-1.16,1.1-1.54.58-.37,1.31-.56,2.21-.56s1.62.22,2.07.66c.45.44.68,1.16.68,2.15v3.95c0,.5.06.84.18,1.02.12.18.28.26.5.26.14,0,.26-.03.37-.09.11-.06.22-.16.35-.3l.26.24c-.17.28-.38.48-.62.62-.24.13-.52.2-.82.2Z"/>
        <path d="M67.52,485.14c-.35,0-.67-.08-.96-.23-.29-.15-.45-.37-.48-.63.04-.22.15-.39.33-.5.18-.11.38-.16.6-.16s.41.05.6.16c.19.11.37.25.55.43l.46.45-.51.26-.32-.27c.53-.15,1.01-.47,1.42-.98.41-.5.77-1.15,1.06-1.94l.46-1.17.06-.21,1.42-3.94,1.34-3.87h.62l-3.36,9.01c-.32.84-.65,1.53-1,2.06-.35.53-.71.92-1.09,1.16s-.79.37-1.22.37ZM66.11,473v-.45h3.97v.45l-1.71.16h-.67l-1.58-.16ZM70.59,481.62l-3.65-9.07h1.46l2.7,7.31.1.21-.61,1.55ZM71.84,473v-.45h3.23v.45l-1.31.14h-.24l-1.68-.14Z"/>
        <path d="M79.63,481.05c-.78,0-1.48-.16-2.1-.48-.62-.32-1.1-.8-1.46-1.46-.35-.65-.53-1.46-.53-2.42,0-.9.18-1.67.55-2.33.37-.66.85-1.16,1.45-1.52.6-.36,1.25-.54,1.95-.54s1.29.15,1.78.44c.5.29.87.69,1.14,1.19.26.5.39,1.07.39,1.7,0,.38-.04.7-.11.96h-6.53v-.5h4.64c.29,0,.48-.07.58-.22.1-.15.14-.38.14-.7,0-.68-.18-1.25-.54-1.69-.36-.44-.87-.66-1.52-.66-.47,0-.9.15-1.28.44-.38.29-.69.71-.91,1.26-.22.55-.34,1.21-.34,1.98,0,.86.13,1.57.39,2.13.26.55.62.96,1.08,1.22.46.26.98.39,1.57.39s1.06-.1,1.48-.3c.42-.2.8-.49,1.13-.87l.26.22c-.35.53-.79.96-1.33,1.27s-1.16.47-1.89.47Z"/>
        <path d="M85.52,480.81c.01-.26.02-.6.02-1.04s.01-.89.02-1.37,0-.89,0-1.26v-.96c0-.55,0-1.04,0-1.47s-.02-.84-.04-1.23l-1.41-.06v-.42l2.46-.64.21.13.1,2.26v2.4c0,.36,0,.78,0,1.26s.01.93.02,1.37c0,.44.01.78.02,1.04h-1.41ZM84.19,480.81v-.45l1.78-.19h.66l1.81.19v.45h-4.24ZM86.86,475.7l-.34-.83h.29c.16-.52.38-.97.67-1.35.29-.38.61-.67.97-.89.36-.21.72-.32,1.1-.32.31,0,.58.06.82.18.23.12.39.3.46.54-.01.29-.08.51-.21.67-.13.16-.34.24-.62.24-.2,0-.38-.05-.54-.15s-.33-.25-.51-.46l-.37-.35.72.03c-.55.15-1.03.44-1.42.87-.39.43-.73,1.04-1.02,1.82Z"/>
      </g>
    </g>
    <g id="_레이어_2" data-name="레이어_2">
      <circle class="cls-4" cx="60.79" cy="211.02" r="21.61"/>
      <circle class="cls-4" cx="60.79" cy="276.23" r="21.61"/>
      <circle class="cls-4" cx="60.79" cy="341.05" r="21.61"/>
      <circle class="cls-4" cx="60.79" cy="426.81" r="21.61"/>
      <circle class="cls-4" cx="201.11" cy="211.21" r="21.61"/>
      <circle class="cls-4" cx="201.11" cy="276.42" r="21.61"/>
      <circle class="cls-4" cx="201.11" cy="341.25" r="21.61"/>
      <circle class="cls-4" cx="342.1" cy="211.21" r="21.61"/>
      <circle class="cls-4" cx="342.1" cy="276.42" r="21.61"/>
      <circle class="cls-4" cx="342.1" cy="341.25" r="21.61"/>
      <circle class="cls-4" cx="481.59" cy="276.42" r="21.61"/>
      <circle class="cls-4" cx="201.11" cy="405.2" r="21.61"/>
      <path d="M60.79,375.16c3.22,0,3.22-5,0-5s-3.22,5,0,5h0Z"/>
      <path d="M60.99,385.83c3.22,0,3.22-5,0-5s-3.22,5,0,5h0Z"/>
      <path d="M60.99,395.9c3.22,0,3.22-5,0-5s-3.22,5,0,5h0Z"/>
    </g>
    <g id="_레이어_3" data-name="레이어_3">
      <g>
        <line class="cls-6" x1="83.39" y1="211.93" x2="172.83" y2="271.14"/>
        <polygon class="cls-9" points="168.45 272.68 171.8 270.46 172.54 266.5 177.81 274.44 168.45 272.68"/>
      </g>
      <g>
        <line class="cls-6" x1="82.39" y1="275.62" x2="170.16" y2="275.62"/>
        <polygon class="cls-9" points="167.35 279.32 168.93 275.62 167.35 271.92 176.13 275.62 167.35 279.32"/>
      </g>
      <g>
        <line class="cls-6" x1="83.88" y1="339.4" x2="171.16" y2="281.18"/>
        <polygon class="cls-9" points="170.88 285.82 170.14 281.87 166.77 279.66 176.13 277.87 170.88 285.82"/>
      </g>
      <g>
        <line class="cls-6" x1="83.2" y1="425.13" x2="173.53" y2="286.27"/>
        <polygon class="cls-9" points="175.1 290.64 172.85 287.3 168.89 286.6 176.78 281.26 175.1 290.64"/>
      </g>
      <g>
        <line class="cls-6" x1="223.71" y1="211.02" x2="313.15" y2="270.22"/>
        <polygon class="cls-9" points="308.77 271.76 312.12 269.54 312.86 265.59 318.13 273.52 308.77 271.76"/>
      </g>
      <g>
        <line class="cls-6" x1="222.71" y1="274.7" x2="310.48" y2="274.7"/>
        <polygon class="cls-9" points="307.67 278.4 309.25 274.7 307.67 271 316.45 274.7 307.67 278.4"/>
      </g>
      <g>
        <line class="cls-6" x1="224.2" y1="338.48" x2="311.48" y2="280.26"/>
        <polygon class="cls-9" points="311.2 284.9 310.46 280.95 307.09 278.74 316.45 276.95 311.2 284.9"/>
      </g>
      <g>
        <line class="cls-6" x1="223.71" y1="404.07" x2="313.51" y2="285.11"/>
        <polygon class="cls-9" points="314.77 289.58 312.76 286.09 308.86 285.12 317.1 280.34 314.77 289.58"/>
      </g>
    </g>
    <g id="_레이어_4" data-name="레이어_4">
      <g>
        <line class="cls-5" x1="83.2" y1="211.93" x2="174.25" y2="334.61"/>
        <polygon class="cls-7" points="169.61 334.56 173.52 333.62 175.55 330.15 177.81 339.4 169.61 334.56"/>
      </g>
      <g>
        <line class="cls-5" x1="83.39" y1="275.62" x2="170.61" y2="335.12"/>
        <polygon class="cls-7" points="166.2 336.6 169.59 334.42 170.38 330.48 175.54 338.48 166.2 336.6"/>
      </g>
      <g>
        <line class="cls-5" x1="83.39" y1="341.05" x2="170.81" y2="341.05"/>
        <polygon class="cls-7" points="168 344.76 169.58 341.05 168 337.35 176.78 341.05 168 344.76"/>
      </g>
      <g>
        <line class="cls-5" x1="83.88" y1="426.81" x2="173.38" y2="346.2"/>
        <polygon class="cls-7" points="173.77 350.83 172.46 347.03 168.81 345.33 177.81 342.2 173.77 350.83"/>
      </g>
      <g>
        <line class="cls-5" x1="223.71" y1="404.07" x2="313.14" y2="345.48"/>
        <polygon class="cls-7" points="312.82 350.11 312.11 346.15 308.76 343.92 318.13 342.2 312.82 350.11"/>
      </g>
      <g>
        <line class="cls-5" x1="224.2" y1="339.4" x2="311.13" y2="340.95"/>
        <polygon class="cls-7" points="308.26 344.6 309.9 340.93 308.39 337.2 317.1 341.05 308.26 344.6"/>
      </g>
      <g>
        <line class="cls-5" x1="223.71" y1="275.67" x2="311.51" y2="335.14"/>
        <polygon class="cls-7" points="307.11 336.63 310.49 334.44 311.26 330.5 316.45 338.48 307.11 336.63"/>
      </g>
      <g>
        <line class="cls-5" x1="223.71" y1="211.02" x2="312.9" y2="331.57"/>
        <polygon class="cls-7" points="308.25 331.52 312.17 330.58 314.21 327.11 316.45 336.37 308.25 331.52"/>
      </g>
    </g>
    <g id="_레이어_5" data-name="레이어_5">
      <g>
        <line class="cls-3" x1="83.2" y1="213.43" x2="175.13" y2="396.58"/>
        <polygon class="cls-8" points="170.56 395.73 174.58 395.47 177.18 392.41 177.81 401.91 170.56 395.73"/>
      </g>
      <g>
        <line class="cls-3" x1="82.39" y1="276.23" x2="172.53" y2="395.2"/>
        <polygon class="cls-8" points="167.88 395.2 171.78 394.21 173.78 390.72 176.13 399.96 167.88 395.2"/>
      </g>
      <g>
        <line class="cls-3" x1="83.2" y1="343.02" x2="171.14" y2="400.79"/>
        <polygon class="cls-8" points="166.76 402.34 170.11 400.11 170.83 396.15 176.13 404.07 166.76 402.34"/>
      </g>
      <g>
        <line class="cls-3" x1="83.2" y1="427.93" x2="169.73" y2="407.58"/>
        <polygon class="cls-8" points="167.85 411.83 168.53 407.87 166.15 404.62 175.54 406.22 167.85 411.83"/>
      </g>
      <g>
        <line class="cls-2" x1="365.13" y1="211.21" x2="453.11" y2="270.36"/>
        <polygon class="cls-1" points="448.71 271.87 452.09 269.67 452.85 265.72 458.07 273.69 448.71 271.87"/>
      </g>
      <g>
        <line class="cls-2" x1="363.7" y1="276.42" x2="450.92" y2="275.72"/>
        <polygon class="cls-1" points="448.14 279.44 449.69 275.73 448.08 272.04 456.89 275.67 448.14 279.44"/>
      </g>
      <g>
        <line class="cls-2" x1="362.59" y1="341.05" x2="453.08" y2="281.35"/>
        <polygon class="cls-1" points="452.78 285.99 452.05 282.03 448.7 279.81 458.07 278.07 452.78 285.99"/>
      </g>
      <g>
        <line class="cls-2" x1="503.2" y1="275" x2="538.25" y2="275.57"/>
        <polygon class="cls-1" points="535.38 279.23 537.01 275.55 535.5 271.82 544.22 275.67 535.38 279.23"/>
      </g>
    </g>
  </g>
</svg>