<?xml version="1.0" encoding="UTF-8"?>
<svg xmlns="http://www.w3.org/2000/svg" version="1.1" viewBox="0 0 600 600">
  <defs>
    <style>
      .cls-1, .cls-2 {
        stroke: #000;
      }

      .cls-1, .cls-2, .cls-3 {
        fill: none;
        stroke-miterlimit: 10;
      }

      .cls-4 {
        fill: #e60012;
      }

      .cls-2 {
        stroke-width: 2px;
      }

      .cls-3 {
        stroke: #e60012;
      }
    </style>
  </defs>
  <!-- Generator: Adobe Illustrator 28.7.1, SVG Export Plug-In . SVG Version: 1.2.0 Build 142)  -->
  <g>
    <g id="_레이어_1" data-name="레이어_1">
      <path d="M163.94,241.9c-.14.21-.33.46-.55.75s-.47.56-.74.81c-.27.25-.54.47-.82.66-.28.18-.54.28-.77.28-.17,0-.31-.05-.44-.14-.13-.09-.23-.22-.31-.38s-.12-.34-.13-.54c-.01-.2.02-.4.11-.6l1.9-4.84c.13-.32.2-.56.2-.71,0-.15-.02-.25-.08-.3-.06-.05-.14-.06-.25-.03-.11.03-.2.07-.28.11-.17.08-.33.2-.5.36-.17.16-.32.33-.48.51-.15.18-.29.35-.4.51-.11.16-.19.28-.24.35l-.25-.25c.12-.21.29-.45.51-.72.22-.27.45-.52.7-.75.25-.24.5-.44.76-.6.26-.17.5-.25.73-.25.14,0,.28.03.42.09.14.06.25.15.33.28.08.13.13.31.13.53,0,.22-.06.5-.19.83l-1.97,4.91s-.02.09-.04.18c-.01.08-.01.17,0,.26.01.09.04.17.09.24.05.07.13.11.25.11.15,0,.33-.08.54-.25.21-.17.41-.36.61-.58s.38-.43.54-.65c.16-.21.28-.37.35-.48l.27.3ZM164.81,232.49c0,.07-.02.16-.06.26s-.11.2-.2.3c-.09.1-.2.19-.34.26-.14.07-.3.11-.49.11-.08,0-.17-.02-.27-.05-.1-.04-.19-.09-.28-.15-.08-.06-.15-.14-.21-.23-.06-.09-.09-.19-.09-.31,0-.26.09-.5.28-.72s.43-.33.71-.33.5.09.67.27c.18.18.27.38.27.59Z"/>
      <path d="M208.67,227.85c-.05.25-.14.42-.28.51s-.3.13-.46.13-.3-.04-.4-.13-.16-.2-.19-.35c-.02-.12-.01-.24.04-.35.05-.12.14-.2.27-.25.06-.11.06-.22.02-.34-.05-.12-.2-.18-.46-.18-.13,0-.29.06-.48.19-.19.12-.39.32-.6.58-.21.26-.43.59-.64.98-.21.39-.41.85-.59,1.39s-.32,1.02-.42,1.47c-.1.44-.14.83-.13,1.15.01.32.09.57.22.75.14.18.35.27.63.27.26,0,.51-.06.74-.19.24-.12.46-.28.66-.46.2-.18.37-.37.52-.57.15-.2.27-.36.36-.51l.39.32c-.09.18-.23.39-.42.63-.18.24-.4.48-.64.71-.24.23-.5.42-.76.58-.27.16-.53.23-.79.23-.53,0-.95-.15-1.25-.46-.3-.31-.45-.72-.45-1.24-.09.19-.23.38-.42.58-.18.2-.39.38-.63.55-.24.17-.49.3-.77.4-.28.1-.56.15-.84.15-.22,0-.42-.04-.59-.12-.17-.08-.32-.17-.44-.29-.12-.12-.22-.25-.28-.41-.07-.15-.1-.31-.1-.46,0-.67.24-1.01.73-1.01.24,0,.42.06.55.2.13.13.2.27.2.43,0,.17-.04.32-.11.45s-.18.22-.32.24c-.04.18.03.29.2.34.17.05.38.04.62-.04.24-.07.49-.2.75-.38.25-.18.46-.42.61-.7.15-.28.31-.65.47-1.1.16-.45.3-.9.43-1.36.13-.45.24-.87.34-1.24.09-.37.15-.63.18-.77.01-.14,0-.29-.06-.43-.05-.15-.13-.28-.22-.41-.09-.12-.21-.23-.34-.31-.13-.08-.26-.12-.39-.12-.19,0-.38.05-.56.16s-.35.23-.51.38-.3.3-.43.45c-.13.15-.24.27-.32.35l-.3-.37c.13-.12.27-.27.43-.45.15-.18.32-.36.51-.53.18-.17.38-.31.59-.43.21-.11.45-.17.71-.17s.47.06.67.19c.2.12.37.28.51.47.14.19.25.39.32.61.07.22.1.42.09.61.12-.13.26-.3.43-.51.17-.21.37-.42.59-.62.22-.2.46-.37.72-.52.26-.15.54-.22.83-.22s.51.06.69.17c.18.12.31.25.41.42s.15.34.18.52c.02.18.02.34,0,.47Z"/>
      <path d="M212.97,236.78c-.09.15-.22.32-.36.52s-.31.39-.49.56c-.18.17-.36.32-.54.45-.18.13-.35.19-.51.19-.11,0-.21-.03-.29-.1-.09-.06-.15-.15-.21-.26-.05-.11-.08-.23-.09-.37,0-.14.02-.28.07-.41l1.26-3.32c.09-.22.13-.38.14-.49,0-.11-.01-.17-.05-.21-.04-.03-.09-.04-.16-.02-.07.02-.13.05-.19.08-.11.06-.22.14-.33.25s-.22.23-.32.35c-.1.12-.19.24-.26.35-.07.11-.13.19-.16.24l-.16-.17c.08-.15.19-.31.34-.49.15-.18.3-.35.46-.52.16-.16.33-.3.51-.41.17-.11.33-.17.48-.17.09,0,.19.02.28.06.09.04.16.11.22.19.05.09.08.21.09.37,0,.15-.04.35-.12.57l-1.3,3.37s-.02.06-.02.12c0,.06,0,.12,0,.18,0,.06.03.12.06.16s.09.07.16.07c.1,0,.22-.06.36-.17.14-.11.27-.25.41-.4s.25-.3.36-.44c.11-.15.18-.26.23-.33l.18.21ZM213.54,230.32s-.01.11-.04.18c-.03.07-.07.14-.13.21-.06.07-.13.13-.22.18s-.2.07-.32.07c-.06,0-.12-.01-.18-.04-.07-.02-.13-.06-.18-.1-.06-.04-.1-.1-.14-.16-.04-.06-.06-.13-.06-.21,0-.18.06-.34.19-.49s.28-.23.47-.23.33.06.45.19c.12.13.18.26.18.41Z"/>
      <path d="M211.14,221.51c0-.54.05-1.06.16-1.55.11-.49.24-.95.4-1.38.16-.43.34-.81.54-1.17.2-.35.39-.66.58-.92s.37-.48.54-.66c.17-.17.3-.29.39-.36.05-.04.1-.04.14,0,.04.05.03.1-.02.15-.27.31-.52.66-.76,1.05-.24.39-.46.83-.64,1.31-.18.48-.33,1.01-.45,1.59-.11.58-.17,1.22-.18,1.9,0,.63.03,1.22.12,1.75.09.53.21,1.01.35,1.44.14.43.3.8.46,1.13.17.33.33.61.48.83.15.23.28.4.39.53.11.13.18.2.2.23.06.06.08.12.04.18s-.08.06-.14.02c-.19-.12-.43-.35-.72-.69-.29-.34-.58-.77-.86-1.29-.28-.52-.52-1.13-.72-1.82-.2-.69-.3-1.45-.29-2.28Z"/>
      <path d="M220.36,223.82c-.02.1-.06.21-.1.33-.04.13-.09.25-.15.38-.06.13-.12.26-.18.38-.06.13-.12.23-.18.31-.14.18-.31.34-.51.45-.2.11-.4.17-.61.17-.24,0-.44-.06-.61-.17-.17-.11-.32-.26-.43-.44s-.21-.38-.29-.61c-.07-.23-.14-.45-.19-.68-.07.06-.15.12-.25.18-.09.06-.19.13-.29.21l-.29.21c-.09.06-.18.12-.25.17-.1.07-.19.1-.25.09-.07,0-.11-.03-.13-.07-.02-.04-.02-.1,0-.16.02-.06.08-.12.16-.18.08-.06.17-.13.27-.21.1-.08.21-.17.32-.26.11-.09.22-.18.32-.27.11-.09.2-.17.29-.24-.02-.21-.03-.44-.04-.69-.01-.25-.02-.48-.02-.71,0-.35.02-.71.05-1.08s.08-.73.15-1.09c.04-.19.11-.44.21-.74s.22-.58.37-.86.32-.52.51-.72.4-.3.62-.3c.3,0,.54.12.73.35s.29.6.29,1.09c0,.19-.02.4-.05.63-.03.23-.08.48-.14.74-.07.26-.17.53-.3.82-.13.28-.28.57-.45.86-.17.29-.36.57-.57.84-.21.27-.43.52-.66.75,0,.14.04.33.08.57s.11.48.19.71c.08.23.19.43.32.6s.29.26.48.26c.13,0,.25-.05.38-.15.13-.1.24-.22.34-.36.13-.19.24-.4.33-.6.09-.21.16-.41.22-.6.03-.09.06-.17.1-.24.04-.07.07-.1.11-.1.05,0,.09.03.12.08.03.05.03.17-.03.36ZM217.65,222.36c0,.14,0,.3.01.47.23-.29.44-.61.64-.95.2-.34.37-.7.52-1.07.14-.37.26-.76.34-1.16.08-.4.12-.8.12-1.19,0-.24-.03-.45-.08-.63-.05-.18-.16-.28-.32-.29-.14,0-.27.1-.39.29-.12.19-.23.42-.33.7-.1.28-.18.57-.25.87-.07.3-.13.57-.16.8-.03.19-.06.43-.07.7-.02.27-.02.62-.02,1.05v.41Z"/>
      <path d="M232.72,221.76h-7.77v-.47h7.77v.47Z"/>
      <path d="M242.24,225.68h-4.4v-.32c.45,0,.8-.03,1.03-.08s.4-.12.5-.2c.1-.08.16-.17.16-.26,0-.09.01-.18.01-.25v-5.7c0-.11-.02-.19-.05-.26-.03-.07-.11-.12-.23-.16-.12-.04-.29-.07-.52-.08-.23-.01-.53-.02-.92-.02v-.26c.33-.04.65-.1.96-.19s.6-.17.85-.26c.29-.11.56-.22.82-.35v7.3c0,.06,0,.14.02.23s.08.17.19.26c.11.08.28.15.52.21.24.06.59.09,1.04.09v.3Z"/>
      <path d="M245.37,215.47c.09.07.23.18.39.36.17.17.35.39.54.66.19.26.39.57.58.92.2.35.37.74.54,1.17.16.43.29.88.4,1.38.11.49.16,1.01.16,1.55,0,.83-.09,1.59-.29,2.28-.2.69-.44,1.3-.72,1.82-.28.52-.57.95-.86,1.29-.29.34-.54.57-.72.69-.06.04-.1.03-.14-.02-.04-.05-.02-.11.04-.18.02-.02.09-.1.2-.23.11-.13.24-.3.39-.53.15-.23.31-.51.48-.83.17-.33.32-.71.46-1.13.14-.43.26-.9.35-1.44.09-.53.13-1.11.12-1.75,0-.69-.07-1.32-.18-1.9s-.26-1.11-.45-1.59c-.19-.48-.4-.91-.65-1.31-.24-.39-.5-.74-.76-1.05-.05-.06-.05-.11-.02-.15.03-.04.08-.05.15,0Z"/>
      <path class="cls-4" d="M263,289.07c.05.4.02.86-.08,1.37s-.25,1.04-.45,1.58-.45,1.06-.74,1.58c-.29.51-.61.97-.95,1.37-.34.4-.7.73-1.06.97s-.73.37-1.08.37c-.43,0-.75-.13-.97-.38-.22-.25-.35-.61-.41-1.07-.05-.46-.03-1.01.06-1.66.09-.64.25-1.36.48-2.14-.56,1.09-1.06,1.98-1.5,2.67s-.84,1.23-1.2,1.63c-.35.4-.66.67-.93.82-.27.15-.49.22-.68.22-.41,0-.73-.09-.94-.26-.21-.17-.36-.39-.43-.66-.08-.27-.09-.56-.04-.88.05-.32.13-.63.25-.92l1.63-4.08c.12-.28.14-.49.05-.63-.08-.14-.23-.17-.45-.11-.22.06-.49.25-.82.55s-.66.75-1.02,1.34l-.28-.21c.3-.4.57-.75.82-1.05.25-.3.48-.56.7-.76.22-.21.43-.36.65-.46.21-.1.44-.15.67-.15.21,0,.38.06.49.19.11.13.19.29.24.47.05.18.06.37.05.57-.01.19-.04.35-.09.47l-1.72,4.41c-.14.38-.17.72-.08,1.02s.32.45.7.45c.21,0,.48-.16.81-.48.32-.32.67-.75,1.05-1.3s.75-1.19,1.14-1.93c.39-.74.76-1.52,1.1-2.35l.43-1.47h1.21c-.47,1.42-.83,2.68-1.06,3.79-.11.47-.19.94-.25,1.39-.06.46-.08.86-.06,1.21.02.35.09.64.21.85.12.21.32.32.58.32.22,0,.46-.09.71-.28.25-.18.49-.42.73-.72.24-.29.47-.63.69-1.01.22-.38.42-.77.58-1.16.17-.4.3-.78.4-1.16.1-.38.15-.71.15-1.01,0-.11-.04-.22-.12-.35-.08-.12-.17-.25-.28-.39-.1-.14-.19-.27-.28-.42-.08-.14-.12-.29-.12-.44,0-.24.07-.43.21-.58s.31-.22.5-.22c.24,0,.42.11.55.32.13.21.22.46.27.73Z"/>
      <path class="cls-4" d="M267.08,298.8c-.09.15-.22.32-.36.52s-.31.39-.49.56c-.18.17-.36.32-.54.45-.18.13-.35.19-.51.19-.11,0-.21-.03-.29-.1-.09-.06-.15-.15-.21-.26-.05-.11-.08-.23-.09-.37,0-.14.02-.28.07-.41l1.26-3.32c.09-.22.13-.38.14-.49,0-.11-.01-.17-.05-.21-.04-.03-.09-.04-.16-.02-.07.02-.13.05-.19.08-.11.06-.22.14-.33.25s-.22.23-.32.35c-.1.12-.19.24-.26.35-.07.11-.13.19-.16.24l-.16-.17c.08-.15.19-.31.34-.49.15-.18.3-.35.46-.52.16-.16.33-.3.51-.41.17-.11.33-.17.48-.17.09,0,.19.02.28.06.09.04.16.11.22.19.05.09.08.21.09.37,0,.15-.04.35-.12.57l-1.3,3.37s-.02.06-.02.12c0,.06,0,.12,0,.18,0,.06.03.12.06.16s.09.07.16.07c.1,0,.22-.06.36-.17.14-.11.27-.25.41-.4s.25-.3.36-.44c.11-.15.18-.26.23-.33l.18.21ZM267.66,292.33s-.01.11-.04.18c-.03.07-.07.14-.13.21-.06.07-.13.13-.22.18s-.2.07-.32.07c-.06,0-.12-.01-.18-.04-.07-.02-.13-.06-.18-.1-.06-.04-.1-.1-.14-.16-.04-.06-.06-.13-.06-.21,0-.18.06-.34.19-.49s.28-.23.47-.23.33.06.45.19c.12.13.18.26.18.41Z"/>
      <path class="cls-4" d="M270.92,300.04c-.16.55-.35.99-.57,1.31-.22.32-.43.57-.64.74s-.4.28-.58.33-.3.08-.38.08c-.06,0-.11-.01-.18-.03-.06-.02-.12-.05-.18-.1s-.1-.11-.14-.18c-.04-.07-.06-.16-.06-.26,0-.19.06-.31.17-.38s.23-.1.34-.1c.07,0,.13.02.18.07.05.04.1.09.14.15.04.06.08.11.13.15.05.04.1.07.16.07.13,0,.25-.09.35-.27.1-.18.19-.39.26-.61.07-.22.13-.43.17-.61s.06-.29.06-.3l1.27-4.21s.02-.08.04-.15.03-.13.03-.19-.01-.11-.04-.16c-.03-.04-.08-.07-.15-.07-.11,0-.24.05-.38.16-.14.11-.28.24-.41.38s-.25.29-.36.43c-.11.14-.19.25-.24.31l-.16-.16c.08-.12.19-.28.34-.46.15-.19.31-.37.49-.54.18-.17.36-.32.55-.44.19-.13.36-.19.52-.19.15,0,.26.04.35.12.08.08.14.18.17.3s.04.24.04.36-.02.22-.05.3l-1.25,4.13ZM273.03,292.33s-.01.11-.04.18c-.03.07-.07.14-.13.21s-.13.13-.22.18c-.09.05-.19.07-.32.07-.12,0-.24-.05-.38-.14-.13-.09-.2-.22-.2-.37,0-.18.06-.34.19-.49.13-.15.28-.23.46-.23s.33.06.45.19c.12.13.18.26.18.4Z"/>
      <path class="cls-4" d="M265.26,283.52c0-.54.05-1.06.16-1.55.11-.49.24-.95.4-1.38.16-.43.34-.81.54-1.17.2-.35.39-.66.58-.92s.37-.48.54-.66c.17-.17.3-.29.39-.36.05-.04.1-.04.14,0,.04.05.03.1-.02.15-.27.31-.52.66-.76,1.05-.24.39-.46.83-.64,1.31-.18.48-.33,1.01-.45,1.59-.11.58-.17,1.22-.18,1.9,0,.63.03,1.22.12,1.75.09.53.21,1.01.35,1.44.14.43.3.8.46,1.13.17.33.33.61.48.83.15.23.28.4.39.53.11.13.18.2.2.23.06.06.08.12.04.18s-.08.06-.14.02c-.19-.12-.43-.35-.72-.69-.29-.34-.58-.77-.86-1.29-.28-.52-.52-1.13-.72-1.82-.2-.69-.3-1.45-.29-2.28Z"/>
      <path class="cls-4" d="M274.48,285.83c-.02.1-.06.21-.1.33-.04.13-.09.25-.15.38-.06.13-.12.26-.18.38-.06.13-.12.23-.18.31-.14.18-.31.34-.51.45-.2.11-.4.17-.61.17-.24,0-.44-.06-.61-.17-.17-.11-.32-.26-.43-.44s-.21-.38-.29-.61c-.07-.23-.14-.45-.19-.68-.07.06-.15.12-.25.18-.09.06-.19.13-.29.21l-.29.21c-.09.06-.18.12-.25.17-.1.07-.19.1-.25.09-.07,0-.11-.03-.13-.07-.02-.04-.02-.1,0-.16.02-.06.08-.12.16-.18.08-.06.17-.13.27-.21.1-.08.21-.17.32-.26.11-.09.22-.18.32-.27.11-.09.2-.17.29-.24-.02-.21-.03-.44-.04-.69-.01-.25-.02-.48-.02-.71,0-.35.02-.71.05-1.08s.08-.73.15-1.09c.04-.19.11-.44.21-.74s.22-.58.37-.86.32-.52.51-.72.4-.3.62-.3c.3,0,.54.12.73.35s.29.6.29,1.09c0,.19-.02.4-.05.63-.03.23-.08.48-.14.74-.07.26-.17.53-.3.82-.13.28-.28.57-.45.86-.17.29-.36.57-.57.84-.21.27-.43.52-.66.75,0,.14.04.33.08.57s.11.48.19.71c.08.23.19.43.32.6s.29.26.48.26c.13,0,.25-.05.38-.15.13-.1.24-.22.34-.36.13-.19.24-.4.33-.6.09-.21.16-.41.22-.6.03-.09.06-.17.1-.24.04-.07.07-.1.11-.1.05,0,.09.03.12.08.03.05.03.17-.03.36ZM271.76,284.37c0,.14,0,.3.01.47.23-.29.44-.61.64-.95.2-.34.37-.7.52-1.07.14-.37.26-.76.34-1.16.08-.4.12-.8.12-1.19,0-.24-.03-.45-.08-.63-.05-.18-.16-.28-.32-.29-.14,0-.27.1-.39.29-.12.19-.23.42-.33.7-.1.28-.18.57-.25.87-.07.3-.13.57-.16.8-.03.19-.06.43-.07.7-.02.27-.02.62-.02,1.05v.41Z"/>
      <path class="cls-4" d="M278.27,277.49c.09.07.23.18.39.36.17.17.35.39.54.66.19.26.39.57.58.92.2.35.37.74.54,1.17.16.43.29.88.4,1.38.11.49.16,1.01.16,1.55,0,.83-.09,1.59-.29,2.28-.2.69-.44,1.3-.72,1.82-.28.52-.57.95-.86,1.29-.29.34-.54.57-.72.69-.06.04-.1.03-.14-.02-.04-.05-.02-.11.04-.18.02-.02.09-.1.2-.23.11-.13.24-.3.39-.53.15-.23.31-.51.48-.83.17-.33.32-.71.46-1.13.14-.43.26-.9.35-1.44.09-.53.13-1.11.12-1.75,0-.69-.07-1.32-.18-1.9s-.26-1.11-.45-1.59c-.19-.48-.4-.91-.65-1.31-.24-.39-.5-.74-.76-1.05-.05-.06-.05-.11-.02-.15.03-.04.08-.05.15,0Z"/>
      <path d="M353.77,274.7c0,.19-.06.34-.18.45-.12.11-.24.17-.37.17-.26,0-.44-.09-.53-.27-.09-.18-.18-.37-.27-.58-.08-.21-.2-.4-.34-.58s-.4-.27-.76-.27c-.14,0-.3.02-.49.07-.18.05-.36.13-.52.24-.17.11-.3.27-.42.47-.11.2-.17.46-.17.78,0,.27.08.51.25.7.17.2.37.38.61.56.24.18.51.35.8.53.29.18.56.38.8.6.24.22.45.48.61.76.17.28.25.63.25,1.03,0,.3-.07.58-.21.87s-.34.54-.59.77c-.25.23-.53.42-.86.56-.32.14-.67.21-1.04.21-.39,0-.76-.05-1.1-.15s-.64-.23-.9-.39c-.26-.16-.46-.34-.61-.53-.15-.19-.22-.38-.22-.56,0-.24.06-.42.17-.56s.27-.2.47-.2c.18,0,.31.05.39.14.08.09.15.22.2.36.05.15.11.31.16.48.05.17.14.33.26.48.12.15.28.27.5.36.21.09.51.14.89.14.3,0,.54-.05.74-.14.2-.09.36-.22.48-.36s.2-.31.26-.49c.05-.18.08-.35.08-.51,0-.37-.08-.67-.24-.91-.16-.24-.36-.46-.61-.66s-.51-.37-.79-.53c-.28-.16-.54-.34-.79-.53-.25-.19-.45-.42-.61-.68-.16-.26-.24-.58-.24-.96,0-.33.08-.64.23-.92.15-.28.36-.53.61-.73.25-.2.55-.36.88-.48.33-.12.68-.18,1.05-.18.21,0,.45.04.7.11s.49.17.71.29c.22.12.4.28.55.45.15.18.22.37.22.57Z"/>
      <path d="M357.59,285.42c-.16.55-.36.99-.57,1.31-.22.32-.43.57-.64.74s-.4.28-.58.33c-.18.05-.3.08-.38.08-.05,0-.11-.01-.18-.03-.06-.02-.12-.05-.18-.1-.06-.05-.1-.11-.14-.18-.04-.07-.06-.16-.06-.26,0-.19.06-.31.17-.38s.23-.1.34-.1c.07,0,.13.02.18.07.05.04.1.09.13.15.04.06.08.11.13.15s.1.07.16.07c.13,0,.25-.09.35-.27s.19-.39.26-.61c.07-.22.13-.43.17-.61s.06-.29.06-.3l1.27-4.21s.02-.08.04-.15c.02-.06.03-.13.03-.19s-.01-.11-.04-.16c-.03-.04-.08-.07-.15-.07-.11,0-.23.05-.38.16-.14.11-.28.24-.41.38-.13.15-.26.29-.37.43-.11.14-.19.25-.24.31l-.16-.16c.08-.12.19-.28.34-.46.15-.19.31-.37.49-.54.18-.17.36-.32.55-.44.19-.13.36-.19.52-.19s.27.04.35.12c.08.08.14.18.17.3s.04.24.03.36c0,.12-.02.22-.05.3l-1.25,4.13ZM359.69,277.71s-.01.11-.04.18c-.03.07-.07.14-.13.21s-.13.13-.22.18-.19.07-.32.07c-.12,0-.24-.05-.38-.14-.13-.09-.2-.22-.2-.37,0-.18.06-.34.19-.49.13-.15.28-.23.46-.23s.33.06.45.19c.12.13.18.26.18.4Z"/>
      <path d="M356.08,268.9c0-.54.05-1.06.16-1.55.11-.49.24-.95.4-1.38.16-.43.34-.81.53-1.17s.39-.66.58-.92c.19-.26.37-.48.54-.66.17-.17.3-.29.39-.36.05-.04.1-.04.14,0,.04.05.03.1-.02.15-.27.31-.52.66-.77,1.05-.24.39-.46.83-.64,1.31-.18.48-.33,1.01-.45,1.59-.11.58-.17,1.22-.18,1.9,0,.63.03,1.22.12,1.75.09.53.21,1.01.35,1.44.14.43.3.8.46,1.13.17.33.33.61.48.83.15.23.28.4.39.53.11.13.18.2.2.23.06.06.08.12.04.18-.04.05-.08.06-.14.02-.19-.12-.43-.35-.72-.69-.29-.34-.58-.77-.86-1.29-.28-.52-.52-1.13-.72-1.82-.2-.69-.3-1.45-.29-2.28Z"/>
      <path d="M365.3,271.21c-.02.1-.06.21-.1.33-.04.13-.09.25-.15.38-.06.13-.12.26-.18.38-.06.13-.12.23-.18.31-.14.18-.31.34-.51.45s-.4.17-.61.17c-.24,0-.44-.06-.61-.17-.17-.11-.32-.26-.43-.44s-.21-.38-.29-.61c-.07-.23-.14-.45-.19-.68-.07.06-.15.12-.25.18s-.19.13-.29.21l-.29.21c-.09.06-.18.12-.25.17-.1.07-.19.1-.25.09-.07,0-.11-.03-.13-.07s-.02-.1,0-.16c.02-.06.08-.12.16-.18.08-.06.17-.13.27-.21s.21-.17.32-.26c.11-.09.22-.18.32-.27.11-.09.2-.17.29-.24-.02-.21-.03-.44-.04-.69s-.02-.48-.02-.71c0-.35.02-.71.05-1.08.04-.37.09-.73.15-1.09.04-.19.11-.44.21-.74s.22-.58.37-.86c.15-.28.32-.52.5-.72.19-.2.4-.3.62-.3.3,0,.54.12.74.35s.29.6.29,1.09c0,.19-.02.4-.05.63-.03.23-.08.48-.14.74-.07.26-.17.53-.3.82-.13.28-.28.57-.45.86-.17.29-.36.57-.57.84-.21.27-.43.52-.66.75,0,.14.03.33.08.57.05.24.11.48.19.71.08.23.19.43.32.6s.29.26.48.26c.12,0,.25-.05.38-.15.13-.1.24-.22.34-.36.13-.19.24-.4.33-.6.09-.21.16-.41.22-.6.03-.09.06-.17.1-.24.03-.07.07-.1.11-.1.05,0,.09.03.12.08.03.05.03.17-.03.36ZM362.58,269.75c0,.14,0,.3.01.47.23-.29.44-.61.64-.95.2-.34.37-.7.52-1.07.15-.37.26-.76.34-1.16.08-.4.12-.8.12-1.19,0-.24-.03-.45-.08-.63-.06-.18-.16-.28-.32-.29-.14,0-.27.1-.39.29-.12.19-.23.42-.33.7-.1.28-.18.57-.25.87-.07.3-.12.57-.16.8-.03.19-.05.43-.07.7-.02.27-.02.62-.02,1.05v.41Z"/>
      <path d="M369.08,262.87c.09.07.22.18.39.36.17.17.35.39.54.66s.39.57.58.92c.2.35.37.74.54,1.17.16.43.29.88.4,1.38.11.49.16,1.01.16,1.55,0,.83-.09,1.59-.29,2.28-.2.69-.44,1.3-.72,1.82-.28.52-.57.95-.86,1.29-.29.34-.53.57-.72.69-.05.04-.1.03-.13-.02-.04-.05-.02-.11.04-.18.02-.02.09-.1.2-.23.11-.13.24-.3.39-.53.15-.23.31-.51.48-.83.17-.33.32-.71.46-1.13.14-.43.26-.9.35-1.44.09-.53.13-1.11.12-1.75,0-.69-.07-1.32-.18-1.9-.11-.58-.27-1.11-.45-1.59-.19-.48-.4-.91-.65-1.31s-.5-.74-.76-1.05c-.05-.06-.05-.11-.02-.15.04-.04.08-.05.15,0Z"/>
      <path d="M480.33,300.3c-.05.25-.14.42-.28.51s-.3.13-.46.13-.3-.04-.4-.13-.16-.2-.19-.35c-.02-.12-.01-.24.04-.35.05-.12.14-.2.27-.25.06-.11.06-.22.02-.34-.05-.12-.2-.18-.46-.18-.13,0-.29.06-.48.19-.19.12-.39.32-.6.58s-.43.59-.64.98-.41.85-.58,1.39c-.18.53-.32,1.02-.42,1.47-.1.44-.15.83-.13,1.15.01.32.09.57.22.75.14.18.35.27.63.27.26,0,.51-.06.74-.19.24-.12.45-.28.66-.46.2-.18.37-.37.52-.57.15-.2.27-.36.36-.51l.39.32c-.09.18-.23.39-.42.63-.18.24-.4.48-.64.71-.24.23-.5.42-.76.58-.27.16-.53.23-.79.23-.53,0-.95-.15-1.25-.46-.3-.31-.45-.72-.45-1.24-.09.19-.23.38-.42.58-.18.2-.39.38-.63.55-.24.17-.49.3-.77.4s-.56.15-.84.15c-.22,0-.42-.04-.59-.12-.17-.08-.32-.17-.44-.29-.12-.12-.22-.25-.28-.41-.06-.15-.1-.31-.1-.46,0-.67.24-1.01.73-1.01.24,0,.42.06.55.2.13.13.19.27.19.43,0,.17-.04.32-.11.45s-.18.22-.32.24c-.04.18.03.29.2.34.17.05.38.04.62-.04s.49-.2.74-.38c.25-.18.46-.42.61-.7.15-.28.31-.65.47-1.1s.3-.9.43-1.36c.13-.45.24-.87.34-1.24.09-.37.15-.63.18-.77.01-.14,0-.29-.06-.43s-.13-.28-.22-.41c-.09-.12-.21-.23-.34-.31-.13-.08-.26-.12-.39-.12-.19,0-.37.05-.56.16s-.35.23-.51.38-.31.3-.43.45c-.13.15-.24.27-.32.35l-.3-.37c.13-.12.27-.27.43-.45.15-.18.32-.36.51-.53.18-.17.38-.31.59-.43s.45-.17.71-.17.47.06.67.19c.2.12.37.28.51.47.14.19.25.39.32.61.07.22.1.42.09.61.12-.13.26-.3.43-.51s.37-.42.58-.62c.22-.2.46-.37.72-.52.26-.15.54-.22.83-.22s.51.06.69.17c.18.12.31.25.41.42.09.16.15.34.18.52s.02.34,0,.47Z"/>
      <path d="M484.31,310.47c-.16.55-.36.99-.57,1.31-.22.32-.43.57-.64.74s-.4.28-.58.33c-.18.05-.3.08-.38.08-.05,0-.11-.01-.18-.03-.06-.02-.12-.05-.18-.1-.06-.05-.1-.11-.14-.18-.04-.07-.06-.16-.06-.26,0-.19.06-.31.17-.38s.23-.1.34-.1c.07,0,.13.02.18.07.05.04.1.09.13.15.04.06.08.11.13.15s.1.07.16.07c.13,0,.25-.09.35-.27s.19-.39.26-.61c.07-.22.13-.43.17-.61s.06-.29.06-.3l1.27-4.21s.02-.08.04-.15c.02-.06.03-.13.03-.19s-.01-.11-.04-.16c-.03-.04-.08-.07-.15-.07-.11,0-.23.05-.38.16-.14.11-.28.24-.41.38-.13.15-.26.29-.37.43-.11.14-.19.25-.24.31l-.16-.16c.08-.12.19-.28.34-.46.15-.19.31-.37.49-.54.18-.17.36-.32.55-.44.19-.13.36-.19.52-.19s.27.04.35.12c.08.08.14.18.17.3s.04.24.03.36c0,.12-.02.22-.05.3l-1.25,4.13ZM486.41,302.76s-.01.11-.04.18c-.03.07-.07.14-.13.21s-.13.13-.22.18-.19.07-.32.07c-.12,0-.24-.05-.38-.14-.13-.09-.2-.22-.2-.37,0-.18.06-.34.19-.49.13-.15.28-.23.46-.23s.33.06.45.19c.12.13.18.26.18.4Z"/>
      <path d="M482.8,293.95c0-.54.05-1.06.16-1.55.11-.49.24-.95.4-1.38.16-.43.34-.81.53-1.17s.39-.66.58-.92c.19-.26.37-.48.54-.66.17-.17.3-.29.39-.36.05-.04.1-.04.14,0,.04.05.03.1-.02.15-.27.31-.52.66-.77,1.05-.24.39-.46.83-.64,1.31-.18.48-.33,1.01-.45,1.59-.11.58-.17,1.22-.18,1.9,0,.63.03,1.22.12,1.75.09.53.21,1.01.35,1.44.14.43.3.8.46,1.13.17.33.33.61.48.83.15.23.28.4.39.53.11.13.18.2.2.23.06.06.08.12.04.18-.04.05-.08.06-.14.02-.19-.12-.43-.35-.72-.69-.29-.34-.58-.77-.86-1.29-.28-.52-.52-1.13-.72-1.82-.2-.69-.3-1.45-.29-2.28Z"/>
      <path d="M492.02,296.26c-.02.1-.06.21-.1.33-.04.13-.09.25-.15.38-.06.13-.12.26-.18.38-.06.13-.12.23-.18.31-.14.18-.31.34-.51.45s-.4.17-.61.17c-.24,0-.44-.06-.61-.17-.17-.11-.32-.26-.43-.44s-.21-.38-.29-.61c-.07-.23-.14-.45-.19-.68-.07.06-.15.12-.25.18s-.19.13-.29.21l-.29.21c-.09.06-.18.12-.25.17-.1.07-.19.1-.25.09-.07,0-.11-.03-.13-.07s-.02-.1,0-.16c.02-.06.08-.12.16-.18.08-.06.17-.13.27-.21s.21-.17.32-.26c.11-.09.22-.18.32-.27.11-.09.2-.17.29-.24-.02-.21-.03-.44-.04-.69s-.02-.48-.02-.71c0-.35.02-.71.05-1.08.04-.37.09-.73.15-1.09.04-.19.11-.44.21-.74s.22-.58.37-.86c.15-.28.32-.52.5-.72.19-.2.4-.3.62-.3.3,0,.54.12.74.35s.29.6.29,1.09c0,.19-.02.4-.05.63-.03.23-.08.48-.14.74-.07.26-.17.53-.3.82-.13.28-.28.57-.45.86-.17.29-.36.57-.57.84-.21.27-.43.52-.66.75,0,.14.03.33.08.57.05.24.11.48.19.71.08.23.19.43.32.6s.29.26.48.26c.12,0,.25-.05.38-.15.13-.1.24-.22.34-.36.13-.19.24-.4.33-.6.09-.21.16-.41.22-.6.03-.09.06-.17.1-.24.03-.07.07-.1.11-.1.05,0,.09.03.12.08.03.05.03.17-.03.36ZM489.31,294.8c0,.14,0,.3.01.47.23-.29.44-.61.64-.95.2-.34.37-.7.52-1.07.15-.37.26-.76.34-1.16.08-.4.12-.8.12-1.19,0-.24-.03-.45-.08-.63-.06-.18-.16-.28-.32-.29-.14,0-.27.1-.39.29-.12.19-.23.42-.33.7-.1.28-.18.57-.25.87-.07.3-.12.57-.16.8-.03.19-.05.43-.07.7-.02.27-.02.62-.02,1.05v.41Z"/>
      <path d="M495.81,287.92c.09.07.22.18.39.36.17.17.35.39.54.66s.39.57.58.92c.2.35.37.74.54,1.17.16.43.29.88.4,1.38.11.49.16,1.01.16,1.55,0,.83-.09,1.59-.29,2.28-.2.69-.44,1.3-.72,1.82-.28.52-.57.95-.86,1.29-.29.34-.53.57-.72.69-.05.04-.1.03-.13-.02-.04-.05-.02-.11.04-.18.02-.02.09-.1.2-.23.11-.13.24-.3.39-.53.15-.23.31-.51.48-.83.17-.33.32-.71.46-1.13.14-.43.26-.9.35-1.44.09-.53.13-1.11.12-1.75,0-.69-.07-1.32-.18-1.9-.11-.58-.27-1.11-.45-1.59-.19-.48-.4-.91-.65-1.31s-.5-.74-.76-1.05c-.05-.06-.05-.11-.02-.15.04-.04.08-.05.15,0Z"/>
      <path d="M398.73,306.7c-.25.8-.54,1.44-.86,1.91-.33.47-.64.83-.96,1.08s-.6.41-.87.49c-.27.08-.46.11-.58.11-.08,0-.17-.01-.27-.04-.09-.03-.18-.08-.27-.15s-.15-.16-.21-.27-.09-.23-.09-.37c0-.27.09-.45.26-.55.17-.09.34-.14.51-.14.11,0,.2.03.28.1.08.06.14.14.2.22.06.08.12.16.19.22.07.06.15.1.25.1.2,0,.38-.13.53-.4s.29-.56.4-.89c.11-.32.2-.62.26-.89s.09-.42.09-.44l1.91-6.13s.03-.12.06-.21c.03-.09.04-.19.04-.27s-.02-.17-.06-.23c-.04-.06-.12-.1-.22-.1-.17,0-.36.08-.57.24-.21.16-.42.35-.62.56-.2.21-.38.42-.55.63-.17.21-.28.36-.35.45l-.25-.23c.12-.18.29-.4.51-.67.22-.27.47-.53.74-.78.27-.25.54-.46.82-.65.28-.18.54-.27.78-.27s.4.06.52.18c.12.12.21.26.26.43.05.17.06.35.05.52-.01.18-.04.32-.07.44l-1.88,6.01ZM401.9,295.48c0,.07-.02.16-.06.27-.04.11-.11.21-.2.31-.09.1-.2.19-.33.26s-.29.11-.48.11c-.18,0-.37-.07-.57-.2s-.3-.32-.3-.54c0-.26.1-.5.29-.72.19-.22.43-.33.7-.33s.5.09.67.28.27.38.27.58Z"/>
      <path d="M161.73,368.23c0-.79.08-1.54.24-2.26.16-.71.36-1.38.6-2,.24-.62.51-1.19.81-1.7.3-.51.59-.96.88-1.35.29-.38.56-.7.82-.96.25-.25.45-.43.59-.52.08-.06.15-.06.21,0,.06.07.05.14-.04.22-.4.45-.79.96-1.15,1.53s-.69,1.21-.97,1.9c-.28.7-.5,1.47-.67,2.31-.17.84-.26,1.77-.28,2.77-.01.92.05,1.77.19,2.54.14.77.31,1.47.52,2.09.21.62.45,1.17.7,1.65.25.48.49.88.72,1.21.22.33.42.59.58.77s.27.29.3.33c.09.09.12.18.06.26-.05.08-.12.09-.2.03-.28-.18-.65-.51-1.09-1-.44-.49-.88-1.12-1.3-1.88-.43-.76-.79-1.65-1.09-2.65s-.45-2.11-.43-3.31Z"/>
      <path d="M174.17,372.06c-.04.14-.09.3-.15.49-.06.18-.14.37-.23.56s-.18.38-.28.56-.18.33-.27.45c-.21.27-.47.49-.76.65-.3.17-.6.25-.92.25-.35,0-.66-.08-.92-.25-.26-.17-.48-.38-.66-.64-.18-.26-.32-.56-.43-.89-.11-.33-.21-.66-.29-.99-.11.08-.23.17-.37.27-.14.09-.29.2-.44.3l-.44.3c-.14.09-.27.18-.37.25-.15.09-.28.14-.38.13-.1,0-.17-.04-.19-.11-.03-.06-.03-.14,0-.23.04-.09.12-.17.25-.26.12-.08.25-.18.41-.3.15-.12.31-.24.48-.37.17-.13.33-.26.49-.39.16-.13.3-.25.43-.35-.02-.31-.04-.64-.06-1s-.03-.71-.03-1.04c0-.51.03-1.03.08-1.57.05-.54.13-1.07.22-1.59.06-.28.16-.64.31-1.07.15-.43.33-.85.56-1.26s.48-.76.76-1.05c.28-.3.6-.44.94-.44.45,0,.82.17,1.11.51.29.34.43.87.43,1.59,0,.27-.02.58-.07.91-.05.34-.12.7-.21,1.07-.11.38-.26.78-.45,1.19-.2.41-.42.83-.68,1.25-.26.42-.55.83-.86,1.22s-.65.76-1,1.09c.01.2.05.48.12.83s.17.69.29,1.03c.12.34.29.63.49.88.2.25.44.37.73.37.19,0,.38-.07.58-.22s.36-.32.51-.52c.2-.28.37-.58.5-.88.13-.3.24-.59.34-.88.05-.13.1-.25.15-.35.05-.1.11-.15.17-.15.07,0,.13.04.19.12.05.08.04.25-.04.52ZM170.07,369.93c0,.2,0,.43.02.69.34-.43.67-.89.97-1.38.3-.5.56-1.02.78-1.56.22-.54.39-1.1.51-1.68.12-.58.19-1.16.19-1.74,0-.35-.04-.66-.12-.92-.08-.26-.24-.4-.48-.43-.21,0-.41.14-.59.42-.18.28-.35.62-.5,1.02-.15.4-.27.82-.38,1.27-.11.44-.19.83-.25,1.16-.05.28-.08.62-.11,1.02-.02.4-.04.91-.04,1.53v.6Z"/>
      <path d="M190.33,368.61h-11.72v-.69h11.72v.69Z"/>
      <path d="M203.26,374.77h-6.63v-.46c.69,0,1.2-.04,1.55-.12s.6-.17.75-.29.24-.25.25-.38c.01-.14.02-.26.02-.36v-8.29c0-.15-.03-.28-.08-.38-.05-.1-.17-.18-.34-.24-.18-.06-.44-.1-.78-.12-.34-.02-.8-.03-1.38-.03v-.37c.5-.06.98-.15,1.45-.27s.9-.25,1.28-.38c.44-.15.85-.32,1.24-.51v10.63c0,.09.01.21.04.34.02.13.12.25.28.37s.43.22.79.3c.36.08.88.12,1.57.12v.44Z"/>
      <path d="M207.16,359.44c.14.09.34.27.59.52.25.25.53.57.82.96.29.38.58.83.88,1.35.3.51.56,1.08.81,1.7.24.62.44,1.29.6,2,.16.72.24,1.47.24,2.26.01,1.21-.13,2.31-.43,3.31s-.67,1.89-1.09,2.65c-.43.76-.86,1.39-1.3,1.88-.44.49-.81.82-1.09,1-.08.06-.15.05-.2-.03-.05-.08-.03-.16.06-.26.04-.04.14-.14.3-.33s.36-.44.59-.77c.22-.33.46-.74.72-1.21.25-.48.49-1.03.7-1.65s.39-1.32.52-2.09c.14-.77.2-1.62.19-2.54-.01-1-.1-1.93-.28-2.77-.17-.84-.4-1.62-.68-2.31-.28-.7-.61-1.33-.98-1.9s-.75-1.08-1.15-1.53c-.07-.08-.08-.16-.03-.22.05-.06.13-.07.22,0Z"/>
      <path d="M424.49,371.23c-.04.14-.09.3-.15.49-.06.18-.14.37-.23.56s-.18.38-.28.56-.18.33-.27.45c-.21.27-.47.49-.76.65-.3.17-.6.25-.92.25-.35,0-.66-.08-.92-.25-.26-.17-.48-.38-.66-.64-.18-.26-.32-.56-.43-.89-.11-.33-.21-.66-.29-.99-.11.08-.23.17-.37.27-.14.09-.29.2-.44.3l-.44.3c-.14.09-.27.18-.37.25-.15.09-.28.14-.38.13-.1,0-.17-.04-.19-.11-.03-.06-.03-.14,0-.23.04-.09.12-.17.25-.26.12-.08.25-.18.41-.3.15-.12.31-.24.48-.37.17-.13.33-.26.49-.39.16-.13.3-.25.43-.35-.02-.31-.04-.64-.06-1s-.03-.71-.03-1.04c0-.51.03-1.03.08-1.57.05-.54.13-1.07.22-1.59.06-.28.16-.64.31-1.07.15-.43.33-.85.56-1.26s.48-.76.76-1.05c.28-.3.6-.44.94-.44.45,0,.82.17,1.11.51.29.34.43.87.43,1.59,0,.27-.02.58-.07.91-.05.34-.12.7-.21,1.07-.11.38-.26.78-.45,1.19-.2.41-.42.83-.68,1.25-.26.42-.55.83-.86,1.22s-.65.76-1,1.09c.01.2.05.48.12.83s.17.69.29,1.03c.12.34.29.63.49.88.2.25.44.37.73.37.19,0,.38-.07.58-.22s.36-.32.51-.52c.2-.28.37-.58.5-.88.13-.3.24-.59.34-.88.05-.13.1-.25.15-.35.05-.1.11-.15.17-.15.07,0,.13.04.19.12.05.08.04.25-.04.52ZM420.39,369.1c0,.2,0,.43.02.69.34-.43.67-.89.97-1.38.3-.5.56-1.02.78-1.56.22-.54.39-1.1.51-1.68.12-.58.19-1.16.19-1.74,0-.35-.04-.66-.12-.92-.08-.26-.24-.4-.48-.43-.21,0-.41.14-.59.42-.18.28-.35.62-.5,1.02-.15.4-.27.82-.38,1.27-.11.44-.19.83-.25,1.16-.05.28-.08.62-.11,1.02-.02.4-.04.91-.04,1.53v.6Z"/>
      <g>
        <path d="M116.53,374.19v-.45l1.86-.18h.64l1.89.18v.45h-4.38ZM117.91,374.19c.01-.35.02-.74.02-1.16,0-.42.01-.85.02-1.29,0-.44,0-.85,0-1.23v-8.24l-1.36-.08v-.43l2.74-.51.24.14-.05,2.5v6.62c0,.38,0,.79,0,1.23,0,.44.01.87.02,1.29,0,.42.01.81.02,1.16h-1.66Z"/>
        <path d="M124.36,374.43c-.64,0-1.17-.18-1.6-.54s-.64-.88-.64-1.55c0-.43.09-.8.28-1.14.19-.33.5-.63.94-.89.44-.26,1.02-.5,1.76-.71.44-.13.91-.26,1.41-.38s.97-.25,1.39-.35v.4c-.43.11-.86.22-1.29.34-.43.12-.82.25-1.16.38-.65.25-1.12.54-1.4.89-.28.35-.42.76-.42,1.24s.13.86.39,1.1c.26.25.6.37,1.03.37.22,0,.45-.04.67-.13.22-.08.48-.24.77-.47s.63-.55,1.02-.95l.16.78h-.43c-.32.35-.62.65-.91.89-.29.24-.59.42-.9.54-.31.12-.67.18-1.07.18ZM128.68,374.41c-.49,0-.86-.16-1.11-.48s-.4-.76-.44-1.31v-4.27c0-.6-.06-1.06-.19-1.38-.13-.32-.32-.54-.58-.67-.26-.13-.6-.19-1.02-.19-.3,0-.6.04-.9.12-.3.08-.64.22-1,.41l.78-.43-.24,1.26c-.03.33-.13.57-.28.7s-.34.21-.55.21c-.43,0-.69-.21-.78-.62.14-.67.5-1.2,1.1-1.58.59-.38,1.37-.58,2.34-.58s1.69.23,2.14.69c.46.46.69,1.2.69,2.22v4.02c0,.46.06.77.17.94.11.17.27.26.47.26.13,0,.25-.03.35-.1.11-.06.23-.18.37-.34l.26.22c-.17.31-.39.54-.65.68-.26.14-.57.22-.92.22Z"/>
        <path d="M131.53,378.53c-.37,0-.71-.08-1.02-.25-.3-.17-.47-.4-.5-.7.04-.25.16-.43.36-.54s.42-.18.66-.18.45.06.65.18.39.28.57.48l.46.48-.53.29-.3-.27c.52-.17.98-.51,1.38-1.01.39-.5.75-1.15,1.06-1.95l.46-1.15.1-.26,1.41-3.92,1.33-3.89h.64l-3.39,9.07c-.32.86-.66,1.56-1.01,2.1-.35.53-.72.92-1.1,1.16-.38.24-.79.36-1.22.36ZM130.02,366.29v-.45h4.14v.45l-1.68.18h-.86l-1.6-.18ZM134.57,375.1l-3.76-9.26h1.71l2.66,7.23.1.19-.7,1.84ZM135.86,366.29v-.45h3.25v.45l-1.31.16h-.24l-1.7-.16Z"/>
        <path d="M143.72,374.43c-.81,0-1.53-.17-2.16-.5-.63-.33-1.12-.82-1.48-1.48-.36-.66-.54-1.46-.54-2.42s.19-1.71.56-2.37c.37-.66.87-1.17,1.49-1.53.62-.36,1.29-.54,2-.54s1.34.15,1.85.45c.51.3.89.7,1.15,1.21.26.51.39,1.08.39,1.74,0,.38-.03.7-.1.96h-6.64v-.51h4.48c.3,0,.5-.08.61-.24s.16-.42.16-.77c0-.69-.17-1.25-.51-1.67-.34-.42-.82-.63-1.44-.63-.44,0-.83.14-1.19.42-.36.28-.64.7-.86,1.25-.21.55-.32,1.22-.32,2.02,0,.86.13,1.58.39,2.14.26.56.62.97,1.06,1.22.45.26.96.38,1.55.38s1.05-.1,1.46-.3c.41-.2.77-.49,1.08-.86l.27.21c-.34.58-.79,1.02-1.34,1.34-.55.32-1.2.48-1.94.48Z"/>
        <path d="M149.57,374.19c.01-.27.02-.62.02-1.06,0-.44.01-.9.02-1.38,0-.48,0-.9,0-1.25v-1.04c0-.55,0-1.04,0-1.44s-.02-.8-.04-1.18l-1.36-.1v-.4l2.66-.7.21.13.1,2.26v2.48c0,.35,0,.77,0,1.25,0,.48.01.94.02,1.38s.01.79.02,1.06h-1.65ZM148.31,374.19v-.45l1.74-.19h.88l1.79.19v.45h-4.42ZM151.17,369.09l-.4-.88h.32c.17-.53.4-.99.68-1.38.28-.39.6-.69.96-.9.36-.21.72-.32,1.1-.32.32,0,.6.07.84.2.24.13.4.34.47.63,0,.29-.07.52-.22.7s-.37.27-.68.27c-.21,0-.41-.06-.58-.18-.17-.12-.35-.28-.54-.5l-.37-.37.69.03c-.52.18-.97.48-1.34.9-.37.42-.68,1.02-.94,1.78Z"/>
      </g>
      <g>
        <path d="M372.52,374.19v-.45l1.86-.18h.64l1.89.18v.45h-4.38ZM373.9,374.19c.01-.35.02-.74.02-1.16,0-.42,0-.85.02-1.29,0-.44,0-.85,0-1.23v-8.24l-1.36-.08v-.43l2.74-.51.24.14-.05,2.5v6.62c0,.38,0,.79,0,1.23,0,.44.01.87.02,1.29,0,.42.01.81.02,1.16h-1.66Z"/>
        <path d="M380.35,374.43c-.64,0-1.17-.18-1.6-.54s-.64-.88-.64-1.55c0-.43.09-.8.28-1.14.19-.33.5-.63.94-.89s1.02-.5,1.76-.71c.44-.13.91-.26,1.41-.38.5-.13.96-.25,1.39-.35v.4c-.43.11-.86.22-1.29.34-.43.12-.82.25-1.16.38-.65.25-1.12.54-1.4.89-.28.35-.42.76-.42,1.24s.13.86.39,1.1c.26.25.61.37,1.03.37.22,0,.45-.04.67-.13.22-.08.48-.24.77-.47s.63-.55,1.02-.95l.16.78h-.43c-.32.35-.62.65-.91.89-.29.24-.59.42-.9.54-.31.12-.67.18-1.07.18ZM384.67,374.41c-.49,0-.86-.16-1.11-.48-.25-.32-.4-.76-.44-1.31v-4.27c0-.6-.06-1.06-.19-1.38-.13-.32-.32-.54-.58-.67-.26-.13-.6-.19-1.02-.19-.3,0-.6.04-.9.12-.3.08-.64.22-1,.41l.78-.43-.24,1.26c-.03.33-.12.57-.28.7-.16.14-.34.21-.55.21-.43,0-.69-.21-.78-.62.14-.67.5-1.2,1.1-1.58.59-.38,1.37-.58,2.34-.58s1.69.23,2.14.69c.46.46.69,1.2.69,2.22v4.02c0,.46.06.77.17.94s.27.26.47.26c.13,0,.25-.03.35-.1.11-.06.23-.18.37-.34l.26.22c-.17.31-.39.54-.65.68-.26.14-.57.22-.92.22Z"/>
        <path d="M387.51,378.53c-.37,0-.71-.08-1.02-.25-.3-.17-.47-.4-.5-.7.04-.25.16-.43.36-.54s.42-.18.66-.18.45.06.65.18c.2.12.39.28.57.48l.46.48-.53.29-.3-.27c.52-.17.98-.51,1.38-1.01.39-.5.75-1.15,1.06-1.95l.46-1.15.1-.26,1.41-3.92,1.33-3.89h.64l-3.39,9.07c-.32.86-.66,1.56-1.01,2.1-.35.53-.72.92-1.1,1.16-.38.24-.79.36-1.22.36ZM386.01,366.29v-.45h4.14v.45l-1.68.18h-.86l-1.6-.18ZM390.55,375.1l-3.76-9.26h1.71l2.66,7.23.1.19-.7,1.84ZM391.85,366.29v-.45h3.25v.45l-1.31.16h-.24l-1.7-.16Z"/>
        <path d="M399.71,374.43c-.81,0-1.53-.17-2.16-.5-.63-.33-1.12-.82-1.48-1.48-.36-.66-.54-1.46-.54-2.42s.19-1.71.56-2.37c.37-.66.87-1.17,1.49-1.53.62-.36,1.29-.54,2-.54s1.34.15,1.85.45c.51.3.89.7,1.15,1.21.26.51.39,1.08.39,1.74,0,.38-.03.7-.1.96h-6.64v-.51h4.48c.3,0,.5-.08.61-.24.11-.16.16-.42.16-.77,0-.69-.17-1.25-.51-1.67-.34-.42-.82-.63-1.44-.63-.44,0-.83.14-1.19.42-.36.28-.64.7-.86,1.25-.21.55-.32,1.22-.32,2.02,0,.86.13,1.58.39,2.14.26.56.62.97,1.06,1.22s.96.38,1.55.38,1.05-.1,1.46-.3c.41-.2.77-.49,1.08-.86l.27.21c-.34.58-.79,1.02-1.34,1.34-.55.32-1.2.48-1.94.48Z"/>
        <path d="M405.56,374.19c0-.27.02-.62.02-1.06,0-.44.01-.9.02-1.38,0-.48,0-.9,0-1.25v-1.04c0-.55,0-1.04,0-1.44,0-.41-.02-.8-.04-1.18l-1.36-.1v-.4l2.66-.7.21.13.1,2.26v2.48c0,.35,0,.77,0,1.25,0,.48.01.94.02,1.38,0,.44.01.79.02,1.06h-1.65ZM404.3,374.19v-.45l1.74-.19h.88l1.79.19v.45h-4.42ZM407.16,369.09l-.4-.88h.32c.17-.53.4-.99.68-1.38.28-.39.6-.69.96-.9.36-.21.72-.32,1.1-.32.32,0,.6.07.84.2.24.13.4.34.47.63,0,.29-.07.52-.22.7-.14.18-.37.27-.68.27-.21,0-.41-.06-.58-.18s-.35-.28-.54-.5l-.37-.37.69.03c-.52.18-.97.48-1.34.9-.37.42-.68,1.02-.94,1.78Z"/>
      </g>
    </g>
    <g id="_레이어_3" data-name="레이어_3">
      <g>
        <line class="cls-3" x1="187.97" y1="238.5" x2="364.01" y2="300.48"/>
        <polygon class="cls-4" points="360.13 303.04 362.84 300.07 362.59 296.06 369.64 302.47 360.13 303.04"/>
      </g>
      <g>
        <line class="cls-1" x1="424.85" y1="303.75" x2="454.78" y2="303.75"/>
        <polygon points="451.98 307.45 453.55 303.75 451.98 300.05 460.75 303.75 451.98 307.45"/>
      </g>
    </g>
    <g id="_레이어_2" data-name="레이어_2">
      <circle class="cls-2" cx="161.39" cy="238.5" r="26.58"/>
      <circle class="cls-2" cx="398.27" cy="305.11" r="26.58"/>
    </g>
  </g>
</svg>