<?xml version="1.0" encoding="UTF-8"?>
<svg xmlns="http://www.w3.org/2000/svg" version="1.1" viewBox="0 0 600 600">
  <defs>
    <style>
      .cls-1 {
        stroke: #d70051;
      }

      .cls-1, .cls-2, .cls-3, .cls-4, .cls-5, .cls-6, .cls-7, .cls-8, .cls-9, .cls-10, .cls-11, .cls-12 {
        fill: none;
        stroke-miterlimit: 10;
      }

      .cls-2 {
        stroke: #920783;
      }

      .cls-3 {
        stroke: #231815;
      }

      .cls-4 {
        stroke: #094;
      }

      .cls-5 {
        stroke: #00a0e9;
      }

      .cls-6 {
        stroke: #fff100;
      }

      .cls-7 {
        stroke: #00913a;
      }

      .cls-8 {
        stroke: #e60012;
      }

      .cls-9 {
        stroke: #dae000;
      }

      .cls-10 {
        stroke: #2ea7e0;
      }

      .cls-11 {
        stroke: #e4007f;
      }

      .cls-12 {
        stroke: #1d2088;
      }
    </style>
  </defs>
  <!-- Generator: Adobe Illustrator 28.7.1, SVG Export Plug-In . SVG Version: 1.2.0 Build 142)  -->
  <g>
    <g id="_레이어_2" data-name="레이어_2">
      <rect class="cls-3" x="221.02" y="188.23" width="157.95" height="251.55"/>
      <path class="cls-8" d="M229.83,208.25c-3.02-.77-5.21-2.74-5.38-4.87-.13-1.57.85-3.13,1.26-3.78.33-.53.95-1.5,2.1-2.27.93-.63,1.95-.82,3.95-1.18,2.48-.44,3.75-.66,5.13-.25.57.17,1.17.43,2.1.84.48.21,1.26.56,2.27,1.09,1.95,1.02,2.92,1.53,3.7,2.18.44.37,1.74,1.5,2.6,3.36.67,1.44.2,1.42,1.09,3.86.47,1.3.83,1.91,1.01,3.19.1.73.12,1.47.13,1.85.02.83,0,1.7-.03,2.42,0,.23-.02.46-.02.6-.1,2.41-.15,3.61-.67,4.45-.41.66-1.14,1-2.6,1.68-1.3.6-2.54,1.17-4.12,1.09-.89-.05-1.39-.28-2.44-.08-.8.15-.98.37-1.51.34-1.05-.06-1.8-1.02-2.18-1.51-1.01-1.3-1.25-2.67-1.51-4.28-.24-1.46-.25-2.57-.25-3.61,0-1.66-.02-3.27.42-5.21.36-1.62.86-2.7,1.68-4.45,1.33-2.87,1.63-2.59,2.86-5.29.87-1.91,1.06-2.81,2.1-4.28.54-.77,1.01-1.24,1.93-2.18.95-.97,1.29-1.16,1.68-1.26.74-.18,1.61.01,2.18.5.87.75.91,2.01.92,2.52.38,11.2.28,14.41.08,20.84-.02.54-.04,1.59-.67,1.93-1.17.64-2.65-2.14-6.05-3.36-3.56-1.27-5.29.57-7.98-1.18-1.66-1.08-2.35-2.67-2.6-3.28-1.18-2.83-.68-6.55.76-7.06.47-.17.58.17,3.86,1.68,1.2.55,1.66.73,2.27,1.26.84.73,1.24,1.53,1.6,2.27,1.41,2.92,2.11,4.38,2.35,5.63.5,2.64.02,4.79-.34,6.3-1,4.23-2.94,5.95-2.1,7.14.55.79,1.88.7,3.61.59,4.11-.27,6.87-2.41,8.07-3.36,1.38-1.1,3.11-2.48,2.86-3.86-.19-1.02-1.24-.91-1.76-2.18-.87-2.09,1.06-5.05,1.42-5.62,0,0,0,0,0,0,.54-.85,1.03-1.41,1.09-1.51,1.12-1.89,1.32-3.67,1.43-4.7.1-.98.23-2.33-.25-3.95-.24-.81-.42-1.41-.92-1.85-1.21-1.06-3.41-.39-4.37-.08-9.36,2.97-22.89,9.72-25.12,14.62-.16.34-.51,1.15-.34,2.1.37,2.07,2.9,3.1,3.36,3.28,1.66.64,3.14.41,3.53.34,1.87-.34,2.35-1.27,5.63-3.78,3.73-2.86,5.51-3.5,6.47-3.78,1.01-.29,1.79-.39,2.77-.5,2.8-.33,5.23-.19,7.09.07"/>
      <path class="cls-6" d="M260.93,218.5c-3.02-.77-5.21-2.74-5.38-4.87-.13-1.57.85-3.13,1.26-3.78.33-.53.95-1.5,2.1-2.27.93-.63,1.95-.82,3.95-1.18,2.48-.44,3.75-.66,5.13-.25.57.17,1.17.43,2.1.84.48.21,1.26.56,2.27,1.09,1.95,1.02,2.92,1.53,3.7,2.18.44.37,1.74,1.5,2.6,3.36.67,1.44.2,1.42,1.09,3.86.47,1.3.83,1.91,1.01,3.19.1.73.12,1.47.13,1.85.02.83,0,1.7-.03,2.42,0,.23-.02.46-.02.6-.1,2.41-.15,3.61-.67,4.45-.41.66-1.14,1-2.6,1.68-1.3.6-2.54,1.17-4.12,1.09-.89-.05-1.39-.28-2.44-.08-.8.15-.98.37-1.51.34-1.05-.06-1.8-1.02-2.18-1.51-1.01-1.3-1.25-2.67-1.51-4.28-.24-1.46-.25-2.57-.25-3.61,0-1.66-.02-3.27.42-5.21.36-1.62.86-2.7,1.68-4.45,1.33-2.87,1.63-2.59,2.86-5.29.87-1.91,1.06-2.81,2.1-4.28.54-.77,1.01-1.24,1.93-2.18.95-.97,1.29-1.16,1.68-1.26.74-.18,1.61.01,2.18.5.87.75.91,2.01.92,2.52.38,11.2.28,14.41.08,20.84-.02.54-.04,1.59-.67,1.93-1.17.64-2.65-2.14-6.05-3.36-3.56-1.27-5.29.57-7.98-1.18-1.66-1.08-2.35-2.67-2.6-3.28-1.18-2.83-.68-6.55.76-7.06.47-.17.58.17,3.86,1.68,1.2.55,1.66.73,2.27,1.26.84.73,1.24,1.53,1.6,2.27,1.41,2.92,2.11,4.38,2.35,5.63.5,2.64.02,4.79-.34,6.3-1,4.23-2.94,5.95-2.1,7.14.55.79,1.88.7,3.61.59,4.11-.27,6.87-2.41,8.07-3.36,1.38-1.1,3.11-2.48,2.86-3.86-.19-1.02-1.24-.91-1.76-2.18-.87-2.09,1.06-5.05,1.42-5.62,0,0,0,0,0,0,.54-.85,1.03-1.41,1.09-1.51,1.12-1.89,1.32-3.67,1.43-4.7.1-.98.23-2.33-.25-3.95-.24-.81-.42-1.41-.92-1.85-1.21-1.06-3.41-.39-4.37-.08-9.36,2.97-22.89,9.72-25.12,14.62-.16.34-.51,1.15-.34,2.1.37,2.07,2.9,3.1,3.36,3.28,1.66.64,3.14.41,3.53.34,1.87-.34,2.35-1.27,5.63-3.78,3.73-2.86,5.51-3.5,6.47-3.78,1.01-.29,1.79-.39,2.77-.5,2.8-.33,5.23-.19,7.09.07"/>
      <path class="cls-4" d="M303.15,208.93c-3.02-.77-5.21-2.74-5.38-4.87-.13-1.57.85-3.13,1.26-3.78.33-.53.95-1.5,2.1-2.27.93-.63,1.95-.82,3.95-1.18,2.48-.44,3.75-.66,5.13-.25.57.17,1.17.43,2.1.84.48.21,1.26.56,2.27,1.09,1.95,1.02,2.92,1.53,3.7,2.18.44.37,1.74,1.5,2.6,3.36.67,1.44.2,1.42,1.09,3.86.47,1.3.83,1.91,1.01,3.19.1.73.12,1.47.13,1.85.02.83,0,1.7-.03,2.42,0,.23-.02.46-.02.6-.1,2.41-.15,3.61-.67,4.45-.41.66-1.14,1-2.6,1.68-1.3.6-2.54,1.17-4.12,1.09-.89-.05-1.39-.28-2.44-.08-.8.15-.98.37-1.51.34-1.05-.06-1.8-1.02-2.18-1.51-1.01-1.3-1.25-2.67-1.51-4.28-.24-1.46-.25-2.57-.25-3.61,0-1.66-.02-3.27.42-5.21.36-1.62.86-2.7,1.68-4.45,1.33-2.87,1.63-2.59,2.86-5.29.87-1.91,1.06-2.81,2.1-4.28.54-.77,1.01-1.24,1.93-2.18.95-.97,1.29-1.16,1.68-1.26.74-.18,1.61.01,2.18.5.87.75.91,2.01.92,2.52.38,11.2.28,14.41.08,20.84-.02.54-.04,1.59-.67,1.93-1.17.64-2.65-2.14-6.05-3.36-3.56-1.27-5.29.57-7.98-1.18-1.66-1.08-2.35-2.67-2.6-3.28-1.18-2.83-.68-6.55.76-7.06.47-.17.58.17,3.86,1.68,1.2.55,1.66.73,2.27,1.26.84.73,1.24,1.53,1.6,2.27,1.41,2.92,2.11,4.38,2.35,5.63.5,2.64.02,4.79-.34,6.3-1,4.23-2.94,5.95-2.1,7.14.55.79,1.88.7,3.61.59,4.11-.27,6.87-2.41,8.07-3.36,1.38-1.1,3.11-2.48,2.86-3.86-.19-1.02-1.24-.91-1.76-2.18-.87-2.09,1.06-5.05,1.42-5.62,0,0,0,0,0,0,.54-.85,1.03-1.41,1.09-1.51,1.12-1.89,1.32-3.67,1.43-4.7.1-.98.23-2.33-.25-3.95-.24-.81-.42-1.41-.92-1.85-1.21-1.06-3.41-.39-4.37-.08-9.36,2.97-22.89,9.72-25.12,14.62-.16.34-.51,1.15-.34,2.1.37,2.07,2.9,3.1,3.36,3.28,1.66.64,3.14.41,3.53.34,1.87-.34,2.35-1.27,5.63-3.78,3.73-2.86,5.51-3.5,6.47-3.78,1.01-.29,1.79-.39,2.77-.5,2.8-.33,5.23-.19,7.09.07"/>
      <path class="cls-5" d="M348.1,210.16c-3.02-.77-5.21-2.74-5.38-4.87-.13-1.57.85-3.13,1.26-3.78.33-.53.95-1.5,2.1-2.27.93-.63,1.95-.82,3.95-1.18,2.48-.44,3.75-.66,5.13-.25.57.17,1.17.43,2.1.84.48.21,1.26.56,2.27,1.09,1.95,1.02,2.92,1.53,3.7,2.18.44.37,1.74,1.5,2.6,3.36.67,1.44.2,1.42,1.09,3.86.47,1.3.83,1.91,1.01,3.19.1.73.12,1.47.13,1.85.02.83,0,1.7-.03,2.42,0,.23-.02.46-.02.6-.1,2.41-.15,3.61-.67,4.45-.41.66-1.14,1-2.6,1.68-1.3.6-2.54,1.17-4.12,1.09-.89-.05-1.39-.28-2.44-.08-.8.15-.98.37-1.51.34-1.05-.06-1.8-1.02-2.18-1.51-1.01-1.3-1.25-2.67-1.51-4.28-.24-1.46-.25-2.57-.25-3.61,0-1.66-.02-3.27.42-5.21.36-1.62.86-2.7,1.68-4.45,1.33-2.87,1.63-2.59,2.86-5.29.87-1.91,1.06-2.81,2.1-4.28.54-.77,1.01-1.24,1.93-2.18.95-.97,1.29-1.16,1.68-1.26.74-.18,1.61.01,2.18.5.87.75.91,2.01.92,2.52.38,11.2.28,14.41.08,20.84-.02.54-.04,1.59-.67,1.93-1.17.64-2.65-2.14-6.05-3.36-3.56-1.27-5.29.57-7.98-1.18-1.66-1.08-2.35-2.67-2.6-3.28-1.18-2.83-.68-6.55.76-7.06.47-.17.58.17,3.86,1.68,1.2.55,1.66.73,2.27,1.26.84.73,1.24,1.53,1.6,2.27,1.41,2.92,2.11,4.38,2.35,5.63.5,2.64.02,4.79-.34,6.3-1,4.23-2.94,5.95-2.1,7.14.55.79,1.88.7,3.61.59,4.11-.27,6.87-2.41,8.07-3.36,1.38-1.1,3.11-2.48,2.86-3.86-.19-1.02-1.24-.91-1.76-2.18-.87-2.09,1.06-5.05,1.42-5.62,0,0,0,0,0,0,.54-.85,1.03-1.41,1.09-1.51,1.12-1.89,1.32-3.67,1.43-4.7.1-.98.23-2.33-.25-3.95-.24-.81-.42-1.41-.92-1.85-1.21-1.06-3.41-.39-4.37-.08-9.36,2.97-22.89,9.72-25.12,14.62-.16.34-.51,1.15-.34,2.1.37,2.07,2.9,3.1,3.36,3.28,1.66.64,3.14.41,3.53.34,1.87-.34,2.35-1.27,5.63-3.78,3.73-2.86,5.51-3.5,6.47-3.78,1.01-.29,1.79-.39,2.77-.5,2.8-.33,5.23-.19,7.09.07"/>
      <path class="cls-11" d="M292.71,246.09c-3.02-.77-5.21-2.74-5.38-4.87-.13-1.57.85-3.13,1.26-3.78.33-.53.95-1.5,2.1-2.27.93-.63,1.95-.82,3.95-1.18,2.48-.44,3.75-.66,5.13-.25.57.17,1.17.43,2.1.84.48.21,1.26.56,2.27,1.09,1.95,1.02,2.92,1.53,3.7,2.18.44.37,1.74,1.5,2.6,3.36.67,1.44.2,1.42,1.09,3.86.47,1.3.83,1.91,1.01,3.19.1.73.12,1.47.13,1.85.02.83,0,1.7-.03,2.42,0,.23-.02.46-.02.6-.1,2.41-.15,3.61-.67,4.45-.41.66-1.14,1-2.6,1.68-1.3.6-2.54,1.17-4.12,1.09-.89-.05-1.39-.28-2.44-.08-.8.15-.98.37-1.51.34-1.05-.06-1.8-1.02-2.18-1.51-1.01-1.3-1.25-2.67-1.51-4.28-.24-1.46-.25-2.57-.25-3.61,0-1.66-.02-3.27.42-5.21.36-1.62.86-2.7,1.68-4.45,1.33-2.87,1.63-2.59,2.86-5.29.87-1.91,1.06-2.81,2.1-4.28.54-.77,1.01-1.24,1.93-2.18.95-.97,1.29-1.16,1.68-1.26.74-.18,1.61.01,2.18.5.87.75.91,2.01.92,2.52.38,11.2.28,14.41.08,20.84-.02.54-.04,1.59-.67,1.93-1.17.64-2.65-2.14-6.05-3.36-3.56-1.27-5.29.57-7.98-1.18-1.66-1.08-2.35-2.67-2.6-3.28-1.18-2.83-.68-6.55.76-7.06.47-.17.58.17,3.86,1.68,1.2.55,1.66.73,2.27,1.26.84.73,1.24,1.53,1.6,2.27,1.41,2.92,2.11,4.38,2.35,5.63.5,2.64.02,4.79-.34,6.3-1,4.23-2.94,5.95-2.1,7.14.55.79,1.88.7,3.61.59,4.11-.27,6.87-2.41,8.07-3.36,1.38-1.1,3.11-2.48,2.86-3.86-.19-1.02-1.24-.91-1.76-2.18-.87-2.09,1.06-5.05,1.42-5.62,0,0,0,0,0,0,.54-.85,1.03-1.41,1.09-1.51,1.12-1.89,1.32-3.67,1.43-4.7.1-.98.23-2.33-.25-3.95-.24-.81-.42-1.41-.92-1.85-1.21-1.06-3.41-.39-4.37-.08-9.36,2.97-22.89,9.72-25.12,14.62-.16.34-.51,1.15-.34,2.1.37,2.07,2.9,3.1,3.36,3.28,1.66.64,3.14.41,3.53.34,1.87-.34,2.35-1.27,5.63-3.78,3.73-2.86,5.51-3.5,6.47-3.78,1.01-.29,1.79-.39,2.77-.5,2.8-.33,5.23-.19,7.09.07"/>
      <path class="cls-2" d="M255.3,254.43c-3.02-.77-5.21-2.74-5.38-4.87-.13-1.57.85-3.13,1.26-3.78.33-.53.95-1.5,2.1-2.27.93-.63,1.95-.82,3.95-1.18,2.48-.44,3.75-.66,5.13-.25.57.17,1.17.43,2.1.84.48.21,1.26.56,2.27,1.09,1.95,1.02,2.92,1.53,3.7,2.18.44.37,1.74,1.5,2.6,3.36.67,1.44.2,1.42,1.09,3.86.47,1.3.83,1.91,1.01,3.19.1.73.12,1.47.13,1.85.02.83,0,1.7-.03,2.42,0,.23-.02.46-.02.6-.1,2.41-.15,3.61-.67,4.45-.41.66-1.14,1-2.6,1.68-1.3.6-2.54,1.17-4.12,1.09-.89-.05-1.39-.28-2.44-.08-.8.15-.98.37-1.51.34-1.05-.06-1.8-1.02-2.18-1.51-1.01-1.3-1.25-2.67-1.51-4.28-.24-1.46-.25-2.57-.25-3.61,0-1.66-.02-3.27.42-5.21.36-1.62.86-2.7,1.68-4.45,1.33-2.87,1.63-2.59,2.86-5.29.87-1.91,1.06-2.81,2.1-4.28.54-.77,1.01-1.24,1.93-2.18.95-.97,1.29-1.16,1.68-1.26.74-.18,1.61.01,2.18.5.87.75.91,2.01.92,2.52.38,11.2.28,14.41.08,20.84-.02.54-.04,1.59-.67,1.93-1.17.64-2.65-2.14-6.05-3.36-3.56-1.27-5.29.57-7.98-1.18-1.66-1.08-2.35-2.67-2.6-3.28-1.18-2.83-.68-6.55.76-7.06.47-.17.58.17,3.86,1.68,1.2.55,1.66.73,2.27,1.26.84.73,1.24,1.53,1.6,2.27,1.41,2.92,2.11,4.38,2.35,5.63.5,2.64.02,4.79-.34,6.3-1,4.23-2.94,5.95-2.1,7.14.55.79,1.88.7,3.61.59,4.11-.27,6.87-2.41,8.07-3.36,1.38-1.1,3.11-2.48,2.86-3.86-.19-1.02-1.24-.91-1.76-2.18-.87-2.09,1.06-5.05,1.42-5.62,0,0,0,0,0,0,.54-.85,1.03-1.41,1.09-1.51,1.12-1.89,1.32-3.67,1.43-4.7.1-.98.23-2.33-.25-3.95-.24-.81-.42-1.41-.92-1.85-1.21-1.06-3.41-.39-4.37-.08-9.36,2.97-22.89,9.72-25.12,14.62-.16.34-.51,1.15-.34,2.1.37,2.07,2.9,3.1,3.36,3.28,1.66.64,3.14.41,3.53.34,1.87-.34,2.35-1.27,5.63-3.78,3.73-2.86,5.51-3.5,6.47-3.78,1.01-.29,1.79-.39,2.77-.5,2.8-.33,5.23-.19,7.09.07"/>
      <path class="cls-9" d="M260.93,294.61c-3.02-.77-5.21-2.74-5.38-4.87-.13-1.57.85-3.13,1.26-3.78.33-.53.95-1.5,2.1-2.27.93-.63,1.95-.82,3.95-1.18,2.48-.44,3.75-.66,5.13-.25.57.17,1.17.43,2.1.84.48.21,1.26.56,2.27,1.09,1.95,1.02,2.92,1.53,3.7,2.18.44.37,1.74,1.5,2.6,3.36.67,1.44.2,1.42,1.09,3.86.47,1.3.83,1.91,1.01,3.19.1.73.12,1.47.13,1.85.02.83,0,1.7-.03,2.42,0,.23-.02.46-.02.6-.1,2.41-.15,3.61-.67,4.45-.41.66-1.14,1-2.6,1.68-1.3.6-2.54,1.17-4.12,1.09-.89-.05-1.39-.28-2.44-.08-.8.15-.98.37-1.51.34-1.05-.06-1.8-1.02-2.18-1.51-1.01-1.3-1.25-2.67-1.51-4.28-.24-1.46-.25-2.57-.25-3.61,0-1.66-.02-3.27.42-5.21.36-1.62.86-2.7,1.68-4.45,1.33-2.87,1.63-2.59,2.86-5.29.87-1.91,1.06-2.81,2.1-4.28.54-.77,1.01-1.24,1.93-2.18.95-.97,1.29-1.16,1.68-1.26.74-.18,1.61.01,2.18.5.87.75.91,2.01.92,2.52.38,11.2.28,14.41.08,20.84-.02.54-.04,1.59-.67,1.93-1.17.64-2.65-2.14-6.05-3.36-3.56-1.27-5.29.57-7.98-1.18-1.66-1.08-2.35-2.67-2.6-3.28-1.18-2.83-.68-6.55.76-7.06.47-.17.58.17,3.86,1.68,1.2.55,1.66.73,2.27,1.26.84.73,1.24,1.53,1.6,2.27,1.41,2.92,2.11,4.38,2.35,5.63.5,2.64.02,4.79-.34,6.3-1,4.23-2.94,5.95-2.1,7.14.55.79,1.88.7,3.61.59,4.11-.27,6.87-2.41,8.07-3.36,1.38-1.1,3.11-2.48,2.86-3.86-.19-1.02-1.24-.91-1.76-2.18-.87-2.09,1.06-5.05,1.42-5.62,0,0,0,0,0,0,.54-.85,1.03-1.41,1.09-1.51,1.12-1.89,1.32-3.67,1.43-4.7.1-.98.23-2.33-.25-3.95-.24-.81-.42-1.41-.92-1.85-1.21-1.06-3.41-.39-4.37-.08-9.36,2.97-22.89,9.72-25.12,14.62-.16.34-.51,1.15-.34,2.1.37,2.07,2.9,3.1,3.36,3.28,1.66.64,3.14.41,3.53.34,1.87-.34,2.35-1.27,5.63-3.78,3.73-2.86,5.51-3.5,6.47-3.78,1.01-.29,1.79-.39,2.77-.5,2.8-.33,5.23-.19,7.09.07"/>
      <path class="cls-7" d="M291.45,286.28c-3.02-.77-5.21-2.74-5.38-4.87-.13-1.57.85-3.13,1.26-3.78.33-.53.95-1.5,2.1-2.27.93-.63,1.95-.82,3.95-1.18,2.48-.44,3.75-.66,5.13-.25.57.17,1.17.43,2.1.84.48.21,1.26.56,2.27,1.09,1.95,1.02,2.92,1.53,3.7,2.18.44.37,1.74,1.5,2.6,3.36.67,1.44.2,1.42,1.09,3.86.47,1.3.83,1.91,1.01,3.19.1.73.12,1.47.13,1.85.02.83,0,1.7-.03,2.42,0,.23-.02.46-.02.6-.1,2.41-.15,3.61-.67,4.45-.41.66-1.14,1-2.6,1.68-1.3.6-2.54,1.17-4.12,1.09-.89-.05-1.39-.28-2.44-.08-.8.15-.98.37-1.51.34-1.05-.06-1.8-1.02-2.18-1.51-1.01-1.3-1.25-2.67-1.51-4.28-.24-1.46-.25-2.57-.25-3.61,0-1.66-.02-3.27.42-5.21.36-1.62.86-2.7,1.68-4.45,1.33-2.87,1.63-2.59,2.86-5.29.87-1.91,1.06-2.81,2.1-4.28.54-.77,1.01-1.24,1.93-2.18.95-.97,1.29-1.16,1.68-1.26.74-.18,1.61.01,2.18.5.87.75.91,2.01.92,2.52.38,11.2.28,14.41.08,20.84-.02.54-.04,1.59-.67,1.93-1.17.64-2.65-2.14-6.05-3.36-3.56-1.27-5.29.57-7.98-1.18-1.66-1.08-2.35-2.67-2.6-3.28-1.18-2.83-.68-6.55.76-7.06.47-.17.58.17,3.86,1.68,1.2.55,1.66.73,2.27,1.26.84.73,1.24,1.53,1.6,2.27,1.41,2.92,2.11,4.38,2.35,5.63.5,2.64.02,4.79-.34,6.3-1,4.23-2.94,5.95-2.1,7.14.55.79,1.88.7,3.61.59,4.11-.27,6.87-2.41,8.07-3.36,1.38-1.1,3.11-2.48,2.86-3.86-.19-1.02-1.24-.91-1.76-2.18-.87-2.09,1.06-5.05,1.42-5.62,0,0,0,0,0,0,.54-.85,1.03-1.41,1.09-1.51,1.12-1.89,1.32-3.67,1.43-4.7.1-.98.23-2.33-.25-3.95-.24-.81-.42-1.41-.92-1.85-1.21-1.06-3.41-.39-4.37-.08-9.36,2.97-22.89,9.72-25.12,14.62-.16.34-.51,1.15-.34,2.1.37,2.07,2.9,3.1,3.36,3.28,1.66.64,3.14.41,3.53.34,1.87-.34,2.35-1.27,5.63-3.78,3.73-2.86,5.51-3.5,6.47-3.78,1.01-.29,1.79-.39,2.77-.5,2.8-.33,5.23-.19,7.09.07"/>
      <path class="cls-10" d="M329.43,281.73c-2.9,1.14-5.83.82-7.21-.81-1.02-1.2-1.14-3.03-1.19-3.8-.04-.63-.1-1.77.38-3.07.39-1.06,1.1-1.81,2.52-3.26,1.75-1.81,2.66-2.73,4.01-3.2.56-.2,1.2-.33,2.2-.55.51-.11,1.35-.28,2.48-.44,2.18-.31,3.27-.47,4.28-.39.57.05,2.28.2,4.08,1.2,1.38.77,1,1.03,3.15,2.5,1.14.78,1.79,1.07,2.68,2,.51.53.96,1.12,1.19,1.42.5.66.99,1.38,1.39,1.98.13.19.26.39.33.5,1.32,2.01,1.99,3.02,2.06,4.01.06.78-.34,1.48-1.13,2.89-.7,1.25-1.37,2.44-2.7,3.29-.75.48-1.29.59-2.03,1.36-.56.58-.58.87-1.03,1.16-.89.57-2.05.23-2.66.05-1.58-.46-2.58-1.44-3.73-2.59-1.05-1.05-1.7-1.94-2.32-2.78-.98-1.34-1.92-2.64-2.71-4.47-.65-1.53-.87-2.69-1.24-4.59-.6-3.11-.19-3.05-.78-5.96-.41-2.06-.78-2.9-.8-4.7-.01-.95.09-1.6.29-2.9.21-1.34.37-1.7.63-2,.5-.58,1.31-.93,2.07-.87,1.14.09,1.91,1.1,2.22,1.5,6.86,8.86,8.66,11.52,12.25,16.85.3.44.89,1.31.58,1.96-.57,1.2-3.4-.19-6.87.81-3.63,1.05-3.96,3.56-7.16,3.71-1.98.09-3.47-.79-4.03-1.13-2.62-1.61-4.38-4.91-3.51-6.17.28-.41.57-.2,4.12-.9,1.29-.25,1.78-.38,2.58-.3,1.11.11,1.9.52,2.62.91,2.85,1.55,4.28,2.32,5.2,3.19,1.95,1.84,2.82,3.87,3.41,5.31,1.67,4.02,1.1,6.54,2.47,7.02.91.32,1.93-.53,3.27-1.64,3.18-2.63,4.17-5.97,4.58-7.44.48-1.7,1.07-3.83.06-4.81-.75-.71-1.54-.02-2.71-.74-1.92-1.19-2.09-4.72-2.13-5.39,0,0,0,0,0-.01-.06-1,.01-1.74,0-1.87-.2-2.18-1.07-3.75-1.59-4.65-.49-.86-1.18-2.03-2.51-3.06-.66-.51-1.16-.9-1.83-.96-1.6-.15-2.99,1.68-3.59,2.49-5.86,7.89-12.89,21.27-11.83,26.55.07.37.26,1.23.96,1.9,1.51,1.46,4.17.82,4.64.69,1.72-.45,2.78-1.51,3.06-1.79,1.32-1.37,1.17-2.41,2.36-6.36,1.35-4.51,2.42-6.06,3.04-6.85.64-.83,1.23-1.36,1.95-2.03,2.08-1.91,4.13-3.21,5.79-4.09"/>
      <path class="cls-12" d="M334.93,241.94c-3.02-.77-5.21-2.74-5.38-4.87-.13-1.57.85-3.13,1.26-3.78.33-.53.95-1.5,2.1-2.27.93-.63,1.95-.82,3.95-1.18,2.48-.44,3.75-.66,5.13-.25.57.17,1.17.43,2.1.84.48.21,1.26.56,2.27,1.09,1.95,1.02,2.92,1.53,3.7,2.18.44.37,1.74,1.5,2.6,3.36.67,1.44.2,1.42,1.09,3.86.47,1.3.83,1.91,1.01,3.19.1.73.12,1.47.13,1.85.02.83,0,1.7-.03,2.42,0,.23-.02.46-.02.6-.1,2.41-.15,3.61-.67,4.45-.41.66-1.14,1-2.6,1.68-1.3.6-2.54,1.17-4.12,1.09-.89-.05-1.39-.28-2.44-.08-.8.15-.98.37-1.51.34-1.05-.06-1.8-1.02-2.18-1.51-1.01-1.3-1.25-2.67-1.51-4.28-.24-1.46-.25-2.57-.25-3.61,0-1.66-.02-3.27.42-5.21.36-1.62.86-2.7,1.68-4.45,1.33-2.87,1.63-2.59,2.86-5.29.87-1.91,1.06-2.81,2.1-4.28.54-.77,1.01-1.24,1.93-2.18.95-.97,1.29-1.16,1.68-1.26.74-.18,1.61.01,2.18.5.87.75.91,2.01.92,2.52.38,11.2.28,14.41.08,20.84-.02.54-.04,1.59-.67,1.93-1.17.64-2.65-2.14-6.05-3.36-3.56-1.27-5.29.57-7.98-1.18-1.66-1.08-2.35-2.67-2.6-3.28-1.18-2.83-.68-6.55.76-7.06.47-.17.58.17,3.86,1.68,1.2.55,1.66.73,2.27,1.26.84.73,1.24,1.53,1.6,2.27,1.41,2.92,2.11,4.38,2.35,5.63.5,2.64.02,4.79-.34,6.3-1,4.23-2.94,5.95-2.1,7.14.55.79,1.88.7,3.61.59,4.11-.27,6.87-2.41,8.07-3.36,1.38-1.1,3.11-2.48,2.86-3.86-.19-1.02-1.24-.91-1.76-2.18-.87-2.09,1.06-5.05,1.42-5.62,0,0,0,0,0,0,.54-.85,1.03-1.41,1.09-1.51,1.12-1.89,1.32-3.67,1.43-4.7.1-.98.23-2.33-.25-3.95-.24-.81-.42-1.41-.92-1.85-1.21-1.06-3.41-.39-4.37-.08-9.36,2.97-22.89,9.72-25.12,14.62-.16.34-.51,1.15-.34,2.1.37,2.07,2.9,3.1,3.36,3.28,1.66.64,3.14.41,3.53.34,1.87-.34,2.35-1.27,5.63-3.78,3.73-2.86,5.51-3.5,6.47-3.78,1.01-.29,1.79-.39,2.77-.5,2.8-.33,5.23-.19,7.09.07"/>
      <path class="cls-8" d="M318.23,317.03c-3.02-.77-5.21-2.74-5.38-4.87-.13-1.57.85-3.13,1.26-3.78.33-.53.95-1.5,2.1-2.27.93-.63,1.95-.82,3.95-1.18,2.48-.44,3.75-.66,5.13-.25.57.17,1.17.43,2.1.84.48.21,1.26.56,2.27,1.09,1.95,1.02,2.92,1.53,3.7,2.18.44.37,1.74,1.5,2.6,3.36.67,1.44.2,1.42,1.09,3.86.47,1.3.83,1.91,1.01,3.19.1.73.12,1.47.13,1.85.02.83,0,1.7-.03,2.42,0,.23-.02.46-.02.6-.1,2.41-.15,3.61-.67,4.45-.41.66-1.14,1-2.6,1.68-1.3.6-2.54,1.17-4.12,1.09-.89-.05-1.39-.28-2.44-.08-.8.15-.98.37-1.51.34-1.05-.06-1.8-1.02-2.18-1.51-1.01-1.3-1.25-2.67-1.51-4.28-.24-1.46-.25-2.57-.25-3.61,0-1.66-.02-3.27.42-5.21.36-1.62.86-2.7,1.68-4.45,1.33-2.87,1.63-2.59,2.86-5.29.87-1.91,1.06-2.81,2.1-4.28.54-.77,1.01-1.24,1.93-2.18.95-.97,1.29-1.16,1.68-1.26.74-.18,1.61.01,2.18.5.87.75.91,2.01.92,2.52.38,11.2.28,14.41.08,20.84-.02.54-.04,1.59-.67,1.93-1.17.64-2.65-2.14-6.05-3.36-3.56-1.27-5.29.57-7.98-1.18-1.66-1.08-2.35-2.67-2.6-3.28-1.18-2.83-.68-6.55.76-7.06.47-.17.58.17,3.86,1.68,1.2.55,1.66.73,2.27,1.26.84.73,1.24,1.53,1.6,2.27,1.41,2.92,2.11,4.38,2.35,5.63.5,2.64.02,4.79-.34,6.3-1,4.23-2.94,5.95-2.1,7.14.55.79,1.88.7,3.61.59,4.11-.27,6.87-2.41,8.07-3.36,1.38-1.1,3.11-2.48,2.86-3.86-.19-1.02-1.24-.91-1.76-2.18-.87-2.09,1.06-5.05,1.42-5.62,0,0,0,0,0,0,.54-.85,1.03-1.41,1.09-1.51,1.12-1.89,1.32-3.67,1.43-4.7.1-.98.23-2.33-.25-3.95-.24-.81-.42-1.41-.92-1.85-1.21-1.06-3.41-.39-4.37-.08-9.36,2.97-22.89,9.72-25.12,14.62-.16.34-.51,1.15-.34,2.1.37,2.07,2.9,3.1,3.36,3.28,1.66.64,3.14.41,3.53.34,1.87-.34,2.35-1.27,5.63-3.78,3.73-2.86,5.51-3.5,6.47-3.78,1.01-.29,1.79-.39,2.77-.5,2.8-.33,5.23-.19,7.09.07"/>
      <path class="cls-4" d="M339.12,379.6c-3.02-.77-5.21-2.74-5.38-4.87-.13-1.57.85-3.13,1.26-3.78.33-.53.95-1.5,2.1-2.27.93-.63,1.95-.82,3.95-1.18,2.48-.44,3.75-.66,5.13-.25.57.17,1.17.43,2.1.84.48.21,1.26.56,2.27,1.09,1.95,1.02,2.92,1.53,3.7,2.18.44.37,1.74,1.5,2.6,3.36.67,1.44.2,1.42,1.09,3.86.47,1.3.83,1.91,1.01,3.19.1.73.12,1.47.13,1.85.02.83,0,1.7-.03,2.42,0,.23-.02.46-.02.6-.1,2.41-.15,3.61-.67,4.45-.41.66-1.14,1-2.6,1.68-1.3.6-2.54,1.17-4.12,1.09-.89-.05-1.39-.28-2.44-.08-.8.15-.98.37-1.51.34-1.05-.06-1.8-1.02-2.18-1.51-1.01-1.3-1.25-2.67-1.51-4.28-.24-1.46-.25-2.57-.25-3.61,0-1.66-.02-3.27.42-5.21.36-1.62.86-2.7,1.68-4.45,1.33-2.87,1.63-2.59,2.86-5.29.87-1.91,1.06-2.81,2.1-4.28.54-.77,1.01-1.24,1.93-2.18.95-.97,1.29-1.16,1.68-1.26.74-.18,1.61.01,2.18.5.87.75.91,2.01.92,2.52.38,11.2.28,14.41.08,20.84-.02.54-.04,1.59-.67,1.93-1.17.64-2.65-2.14-6.05-3.36-3.56-1.27-5.29.57-7.98-1.18-1.66-1.08-2.35-2.67-2.6-3.28-1.18-2.83-.68-6.55.76-7.06.47-.17.58.17,3.86,1.68,1.2.55,1.66.73,2.27,1.26.84.73,1.24,1.53,1.6,2.27,1.41,2.92,2.11,4.38,2.35,5.63.5,2.64.02,4.79-.34,6.3-1,4.23-2.94,5.95-2.1,7.14.55.79,1.88.7,3.61.59,4.11-.27,6.87-2.41,8.07-3.36,1.38-1.1,3.11-2.48,2.86-3.86-.19-1.02-1.24-.91-1.76-2.18-.87-2.09,1.06-5.05,1.42-5.62,0,0,0,0,0,0,.54-.85,1.03-1.41,1.09-1.51,1.12-1.89,1.32-3.67,1.43-4.7.1-.98.23-2.33-.25-3.95-.24-.81-.42-1.41-.92-1.85-1.21-1.06-3.41-.39-4.37-.08-9.36,2.97-22.89,9.72-25.12,14.62-.16.34-.51,1.15-.34,2.1.37,2.07,2.9,3.1,3.36,3.28,1.66.64,3.14.41,3.53.34,1.87-.34,2.35-1.27,5.63-3.78,3.73-2.86,5.51-3.5,6.47-3.78,1.01-.29,1.79-.39,2.77-.5,2.8-.33,5.23-.19,7.09.07"/>
      <path class="cls-9" d="M289.5,388.19c-3.02-.77-5.21-2.74-5.38-4.87-.13-1.57.85-3.13,1.26-3.78.33-.53.95-1.5,2.1-2.27.93-.63,1.95-.82,3.95-1.18,2.48-.44,3.75-.66,5.13-.25.57.17,1.17.43,2.1.84.48.21,1.26.56,2.27,1.09,1.95,1.02,2.92,1.53,3.7,2.18.44.37,1.74,1.5,2.6,3.36.67,1.44.2,1.42,1.09,3.86.47,1.3.83,1.91,1.01,3.19.1.73.12,1.47.13,1.85.02.83,0,1.7-.03,2.42,0,.23-.02.46-.02.6-.1,2.41-.15,3.61-.67,4.45-.41.66-1.14,1-2.6,1.68-1.3.6-2.54,1.17-4.12,1.09-.89-.05-1.39-.28-2.44-.08-.8.15-.98.37-1.51.34-1.05-.06-1.8-1.02-2.18-1.51-1.01-1.3-1.25-2.67-1.51-4.28-.24-1.46-.25-2.57-.25-3.61,0-1.66-.02-3.27.42-5.21.36-1.62.86-2.7,1.68-4.45,1.33-2.87,1.63-2.59,2.86-5.29.87-1.91,1.06-2.81,2.1-4.28.54-.77,1.01-1.24,1.93-2.18.95-.97,1.29-1.16,1.68-1.26.74-.18,1.61.01,2.18.5.87.75.91,2.01.92,2.52.38,11.2.28,14.41.08,20.84-.02.54-.04,1.59-.67,1.93-1.17.64-2.65-2.14-6.05-3.36-3.56-1.27-5.29.57-7.98-1.18-1.66-1.08-2.35-2.67-2.6-3.28-1.18-2.83-.68-6.55.76-7.06.47-.17.58.17,3.86,1.68,1.2.55,1.66.73,2.27,1.26.84.73,1.24,1.53,1.6,2.27,1.41,2.92,2.11,4.38,2.35,5.63.5,2.64.02,4.79-.34,6.3-1,4.23-2.94,5.95-2.1,7.14.55.79,1.88.7,3.61.59,4.11-.27,6.87-2.41,8.07-3.36,1.38-1.1,3.11-2.48,2.86-3.86-.19-1.02-1.24-.91-1.76-2.18-.87-2.09,1.06-5.05,1.42-5.62,0,0,0,0,0,0,.54-.85,1.03-1.41,1.09-1.51,1.12-1.89,1.32-3.67,1.43-4.7.1-.98.23-2.33-.25-3.95-.24-.81-.42-1.41-.92-1.85-1.21-1.06-3.41-.39-4.37-.08-9.36,2.97-22.89,9.72-25.12,14.62-.16.34-.51,1.15-.34,2.1.37,2.07,2.9,3.1,3.36,3.28,1.66.64,3.14.41,3.53.34,1.87-.34,2.35-1.27,5.63-3.78,3.73-2.86,5.51-3.5,6.47-3.78,1.01-.29,1.79-.39,2.77-.5,2.8-.33,5.23-.19,7.09.07"/>
      <path class="cls-6" d="M231.44,367.43c-3.02-.77-5.21-2.74-5.38-4.87-.13-1.57.85-3.13,1.26-3.78.33-.53.95-1.5,2.1-2.27.93-.63,1.95-.82,3.95-1.18,2.48-.44,3.75-.66,5.13-.25.57.17,1.17.43,2.1.84.48.21,1.26.56,2.27,1.09,1.95,1.02,2.92,1.53,3.7,2.18.44.37,1.74,1.5,2.6,3.36.67,1.44.2,1.42,1.09,3.86.47,1.3.83,1.91,1.01,3.19.1.73.12,1.47.13,1.85.02.83,0,1.7-.03,2.42,0,.23-.02.46-.02.6-.1,2.41-.15,3.61-.67,4.45-.41.66-1.14,1-2.6,1.68-1.3.6-2.54,1.17-4.12,1.09-.89-.05-1.39-.28-2.44-.08-.8.15-.98.37-1.51.34-1.05-.06-1.8-1.02-2.18-1.51-1.01-1.3-1.25-2.67-1.51-4.28-.24-1.46-.25-2.57-.25-3.61,0-1.66-.02-3.27.42-5.21.36-1.62.86-2.7,1.68-4.45,1.33-2.87,1.63-2.59,2.86-5.29.87-1.91,1.06-2.81,2.1-4.28.54-.77,1.01-1.24,1.93-2.18.95-.97,1.29-1.16,1.68-1.26.74-.18,1.61.01,2.18.5.87.75.91,2.01.92,2.52.38,11.2.28,14.41.08,20.84-.02.54-.04,1.59-.67,1.93-1.17.64-2.65-2.14-6.05-3.36-3.56-1.27-5.29.57-7.98-1.18-1.66-1.08-2.35-2.67-2.6-3.28-1.18-2.83-.68-6.55.76-7.06.47-.17.58.17,3.86,1.68,1.2.55,1.66.73,2.27,1.26.84.73,1.24,1.53,1.6,2.27,1.41,2.92,2.11,4.38,2.35,5.63.5,2.64.02,4.79-.34,6.3-1,4.23-2.94,5.95-2.1,7.14.55.79,1.88.7,3.61.59,4.11-.27,6.87-2.41,8.07-3.36,1.38-1.1,3.11-2.48,2.86-3.86-.19-1.02-1.24-.91-1.76-2.18-.87-2.09,1.06-5.05,1.42-5.62,0,0,0,0,0,0,.54-.85,1.03-1.41,1.09-1.51,1.12-1.89,1.32-3.67,1.43-4.7.1-.98.23-2.33-.25-3.95-.24-.81-.42-1.41-.92-1.85-1.21-1.06-3.41-.39-4.37-.08-9.36,2.97-22.89,9.72-25.12,14.62-.16.34-.51,1.15-.34,2.1.37,2.07,2.9,3.1,3.36,3.28,1.66.64,3.14.41,3.53.34,1.87-.34,2.35-1.27,5.63-3.78,3.73-2.86,5.51-3.5,6.47-3.78,1.01-.29,1.79-.39,2.77-.5,2.8-.33,5.23-.19,7.09.07"/>
      <path class="cls-4" d="M254.66,385.4c-3.02-.77-5.21-2.74-5.38-4.87-.13-1.57.85-3.13,1.26-3.78.33-.53.95-1.5,2.1-2.27.93-.63,1.95-.82,3.95-1.18,2.48-.44,3.75-.66,5.13-.25.57.17,1.17.43,2.1.84.48.21,1.26.56,2.27,1.09,1.95,1.02,2.92,1.53,3.7,2.18.44.37,1.74,1.5,2.6,3.36.67,1.44.2,1.42,1.09,3.86.47,1.3.83,1.91,1.01,3.19.1.73.12,1.47.13,1.85.02.83,0,1.7-.03,2.42,0,.23-.02.46-.02.6-.1,2.41-.15,3.61-.67,4.45-.41.66-1.14,1-2.6,1.68-1.3.6-2.54,1.17-4.12,1.09-.89-.05-1.39-.28-2.44-.08-.8.15-.98.37-1.51.34-1.05-.06-1.8-1.02-2.18-1.51-1.01-1.3-1.25-2.67-1.51-4.28-.24-1.46-.25-2.57-.25-3.61,0-1.66-.02-3.27.42-5.21.36-1.62.86-2.7,1.68-4.45,1.33-2.87,1.63-2.59,2.86-5.29.87-1.91,1.06-2.81,2.1-4.28.54-.77,1.01-1.24,1.93-2.18.95-.97,1.29-1.16,1.68-1.26.74-.18,1.61.01,2.18.5.87.75.91,2.01.92,2.52.38,11.2.28,14.41.08,20.84-.02.54-.04,1.59-.67,1.93-1.17.64-2.65-2.14-6.05-3.36-3.56-1.27-5.29.57-7.98-1.18-1.66-1.08-2.35-2.67-2.6-3.28-1.18-2.83-.68-6.55.76-7.06.47-.17.58.17,3.86,1.68,1.2.55,1.66.73,2.27,1.26.84.73,1.24,1.53,1.6,2.27,1.41,2.92,2.11,4.38,2.35,5.63.5,2.64.02,4.79-.34,6.3-1,4.23-2.94,5.95-2.1,7.14.55.79,1.88.7,3.61.59,4.11-.27,6.87-2.41,8.07-3.36,1.38-1.1,3.11-2.48,2.86-3.86-.19-1.02-1.24-.91-1.76-2.18-.87-2.09,1.06-5.05,1.42-5.62,0,0,0,0,0,0,.54-.85,1.03-1.41,1.09-1.51,1.12-1.89,1.32-3.67,1.43-4.7.1-.98.23-2.33-.25-3.95-.24-.81-.42-1.41-.92-1.85-1.21-1.06-3.41-.39-4.37-.08-9.36,2.97-22.89,9.72-25.12,14.62-.16.34-.51,1.15-.34,2.1.37,2.07,2.9,3.1,3.36,3.28,1.66.64,3.14.41,3.53.34,1.87-.34,2.35-1.27,5.63-3.78,3.73-2.86,5.51-3.5,6.47-3.78,1.01-.29,1.79-.39,2.77-.5,2.8-.33,5.23-.19,7.09.07"/>
      <path class="cls-8" d="M273.31,359.15c-3.02-.77-5.21-2.74-5.38-4.87-.13-1.57.85-3.13,1.26-3.78.33-.53.95-1.5,2.1-2.27.93-.63,1.95-.82,3.95-1.18,2.48-.44,3.75-.66,5.13-.25.57.17,1.17.43,2.1.84.48.21,1.26.56,2.27,1.09,1.95,1.02,2.92,1.53,3.7,2.18.44.37,1.74,1.5,2.6,3.36.67,1.44.2,1.42,1.09,3.86.47,1.3.83,1.91,1.01,3.19.1.73.12,1.47.13,1.85.02.83,0,1.7-.03,2.42,0,.23-.02.46-.02.6-.1,2.41-.15,3.61-.67,4.45-.41.66-1.14,1-2.6,1.68-1.3.6-2.54,1.17-4.12,1.09-.89-.05-1.39-.28-2.44-.08-.8.15-.98.37-1.51.34-1.05-.06-1.8-1.02-2.18-1.51-1.01-1.3-1.25-2.67-1.51-4.28-.24-1.46-.25-2.57-.25-3.61,0-1.66-.02-3.27.42-5.21.36-1.62.86-2.7,1.68-4.45,1.33-2.87,1.63-2.59,2.86-5.29.87-1.91,1.06-2.81,2.1-4.28.54-.77,1.01-1.24,1.93-2.18.95-.97,1.29-1.16,1.68-1.26.74-.18,1.61.01,2.18.5.87.75.91,2.01.92,2.52.38,11.2.28,14.41.08,20.84-.02.54-.04,1.59-.67,1.93-1.17.64-2.65-2.14-6.05-3.36-3.56-1.27-5.29.57-7.98-1.18-1.66-1.08-2.35-2.67-2.6-3.28-1.18-2.83-.68-6.55.76-7.06.47-.17.58.17,3.86,1.68,1.2.55,1.66.73,2.27,1.26.84.73,1.24,1.53,1.6,2.27,1.41,2.92,2.11,4.38,2.35,5.63.5,2.64.02,4.79-.34,6.3-1,4.23-2.94,5.95-2.1,7.14.55.79,1.88.7,3.61.59,4.11-.27,6.87-2.41,8.07-3.36,1.38-1.1,3.11-2.48,2.86-3.86-.19-1.02-1.24-.91-1.76-2.18-.87-2.09,1.06-5.05,1.42-5.62,0,0,0,0,0,0,.54-.85,1.03-1.41,1.09-1.51,1.12-1.89,1.32-3.67,1.43-4.7.1-.98.23-2.33-.25-3.95-.24-.81-.42-1.41-.92-1.85-1.21-1.06-3.41-.39-4.37-.08-9.36,2.97-22.89,9.72-25.12,14.62-.16.34-.51,1.15-.34,2.1.37,2.07,2.9,3.1,3.36,3.28,1.66.64,3.14.41,3.53.34,1.87-.34,2.35-1.27,5.63-3.78,3.73-2.86,5.51-3.5,6.47-3.78,1.01-.29,1.79-.39,2.77-.5,2.8-.33,5.23-.19,7.09.07"/>
      <path class="cls-6" d="M303.03,415.53c-3.02-.77-5.21-2.74-5.38-4.87-.13-1.57.85-3.13,1.26-3.78.33-.53.95-1.5,2.1-2.27.93-.63,1.95-.82,3.95-1.18,2.48-.44,3.75-.66,5.13-.25.57.17,1.17.43,2.1.84.48.21,1.26.56,2.27,1.09,1.95,1.02,2.92,1.53,3.7,2.18.44.37,1.74,1.5,2.6,3.36.67,1.44.2,1.42,1.09,3.86.47,1.3.83,1.91,1.01,3.19.1.73.12,1.47.13,1.85.02.83,0,1.7-.03,2.42,0,.23-.02.46-.02.6-.1,2.41-.15,3.61-.67,4.45-.41.66-1.14,1-2.6,1.68-1.3.6-2.54,1.17-4.12,1.09-.89-.05-1.39-.28-2.44-.08-.8.15-.98.37-1.51.34-1.05-.06-1.8-1.02-2.18-1.51-1.01-1.3-1.25-2.67-1.51-4.28-.24-1.46-.25-2.57-.25-3.61,0-1.66-.02-3.27.42-5.21.36-1.62.86-2.7,1.68-4.45,1.33-2.87,1.63-2.59,2.86-5.29.87-1.91,1.06-2.81,2.1-4.28.54-.77,1.01-1.24,1.93-2.18.95-.97,1.29-1.16,1.68-1.26.74-.18,1.61.01,2.18.5.87.75.91,2.01.92,2.52.38,11.2.28,14.41.08,20.84-.02.54-.04,1.59-.67,1.93-1.17.64-2.65-2.14-6.05-3.36-3.56-1.27-5.29.57-7.98-1.18-1.66-1.08-2.35-2.67-2.6-3.28-1.18-2.83-.68-6.55.76-7.06.47-.17.58.17,3.86,1.68,1.2.55,1.66.73,2.27,1.26.84.73,1.24,1.53,1.6,2.27,1.41,2.92,2.11,4.38,2.35,5.63.5,2.64.02,4.79-.34,6.3-1,4.23-2.94,5.95-2.1,7.14.55.79,1.88.7,3.61.59,4.11-.27,6.87-2.41,8.07-3.36,1.38-1.1,3.11-2.48,2.86-3.86-.19-1.02-1.24-.91-1.76-2.18-.87-2.09,1.06-5.05,1.42-5.62,0,0,0,0,0,0,.54-.85,1.03-1.41,1.09-1.51,1.12-1.89,1.32-3.67,1.43-4.7.1-.98.23-2.33-.25-3.95-.24-.81-.42-1.41-.92-1.85-1.21-1.06-3.41-.39-4.37-.08-9.36,2.97-22.89,9.72-25.12,14.62-.16.34-.51,1.15-.34,2.1.37,2.07,2.9,3.1,3.36,3.28,1.66.64,3.14.41,3.53.34,1.87-.34,2.35-1.27,5.63-3.78,3.73-2.86,5.51-3.5,6.47-3.78,1.01-.29,1.79-.39,2.77-.5,2.8-.33,5.23-.19,7.09.07"/>
      <path class="cls-2" d="M344.74,413.2c-3.02-.77-5.21-2.74-5.38-4.87-.13-1.57.85-3.13,1.26-3.78.33-.53.95-1.5,2.1-2.27.93-.63,1.95-.82,3.95-1.18,2.48-.44,3.75-.66,5.13-.25.57.17,1.17.43,2.1.84.48.21,1.26.56,2.27,1.09,1.95,1.02,2.92,1.53,3.7,2.18.44.37,1.74,1.5,2.6,3.36.67,1.44.2,1.42,1.09,3.86.47,1.3.83,1.91,1.01,3.19.1.73.12,1.47.13,1.85.02.83,0,1.7-.03,2.42,0,.23-.02.46-.02.6-.1,2.41-.15,3.61-.67,4.45-.41.66-1.14,1-2.6,1.68-1.3.6-2.54,1.17-4.12,1.09-.89-.05-1.39-.28-2.44-.08-.8.15-.98.37-1.51.34-1.05-.06-1.8-1.02-2.18-1.51-1.01-1.3-1.25-2.67-1.51-4.28-.24-1.46-.25-2.57-.25-3.61,0-1.66-.02-3.27.42-5.21.36-1.62.86-2.7,1.68-4.45,1.33-2.87,1.63-2.59,2.86-5.29.87-1.91,1.06-2.81,2.1-4.28.54-.77,1.01-1.24,1.93-2.18.95-.97,1.29-1.16,1.68-1.26.74-.18,1.61.01,2.18.5.87.75.91,2.01.92,2.52.38,11.2.28,14.41.08,20.84-.02.54-.04,1.59-.67,1.93-1.17.64-2.65-2.14-6.05-3.36-3.56-1.27-5.29.57-7.98-1.18-1.66-1.08-2.35-2.67-2.6-3.28-1.18-2.83-.68-6.55.76-7.06.47-.17.58.17,3.86,1.68,1.2.55,1.66.73,2.27,1.26.84.73,1.24,1.53,1.6,2.27,1.41,2.92,2.11,4.38,2.35,5.63.5,2.64.02,4.79-.34,6.3-1,4.23-2.94,5.95-2.1,7.14.55.79,1.88.7,3.61.59,4.11-.27,6.87-2.41,8.07-3.36,1.38-1.1,3.11-2.48,2.86-3.86-.19-1.02-1.24-.91-1.76-2.18-.87-2.09,1.06-5.05,1.42-5.62,0,0,0,0,0,0,.54-.85,1.03-1.41,1.09-1.51,1.12-1.89,1.32-3.67,1.43-4.7.1-.98.23-2.33-.25-3.95-.24-.81-.42-1.41-.92-1.85-1.21-1.06-3.41-.39-4.37-.08-9.36,2.97-22.89,9.72-25.12,14.62-.16.34-.51,1.15-.34,2.1.37,2.07,2.9,3.1,3.36,3.28,1.66.64,3.14.41,3.53.34,1.87-.34,2.35-1.27,5.63-3.78,3.73-2.86,5.51-3.5,6.47-3.78,1.01-.29,1.79-.39,2.77-.5,2.8-.33,5.23-.19,7.09.07"/>
      <path class="cls-8" d="M266.91,417.97c-3.02-.77-5.21-2.74-5.38-4.87-.13-1.57.85-3.13,1.26-3.78.33-.53.95-1.5,2.1-2.27.93-.63,1.95-.82,3.95-1.18,2.48-.44,3.75-.66,5.13-.25.57.17,1.17.43,2.1.84.48.21,1.26.56,2.27,1.09,1.95,1.02,2.92,1.53,3.7,2.18.44.37,1.74,1.5,2.6,3.36.67,1.44.2,1.42,1.09,3.86.47,1.3.83,1.91,1.01,3.19.1.73.12,1.47.13,1.85.02.83,0,1.7-.03,2.42,0,.23-.02.46-.02.6-.1,2.41-.15,3.61-.67,4.45-.41.66-1.14,1-2.6,1.68-1.3.6-2.54,1.17-4.12,1.09-.89-.05-1.39-.28-2.44-.08-.8.15-.98.37-1.51.34-1.05-.06-1.8-1.02-2.18-1.51-1.01-1.3-1.25-2.67-1.51-4.28-.24-1.46-.25-2.57-.25-3.61,0-1.66-.02-3.27.42-5.21.36-1.62.86-2.7,1.68-4.45,1.33-2.87,1.63-2.59,2.86-5.29.87-1.91,1.06-2.81,2.1-4.28.54-.77,1.01-1.24,1.93-2.18.95-.97,1.29-1.16,1.68-1.26.74-.18,1.61.01,2.18.5.87.75.91,2.01.92,2.52.38,11.2.28,14.41.08,20.84-.02.54-.04,1.59-.67,1.93-1.17.64-2.65-2.14-6.05-3.36-3.56-1.27-5.29.57-7.98-1.18-1.66-1.08-2.35-2.67-2.6-3.28-1.18-2.83-.68-6.55.76-7.06.47-.17.58.17,3.86,1.68,1.2.55,1.66.73,2.27,1.26.84.73,1.24,1.53,1.6,2.27,1.41,2.92,2.11,4.38,2.35,5.63.5,2.64.02,4.79-.34,6.3-1,4.23-2.94,5.95-2.1,7.14.55.79,1.88.7,3.61.59,4.11-.27,6.87-2.41,8.07-3.36,1.38-1.1,3.11-2.48,2.86-3.86-.19-1.02-1.24-.91-1.76-2.18-.87-2.09,1.06-5.05,1.42-5.62,0,0,0,0,0,0,.54-.85,1.03-1.41,1.09-1.51,1.12-1.89,1.32-3.67,1.43-4.7.1-.98.23-2.33-.25-3.95-.24-.81-.42-1.41-.92-1.85-1.21-1.06-3.41-.39-4.37-.08-9.36,2.97-22.89,9.72-25.12,14.62-.16.34-.51,1.15-.34,2.1.37,2.07,2.9,3.1,3.36,3.28,1.66.64,3.14.41,3.53.34,1.87-.34,2.35-1.27,5.63-3.78,3.73-2.86,5.51-3.5,6.47-3.78,1.01-.29,1.79-.39,2.77-.5,2.8-.33,5.23-.19,7.09.07"/>
      <path class="cls-10" d="M235.13,413.2c-3.02-.77-5.21-2.74-5.38-4.87-.13-1.57.85-3.13,1.26-3.78.33-.53.95-1.5,2.1-2.27.93-.63,1.95-.82,3.95-1.18,2.48-.44,3.75-.66,5.13-.25.57.17,1.17.43,2.1.84.48.21,1.26.56,2.27,1.09,1.95,1.02,2.92,1.53,3.7,2.18.44.37,1.74,1.5,2.6,3.36.67,1.44.2,1.42,1.09,3.86.47,1.3.83,1.91,1.01,3.19.1.73.12,1.47.13,1.85.02.83,0,1.7-.03,2.42,0,.23-.02.46-.02.6-.1,2.41-.15,3.61-.67,4.45-.41.66-1.14,1-2.6,1.68-1.3.6-2.54,1.17-4.12,1.09-.89-.05-1.39-.28-2.44-.08-.8.15-.98.37-1.51.34-1.05-.06-1.8-1.02-2.18-1.51-1.01-1.3-1.25-2.67-1.51-4.28-.24-1.46-.25-2.57-.25-3.61,0-1.66-.02-3.27.42-5.21.36-1.62.86-2.7,1.68-4.45,1.33-2.87,1.63-2.59,2.86-5.29.87-1.91,1.06-2.81,2.1-4.28.54-.77,1.01-1.24,1.93-2.18.95-.97,1.29-1.16,1.68-1.26.74-.18,1.61.01,2.18.5.87.75.91,2.01.92,2.52.38,11.2.28,14.41.08,20.84-.02.54-.04,1.59-.67,1.93-1.17.64-2.65-2.14-6.05-3.36-3.56-1.27-5.29.57-7.98-1.18-1.66-1.08-2.35-2.67-2.6-3.28-1.18-2.83-.68-6.55.76-7.06.47-.17.58.17,3.86,1.68,1.2.55,1.66.73,2.27,1.26.84.73,1.24,1.53,1.6,2.27,1.41,2.92,2.11,4.38,2.35,5.63.5,2.64.02,4.79-.34,6.3-1,4.23-2.94,5.95-2.1,7.14.55.79,1.88.7,3.61.59,4.11-.27,6.87-2.41,8.07-3.36,1.38-1.1,3.11-2.48,2.86-3.86-.19-1.02-1.24-.91-1.76-2.18-.87-2.09,1.06-5.05,1.42-5.62,0,0,0,0,0,0,.54-.85,1.03-1.41,1.09-1.51,1.12-1.89,1.32-3.67,1.43-4.7.1-.98.23-2.33-.25-3.95-.24-.81-.42-1.41-.92-1.85-1.21-1.06-3.41-.39-4.37-.08-9.36,2.97-22.89,9.72-25.12,14.62-.16.34-.51,1.15-.34,2.1.37,2.07,2.9,3.1,3.36,3.28,1.66.64,3.14.41,3.53.34,1.87-.34,2.35-1.27,5.63-3.78,3.73-2.86,5.51-3.5,6.47-3.78,1.01-.29,1.79-.39,2.77-.5,2.8-.33,5.23-.19,7.09.07"/>
      <path class="cls-5" d="M307.34,355.17c-3.02-.77-5.21-2.74-5.38-4.87-.13-1.57.85-3.13,1.26-3.78.33-.53.95-1.5,2.1-2.27.93-.63,1.95-.82,3.95-1.18,2.48-.44,3.75-.66,5.13-.25.57.17,1.17.43,2.1.84.48.21,1.26.56,2.27,1.09,1.95,1.02,2.92,1.53,3.7,2.18.44.37,1.74,1.5,2.6,3.36.67,1.44.2,1.42,1.09,3.86.47,1.3.83,1.91,1.01,3.19.1.73.12,1.47.13,1.85.02.83,0,1.7-.03,2.42,0,.23-.02.46-.02.6-.1,2.41-.15,3.61-.67,4.45-.41.66-1.14,1-2.6,1.68-1.3.6-2.54,1.17-4.12,1.09-.89-.05-1.39-.28-2.44-.08-.8.15-.98.37-1.51.34-1.05-.06-1.8-1.02-2.18-1.51-1.01-1.3-1.25-2.67-1.51-4.28-.24-1.46-.25-2.57-.25-3.61,0-1.66-.02-3.27.42-5.21.36-1.62.86-2.7,1.68-4.45,1.33-2.87,1.63-2.59,2.86-5.29.87-1.91,1.06-2.81,2.1-4.28.54-.77,1.01-1.24,1.93-2.18.95-.97,1.29-1.16,1.68-1.26.74-.18,1.61.01,2.18.5.87.75.91,2.01.92,2.52.38,11.2.28,14.41.08,20.84-.02.54-.04,1.59-.67,1.93-1.17.64-2.65-2.14-6.05-3.36-3.56-1.27-5.29.57-7.98-1.18-1.66-1.08-2.35-2.67-2.6-3.28-1.18-2.83-.68-6.55.76-7.06.47-.17.58.17,3.86,1.68,1.2.55,1.66.73,2.27,1.26.84.73,1.24,1.53,1.6,2.27,1.41,2.92,2.11,4.38,2.35,5.63.5,2.64.02,4.79-.34,6.3-1,4.23-2.94,5.95-2.1,7.14.55.79,1.88.7,3.61.59,4.11-.27,6.87-2.41,8.07-3.36,1.38-1.1,3.11-2.48,2.86-3.86-.19-1.02-1.24-.91-1.76-2.18-.87-2.09,1.06-5.05,1.42-5.62,0,0,0,0,0,0,.54-.85,1.03-1.41,1.09-1.51,1.12-1.89,1.32-3.67,1.43-4.7.1-.98.23-2.33-.25-3.95-.24-.81-.42-1.41-.92-1.85-1.21-1.06-3.41-.39-4.37-.08-9.36,2.97-22.89,9.72-25.12,14.62-.16.34-.51,1.15-.34,2.1.37,2.07,2.9,3.1,3.36,3.28,1.66.64,3.14.41,3.53.34,1.87-.34,2.35-1.27,5.63-3.78,3.73-2.86,5.51-3.5,6.47-3.78,1.01-.29,1.79-.39,2.77-.5,2.8-.33,5.23-.19,7.09.07"/>
      <path class="cls-2" d="M343.88,341.18c-3.02-.77-5.21-2.74-5.38-4.87-.13-1.57.85-3.13,1.26-3.78.33-.53.95-1.5,2.1-2.27.93-.63,1.95-.82,3.95-1.18,2.48-.44,3.75-.66,5.13-.25.57.17,1.17.43,2.1.84.48.21,1.26.56,2.27,1.09,1.95,1.02,2.92,1.53,3.7,2.18.44.37,1.74,1.5,2.6,3.36.67,1.44.2,1.42,1.09,3.86.47,1.3.83,1.91,1.01,3.19.1.73.12,1.47.13,1.85.02.83,0,1.7-.03,2.42,0,.23-.02.46-.02.6-.1,2.41-.15,3.61-.67,4.45-.41.66-1.14,1-2.6,1.68-1.3.6-2.54,1.17-4.12,1.09-.89-.05-1.39-.28-2.44-.08-.8.15-.98.37-1.51.34-1.05-.06-1.8-1.02-2.18-1.51-1.01-1.3-1.25-2.67-1.51-4.28-.24-1.46-.25-2.57-.25-3.61,0-1.66-.02-3.27.42-5.21.36-1.62.86-2.7,1.68-4.45,1.33-2.87,1.63-2.59,2.86-5.29.87-1.91,1.06-2.81,2.1-4.28.54-.77,1.01-1.24,1.93-2.18.95-.97,1.29-1.16,1.68-1.26.74-.18,1.61.01,2.18.5.87.75.91,2.01.92,2.52.38,11.2.28,14.41.08,20.84-.02.54-.04,1.59-.67,1.93-1.17.64-2.65-2.14-6.05-3.36-3.56-1.27-5.29.57-7.98-1.18-1.66-1.08-2.35-2.67-2.6-3.28-1.18-2.83-.68-6.55.76-7.06.47-.17.58.17,3.86,1.68,1.2.55,1.66.73,2.27,1.26.84.73,1.24,1.53,1.6,2.27,1.41,2.92,2.11,4.38,2.35,5.63.5,2.64.02,4.79-.34,6.3-1,4.23-2.94,5.95-2.1,7.14.55.79,1.88.7,3.61.59,4.11-.27,6.87-2.41,8.07-3.36,1.38-1.1,3.11-2.48,2.86-3.86-.19-1.02-1.24-.91-1.76-2.18-.87-2.09,1.06-5.05,1.42-5.62,0,0,0,0,0,0,.54-.85,1.03-1.41,1.09-1.51,1.12-1.89,1.32-3.67,1.43-4.7.1-.98.23-2.33-.25-3.95-.24-.81-.42-1.41-.92-1.85-1.21-1.06-3.41-.39-4.37-.08-9.36,2.97-22.89,9.72-25.12,14.62-.16.34-.51,1.15-.34,2.1.37,2.07,2.9,3.1,3.36,3.28,1.66.64,3.14.41,3.53.34,1.87-.34,2.35-1.27,5.63-3.78,3.73-2.86,5.51-3.5,6.47-3.78,1.01-.29,1.79-.39,2.77-.5,2.8-.33,5.23-.19,7.09.07"/>
      <path class="cls-12" d="M251.02,337.2c-3.02-.77-5.21-2.74-5.38-4.87-.13-1.57.85-3.13,1.26-3.78.33-.53.95-1.5,2.1-2.27.93-.63,1.95-.82,3.95-1.18,2.48-.44,3.75-.66,5.13-.25.57.17,1.17.43,2.1.84.48.21,1.26.56,2.27,1.09,1.95,1.02,2.92,1.53,3.7,2.18.44.37,1.74,1.5,2.6,3.36.67,1.44.2,1.42,1.09,3.86.47,1.3.83,1.91,1.01,3.19.1.73.12,1.47.13,1.85.02.83,0,1.7-.03,2.42,0,.23-.02.46-.02.6-.1,2.41-.15,3.61-.67,4.45-.41.66-1.14,1-2.6,1.68-1.3.6-2.54,1.17-4.12,1.09-.89-.05-1.39-.28-2.44-.08-.8.15-.98.37-1.51.34-1.05-.06-1.8-1.02-2.18-1.51-1.01-1.3-1.25-2.67-1.51-4.28-.24-1.46-.25-2.57-.25-3.61,0-1.66-.02-3.27.42-5.21.36-1.62.86-2.7,1.68-4.45,1.33-2.87,1.63-2.59,2.86-5.29.87-1.91,1.06-2.81,2.1-4.28.54-.77,1.01-1.24,1.93-2.18.95-.97,1.29-1.16,1.68-1.26.74-.18,1.61.01,2.18.5.87.75.91,2.01.92,2.52.38,11.2.28,14.41.08,20.84-.02.54-.04,1.59-.67,1.93-1.17.64-2.65-2.14-6.05-3.36-3.56-1.27-5.29.57-7.98-1.18-1.66-1.08-2.35-2.67-2.6-3.28-1.18-2.83-.68-6.55.76-7.06.47-.17.58.17,3.86,1.68,1.2.55,1.66.73,2.27,1.26.84.73,1.24,1.53,1.6,2.27,1.41,2.92,2.11,4.38,2.35,5.63.5,2.64.02,4.79-.34,6.3-1,4.23-2.94,5.95-2.1,7.14.55.79,1.88.7,3.61.59,4.11-.27,6.87-2.41,8.07-3.36,1.38-1.1,3.11-2.48,2.86-3.86-.19-1.02-1.24-.91-1.76-2.18-.87-2.09,1.06-5.05,1.42-5.62,0,0,0,0,0,0,.54-.85,1.03-1.41,1.09-1.51,1.12-1.89,1.32-3.67,1.43-4.7.1-.98.23-2.33-.25-3.95-.24-.81-.42-1.41-.92-1.85-1.21-1.06-3.41-.39-4.37-.08-9.36,2.97-22.89,9.72-25.12,14.62-.16.34-.51,1.15-.34,2.1.37,2.07,2.9,3.1,3.36,3.28,1.66.64,3.14.41,3.53.34,1.87-.34,2.35-1.27,5.63-3.78,3.73-2.86,5.51-3.5,6.47-3.78,1.01-.29,1.79-.39,2.77-.5,2.8-.33,5.23-.19,7.09.07"/>
      <path class="cls-6" d="M350.82,299.06c-3.02-.77-5.21-2.74-5.38-4.87-.13-1.57.85-3.13,1.26-3.78.33-.53.95-1.5,2.1-2.27.93-.63,1.95-.82,3.95-1.18,2.48-.44,3.75-.66,5.13-.25.57.17,1.17.43,2.1.84.48.21,1.26.56,2.27,1.09,1.95,1.02,2.92,1.53,3.7,2.18.44.37,1.74,1.5,2.6,3.36.67,1.44.2,1.42,1.09,3.86.47,1.3.83,1.91,1.01,3.19.1.73.12,1.47.13,1.85.02.83,0,1.7-.03,2.42,0,.23-.02.46-.02.6-.1,2.41-.15,3.61-.67,4.45-.41.66-1.14,1-2.6,1.68-1.3.6-2.54,1.17-4.12,1.09-.89-.05-1.39-.28-2.44-.08-.8.15-.98.37-1.51.34-1.05-.06-1.8-1.02-2.18-1.51-1.01-1.3-1.25-2.67-1.51-4.28-.24-1.46-.25-2.57-.25-3.61,0-1.66-.02-3.27.42-5.21.36-1.62.86-2.7,1.68-4.45,1.33-2.87,1.63-2.59,2.86-5.29.87-1.91,1.06-2.81,2.1-4.28.54-.77,1.01-1.24,1.93-2.18.95-.97,1.29-1.16,1.68-1.26.74-.18,1.61.01,2.18.5.87.75.91,2.01.92,2.52.38,11.2.28,14.41.08,20.84-.02.54-.04,1.59-.67,1.93-1.17.64-2.65-2.14-6.05-3.36-3.56-1.27-5.29.57-7.98-1.18-1.66-1.08-2.35-2.67-2.6-3.28-1.18-2.83-.68-6.55.76-7.06.47-.17.58.17,3.86,1.68,1.2.55,1.66.73,2.27,1.26.84.73,1.24,1.53,1.6,2.27,1.41,2.92,2.11,4.38,2.35,5.63.5,2.64.02,4.79-.34,6.3-1,4.23-2.94,5.95-2.1,7.14.55.79,1.88.7,3.61.59,4.11-.27,6.87-2.41,8.07-3.36,1.38-1.1,3.11-2.48,2.86-3.86-.19-1.02-1.24-.91-1.76-2.18-.87-2.09,1.06-5.05,1.42-5.62,0,0,0,0,0,0,.54-.85,1.03-1.41,1.09-1.51,1.12-1.89,1.32-3.67,1.43-4.7.1-.98.23-2.33-.25-3.95-.24-.81-.42-1.41-.92-1.85-1.21-1.06-3.41-.39-4.37-.08-9.36,2.97-22.89,9.72-25.12,14.62-.16.34-.51,1.15-.34,2.1.37,2.07,2.9,3.1,3.36,3.28,1.66.64,3.14.41,3.53.34,1.87-.34,2.35-1.27,5.63-3.78,3.73-2.86,5.51-3.5,6.47-3.78,1.01-.29,1.79-.39,2.77-.5,2.8-.33,5.23-.19,7.09.07"/>
      <path class="cls-8" d="M228.56,312.57c-3.02-.77-5.21-2.74-5.38-4.87-.13-1.57.85-3.13,1.26-3.78.33-.53.95-1.5,2.1-2.27.93-.63,1.95-.82,3.95-1.18,2.48-.44,3.75-.66,5.13-.25.57.17,1.17.43,2.1.84.48.21,1.26.56,2.27,1.09,1.95,1.02,2.92,1.53,3.7,2.18.44.37,1.74,1.5,2.6,3.36.67,1.44.2,1.42,1.09,3.86.47,1.3.83,1.91,1.01,3.19.1.73.12,1.47.13,1.85.02.83,0,1.7-.03,2.42,0,.23-.02.46-.02.6-.1,2.41-.15,3.61-.67,4.45-.41.66-1.14,1-2.6,1.68-1.3.6-2.54,1.17-4.12,1.09-.89-.05-1.39-.28-2.44-.08-.8.15-.98.37-1.51.34-1.05-.06-1.8-1.02-2.18-1.51-1.01-1.3-1.25-2.67-1.51-4.28-.24-1.46-.25-2.57-.25-3.61,0-1.66-.02-3.27.42-5.21.36-1.62.86-2.7,1.68-4.45,1.33-2.87,1.63-2.59,2.86-5.29.87-1.91,1.06-2.81,2.1-4.28.54-.77,1.01-1.24,1.93-2.18.95-.97,1.29-1.16,1.68-1.26.74-.18,1.61.01,2.18.5.87.75.91,2.01.92,2.52.38,11.2.28,14.41.08,20.84-.02.54-.04,1.59-.67,1.93-1.17.64-2.65-2.14-6.05-3.36-3.56-1.27-5.29.57-7.98-1.18-1.66-1.08-2.35-2.67-2.6-3.28-1.18-2.83-.68-6.55.76-7.06.47-.17.58.17,3.86,1.68,1.2.55,1.66.73,2.27,1.26.84.73,1.24,1.53,1.6,2.27,1.41,2.92,2.11,4.38,2.35,5.63.5,2.64.02,4.79-.34,6.3-1,4.23-2.94,5.95-2.1,7.14.55.79,1.88.7,3.61.59,4.11-.27,6.87-2.41,8.07-3.36,1.38-1.1,3.11-2.48,2.86-3.86-.19-1.02-1.24-.91-1.76-2.18-.87-2.09,1.06-5.05,1.42-5.62,0,0,0,0,0,0,.54-.85,1.03-1.41,1.09-1.51,1.12-1.89,1.32-3.67,1.43-4.7.1-.98.23-2.33-.25-3.95-.24-.81-.42-1.41-.92-1.85-1.21-1.06-3.41-.39-4.37-.08-9.36,2.97-22.89,9.72-25.12,14.62-.16.34-.51,1.15-.34,2.1.37,2.07,2.9,3.1,3.36,3.28,1.66.64,3.14.41,3.53.34,1.87-.34,2.35-1.27,5.63-3.78,3.73-2.86,5.51-3.5,6.47-3.78,1.01-.29,1.79-.39,2.77-.5,2.8-.33,5.23-.19,7.09.07"/>
      <path class="cls-1" d="M229.83,275.29c-3.02-.77-5.21-2.74-5.38-4.87-.13-1.57.85-3.13,1.26-3.78.33-.53.95-1.5,2.1-2.27.93-.63,1.95-.82,3.95-1.18,2.48-.44,3.75-.66,5.13-.25.57.17,1.17.43,2.1.84.48.21,1.26.56,2.27,1.09,1.95,1.02,2.92,1.53,3.7,2.18.44.37,1.74,1.5,2.6,3.36.67,1.44.2,1.42,1.09,3.86.47,1.3.83,1.91,1.01,3.19.1.73.12,1.47.13,1.85.02.83,0,1.7-.03,2.42,0,.23-.02.46-.02.6-.1,2.41-.15,3.61-.67,4.45-.41.66-1.14,1-2.6,1.68-1.3.6-2.54,1.17-4.12,1.09-.89-.05-1.39-.28-2.44-.08-.8.15-.98.37-1.51.34-1.05-.06-1.8-1.02-2.18-1.51-1.01-1.3-1.25-2.67-1.51-4.28-.24-1.46-.25-2.57-.25-3.61,0-1.66-.02-3.27.42-5.21.36-1.62.86-2.7,1.68-4.45,1.33-2.87,1.63-2.59,2.86-5.29.87-1.91,1.06-2.81,2.1-4.28.54-.77,1.01-1.24,1.93-2.18.95-.97,1.29-1.16,1.68-1.26.74-.18,1.61.01,2.18.5.87.75.91,2.01.92,2.52.38,11.2.28,14.41.08,20.84-.02.54-.04,1.59-.67,1.93-1.17.64-2.65-2.14-6.05-3.36-3.56-1.27-5.29.57-7.98-1.18-1.66-1.08-2.35-2.67-2.6-3.28-1.18-2.83-.68-6.55.76-7.06.47-.17.58.17,3.86,1.68,1.2.55,1.66.73,2.27,1.26.84.73,1.24,1.53,1.6,2.27,1.41,2.92,2.11,4.38,2.35,5.63.5,2.64.02,4.79-.34,6.3-1,4.23-2.94,5.95-2.1,7.14.55.79,1.88.7,3.61.59,4.11-.27,6.87-2.41,8.07-3.36,1.38-1.1,3.11-2.48,2.86-3.86-.19-1.02-1.24-.91-1.76-2.18-.87-2.09,1.06-5.05,1.42-5.62,0,0,0,0,0,0,.54-.85,1.03-1.41,1.09-1.51,1.12-1.89,1.32-3.67,1.43-4.7.1-.98.23-2.33-.25-3.95-.24-.81-.42-1.41-.92-1.85-1.21-1.06-3.41-.39-4.37-.08-9.36,2.97-22.89,9.72-25.12,14.62-.16.34-.51,1.15-.34,2.1.37,2.07,2.9,3.1,3.36,3.28,1.66.64,3.14.41,3.53.34,1.87-.34,2.35-1.27,5.63-3.78,3.73-2.86,5.51-3.5,6.47-3.78,1.01-.29,1.79-.39,2.77-.5,2.8-.33,5.23-.19,7.09.07"/>
      <path class="cls-11" d="M282.8,326.46c-3.02-.77-5.21-2.74-5.38-4.87-.13-1.57.85-3.13,1.26-3.78.33-.53.95-1.5,2.1-2.27.93-.63,1.95-.82,3.95-1.18,2.48-.44,3.75-.66,5.13-.25.57.17,1.17.43,2.1.84.48.21,1.26.56,2.27,1.09,1.95,1.02,2.92,1.53,3.7,2.18.44.37,1.74,1.5,2.6,3.36.67,1.44.2,1.42,1.09,3.86.47,1.3.83,1.91,1.01,3.19.1.73.12,1.47.13,1.85.02.83,0,1.7-.03,2.42,0,.23-.02.46-.02.6-.1,2.41-.15,3.61-.67,4.45-.41.66-1.14,1-2.6,1.68-1.3.6-2.54,1.17-4.12,1.09-.89-.05-1.39-.28-2.44-.08-.8.15-.98.37-1.51.34-1.05-.06-1.8-1.02-2.18-1.51-1.01-1.3-1.25-2.67-1.51-4.28-.24-1.46-.25-2.57-.25-3.61,0-1.66-.02-3.27.42-5.21.36-1.62.86-2.7,1.68-4.45,1.33-2.87,1.63-2.59,2.86-5.29.87-1.91,1.06-2.81,2.1-4.28.54-.77,1.01-1.24,1.93-2.18.95-.97,1.29-1.16,1.68-1.26.74-.18,1.61.01,2.18.5.87.75.91,2.01.92,2.52.38,11.2.28,14.41.08,20.84-.02.54-.04,1.59-.67,1.93-1.17.64-2.65-2.14-6.05-3.36-3.56-1.27-5.29.57-7.98-1.18-1.66-1.08-2.35-2.67-2.6-3.28-1.18-2.83-.68-6.55.76-7.06.47-.17.58.17,3.86,1.68,1.2.55,1.66.73,2.27,1.26.84.73,1.24,1.53,1.6,2.27,1.41,2.92,2.11,4.38,2.35,5.63.5,2.64.02,4.79-.34,6.3-1,4.23-2.94,5.95-2.1,7.14.55.79,1.88.7,3.61.59,4.11-.27,6.87-2.41,8.07-3.36,1.38-1.1,3.11-2.48,2.86-3.86-.19-1.02-1.24-.91-1.76-2.18-.87-2.09,1.06-5.05,1.42-5.62,0,0,0,0,0,0,.54-.85,1.03-1.41,1.09-1.51,1.12-1.89,1.32-3.67,1.43-4.7.1-.98.23-2.33-.25-3.95-.24-.81-.42-1.41-.92-1.85-1.21-1.06-3.41-.39-4.37-.08-9.36,2.97-22.89,9.72-25.12,14.62-.16.34-.51,1.15-.34,2.1.37,2.07,2.9,3.1,3.36,3.28,1.66.64,3.14.41,3.53.34,1.87-.34,2.35-1.27,5.63-3.78,3.73-2.86,5.51-3.5,6.47-3.78,1.01-.29,1.79-.39,2.77-.5,2.8-.33,5.23-.19,7.09.07"/>
      <g>
        <path d="M250.89,160.14v-.5h4.97v.5l-2.35.18h-.35l-2.27-.18ZM256.86,172.11c-.86,0-1.62-.16-2.27-.49s-1.16-.85-1.53-1.57c-.36-.72-.55-1.67-.55-2.84v-4.77c0-.95-.01-1.88-.03-2.81h1.54c-.01.93-.02,1.86-.03,2.8,0,.94,0,1.89,0,2.85v1.68c0,1.03.13,1.86.39,2.48.26.63.63,1.08,1.11,1.35.48.27,1.05.41,1.69.41,1.14,0,1.99-.35,2.54-1.05s.82-1.85.81-3.45l-.02-7.08h.67l-.03,7.42c0,1.71-.37,2.98-1.1,3.82-.73.83-1.8,1.25-3.2,1.25ZM258.49,160.14v-.5h4.33v.5l-1.83.18h-.35l-2.15-.18Z"/>
        <path d="M265.24,171.85c.01-.27.02-.63.02-1.09,0-.46.01-.94.02-1.43,0-.5,0-.94,0-1.32v-1.01c0-.58,0-1.1,0-1.54,0-.45-.02-.88-.04-1.29l-1.48-.07v-.44l2.58-.67.22.13.1,1.96v2.92c0,.38,0,.82,0,1.32,0,.5.01.98.02,1.43,0,.46.01.82.03,1.09h-1.48ZM263.86,171.85v-.47l1.81-.18h.55l1.75.18v.47h-4.11ZM270.94,171.85c.01-.27.02-.63.02-1.08,0-.45.01-.93.02-1.43,0-.5,0-.94,0-1.33v-1.93c0-.83-.14-1.41-.41-1.74-.27-.33-.65-.49-1.13-.49-.38,0-.83.12-1.36.37s-1.1.71-1.71,1.39l-.13-.57h.17c.6-.75,1.21-1.29,1.81-1.61s1.2-.49,1.8-.49c.73,0,1.3.24,1.71.73.41.49.62,1.3.62,2.44v1.9c0,.39,0,.84,0,1.33,0,.5.01.97.02,1.43,0,.45.01.81.03,1.08h-1.46ZM269.57,171.85v-.47l1.8-.18h.55l1.76.18v.47h-4.11Z"/>
        <path d="M276.36,171.85c.01-.27.02-.63.03-1.09s.02-.94.03-1.43c0-.5,0-.94,0-1.32v-1.01c0-.57,0-1.08-.02-1.54-.01-.46-.03-.89-.05-1.31l-1.49-.07v-.44l2.77-.65.2.13-.05,2.35v2.53c0,.38,0,.82,0,1.32,0,.5.01.98.03,1.43.01.46.02.82.03,1.09h-1.49ZM274.97,171.85v-.47l1.85-.18h.52l1.78.18v.47h-4.14ZM276.98,160.86c-.27,0-.5-.09-.69-.26-.19-.17-.29-.4-.29-.68s.09-.51.29-.69c.19-.18.42-.27.69-.27s.48.09.68.27c.2.18.29.41.29.69s-.1.51-.29.68-.42.26-.68.26Z"/>
        <path d="M284.8,172.1c-.74,0-1.42-.17-2.06-.52s-1.14-.86-1.54-1.54-.59-1.52-.59-2.52.2-1.85.6-2.53c.4-.68.92-1.19,1.56-1.54.64-.35,1.31-.52,2.01-.52s1.41.17,2.05.51c.64.34,1.15.85,1.55,1.54.4.68.6,1.53.6,2.53s-.2,1.85-.59,2.53c-.39.68-.9,1.19-1.53,1.54-.63.34-1.32.51-2.07.51ZM284.8,171.58c.84,0,1.5-.35,1.97-1.04.48-.69.71-1.69.71-3s-.24-2.3-.71-3c-.48-.71-1.13-1.06-1.97-1.06s-1.48.35-1.96,1.06c-.48.7-.72,1.71-.72,3s.24,2.31.72,3,1.14,1.04,1.96,1.04Z"/>
        <path d="M291.9,171.85c.01-.27.02-.63.03-1.09s.01-.94.02-1.43,0-.94,0-1.32v-1.01c0-.58,0-1.1,0-1.54,0-.45-.02-.88-.04-1.29l-1.48-.07v-.44l2.58-.67.22.13.1,1.96v2.92c0,.38,0,.82,0,1.32s.01.98.02,1.43c0,.46.01.82.02,1.09h-1.48ZM290.52,171.85v-.47l1.81-.18h.55l1.75.18v.47h-4.11ZM297.6,171.85c.01-.27.02-.63.03-1.08,0-.45.01-.93.02-1.43,0-.5,0-.94,0-1.33v-1.93c0-.83-.14-1.41-.41-1.74-.27-.33-.65-.49-1.13-.49-.38,0-.83.12-1.36.37s-1.1.71-1.71,1.39l-.13-.57h.17c.6-.75,1.21-1.29,1.81-1.61.6-.32,1.2-.49,1.79-.49.73,0,1.3.24,1.71.73.41.49.62,1.3.62,2.44v1.9c0,.39,0,.84,0,1.33,0,.5.01.97.02,1.43,0,.45.01.81.02,1.08h-1.46ZM296.23,171.85v-.47l1.79-.18h.55l1.76.18v.47h-4.11Z"/>
        <path d="M306.09,160.14v-.5h2.5v.69h-.18l-2.31-.18ZM306.09,171.85v-.5l2.31-.2h.18v.7h-2.5ZM307.8,171.85c.02-.94.03-1.88.03-2.84v-6.58c0-.94-.01-1.87-.03-2.8h1.56c-.02.93-.04,1.86-.04,2.8,0,.94,0,1.91,0,2.9v.32c0,1.19,0,2.28,0,3.28,0,1,.02,1.97.04,2.91h-1.56ZM308.59,171.85v-.55h2.25c1.06,0,1.89-.23,2.47-.7.59-.47.88-1.15.88-2.05s-.29-1.61-.88-2.09c-.59-.48-1.52-.71-2.79-.71h-1.93v-.52h1.76c1.08,0,1.9-.23,2.44-.7.54-.46.81-1.12.81-1.97,0-.75-.23-1.33-.69-1.75-.46-.41-1.22-.62-2.3-.62h-2.03v-.55h2.45c.93,0,1.69.12,2.27.36.59.24,1.02.58,1.31,1.02.29.44.43.95.43,1.53,0,.47-.13.92-.38,1.34-.25.43-.65.78-1.21,1.07s-1.28.48-2.19.57l.08-.15c1.03.03,1.86.19,2.5.48s1.1.66,1.4,1.12c.3.46.44.98.44,1.56,0,.44-.09.85-.26,1.25-.17.4-.45.75-.82,1.07-.38.31-.86.56-1.47.74-.6.18-1.34.27-2.2.27h-2.37Z"/>
        <path d="M321.44,172.1c-.74,0-1.42-.17-2.06-.52s-1.14-.86-1.54-1.54-.59-1.52-.59-2.52.2-1.85.6-2.53c.4-.68.92-1.19,1.56-1.54.64-.35,1.31-.52,2.01-.52s1.41.17,2.05.51c.64.34,1.15.85,1.55,1.54.4.68.6,1.53.6,2.53s-.2,1.85-.59,2.53c-.39.68-.9,1.19-1.54,1.54-.63.34-1.32.51-2.07.51ZM321.44,171.58c.84,0,1.5-.35,1.97-1.04s.71-1.69.71-3-.24-2.3-.71-3c-.48-.71-1.13-1.06-1.97-1.06s-1.48.35-1.96,1.06c-.48.7-.72,1.71-.72,3s.24,2.31.72,3c.48.69,1.14,1.04,1.96,1.04Z"/>
        <path d="M330.8,172.1c-.79,0-1.41-.25-1.85-.75-.44-.5-.65-1.37-.64-2.63l.05-5,.37.29-1.76-.23v-.44l2.63-.27.17.2-.07,2.2v3.27c0,.9.14,1.52.43,1.88.29.36.7.54,1.25.54s1.03-.15,1.51-.45c.48-.3.92-.72,1.33-1.24l.39.65h-.44c-.44.58-.93,1.06-1.49,1.43-.56.37-1.19.55-1.88.55ZM334.08,172l-.05-2.06v-.03l.02-5.96-1.36-.15v-.44l2.6-.29.17.2-.07,2.2v5.79l1.28.13v.45l-2.58.15Z"/>
        <path d="M339.46,171.85c.01-.27.02-.63.03-1.09s.01-.94.02-1.43,0-.94,0-1.32v-1.01c0-.58,0-1.1,0-1.54,0-.45-.02-.88-.04-1.29l-1.48-.07v-.44l2.58-.67.22.13.1,1.96v2.92c0,.38,0,.82,0,1.32s.01.98.02,1.43c0,.46.01.82.02,1.09h-1.48ZM338.09,171.85v-.47l1.81-.18h.55l1.75.18v.47h-4.11ZM345.17,171.85c.01-.27.02-.63.03-1.08,0-.45.01-.93.02-1.43,0-.5,0-.94,0-1.33v-1.93c0-.83-.14-1.41-.41-1.74-.27-.33-.65-.49-1.13-.49-.38,0-.83.12-1.36.37s-1.1.71-1.71,1.39l-.13-.57h.17c.6-.75,1.21-1.29,1.81-1.61.6-.32,1.2-.49,1.79-.49.73,0,1.3.24,1.71.73.41.49.62,1.3.62,2.44v1.9c0,.39,0,.84,0,1.33,0,.5.01.97.02,1.43,0,.45.01.81.02,1.08h-1.46ZM343.79,171.85v-.47l1.79-.18h.55l1.76.18v.47h-4.11Z"/>
        <path d="M352.95,172.1c-.7,0-1.33-.19-1.89-.57-.55-.38-.99-.91-1.31-1.58-.32-.67-.48-1.45-.48-2.33,0-.96.17-1.79.52-2.49.35-.7.82-1.24,1.41-1.62s1.25-.57,1.98-.57c.49,0,.97.12,1.43.36.46.24.9.64,1.3,1.2h.15l-.2.45c-.4-.44-.79-.75-1.15-.95-.36-.2-.75-.29-1.17-.29-.51,0-.98.13-1.41.39-.43.26-.76.68-1.02,1.25-.25.57-.38,1.31-.38,2.23,0,.85.12,1.55.35,2.1.24.55.56.95.96,1.22s.86.39,1.37.39c.46,0,.88-.1,1.26-.29.38-.2.76-.53,1.14-1l.22.47h-.17c-.37.55-.81.96-1.31,1.23-.5.27-1.05.4-1.63.4ZM355.72,172.01l-.07-1.66v-5.74l.03-.15v-5.08l-1.53-.08v-.45l2.67-.5.23.15-.05,2.55v10.23l1.58.1v.47l-2.87.17Z"/>
      </g>
    </g>
  </g>
</svg>