<?xml version="1.0" encoding="UTF-8"?>
<svg xmlns="http://www.w3.org/2000/svg" version="1.1" viewBox="0 0 600 600">
  <defs>
    <style>
      .cls-1 {
        fill: #231815;
      }

      .cls-2, .cls-3 {
        fill: #e60012;
      }

      .cls-4, .cls-5 {
        stroke: #1d2088;
      }

      .cls-4, .cls-5, .cls-3 {
        stroke-miterlimit: 10;
        stroke-width: 2px;
      }

      .cls-4, .cls-6 {
        fill: #1d2088;
      }

      .cls-5 {
        fill: none;
      }

      .cls-3 {
        stroke: #e60012;
      }

      .cls-7 {
        fill: #9fa0a0;
      }
    </style>
  </defs>
  <!-- Generator: Adobe Illustrator 28.7.1, SVG Export Plug-In . SVG Version: 1.2.0 Build 142)  -->
  <g>
    <g id="_레이어_1" data-name="레이어_1">
      <path class="cls-1" d="M131.56,319.1c-.05.26-.15.44-.3.54-.15.09-.32.14-.49.14s-.32-.05-.43-.14c-.11-.09-.17-.22-.2-.37-.03-.13-.01-.25.04-.38s.15-.21.28-.26c.06-.11.07-.23.02-.36s-.21-.19-.49-.19c-.14,0-.31.07-.51.2-.2.13-.42.34-.64.62-.23.28-.45.63-.68,1.04-.23.42-.44.91-.62,1.48-.19.57-.34,1.09-.44,1.56-.11.47-.15.88-.14,1.22s.09.61.24.8c.15.19.37.28.67.28.28,0,.54-.07.79-.2s.49-.3.7-.49c.21-.2.4-.4.56-.6s.29-.39.39-.54l.42.34c-.1.19-.25.41-.44.67-.2.26-.42.51-.68.75-.26.24-.53.45-.81.61s-.56.25-.84.25c-.57,0-1.01-.16-1.33-.49-.32-.33-.48-.77-.48-1.32-.1.2-.25.41-.44.62-.2.21-.42.41-.67.59-.25.18-.53.32-.82.43s-.6.16-.9.16c-.24,0-.45-.04-.63-.12s-.34-.19-.47-.31c-.13-.13-.23-.27-.3-.44-.07-.16-.1-.33-.1-.49,0-.72.26-1.08.78-1.08.25,0,.45.07.59.21s.21.29.21.45c0,.18-.04.34-.11.48s-.19.23-.34.26c-.04.19.03.31.22.36.18.05.4.04.66-.04.26-.08.52-.21.79-.41.27-.2.49-.44.65-.75.16-.3.33-.69.5-1.17.17-.48.32-.96.46-1.45.14-.48.26-.93.36-1.32.1-.4.16-.67.19-.82.01-.15,0-.31-.07-.46-.06-.16-.14-.3-.24-.43-.1-.13-.22-.24-.36-.33s-.28-.13-.42-.13c-.2,0-.4.06-.6.17-.2.11-.38.25-.55.41s-.32.32-.46.48c-.14.16-.25.29-.34.38l-.32-.4c.14-.13.29-.29.45-.48.16-.2.34-.38.54-.56.2-.18.41-.33.63-.45.23-.12.48-.18.76-.18s.5.07.72.2c.21.13.4.3.55.5.15.2.27.42.34.65.08.23.11.45.09.65.13-.14.28-.32.46-.55.18-.23.39-.45.62-.66.23-.21.49-.4.77-.56.28-.16.57-.24.89-.24s.55.06.74.18c.19.12.33.27.44.44.1.17.16.36.19.55.03.2.03.36,0,.5Z"/>
      <path class="cls-1" d="M138.66,330.31h-4.69v-.34c.49,0,.85-.03,1.1-.08.25-.06.42-.13.53-.21.11-.09.17-.18.18-.28,0-.1.01-.19.01-.27v-6.08c0-.11-.02-.21-.06-.28-.04-.07-.12-.13-.24-.18-.13-.04-.31-.07-.55-.08-.24-.01-.57-.02-.98-.02v-.27c.35-.04.69-.11,1.03-.2.33-.09.64-.18.9-.28.31-.11.6-.24.88-.38v7.79c0,.07,0,.15.03.25.02.1.08.19.2.27.12.09.3.16.56.22.26.06.63.09,1.11.09v.32Z"/>
      <path class="cls-1" d="M176.46,319.92c-.05.26-.15.44-.3.54-.15.09-.32.14-.49.14s-.32-.05-.43-.14c-.11-.09-.17-.22-.2-.37-.03-.13-.01-.25.04-.38s.15-.21.28-.26c.06-.11.07-.23.02-.36s-.21-.19-.49-.19c-.14,0-.31.07-.51.2-.2.13-.42.34-.64.62-.23.28-.45.63-.68,1.04-.23.42-.44.91-.62,1.48-.19.57-.34,1.09-.44,1.56-.11.47-.15.88-.14,1.22s.09.61.24.8c.15.19.37.28.67.28.28,0,.54-.07.79-.2s.49-.3.7-.49c.21-.2.4-.4.56-.6s.29-.39.39-.54l.42.34c-.1.19-.25.41-.44.67-.2.26-.42.51-.68.75-.26.24-.53.45-.81.61s-.56.25-.84.25c-.57,0-1.01-.16-1.33-.49-.32-.33-.48-.77-.48-1.32-.1.2-.25.41-.44.62-.2.21-.42.41-.67.59-.25.18-.53.32-.82.43s-.6.16-.9.16c-.24,0-.45-.04-.63-.12s-.34-.19-.47-.31c-.13-.13-.23-.27-.3-.44-.07-.16-.1-.33-.1-.49,0-.72.26-1.08.78-1.08.25,0,.45.07.59.21s.21.29.21.45c0,.18-.04.34-.11.48s-.19.23-.34.26c-.04.19.03.31.22.36.18.05.4.04.66-.04.26-.08.52-.21.79-.41.27-.2.49-.44.65-.75.16-.3.33-.69.5-1.17.17-.48.32-.96.46-1.45.14-.48.26-.93.36-1.32.1-.4.16-.67.19-.82.01-.15,0-.31-.07-.46-.06-.16-.14-.3-.24-.43-.1-.13-.22-.24-.36-.33s-.28-.13-.42-.13c-.2,0-.4.06-.6.17-.2.11-.38.25-.55.41s-.32.32-.46.48c-.14.16-.25.29-.34.38l-.32-.4c.14-.13.29-.29.45-.48.16-.2.34-.38.54-.56.2-.18.41-.33.63-.45.23-.12.48-.18.76-.18s.5.07.72.2c.21.13.4.3.55.5.15.2.27.42.34.65.08.23.11.45.09.65.13-.14.28-.32.46-.55.18-.23.39-.45.62-.66.23-.21.49-.4.77-.56.28-.16.57-.24.89-.24s.55.06.74.18c.19.12.33.27.44.44.1.17.16.36.19.55.03.2.03.36,0,.5Z"/>
      <path class="cls-1" d="M183.72,328.81l-.58,2.32h-4.76c.06-.27.17-.55.34-.86.17-.3.37-.61.6-.93.23-.32.48-.63.75-.95s.55-.64.82-.95c.22-.25.42-.49.61-.72s.36-.46.5-.69c.14-.23.25-.47.33-.71.08-.24.12-.51.12-.79,0-.56-.14-1-.41-1.32-.28-.32-.67-.48-1.19-.48-.13,0-.27.02-.43.06-.16.04-.32.1-.47.18-.15.08-.28.18-.38.31-.1.12-.15.26-.15.42,0,.1.02.18.05.24.03.06.07.12.12.18.05.06.09.13.12.2.03.07.05.18.05.32,0,.23-.07.39-.22.49-.15.1-.28.16-.41.16-.23,0-.41-.08-.52-.25s-.17-.36-.17-.6c0-.26.07-.51.22-.77.15-.25.34-.47.58-.67s.51-.35.82-.47c.31-.12.62-.18.93-.18.39,0,.75.06,1.07.18.32.12.6.27.83.47s.41.43.53.7c.13.27.19.55.19.86,0,.32-.06.61-.17.88-.11.26-.26.51-.44.74-.18.23-.38.45-.6.65-.22.2-.43.4-.63.59-.78.71-1.38,1.31-1.81,1.8-.43.49-.69.87-.77,1.15h2.47c.17,0,.32,0,.47-.03.15-.02.29-.08.43-.18.14-.1.28-.26.43-.48.14-.22.29-.53.45-.94l.28.09Z"/>
      <path class="cls-1" d="M221.5,319.92c-.05.26-.15.44-.3.54-.15.09-.32.14-.49.14s-.32-.05-.43-.14c-.11-.09-.17-.22-.2-.37-.03-.13-.01-.25.04-.38s.15-.21.28-.26c.06-.11.07-.23.02-.36s-.21-.19-.49-.19c-.14,0-.31.07-.51.2-.2.13-.42.34-.64.62-.23.28-.45.63-.68,1.04-.23.42-.44.91-.62,1.48-.19.57-.34,1.09-.44,1.56-.11.47-.15.88-.14,1.22s.09.61.24.8c.15.19.37.28.67.28.28,0,.54-.07.79-.2s.49-.3.7-.49c.21-.2.4-.4.56-.6s.29-.39.39-.54l.42.34c-.1.19-.25.41-.44.67-.2.26-.42.51-.68.75-.26.24-.53.45-.81.61s-.56.25-.84.25c-.57,0-1.01-.16-1.33-.49-.32-.33-.48-.77-.48-1.32-.1.2-.25.41-.44.62-.2.21-.42.41-.67.59-.25.18-.53.32-.82.43s-.6.16-.9.16c-.24,0-.45-.04-.63-.12s-.34-.19-.47-.31c-.13-.13-.23-.27-.3-.44-.07-.16-.1-.33-.1-.49,0-.72.26-1.08.78-1.08.25,0,.45.07.59.21s.21.29.21.45c0,.18-.04.34-.11.48s-.19.23-.34.26c-.04.19.03.31.22.36.18.05.4.04.66-.04.26-.08.52-.21.79-.41.27-.2.49-.44.65-.75.16-.3.33-.69.5-1.17.17-.48.32-.96.46-1.45.14-.48.26-.93.36-1.32.1-.4.16-.67.19-.82.01-.15,0-.31-.07-.46-.06-.16-.14-.3-.24-.43-.1-.13-.22-.24-.36-.33s-.28-.13-.42-.13c-.2,0-.4.06-.6.17-.2.11-.38.25-.55.41s-.32.32-.46.48c-.14.16-.25.29-.34.38l-.32-.4c.14-.13.29-.29.45-.48.16-.2.34-.38.54-.56.2-.18.41-.33.63-.45.23-.12.48-.18.76-.18s.5.07.72.2c.21.13.4.3.55.5.15.2.27.42.34.65.08.23.11.45.09.65.13-.14.28-.32.46-.55.18-.23.39-.45.62-.66.23-.21.49-.4.77-.56.28-.16.57-.24.89-.24s.55.06.74.18c.19.12.33.27.44.44.1.17.16.36.19.55.03.2.03.36,0,.5Z"/>
      <path class="cls-1" d="M228.88,328.89c0,.38-.08.73-.23,1.03s-.37.57-.64.79c-.27.22-.59.39-.97.51s-.77.18-1.2.18c-.19,0-.42-.03-.68-.1-.26-.07-.51-.17-.75-.31-.24-.14-.45-.32-.62-.53-.18-.21-.28-.47-.3-.76-.02-.2.04-.37.16-.51.12-.14.27-.21.46-.21.12,0,.22.02.31.07.09.05.17.11.23.18.06.07.11.15.14.23.03.08.04.15.04.21,0,.04,0,.08-.03.12-.02.04-.03.08-.05.14-.02.05-.03.11-.04.16,0,.06,0,.11.01.18.08.28.19.46.36.55s.44.14.82.14c.36,0,.66-.06.89-.17.23-.11.42-.26.55-.44.13-.18.22-.39.27-.62s.08-.48.08-.73c0-.56-.08-.99-.24-1.29s-.35-.51-.55-.65c-.21-.13-.41-.21-.6-.21-.2,0-.33,0-.41,0-.34.05-.57.06-.67.03-.1-.03-.16-.11-.16-.23s.06-.21.18-.26c.12-.05.33-.04.64.04.07.02.18,0,.35-.05.17-.05.34-.15.51-.3.17-.15.32-.35.45-.6.13-.25.19-.57.19-.96,0-.59-.11-1.04-.32-1.34s-.57-.46-1.07-.46c-.22,0-.4.03-.55.08s-.27.13-.36.21c-.09.09-.16.18-.2.29-.04.11-.06.21-.06.32,0,.1.02.19.05.29.03.1.05.19.05.29s-.02.18-.07.24-.1.12-.16.16c-.06.04-.13.07-.19.09s-.13.03-.18.03c-.17,0-.31-.05-.42-.14-.11-.09-.17-.23-.17-.41,0-.26.07-.5.2-.72s.31-.42.52-.58.46-.3.73-.4c.28-.1.56-.14.84-.14.33,0,.64.05.93.16.29.1.55.25.78.44.23.19.41.42.54.69.13.27.2.57.2.9,0,.31-.07.59-.22.82-.15.24-.33.45-.54.62-.21.18-.44.32-.69.44-.25.12-.47.2-.67.25.32.04.63.12.93.23.3.11.57.26.81.45s.43.41.57.67c.14.26.21.55.21.88Z"/>
      <path class="cls-1" d="M493.08,319.89c-.05.26-.15.44-.3.54-.15.09-.32.14-.49.14s-.32-.05-.43-.14c-.11-.09-.17-.22-.2-.37-.03-.13-.01-.25.04-.38s.15-.21.28-.26c.06-.11.07-.23.02-.36s-.21-.19-.49-.19c-.14,0-.31.07-.51.2-.2.13-.42.34-.64.62-.23.28-.45.63-.68,1.04-.23.42-.44.91-.62,1.48-.19.57-.34,1.09-.44,1.56-.11.47-.15.88-.14,1.22s.09.61.24.8c.15.19.37.28.67.28.28,0,.54-.07.79-.2s.49-.3.7-.49c.21-.2.4-.4.56-.6s.29-.39.39-.54l.42.34c-.1.19-.25.41-.44.67-.2.26-.42.51-.68.75-.26.24-.53.45-.81.61s-.56.25-.84.25c-.57,0-1.01-.16-1.33-.49-.32-.33-.48-.77-.48-1.32-.1.2-.25.41-.44.62-.2.21-.42.41-.67.59-.25.18-.53.32-.82.43s-.6.16-.9.16c-.24,0-.45-.04-.63-.12s-.34-.19-.47-.31c-.13-.13-.23-.27-.3-.44-.07-.16-.1-.33-.1-.49,0-.72.26-1.08.78-1.08.25,0,.45.07.59.21s.21.29.21.45c0,.18-.04.34-.11.48s-.19.23-.34.26c-.04.19.03.31.22.36.18.05.4.04.66-.04.26-.08.52-.21.79-.41.27-.2.49-.44.65-.75.16-.3.33-.69.5-1.17.17-.48.32-.96.46-1.45.14-.48.26-.93.36-1.32.1-.4.16-.67.19-.82.01-.15,0-.31-.07-.46-.06-.16-.14-.3-.24-.43-.1-.13-.22-.24-.36-.33s-.28-.13-.42-.13c-.2,0-.4.06-.6.17-.2.11-.38.25-.55.41s-.32.32-.46.48c-.14.16-.25.29-.34.38l-.32-.4c.14-.13.29-.29.45-.48.16-.2.34-.38.54-.56.2-.18.41-.33.63-.45.23-.12.48-.18.76-.18s.5.07.72.2c.21.13.4.3.55.5.15.2.27.42.34.65.08.23.11.45.09.65.13-.14.28-.32.46-.55.18-.23.39-.45.62-.66.23-.21.49-.4.77-.56.28-.16.57-.24.89-.24s.55.06.74.18c.19.12.33.27.44.44.1.17.16.36.19.55.03.2.03.36,0,.5Z"/>
      <path class="cls-1" d="M506.83,322.4c-.28,0-.52.05-.72.16-.21.1-.38.23-.52.38-.14.15-.25.31-.33.47-.08.16-.14.29-.18.4l-2.5,7.49h-.26l-3.06-7.88-1.94,5.82c-.1.3-.15.55-.15.74,0,.19.04.34.12.46.08.11.2.19.37.23.17.04.37.06.61.06l-.13.39h-3.31l.13-.39c.29,0,.54-.03.75-.1.21-.07.39-.17.54-.3.15-.13.28-.29.38-.47.1-.18.19-.39.26-.61l1.98-5.96c.08-.24.03-.45-.16-.62-.19-.17-.52-.25-.99-.25l.14-.42h2.17l2.81,7.29,1.82-5.47c.14-.41.15-.74.05-1.01-.1-.26-.4-.4-.87-.4l.14-.42h3l-.14.42Z"/>
      <path class="cls-2" d="M149.63,284.1c-.15.23-.34.49-.57.79-.23.3-.47.59-.74.86-.27.27-.54.5-.83.69-.29.19-.57.28-.85.28-.3,0-.52-.08-.66-.25-.14-.16-.23-.35-.26-.57-.04-.21-.04-.43-.02-.63s.06-.36.09-.44l1.82-4.77c.14-.35.21-.62.2-.81,0-.19-.04-.33-.1-.42-.06-.09-.15-.14-.25-.15-.1-.01-.18-.02-.23-.02-.19,0-.42.12-.69.36-.27.24-.56.56-.88.95-.32.4-.65.86-.99,1.39-.35.53-.68,1.09-1.01,1.67-.33.59-.64,1.18-.95,1.79s-.57,1.18-.79,1.72h-1.32l3.27-11.35c.09-.3,0-.53-.26-.67-.26-.15-.63-.2-1.13-.16l.06-.38c.38-.08.76-.16,1.15-.25.33-.08.68-.17,1.06-.27.38-.11.72-.22,1.02-.33l-3.37,11.06c.27-.4.54-.84.82-1.3.28-.47.57-.93.87-1.39.3-.46.6-.9.9-1.32s.61-.79.92-1.11c.31-.32.61-.58.92-.77.3-.19.6-.29.89-.29.16,0,.34.04.52.12.18.08.34.21.46.38.13.17.2.38.24.63.03.25-.02.55-.14.89l-1.78,4.68c-.16.43-.21.74-.15.94.06.2.21.28.44.23s.52-.24.89-.58c.37-.33.76-.82,1.19-1.46l.25.25Z"/>
      <path class="cls-2" d="M153.81,279.58c0-.84.08-1.65.26-2.41s.38-1.48.64-2.14c.26-.66.55-1.27.86-1.82.31-.55.63-1.03.94-1.44s.6-.75.87-1.02.48-.46.63-.56c.09-.06.16-.06.23,0,.06.07.05.15-.04.24-.43.48-.84,1.02-1.23,1.64-.39.61-.73,1.29-1.03,2.03-.3.74-.54,1.57-.72,2.47-.18.9-.28,1.89-.29,2.96-.01.98.05,1.89.2,2.71s.33,1.57.56,2.23c.23.66.48,1.25.75,1.76.27.51.53.94.77,1.3.24.35.45.63.62.82.18.2.28.31.32.35.1.1.12.19.07.27-.06.08-.13.09-.22.03-.3-.19-.69-.55-1.16-1.07-.47-.52-.94-1.19-1.39-2-.45-.81-.84-1.76-1.16-2.83s-.48-2.25-.46-3.54Z"/>
      <path class="cls-2" d="M169.43,279.78c-.05.26-.15.44-.3.54-.15.09-.32.14-.49.14s-.32-.05-.43-.14c-.11-.09-.17-.22-.2-.37-.03-.13-.01-.25.04-.38s.15-.21.28-.26c.06-.11.07-.23.02-.36s-.21-.19-.49-.19c-.14,0-.31.07-.51.2-.2.13-.42.34-.64.62-.23.28-.45.63-.68,1.04-.23.42-.44.91-.62,1.48-.19.57-.34,1.09-.44,1.56-.11.47-.15.88-.14,1.22s.09.61.24.8c.15.19.37.28.67.28.28,0,.54-.07.79-.2s.49-.3.7-.49c.21-.2.4-.4.56-.6s.29-.39.39-.54l.42.34c-.1.19-.25.41-.44.67-.2.26-.42.51-.68.75-.26.24-.53.45-.81.61s-.56.25-.84.25c-.57,0-1.01-.16-1.33-.49-.32-.33-.48-.77-.48-1.32-.1.2-.25.41-.44.62-.2.21-.42.41-.67.59-.25.18-.53.32-.82.43s-.6.16-.9.16c-.24,0-.45-.04-.63-.12s-.34-.19-.47-.31c-.13-.13-.23-.27-.3-.44-.07-.16-.1-.33-.1-.49,0-.72.26-1.08.78-1.08.25,0,.45.07.59.21s.21.29.21.45c0,.18-.04.34-.11.48s-.19.23-.34.26c-.04.19.03.31.22.36.18.05.4.04.66-.04.26-.08.52-.21.79-.41.27-.2.49-.44.65-.75.16-.3.33-.69.5-1.17.17-.48.32-.96.46-1.45.14-.48.26-.93.36-1.32.1-.4.16-.67.19-.82.01-.15,0-.31-.07-.46-.06-.16-.14-.3-.24-.43-.1-.13-.22-.24-.36-.33s-.28-.13-.42-.13c-.2,0-.4.06-.6.17-.2.11-.38.25-.55.41s-.32.32-.46.48c-.14.16-.25.29-.34.38l-.32-.4c.14-.13.29-.29.45-.48.16-.2.34-.38.54-.56.2-.18.41-.33.63-.45.23-.12.48-.18.76-.18s.5.07.72.2c.21.13.4.3.55.5.15.2.27.42.34.65.08.23.11.45.09.65.13-.14.28-.32.46-.55.18-.23.39-.45.62-.66.23-.21.49-.4.77-.56.28-.16.57-.24.89-.24s.55.06.74.18c.19.12.33.27.44.44.1.17.16.36.19.55.03.2.03.36,0,.5Z"/>
      <path class="cls-2" d="M173.58,270.2c.15.1.36.29.63.56.27.27.56.61.87,1.02.31.41.62.89.94,1.44.31.55.6,1.15.86,1.82.26.66.47,1.37.64,2.14s.26,1.57.26,2.41c.01,1.29-.14,2.46-.46,3.54-.32,1.07-.71,2.01-1.16,2.83-.45.81-.92,1.48-1.39,2-.47.52-.86.88-1.16,1.07-.09.06-.16.05-.22-.03-.06-.08-.03-.17.07-.27.04-.04.14-.15.32-.35.18-.2.38-.47.62-.82.24-.35.5-.78.77-1.3.27-.51.52-1.1.75-1.76.23-.66.41-1.41.56-2.23.14-.83.21-1.73.2-2.71-.01-1.07-.11-2.06-.29-2.96-.18-.9-.43-1.72-.73-2.47-.3-.74-.65-1.42-1.04-2.03-.39-.61-.8-1.16-1.23-1.64-.08-.09-.09-.17-.03-.24.06-.07.14-.07.24,0Z"/>
      <path class="cls-2" d="M197.18,277.93h-12.51v-.74h12.51v.74ZM197.18,282.04h-12.51v-.74h12.51v.74Z"/>
      <path class="cls-2" d="M213.28,279.97h-12.51v-.74h12.51v.74Z"/>
      <path class="cls-2" d="M227.08,286.55h-7.08v-.49c.73,0,1.28-.04,1.66-.12s.64-.19.8-.31c.16-.13.25-.26.26-.41.01-.15.02-.27.02-.39v-8.85c0-.16-.03-.3-.08-.41-.06-.11-.18-.19-.37-.26-.19-.06-.47-.1-.83-.12-.37-.02-.86-.03-1.48-.03v-.4c.53-.06,1.05-.16,1.55-.29s.96-.27,1.36-.41c.47-.16.91-.35,1.32-.55v11.35c0,.1.01.22.04.36.03.14.13.27.3.4s.46.23.84.32c.38.09.94.13,1.67.13v.47Z"/>
      <path class="cls-2" d="M450.7,286.16c-.15.23-.34.49-.57.79-.23.3-.47.59-.74.86-.27.27-.54.5-.83.69-.29.19-.57.28-.85.28-.3,0-.52-.08-.66-.25-.14-.16-.23-.35-.26-.57-.04-.21-.04-.43-.02-.63s.06-.36.09-.44l1.82-4.77c.14-.35.21-.62.2-.81,0-.19-.04-.33-.1-.42-.06-.09-.15-.14-.25-.15-.1-.01-.18-.02-.23-.02-.19,0-.42.12-.69.36-.27.24-.56.56-.88.95-.32.4-.65.86-.99,1.39-.35.53-.68,1.09-1.01,1.67-.33.59-.64,1.18-.95,1.79s-.57,1.18-.79,1.72h-1.32l3.27-11.35c.09-.3,0-.53-.26-.67-.26-.15-.63-.2-1.13-.16l.06-.38c.38-.08.76-.16,1.15-.25.33-.08.68-.17,1.06-.27.38-.11.72-.22,1.02-.33l-3.37,11.06c.27-.4.54-.84.82-1.3.28-.47.57-.93.87-1.39.3-.46.6-.9.9-1.32s.61-.79.92-1.11c.31-.32.61-.58.92-.77.3-.19.6-.29.89-.29.16,0,.34.04.52.12.18.08.34.21.46.38.13.17.2.38.24.63.03.25-.02.55-.14.89l-1.78,4.68c-.16.43-.21.74-.15.94.06.2.21.28.44.23s.52-.24.89-.58c.37-.33.76-.82,1.19-1.46l.25.25Z"/>
      <path class="cls-2" d="M454.87,281.64c0-.84.08-1.65.26-2.41s.38-1.48.64-2.14c.26-.66.55-1.27.86-1.82.31-.55.63-1.03.94-1.44s.6-.75.87-1.02.48-.46.63-.56c.09-.06.16-.06.23,0,.06.07.05.15-.04.24-.43.48-.84,1.02-1.23,1.64-.39.61-.73,1.29-1.03,2.03-.3.74-.54,1.57-.72,2.47-.18.9-.28,1.89-.29,2.96-.01.98.05,1.89.2,2.71s.33,1.57.56,2.23c.23.66.48,1.25.75,1.76.27.51.53.94.77,1.3.24.35.45.63.62.82.18.2.28.31.32.35.1.1.12.19.07.27-.06.08-.13.09-.22.03-.3-.19-.69-.55-1.16-1.07-.47-.52-.94-1.19-1.39-2-.45-.81-.84-1.76-1.16-2.83s-.48-2.25-.46-3.54Z"/>
      <path class="cls-2" d="M470.49,281.84c-.05.26-.15.44-.3.54-.15.09-.32.14-.49.14s-.32-.05-.43-.14c-.11-.09-.17-.22-.2-.37-.03-.13-.01-.25.04-.38s.15-.21.28-.26c.06-.11.07-.23.02-.36s-.21-.19-.49-.19c-.14,0-.31.07-.51.2-.2.13-.42.34-.64.62-.23.28-.45.63-.68,1.04-.23.42-.44.91-.62,1.48-.19.57-.34,1.09-.44,1.56-.11.47-.15.88-.14,1.22s.09.61.24.8c.15.19.37.28.67.28.28,0,.54-.07.79-.2s.49-.3.7-.49c.21-.2.4-.4.56-.6s.29-.39.39-.54l.42.34c-.1.19-.25.41-.44.67-.2.26-.42.51-.68.75-.26.24-.53.45-.81.61s-.56.25-.84.25c-.57,0-1.01-.16-1.33-.49-.32-.33-.48-.77-.48-1.32-.1.2-.25.41-.44.62-.2.21-.42.41-.67.59-.25.18-.53.32-.82.43s-.6.16-.9.16c-.24,0-.45-.04-.63-.12s-.34-.19-.47-.31c-.13-.13-.23-.27-.3-.44-.07-.16-.1-.33-.1-.49,0-.72.26-1.08.78-1.08.25,0,.45.07.59.21s.21.29.21.45c0,.18-.04.34-.11.48s-.19.23-.34.26c-.04.19.03.31.22.36.18.05.4.04.66-.04.26-.08.52-.21.79-.41.27-.2.49-.44.65-.75.16-.3.33-.69.5-1.17.17-.48.32-.96.46-1.45.14-.48.26-.93.36-1.32.1-.4.16-.67.19-.82.01-.15,0-.31-.07-.46-.06-.16-.14-.3-.24-.43-.1-.13-.22-.24-.36-.33s-.28-.13-.42-.13c-.2,0-.4.06-.6.17-.2.11-.38.25-.55.41s-.32.32-.46.48c-.14.16-.25.29-.34.38l-.32-.4c.14-.13.29-.29.45-.48.16-.2.34-.38.54-.56.2-.18.41-.33.63-.45.23-.12.48-.18.76-.18s.5.07.72.2c.21.13.4.3.55.5.15.2.27.42.34.65.08.23.11.45.09.65.13-.14.28-.32.46-.55.18-.23.39-.45.62-.66.23-.21.49-.4.77-.56.28-.16.57-.24.89-.24s.55.06.74.18c.19.12.33.27.44.44.1.17.16.36.19.55.03.2.03.36,0,.5Z"/>
      <path class="cls-2" d="M474.64,272.26c.15.1.36.29.63.56.27.27.56.61.87,1.02.31.41.62.89.94,1.44.31.55.6,1.15.86,1.82.26.66.47,1.37.64,2.14s.26,1.57.26,2.41c.01,1.29-.14,2.46-.46,3.54-.32,1.07-.71,2.01-1.16,2.83-.45.81-.92,1.48-1.39,2-.47.52-.86.88-1.16,1.07-.09.06-.16.05-.22-.03-.06-.08-.03-.17.07-.27.04-.04.14-.15.32-.35.18-.2.38-.47.62-.82.24-.35.5-.78.77-1.3.27-.51.52-1.1.75-1.76.23-.66.41-1.41.56-2.23.14-.83.21-1.73.2-2.71-.01-1.07-.11-2.06-.29-2.96-.18-.9-.43-1.72-.73-2.47-.3-.74-.65-1.42-1.04-2.03-.39-.61-.8-1.16-1.23-1.64-.08-.09-.09-.17-.03-.24.06-.07.14-.07.24,0Z"/>
      <path class="cls-2" d="M498.24,280h-12.51v-.74h12.51v.74ZM498.24,284.1h-12.51v-.74h12.51v.74Z"/>
      <path class="cls-2" d="M517.04,282.04h-12.51v-.74h12.51v.74Z"/>
      <path class="cls-2" d="M528.14,288.61h-7.08v-.49c.73,0,1.28-.04,1.66-.12s.64-.19.8-.31c.16-.13.25-.26.26-.41.01-.15.02-.27.02-.39v-8.85c0-.16-.03-.3-.08-.41-.06-.11-.18-.19-.37-.26-.19-.06-.47-.1-.83-.12-.37-.02-.86-.03-1.48-.03v-.4c.53-.06,1.05-.16,1.55-.29s.96-.27,1.36-.41c.47-.16.91-.35,1.32-.55v11.35c0,.1.01.22.04.36.03.14.13.27.3.4s.46.23.84.32c.38.09.94.13,1.67.13v.47Z"/>
      <path class="cls-6" d="M316.64,284.47c-.15.23-.34.49-.57.79-.23.3-.47.59-.74.86-.26.27-.54.5-.83.69s-.57.28-.85.28c-.3,0-.52-.08-.66-.25-.14-.16-.23-.35-.27-.57-.04-.21-.04-.43-.02-.63s.06-.36.09-.44l1.82-4.77c.14-.35.21-.62.2-.81,0-.19-.04-.33-.1-.42-.06-.09-.15-.14-.25-.15-.1-.01-.18-.02-.23-.02-.19,0-.42.12-.69.36-.27.24-.56.56-.88.95-.32.4-.65.86-.99,1.39-.35.53-.68,1.09-1.01,1.67s-.64,1.18-.95,1.79-.57,1.18-.79,1.72h-1.32l3.27-11.35c.09-.3,0-.53-.26-.67s-.63-.2-1.13-.16l.06-.38c.38-.08.76-.16,1.15-.25.33-.08.68-.17,1.06-.27.38-.11.72-.22,1.02-.33l-3.37,11.06c.26-.4.54-.84.82-1.3.28-.47.57-.93.87-1.39.3-.46.6-.9.9-1.32s.61-.79.92-1.11c.31-.32.62-.58.92-.77.3-.19.6-.29.89-.29.16,0,.34.04.52.12.18.08.34.21.46.38s.21.38.24.63c.03.25-.02.55-.14.89l-1.78,4.68c-.16.43-.21.74-.15.94.06.2.21.28.44.23.23-.05.52-.24.89-.58.37-.33.76-.82,1.19-1.46l.25.25Z"/>
      <path class="cls-6" d="M320.58,279.95c0-.84.09-1.65.26-2.41s.38-1.48.64-2.14c.26-.66.54-1.27.86-1.82s.63-1.03.94-1.44c.31-.41.6-.75.87-1.02.27-.27.48-.46.63-.56.09-.06.16-.06.23,0,.06.07.05.15-.04.24-.43.48-.84,1.02-1.23,1.64-.39.61-.73,1.29-1.03,2.03-.3.74-.54,1.57-.72,2.47-.18.9-.28,1.89-.29,2.96-.01.98.05,1.89.2,2.71.14.83.33,1.57.56,2.23.23.66.48,1.25.75,1.76s.53.94.77,1.3c.24.35.45.63.62.82.18.2.28.31.32.35.1.1.12.19.07.27-.06.08-.13.09-.22.03-.3-.19-.69-.55-1.16-1.07-.47-.52-.94-1.19-1.39-2-.45-.81-.84-1.76-1.16-2.83s-.48-2.25-.46-3.54Z"/>
      <path class="cls-6" d="M336.2,280.15c-.05.26-.15.44-.3.54-.15.09-.32.14-.49.14s-.32-.05-.43-.14c-.11-.09-.17-.22-.2-.37-.03-.13-.01-.25.04-.38.05-.13.14-.21.28-.26.06-.11.07-.23.02-.36-.05-.13-.21-.19-.49-.19-.14,0-.31.07-.51.2-.2.13-.42.34-.64.62-.23.28-.45.63-.68,1.04-.23.42-.43.91-.62,1.48s-.34,1.09-.44,1.56c-.11.47-.16.88-.14,1.22s.09.61.24.8c.15.19.37.28.67.28.28,0,.54-.07.79-.2s.49-.3.7-.49c.21-.2.4-.4.56-.6.16-.21.29-.39.39-.54l.42.34c-.1.19-.25.41-.44.67-.2.26-.42.51-.68.75s-.53.45-.81.61-.56.25-.84.25c-.57,0-1.01-.16-1.33-.49-.32-.33-.48-.77-.48-1.32-.1.2-.25.41-.45.62s-.42.41-.67.59c-.25.18-.53.32-.82.43-.3.11-.6.16-.9.16-.24,0-.45-.04-.63-.12s-.34-.19-.47-.31c-.13-.13-.23-.27-.3-.44-.07-.16-.1-.33-.1-.49,0-.72.26-1.08.78-1.08.25,0,.45.07.59.21s.21.29.21.45c0,.18-.04.34-.11.48-.08.15-.19.23-.34.26-.04.19.04.31.22.36s.4.04.66-.04.52-.21.79-.41c.27-.2.49-.44.65-.75.16-.3.33-.69.5-1.17.17-.48.33-.96.46-1.45.14-.48.26-.93.36-1.32.1-.4.16-.67.19-.82.01-.15,0-.31-.07-.46-.06-.16-.14-.3-.24-.43-.1-.13-.22-.24-.36-.33-.14-.09-.28-.13-.42-.13-.2,0-.4.06-.6.17-.2.11-.38.25-.55.41s-.33.32-.46.48c-.14.16-.25.29-.34.38l-.32-.4c.14-.13.29-.29.45-.48.16-.2.34-.38.54-.56.2-.18.41-.33.63-.45.23-.12.48-.18.76-.18s.5.07.72.2c.21.13.4.3.55.5s.26.42.34.65c.08.23.11.45.09.65.13-.14.28-.32.46-.55s.39-.45.62-.66c.23-.21.49-.4.77-.56s.57-.24.89-.24.55.06.74.18c.19.12.33.27.43.44.1.17.16.36.19.55.03.2.03.36,0,.5Z"/>
      <path class="cls-6" d="M340.34,270.57c.15.1.36.29.63.56.27.27.56.61.87,1.02.31.41.62.89.94,1.44s.6,1.15.86,1.82c.26.66.47,1.37.64,2.14.17.76.26,1.57.26,2.41.01,1.29-.14,2.46-.46,3.54-.32,1.07-.71,2.01-1.16,2.83-.45.81-.92,1.48-1.39,2-.47.52-.86.88-1.16,1.07-.09.06-.16.05-.22-.03-.06-.08-.04-.17.07-.27.04-.04.14-.15.32-.35.18-.2.38-.47.62-.82.24-.35.49-.78.77-1.3s.52-1.1.75-1.76c.23-.66.41-1.41.56-2.23.15-.83.21-1.73.2-2.71-.01-1.07-.11-2.06-.29-2.96-.18-.9-.43-1.72-.73-2.47-.3-.74-.65-1.42-1.04-2.03-.39-.61-.8-1.16-1.23-1.64-.08-.09-.08-.17-.03-.24s.14-.07.24,0Z"/>
      <path class="cls-6" d="M364.18,278.3h-12.51v-.74h12.51v.74ZM364.18,282.41h-12.51v-.74h12.51v.74Z"/>
      <path class="cls-6" d="M380.27,280.34h-5.83v5.92h-.83v-5.92h-5.81v-.74h5.81v-5.84h.83v5.84h5.83v.74Z"/>
      <path class="cls-6" d="M393.85,286.92h-7.08v-.49c.73,0,1.28-.04,1.66-.12s.64-.19.8-.31c.16-.13.25-.26.26-.41.01-.15.02-.27.02-.39v-8.85c0-.16-.03-.3-.08-.41-.06-.11-.18-.19-.37-.26-.19-.06-.47-.1-.83-.12-.37-.02-.86-.03-1.48-.03v-.4c.53-.06,1.05-.16,1.55-.29s.96-.27,1.36-.41c.47-.16.91-.35,1.32-.55v11.35c0,.1.01.22.04.36.03.14.13.27.3.4s.46.23.84.32c.38.09.94.13,1.67.13v.47Z"/>
    </g>
    <g id="_레이어_2" data-name="레이어_2">
      <rect class="cls-7" x="71.86" y="301.63" width="456.13" height="3.2"/>
      <line class="cls-3" x1="120.83" y1="298.31" x2="130.65" y2="308.12"/>
      <line class="cls-3" x1="120.83" y1="308.12" x2="130.21" y2="298.75"/>
      <line class="cls-3" x1="166.01" y1="298.31" x2="175.83" y2="308.12"/>
      <line class="cls-3" x1="166.01" y1="308.12" x2="175.39" y2="298.75"/>
      <line class="cls-3" x1="210.92" y1="298.31" x2="220.73" y2="308.12"/>
      <line class="cls-3" x1="210.92" y1="308.12" x2="220.29" y2="298.75"/>
      <line class="cls-3" x1="256.36" y1="298.53" x2="266.17" y2="308.34"/>
      <line class="cls-3" x1="256.36" y1="308.34" x2="265.73" y2="298.97"/>
      <circle class="cls-5" cx="351.74" cy="303.23" r="5.53"/>
      <circle class="cls-5" cx="396.79" cy="303.23" r="5.53"/>
      <rect class="cls-4" x="276.51" y="239.3" width="3.62" height="28.29"/>
      <circle class="cls-4" cx="278.32" cy="253.44" r="4.21"/>
      <g>
        <line class="cls-6" x1="283.27" y1="253.44" x2="414.49" y2="253.44"/>
        <g>
          <line class="cls-5" x1="285.68" y1="253.44" x2="412.09" y2="253.44"/>
          <path class="cls-6" d="M299.35,263.04c.3-.46.16-1.08-.31-1.38l-12.9-8.22,12.9-8.22c.47-.3.61-.92.31-1.38-.3-.46-.92-.6-1.38-.31l-14.23,9.06c-.29.18-.46.5-.46.84s.18.66.46.84l14.23,9.06c.17.11.35.16.54.16.33,0,.65-.16.85-.46Z"/>
          <path class="cls-6" d="M398.42,263.04c-.3-.46-.16-1.08.31-1.38l12.9-8.22-12.9-8.22c-.47-.3-.61-.92-.31-1.38.3-.46.92-.6,1.38-.31l14.23,9.06c.29.18.46.5.46.84s-.18.66-.46.84l-14.23,9.06c-.17.11-.35.16-.54.16-.33,0-.65-.16-.85-.46Z"/>
        </g>
      </g>
      <line class="cls-3" x1="482.04" y1="297.9" x2="491.86" y2="307.71"/>
      <line class="cls-3" x1="482.04" y1="307.71" x2="491.42" y2="298.34"/>
      <line class="cls-3" x1="436.96" y1="298.12" x2="446.78" y2="307.93"/>
      <line class="cls-3" x1="436.96" y1="307.93" x2="446.34" y2="298.56"/>
      <circle class="cls-5" cx="306.2" cy="303.03" r="5.53"/>
      <rect class="cls-4" x="416.6" y="238.26" width="3.62" height="28.29"/>
      <circle class="cls-4" cx="418.41" cy="252.4" r="4.21"/>
    </g>
  </g>
</svg>