<?xml version="1.0" encoding="UTF-8"?>
<svg xmlns="http://www.w3.org/2000/svg" version="1.1" xmlns:xlink="http://www.w3.org/1999/xlink" viewBox="0 0 600 600">
  <defs>
    <style>
      .cls-1, .cls-2, .cls-3, .cls-4, .cls-5, .cls-6, .cls-7, .cls-8 {
        fill: none;
      }

      .cls-1, .cls-2, .cls-3, .cls-5, .cls-6, .cls-7, .cls-8 {
        stroke-linecap: square;
      }

      .cls-1, .cls-2, .cls-3, .cls-5, .cls-7, .cls-8, .cls-9 {
        stroke-linejoin: round;
      }

      .cls-1, .cls-6, .cls-9 {
        stroke: #000;
      }

      .cls-10 {
        clip-path: url(#clippath-6);
      }

      .cls-11 {
        clip-path: url(#clippath-4);
      }

      .cls-2 {
        stroke: aqua;
      }

      .cls-12 {
        fill: #fff;
      }

      .cls-3 {
        stroke: green;
      }

      .cls-5 {
        stroke: #f0f;
      }

      .cls-13 {
        clip-path: url(#clippath-1);
      }

      .cls-14 {
        clip-path: url(#clippath-5);
      }

      .cls-6, .cls-9 {
        stroke-width: .8px;
      }

      .cls-15 {
        clip-path: url(#clippath-3);
      }

      .cls-7 {
        stroke: red;
      }

      .cls-8 {
        stroke: blue;
      }

      .cls-16 {
        clip-path: url(#clippath-2);
      }

      .cls-17 {
        clip-path: url(#clippath);
      }
    </style>
    <clipPath id="clippath">
      <rect class="cls-4" x="57.99" y="100.9" width="509.43" height="387.7"/>
    </clipPath>
    <clipPath id="clippath-1">
      <rect class="cls-4" x="57.99" y="100.9" width="509.43" height="387.7"/>
    </clipPath>
    <clipPath id="clippath-2">
      <rect class="cls-4" x="57.99" y="100.9" width="509.43" height="387.7"/>
    </clipPath>
    <clipPath id="clippath-3">
      <rect class="cls-4" x="57.99" y="100.9" width="509.43" height="387.7"/>
    </clipPath>
    <clipPath id="clippath-4">
      <rect class="cls-4" x="57.99" y="100.9" width="509.43" height="387.7"/>
    </clipPath>
    <clipPath id="clippath-5">
      <rect class="cls-4" x="57.99" y="100.9" width="509.43" height="387.7"/>
    </clipPath>
    <clipPath id="clippath-6">
      <rect class="cls-4" x="57.99" y="100.9" width="509.43" height="387.7"/>
    </clipPath>
  </defs>
  <!-- Generator: Adobe Illustrator 28.7.1, SVG Export Plug-In . SVG Version: 1.2.0 Build 142)  -->
  <g>
    <g id="_레이어_1" data-name="레이어_1">
      <g id="patch_1">
        <path class="cls-12" d="M11.67,516.49h576V84.49H11.67v432Z"/>
      </g>
      <path class="cls-12" d="M57.99,488.61h509.43V100.9H57.99v387.7Z"/>
      <g id="xtick_1">
        <g id="line2d_1">
          <path id="m582eb068a3" class="cls-9" d="M57.99,488.61v3.5"/>
        </g>
        <g id="text_1">
          <path id="DejaVuSans-30" d="M57.98,496.57c-.51,0-.89.25-1.15.75-.26.5-.38,1.25-.38,2.25s.13,1.75.38,2.25c.26.5.64.75,1.15.75s.89-.25,1.15-.75c.26-.5.38-1.25.38-2.25s-.13-1.75-.38-2.25c-.26-.5-.64-.75-1.15-.75ZM57.98,495.78c.82,0,1.44.32,1.87.97.43.65.65,1.58.65,2.81s-.22,2.16-.65,2.81c-.43.65-1.06.97-1.87.97s-1.44-.32-1.87-.97c-.43-.65-.65-1.58-.65-2.81s.22-2.17.65-2.81c.43-.65,1.06-.97,1.87-.97Z"/>
        </g>
      </g>
      <g id="xtick_2">
        <g id="line2d_2">
          <path id="m582eb068a3-2" data-name="m582eb068a3" class="cls-9" d="M121.67,488.61v3.5"/>
        </g>
        <g id="text_2">
          <g>
            <path id="DejaVuSans-32" d="M117.22,502.38h3.44v.83h-4.63v-.83c.37-.39.88-.91,1.53-1.56.65-.65,1.05-1.07,1.22-1.26.32-.35.54-.65.66-.9.13-.25.19-.49.19-.73,0-.39-.14-.7-.41-.95-.27-.24-.63-.37-1.06-.37-.31,0-.64.05-.98.16-.34.11-.71.27-1.1.49v-1c.4-.16.77-.28,1.11-.36.35-.08.66-.12.95-.12.76,0,1.36.19,1.81.57.45.38.67.88.67,1.51,0,.3-.06.58-.17.85-.11.27-.32.58-.61.95-.08.09-.34.37-.78.82-.44.45-1.05,1.08-1.85,1.89Z"/>
            <path id="DejaVuSans-35" d="M122.75,495.92h3.87v.83h-2.97v1.79c.14-.05.29-.09.43-.11.14-.02.29-.04.43-.04.81,0,1.46.22,1.93.67.48.45.71,1.05.71,1.81s-.24,1.39-.73,1.83c-.49.43-1.18.65-2.07.65-.31,0-.62-.03-.94-.08-.32-.05-.64-.13-.98-.23v-.99c.29.16.6.28.91.36s.64.12.99.12c.56,0,1.01-.15,1.34-.44.33-.3.49-.7.49-1.21s-.16-.91-.49-1.2c-.33-.3-.77-.45-1.34-.45-.26,0-.53.03-.79.09-.26.06-.53.15-.8.27v-3.66Z"/>
          </g>
        </g>
      </g>
      <g id="xtick_3">
        <g id="line2d_3">
          <path id="m582eb068a3-3" data-name="m582eb068a3" class="cls-9" d="M185.35,488.61v3.5"/>
        </g>
        <g id="text_3">
          <g>
            <path id="DejaVuSans-35-2" data-name="DejaVuSans-35" d="M180.06,495.92h3.87v.83h-2.97v1.79c.14-.05.29-.09.43-.11.14-.02.29-.04.43-.04.81,0,1.46.22,1.93.67.48.45.71,1.05.71,1.81s-.24,1.39-.73,1.83c-.49.43-1.18.65-2.07.65-.31,0-.62-.03-.94-.08-.32-.05-.64-.13-.98-.23v-.99c.29.16.6.28.91.36s.64.12.99.12c.56,0,1.01-.15,1.34-.44.33-.3.49-.7.49-1.21s-.16-.91-.49-1.2c-.33-.3-.77-.45-1.34-.45-.26,0-.53.03-.79.09-.26.06-.53.15-.8.27v-3.66Z"/>
            <path id="DejaVuSans-30-2" data-name="DejaVuSans-30" d="M188.52,496.57c-.51,0-.89.25-1.15.75-.26.5-.38,1.25-.38,2.25s.13,1.75.38,2.25c.26.5.64.75,1.15.75s.89-.25,1.15-.75c.26-.5.38-1.25.38-2.25s-.13-1.75-.38-2.25c-.26-.5-.64-.75-1.15-.75ZM188.52,495.78c.82,0,1.44.32,1.87.97.43.65.65,1.58.65,2.81s-.22,2.16-.65,2.81c-.43.65-1.06.97-1.87.97s-1.44-.32-1.87-.97c-.43-.65-.65-1.58-.65-2.81s.22-2.17.65-2.81c.43-.65,1.06-.97,1.87-.97Z"/>
          </g>
        </g>
      </g>
      <g id="xtick_4">
        <g id="line2d_4">
          <path id="m582eb068a3-4" data-name="m582eb068a3" class="cls-9" d="M249.02,488.61v3.5"/>
        </g>
        <g id="text_4">
          <g>
            <path id="DejaVuSans-37" d="M243.48,495.92h4.69v.42l-2.65,6.87h-1.03l2.49-6.46h-3.5v-.83Z"/>
            <path id="DejaVuSans-35-3" data-name="DejaVuSans-35" d="M250.1,495.92h3.87v.83h-2.97v1.79c.14-.05.29-.09.43-.11.14-.02.29-.04.43-.04.81,0,1.46.22,1.93.67.48.45.71,1.05.71,1.81s-.24,1.39-.73,1.83c-.49.43-1.18.65-2.07.65-.31,0-.62-.03-.94-.08-.32-.05-.64-.13-.98-.23v-.99c.29.16.6.28.91.36s.64.12.99.12c.56,0,1.01-.15,1.34-.44.33-.3.49-.7.49-1.21s-.16-.91-.49-1.2c-.33-.3-.77-.45-1.34-.45-.26,0-.53.03-.79.09-.26.06-.53.15-.8.27v-3.66Z"/>
          </g>
        </g>
      </g>
      <g id="xtick_5">
        <g id="line2d_5">
          <path id="m582eb068a3-5" data-name="m582eb068a3" class="cls-9" d="M312.7,488.61v3.5"/>
        </g>
        <g id="text_5">
          <g>
            <path id="DejaVuSans-31" d="M304.4,502.38h1.61v-5.56l-1.75.35v-.9l1.74-.35h.99v6.46h1.61v.83h-4.2v-.83Z"/>
            <path id="DejaVuSans-30-3" data-name="DejaVuSans-30" d="M312.7,496.57c-.51,0-.89.25-1.15.75-.26.5-.38,1.25-.38,2.25s.13,1.75.38,2.25c.26.5.64.75,1.15.75s.89-.25,1.15-.75c.26-.5.38-1.25.38-2.25s-.13-1.75-.38-2.25c-.26-.5-.64-.75-1.15-.75ZM312.7,495.78c.82,0,1.44.32,1.87.97.43.65.65,1.58.65,2.81s-.22,2.16-.65,2.81c-.43.65-1.06.97-1.87.97s-1.44-.32-1.87-.97c-.43-.65-.65-1.58-.65-2.81s.22-2.17.65-2.81c.43-.65,1.06-.97,1.87-.97Z"/>
            <path id="DejaVuSans-30-4" data-name="DejaVuSans-30" d="M319.06,496.57c-.51,0-.89.25-1.15.75-.26.5-.38,1.25-.38,2.25s.13,1.75.38,2.25c.26.5.64.75,1.15.75s.89-.25,1.15-.75c.26-.5.38-1.25.38-2.25s-.13-1.75-.38-2.25c-.26-.5-.64-.75-1.15-.75ZM319.06,495.78c.82,0,1.44.32,1.87.97.43.65.65,1.58.65,2.81s-.22,2.16-.65,2.81c-.43.65-1.06.97-1.87.97s-1.44-.32-1.87-.97c-.43-.65-.65-1.58-.65-2.81s.22-2.17.65-2.81c.43-.65,1.06-.97,1.87-.97Z"/>
          </g>
        </g>
      </g>
      <g id="xtick_6">
        <g id="line2d_6">
          <path id="m582eb068a3-6" data-name="m582eb068a3" class="cls-9" d="M376.38,488.61v3.5"/>
        </g>
        <g id="text_6">
          <g>
            <path id="DejaVuSans-31-2" data-name="DejaVuSans-31" d="M368.08,502.38h1.61v-5.56l-1.75.35v-.9l1.74-.35h.99v6.46h1.61v.83h-4.2v-.83Z"/>
            <path id="DejaVuSans-32-2" data-name="DejaVuSans-32" d="M375.12,502.38h3.44v.83h-4.63v-.83c.37-.39.88-.91,1.53-1.56.65-.65,1.05-1.07,1.22-1.26.32-.35.54-.65.66-.9.13-.25.19-.49.19-.73,0-.39-.14-.7-.41-.95-.27-.24-.63-.37-1.06-.37-.31,0-.64.05-.98.16-.34.11-.71.27-1.1.49v-1c.4-.16.77-.28,1.11-.36.35-.08.66-.12.95-.12.76,0,1.36.19,1.81.57.45.38.67.88.67,1.51,0,.3-.06.58-.17.85-.11.27-.32.58-.61.95-.08.09-.34.37-.78.82-.44.45-1.05,1.08-1.85,1.89Z"/>
            <path id="DejaVuSans-35-4" data-name="DejaVuSans-35" d="M380.64,495.92h3.87v.83h-2.97v1.79c.14-.05.29-.09.43-.11.14-.02.29-.04.43-.04.81,0,1.46.22,1.93.67.48.45.71,1.05.71,1.81s-.24,1.39-.73,1.83c-.49.43-1.18.65-2.07.65-.31,0-.62-.03-.94-.08-.32-.05-.64-.13-.98-.23v-.99c.29.16.6.28.91.36s.64.12.99.12c.56,0,1.01-.15,1.34-.44.33-.3.49-.7.49-1.21s-.16-.91-.49-1.2c-.33-.3-.77-.45-1.34-.45-.26,0-.53.03-.79.09-.26.06-.53.15-.8.27v-3.66Z"/>
          </g>
        </g>
      </g>
      <g id="xtick_7">
        <g id="line2d_7">
          <path id="m582eb068a3-7" data-name="m582eb068a3" class="cls-9" d="M440.06,488.61v3.5"/>
        </g>
        <g id="text_7">
          <g>
            <path id="DejaVuSans-31-3" data-name="DejaVuSans-31" d="M431.76,502.38h1.61v-5.56l-1.75.35v-.9l1.74-.35h.99v6.46h1.61v.83h-4.2v-.83Z"/>
            <path id="DejaVuSans-35-5" data-name="DejaVuSans-35" d="M437.96,495.92h3.87v.83h-2.97v1.79c.14-.05.29-.09.43-.11.14-.02.29-.04.43-.04.81,0,1.46.22,1.93.67.48.45.71,1.05.71,1.81s-.24,1.39-.73,1.83c-.49.43-1.18.65-2.07.65-.31,0-.62-.03-.94-.08-.32-.05-.64-.13-.98-.23v-.99c.29.16.6.28.91.36s.64.12.99.12c.56,0,1.01-.15,1.34-.44.33-.3.49-.7.49-1.21s-.16-.91-.49-1.2c-.33-.3-.77-.45-1.34-.45-.26,0-.53.03-.79.09-.26.06-.53.15-.8.27v-3.66Z"/>
            <path id="DejaVuSans-30-5" data-name="DejaVuSans-30" d="M446.42,496.57c-.51,0-.89.25-1.15.75-.26.5-.38,1.25-.38,2.25s.13,1.75.38,2.25c.26.5.64.75,1.15.75s.89-.25,1.15-.75c.26-.5.38-1.25.38-2.25s-.13-1.75-.38-2.25c-.26-.5-.64-.75-1.15-.75ZM446.42,495.78c.82,0,1.44.32,1.87.97.43.65.65,1.58.65,2.81s-.22,2.16-.65,2.81c-.43.65-1.06.97-1.87.97s-1.44-.32-1.87-.97c-.43-.65-.65-1.58-.65-2.81s.22-2.17.65-2.81c.43-.65,1.06-.97,1.87-.97Z"/>
          </g>
        </g>
      </g>
      <g id="xtick_8">
        <g id="line2d_8">
          <path id="m582eb068a3-8" data-name="m582eb068a3" class="cls-9" d="M503.74,488.61v3.5"/>
        </g>
        <g id="text_8">
          <g>
            <path id="DejaVuSans-31-4" data-name="DejaVuSans-31" d="M495.43,502.38h1.61v-5.56l-1.75.35v-.9l1.74-.35h.99v6.46h1.61v.83h-4.2v-.83Z"/>
            <path id="DejaVuSans-37-2" data-name="DejaVuSans-37" d="M501.38,495.92h4.69v.42l-2.65,6.87h-1.03l2.49-6.46h-3.5v-.83Z"/>
            <path id="DejaVuSans-35-6" data-name="DejaVuSans-35" d="M508,495.92h3.87v.83h-2.97v1.79c.14-.05.29-.09.43-.11.14-.02.29-.04.43-.04.81,0,1.46.22,1.93.67.48.45.71,1.05.71,1.81s-.24,1.39-.73,1.83c-.49.43-1.18.65-2.07.65-.31,0-.62-.03-.94-.08-.32-.05-.64-.13-.98-.23v-.99c.29.16.6.28.91.36s.64.12.99.12c.56,0,1.01-.15,1.34-.44.33-.3.49-.7.49-1.21s-.16-.91-.49-1.2c-.33-.3-.77-.45-1.34-.45-.26,0-.53.03-.79.09-.26.06-.53.15-.8.27v-3.66Z"/>
          </g>
        </g>
      </g>
      <g id="xtick_9">
        <g id="line2d_9">
          <path id="m582eb068a3-9" data-name="m582eb068a3" class="cls-9" d="M567.42,488.61v3.5"/>
        </g>
        <g id="text_9">
          <g>
            <path id="DejaVuSans-32-3" data-name="DejaVuSans-32" d="M559.79,502.38h3.44v.83h-4.63v-.83c.37-.39.88-.91,1.53-1.56.65-.65,1.05-1.07,1.22-1.26.32-.35.54-.65.66-.9.13-.25.19-.49.19-.73,0-.39-.14-.7-.41-.95-.27-.24-.63-.37-1.06-.37-.31,0-.64.05-.98.16-.34.11-.71.27-1.1.49v-1c.4-.16.77-.28,1.11-.36.35-.08.66-.12.95-.12.76,0,1.36.19,1.81.57.45.38.67.88.67,1.51,0,.3-.06.58-.17.85-.11.27-.32.58-.61.95-.08.09-.34.37-.78.82-.44.45-1.05,1.08-1.85,1.89Z"/>
            <path id="DejaVuSans-30-6" data-name="DejaVuSans-30" d="M567.41,496.57c-.51,0-.89.25-1.15.75-.26.5-.38,1.25-.38,2.25s.13,1.75.38,2.25c.26.5.64.75,1.15.75s.89-.25,1.15-.75c.26-.5.38-1.25.38-2.25s-.13-1.75-.38-2.25c-.26-.5-.64-.75-1.15-.75ZM567.41,495.78c.82,0,1.44.32,1.87.97.43.65.65,1.58.65,2.81s-.22,2.16-.65,2.81c-.43.65-1.06.97-1.87.97s-1.44-.32-1.87-.97c-.43-.65-.65-1.58-.65-2.81s.22-2.17.65-2.81c.43-.65,1.06-.97,1.87-.97Z"/>
            <path id="DejaVuSans-30-7" data-name="DejaVuSans-30" d="M573.78,496.57c-.51,0-.89.25-1.15.75-.26.5-.38,1.25-.38,2.25s.13,1.75.38,2.25c.26.5.64.75,1.15.75s.89-.25,1.15-.75c.26-.5.38-1.25.38-2.25s-.13-1.75-.38-2.25c-.26-.5-.64-.75-1.15-.75ZM573.78,495.78c.82,0,1.44.32,1.87.97.43.65.65,1.58.65,2.81s-.22,2.16-.65,2.81c-.43.65-1.06.97-1.87.97s-1.44-.32-1.87-.97c-.43-.65-.65-1.58-.65-2.81s.22-2.17.65-2.81c.43-.65,1.06-.97,1.87-.97Z"/>
          </g>
        </g>
      </g>
      <g id="ytick_1">
        <g id="line2d_10">
          <path id="mf6e203f7c0" class="cls-9" d="M57.99,488.61h-3.5"/>
        </g>
        <g id="text_10">
          <g>
            <path id="DejaVuSans-31-5" data-name="DejaVuSans-31" d="M24.33,491.5h1.61v-5.56l-1.75.35v-.9l1.74-.35h.99v6.46h1.61v.83h-4.2v-.83Z"/>
            <path id="DejaVuSans-30-8" data-name="DejaVuSans-30" d="M32.63,485.69c-.51,0-.89.25-1.15.75-.26.5-.38,1.25-.38,2.25s.13,1.75.38,2.25c.26.5.64.75,1.15.75s.89-.25,1.15-.75c.26-.5.38-1.25.38-2.25s-.13-1.75-.38-2.25c-.26-.5-.64-.75-1.15-.75ZM32.63,484.91c.82,0,1.44.32,1.87.97.43.65.65,1.58.65,2.81s-.22,2.16-.65,2.81c-.43.65-1.06.97-1.87.97s-1.44-.32-1.87-.97c-.43-.65-.65-1.58-.65-2.81s.22-2.17.65-2.81c.43-.65,1.06-.97,1.87-.97Z"/>
            <path id="DejaVuSans-2212" d="M36.65,486.02h4.38v.58h-4.38v-.58Z"/>
            <path id="DejaVuSans-31-6" data-name="DejaVuSans-31" d="M42.64,487.92h1.13v-3.89l-1.23.25v-.63l1.22-.25h.69v4.52h1.13v.58h-2.94v-.58Z"/>
            <path id="DejaVuSans-30-9" data-name="DejaVuSans-30" d="M48.45,483.85c-.36,0-.62.18-.8.53-.18.35-.27.88-.27,1.58s.09,1.22.27,1.57c.18.35.45.53.8.53s.63-.18.81-.53c.18-.35.27-.87.27-1.57s-.09-1.23-.27-1.58c-.18-.35-.45-.53-.81-.53ZM48.45,483.31c.57,0,1.01.23,1.31.68.3.45.45,1.11.45,1.97s-.15,1.51-.45,1.97c-.3.45-.74.68-1.31.68s-1.01-.23-1.31-.68c-.3-.45-.45-1.11-.45-1.97s.15-1.52.45-1.97c.3-.45.74-.68,1.31-.68Z"/>
          </g>
        </g>
      </g>
      <g id="ytick_2">
        <g id="line2d_11">
          <path id="mf6e203f7c0-2" data-name="mf6e203f7c0" class="cls-9" d="M57.99,391.68h-3.5"/>
        </g>
        <g id="text_11">
          <g>
            <path id="DejaVuSans-31-7" data-name="DejaVuSans-31" d="M28.73,394.58h1.61v-5.56l-1.75.35v-.9l1.74-.35h.99v6.46h1.61v.83h-4.2v-.83Z"/>
            <path id="DejaVuSans-30-10" data-name="DejaVuSans-30" d="M37.03,388.77c-.51,0-.89.25-1.15.75-.26.5-.38,1.25-.38,2.25s.13,1.75.38,2.25c.26.5.64.75,1.15.75s.89-.25,1.15-.75c.26-.5.38-1.25.38-2.25s-.13-1.75-.38-2.25c-.26-.5-.64-.75-1.15-.75ZM37.03,387.99c.82,0,1.44.32,1.87.97.43.65.65,1.58.65,2.81s-.22,2.16-.65,2.81c-.43.65-1.06.97-1.87.97s-1.44-.32-1.87-.97c-.43-.65-.65-1.58-.65-2.81s.22-2.17.65-2.81c.43-.65,1.06-.97,1.87-.97Z"/>
            <path id="DejaVuSans-2212-2" data-name="DejaVuSans-2212" d="M41.05,389.1h4.38v.58h-4.38v-.58Z"/>
            <path id="DejaVuSans-35-7" data-name="DejaVuSans-35" d="M46.93,386.48h2.71v.58h-2.08v1.25c.1-.03.2-.06.3-.08.1-.02.2-.03.3-.03.57,0,1.02.16,1.35.47.33.31.5.73.5,1.27s-.17.98-.51,1.28c-.34.3-.82.46-1.45.46-.21,0-.43-.02-.66-.05-.22-.04-.45-.09-.69-.16v-.69c.2.11.42.19.64.25s.45.08.69.08c.39,0,.71-.1.94-.31.23-.21.35-.49.35-.84s-.12-.64-.35-.84c-.23-.21-.54-.31-.94-.31-.18,0-.37.02-.55.06-.18.04-.37.1-.56.19v-2.56Z"/>
          </g>
        </g>
      </g>
      <g id="ytick_3">
        <g id="line2d_12">
          <path id="mf6e203f7c0-3" data-name="mf6e203f7c0" class="cls-9" d="M57.99,294.76h-3.5"/>
        </g>
        <g id="text_12">
          <g>
            <path id="DejaVuSans-31-8" data-name="DejaVuSans-31" d="M34.63,297.65h1.61v-5.56l-1.75.35v-.9l1.74-.35h.99v6.46h1.61v.83h-4.2v-.83Z"/>
            <path id="DejaVuSans-30-11" data-name="DejaVuSans-30" d="M42.93,291.84c-.51,0-.89.25-1.15.75-.26.5-.38,1.25-.38,2.25s.13,1.75.38,2.25c.26.5.64.75,1.15.75s.89-.25,1.15-.75c.26-.5.38-1.25.38-2.25s-.13-1.75-.38-2.25c-.26-.5-.64-.75-1.15-.75ZM42.93,291.06c.82,0,1.44.32,1.87.97.43.65.65,1.58.65,2.81s-.22,2.16-.65,2.81c-.43.65-1.06.97-1.87.97s-1.44-.32-1.87-.97c-.43-.65-.65-1.58-.65-2.81s.22-2.17.65-2.81c.43-.65,1.06-.97,1.87-.97Z"/>
            <path id="DejaVuSans-30-12" data-name="DejaVuSans-30" d="M48.43,290c-.36,0-.62.18-.8.53-.18.35-.27.88-.27,1.58s.09,1.22.27,1.57c.18.35.45.53.8.53s.63-.18.81-.53c.18-.35.27-.87.27-1.57s-.09-1.23-.27-1.58c-.18-.35-.45-.53-.81-.53ZM48.43,289.46c.57,0,1.01.23,1.31.68.3.45.45,1.11.45,1.97s-.15,1.51-.45,1.97c-.3.45-.74.68-1.31.68s-1.01-.23-1.31-.68c-.3-.45-.45-1.11-.45-1.97s.15-1.52.45-1.97c.3-.45.74-.68,1.31-.68Z"/>
          </g>
        </g>
      </g>
      <g id="ytick_4">
        <g id="line2d_13">
          <path id="mf6e203f7c0-4" data-name="mf6e203f7c0" class="cls-9" d="M57.99,197.83h-3.5"/>
        </g>
        <g id="text_13">
          <g>
            <path id="DejaVuSans-31-9" data-name="DejaVuSans-31" d="M34.63,200.73h1.61v-5.56l-1.75.35v-.9l1.74-.35h.99v6.46h1.61v.83h-4.2v-.83Z"/>
            <path id="DejaVuSans-30-13" data-name="DejaVuSans-30" d="M42.93,194.92c-.51,0-.89.25-1.15.75-.26.5-.38,1.25-.38,2.25s.13,1.75.38,2.25c.26.5.64.75,1.15.75s.89-.25,1.15-.75c.26-.5.38-1.25.38-2.25s-.13-1.75-.38-2.25c-.26-.5-.64-.75-1.15-.75ZM42.93,194.14c.82,0,1.44.32,1.87.97.43.65.65,1.58.65,2.81s-.22,2.16-.65,2.81c-.43.65-1.06.97-1.87.97s-1.44-.32-1.87-.97c-.43-.65-.65-1.58-.65-2.81s.22-2.17.65-2.81c.43-.65,1.06-.97,1.87-.97Z"/>
            <path id="DejaVuSans-35-8" data-name="DejaVuSans-35" d="M46.96,192.63h2.71v.58h-2.08v1.25c.1-.03.2-.06.3-.08.1-.02.2-.03.3-.03.57,0,1.02.16,1.35.47.33.31.5.73.5,1.27s-.17.98-.51,1.28c-.34.3-.82.46-1.45.46-.21,0-.43-.02-.66-.05-.22-.04-.45-.09-.69-.16v-.69c.2.11.42.19.64.25s.45.08.69.08c.39,0,.71-.1.94-.31.23-.21.35-.49.35-.84s-.12-.64-.35-.84c-.23-.21-.54-.31-.94-.31-.18,0-.37.02-.55.06-.18.04-.37.1-.56.19v-2.56Z"/>
          </g>
        </g>
      </g>
      <g id="ytick_5">
        <g id="line2d_14">
          <path id="mf6e203f7c0-5" data-name="mf6e203f7c0" class="cls-9" d="M57.99,100.9h-3.5"/>
        </g>
        <g id="text_14">
          <g>
            <path id="DejaVuSans-31-10" data-name="DejaVuSans-31" d="M30.13,103.8h1.61v-5.56l-1.75.35v-.9l1.74-.35h.99v6.46h1.61v.83h-4.2v-.83Z"/>
            <path id="DejaVuSans-30-14" data-name="DejaVuSans-30" d="M38.43,97.99c-.51,0-.89.25-1.15.75-.26.5-.38,1.25-.38,2.25s.13,1.75.38,2.25c.26.5.64.75,1.15.75s.89-.25,1.15-.75c.26-.5.38-1.25.38-2.25s-.13-1.75-.38-2.25c-.26-.5-.64-.75-1.15-.75ZM38.43,97.2c.82,0,1.44.32,1.87.97.43.65.65,1.58.65,2.81s-.22,2.16-.65,2.81c-.43.65-1.06.97-1.87.97s-1.44-.32-1.87-.97c-.43-.65-.65-1.58-.65-2.81s.22-2.17.65-2.81c.43-.65,1.06-.97,1.87-.97Z"/>
            <path id="DejaVuSans-31-11" data-name="DejaVuSans-31" d="M42.58,100.22h1.13v-3.89l-1.23.25v-.63l1.22-.25h.69v4.52h1.13v.58h-2.94v-.58Z"/>
            <path id="DejaVuSans-30-15" data-name="DejaVuSans-30" d="M48.39,96.15c-.36,0-.62.18-.8.53-.18.35-.27.88-.27,1.58s.09,1.22.27,1.57c.18.35.45.53.8.53s.63-.18.81-.53c.18-.35.27-.87.27-1.57s-.09-1.23-.27-1.58c-.18-.35-.45-.53-.81-.53ZM48.39,95.6c.57,0,1.01.23,1.31.68.3.45.45,1.11.45,1.97s-.15,1.51-.45,1.97c-.3.45-.74.68-1.31.68s-1.01-.23-1.31-.68c-.3-.45-.45-1.11-.45-1.97s.15-1.52.45-1.97c.3-.45.74-.68,1.31-.68Z"/>
          </g>
        </g>
      </g>
      <g class="cls-17">
        <path class="cls-8" d="M60.54,303.18l1.01-10.76,1.01-7.2,1.01-5.08,1.01-3.67,1.01-2.66,1.01-1.91,1.01-1.32,1.01-.85,1.01-.47,1.01-.15,1.01.12,1.01.35,1.01.55,1.52,1.15,1.52,1.47,1.52,1.75,2.03,2.7,2.03,3.05,2.54,4.22,3.04,5.55,3.55,7.02,4.06,8.6,4.57,10.26,5.07,11.98,5.58,13.74,6.6,16.84,7.61,20.08,8.63,23.41,9.64,26.81,11.16,31.72,12.68,36.72,6.92,20.3h0"/>
      </g>
      <g class="cls-13">
        <path class="cls-7" d="M60.54,303.18l1.01-24.88,1.01-17.75,1.01-13.51,1.01-10.69,1.01-8.68,1.01-7.17,1.01-6,1.01-5.06,1.01-4.3,1.52-5.28,1.52-4.16,1.52-3.25,1.52-2.51,1.01-1.32,1.01-1.08,1.01-.85,1.01-.65,1.01-.47,1.01-.31,1.52-.18,1.52.13,1.52.4,1.52.64,1.52.86,2.03,1.45,2.03,1.76,2.03,2.03,2.54,2.88,2.54,3.22,3.04,4.26,3.04,4.63,3.55,5.82,4.06,7.12,4.06,7.56,4.57,8.96,5.07,10.44,5.58,11.99,6.09,13.6,6.6,15.26,7.61,18.19,8.12,19.99,9.13,23.1,10.15,26.31,11.16,29.6,12.18,32.95,13.19,36.35,14.71,41.22.6,1.69h0"/>
      </g>
      <g class="cls-16">
        <path class="cls-3" d="M60.54,303.18l1.01-38.99,1.01-28.3,1.01-21.94,1.01-17.71,1.01-14.69,1.01-12.43,1.52-15.47,1.52-12.6,1.52-10.44,1.52-8.75,1.52-7.39,1.52-6.28,1.52-5.35,1.52-4.56,1.52-3.88,1.52-3.29,1.52-2.78,1.52-2.32,1.52-1.92.54-.59M107.23,83.49l2.52,2.03,2.54,2.34,2.54,2.62,3.04,3.47,3.04,3.8,3.55,4.81,3.55,5.17,4.06,6.3,4.57,7.54,4.57,7.97,5.07,9.3,5.58,10.71,6.09,12.19,6.6,13.73,7.1,15.33,7.61,16.97,8.12,18.65,8.63,20.36,9.64,23.34,10.15,25.15,11.16,28.26,12.18,31.46,13.19,34.73,14.21,38.05,15.22,41.41,16.24,44.82,1.26,3.51h0"/>
      </g>
      <g class="cls-15">
        <path class="cls-5" d="M60.54,303.18l1.01-53.11,1.01-38.85,1.01-30.37,1.01-24.73,1.01-20.71,1.52-25.63,1.52-20.9.45-5.4M198.29,83.49l7.87,16.81,8.63,18.98,9.13,20.65,9.64,22.35,10.66,25.3,11.16,27.09,11.67,28.9,12.68,32.01,13.7,35.19,14.71,38.43,15.73,41.72,16.74,45.06,17.76,48.44,12,33.07h0"/>
      </g>
      <g class="cls-11">
        <path class="cls-2" d="M60.54,303.18l1.01-67.22,1.01-49.41,1.01-38.8,1.01-31.75,1.26-32.51M277.99,83.49l11.38,26.99,12.18,29.45,13.19,32.5,13.7,34.34,14.71,37.48,15.73,40.69,16.74,43.94,17.76,47.25,18.77,50.59,19.79,53.96,13.37,36.8h0"/>
      </g>
      <g class="cls-14">
        <path class="cls-1" d="M60.54,303.18l1.01-81.34,1.01-59.96,1.01-47.23.81-31.16M358.64,83.49l14.45,35.9,15.73,39.69,16.74,42.87,17.25,44.78,18.27,48.03,19.28,51.33,20.3,54.65,21.82,59.4,20.85,57.35h0"/>
      </g>
      <g class="cls-10">
        <path class="cls-1" d="M57.99,294.76h509.43"/>
      </g>
      <path class="cls-6" d="M57.99,488.61V100.9"/>
      <path class="cls-6" d="M567.42,488.61V100.9"/>
      <path class="cls-6" d="M57.99,488.61h509.43"/>
      <path class="cls-6" d="M57.99,100.9h509.43"/>
      <g>
        <path id="DejaVuSans-Oblique-4e" d="M417.97,183.1h2.66l4.03,12.5,2.44-12.5h1.93l-2.84,14.58h-2.67l-4.01-12.58-2.44,12.58h-1.93l2.84-14.58Z"/>
        <path id="DejaVuSans-33" d="M436.63,184.52c.66.14,1.18.44,1.55.88.37.45.56,1,.56,1.65,0,1.01-.35,1.79-1.04,2.34-.69.55-1.68.83-2.95.83-.43,0-.87-.04-1.32-.13-.45-.08-.92-.21-1.4-.38v-1.33c.38.22.8.39,1.26.51.46.11.93.17,1.43.17.86,0,1.52-.17,1.98-.51s.68-.84.68-1.49c0-.6-.21-1.07-.63-1.41-.42-.34-1.01-.51-1.76-.51h-1.19v-1.14h1.24c.68,0,1.2-.14,1.56-.41s.54-.66.54-1.17-.19-.93-.56-1.21c-.37-.28-.9-.42-1.59-.42-.38,0-.79.04-1.22.12-.43.08-.91.21-1.43.38v-1.23c.53-.15,1.02-.26,1.47-.33s.89-.11,1.3-.11c1.05,0,1.88.24,2.49.72.61.48.92,1.12.92,1.93,0,.57-.16,1.04-.49,1.43s-.78.66-1.38.81Z"/>
        <path id="DejaVuSans-30-16" data-name="DejaVuSans-30" d="M444.31,180.72c-.71,0-1.24.35-1.6,1.05-.36.7-.54,1.75-.54,3.15s.18,2.45.54,3.15c.36.7.89,1.05,1.6,1.05s1.25-.35,1.61-1.05c.36-.7.54-1.75.54-3.15s-.18-2.46-.54-3.15c-.36-.7-.89-1.05-1.61-1.05ZM444.31,179.63c1.14,0,2.02.45,2.62,1.36.6.9.91,2.22.91,3.94s-.3,3.03-.91,3.94c-.6.9-1.48,1.36-2.62,1.36s-2.02-.45-2.62-1.36c-.6-.91-.91-2.22-.91-3.94s.3-3.04.91-3.94c.6-.91,1.48-1.36,2.62-1.36Z"/>
        <path id="DejaVuSans-Oblique-65" d="M458.93,191.23c.02-.1.04-.21.04-.32.01-.11.02-.22.02-.33,0-.79-.23-1.42-.7-1.88-.46-.46-1.1-.69-1.9-.69-.89,0-1.68.28-2.37.85-.68.56-1.2,1.36-1.55,2.4h6.45ZM460.49,192.64h-8.36c-.04.25-.07.44-.08.59s-.02.27-.02.37c0,.9.28,1.6.83,2.1.56.49,1.34.74,2.36.74.78,0,1.52-.09,2.22-.26.7-.18,1.35-.43,1.94-.77l-.34,1.78c-.65.26-1.31.46-2,.58-.69.13-1.38.2-2.09.2-1.52,0-2.68-.36-3.5-1.09-.82-.73-1.23-1.76-1.23-3.09,0-1.14.2-2.2.61-3.18.41-.98,1-1.85,1.79-2.62.51-.48,1.11-.85,1.81-1.11s1.44-.39,2.23-.39c1.24,0,2.22.37,2.95,1.11.73.74,1.1,1.74,1.1,2.99,0,.3-.02.62-.06.96-.04.34-.1.71-.18,1.1Z"/>
        <path id="DejaVuSans-2212-3" data-name="DejaVuSans-2212" d="M464.03,185.05h8.76v1.16h-8.76v-1.16Z"/>
        <path id="DejaVuSans-Oblique-4e-2" data-name="DejaVuSans-Oblique-4e" d="M476.64,179.81h1.86l2.82,8.75,1.71-8.75h1.35l-1.99,10.21h-1.87l-2.81-8.8-1.71,8.8h-1.35l1.99-10.21Z"/>
      </g>
    </g>
  </g>
</svg>