<?xml version="1.0" encoding="UTF-8"?>
<svg xmlns="http://www.w3.org/2000/svg" version="1.1" viewBox="0 0 600 600">
  <defs>
    <style>
      .cls-1, .cls-2, .cls-3, .cls-4, .cls-5, .cls-6 {
        fill: none;
        stroke-miterlimit: 10;
        stroke-width: 2px;
      }

      .cls-1, .cls-2, .cls-4 {
        stroke: #a91986;
      }

      .cls-2 {
        stroke-dasharray: 11.79 11.79 11.79 11.79 11.79 11.79;
      }

      .cls-7 {
        fill: #e60012;
      }

      .cls-3 {
        stroke: #e60012;
      }

      .cls-8 {
        fill: #a91986;
      }

      .cls-4 {
        stroke-dasharray: 11.79 11.79 11.79 11.79;
      }

      .cls-5 {
        stroke: #1d2088;
      }

      .cls-6 {
        stroke: #231815;
      }

      .cls-9 {
        fill: #1d2088;
      }
    </style>
  </defs>
  <!-- Generator: Adobe Illustrator 28.7.1, SVG Export Plug-In . SVG Version: 1.2.0 Build 142)  -->
  <g>
    <g id="_레이어_1" data-name="레이어_1">
      <path d="M212.69,490.32c-.13.38-.17.65-.13.81.04.16.13.25.25.27.12.02.26,0,.41-.07.15-.07.26-.12.33-.16.13-.07.28-.18.44-.33s.32-.31.47-.48c.15-.18.29-.35.42-.53.12-.18.22-.33.3-.46l.37.24c-.04.1-.14.27-.3.49-.15.23-.34.47-.56.72s-.46.51-.72.76-.53.45-.79.6-.52.25-.78.27c-.26.03-.49-.05-.69-.24-.25-.25-.38-.58-.38-1,0-.42.1-1.05.32-1.9-.18.29-.4.62-.66.99-.26.37-.56.71-.9,1.03-.34.32-.7.59-1.09.81s-.79.33-1.22.33c-.47,0-.85-.09-1.15-.26-.3-.18-.54-.4-.71-.67-.18-.27-.3-.57-.37-.9s-.11-.64-.11-.93c0-.5.08-1.03.24-1.6.16-.57.39-1.13.68-1.69.29-.56.64-1.09,1.03-1.59.4-.5.82-.95,1.27-1.34s.93-.7,1.43-.93c.5-.23,1-.35,1.52-.35.16,0,.34.02.53.05.19.04.37.11.55.23.18.12.34.29.49.52s.29.54.41.93l1.58-5.03c.09-.29.08-.51-.02-.65-.1-.14-.26-.23-.46-.27s-.44-.06-.69-.05c-.26,0-.48.01-.67.01l.04-.61c.47-.04.94-.1,1.43-.18.41-.07.85-.17,1.33-.29s.92-.28,1.33-.48l-4.74,13.91ZM213.11,484.85c0-.16,0-.36-.02-.6-.01-.24-.07-.47-.15-.69s-.22-.41-.41-.57c-.18-.16-.45-.24-.8-.24-.48,0-.92.13-1.3.39-.38.26-.72.57-1.01.93-.29.36-.54.72-.75,1.08-.21.36-.37.65-.5.85-.42.66-.76,1.36-1,2.11-.24.75-.36,1.42-.36,2,0,.13.02.29.05.48s.1.38.18.56c.08.18.19.34.33.47.14.13.31.2.52.2.34,0,.7-.13,1.1-.41.4-.27.79-.62,1.17-1.04.39-.42.76-.9,1.12-1.43.36-.53.67-1.05.94-1.56.27-.51.49-.99.65-1.45.16-.45.24-.82.24-1.09Z"/>
      <path d="M232.64,487.3c-.55,0-.98.08-1.27.24-.3.16-.54.37-.72.63l-6.49,9.24h-.3l-.49-9.36c0-.12,0-.23-.03-.32-.02-.1-.07-.17-.15-.23-.08-.06-.21-.11-.37-.14-.16-.04-.39-.05-.68-.05l.15-.45h4.22l-.15.45c-.4,0-.71.02-.93.06-.22.04-.39.1-.5.17s-.18.15-.2.24c-.02.09-.03.19-.02.29l.35,7.38,4.86-6.95c.32-.47.4-.79.22-.95-.17-.16-.54-.24-1.11-.24l.15-.45h3.61l-.15.45Z"/>
      <path d="M242.04,494.46c-.25.33-.55.68-.92,1.05-.37.37-.77.7-1.23,1.01-.45.31-.93.56-1.45.76-.51.2-1.04.3-1.57.3-.74,0-1.34-.15-1.82-.45-.47-.3-.82-.7-1.05-1.18s-.35-1.04-.35-1.67c0-.63.11-1.27.33-1.92.31-.93.73-1.76,1.24-2.46.52-.71,1.07-1.3,1.66-1.79.59-.48,1.18-.84,1.76-1.08.58-.24,1.09-.36,1.53-.36.3,0,.57.02.8.05.24.04.44.07.62.11.18.04.34.07.47.1.13.02.25.03.34,0,.14-.03.27-.09.41-.17.14-.08.29-.17.48-.25l.1,2.76-.41.18c-.05-.14-.13-.34-.25-.61-.12-.27-.29-.53-.49-.79-.21-.26-.47-.49-.77-.68-.31-.19-.67-.29-1.08-.29-.64,0-1.23.17-1.75.5s-1,.74-1.42,1.24c-.42.49-.77,1.02-1.06,1.58-.29.56-.51,1.08-.67,1.54-.09.27-.17.58-.24.93-.07.35-.12.7-.13,1.06-.01.36.02.7.08,1.04.07.34.19.64.37.9.18.27.42.48.73.64.31.16.71.24,1.19.24s.95-.09,1.38-.29c.44-.19.84-.42,1.2-.69.36-.27.69-.54.97-.84.28-.29.51-.54.68-.74l.29.27Z"/>
      <path d="M224.4,472.07c.05.08.07.16.05.24-.01.08-.05.16-.09.23s-.11.14-.18.2c-.07.06-.14.11-.21.14-.46.27-.93.47-1.43.59.24.09.48.18.72.28.24.1.47.21.69.34.06.04.12.09.2.15.07.06.14.13.19.2.05.08.09.15.1.23.01.08,0,.16-.07.24-.04.09-.09.15-.17.17-.07.02-.15.03-.24.02-.09,0-.17-.04-.25-.08-.08-.04-.16-.08-.23-.11-.22-.12-.44-.27-.64-.45-.2-.17-.4-.35-.58-.53.05.27.09.54.13.81.04.27.06.53.07.79,0,.08-.02.17-.04.26-.01.1-.04.18-.07.26-.03.08-.08.15-.14.2-.06.06-.14.08-.23.07-.1.01-.17-.01-.23-.07-.06-.06-.1-.12-.13-.2-.03-.08-.05-.17-.07-.26-.01-.09-.02-.18-.02-.26,0-.52.06-1.05.2-1.58-.19.16-.39.33-.59.5-.2.17-.42.32-.65.45-.06.04-.13.08-.21.11s-.17.06-.25.06c-.09,0-.17,0-.25-.03-.08-.03-.14-.08-.17-.17-.05-.08-.06-.16-.04-.24.02-.08.06-.16.11-.23.05-.07.12-.13.19-.19.07-.05.14-.1.2-.14.21-.14.44-.26.68-.35.24-.1.48-.18.74-.25-.22-.09-.46-.19-.7-.29-.24-.1-.48-.22-.7-.35-.06-.03-.12-.08-.2-.14-.07-.06-.14-.13-.19-.2-.05-.08-.09-.15-.1-.23-.01-.08,0-.17.05-.26.04-.08.1-.13.17-.16.08-.02.16-.03.25-.01.09.01.17.04.25.08.08.04.15.07.21.1.23.13.45.28.65.45.2.17.4.34.59.53-.06-.26-.11-.52-.15-.79-.04-.27-.06-.54-.06-.81,0-.07,0-.15.01-.24,0-.09.03-.18.07-.26.03-.09.08-.16.14-.21.06-.06.14-.08.23-.08s.18.03.24.08c.06.05.11.12.15.21.03.08.06.17.07.26,0,.09.01.17.01.24,0,.27-.02.54-.06.81-.04.27-.1.53-.17.78.21-.17.42-.34.62-.51.2-.17.41-.31.62-.42.07-.04.15-.08.23-.11.09-.04.17-.06.26-.07.09,0,.17,0,.25.02.08.03.14.08.17.17Z"/>
      <g>
        <path d="M69.97,312.81l-2.85.59.48-.83v5.74h-.58v-6.14l2.94-.1v.74ZM78.73,319.19c-.9-.02-1.8-.04-2.7-.04-.91,0-1.81,0-2.72,0h-.85c-.92,0-1.83,0-2.73,0s-1.81.02-2.71.04v-1.74c.9.01,1.81.02,2.73.02.92,0,1.88,0,2.87,0h.38c1.06,0,2.05,0,2.98,0,.93,0,1.85-.01,2.75-.02v1.74ZM67.52,320.78h-.5v-2.46h.69v.19l-.19,2.27ZM74.69,314.57l-1.78.22h-.34l-1.73-.22v-.61h3.84v.61ZM73.05,318.31h-.54v-3.87h.54v3.87ZM78.73,318.31h-.56v-6.03l.45.83-2.88-.61v-.72l2.99.08v6.45ZM78.73,320.78h-.5l-.21-2.27v-.19h.7v2.46Z"/>
        <path d="M73.63,307.59l-.88.4v-.32c-.53-.17-.99-.4-1.38-.68-.39-.28-.69-.6-.9-.96-.21-.36-.32-.72-.32-1.1,0-.32.07-.6.2-.84.13-.24.34-.4.63-.47.29,0,.52.07.7.22s.27.37.27.68c0,.21-.06.41-.18.58-.12.17-.28.35-.5.54l-.37.37.03-.69c.18.52.48.97.9,1.34.42.37,1.02.68,1.78.94ZM78.73,309.19c-.27,0-.62-.02-1.06-.02s-.9-.01-1.38-.02c-.48,0-.9,0-1.25,0h-1.04c-.55,0-1.04,0-1.44,0-.41,0-.8.02-1.18.04l-.1,1.36h-.4l-.7-2.66.13-.21,2.26-.1h2.48c.35,0,.77,0,1.25,0,.48,0,.94-.01,1.38-.02.44,0,.79-.01,1.06-.02v1.65ZM78.73,310.46h-.45l-.19-1.74v-.88l.19-1.79h.45v4.42Z"/>
        <path d="M73.63,300.02l-.88.4v-.32c-.53-.17-.99-.4-1.38-.68-.39-.28-.69-.6-.9-.96-.21-.36-.32-.72-.32-1.1,0-.32.07-.6.2-.84.13-.24.34-.4.63-.47.29,0,.52.07.7.22s.27.37.27.68c0,.21-.06.41-.18.58-.12.17-.28.35-.5.54l-.37.37.03-.69c.18.52.48.97.9,1.34.42.37,1.02.68,1.78.94ZM78.73,301.62c-.27,0-.62-.02-1.06-.02s-.9-.01-1.38-.02c-.48,0-.9,0-1.25,0h-1.04c-.55,0-1.04,0-1.44,0-.41,0-.8.02-1.18.04l-.1,1.36h-.4l-.7-2.66.13-.21,2.26-.1h2.48c.35,0,.77,0,1.25,0,.48,0,.94-.01,1.38-.02s.79-.01,1.06-.02v1.65ZM78.73,302.89h-.45l-.19-1.74v-.88l.19-1.79h.45v4.42Z"/>
        <path d="M78.97,291.45c0,.75-.17,1.43-.5,2.05s-.83,1.11-1.5,1.48c-.66.37-1.47.55-2.42.55s-1.77-.19-2.42-.58c-.66-.38-1.15-.89-1.49-1.51s-.5-1.29-.5-1.99.17-1.4.5-2.02.83-1.13,1.49-1.51c.66-.38,1.46-.58,2.42-.58s1.75.19,2.42.57,1.16.88,1.5,1.5.5,1.3.5,2.05ZM78.46,291.45c0-.76-.33-1.35-.99-1.78s-1.63-.64-2.9-.64-2.24.21-2.9.64c-.67.43-1,1.02-1,1.78s.33,1.33,1,1.76c.67.43,1.63.64,2.9.64s2.24-.21,2.9-.64c.66-.43.99-1.01.99-1.76Z"/>
        <path d="M73.63,283.1l-.88.4v-.32c-.53-.17-.99-.4-1.38-.68-.39-.28-.69-.6-.9-.96-.21-.36-.32-.72-.32-1.1,0-.32.07-.6.2-.84.13-.24.34-.4.63-.47.29,0,.52.07.7.22s.27.37.27.68c0,.21-.06.41-.18.58-.12.17-.28.35-.5.54l-.37.37.03-.69c.18.52.48.97.9,1.34.42.37,1.02.68,1.78.94ZM78.73,284.7c-.27-.01-.62-.02-1.06-.02-.44,0-.9-.01-1.38-.02-.48,0-.9,0-1.25,0h-1.04c-.55,0-1.04,0-1.44,0s-.8.02-1.18.04l-.1,1.36h-.4l-.7-2.66.13-.21,2.26-.1h2.48c.35,0,.77,0,1.25,0,.48,0,.94-.01,1.38-.02s.79-.01,1.06-.02v1.65ZM78.73,285.96h-.45l-.19-1.74v-.88l.19-1.79h.45v4.42Z"/>
      </g>
    </g>
    <g id="_레이어_2" data-name="레이어_2">
      <polyline class="cls-6" points="95.91 141.57 95.91 462.96 500.25 462.96"/>
      <path class="cls-5" d="M107.94,211.35s29.74,191.35,211.3,215.22l176.35,20.87"/>
      <path class="cls-1" d="M105.98,162.3s14.91,110.48,193.52,66.26l178.61-44.22"/>
      <path class="cls-3" d="M107.94,415.61s31.74-86.87,200.57-150.26l168.83-63.39"/>
      <g>
        <line class="cls-1" x1="219.59" y1="458.91" x2="219.59" y2="452.91"/>
        <line class="cls-4" x1="219.59" y1="441.13" x2="219.59" y2="399.88"/>
        <line class="cls-2" x1="219.59" y1="393.99" x2="219.59" y2="258.46"/>
        <line class="cls-1" x1="219.59" y1="252.57" x2="219.59" y2="246.57"/>
      </g>
      <text/>
      <g>
        <path class="cls-8" d="M382.77,173.21c-.75,0-1.43-.17-2.05-.5-.62-.34-1.11-.83-1.48-1.5-.37-.66-.55-1.47-.55-2.42s.19-1.77.58-2.42c.38-.66.89-1.15,1.51-1.49s1.29-.5,1.99-.5,1.4.17,2.02.5,1.13.83,1.51,1.49c.38.66.58,1.46.58,2.42s-.19,1.75-.57,2.42c-.38.66-.88,1.16-1.5,1.5-.62.34-1.3.5-2.05.5ZM382.77,172.7c.76,0,1.35-.33,1.78-.99.43-.66.64-1.63.64-2.9s-.21-2.24-.64-2.9-1.02-1-1.78-1-1.33.33-1.76,1-.64,1.63-.64,2.9.21,2.23.64,2.9c.43.66,1.01.99,1.76.99Z"/>
        <path class="cls-8" d="M391.73,173.21c-.76,0-1.35-.24-1.78-.71-.43-.47-.63-1.31-.62-2.5l.05-4.83.38.3-1.66-.26v-.42l2.7-.29.18.18-.08,2.16v3.2c0,.81.13,1.38.4,1.7s.65.48,1.15.48.94-.14,1.39-.42.85-.66,1.2-1.14l.42.67h-.51c-.41.55-.88,1.01-1.41,1.36s-1.14.53-1.81.53ZM394.85,173.13l-.06-1.97v-.02l.03-5.76-1.26-.16v-.4l2.69-.32.16.18-.06,2.16v5.57l1.17.11v.45l-2.66.16Z"/>
        <path class="cls-8" d="M401.95,173.21c-.69,0-1.21-.18-1.55-.54-.34-.36-.51-.91-.51-1.66,0-.27,0-.51,0-.72,0-.21,0-.47,0-.77v-4.3h-1.54v-.5l1.87-.14-.3.22.56-2.7h1.02l-.05,2.77v6.19c0,.48.09.83.28,1.05.19.22.45.33.79.33.23,0,.44-.04.62-.11.18-.07.37-.18.58-.32l.24.29c-.22.3-.5.53-.83.68-.33.15-.73.23-1.2.23ZM400.69,165.23v-.61h3.01v.61h-3.01Z"/>
        <path class="cls-8" d="M404.4,169.07v-.88h4.24v.88h-4.24Z"/>
        <path class="cls-8" d="M414.27,173.21c-.75,0-1.43-.17-2.05-.5-.62-.34-1.11-.83-1.48-1.5-.37-.66-.55-1.47-.55-2.42s.19-1.77.58-2.42c.38-.66.89-1.15,1.51-1.49s1.29-.5,1.99-.5,1.4.17,2.02.5,1.13.83,1.51,1.49c.38.66.58,1.46.58,2.42s-.19,1.75-.57,2.42c-.38.66-.88,1.16-1.5,1.5-.62.34-1.3.5-2.05.5ZM414.27,172.7c.76,0,1.35-.33,1.78-.99.43-.66.64-1.63.64-2.9s-.21-2.24-.64-2.9-1.02-1-1.78-1-1.33.33-1.76,1-.64,1.63-.64,2.9.21,2.23.64,2.9c.43.66,1.01.99,1.76.99Z"/>
        <path class="cls-8" d="M421.04,172.97c.02-.61.04-1.22.05-1.84s.02-1.23.02-1.84v-4.06h-1.47v-.5l2.03-.18-.58.29.02-.11c.05-1.02.2-1.84.44-2.45s.57-1.11.98-1.5c.36-.33.74-.57,1.14-.71s.79-.22,1.2-.22.77.07,1.09.22.52.37.61.67c-.01.21-.09.39-.24.54s-.36.22-.62.22c-.22,0-.43-.06-.63-.19-.2-.13-.41-.33-.63-.61l-.42-.5v-.14h.69v.13c-.3.03-.57.13-.82.3s-.46.37-.62.62c-.17.28-.31.59-.41.93-.1.34-.17.75-.19,1.23s-.03,1.06,0,1.74v4.29c0,.61,0,1.22.02,1.84s.03,1.23.05,1.84h-1.68ZM419.7,172.97v-.45l1.84-.18h.83l1.94.18v.45h-4.61ZM421.89,165.23v-.61h3.15v.61h-3.15Z"/>
        <path class="cls-8" d="M425.55,169.07v-.88h4.24v.88h-4.24Z"/>
        <path class="cls-8" d="M434.1,173.21c-.54,0-1.03-.06-1.46-.17-.43-.11-.87-.28-1.3-.5l.02-1.95h.75l.42,2.08-.64-.05v-.58c.32.2.64.36.97.47s.72.17,1.18.17c.69,0,1.22-.14,1.57-.41.35-.27.53-.64.53-1.1,0-.38-.12-.7-.35-.94-.23-.25-.68-.47-1.34-.67l-.85-.3c-.65-.22-1.17-.53-1.56-.9-.39-.38-.58-.88-.58-1.5,0-.7.27-1.29.81-1.77.54-.47,1.31-.71,2.31-.71.5,0,.94.06,1.33.18.38.12.78.3,1.2.54l-.06,1.76h-.69l-.45-1.94.54.13v.51c-.32-.23-.62-.4-.91-.5-.29-.1-.6-.14-.94-.14-.59,0-1.04.13-1.34.39-.31.26-.46.6-.46,1.02,0,.36.12.66.38.9.25.24.67.46,1.26.66l.83.29c.82.28,1.41.61,1.75,1.01s.52.88.52,1.46c0,.49-.13.93-.39,1.32-.26.39-.64.69-1.14.91-.5.22-1.12.33-1.86.33Z"/>
        <path class="cls-8" d="M441.17,173.21c-.64,0-1.17-.18-1.6-.54-.43-.36-.64-.88-.64-1.55,0-.43.09-.81.28-1.14.19-.33.5-.63.94-.89s1.02-.5,1.76-.71c.44-.13.91-.26,1.41-.38.5-.13.96-.25,1.39-.35v.4c-.43.11-.86.22-1.29.34-.43.12-.82.25-1.16.38-.65.25-1.12.54-1.4.89s-.42.76-.42,1.24.13.86.39,1.1c.26.25.61.37,1.03.37.22,0,.45-.04.67-.13.22-.09.48-.24.77-.47.29-.23.63-.55,1.02-.95l.16.78h-.43c-.32.35-.62.65-.91.89-.29.24-.59.42-.9.54s-.67.18-1.07.18ZM445.49,173.2c-.49,0-.86-.16-1.11-.48-.25-.32-.4-.76-.44-1.31v-4.27c0-.6-.06-1.06-.19-1.38-.13-.32-.32-.54-.58-.67-.26-.13-.6-.19-1.02-.19-.3,0-.6.04-.9.12-.3.08-.64.22-1,.41l.78-.43-.24,1.26c-.03.33-.12.57-.28.7-.16.14-.34.21-.55.21-.43,0-.69-.21-.78-.62.14-.67.5-1.2,1.1-1.58.59-.38,1.37-.58,2.34-.58s1.69.23,2.14.69c.46.46.69,1.2.69,2.22v4.02c0,.46.06.77.17.94.11.17.27.26.47.26.13,0,.25-.03.35-.1s.23-.18.37-.34l.26.22c-.17.31-.39.54-.65.68-.26.14-.57.22-.92.22Z"/>
        <path class="cls-8" d="M449.09,172.97c0-.27.02-.62.02-1.06,0-.44.01-.9.02-1.38,0-.48,0-.9,0-1.25v-1.06c0-.54,0-1.02,0-1.42,0-.41-.02-.81-.04-1.2l-1.36-.08v-.4l2.66-.7.21.13.1,1.81v2.93c0,.35,0,.77,0,1.25,0,.48.01.94.02,1.38,0,.44.01.79.02,1.06h-1.65ZM447.82,172.97v-.45l1.73-.18h.66l1.68.18v.45h-4.06ZM454.38,172.97c.01-.27.02-.62.02-1.05,0-.43.01-.89.02-1.37,0-.48,0-.9,0-1.26v-1.89c0-.77-.12-1.31-.36-1.62-.24-.31-.57-.47-.98-.47s-.82.13-1.28.4c-.46.27-.94.7-1.46,1.3l-.13-.62h.21c.5-.65,1.02-1.15,1.56-1.49.54-.34,1.11-.51,1.7-.51.71,0,1.27.24,1.66.71s.59,1.25.59,2.31v1.89c0,.36,0,.78,0,1.26,0,.48,0,.94.02,1.37,0,.43.01.78.02,1.05h-1.62ZM453.14,172.97v-.45l1.68-.18h.69l1.65.18v.45h-4.02ZM459.63,172.97c.01-.27.02-.62.02-1.05,0-.43.01-.89.02-1.37,0-.48,0-.9,0-1.26v-1.89c0-.79-.12-1.34-.36-1.64-.24-.3-.58-.46-1.03-.46-.39,0-.81.12-1.26.36-.44.24-.92.66-1.43,1.26l-.16-.66h.22c.5-.65,1.02-1.13,1.55-1.43.53-.3,1.09-.46,1.66-.46.77,0,1.35.24,1.74.71.39.47.59,1.25.59,2.33v1.87c0,.36,0,.78,0,1.26,0,.48.01.94.02,1.37,0,.43.01.78.02,1.05h-1.63ZM458.4,172.97v-.45l1.66-.18h.69l1.66.18v.45h-4.02Z"/>
        <path class="cls-8" d="M464.66,177.13c.01-.4.02-.81.02-1.25,0-.44.01-.88.02-1.32,0-.44,0-.85,0-1.22v-5.06c0-.54,0-1.03,0-1.45,0-.42-.02-.82-.04-1.21l-1.38-.1v-.4l2.64-.7.21.13.11,1.33.02.1v5.74l-.02.18v1.44c0,.36,0,.77,0,1.21,0,.44,0,.89.02,1.33,0,.44.01.86.02,1.26h-1.63ZM463.34,177.13v-.45l1.78-.16h.8l1.84.16v.45h-4.42ZM468.72,173.21c-.49,0-.97-.11-1.45-.33-.47-.22-.91-.61-1.3-1.18h-.21l.24-.38c.37.41.73.68,1.08.83.35.15.73.22,1.16.22.45,0,.86-.12,1.22-.35.37-.23.66-.62.88-1.15.22-.53.33-1.24.33-2.11,0-1.24-.22-2.14-.65-2.71-.43-.57-1-.86-1.72-.86-.37,0-.75.09-1.13.26-.38.18-.79.52-1.24,1.03l-.19-.38h.16c.42-.61.89-1.05,1.42-1.32.53-.27,1.08-.41,1.63-.41.66,0,1.24.18,1.74.53.5.35.9.85,1.2,1.5s.45,1.42.45,2.33-.16,1.71-.48,2.38c-.32.67-.75,1.19-1.3,1.55-.54.36-1.16.54-1.86.54Z"/>
        <path class="cls-8" d="M473.58,172.97v-.45l1.86-.18h.64l1.89.18v.45h-4.38ZM474.96,172.97c.01-.35.02-.74.02-1.16,0-.42,0-.85.02-1.29,0-.44,0-.85,0-1.23v-8.24l-1.36-.08v-.43l2.74-.51.24.14-.05,2.5v6.62c0,.38,0,.79,0,1.23,0,.44.01.87.02,1.29,0,.42.01.81.02,1.16h-1.66Z"/>
        <path class="cls-8" d="M483.39,173.21c-.81,0-1.53-.17-2.16-.5-.63-.33-1.12-.82-1.48-1.48-.36-.66-.54-1.46-.54-2.42s.19-1.71.56-2.37c.37-.66.87-1.17,1.49-1.53.62-.36,1.29-.54,2-.54s1.34.15,1.85.45c.51.3.89.7,1.15,1.21.26.51.39,1.09.39,1.74,0,.38-.03.7-.1.96h-6.64v-.51h4.48c.3,0,.5-.08.61-.24.11-.16.16-.42.16-.77,0-.69-.17-1.25-.51-1.67-.34-.42-.82-.63-1.44-.63-.44,0-.83.14-1.19.42-.36.28-.64.7-.86,1.25-.21.55-.32,1.22-.32,2.02,0,.86.13,1.58.39,2.14s.62.97,1.06,1.22c.45.26.96.38,1.55.38s1.05-.1,1.46-.3c.41-.2.77-.49,1.08-.86l.27.21c-.34.58-.79,1.02-1.34,1.34-.55.32-1.2.48-1.94.48Z"/>
        <path class="cls-8" d="M496.34,173.21c-.81,0-1.53-.17-2.16-.5-.63-.33-1.12-.82-1.48-1.48-.36-.66-.54-1.46-.54-2.42s.19-1.71.56-2.37c.37-.66.87-1.17,1.49-1.53.62-.36,1.29-.54,2-.54s1.34.15,1.85.45c.51.3.89.7,1.15,1.21.26.51.39,1.09.39,1.74,0,.38-.03.7-.1.96h-6.64v-.51h4.48c.3,0,.5-.08.61-.24.11-.16.16-.42.16-.77,0-.69-.17-1.25-.51-1.67-.34-.42-.82-.63-1.44-.63-.44,0-.83.14-1.19.42-.36.28-.64.7-.86,1.25-.21.55-.32,1.22-.32,2.02,0,.86.13,1.58.39,2.14s.62.97,1.06,1.22c.45.26.96.38,1.55.38s1.05-.1,1.46-.3c.41-.2.77-.49,1.08-.86l.27.21c-.34.58-.79,1.02-1.34,1.34-.55.32-1.2.48-1.94.48Z"/>
        <path class="cls-8" d="M502.19,172.97c0-.27.02-.62.02-1.06,0-.44.01-.9.02-1.38,0-.48,0-.9,0-1.25v-1.04c0-.55,0-1.03,0-1.44,0-.41-.02-.8-.04-1.18l-1.36-.1v-.4l2.66-.7.21.13.1,2.26v2.48c0,.35,0,.77,0,1.25,0,.48.01.94.02,1.38,0,.44.01.79.02,1.06h-1.65ZM500.93,172.97v-.45l1.74-.19h.88l1.79.19v.45h-4.42ZM503.79,167.87l-.4-.88h.32c.17-.53.4-.99.68-1.38.28-.39.6-.69.96-.9.36-.21.72-.32,1.1-.32.32,0,.6.07.84.2.24.13.4.34.47.63,0,.29-.07.52-.22.7-.14.18-.37.27-.68.27-.21,0-.41-.06-.58-.18-.17-.12-.35-.28-.54-.5l-.37-.37.69.03c-.52.18-.97.48-1.34.9-.37.42-.68,1.02-.94,1.78Z"/>
        <path class="cls-8" d="M509.76,172.97c0-.27.02-.62.02-1.06,0-.44.01-.9.02-1.38,0-.48,0-.9,0-1.25v-1.04c0-.55,0-1.03,0-1.44,0-.41-.02-.8-.04-1.18l-1.36-.1v-.4l2.66-.7.21.13.1,2.26v2.48c0,.35,0,.77,0,1.25,0,.48.01.94.02,1.38,0,.44.01.79.02,1.06h-1.65ZM508.5,172.97v-.45l1.74-.19h.88l1.79.19v.45h-4.42ZM511.36,167.87l-.4-.88h.32c.17-.53.4-.99.68-1.38.28-.39.6-.69.96-.9.36-.21.72-.32,1.1-.32.32,0,.6.07.84.2.24.13.4.34.47.63,0,.29-.07.52-.22.7-.14.18-.37.27-.68.27-.21,0-.41-.06-.58-.18-.17-.12-.35-.28-.54-.5l-.37-.37.69.03c-.52.18-.97.48-1.34.9-.37.42-.68,1.02-.94,1.78Z"/>
        <path class="cls-8" d="M519.94,173.21c-.75,0-1.43-.17-2.05-.5-.62-.34-1.11-.83-1.48-1.5-.37-.66-.55-1.47-.55-2.42s.19-1.77.58-2.42c.38-.66.89-1.15,1.51-1.49s1.29-.5,1.99-.5,1.4.17,2.02.5,1.13.83,1.51,1.49c.38.66.58,1.46.58,2.42s-.19,1.75-.57,2.42c-.38.66-.88,1.16-1.5,1.5-.62.34-1.3.5-2.05.5ZM519.94,172.7c.76,0,1.35-.33,1.78-.99.43-.66.64-1.63.64-2.9s-.21-2.24-.64-2.9-1.02-1-1.78-1-1.33.33-1.76,1-.64,1.63-.64,2.9.21,2.23.64,2.9c.43.66,1.01.99,1.76.99Z"/>
        <path class="cls-8" d="M526.69,172.97c0-.27.02-.62.02-1.06,0-.44.01-.9.02-1.38,0-.48,0-.9,0-1.25v-1.04c0-.55,0-1.03,0-1.44,0-.41-.02-.8-.04-1.18l-1.36-.1v-.4l2.66-.7.21.13.1,2.26v2.48c0,.35,0,.77,0,1.25,0,.48.01.94.02,1.38,0,.44.01.79.02,1.06h-1.65ZM525.42,172.97v-.45l1.74-.19h.88l1.79.19v.45h-4.42ZM528.29,167.87l-.4-.88h.32c.17-.53.4-.99.68-1.38.28-.39.6-.69.96-.9.36-.21.72-.32,1.1-.32.32,0,.6.07.84.2.24.13.4.34.47.63,0,.29-.07.52-.22.7-.14.18-.37.27-.68.27-.21,0-.41-.06-.58-.18-.17-.12-.35-.28-.54-.5l-.37-.37.69.03c-.52.18-.97.48-1.34.9-.37.42-.68,1.02-.94,1.78Z"/>
      </g>
      <g>
        <path class="cls-7" d="M380.82,267.21c0-.27.02-.62.02-1.06,0-.44.01-.9.02-1.38,0-.48,0-.9,0-1.25v-1.06c0-.54,0-1.02,0-1.42,0-.41-.02-.81-.04-1.2l-1.36-.08v-.4l2.66-.7.21.13.1,1.81v2.93c0,.35,0,.77,0,1.25,0,.48.01.94.02,1.38,0,.44.01.79.02,1.06h-1.65ZM379.55,267.21v-.45l1.73-.18h.66l1.68.18v.45h-4.06ZM386.12,267.21c.01-.27.02-.62.02-1.05,0-.43.01-.89.02-1.37,0-.48,0-.9,0-1.26v-1.89c0-.77-.12-1.31-.36-1.62-.24-.31-.57-.47-.98-.47s-.82.13-1.28.4c-.46.27-.94.7-1.46,1.3l-.13-.62h.21c.5-.65,1.02-1.15,1.56-1.49.54-.34,1.11-.51,1.7-.51.71,0,1.27.24,1.66.71s.59,1.25.59,2.31v1.89c0,.36,0,.78,0,1.26,0,.48,0,.94.02,1.37,0,.43.01.78.02,1.05h-1.62ZM384.87,267.21v-.45l1.68-.18h.69l1.65.18v.45h-4.02ZM391.36,267.21c.01-.27.02-.62.02-1.05,0-.43.01-.89.02-1.37,0-.48,0-.9,0-1.26v-1.89c0-.79-.12-1.34-.36-1.64-.24-.3-.58-.46-1.03-.46-.39,0-.81.12-1.26.36-.44.24-.92.66-1.43,1.26l-.16-.66h.22c.5-.65,1.02-1.13,1.55-1.43.53-.3,1.09-.46,1.66-.46.77,0,1.35.24,1.74.71.39.47.59,1.25.59,2.33v1.87c0,.36,0,.78,0,1.26,0,.48.01.94.02,1.37,0,.43.01.78.02,1.05h-1.63ZM390.13,267.21v-.45l1.66-.18h.69l1.66.18v.45h-4.02Z"/>
        <path class="cls-7" d="M399.48,267.45c-.75,0-1.43-.17-2.05-.5-.62-.34-1.11-.83-1.48-1.5-.37-.66-.55-1.47-.55-2.42s.19-1.77.58-2.42c.38-.66.89-1.15,1.51-1.49s1.29-.5,1.99-.5,1.4.17,2.02.5,1.13.83,1.51,1.49c.38.66.58,1.46.58,2.42s-.19,1.75-.57,2.42c-.38.66-.88,1.16-1.5,1.5-.62.34-1.3.5-2.05.5ZM399.48,266.94c.76,0,1.35-.33,1.78-.99.43-.66.64-1.63.64-2.9s-.21-2.24-.64-2.9-1.02-1-1.78-1-1.33.33-1.76,1-.64,1.63-.64,2.9.21,2.23.64,2.9c.43.66,1.01.99,1.76.99Z"/>
        <path class="cls-7" d="M408.66,267.45c-.68,0-1.29-.18-1.83-.54-.54-.36-.96-.86-1.26-1.51-.3-.65-.46-1.41-.46-2.27,0-.93.17-1.73.5-2.4s.79-1.19,1.36-1.56c.57-.37,1.21-.55,1.91-.55.48,0,.94.12,1.38.35.44.23.85.62,1.23,1.17h.16l-.22.37c-.36-.38-.71-.66-1.03-.82-.33-.17-.67-.25-1.05-.25-.47,0-.9.12-1.29.36-.39.24-.7.63-.94,1.17s-.35,1.25-.35,2.12c0,.82.11,1.49.33,2.02s.51.91.89,1.15c.37.25.79.37,1.26.37.41,0,.78-.09,1.12-.26.34-.18.68-.47,1.02-.87l.22.42h-.14c-.36.51-.78.9-1.26,1.16s-.99.39-1.56.39ZM411.28,267.37l-.1-1.55v-5.62l.05-.16v-4.75l-1.42-.08v-.43l2.74-.51.24.14-.05,2.45v9.81l1.41.1v.45l-2.86.16Z"/>
        <path class="cls-7" d="M419.47,267.45c-.81,0-1.53-.17-2.16-.5-.63-.33-1.12-.82-1.48-1.48-.36-.66-.54-1.46-.54-2.42s.19-1.71.56-2.37c.37-.66.87-1.17,1.49-1.53.62-.36,1.29-.54,2-.54s1.34.15,1.85.45c.51.3.89.7,1.15,1.21.26.51.39,1.09.39,1.74,0,.38-.03.7-.1.96h-6.64v-.51h4.48c.3,0,.5-.08.61-.24.11-.16.16-.42.16-.77,0-.69-.17-1.25-.51-1.67-.34-.42-.82-.63-1.44-.63-.44,0-.83.14-1.19.42-.36.28-.64.7-.86,1.25-.21.55-.32,1.22-.32,2.02,0,.86.13,1.58.39,2.14s.62.97,1.06,1.22c.45.26.96.38,1.55.38s1.05-.1,1.46-.3c.41-.2.77-.49,1.08-.86l.27.21c-.34.58-.79,1.02-1.34,1.34-.55.32-1.2.48-1.94.48Z"/>
        <path class="cls-7" d="M423.75,267.21v-.45l1.86-.18h.64l1.89.18v.45h-4.38ZM425.12,267.21c.01-.35.02-.74.02-1.16,0-.42,0-.85.02-1.29,0-.44,0-.85,0-1.23v-8.24l-1.36-.08v-.43l2.74-.51.24.14-.05,2.5v6.62c0,.38,0,.79,0,1.23,0,.44.01.87.02,1.29,0,.42.01.81.02,1.16h-1.66Z"/>
        <path class="cls-7" d="M437.52,267.45c-.79,0-1.49-.17-2.1-.51-.61-.34-1.09-.83-1.44-1.47-.35-.64-.53-1.41-.53-2.32,0-.97.2-1.79.6-2.46.4-.67.93-1.18,1.58-1.54s1.36-.53,2.12-.53c.5,0,.96.09,1.38.28.42.19.78.44,1.06.77.29.33.49.71.59,1.14-.12.41-.37.61-.75.61-.25,0-.45-.07-.6-.21-.15-.14-.25-.38-.3-.72l-.37-1.44.88.66c-.32-.2-.62-.35-.9-.43-.28-.09-.57-.13-.86-.13-.53,0-1.01.15-1.44.46-.43.3-.76.74-1.01,1.3-.25.57-.37,1.25-.37,2.05,0,1.15.28,2.05.84,2.68.56.63,1.29.95,2.18.95.47,0,.91-.1,1.32-.29.41-.19.78-.48,1.11-.86l.27.21c-.36.59-.81,1.03-1.33,1.34-.52.31-1.18.46-1.97.46Z"/>
        <path class="cls-7" d="M446.23,267.45c-.75,0-1.43-.17-2.05-.5-.62-.34-1.11-.83-1.48-1.5-.37-.66-.55-1.47-.55-2.42s.19-1.77.58-2.42c.38-.66.89-1.15,1.51-1.49s1.29-.5,1.99-.5,1.4.17,2.02.5,1.13.83,1.51,1.49c.38.66.58,1.46.58,2.42s-.19,1.75-.57,2.42c-.38.66-.88,1.16-1.5,1.5-.62.34-1.3.5-2.05.5ZM446.23,266.94c.76,0,1.35-.33,1.78-.99.43-.66.64-1.63.64-2.9s-.21-2.24-.64-2.9-1.02-1-1.78-1-1.33.33-1.76,1-.64,1.63-.64,2.9.21,2.23.64,2.9c.43.66,1.01.99,1.76.99Z"/>
        <path class="cls-7" d="M452.98,267.21c0-.27.02-.62.02-1.06,0-.44.01-.9.02-1.38,0-.48,0-.9,0-1.25v-1.06c0-.54,0-1.02,0-1.42,0-.41-.02-.81-.04-1.2l-1.36-.08v-.4l2.66-.7.21.13.1,1.81v2.93c0,.35,0,.77,0,1.25,0,.48.01.94.02,1.38,0,.44.01.79.02,1.06h-1.65ZM451.71,267.21v-.45l1.73-.18h.66l1.68.18v.45h-4.06ZM458.27,267.21c.01-.27.02-.62.02-1.05,0-.43.01-.89.02-1.37,0-.48,0-.9,0-1.26v-1.89c0-.77-.12-1.31-.36-1.62-.24-.31-.57-.47-.98-.47s-.82.13-1.28.4c-.46.27-.94.7-1.46,1.3l-.13-.62h.21c.5-.65,1.02-1.15,1.56-1.49.54-.34,1.11-.51,1.7-.51.71,0,1.27.24,1.66.71s.59,1.25.59,2.31v1.89c0,.36,0,.78,0,1.26,0,.48,0,.94.02,1.37,0,.43.01.78.02,1.05h-1.62ZM457.03,267.21v-.45l1.68-.18h.69l1.65.18v.45h-4.02ZM463.52,267.21c.01-.27.02-.62.02-1.05,0-.43.01-.89.02-1.37,0-.48,0-.9,0-1.26v-1.89c0-.79-.12-1.34-.36-1.64-.24-.3-.58-.46-1.03-.46-.39,0-.81.12-1.26.36-.44.24-.92.66-1.43,1.26l-.16-.66h.22c.5-.65,1.02-1.13,1.55-1.43.53-.3,1.09-.46,1.66-.46.77,0,1.35.24,1.74.71.39.47.59,1.25.59,2.33v1.87c0,.36,0,.78,0,1.26,0,.48.01.94.02,1.37,0,.43.01.78.02,1.05h-1.63ZM462.29,267.21v-.45l1.66-.18h.69l1.66.18v.45h-4.02Z"/>
        <path class="cls-7" d="M468.55,271.37c.01-.4.02-.81.02-1.25,0-.44.01-.88.02-1.32,0-.44,0-.85,0-1.22v-5.06c0-.54,0-1.03,0-1.45,0-.42-.02-.82-.04-1.21l-1.38-.1v-.4l2.64-.7.21.13.11,1.33.02.1v5.74l-.02.18v1.44c0,.36,0,.77,0,1.21,0,.44,0,.89.02,1.33,0,.44.01.86.02,1.26h-1.63ZM467.23,271.37v-.45l1.78-.16h.8l1.84.16v.45h-4.42ZM472.61,267.45c-.49,0-.97-.11-1.45-.33-.47-.22-.91-.61-1.3-1.18h-.21l.24-.38c.37.41.73.68,1.08.83.35.15.73.22,1.16.22.45,0,.86-.12,1.22-.35.37-.23.66-.62.88-1.15.22-.53.33-1.24.33-2.11,0-1.24-.22-2.14-.65-2.71-.43-.57-1-.86-1.72-.86-.37,0-.75.09-1.13.26-.38.18-.79.52-1.24,1.03l-.19-.38h.16c.42-.61.89-1.05,1.42-1.32.53-.27,1.08-.41,1.63-.41.66,0,1.24.18,1.74.53.5.35.9.85,1.2,1.5s.45,1.42.45,2.33-.16,1.71-.48,2.38c-.32.67-.75,1.19-1.3,1.55-.54.36-1.16.54-1.86.54Z"/>
        <path class="cls-7" d="M477.47,267.21v-.45l1.86-.18h.64l1.89.18v.45h-4.38ZM478.85,267.21c.01-.35.02-.74.02-1.16,0-.42,0-.85.02-1.29,0-.44,0-.85,0-1.23v-8.24l-1.36-.08v-.43l2.74-.51.24.14-.05,2.5v6.62c0,.38,0,.79,0,1.23,0,.44.01.87.02,1.29,0,.42.01.81.02,1.16h-1.66Z"/>
        <path class="cls-7" d="M487.28,267.45c-.81,0-1.53-.17-2.16-.5-.63-.33-1.12-.82-1.48-1.48-.36-.66-.54-1.46-.54-2.42s.19-1.71.56-2.37c.37-.66.87-1.17,1.49-1.53.62-.36,1.29-.54,2-.54s1.34.15,1.85.45c.51.3.89.7,1.15,1.21.26.51.39,1.09.39,1.74,0,.38-.03.7-.1.96h-6.64v-.51h4.48c.3,0,.5-.08.61-.24.11-.16.16-.42.16-.77,0-.69-.17-1.25-.51-1.67-.34-.42-.82-.63-1.44-.63-.44,0-.83.14-1.19.42-.36.28-.64.7-.86,1.25-.21.55-.32,1.22-.32,2.02,0,.86.13,1.58.39,2.14s.62.97,1.06,1.22c.45.26.96.38,1.55.38s1.05-.1,1.46-.3c.41-.2.77-.49,1.08-.86l.27.21c-.34.58-.79,1.02-1.34,1.34-.55.32-1.2.48-1.94.48Z"/>
        <path class="cls-7" d="M491.36,267.21v-.45l1.41-.16h.35l1.41.16v.45h-3.17ZM491.46,259.34v-.48h4.02v.48l-1.66.16h-.7l-1.65-.16ZM492.08,267.21l3.49-4.67.34.32h-.03l-1.5,2.18-1.49,2.18h-.8ZM497.73,267.21l-2.53-3.76-3.09-4.59h1.76l2.46,3.62,3.22,4.74h-1.82ZM496.02,263.35l-.34-.34h.06l1.42-2.08,1.42-2.08h.78l-3.36,4.5ZM496.08,267.21v-.45l2-.18h.43l1.7.18v.45h-4.13ZM496.93,259.34v-.48h3.06v.48l-1.28.14h-.35l-1.42-.14Z"/>
        <path class="cls-7" d="M502.31,267.21c.01-.27.02-.62.03-1.06.01-.44.02-.9.02-1.38,0-.48,0-.9,0-1.25v-1.02c0-.54,0-1.03-.02-1.45-.01-.42-.03-.83-.05-1.22l-1.38-.08v-.4l2.83-.69.21.13-.05,2.3v2.43c0,.35,0,.77,0,1.25,0,.48.01.94.02,1.38,0,.44.01.79.02,1.06h-1.66ZM501.04,267.21v-.45l1.74-.18h.64l1.71.18v.45h-4.1ZM503.03,256.73c-.28,0-.51-.09-.71-.27-.2-.18-.3-.42-.3-.7s.1-.52.3-.7c.2-.18.43-.27.71-.27s.52.09.72.27c.2.18.3.42.3.7s-.1.52-.3.7c-.2.18-.44.27-.72.27Z"/>
        <path class="cls-7" d="M509.57,267.45c-.69,0-1.21-.18-1.55-.54-.34-.36-.51-.91-.51-1.66,0-.27,0-.51,0-.72,0-.21,0-.47,0-.77v-4.3h-1.54v-.5l1.87-.14-.3.22.56-2.7h1.02l-.05,2.77v6.19c0,.48.09.83.28,1.05.19.22.45.33.79.33.23,0,.44-.04.62-.11.18-.07.37-.18.58-.32l.24.29c-.22.3-.5.53-.83.68-.33.15-.73.23-1.2.23ZM508.31,259.46v-.61h3.01v.61h-3.01Z"/>
        <path class="cls-7" d="M513.15,271.54c-.37,0-.71-.08-1.02-.25-.3-.17-.47-.4-.5-.7.04-.25.16-.43.36-.54.2-.12.42-.18.66-.18s.45.06.65.18c.2.12.39.28.57.48l.46.48-.53.29-.3-.27c.52-.17.98-.51,1.38-1.01s.75-1.15,1.06-1.95l.46-1.15.1-.26,1.41-3.92,1.33-3.89h.64l-3.39,9.07c-.32.86-.66,1.56-1.01,2.1-.35.53-.72.92-1.1,1.16-.38.24-.79.36-1.22.36ZM511.65,259.3v-.45h4.14v.45l-1.68.18h-.86l-1.6-.18ZM516.19,268.12l-3.76-9.26h1.71l2.66,7.23.1.19-.7,1.84ZM517.49,259.3v-.45h3.25v.45l-1.31.16h-.24l-1.7-.16Z"/>
      </g>
      <g>
        <path class="cls-9" d="M378.65,422.71c.01-.27.02-.62.03-1.06.01-.44.02-.9.02-1.38,0-.48,0-.9,0-1.25v-1.02c0-.54,0-1.03-.02-1.45-.01-.42-.03-.83-.05-1.22l-1.38-.08v-.4l2.83-.69.21.13-.05,2.3v2.43c0,.35,0,.77,0,1.25,0,.48.01.94.02,1.38,0,.44.01.79.02,1.06h-1.66ZM377.39,422.71v-.45l1.74-.18h.64l1.71.18v.45h-4.1ZM379.38,412.23c-.28,0-.51-.09-.71-.27-.2-.18-.3-.42-.3-.7s.1-.52.3-.7c.2-.18.43-.27.71-.27s.52.09.72.27c.2.18.3.42.3.7s-.1.52-.3.7c-.2.18-.44.27-.72.27Z"/>
        <path class="cls-9" d="M384.01,422.71c0-.27.02-.62.02-1.06,0-.44.01-.9.02-1.38,0-.48,0-.9,0-1.25v-1.04c0-.54,0-1.02,0-1.43,0-.41-.02-.81-.04-1.19l-1.36-.1v-.4l2.66-.7.21.13.1,1.86v2.88c0,.35,0,.77,0,1.25,0,.48.01.94.02,1.38,0,.44.01.79.02,1.06h-1.65ZM382.75,422.71v-.45l1.73-.18h.66l1.68.18v.45h-4.06ZM389.47,422.71c0-.27.02-.62.02-1.05,0-.43.01-.89.02-1.37,0-.48,0-.9,0-1.26v-1.95c0-.75-.12-1.27-.37-1.58-.25-.3-.59-.46-1.04-.46-.35,0-.77.12-1.26.36-.49.24-1.01.67-1.57,1.29l-.11-.58h.18c.59-.73,1.16-1.24,1.73-1.54.57-.3,1.13-.46,1.7-.46.71,0,1.27.24,1.68.71s.61,1.25.61,2.31v1.89c0,.36,0,.78,0,1.26,0,.48.01.94.02,1.37.01.43.02.78.03,1.05h-1.65ZM388.22,422.71v-.45l1.7-.18h.67l1.68.18v.45h-4.05Z"/>
        <path class="cls-9" d="M393.44,418.81v-.88h4.24v.88h-4.24Z"/>
        <path class="cls-9" d="M401.98,422.96c-.54,0-1.03-.06-1.46-.17-.43-.11-.87-.28-1.3-.5l.02-1.95h.75l.42,2.08-.64-.05v-.58c.32.2.64.36.97.47.33.11.72.17,1.18.17.69,0,1.22-.14,1.57-.41.35-.27.53-.64.53-1.1,0-.38-.12-.7-.35-.94s-.68-.47-1.34-.67l-.85-.3c-.65-.22-1.17-.53-1.56-.9s-.58-.88-.58-1.5c0-.7.27-1.29.81-1.77.54-.47,1.31-.71,2.31-.71.5,0,.94.06,1.33.18s.78.3,1.2.54l-.06,1.76h-.69l-.45-1.94.54.13v.51c-.32-.23-.62-.4-.91-.5s-.6-.14-.94-.14c-.59,0-1.04.13-1.34.39s-.46.6-.46,1.02c0,.36.12.66.38.9s.67.46,1.26.66l.83.29c.82.28,1.41.61,1.75,1.01s.52.88.52,1.46c0,.49-.13.93-.39,1.32-.26.39-.64.69-1.14.91-.5.22-1.12.33-1.86.33Z"/>
        <path class="cls-9" d="M409.05,422.96c-.64,0-1.17-.18-1.6-.54-.43-.36-.64-.88-.64-1.55,0-.43.09-.8.28-1.14.19-.33.5-.63.94-.89.44-.26,1.02-.5,1.76-.71.44-.13.91-.26,1.41-.38.5-.13.96-.25,1.39-.35v.4c-.43.11-.86.22-1.29.34-.43.12-.82.25-1.16.38-.65.25-1.12.54-1.4.89s-.42.76-.42,1.24.13.86.39,1.1c.26.25.61.37,1.03.37.22,0,.45-.04.67-.13.22-.08.48-.24.77-.47s.63-.55,1.02-.95l.16.78h-.43c-.32.35-.62.65-.91.89s-.59.42-.9.54c-.31.12-.67.18-1.07.18ZM413.37,422.94c-.49,0-.86-.16-1.11-.48-.25-.32-.4-.76-.44-1.31v-4.27c0-.6-.06-1.06-.19-1.38-.13-.32-.32-.54-.58-.67-.26-.13-.6-.19-1.02-.19-.3,0-.6.04-.9.12-.3.08-.64.22-1,.41l.78-.43-.24,1.26c-.03.33-.12.57-.28.7-.16.14-.34.21-.55.21-.43,0-.69-.21-.78-.62.14-.67.5-1.2,1.1-1.58.59-.38,1.37-.58,2.34-.58s1.69.23,2.14.69c.46.46.69,1.2.69,2.22v4.02c0,.46.06.77.17.94.11.17.27.26.47.26.13,0,.25-.03.35-.1.11-.06.23-.18.37-.34l.26.22c-.17.31-.39.54-.65.68-.26.14-.57.22-.92.22Z"/>
        <path class="cls-9" d="M416.97,422.71c0-.27.02-.62.02-1.06,0-.44.01-.9.02-1.38,0-.48,0-.9,0-1.25v-1.06c0-.54,0-1.02,0-1.42,0-.41-.02-.81-.04-1.2l-1.36-.08v-.4l2.66-.7.21.13.1,1.81v2.93c0,.35,0,.77,0,1.25,0,.48.01.94.02,1.38,0,.44.01.79.02,1.06h-1.65ZM415.71,422.71v-.45l1.73-.18h.66l1.68.18v.45h-4.06ZM422.27,422.71c.01-.27.02-.62.02-1.05,0-.43.01-.89.02-1.37,0-.48,0-.9,0-1.26v-1.89c0-.77-.12-1.31-.36-1.62-.24-.31-.57-.47-.98-.47s-.82.13-1.28.4c-.46.27-.94.7-1.46,1.3l-.13-.62h.21c.5-.65,1.02-1.15,1.56-1.49.54-.34,1.11-.51,1.7-.51.71,0,1.27.24,1.66.71s.59,1.25.59,2.31v1.89c0,.36,0,.78,0,1.26,0,.48,0,.94.02,1.37,0,.43.01.78.02,1.05h-1.62ZM421.02,422.71v-.45l1.68-.18h.69l1.65.18v.45h-4.02ZM427.52,422.71c.01-.27.02-.62.02-1.05,0-.43.01-.89.02-1.37,0-.48,0-.9,0-1.26v-1.89c0-.79-.12-1.34-.36-1.64-.24-.3-.58-.46-1.03-.46-.39,0-.81.12-1.26.36-.44.24-.92.66-1.43,1.26l-.16-.66h.22c.5-.65,1.02-1.13,1.55-1.43.53-.3,1.09-.46,1.66-.46.77,0,1.35.24,1.74.71.39.47.59,1.25.59,2.33v1.87c0,.36,0,.78,0,1.26,0,.48.01.94.02,1.37,0,.43.01.78.02,1.05h-1.63ZM426.29,422.71v-.45l1.66-.18h.69l1.66.18v.45h-4.02Z"/>
        <path class="cls-9" d="M432.54,426.88c.01-.4.02-.81.02-1.25,0-.44.01-.88.02-1.32,0-.44,0-.85,0-1.22v-5.06c0-.54,0-1.03,0-1.45,0-.42-.02-.82-.04-1.21l-1.38-.1v-.4l2.64-.7.21.13.11,1.33.02.1v5.74l-.02.18v1.44c0,.36,0,.76,0,1.21,0,.44,0,.88.02,1.33,0,.44.01.86.02,1.26h-1.63ZM431.23,426.88v-.45l1.78-.16h.8l1.84.16v.45h-4.42ZM436.61,422.96c-.49,0-.97-.11-1.45-.33-.47-.22-.91-.61-1.3-1.18h-.21l.24-.38c.37.41.73.68,1.08.83.35.15.73.22,1.16.22.45,0,.86-.12,1.22-.35s.66-.62.88-1.15c.22-.53.33-1.24.33-2.11,0-1.24-.22-2.14-.65-2.71-.43-.57-1-.86-1.72-.86-.37,0-.75.09-1.13.26-.38.18-.79.52-1.24,1.03l-.19-.38h.16c.42-.61.89-1.05,1.42-1.32.53-.27,1.08-.41,1.63-.41.66,0,1.24.18,1.74.53.5.35.9.85,1.2,1.5s.45,1.42.45,2.33-.16,1.71-.48,2.38c-.32.67-.75,1.19-1.3,1.55-.54.36-1.16.54-1.86.54Z"/>
        <path class="cls-9" d="M441.47,422.71v-.45l1.86-.18h.64l1.89.18v.45h-4.38ZM442.85,422.71c.01-.35.02-.74.02-1.16,0-.42,0-.85.02-1.29,0-.44,0-.85,0-1.23v-8.24l-1.36-.08v-.43l2.74-.51.24.14-.05,2.5v6.62c0,.38,0,.79,0,1.23,0,.44.01.87.02,1.29,0,.42.01.81.02,1.16h-1.66Z"/>
        <path class="cls-9" d="M451.28,422.96c-.81,0-1.53-.17-2.16-.5-.63-.33-1.12-.82-1.48-1.48-.36-.66-.54-1.46-.54-2.42s.19-1.71.56-2.37.87-1.17,1.49-1.53c.62-.36,1.29-.54,2-.54s1.34.15,1.85.45c.51.3.89.7,1.15,1.21.26.51.39,1.09.39,1.74,0,.38-.03.7-.1.96h-6.64v-.51h4.48c.3,0,.5-.08.61-.24.11-.16.16-.42.16-.77,0-.69-.17-1.25-.51-1.67-.34-.42-.82-.63-1.44-.63-.44,0-.83.14-1.19.42-.36.28-.64.7-.86,1.25-.21.55-.32,1.22-.32,2.02,0,.86.13,1.58.39,2.14.26.56.62.97,1.06,1.22.45.26.96.38,1.55.38s1.05-.1,1.46-.3c.41-.2.77-.49,1.08-.86l.27.21c-.34.58-.79,1.02-1.34,1.34-.55.32-1.2.48-1.94.48Z"/>
        <path class="cls-9" d="M464.22,422.96c-.81,0-1.53-.17-2.16-.5-.63-.33-1.12-.82-1.48-1.48-.36-.66-.54-1.46-.54-2.42s.19-1.71.56-2.37.87-1.17,1.49-1.53c.62-.36,1.29-.54,2-.54s1.34.15,1.85.45c.51.3.89.7,1.15,1.21.26.51.39,1.09.39,1.74,0,.38-.03.7-.1.96h-6.64v-.51h4.48c.3,0,.5-.08.61-.24.11-.16.16-.42.16-.77,0-.69-.17-1.25-.51-1.67-.34-.42-.82-.63-1.44-.63-.44,0-.83.14-1.19.42-.36.28-.64.7-.86,1.25-.21.55-.32,1.22-.32,2.02,0,.86.13,1.58.39,2.14.26.56.62.97,1.06,1.22.45.26.96.38,1.55.38s1.05-.1,1.46-.3c.41-.2.77-.49,1.08-.86l.27.21c-.34.58-.79,1.02-1.34,1.34-.55.32-1.2.48-1.94.48Z"/>
        <path class="cls-9" d="M470.08,422.71c0-.27.02-.62.02-1.06,0-.44.01-.9.02-1.38,0-.48,0-.9,0-1.25v-1.04c0-.55,0-1.03,0-1.44,0-.41-.02-.8-.04-1.18l-1.36-.1v-.4l2.66-.7.21.13.1,2.26v2.48c0,.35,0,.77,0,1.25,0,.48.01.94.02,1.38,0,.44.01.79.02,1.06h-1.65ZM468.81,422.71v-.45l1.74-.19h.88l1.79.19v.45h-4.42ZM471.68,417.61l-.4-.88h.32c.17-.53.4-.99.68-1.38.28-.39.6-.69.96-.9.36-.21.72-.32,1.1-.32.32,0,.6.07.84.2.24.13.4.34.47.63,0,.29-.07.52-.22.7-.14.18-.37.27-.68.27-.21,0-.41-.06-.58-.18s-.35-.28-.54-.5l-.37-.37.69.03c-.52.18-.97.48-1.34.9-.37.42-.68,1.02-.94,1.78Z"/>
        <path class="cls-9" d="M477.65,422.71c0-.27.02-.62.02-1.06,0-.44.01-.9.02-1.38,0-.48,0-.9,0-1.25v-1.04c0-.55,0-1.03,0-1.44,0-.41-.02-.8-.04-1.18l-1.36-.1v-.4l2.66-.7.21.13.1,2.26v2.48c0,.35,0,.77,0,1.25,0,.48.01.94.02,1.38,0,.44.01.79.02,1.06h-1.65ZM476.38,422.71v-.45l1.74-.19h.88l1.79.19v.45h-4.42ZM479.25,417.61l-.4-.88h.32c.17-.53.4-.99.68-1.38.28-.39.6-.69.96-.9.36-.21.72-.32,1.1-.32.32,0,.6.07.84.2.24.13.4.34.47.63,0,.29-.07.52-.22.7-.14.18-.37.27-.68.27-.21,0-.41-.06-.58-.18s-.35-.28-.54-.5l-.37-.37.69.03c-.52.18-.97.48-1.34.9-.37.42-.68,1.02-.94,1.78Z"/>
        <path class="cls-9" d="M487.82,422.96c-.75,0-1.43-.17-2.05-.5-.62-.34-1.11-.83-1.48-1.5-.37-.66-.55-1.47-.55-2.42s.19-1.77.58-2.42c.38-.66.89-1.15,1.51-1.49s1.29-.5,1.99-.5,1.4.17,2.02.5,1.13.83,1.51,1.49c.38.66.58,1.46.58,2.42s-.19,1.75-.57,2.42c-.38.66-.88,1.16-1.5,1.5-.62.34-1.3.5-2.05.5ZM487.82,422.44c.76,0,1.35-.33,1.78-.99.43-.66.64-1.63.64-2.9s-.21-2.24-.64-2.9c-.43-.67-1.02-1-1.78-1s-1.33.33-1.76,1c-.43.67-.64,1.63-.64,2.9s.21,2.23.64,2.9c.43.66,1.01.99,1.76.99Z"/>
        <path class="cls-9" d="M494.57,422.71c0-.27.02-.62.02-1.06,0-.44.01-.9.02-1.38,0-.48,0-.9,0-1.25v-1.04c0-.55,0-1.03,0-1.44,0-.41-.02-.8-.04-1.18l-1.36-.1v-.4l2.66-.7.21.13.1,2.26v2.48c0,.35,0,.77,0,1.25,0,.48.01.94.02,1.38,0,.44.01.79.02,1.06h-1.65ZM493.31,422.71v-.45l1.74-.19h.88l1.79.19v.45h-4.42ZM496.17,417.61l-.4-.88h.32c.17-.53.4-.99.68-1.38.28-.39.6-.69.96-.9.36-.21.72-.32,1.1-.32.32,0,.6.07.84.2.24.13.4.34.47.63,0,.29-.07.52-.22.7-.14.18-.37.27-.68.27-.21,0-.41-.06-.58-.18s-.35-.28-.54-.5l-.37-.37.69.03c-.52.18-.97.48-1.34.9-.37.42-.68,1.02-.94,1.78Z"/>
      </g>
    </g>
  </g>
</svg>